<?xml version="1.0" encoding="UTF-8"?>
<svg enable-background="new 0 0 800 800" version="1.1" viewBox="0 0 800 800" xmlSpace="preserve" xmlns="http://www.w3.org/2000/svg" xmlnsCc="http://web.resource.org/cc/" xmlnsDc="http://purl.org/dc/elements/1.1/" xmlnsRdf="http://www.w3.org/1999/02/22-rdf-syntax-ns#" xmlns:xlink="http://www.w3.org/1999/xlink">

	
		
			<path d="m119.61 799c-5.549 0-9.608-4.351-9.608-9.365v-776.12c0-5.015 4.06-9.52 9.61-9.52h564.38c5.55 0 10.01 4.505 10.01 9.521v776.11c0 5.015-4.459 9.365-10.009 9.365h-564.38z" fill="#fff"/>
			<path d="m684.01 8.032c3.879 0 6.988 2.146 6.988 5.489v776.11c0 3.343-3.131 6.365-7.009 6.365h-564.38c-3.877 0-7.608-3.022-7.608-6.365v-776.12c0-3.343 3.73-5.52 7.61-5.52h564.39m-0.01-6h-564.38c-7.23 0-13.61 4.823-13.61 11.521v776.11c0 6.696 6.375 12.365 13.608 12.365h564.38c7.232 0 13.009-5.669 13.009-12.365v-776.12c0-6.697-5.56-11.52-12.8-11.52h-0.21z"/>
		
		<path d="m608 696.86c0 2.679-2.269 5.136-5.012 5.136h-408.44c-2.744 0-4.548-2.457-4.548-5.136v-591.78c0-2.679 1.804-5.078 4.548-5.078h408.44c2.743 0 5.012 2.399 5.012 5.078v591.78z" fill="none"/>
		
			<defs>
				<path id="f" d="m608 696.86c0 2.679-2.269 5.136-5.012 5.136h-408.44c-2.744 0-4.548-2.457-4.548-5.136v-591.78c0-2.679 1.804-5.078 4.548-5.078h408.44c2.743 0 5.012 2.399 5.012 5.078v591.78z"/>
			</defs>
			<clipPath id="e">
				<use overflow="visible" xlink:href="#f"/>
			</clipPath>
			<g clip-path="url(#e)">
				<path d="m328.78 247.19c-3.984-1.747-95.743 31.905-95.743 31.905l-43.565 61.786 0.11 65.343 51.338 0.808c-0.01-0.01 58.7-84.59 87.85-159.85z" fill="#C60101"/>
				<polygon points="455.74 536.79 334.7 533.96 367.26 465.57 333.48 501.18 324.67 471.81 324.52 463.81 321.56 450.32 333.59 444.02 341.62 436.29 346.77 422.65 349.05 403.4 347.68 370.96 344.65 330.94 340.86 288.19 344.35 281.67 344.65 273.03 344.8 270.15 376.64 299.86 407.26 313.36 419.99 295.16 433.18 272.43 440.45 276.67 438.48 281.37 439.24 288.19 443.03 294.71 448.18 297.59 463.19 320.18 469.52 320.19 473.95 348.85 464.11 355.34 456.64 360.1 452.1 368.21 448.64 378.06 446.58 401.09 447.99 430.19 452.86 487.84 454.5 513.24" fill="#FF841F"/>
				
					
						<path d="m409.77 313.04c25.494-41.622 48.169-89.346 48.395-89.823l-8.768-4.153c-0.224 0.473-22.684 47.741-47.899 88.91l8.28 5.06z" fill="#FDCB45"/>
						<path d="m410.18 314.71-10.341-6.333 0.634-1.034c25.321-41.341 47.615-88.325 47.837-88.795l0.519-1.097 10.961 5.192-0.52 1.096c-0.227 0.479-22.976 48.337-48.456 89.938l-0.63 1.02zm-7.01-7.13 6.205 3.8c23.02-37.743 43.665-80.267 47.178-87.581l-6.576-3.114c-3.49 7.25-23.83 49.21-46.81 86.89z"/>
					
				
				
					
						<path d="m386.25 487.08c-25.494 41.623-48.168 89.346-48.395 89.823l8.769 4.153c0.224-0.474 22.683-47.741 47.899-88.909l-8.28-5.06z" fill="#FDCB45"/>
						<path d="m347.2 582.67-10.961-5.192 0.52-1.097c0.226-0.478 22.975-48.333 48.456-89.937l0.634-1.034 10.341 6.335-0.634 1.033c-25.035 40.874-47.616 88.326-47.836 88.795l-0.52 1.11zm-7.73-6.35 6.577 3.114c3.507-7.298 24.074-49.623 46.806-86.895l-6.206-3.801c-23.02 37.75-43.67 80.27-47.18 87.58z"/>
					
				
				
					
						<path d="m377.45 467.44c38.866 29.527 77.32 65.762 77.704 66.124l-6.66 7.054c-0.382-0.36-38.471-36.248-76.913-65.451l5.87-7.72z" fill="#FDCB45"/>
						<path d="m448.54 542.33-0.883-0.834c-0.38-0.357-38.474-36.24-76.813-65.366l-0.966-0.734 7.336-9.657 0.965 0.733c38.912 29.561 77.418 65.846 77.803 66.209l0.883 0.831-8.32 8.82zm-75.26-67.4c34.864 26.59 69.261 58.459 75.162 63.972l4.995-5.29c-5.922-5.535-40.549-37.625-75.755-64.477l-4.4 5.8z"/>
					
				
				<path d="m467.24 552.93c3.983 1.746 95.742-31.905 95.742-31.905l44.087-62.176 0.093-65.076-52.063-0.686c0 0.01-58.71 84.6-87.86 159.86z" fill="#C60101"/>
				
					<defs>
						<path id="d" d="m467.24 552.93c3.983 1.746 95.742-31.905 95.742-31.905l42.186-62.74 1.27-64.39-51.338-0.808s-58.71 84.59-87.86 159.85z"/>
					</defs>
					<clipPath id="c">
						<use overflow="visible" xlink:href="#d"/>
					</clipPath>
					<g clip-path="url(#c)">
						
							<path d="m498.06 571.99-29.412-7.353c8.432-33.725 81.018-145.92 105.2-175.96l23.616 19.009c-26.57 32.99-93.06 138.89-99.41 164.3z"/>
						
						
							<path d="m492.76 570.67-18.822-4.706c7.859-31.439 77.203-140.38 104.15-173.86l15.116 12.166c-27.5 34.16-93.81 139.86-100.45 166.4z" fill="#F7C844"/>
						
						
							<path d="m489.23 569.79-11.764-2.942c7.597-30.388 77.367-140.05 103.46-172.46l9.448 7.604c-27.66 34.36-94.42 140.91-101.15 167.8z" fill="#C60101"/>
						
					</g>
				
				
						<rect transform="matrix(.2318 .9728 -.9728 .2318 658.07 20.374)" x="255.98" y="425.65" width="120.3" height="2.425"/>
				
				
						<rect transform="matrix(.2233 .9748 -.9748 .2233 647.33 28.909)" x="270.22" y="419.43" width="70.601" height="2.425"/>
				
				
						<rect transform="matrix(.234 .9722 -.9722 .234 632.82 34.11)" x="269.5" y="417.46" width="50.516" height="2.426"/>
				
				
					<path d="m311.64 402.86-2.324-0.696c2.54-8.468-0.312-29.87-1.654-38.679l2.397-0.366c1.69 11.15 4.15 31.13 1.57 39.75z"/>
				
				
					<path d="m446.97 676.55c5.135-5.377 12.307-14.839 9.819-22.438-1.511-4.623-4.093-7.458-4.085-12.501 7e-3 -4.159 0.981-8.513 1.901-12.558 2.262-9.942 9.968-18.68 15.336-26.85 3.307-5.032-1.187-6.165-5.44-7.931-5.719-2.375-6.009-3.968-2.572-9.205 4.3-6.553-0.344-4.365-2.129-10.242-0.055-0.179-0.239-0.419-0.104-0.546 1.825-1.718 4.06-6.772-1.914-7.883 0.829-5.988 2.304-16.083-2.124-21.047-4.761-5.339-13.518-4.86-19.938-4.133-13.921 1.578-33.633 4.819-45.835 12.107-17.014 10.162-11.021 35.817-5.992 51.069 4.8 14.558 12.396 27.059 21.848 38.991 10.013 12.643 20.978 24.535 36.043 31.021 1.51 0.648 3.046 1.248 4.581 1.84" fill="#fff"/>
					
						<path d="m447.85 677.38-1.405-1.342-0.516 1.333c-1.487-0.575-3.07-1.19-4.622-1.857-15.551-6.694-26.739-19.039-36.516-31.382-10.6-13.385-17.607-25.893-22.048-39.364-8.882-26.939-6.688-44.601 6.522-52.49 9.625-5.749 25.21-9.878 46.321-12.272 7.606-0.857 16.05-0.997 20.979 4.531 4.532 5.083 3.423 14.726 2.571 20.938 2.346 0.73 3.236 2.116 3.561 3.22 0.647 2.202-0.547 4.598-1.68 5.943 0.596 1.838 1.488 2.698 2.28 3.463 2.01 1.938 2.404 3.427-0.352 7.626-1.639 2.499-2.229 3.918-1.976 4.747 0.247 0.803 1.48 1.627 4 2.674 0.394 0.163 0.791 0.322 1.184 0.479 2.704 1.077 5.257 2.097 5.972 4.365 0.442 1.409 0.062 3.003-1.167 4.872-1.273 1.938-2.644 3.859-4.093 5.895-4.62 6.483-9.397 13.187-11.075 20.558-0.874 3.843-1.864 8.199-1.87 12.292-5e-3 3.031 1.005 5.182 2.174 7.673 0.643 1.367 1.307 2.782 1.851 4.449 2.81 8.48-5.1 18.46-10.06 23.65zm-5.41-135.39c-2.18 0-4.415 0.187-6.584 0.433-20.765 2.354-36.022 6.372-45.35 11.943-12.103 7.229-13.941 23.933-5.461 49.649 4.35 13.193 11.228 25.463 21.647 38.617 9.577 12.093 20.516 24.179 35.571 30.66 1.476 0.633 2.995 1.227 4.431 1.781 3.915-4.226 11.288-13.423 8.944-20.585-0.498-1.524-1.131-2.871-1.741-4.172-1.239-2.64-2.409-5.134-2.403-8.708 6e-3 -4.363 1.029-8.858 1.93-12.824 1.786-7.846 6.707-14.75 11.465-21.429 1.437-2.016 2.794-3.919 4.041-5.817 0.792-1.206 1.088-2.153 0.88-2.814-0.368-1.169-2.498-2.018-4.556-2.84-0.403-0.161-0.811-0.323-1.217-0.491-2.817-1.171-4.813-2.332-5.387-4.2-0.581-1.893 0.436-4.001 2.267-6.791 2.098-3.197 1.8-3.484 0.695-4.55-0.926-0.893-2.194-2.116-2.972-4.673-0.444-0.951-0.048-1.525 0.227-1.783 0.88-0.827 1.892-2.684 1.502-4.011-0.264-0.895-1.207-1.499-2.808-1.798l-1.138-0.21 0.194-1.409c0.796-5.737 2.127-15.337-1.864-19.811-2.9-3.25-7.47-4.17-12.32-4.17z"/>
					
				
				
					<path d="m450 678.47c4.663-5.768 10.469-11.689 6.464-19.354-6.557-12.551-22.506-20.007-36.239-19.004-4.904 0.357-9.686 1.671-13.679 4.604l17.785 28.093 25.68 5.66z" fill="#FDCB45"/>
					<path d="m450.48 679.81-26.895-5.931-18.661-29.477 0.912-0.67c3.804-2.792 8.618-4.42 14.309-4.834 0.846-0.062 1.715-0.094 2.581-0.094 14.43 0 28.748 8.119 34.821 19.745 4.045 7.743-0.988 13.856-5.428 19.249-0.393 0.479-0.785 0.953-1.169 1.428l-0.46 0.57zm-25.39-8.08 24.445 5.391c0.234-0.287 0.471-0.573 0.708-0.862 4.346-5.279 8.451-10.267 5.149-16.584-5.672-10.858-19.107-18.442-32.671-18.442-0.809 0-1.617 0.029-2.404 0.086-4.767 0.349-8.839 1.602-12.12 3.73l16.88 26.67z"/>
				
				
					<path d="m453.96 672.19c-1.152-7.147-6.83-14.035-15.189-18.425-9.102-4.782-19.237-5.624-26.446-2.198l-1.042-2.19c7.885-3.749 18.85-2.889 28.616 2.241 9.031 4.744 15.183 12.29 16.456 20.186l-2.4 0.39z"/>
				
				
					<path d="m450.21 676.76c-3.556-11.166-19.35-20.512-31.884-18.871l-0.314-2.406c13.813-1.804 30.571 8.177 34.511 20.541l-2.32 0.74z"/>
				
				
					<path d="m466.84 554.46-0.481-2.378c28.074-5.676 95.417-31.231 96.095-31.49l0.861 2.267c-0.68 0.26-68.21 25.89-96.48 31.6z"/>
				
				<path d="m288.11 654.62c-7.616 6.419-14 13.465-16.574 23.446-1.344 5.218-5.926 18.934 0.565 22.048 4.079 1.957 11.659 1.464 15.946 1.219 4.998-0.285 8.574-1.188 13.46-0.337 10.185 1.773 15.424-17.572 15.713-25.093 0.382-9.974-5.546-18.123-14.854-21.456-4.354-1.561-10.259-2.669-14.256 0.377" fill="#C60101"/>
				<path d="m351.18 700.99c-14.351-8.39-32.578-32.405-36.59-48.815-0.989-4.042-1.119-8.225-2.054-12.256-3.503 2.751-10.778 3.392-15.125 4.586-5.498 1.51-11.092 2.11-16.581 3.847-2.447 0.774-4.835 1.665-7.012 2.988 9.802-0.462 25.061-1.108 32.89 6.002 7.405 6.727 5.496 16.093 0.102 23.344-4.04 5.433-12.669 10.64-18.594 13.745 7.431-2.319 15.062-0.229 18.495 6.467" fill="#FDCB45"/>
				
					<path d="m375.02 604.29c-0.521 0-1.002-0.336-1.161-0.86-0.187-0.615-18.222-61.801 19.929-85.261 0.568-0.351 1.317-0.174 1.667 0.397 0.352 0.571 0.173 1.317-0.398 1.668-36.554 22.479-19.058 81.894-18.877 82.491 0.194 0.641-0.168 1.318-0.809 1.513-0.12 0.03-0.23 0.05-0.35 0.05z"/>
				
				<path d="m447.72 699.58c12.58-16.82-22.659-32.656-34.224-43.281-24.141-22.182-41.238-51.155-55.231-80.729-25.428-53.74-50.816-101.78-89.113-147.71-10.212-12.245-9.064-24.935-17.781-29.566-11.44-6.08-41.708-1.771-62.092-4.303 0.655 37.124 0 110.35 0 110.35s-1.185 25.426 0.762 29.482c1.947 4.055 50.723 20.339 75.328 27.098 21.501 5.905 31.837 10.621 42.826 21.173 0.373 0.358 0.791 0.855 0.734 1.374-2.224 20.21 0.207 33.98 2.425 48.912 4.059 27.324 18.999 56.996 36.685 66.129 0.484 0.251 3.946 2.002 4.486 2.143 28.282 7.361 69.126 1.913 98.692 2.871" fill="#C60101"/>
				
					<path d="m451.42 686.49c-47.906-40.448-58.68-38.359-77.517-74.219-11.803-22.47-20.397-47.51-29.076-71.33-11.231-30.827-31.634-57.736-52.916-82.523-16.275-18.954-28.997-39.122-43.513-59.445-16.215-0.253-40.522-1.032-57.849-0.928 6.919 24.948 99.075 105.96 116.74 132.94 15.02 22.939 26.589 53.032 37.813 77.953 10.634 23.612 44.869 72.154 102.91 89.854" fill="#F7C844"/>
					<path d="m447.67 699.96c-57.555-17.551-92.242-65.155-103.66-90.517-2.521-5.6-5.012-11.346-7.648-17.431-9.084-20.968-18.479-42.649-30.073-60.356-7.266-11.098-27.499-31.674-48.919-53.457-31.387-31.92-63.843-64.926-67.975-79.822l-0.423-1.527 1.584-0.01c11.768-0.075 26.899 0.269 40.244 0.569 6.379 0.143 12.423 0.279 17.631 0.36l0.612 9e-3 0.355 0.499c4.036 5.649 7.983 11.36 11.8 16.881 10.25 14.828 19.931 28.834 31.647 42.479 19.699 22.943 41.417 50.734 53.135 82.899 0.978 2.684 1.955 5.383 2.936 8.093 7.688 21.249 15.64 43.222 26.075 63.088 12.734 24.243 21.702 30.934 41.351 45.594 9.2 6.866 20.652 15.409 35.875 28.261l-1.565 1.854c-15.166-12.805-26.585-21.325-35.76-28.171-19.952-14.886-29.057-21.682-42.049-46.411-10.511-20.011-18.491-42.064-26.208-63.391-0.98-2.707-1.956-5.405-2.933-8.089-11.586-31.797-33.141-59.368-52.697-82.147-11.799-13.74-21.514-27.797-31.802-42.679-3.7-5.354-7.521-10.882-11.422-16.354-5.072-0.082-10.898-0.213-17.036-0.35-12.705-0.286-27.023-0.618-38.506-0.575 5.747 15.091 38.153 48.046 66.859 77.239 21.507 21.872 41.822 42.531 49.22 53.829 11.707 17.88 21.143 39.659 30.269 60.721 2.634 6.076 5.119 11.816 7.635 17.4 11.254 24.987 45.436 71.894 102.16 89.191l-0.71 2.34z"/>
				
				
						<rect transform="matrix(.8086 .5883 -.5883 .8086 388.82 -266.16)" x="602.3" y="457.08" width="2.425" height="14.929"/>
				
				
					<path d="m448.49 540.62-54.59-47.04-40.102 71.709 22.637 50.124 42.039 48.507 36.938 16.513s-71.702-39.957-68.468-92.508c3.23-52.55 61.54-47.3 61.54-47.3z" fill="#FB821F"/>
					
						<path d="m454.92 681.54-37.183-16.623-0.177-0.202-42.155-48.643-0.072-0.161-22.889-50.68 41.125-73.539 58.576 50.472-3.757-0.335c-0.017-2e-3 -1.604-0.14-4.213-0.14-12.473 0-53.373 3.34-56.017 46.311-3.151 51.196 67.138 90.978 67.847 91.373l-1.08 2.16zm-35.7-18.62 22.156 9.904c-6.417-4.513-14.394-10.646-22.238-18.061-23.195-21.92-34.744-45.059-33.398-66.916 2.774-45.084 45.429-48.587 58.438-48.587 0.313 0 0.61 1e-3 0.894 5e-3l-50.832-43.801-39.078 69.879 22.313 49.406 41.75 48.17z"/>
					
				
				
					
							<rect transform="matrix(-.682 .7314 -.7314 -.682 957.69 507.08)" x="318.27" y="447.81" width="100.67" height="27.891" fill="#FDCB45"/>
						<path d="m392.79 417.14 18.626 17.365-67 71.852-18.626-17.366 67-71.84m-0.12-3.42-1.654 1.773-67 71.852-1.654 1.773 20.4 19.02 1.774 1.653 1.654-1.774 67.001-71.851 1.654-1.773-20.4-19.02-1.77-1.65z"/>
					
				
				
					<path d="m449.64 684.1c-45.227-22.719-67.622-57.721-77.185-72.668l-0.783-1.221c-10.202-15.896-18.14-37.048-24.78-55.626-0.956-2.672-1.695-5.329-2.409-7.899-0.768-2.758-1.492-5.364-2.433-7.842-7.288-19.207-20.366-39.201-33.412-57.947-1.646-2.363-2.947-5.285-4.205-8.11-1.146-2.57-2.228-5-3.485-6.86-15.602-23.061-53.507-66.479-53.888-66.914l-0.59-0.675 0.471-0.761c0.042-0.067 4.167-6.734 6.08-9.671 19.172-29.426 59.063-90.65 76.746-139.86l0.109-0.306c0.473-1.32 2.394-2.106 3.98-2.106 1.637 0 2.965 0.789 3.643 2.164 0.01 0.02 1.094 3.148 0.832 3.933-16.318 46.396-51.804 100.53-73.006 132.88-1.852 2.824-3.589 5.476-5.19 7.933-1.445 2.216-2.767 4.247-3.944 6.063 14.39 18.674 30.515 41.141 46.674 65.029 2.759 4.077 5.729 8.345 8.602 12.471 12.931 18.581 27.581 39.634 35.382 60.192 1.871 4.929 3.711 10.076 5.66 15.525 6.476 18.117 13.776 38.542 23.453 53.619 16.208 25.255 36.722 53.814 75.163 73.123l0.758 0.381-0.692 5.934-1.55-0.75z" fill="#fff"/>
					<path d="m333.86 246.84c1.003 0 2.015 0.391 2.554 1.488 0.017 0.033 0.782 2.976 0.77 3.011-17.698 50.318-58.307 110.22-78.063 140.54-1.639 2.516-3.122 4.792-4.412 6.786 14.51 18.792 30.759 41.41 47.154 65.648 2.721 4.021 5.581 8.132 8.61 12.484 12.887 18.519 27.495 39.508 35.244 59.929 1.877 4.947 3.727 10.122 5.686 15.601 6.464 18.084 13.791 38.579 23.54 53.769 14.895 23.206 35.52 53.4 75.639 73.552l-0.394 3.371c-46.243-23.229-68.689-59.745-77.492-73.461-10.123-15.772-18.087-36.989-24.66-55.378-1.948-5.451-2.993-10.874-4.85-15.765-7.483-19.723-20.862-39.979-33.55-58.209-3.04-4.367-4.938-10.899-7.681-14.957-15.824-23.392-53.979-67.034-53.979-67.034s4.136-6.688 6.064-9.647c19.423-29.81 59.141-90.768 76.871-140.12 0.037-0.104 0.075-0.208 0.111-0.313 0.23-0.64 1.53-1.3 2.84-1.3m0-2.43c-1.979 0-4.446 1.019-5.121 2.906l-0.053 0.15-0.062 0.174c-17.628 49.066-57.468 110.21-76.613 139.6-1.923 2.952-5.928 9.423-6.098 9.697l-0.941 1.523 1.178 1.349c0.38 0.436 38.238 43.798 53.797 66.796 1.198 1.772 2.259 4.153 3.381 6.675 1.281 2.877 2.606 5.852 4.318 8.31 13.002 18.682 26.032 38.6 33.273 57.683 0.921 2.428 1.639 5.007 2.398 7.739 0.721 2.59 1.466 5.269 2.435 7.981 6.663 18.642 14.632 39.868 24.903 55.872l0.781 1.22c9.618 15.031 32.139 50.229 77.664 73.099l3.096 1.555 0.401-3.441 0.393-3.37 0.197-1.687-1.518-0.762c-38.165-19.17-58.563-47.575-74.685-72.694-9.602-14.961-16.878-35.315-23.298-53.276l-0.034-0.096c-1.951-5.456-3.793-10.607-5.667-15.548-7.854-20.698-22.55-41.815-35.516-60.447-2.875-4.13-5.843-8.395-8.598-12.465-15.977-23.62-31.921-45.853-46.193-64.41 1.055-1.626 2.219-3.413 3.475-5.34 1.6-2.456 3.337-5.106 5.188-7.931 21.232-32.393 56.77-86.609 73.13-133.13 0.248-0.739 0.205-0.904-0.314-2.917-0.443-1.722-0.443-1.722-0.574-1.982-0.88-1.78-2.6-2.82-4.72-2.82z"/>
				
				
					<path d="m352.19 702.52c-22.586-11.62-37.434-35.949-42.938-70.359-3.789-23.674-1.946-44.731-1.586-48.298-1.807-2.052-11.832-12.436-34.647-19.031l-6.213-1.793c-33.695-9.716-71.885-20.727-78.377-29.116l1.918-1.485c6.006 7.764 45.443 19.134 77.13 28.271l6.214 1.793c26.119 7.554 35.794 19.716 36.193 20.229l0.304 0.393-0.058 0.492c-0.104 0.892-9.816 89.491 43.168 116.75l-1.09 2.16z"/>
				
				
					<path d="m306.13 701.42c-0.341 0-0.68-0.143-0.92-0.422-5.068-5.898-12.513-5.917-19.125-5.156-0.632 0.068-1.198-0.345-1.325-0.959-0.128-0.614 0.233-1.224 0.833-1.407 5.689-1.736 10.823-4.465 15.258-8.107 5.288-4.342 10.766-12.087 10.302-18.828-0.242-3.505-2.117-6.356-5.572-8.476-10.313-6.322-25.53-5.305-36.642-4.561-0.6 0.048-1.158-0.384-1.271-0.985-0.114-0.604 0.241-1.197 0.826-1.381 5.645-1.778 11.436-3.389 17.037-4.945 8.869-2.466 17.245-4.795 24.784-7.664 0.628-0.239 1.325 0.075 1.564 0.701 0.238 0.627-0.076 1.327-0.702 1.565-7.643 2.908-16.073 5.253-24.997 7.733-2.386 0.664-4.808 1.338-7.237 2.029 9.511-0.225 19.941 0.556 27.906 5.439 4.163 2.552 6.426 6.043 6.725 10.378 0.523 7.597-5.43 16.144-11.182 20.869-2.826 2.318-5.917 4.286-9.242 5.885 4.963 0.277 10.032 1.786 13.902 6.289 0.436 0.507 0.378 1.272-0.129 1.71-0.24 0.2-0.52 0.3-0.8 0.3z"/>
				
				
					<path d="m271.26 702.03c-3.509-6.346-3.729-15.212-0.623-24.969 3.663-11.5 11.311-21.727 19.03-25.445 0.159-0.079 0.33-0.156 0.499-0.231 0.121-0.055 0.253-0.114 0.388-0.17l0.945 2.233-0.337 0.148c-0.153 0.066-0.292 0.132-0.433 0.199-7.165 3.453-14.306 13.097-17.779 24.002-2.861 8.982-2.703 17.388 0.433 23.058l-2.12 1.17z"/>
				
				
					<path d="m342.26 639.61c-3.608 0-6.544-2.937-6.544-6.545s2.936-6.544 6.544-6.544 6.544 2.936 6.544 6.544-2.94 6.55-6.54 6.55z" fill="#F7C844"/>
					<path d="m342.26 627.74c2.939 0 5.332 2.392 5.332 5.331s-2.393 5.332-5.332 5.332-5.332-2.393-5.332-5.332 2.39-5.33 5.33-5.33m0-2.43c-4.284 0-7.757 3.473-7.757 7.757s3.473 7.757 7.757 7.757c4.283 0 7.757-3.473 7.757-7.757s-3.48-7.76-7.76-7.76z"/>
				
				
					<path d="m308.3 563.21c-3.608 0-6.544-2.936-6.544-6.544s2.936-6.544 6.544-6.544 6.544 2.936 6.544 6.544-2.93 6.54-6.54 6.54z" fill="#F7C844"/>
					<path d="m308.3 551.34c2.939 0 5.332 2.392 5.332 5.331s-2.392 5.332-5.332 5.332-5.332-2.393-5.332-5.332 2.39-5.33 5.33-5.33m0-2.43c-4.284 0-7.757 3.473-7.757 7.757 0 4.283 3.473 7.757 7.757 7.757 4.283 0 7.757-3.474 7.757-7.757 0-4.28-3.48-7.76-7.76-7.76z"/>
				
				
					<path d="m267.07 513.49c-3.608 0-6.544-2.936-6.544-6.544s2.936-6.544 6.544-6.544 6.544 2.936 6.544 6.544-2.93 6.54-6.54 6.54z" fill="#F7C844"/>
					<path d="m267.07 501.62c2.939 0 5.332 2.393 5.332 5.332s-2.393 5.331-5.332 5.331-5.332-2.392-5.332-5.331 2.39-5.33 5.33-5.33m0-2.43c-4.284 0-7.757 3.472-7.757 7.757 0 4.283 3.473 7.757 7.757 7.757 4.283 0 7.757-3.474 7.757-7.757 0-4.29-3.48-7.76-7.76-7.76z"/>
				
				
					<path d="m225.84 469.84c-3.609 0-6.544-2.936-6.544-6.544s2.936-6.544 6.544-6.544 6.544 2.936 6.544 6.544-2.93 6.54-6.54 6.54z" fill="#F7C844"/>
					<path d="m225.84 457.96c2.939 0 5.331 2.392 5.331 5.332 0 2.939-2.392 5.331-5.331 5.331s-5.332-2.392-5.332-5.331c0-2.94 2.39-5.33 5.33-5.33m0-2.42c-4.284 0-7.757 3.472-7.757 7.757 0 4.283 3.474 7.757 7.757 7.757s7.757-3.474 7.757-7.757c0-4.29-3.48-7.76-7.76-7.76z"/>
				
				
					<path d="m389.55 690.54c-3.608 0-6.544-2.936-6.544-6.544s2.936-6.544 6.544-6.544 6.544 2.936 6.544 6.544-2.93 6.54-6.54 6.54z" fill="#F7C844"/>
					<path d="m389.55 678.67c2.939 0 5.332 2.392 5.332 5.331s-2.393 5.332-5.332 5.332-5.332-2.393-5.332-5.332 2.39-5.33 5.33-5.33m0-2.43c-4.284 0-7.757 3.473-7.757 7.757 0 4.283 3.473 7.757 7.757 7.757 4.283 0 7.757-3.474 7.757-7.757 0-4.28-3.48-7.76-7.76-7.76z"/>
				
				
						<rect transform="matrix(.9633 .2686 -.2686 .9633 202.72 -95.345)" x="448.6" y="686.53" width="2.425" height="13.295"/>
				
				
					<path d="m424.82 627.96c2.75 3.115 10.051 7.551 16.063 7.425 2.527-0.049 4.494-0.928 5.846-2.595 0 0-0.476 4.919-5.794 5.019-10.87 0.21-16.12-9.84-16.12-9.84z"/>
				
				
					<path d="m448.96 573.01c4.338 0 8.758 0.483 11.288 1.748l-1.284 1.646c-4.287-2.142-15.243-1.701-18.73-0.46-0.01-0.01 4.12-2.94 8.72-2.94z"/>
				
				
					<rect x="572" y="446" width="5" height="30" fill="#FDCB45"/>
					<path d="m578 477h-8v-32h8v32zm-5-2h2v-28h-2v28z"/>
				
				
					<path d="m577.93 557.4c4.457-1.884 3.916-8.955 3.667-12.686-1.233 2.188-2.559 5.867-5.531 6.214 0.771-4.492-0.17-9.753-0.167-14.39 2e-3 -5.206-0.292-10.346-0.29-15.559 0-2.561-0.032-5.105-0.022-7.648-2.183-1.132-3.948-3.078-6.135-4.299-2.827-1.578-2.589-0.645-3.674 2.011-1.615 3.953-5.704 8.99-8.766 12.017-1.635 1.616-3.653 2.078-5.89 2.159 2.265 7.13 13.152 2.939 16.893 0.125 1.47-1.108 2.725-2.163 3.72-3.739 1.249 8.302-1.521 16.845-0.817 25.226 0.183 2.148 0.611 4.309 0.622 6.469-2.36-1.397-5.991-5.17-6.669-7.894-0.755 3.313-2.522 11.058 1.857 12.632 1.818 0.655 3.692-0.361 5.493-0.629 2.475-0.368 4.982 0.117 7.449-0.298" fill="#F7C844"/>
					
						<rect x="570" y="511" width="3" height="45"/>
					
					
						<rect x="575" y="514" width="3" height="43"/>
					
					<path d="m570.03 598.91c-0.695 2.144-0.208 4.326 0.146 6.439 1.977-1.305 4.234-4.204 5.571-6.147 0.57 1.884 3.245 4.185 5.102 4.653-1.214-2.477-1.954-5.291-1.999-7.968 1.724 1.758 6.23 4.344 8.816 3.536-1.641-3.305-3.355-6.783-3.238-10.568 0.117-3.783 2.539-6.449 3.984-9.848 3.11-7.313 2.898-16.705-5.309-20.851-5.977-3.02-17.336-2.232-21.816 3.186-4.383 5.3 2.35 13.977 3.301 19.701 1.269 7.617-0.914 13.823-8.876 15.611-0.766 0.172-1.541 0.306-2.313 0.438 4.151 5.632 11.748 3.144 17.06-0.52-0.282 0.95-0.367 2.151-0.428 3.132" fill="#C60101"/>
					
						<path d="m564.97 558.74c-3.839-2.55-4.249-7.68-1.098-13.725l1.064-2.041 1.081 2.034c1.725 3.242 3.926 5.557 5.851 7.39l-1.672 1.758c-1.644-1.566-3.478-3.463-5.106-5.959-1.046 2.713-1.774 6.532 1.223 8.522l-1.33 2.02z"/>
					
					
						<path d="m578.34 557.83-1.246-2.079c2.744-1.645 3.63-4.41 3.513-7.113-1.217 1.738-2.503 2.766-4.02 3.684l-1.255-2.075c1.888-1.144 3.273-2.43 4.768-5.62l1.314-2.809 0.939 2.956c1.76 5.52 0.23 10.53-4 13.06z"/>
					
					
						<path d="m561 601.95c-4.825 0-8.896-3.68-9.065-3.836l-2.026-1.857 2.738-0.244c3.954-0.354 7.273-2.132 9.347-5.012 1.926-2.672 2.578-6.103 1.792-9.411-0.425-1.787-1.408-3.724-2.448-5.773-2.484-4.897-5.299-10.447-0.726-15.381 2.577-2.781 6.375-4.441 10.161-4.441 4.548 0 8.152 2.455 9.645 6.565 3.436 9.47-0.229 22.567-5.625 30.61-2.511 3.742-6.349 6.68-10.807 8.271-0.95 0.34-1.95 0.51-2.99 0.51zm-5.19-4.04c1.373 0.803 3.238 1.611 5.192 1.611 0.757 0 1.486-0.124 2.171-0.367 3.972-1.419 7.384-4.024 9.607-7.341 4.932-7.349 8.485-19.813 5.357-28.431-1.144-3.156-3.828-4.967-7.363-4.967-3.077 0-6.288 1.404-8.382 3.664-3.426 3.694-1.223 8.037 1.11 12.636 1.058 2.084 2.151 4.242 2.644 6.309 0.949 3.994 0.153 8.146-2.183 11.392-1.95 2.71-4.79 4.6-8.16 5.5z"/>
					
					
						<path d="m569.6 608.28-0.773-1.914c-0.997-2.473-0.612-7.464 0.103-9.954l2.331 0.67c-0.404 1.407-0.69 3.892-0.601 5.93 1.681-2.196 3.54-4.537 5.23-5.362l1.063 2.179c-1.301 0.636-3.288 3.241-4.739 5.144-0.47 0.618-0.915 1.2-1.319 1.701l-1.29 1.6z"/>
					
					
						<path d="m583.33 606.47-2.703-1.15c-5.516-2.345-7.926-10.371-6.318-15.713l2.323 0.699c-0.882 2.929-0.199 7.025 1.676 9.88-0.68-2.268-1.019-4.66-0.356-7.104 0.708-2.621 2.433-4.282 4.102-5.887 0.964-0.927 1.874-1.804 2.581-2.848 3.617-5.337 6.523-18.219 0.422-23.259-2.638-2.181-7.582-3.386-12.9-3.155l-0.106-2.423c5.979-0.263 11.425 1.123 14.551 3.707 7.043 5.816 4.729 19.575 0.043 26.489-0.852 1.255-1.897 2.262-2.908 3.235-1.496 1.44-2.909 2.8-3.441 4.773-0.861 3.175 0.476 6.456 1.768 9.629l1.28 3.11z"/>
					
					
						<path d="m587.35 600.91c-3.147 0-8.812-2.243-9.516-5.626l2.373-0.495c0.296 1.418 2.989 2.844 5.246 3.427-2.012-3.456-3.575-8.37-2.346-11.654l2.271 0.851c-1.149 3.068 1.243 8.757 3.463 11.485l1.356 1.668-2.129 0.298c-0.21 0.02-0.45 0.04-0.71 0.04z"/>
					
					
						<path d="m558.03 530.05c-3.504 0-6.973-1.277-9.597-3.6l-2.127-1.882 2.831-0.234c1.157-0.098 2.31-0.344 3.625-0.777 7.617-2.506 11.224-10.059 12.907-15.954l2.333 0.665c-1.846 6.459-5.856 14.756-14.48 17.592-0.408 0.135-0.801 0.253-1.188 0.357 2.28 1.203 4.946 1.672 7.524 1.266 2.903-0.456 7.083-2.211 10.503-7.98l2.087 1.236c-3.901 6.582-8.796 8.604-12.215 9.14-0.72 0.09-1.45 0.15-2.19 0.15z"/>
					
				
				
					<path d="m461.14 583.61c-3.188 0-6.201-1.466-7.642-2.669-2.123-1.776-5.403-4.403-7.546-6.08l1.495-1.909c2.157 1.688 5.464 4.337 7.607 6.127 1.185 0.99 4.869 2.818 8.125 1.81l0.72 2.316c-0.91 0.28-1.84 0.4-2.76 0.4z"/>
				
				
					<path d="m448.24 574.49-2.235-0.94c1.946-4.633 10.349-7.289 14.851-6.744l-0.289 2.406c-4.02-0.48-10.97 2.08-12.32 5.27z"/>
				
				<path d="m435.3 622.05c-2.129 0.196-4.081 1.849-4.623 3.922-0.75-2.32 0.026-4.195 1.377-6.02 1.018 0.745 2.146 1.752 3.398 2.021"/>
				<path d="m432.12 620.08c-2.295-0.756-5.69 2.801-5.471 5.06-0.535-1.552-0.748-3.899 0.012-5.422 0.5-0.999 1.96-2.607 3.172-2.506 0.309 1.319 1.285 2.19 2.438 2.717"/>
				
					<path d="m453.95 511.72c-0.811-9.566-1.584-18.526-2.309-26.923-8.953-103.67-10.567-122.36 21.782-135.61l0.919 2.244c-30.698 12.576-29.311 28.64-20.285 133.15 0.726 8.397 1.499 17.359 2.308 26.929l-2.42 0.21z"/>
				
				
					<path d="m461.84 489.02c-13.219-115.73-6.336-119.25 12.061-128.65 0.698-0.356 1.414-0.722 2.146-1.103l1.12 2.15c-0.737 0.385-1.459 0.753-2.163 1.113-17.306 8.84-23.781 12.147-10.755 126.21l-2.42 0.28z"/>
				
				
					<path d="m468.81 465.08c-8.423-68.163-6.25-89.51 9.689-95.173l0.813 2.286c-14.344 5.095-16.234 26.729-8.096 92.59l-2.4 0.29z"/>
				
				
					<path d="m478.31 459.56c-1.131-7.503-10.67-73.458 2.728-78.862l0.907 2.249c-8.811 3.553-5.566 47.547-1.235 76.251l-2.41 0.36z"/>
				
				
						<rect transform="matrix(.2318 .9728 -.9728 .2318 744.41 -174.55)" x="432.94" y="382.86" width="99.561" height="2.425"/>
				
				
						<rect transform="matrix(.237 .9715 -.9715 .237 748.94 -184.96)" x="468.32" y="383.1" width="47.801" height="2.426"/>
				
				
						<rect transform="matrix(.2254 .9743 -.9743 .2254 763.15 -191.28)" x="498.16" y="383.1" width="7.43" height="2.426"/>
				
				
					<path d="m486.4 437.73c-1.7-11.144-4.166-31.124-1.581-39.741l2.323 0.696c-2.54 8.468 0.312 29.87 1.654 38.679l-2.39 0.36z"/>
				
				
					
						<path d="m591.52 515.69c3.259 5.187 2.418 10.467-1.676 14.342-4.098 3.879-33.492-14.444-35.741-22.198-1.053-3.634 1.178-9.95 4.472-11.85" fill="#fff"/>
						<path d="m588.06 531.77c-0.848 0-1.848-0.157-3.009-0.474-9.352-2.539-30.028-15.933-32.115-23.13-1.248-4.305 1.339-11.109 5.031-13.237l1.21 2.101c-2.724 1.572-4.845 7.242-3.911 10.462 1.671 5.764 21.375 19.008 30.421 21.465 2.702 0.734 3.296 0.213 3.32 0.191 3.801-3.598 4.341-8.269 1.483-12.816l2.053-1.291c3.479 5.536 2.779 11.47-1.868 15.867-0.6 0.57-1.47 0.86-2.61 0.86z"/>
					
					
						<path d="m592.53 500.02c5.66 4.144 4.271 13.074 1.112 15.058-4.345 2.729-31.967-16.209-34.269-19.159-2.731-3.501-2.818-8.834 1.426-12.27" fill="#fff"/>
						<path d="m592.63 516.49c-8.03 2e-3 -32.376-17.468-34.217-19.827-2.932-3.759-3.36-9.928 1.619-13.959l1.525 1.886c-3.818 3.09-3.511 7.662-1.233 10.581 2.976 3.811 29.557 20.838 32.668 18.878 1.009-0.633 2.08-2.706 2.178-5.441 0.054-1.509-0.167-5.272-3.36-7.611l1.433-1.956c2.907 2.128 4.494 5.647 4.351 9.654-0.117 3.313-1.417 6.22-3.31 7.408-0.43 0.27-0.99 0.39-1.66 0.39z"/>
					
					
						<path d="m597.58 485.47c3.335 4.851 2.084 8.834-0.462 12.696-2.885 4.375-5.156 1.223-9.139-0.974-5.332-2.938-10.222-5.369-15.563-8.287-2.724-1.486-9.788-3.649-11.218-6.567-1.82-3.717 2.761-10.031 5.565-11.698" fill="#fff"/>
						<path d="m594.08 501.57c-0.118 0-0.238-6e-3 -0.358-0.017-1.397-0.129-2.663-0.965-4.128-1.932-0.696-0.46-1.417-0.937-2.203-1.37-2.788-1.536-5.507-2.962-8.137-4.339-2.436-1.276-4.879-2.557-7.423-3.947-0.688-0.374-1.75-0.829-2.875-1.311-3.391-1.451-7.61-3.258-8.85-5.788-2.122-4.333 2.71-11.297 6.034-13.272l1.239 2.084c-2.498 1.485-6.513 7.229-5.095 10.123 0.843 1.721 4.924 3.468 7.625 4.623 1.23 0.527 2.293 0.982 3.083 1.413 2.533 1.385 4.962 2.656 7.386 3.926 2.642 1.385 5.372 2.816 8.182 4.364 0.872 0.48 1.668 1.007 2.371 1.47 1.192 0.788 2.221 1.468 3.013 1.542 0.304 0.03 1.012 0.095 2.157-1.645 2.104-3.19 3.617-6.772 0.475-11.341l1.999-1.374c3.987 5.799 1.854 10.555-0.448 14.051-1.19 1.85-2.52 2.75-4.03 2.75z"/>
					
					
						<path d="m598.19 485.47c3.479-6.059 6.454-9.165 0.101-14.756-6.382-5.615-14.063-9.039-22.029-11.418-6.325-1.888-8.044 0.602-10.06 6.464-2.44 7.098 4.263 6.571 9.907 8.694 7.364 2.771 15.8 6.418 22.081 11.419" fill="#fff"/>
						<path d="m597.43 486.82c-6.509-5.181-15.531-8.892-21.752-11.232-1.218-0.458-2.508-0.792-3.756-1.114-2.929-0.759-5.696-1.475-6.893-3.702-0.754-1.403-0.747-3.172 0.021-5.407 1.949-5.671 3.918-9.512 11.553-7.231 9.393 2.805 16.748 6.622 22.483 11.67 6.449 5.676 4.133 9.563 1.199 14.487-0.338 0.565-0.69 1.159-1.049 1.783l-0.832-0.479-0.97 1.22zm-24.72-26.94c-2.712 0-3.859 1.899-5.364 6.276-0.536 1.562-0.595 2.696-0.178 3.472 0.694 1.292 2.858 1.853 5.364 2.502 1.309 0.338 2.663 0.688 4.001 1.192 5.984 2.25 14.508 5.747 21.137 10.63 0.181-0.308 0.359-0.607 0.535-0.899 2.896-4.862 4.218-7.081-0.718-11.426-5.469-4.811-12.525-8.464-21.576-11.167-1.26-0.37-2.31-0.57-3.19-0.57z"/>
					
				
				<path d="m444.96 619.97c0 2.719-1.7 4.548-3.235 4.548s-2.778-2.201-2.778-4.921c0-2.716 1.243-4.917 2.778-4.917s3.24 2.57 3.24 5.29z"/>
				<path d="m433.52 615.66c-1.056 0.139-7.685 0.996-8.766 1.319 3.185 0.506 6.592 2.575 7.369 3.07 2.67 2.497 7.125 6.046 16.047 4.339 0 0-0.955-2.539-2.185-2.523-0.054 1e-3 -0.106 0.022-0.16 0.033-4.275 0.867-8.23-0.158-12.495-2.809-1.07-1.2-1.3-2.64 0.2-3.43z"/>
				
					
						<path d="m251.37 398.3" fill="#fff" stroke="#000" stroke-miterlimit="10" stroke-width="2"/>
					
				
				
					
						<path d="m418.57 332.68c-38.866-29.526-77.32-65.761-77.704-66.124l6.66-7.053c0.381 0.359 38.471 36.248 76.913 65.452l-5.87 7.72z" fill="#FDCB45"/>
						<path d="m418.8 334.38-0.966-0.733c-38.91-29.56-77.418-65.845-77.803-66.208l-0.882-0.833 8.325-8.816 0.881 0.832c1.566 1.476 38.792 36.483 76.814 65.368l0.966 0.734-7.34 9.66zm-76.22-67.88c5.922 5.536 40.549 37.625 75.756 64.476l4.401-5.794c-35.04-26.723-69.147-58.345-75.162-63.972l-5 5.28z"/>
					
				
				
					<path d="m370.08 581.14c7.347-5.746 2.247-15.724-5.669-16.555 8.657-5.635 6.857-19.495-4.043-20.702 7.663-8.034 4.435-19.5-6.559-20.635 9.453-10.72-1.799-24.988-13.705-20.496 8.55-11.781 1.517-25.388-14.009-22.753 5.602-10.081 2.027-17.638-8.997-16.808 4.383-5.094 3.132-25.976-17.483-26.378 10.116-13.869-11.501-20.534-14.23-18.715 26.224-16.523-1.667-23.647-1.667-23.647 22.738 2.273 23.775-15.921 12.623-26.142 11.053-0.39 23.897-17.341 14.653-27.074 21.11-2.374 20.901-19.083 14.957-28.002 10.328-0.837 15.42-16.352 7.994-21.738 11.215-3.822 13.991-16.633 7.629-23.919 5.311-2.088 6.739-4.126 4.851-9.297l-4.661-1.608-2.978-8.462-86.446 155.79 7.803 4.494 14.935 25.217 37.593 53.964 33.349 55.479 19.747 51.476 5.385 1.454c4.62-3.37 6.37-14.23-1.06-14.92z" fill="#fff"/>
					<path d="m371.4 597.41-6.544-1.767-19.929-51.952-33.294-55.388-37.548-53.896-14.821-25.019-8.561-4.931 88.334-159.2 3.678 10.455 4.653 1.605 0.198 0.542c2.084 5.708 0.182 8.251-4.067 10.214 2.516 3.644 3.297 8.338 2.081 12.87-1.313 4.885-4.688 8.794-9.396 10.961 2.428 2.783 3.163 7.007 1.899 11.513-1.289 4.598-4.872 9.417-10.17 10.72 2.505 4.608 4.068 11.438 1.176 17.654-1.806 3.881-6.015 8.691-15.812 10.346 2.521 3.737 2.808 8.417 0.768 13.408-2.725 6.668-9.036 12.213-15.136 13.63 4.964 5.523 6.854 12.543 4.702 18.078-1.135 2.918-4.341 7.634-13.274 8.473 3.316 1.722 6.814 4.398 7.412 8.189 0.64 4.059-2.178 8.406-8.385 12.953 4.358 0.864 10.624 3.732 13.095 8.594 1.149 2.261 1.854 5.78-0.685 10.253 10.56 0.962 15.004 7.372 16.748 11.271 2.432 5.442 2.269 11.333 0.734 14.936 5.62 0.147 8.231 2.574 9.434 4.621 1.818 3.088 1.632 7.283-0.488 11.975 7.029-0.526 12.661 2.257 15.309 7.451 2.256 4.424 1.941 9.81-0.763 14.854 0.637-0.09 1.277-0.136 1.917-0.136 5.426 0 10.406 3.267 12.688 8.321 1.98 4.386 1.461 9.257-1.338 13.375 4.353 1.012 7.583 3.706 9.018 7.601 1.549 4.203 0.622 9.064-2.398 13.099 4.134 1.143 7.104 4.194 8.122 8.472 1.072 4.508-0.374 9.219-3.64 12.41 3.477 1.235 6.332 4.127 7.346 7.658 0.93 3.235 0.216 6.374-1.957 8.885 1.734 0.763 2.953 2.212 3.514 4.234 1.14 4.1-0.799 9.855-4.147 12.317l-0.47 0.4zm-4.72-3.79 4.19 1.131c2.278-2.056 3.631-6.414 2.813-9.357-0.511-1.841-1.76-2.866-3.711-3.046l-3.042-0.282 2.407-1.881c2.626-2.055 3.645-4.931 2.796-7.891-0.99-3.447-4.216-6.122-7.845-6.503l-3.4-0.357 2.865-1.865c4.408-2.869 5.508-7.818 4.645-11.45-0.936-3.94-3.986-6.568-8.159-7.03l-2.435-0.27 1.691-1.772c3.456-3.623 4.707-8.306 3.264-12.221-1.323-3.591-4.628-5.912-9.069-6.371l-2.343-0.242 1.558-1.767c3.301-3.743 4.119-8.276 2.24-12.438-1.891-4.188-6.004-6.893-10.478-6.893-1.383 0-2.772 0.259-4.129 0.771l-3.788 1.43 2.377-3.275c3.625-4.995 4.457-10.591 2.225-14.968-2.44-4.787-8.145-7.049-15.049-5.878l-2.489 0.422 1.227-2.207c2.595-4.67 3.165-8.911 1.561-11.635-1.49-2.532-4.76-3.716-9.407-3.375l-2.92 0.22 1.91-2.22c1.767-2.055 2.83-8.372 0.125-14.423-1.98-4.43-6.487-9.752-16.712-9.952l-2.329-0.045 1.373-1.882c2.544-3.487 3.101-6.695 1.657-9.535-2.482-4.883-10.17-7.547-13.424-7.547-0.621 0-0.825 0.1-0.827 0.101l-1.329-2.028c8e-3 -5e-3 0.018-0.011 0.026-0.017 4e-3 -3e-3 9e-3 -6e-3 0.013-8e-3 7.526-4.757 11.168-9.158 10.598-12.77-0.758-4.804-8.87-7.887-11.931-8.669l0.42-2.382c9.114 0.916 15.457-1.593 17.509-6.869 1.997-5.136-0.399-12.198-5.826-17.172l-2.184-2.001 2.961-0.104c5.82-0.205 12.773-5.798 15.5-12.467 1.151-2.817 2.463-8.194-1.683-12.561l-1.679-1.767 2.423-0.272c8.091-0.91 13.634-4.112 16.029-9.259 2.64-5.672 0.925-12.559-1.946-16.866l-1.143-1.714 2.054-0.167c5.159-0.419 8.687-4.952 9.893-9.259 0.954-3.401 0.795-7.891-2.513-10.289l-1.895-1.375 2.216-0.755c4.889-1.667 8.417-5.322 9.681-10.03 1.157-4.308 0.194-8.773-2.574-11.944l-1.132-1.296 1.601-0.63c4.756-1.871 5.67-3.278 4.345-7.213l-4.662-1.608-2.276-6.47-84.558 152.39 7.045 4.058 15.097 25.49 37.545 53.888 33.486 55.741 19.53 50.94z"/>
				
				
					<defs>
						<path id="b" d="m328.78 247.19c-3.984-1.747-95.743 31.905-95.743 31.905l-42.186 62.741-1.27 64.389 51.338 0.808c0-0.01 58.71-84.59 87.86-159.85z"/>
					</defs>
					<clipPath id="a">
						<use overflow="visible" xlink:href="#b"/>
					</clipPath>
					<g clip-path="url(#a)">
						
							<path d="m222.18 411.44-23.617-19.009c26.554-32.991 93.046-138.89 99.399-164.3l29.412 7.353c-8.43 33.72-81.01 145.92-105.19 175.96z"/>
						
						
							<path d="m217.93 408.02-15.116-12.166c27.496-34.161 93.809-139.86 100.44-166.4l18.822 4.707c-7.85 31.44-77.19 140.38-104.14 173.86z" fill="#F7C844"/>
						
						
							<path d="m215.1 405.73-9.448-7.604c27.657-34.362 94.418-140.92 101.14-167.8l11.765 2.942c-7.61 30.39-77.38 140.05-103.46 172.46z" fill="#C60101"/>
						
					</g>
				
				
						<rect transform="matrix(.2318 .9728 -.9728 .2318 731.71 -180.09)" x="419.74" y="372.04" width="120.3" height="2.426"/>
				
				
						<rect transform="matrix(.2233 .9748 -.9748 .2233 750.86 -183.37)" x="455.2" y="378.26" width="70.602" height="2.424"/>
				
				
					<rect transform="matrix(.234 .9722 -.9722 .234 754.79 -195.17)" x="476" y="380.23" width="50.517" height="2.427"/>
				
				
					<path d="m451.24 688.53c-0.188 0-0.374-0.042-0.545-0.129-46.541-23.378-73.463-65.328-82.31-79.113-10.202-15.896-17.675-36.803-24.268-55.249-1.938-5.42-3.767-10.539-5.637-15.466-7.434-19.592-21.768-40.187-34.415-58.356-3.041-4.37-5.914-8.498-8.663-12.564-15.626-23.101-49.543-68.734-49.884-69.193-0.307-0.412-0.32-0.973-0.033-1.399 0.672-1.003 67.487-100.88 83.842-149.73l0.098-0.278c0.687-1.92 4.911-3.046 8.337-3.664 0.072-0.013 0.144-0.019 0.215-0.019 0.348 0 0.685 0.15 0.917 0.418 0.281 0.324 0.37 0.772 0.233 1.178-17.016 51.051-59.163 115.74-79.418 146.83-1.452 2.228-2.775 4.258-3.951 6.074 14.392 18.676 30.517 41.143 46.674 65.03 2.756 4.072 5.728 8.342 8.601 12.471 12.931 18.58 27.582 39.634 35.382 60.192 1.872 4.934 3.715 10.085 5.665 15.541 6.47 18.101 13.771 38.525 23.447 53.603 14.819 23.087 39.128 56.096 78.977 76.111 0.599 0.3 0.84 1.028 0.539 1.628l-2.722 5.419c-0.145 0.287-0.396 0.505-0.702 0.606-0.13 0.04-0.26 0.06-0.39 0.06z" fill="#fff"/>
					<path d="m337.62 244.54m0.36 0.04c-16.969 50.909-59.063 115.51-79.292 146.56-1.64 2.517-3.123 4.792-4.411 6.787 14.509 18.791 30.758 41.408 47.153 65.647 2.722 4.021 5.582 8.133 8.611 12.484 12.887 18.519 27.495 39.508 35.243 59.93 1.877 4.946 3.727 10.122 5.686 15.6 6.463 18.084 13.791 38.58 23.539 53.77 14.895 23.205 39.334 56.388 79.454 76.539l-2.722 5.42c-46.243-23.229-73.031-64.969-81.833-78.685-10.123-15.772-17.574-36.614-24.147-55.003-1.948-5.451-3.789-10.598-5.646-15.489-7.483-19.723-21.864-40.388-34.552-58.618-3.04-4.367-5.912-8.493-8.654-12.551-15.823-23.392-49.916-69.237-49.916-69.237s67.389-100.45 83.985-150.02c0.034-0.105 0.073-0.208 0.111-0.313 0.57-1.6 7.39-2.83 7.39-2.83m0-2.58c-0.03 0-0.061 0.08-0.09 0.081-0.133 5e-3 -0.263 0.061-0.389 0.086-8.156 1.478-8.938 3.683-9.194 4.402l-0.018 0.059c-0.04 0.108-0.079 0.22-0.115 0.329-16.298 48.677-83.022 148.43-83.695 149.43-0.572 0.853-0.545 1.975 0.068 2.799 0.34 0.458 34.241 46.071 49.853 69.15 2.753 4.073 5.629 8.204 8.672 12.577 12.606 18.113 26.896 38.643 34.275 58.093 1.865 4.912 3.693 10.028 5.629 15.445 6.615 18.507 14.112 39.485 24.39 55.496 8.891 13.854 35.948 56.014 82.786 79.542 0.342 0.17 0.715 0.258 1.089 0.258 0.257 0 0.514-0.04 0.763-0.123 0.61-0.202 1.115-0.64 1.404-1.214l2.722-5.419c0.602-1.197 0.118-2.654-1.079-3.256-39.583-19.883-63.759-52.716-78.5-75.683-9.602-14.96-16.878-35.315-23.298-53.275l-0.026-0.071c-1.953-5.464-3.798-10.625-5.675-15.573-7.854-20.698-22.551-41.815-35.516-60.447-2.875-4.131-5.844-8.396-8.598-12.465-15.975-23.618-31.92-45.851-46.194-64.41 1.055-1.626 2.219-3.413 3.476-5.34 20.276-31.121 62.432-95.821 79.521-147 0.108-0.274 0.167-0.652 0.167-0.963 0-1.336-1.076-2.505-2.41-2.505 0-0.02-0.01-0.02-0.01-0.02z"/>
				
				
					<path d="m349.05 123.57c-5.135 5.377-12.307 14.839-9.82 22.438 1.511 4.623 4.093 7.458 4.084 12.501-6e-3 4.159-0.98 8.511-1.901 12.558-2.262 9.942-9.968 18.679-15.336 26.849-3.307 5.032 1.187 6.166 5.44 7.931 5.719 2.374 6.009 3.967 2.572 9.206-4.3 6.552 0.343 4.364 2.129 10.241 0.054 0.179 0.239 0.418 0.104 0.546-1.825 1.718-4.06 6.772 1.914 7.883-0.829 5.988-2.304 16.083 2.125 21.047 4.761 5.338 13.517 4.861 19.938 4.133 13.921-1.579 33.633-4.82 45.836-12.108 17.014-10.161 11.021-35.817 5.992-51.07-4.8-14.557-12.397-27.057-21.849-38.99-10.013-12.642-20.978-24.535-36.043-31.02-1.51-0.65-3.046-1.248-4.581-1.841" fill="#fff"/>
					
						<path d="m353.58 260.56c-5.437 0-10.647-1.084-14.12-4.978-4.532-5.081-3.423-14.726-2.571-20.938-2.346-0.731-3.236-2.116-3.561-3.221-0.646-2.201 0.547-4.597 1.681-5.942-0.596-1.837-1.489-2.699-2.281-3.462-2.01-1.939-2.404-3.427 0.352-7.626 1.639-2.499 2.23-3.918 1.975-4.747-0.246-0.803-1.48-1.627-3.999-2.673-0.395-0.164-0.791-0.323-1.184-0.479-2.704-1.079-5.257-2.098-5.971-4.365-0.443-1.409-0.062-3.003 1.167-4.873 1.273-1.937 2.643-3.859 4.093-5.894 4.62-6.483 9.397-13.187 11.075-20.558 0.874-3.843 1.864-8.199 1.87-12.29 4e-3 -3.032-1.006-5.184-2.174-7.675-0.642-1.368-1.307-2.782-1.85-4.447-2.774-8.476 5.134-18.457 10.095-23.651l1.406 1.342 0.515-1.333c1.571 0.607 3.107 1.206 4.623 1.858 15.547 6.692 26.737 19.037 36.514 31.38 10.602 13.385 17.608 25.893 22.048 39.364 8.882 26.94 6.688 44.602-6.521 52.49-9.626 5.75-25.211 9.878-46.321 12.272-2.26 0.25-4.58 0.45-6.86 0.45zm-4.25-135.51c-3.916 4.226-11.289 13.423-8.945 20.585 0.499 1.523 1.13 2.87 1.741 4.171 1.24 2.64 2.41 5.134 2.404 8.709-6e-3 4.362-1.029 8.858-1.931 12.824-1.786 7.845-6.706 14.75-11.464 21.428-1.437 2.016-2.794 3.92-4.041 5.819-0.792 1.205-1.088 2.152-0.88 2.813 0.368 1.169 2.498 2.019 4.556 2.84 0.403 0.161 0.81 0.323 1.216 0.492 2.817 1.17 4.812 2.332 5.387 4.2 0.582 1.892-0.436 4.001-2.267 6.791-2.097 3.197-1.8 3.483-0.695 4.55 0.926 0.893 2.193 2.115 2.972 4.673 0.443 0.948 0.05 1.522-0.224 1.781-0.882 0.83-1.894 2.685-1.504 4.012 0.263 0.895 1.207 1.499 2.807 1.796l1.138 0.212-0.194 1.409c-0.796 5.736-2.127 15.338 1.864 19.812 4.196 4.705 11.906 4.527 18.897 3.735 20.764-2.354 36.021-6.373 45.35-11.945 12.103-7.228 13.939-23.933 5.462-49.649-4.349-13.191-11.228-25.462-21.647-38.617-9.578-12.094-20.517-24.179-35.571-30.658-1.47-0.62-2.94-1.2-4.45-1.78z"/>
					
				
				
					<path d="m346.02 121.65c-4.664 5.767-10.469 11.687-6.463 19.353 6.556 12.55 22.505 20.005 36.239 19.003 4.904-0.357 9.685-1.671 13.678-4.603l-17.785-28.094-25.68-5.66z" fill="#FDCB45"/>
					<path d="m373.3 161.31c-14.431 0-28.75-8.12-34.823-19.745-4.045-7.743 0.988-13.855 5.428-19.25 0.393-0.477 0.785-0.953 1.169-1.427l0.471-0.583 26.895 5.93 18.66 29.476-0.912 0.67c-3.804 2.793-8.618 4.42-14.309 4.835-0.84 0.06-1.71 0.09-2.58 0.09zm-26.81-38.31c-0.235 0.287-0.472 0.574-0.708 0.861-4.346 5.279-8.451 10.266-5.149 16.585 5.671 10.858 19.107 18.441 32.671 18.442h1e-3c0.808 0 1.617-0.03 2.403-0.087 4.767-0.348 8.838-1.601 12.12-3.729l-16.892-26.682-24.44-5.38z"/>
				
				
					<path d="m373.69 153.05c-5.694 0-11.839-1.54-17.572-4.551-9.032-4.743-15.184-12.29-16.457-20.186l2.395-0.386c1.152 7.146 6.83 14.034 15.189 18.425 9.104 4.783 19.238 5.625 26.445 2.198l1.042 2.19c-3.26 1.56-7.04 2.32-11.05 2.32z"/>
				
				
					<path d="m374.68 144.84c-13.05 0-27.559-9.365-31.186-20.752l2.312-0.736c3.557 11.166 19.354 20.516 31.884 18.872l0.315 2.405c-1.08 0.15-2.2 0.22-3.32 0.22z"/>
				
				
					<path d="m233.57 279.52-0.862-2.267c0.679-0.258 68.208-25.888 96.476-31.601l0.481 2.377c-28.08 5.68-95.43 31.24-96.1 31.49z"/>
				
				<path d="m507.91 145.5c7.616-6.418 14-13.464 16.573-23.445 1.345-5.218 5.927-18.934-0.564-22.048-4.078-1.957-10.727-0.257-15.014-0.012-4.998 0.286-9.506-0.02-14.393-0.87-10.185-1.773-15.424 17.573-15.713 25.093-0.382 9.973 5.546 18.123 14.854 21.456 4.354 1.56 10.259 2.669 14.256-0.376" fill="#C60101"/>
				<path d="m448.27 100.82c14.352 8.388 29.154 30.714 33.167 47.125 0.988 4.042 1.119 8.225 2.053 12.255 3.504-2.75 10.778-3.391 15.126-4.585 5.497-1.51 11.092-2.11 16.58-3.847 2.447-0.774 4.836-1.665 7.013-2.988-9.803 0.462-25.062 1.107-32.891-6.003-7.405-6.726-5.496-16.092-0.102-23.344 4.039-5.432 12.669-10.638 18.594-13.744-7.432 2.319-15.062 0.23-18.494-6.467" fill="#FDCB45"/>
				
					<path d="m401.6 282.13c-0.407 0-0.805-0.205-1.034-0.577-0.352-0.571-0.173-1.317 0.398-1.668 36.574-22.493 19.059-81.895 18.877-82.492-0.194-0.641 0.168-1.318 0.809-1.512 0.645-0.194 1.318 0.168 1.513 0.809 0.188 0.615 18.222 61.8-19.929 85.262-0.2 0.12-0.42 0.18-0.64 0.18z"/>
				
				<path d="m347.49 99.999c-12.579 16.82 23.47 33.196 35.034 43.821 24.141 22.182 41.238 51.155 55.231 80.728 25.428 53.741 50.816 101.78 89.112 147.71 10.212 12.246 9.064 24.935 17.78 29.566 11.44 6.08 42.238-1.715 62.621 0.817-0.654-37.123-0.529-106.87-0.529-106.87s2.127-25.042 0.181-29.097c-1.947-4.056-51.665-20.724-76.27-27.483-21.502-5.906-31.838-10.622-42.827-21.174-0.373-0.358-0.791-0.855-0.733-1.373 2.224-20.211-0.208-33.98-2.426-48.912-4.059-27.325-18.999-56.996-36.685-66.129-0.484-0.25-1.056-0.3-1.596-0.44-28.282-7.361-72.017-3.616-101.58-4.574" fill="#C60101"/>
				
					<path d="m344.5 111.62c47.907 40.448 58.78 40.364 77.617 76.222 11.804 22.47 20.397 47.511 29.076 71.33 11.231 30.828 31.634 57.736 52.916 82.523 16.275 18.955 26.881 32.282 41.397 52.605 16.215 0.253 42.397 2.119 59.725 2.016-6.92-24.947-98.836-100.2-116.5-127.19-15.021-22.94-26.589-53.033-37.813-77.954-10.635-23.612-44.869-72.154-102.91-89.855" fill="#F7C844"/>
					<path d="m603.8 397.53c-9.765 0-21.93-0.558-33.714-1.099-9.113-0.418-17.724-0.813-24.598-0.92l-0.612-0.01-0.355-0.499c-13.929-19.499-24.357-32.751-41.332-52.52-19.698-22.943-41.417-50.734-53.135-82.898-0.979-2.686-1.956-5.387-2.937-8.098-7.688-21.248-15.64-43.219-26.074-63.083-13.341-25.396-22.399-32.403-44.284-49.332-8.624-6.671-19.355-14.973-33.042-26.527l1.566-1.854c13.645 11.522 24.355 19.806 32.96 26.462 21.534 16.657 31.362 24.259 44.949 50.123 10.512 20.01 18.489 42.061 26.206 63.385 0.98 2.71 1.957 5.41 2.935 8.094 11.586 31.799 33.141 59.371 52.697 82.148 16.882 19.661 27.311 32.898 41.109 52.192 6.805 0.121 15.193 0.506 24.059 0.913 11.656 0.535 23.687 1.087 33.354 1.097-5.669-14.716-37.248-45.199-65.227-72.205-22.132-21.364-43.037-41.543-50.608-53.107-11.707-17.879-21.143-39.657-30.268-60.717-2.634-6.078-5.121-11.818-7.636-17.403-11.254-24.989-45.437-71.895-102.16-89.193l0.708-2.32c57.555 17.551 92.243 65.155 103.66 90.517 2.521 5.601 5.012 11.349 7.649 17.434 9.084 20.967 18.479 42.647 30.071 60.354 7.422 11.336 28.231 31.424 50.264 52.691 30.639 29.574 62.32 60.156 66.392 74.835l0.423 1.527-1.585 0.01c-0.48 0.01-0.96 0.01-1.44 0.01z"/>
				
				
						<rect transform="matrix(.8173 .5762 -.5762 .8173 228.32 -49.972)" x="191.76" y="328.29" width="2.425" height="13.627"/>
				
				
					<path d="m347.53 259.5 54.593 47.04 40.101-71.708-22.637-50.124-42.039-48.507-37.998-16.978s72.762 40.422 69.528 92.972c-3.23 52.56-61.54 47.31-61.54 47.31z" fill="#FB821F"/>
					
						<path d="m402.46 308.43-58.576-50.472 3.757 0.335c0.017 1e-3 1.604 0.14 4.213 0.14 12.473 0 53.373-3.339 56.016-46.312 3.15-51.176-68.186-91.437-68.905-91.837l1.083-2.167 38.243 17.087 42.404 49.006 22.889 50.681-41.11 73.53zm-51.5-47.58 50.832 43.8 39.078-69.878-22.313-49.406-41.747-48.169-23.025-10.288c6.512 4.555 14.609 10.742 22.573 18.208 23.544 22.072 35.278 45.292 33.932 67.151-2.774 45.084-45.429 48.587-58.437 48.587-0.3 0.01-0.6 0.01-0.88 0z"/>
					
				
				
					
							<rect transform="matrix(-.682 .7314 -.7314 -.682 966.38 256.53)" x="377.08" y="324.42" width="100.67" height="27.891" fill="#FDCB45"/>
						<path d="m451.6 293.76 18.625 17.367-67 71.851-18.626-17.367 67.01-71.85m-0.12-3.43-1.654 1.774-67 71.851-1.654 1.773 1.774 1.655 18.626 17.367 1.773 1.653 1.655-1.774 67-71.851 1.654-1.773-1.773-1.654-18.626-17.367-1.77-1.66z"/>
					
				
				
					<path d="m532.07 390.42-38.509-61-40.424-70.335-8.893-21.828-15.36-36.785-4.446 2.83c-4.613 3.393-6.364 14.258 1.071 14.946-7.348 5.744-2.247 15.723 5.669 16.554-8.657 5.635-6.857 19.497 4.043 20.705-7.663 8.033-4.437 19.501 6.557 20.636-9.452 10.72 1.798 24.994 13.705 20.5-8.551 11.783-1.52 25.397 14.007 22.762-5.602 10.083-2.032 17.657 8.992 16.828-4.383 5.094-3.142 26.013 17.474 26.416-10.114 13.868-0.739 28.686 13.774 24.07 0 0-13.036 11.217 1.213 23.041-17.281-3.638-26.654 14.325-15.159 24.86-11.053 0.391-20.433 13.799-11.188 23.531-21.112 2.374-20.901 19.083-14.959 28.003-10.326 0.837-15.419 16.352-7.992 21.738-11.215 3.822-13.99 16.633-7.629 23.919-5.311 2.09-6.731 3.773-4.843 8.943 0 0 4.535 1.456 8.565 5.132 0.213-0.473 85.037-148.56 85.037-148.56l-10.69-6.9z" fill="#fff"/>
					<path d="m458.07 547.82-1.154-1.032c-3.772-3.441-8.077-4.86-8.119-4.874l-0.563-0.182-0.205-0.556c-2.027-5.552-0.305-7.89 4.055-9.866-2.512-3.644-3.293-8.336-2.077-12.864 1.311-4.885 4.688-8.794 9.396-10.961-2.428-2.783-3.163-7.007-1.899-11.514 1.289-4.598 4.871-9.417 10.17-10.72-2.505-4.609-4.067-11.44-1.175-17.655 1.803-3.875 6.003-8.678 15.773-10.339-2.854-3.967-3.443-8.69-1.579-13.251 2.133-5.223 7.083-9.195 12.543-10.297-3.688-4.445-4.739-10.144-2.708-15.365 2.566-6.6 9.097-10.606 16.894-10.25-2.863-3.153-4.326-6.523-4.358-10.054-0.035-3.906 1.697-7.176 3.291-9.352-6.156 0.694-11.623-2.114-14.238-7.258-2.651-5.217-2.017-11.702 1.646-17.684-10.522-0.974-14.96-7.375-16.701-11.269-2.439-5.458-2.274-11.364-0.736-14.973-5.613-0.149-8.224-2.578-9.428-4.625-1.82-3.093-1.636-7.294 0.486-11.991-6.996 0.527-12.658-2.255-15.308-7.453-2.257-4.426-1.941-9.815 0.763-14.862-0.637 0.091-1.276 0.136-1.916 0.136-5.425 0-10.406-3.267-12.688-8.323-1.98-4.386-1.463-9.259 1.338-13.378-4.352-1.011-7.582-3.706-9.017-7.601-1.55-4.204-0.622-9.066 2.397-13.099-4.134-1.144-7.104-4.196-8.121-8.474-1.072-4.509 0.373-9.218 3.64-12.411-3.477-1.236-6.333-4.127-7.347-7.66-0.928-3.234-0.215-6.373 1.958-8.883-1.735-0.762-2.953-2.213-3.514-4.236-1.14-4.099 0.799-9.855 4.146-12.317l5.729-3.649 15.916 38.114 8.866 21.762 40.383 70.264 38.339 60.73 11.447 7.389-0.571 0.998c-0.842 1.468-84.138 146.88-85.017 148.52l-0.75 1.36zm-7.95-8.01c1.242 0.472 4.27 1.771 7.287 4.202 7.017-12.333 59.63-104.19 83.741-146.28l-9.965-6.431-38.651-61.227-40.521-70.525-8.893-21.828-14.802-35.446-3.231 2.056c-2.47 1.82-4.049 6.542-3.181 9.668 0.512 1.841 1.76 2.867 3.712 3.048l3.042 0.281-2.406 1.881c-2.627 2.054-3.646 4.929-2.796 7.889 0.99 3.448 4.215 6.123 7.845 6.504l3.399 0.357-2.864 1.865c-4.408 2.869-5.509 7.819-4.645 11.452 0.936 3.94 3.985 6.569 8.159 7.03l2.435 0.27-1.691 1.773c-3.456 3.623-4.707 8.307-3.265 12.222 1.324 3.59 4.629 5.913 9.069 6.371l2.342 0.242-1.557 1.767c-3.302 3.745-4.119 8.279-2.239 12.44 1.89 4.189 6.003 6.895 10.477 6.895 1.384 0 2.772-0.259 4.129-0.771l3.787-1.429-2.377 3.276c-3.626 4.997-4.459 10.595-2.226 14.975 2.442 4.788 8.158 7.051 15.049 5.879l2.489-0.423-1.227 2.208c-2.598 4.675-3.166 8.921-1.561 11.651 1.491 2.533 4.761 3.726 9.401 3.378l2.92-0.22-1.91 2.22c-1.771 2.059-2.834 8.393-0.122 14.459 1.98 4.431 6.486 9.753 16.7 9.953l2.328 0.045-1.372 1.882c-4.16 5.705-5.152 12.046-2.652 16.963 1.95 3.838 5.663 6.04 10.186 6.04 1.571 0 3.219-0.271 4.895-0.803l5.614-1.786-4.455 3.86c-0.051 0.044-5.093 4.481-5.029 10.395 0.04 3.77 2.134 7.401 6.225 10.795l3.771 3.129-4.796-1.01c-1.426-0.3-2.838-0.452-4.196-0.452-6.36 0-11.611 3.343-13.704 8.724-1.978 5.086-0.553 10.509 3.811 14.508l2.185 2.002-2.961 0.104c-5.479 0.193-10.778 3.93-12.885 9.087-1.039 2.541-2.09 7.53 2.532 12.397l1.679 1.768-2.423 0.272c-8.091 0.91-13.634 4.111-16.029 9.258-2.64 5.673-0.925 12.559 1.945 16.867l1.143 1.715-2.054 0.166c-5.158 0.419-8.686 4.952-9.892 9.26-0.954 3.4-0.795 7.891 2.513 10.288l1.895 1.375-2.216 0.756c-4.889 1.665-8.417 5.322-9.681 10.029-1.157 4.308-0.194 8.771 2.574 11.943l1.132 1.297-1.601 0.63c-4.82 1.86-5.64 3.02-4.34 6.83z"/>
				
				
					<path d="m462.16 554.49c-1.638 0-2.965-0.788-3.643-2.163-0.01-0.021-1.095-3.147-0.831-3.933 16.31-46.4 51.8-100.54 73-132.89 1.851-2.823 3.588-5.474 5.188-7.93 0 0 2.845-4.366 3.943-6.063-14.388-18.67-30.514-41.136-46.674-65.029-2.76-4.078-5.729-8.345-8.602-12.471-12.933-18.584-27.582-39.635-35.382-60.192-1.875-4.938-3.719-10.096-5.67-15.557-6.467-18.087-13.768-38.513-23.442-53.587-14.817-23.086-39.125-56.093-78.977-76.111l-1.083-0.544 3.811-7.585 1.084 0.544c46.541 23.378 73.463 65.327 82.31 79.112 10.202 15.895 17.675 36.803 24.268 55.25 1.943 5.436 3.778 10.57 5.637 15.467 7.433 19.586 21.767 40.184 34.413 58.355 3.068 4.407 5.929 8.518 8.664 12.564 15.627 23.098 49.315 67.865 49.654 68.314l0.504 0.67-0.449 0.708s-4.965 7.827-6.896 10.79c-19.176 29.43-59.064 90.653-76.746 139.86l-0.108 0.306c-0.45 1.34-2.37 2.12-3.96 2.12z" fill="#fff"/>
					<path d="m344.35 112.07c46.243 23.229 73.03 64.967 81.833 78.683 10.123 15.772 17.574 36.614 24.147 55.003 1.948 5.451 3.788 10.599 5.646 15.49 7.483 19.723 21.863 40.387 34.552 58.618 3.04 4.368 5.911 8.494 8.654 12.55 15.824 23.392 49.689 68.365 49.689 68.365s-4.96 7.818-6.888 10.777c-19.424 29.811-59.141 90.768-76.872 140.12-0.036 0.104-0.074 0.209-0.111 0.313-0.225 0.63-1.524 1.297-2.836 1.297-1.003 0-2.015-0.392-2.555-1.488-0.017-0.032-0.781-2.976-0.77-3.011 17.697-50.318 58.307-110.22 78.063-140.54 1.64-2.517 3.122-4.792 4.411-6.787-14.509-18.791-30.758-41.409-47.153-65.646-2.721-4.023-5.581-8.133-8.61-12.484-12.888-18.519-27.495-39.509-35.243-59.93-1.878-4.946-3.728-10.122-5.687-15.601-6.463-18.083-13.79-38.579-23.539-53.769-14.895-23.206-39.334-56.388-79.453-76.54l2.73-5.42m-1.08-3.26-1.088 2.167-2.722 5.419-1.088 2.167 2.167 1.088c39.585 19.884 63.759 52.716 78.499 75.684 9.602 14.958 16.879 35.314 23.298 53.275l0.022 0.065c1.956 5.467 3.802 10.63 5.679 15.579 7.854 20.697 22.549 41.813 35.514 60.444 2.878 4.135 5.847 8.398 8.601 12.468 15.979 23.623 31.924 45.855 46.192 64.41-0.979 1.511-2.054 3.159-3.207 4.932l-0.268 0.41c-1.6 2.454-3.336 5.104-5.186 7.927-21.233 32.394-56.771 86.611-73.133 133.13-0.247 0.74-0.205 0.904 0.314 2.918 0.442 1.721 0.442 1.721 0.574 1.982 0.883 1.793 2.607 2.829 4.724 2.829 1.979 0 4.445-1.019 5.121-2.905l0.053-0.151 0.062-0.173c17.628-49.063 57.465-110.21 76.61-139.59 1.919-2.945 6.858-10.731 6.908-10.81l0.9-1.417-1.011-1.341c-0.338-0.45-34.009-45.192-49.617-68.265-2.738-4.05-5.6-8.162-8.629-12.515l-0.044-0.063c-12.607-18.114-26.896-38.646-34.274-58.092-1.855-4.887-3.689-10.016-5.629-15.446-6.615-18.507-14.112-39.485-24.39-55.497-8.892-13.854-35.948-56.013-82.787-79.541l-2.14-1.09z"/>
				
				
					<path d="m607.03 268.67c-6.54-8.452-55.472-22.601-84.707-31.055-26.118-7.552-35.794-19.714-36.192-20.229l-0.303-0.389 0.055-0.489c0.096-0.861 9.027-86.445-40.098-114.29l1.196-2.11c20.944 11.873 34.727 35.846 39.856 69.328 3.523 23.006 1.842 43.333 1.508 46.819 1.802 2.043 11.824 12.432 34.65 19.033 41.594 12.027 79.465 23.516 85.952 31.9l-1.92 1.48z"/>
				
				
					<path d="m485.27 161.67c-0.489 0-0.948-0.298-1.134-0.782-0.237-0.626 0.076-1.327 0.702-1.565 7.644-2.909 16.073-5.253 24.998-7.734 2.386-0.664 4.808-1.337 7.236-2.029-9.491 0.228-19.94-0.555-27.905-5.439-4.163-2.553-6.426-6.043-6.725-10.376-0.523-7.598 5.429-16.144 11.182-20.869 2.815-2.312 5.894-4.273 9.203-5.868-4.14-0.233-8.208-1.368-11.87-4.436-0.513-0.431-0.58-1.195-0.15-1.709 0.432-0.512 1.195-0.58 1.709-0.15 5.132 4.301 11.401 4.255 17.414 3.565 0.625-0.075 1.198 0.344 1.324 0.958 0.128 0.614-0.232 1.224-0.832 1.407-5.688 1.736-10.821 4.464-15.258 8.107-5.288 4.343-10.767 12.088-10.302 18.828 0.241 3.505 2.116 6.357 5.571 8.476 10.312 6.322 25.53 5.303 36.643 4.561 0.615-0.056 1.159 0.382 1.271 0.985 0.114 0.604-0.241 1.197-0.826 1.381-5.645 1.778-11.436 3.388-17.037 4.945-8.868 2.466-17.245 4.794-24.784 7.664-0.14 0.06-0.28 0.09-0.43 0.09z"/>
				
				
					<path d="m505.46 148.9-0.936-2.237 0.338-0.147c0.148-0.065 0.291-0.132 0.434-0.201 13.335-6.426 23.884-32.102 18.506-45.04l2.241-0.931c5.88 14.15-5.161 41.153-19.69 48.155-0.164 0.079-0.331 0.156-0.497 0.23-0.12 0.06-0.25 0.12-0.39 0.17z"/>
				
				
					<path d="m453.76 173.6c-3.608 0-6.544-2.936-6.544-6.544s2.936-6.544 6.544-6.544 6.544 2.936 6.544 6.544-2.93 6.54-6.54 6.54z" fill="#F7C844"/>
					<path d="m453.76 161.72c2.939 0 5.332 2.392 5.332 5.332s-2.393 5.332-5.332 5.332-5.331-2.392-5.331-5.332 2.39-5.33 5.33-5.33m0-2.43c-4.283 0-7.757 3.473-7.757 7.757s3.474 7.757 7.757 7.757 7.757-3.473 7.757-7.757-3.47-7.76-7.76-7.76z"/>
				
				
					<path d="m487.72 249.99c-3.608 0-6.544-2.936-6.544-6.544s2.936-6.544 6.544-6.544 6.544 2.936 6.544 6.544-2.93 6.54-6.54 6.54z" fill="#F7C844"/>
					<path d="m487.72 238.12c2.939 0 5.332 2.392 5.332 5.332s-2.393 5.332-5.332 5.332-5.331-2.392-5.331-5.332 2.39-5.33 5.33-5.33m0-2.43c-4.283 0-7.757 3.473-7.757 7.757s3.474 7.757 7.757 7.757 7.757-3.473 7.757-7.757c0-4.29-3.48-7.76-7.76-7.76z"/>
				
				
					<path d="m528.95 299.71c-3.608 0-6.545-2.936-6.545-6.544s2.937-6.544 6.545-6.544 6.544 2.936 6.544 6.544-2.92 6.54-6.53 6.54z" fill="#F7C844"/>
					<path d="m528.95 287.84c2.939 0 5.331 2.392 5.331 5.332s-2.392 5.332-5.331 5.332-5.332-2.392-5.332-5.332 2.39-5.33 5.33-5.33m0-2.43c-4.284 0-7.757 3.473-7.757 7.757s3.473 7.757 7.757 7.757c4.283 0 7.757-3.473 7.757-7.757s-3.48-7.76-7.76-7.76z"/>
				
				
					<path d="m570.18 343.37c-3.608 0-6.544-2.936-6.544-6.544s2.936-6.544 6.544-6.544 6.545 2.936 6.545 6.544-2.93 6.54-6.54 6.54z" fill="#F7C844"/>
					<path d="m570.18 331.49c2.939 0 5.332 2.392 5.332 5.332s-2.393 5.332-5.332 5.332-5.331-2.392-5.331-5.332 2.39-5.33 5.33-5.33m0-2.42c-4.283 0-7.757 3.473-7.757 7.757s3.474 7.757 7.757 7.757c4.284 0 7.757-3.473 7.757-7.757s-3.48-7.76-7.76-7.76z"/>
				
				
					<path d="m406.47 122.66c-3.608 0-6.544-2.936-6.544-6.544s2.936-6.544 6.544-6.544 6.544 2.936 6.544 6.544-2.93 6.54-6.54 6.54z" fill="#F7C844"/>
					<path d="m406.47 110.79c2.939 0 5.331 2.392 5.331 5.332s-2.392 5.332-5.331 5.332-5.332-2.392-5.332-5.332 2.39-5.33 5.33-5.33m0-2.43c-4.284 0-7.757 3.473-7.757 7.757s3.473 7.757 7.757 7.757c4.283 0 7.757-3.473 7.757-7.757 0-4.29-3.48-7.76-7.76-7.76z"/>
				
				
					<circle cx="394.68" cy="403.85" r="38.957" fill="#F7C844"/>
					<path d="m394.68 444.02c-22.15 0-40.17-18.021-40.17-40.17 0-22.15 18.02-40.17 40.17-40.17 22.151 0 40.17 18.021 40.17 40.17 0 22.15-18.02 40.17-40.17 40.17zm0-77.91c-20.812 0-37.745 16.932-37.745 37.745s16.933 37.744 37.745 37.744 37.745-16.932 37.745-37.744c0-20.82-16.93-37.75-37.74-37.75z"/>
				
				
						<rect transform="matrix(.9097 .4153 -.4153 .9097 75.152 -133.97)" x="344.38" y="100.02" width="2.427" height="11.568"/>
				
				
					<path d="m371.2 172.16c-2.75-3.115-10.051-7.551-16.062-7.424-2.527 0.049-4.495 0.927-5.846 2.595 0 0 0.475-4.92 5.793-5.02 10.87-0.21 16.12 9.84 16.12 9.84z"/>
				
				
					<path d="m347.06 227.11c-4.338 0-8.758-0.484-11.289-1.748l1.285-1.646c4.287 2.141 15.243 1.7 18.73 0.459 0 0.01-4.13 2.94-8.73 2.94z"/>
				
				
					<path d="m348.57 227.17c-2.155-1.688-5.46-4.334-7.608-6.13-1.184-0.989-4.876-2.821-8.125-1.808l-0.72-2.316c4.083-1.269 8.547 0.715 10.401 2.264 2.127 1.779 5.406 4.405 7.546 6.081l-1.5 1.92z"/>
				
				
					<path d="m336.4 233.38c-0.438 0-0.853-0.022-1.24-0.069l0.289-2.408c4.027 0.476 10.984-2.086 12.326-5.277l2.236 0.94c-1.79 4.24-8.96 6.82-13.62 6.82z"/>
				
				<path d="m360.72 178.07c2.129-0.197 4.081-1.849 4.624-3.922 0.75 2.322-0.026 4.196-1.377 6.02-1.017-0.744-2.145-1.752-3.397-2.021"/>
				<path d="m363.9 180.04c2.295 0.756 5.69-2.801 5.47-5.059 0.535 1.552 0.748 3.898-0.012 5.42-0.5 1-1.96 2.608-3.171 2.507-0.309-1.32-1.285-2.192-2.438-2.717"/>
				
					<rect x="220" y="323" width="5" height="31" fill="#FDCB45"/>
					<path d="m226 355h-7v-33h7v33zm-5-3h3v-27h-3v27z"/>
				
				
					<path d="m218.38 241.96c-4.458 1.885-3.917 8.955-3.668 12.687 1.234-2.19 2.559-5.867 5.532-6.215-0.771 4.492 0.169 9.753 0.167 14.391-2e-3 5.206 0.292 10.345 0.29 15.558 0 2.561 0.032 5.105 0.022 7.648 2.183 1.132 3.949 3.078 6.135 4.3 2.827 1.578 2.589 0.643 3.673-2.012 1.615-3.953 5.705-8.99 8.766-12.017 1.634-1.616 3.653-2.078 5.889-2.158-2.264-7.131-13.152-2.94-16.892-0.125-1.47 1.107-2.725 2.163-3.72 3.74-1.25-8.303 1.521-16.845 0.817-25.227-0.182-2.148-0.611-4.308-0.622-6.468 2.36 1.397 5.991 5.17 6.668 7.893 0.755-3.313 2.522-11.057-1.857-12.631-1.819-0.655-3.692 0.362-5.494 0.629-2.474 0.368-4.982-0.117-7.449 0.298" fill="#F7C844"/>
					
						<rect x="224" y="243" width="2" height="45"/>
					
					
						<rect x="219" y="242" width="2" height="44"/>
					
					<path d="m226.28 200.45c0.695-2.144 0.208-4.327-0.146-6.44-1.977 1.304-4.234 4.203-5.571 6.147-0.571-1.883-3.245-4.184-5.102-4.652 1.214 2.476 1.954 5.29 1.999 7.967-1.723-1.758-6.23-4.345-8.816-3.536 1.641 3.305 3.356 6.784 3.239 10.568-0.117 3.783-2.539 6.448-3.985 9.848-3.11 7.311-2.898 16.705 5.309 20.85 5.977 3.02 17.336 2.232 21.816-3.186 4.383-5.3-2.349-13.977-3.3-19.702-1.269-7.617 0.914-13.823 8.876-15.61 0.765-0.172 1.541-0.306 2.313-0.438-4.151-5.633-11.748-3.145-17.06 0.518 0.282-0.95 0.367-2.149 0.428-3.131" fill="#C60101"/>
					
						<path d="m231.37 256.39-1.081-2.033c-1.726-3.244-3.926-5.557-5.85-7.39l1.672-1.756c1.644 1.565 3.476 3.461 5.108 5.957 1.045-2.712 1.773-6.532-1.224-8.521l1.341-2.021c3.84 2.549 4.251 7.679 1.099 13.723l-1.07 2.04z"/>
					
					
						<path d="m214.9 257.54-0.939-2.956c-1.753-5.521-0.216-10.524 4.013-13.057l1.246 2.081c-2.744 1.644-3.63 4.41-3.513 7.112 1.217-1.737 2.503-2.764 4.02-3.682l1.255 2.075c-1.888 1.143-3.273 2.429-4.768 5.62l-1.31 2.82z"/>
					
					
						<path d="m225.54 243.37c-4.547 0-8.154-2.454-9.645-6.564-3.436-9.47 0.229-22.567 5.625-30.61 2.511-3.743 6.349-6.681 10.807-8.271 0.946-0.338 1.952-0.509 2.986-0.509 4.825 0 8.894 3.679 9.064 3.835l2.026 1.857-2.738 0.245c-3.954 0.353-7.275 2.133-9.348 5.012-1.925 2.673-2.577 6.103-1.791 9.412 0.425 1.787 1.408 3.724 2.448 5.773 2.484 4.896 5.299 10.446 0.726 15.38-2.59 2.78-6.38 4.44-10.17 4.44zm9.77-43.53c-0.756 0-1.487 0.124-2.172 0.368-3.972 1.418-7.384 4.024-9.608 7.338-4.931 7.351-8.485 19.814-5.357 28.432 1.144 3.156 3.829 4.966 7.364 4.966 3.076 0 6.287-1.403 8.382-3.663 3.425-3.695 1.222-8.038-1.111-12.635-1.058-2.085-2.152-4.242-2.644-6.309-0.95-3.995-0.155-8.146 2.183-11.391 1.947-2.704 4.781-4.599 8.154-5.496-1.36-0.81-3.22-1.62-5.18-1.62z"/>
					
					
						<path d="m227.38 202.95-2.331-0.669c0.404-1.407 0.69-3.893 0.601-5.93-1.681 2.196-3.54 4.536-5.231 5.362l-1.063-2.179c1.302-0.636 3.289-3.242 4.739-5.145 0.47-0.616 0.916-1.199 1.319-1.7l1.296-1.606 0.772 1.913c0.99 2.48 0.61 7.48-0.11 9.97z"/>
					
					
						<path d="m222.84 243.88c-5.411 1e-3 -10.241-1.363-13.117-3.738-7.042-5.817-4.729-19.575-0.042-26.49 0.852-1.255 1.897-2.262 2.91-3.236 1.495-1.439 2.907-2.798 3.44-4.771 0.861-3.176-0.476-6.457-1.768-9.63l-1.27-3.125 2.704 1.149c5.515 2.346 7.925 10.373 6.318 15.714l-2.324-0.699c0.882-2.929 0.2-7.025-1.676-9.881 0.68 2.268 1.019 4.661 0.357 7.105-0.708 2.622-2.433 4.282-4.1 5.887-0.964 0.928-1.876 1.804-2.583 2.849-3.617 5.335-6.523 18.219-0.421 23.259 2.637 2.179 7.597 3.381 12.9 3.154l0.106 2.423c-0.49 0.04-0.97 0.05-1.44 0.05z"/>
					
					
						<path d="m213.21 212.8-2.271-0.851c1.149-3.068-1.243-8.757-3.462-11.485l-1.357-1.667 2.129-0.299c2.896-0.414 9.473 1.917 10.235 5.579l-2.373 0.495c-0.296-1.418-2.989-2.844-5.246-3.427 2.01 3.47 3.58 8.39 2.35 11.67z"/>
					
					
						<path d="m230.64 291.76-2.333-0.667c1.846-6.458 5.856-14.753 14.481-17.591 0.406-0.135 0.801-0.253 1.187-0.356-2.28-1.203-4.947-1.671-7.522-1.266-2.905 0.456-7.084 2.21-10.504 7.981l-2.087-1.236c3.901-6.583 8.796-8.604 12.215-9.142 4.213-0.657 8.626 0.62 11.801 3.429l2.127 1.882-2.832 0.234c-1.157 0.096-2.309 0.342-3.626 0.776-7.62 2.52-11.22 10.07-12.91 15.97z"/>
					
				
				
					<path d="m322.6 450.92-0.919-2.244c30.698-12.576 29.311-28.64 20.285-133.15-0.726-8.397-1.499-17.359-2.308-26.928l2.416-0.205c0.81 9.568 1.583 18.528 2.308 26.924 8.95 103.67 10.57 122.35-21.78 135.6z"/>
				
				
					<path d="m319.98 440.85-1.12-2.15c0.737-0.385 1.459-0.753 2.164-1.112 17.305-8.84 23.781-12.147 10.754-126.21l2.409-0.274c13.219 115.73 6.336 119.25-12.06 128.65-0.69 0.34-1.41 0.7-2.14 1.09z"/>
				
				
					<path d="m317.52 430.21-0.812-2.285c14.343-5.096 16.235-26.729 8.095-92.591l2.407-0.297c8.42 68.17 6.25 89.51-9.69 95.18z"/>
				
				
					<path d="m314.98 419.42-0.907-2.249c8.81-3.554 5.566-47.548 1.235-76.252l2.399-0.361c1.14 7.5 10.68 73.46-2.72 78.86z"/>
				
				
						<rect transform="matrix(.2319 .9727 -.9727 .2319 645.37 14.825)" x="263.52" y="414.83" width="99.561" height="2.426"/>
				
				
					<rect transform="matrix(.237 .9715 -.9715 .237 635.77 22.119)" x="279.9" y="414.59" width="47.8" height="2.426"/>
				
				
					<circle cx="394.68" cy="403.85" r="20.767" fill="#C60101"/>
					
						<path d="m394.68 427.04c-12.789 0-23.192-10.404-23.192-23.192 0-12.789 10.404-23.193 23.192-23.193s23.193 10.404 23.193 23.193c0 12.79-10.41 23.19-23.19 23.19zm0-41.53c-10.113 0-18.342 8.229-18.342 18.342s8.229 18.342 18.342 18.342c10.114 0 18.342-8.229 18.342-18.342 0-10.11-8.23-18.34-18.34-18.34z"/>
					
				
				
						<rect transform="matrix(.2254 .9743 -.9743 .2254 632.97 35.518)" x="290.44" y="414.6" width="7.429" height="2.426"/>
				
				
					<path d="m311.2 402.13-2.323-0.696c2.54-8.467-0.312-29.87-1.655-38.679l2.397-0.366c1.7 11.15 4.17 31.13 1.58 39.75z"/>
				
				
					
						<path d="m204.5 284.43c-3.259-5.187-2.418-10.468 1.676-14.342 4.098-3.878 33.492 14.444 35.741 22.199 1.053 3.633-1.177 9.95-4.472 11.85" fill="#fff"/>
						<path d="m238.05 305.19-1.21-2.101c2.724-1.571 4.845-7.242 3.912-10.462-1.671-5.763-21.376-19.007-30.421-21.465-2.701-0.732-3.295-0.212-3.32-0.19-3.8 3.597-4.34 8.269-1.483 12.816l-2.053 1.291c-3.479-5.537-2.78-11.469 1.869-15.869 1.06-1.002 2.899-1.128 5.624-0.388 9.351 2.54 30.028 15.934 32.115 23.13 1.25 4.31-1.33 11.11-5.03 13.24z"/>
					
					
						<path d="m203.49 300.1c-5.659-4.144-4.27-13.074-1.112-15.058 4.345-2.729 31.967 16.209 34.269 19.159 2.73 3.501 2.818 8.835-1.426 12.271" fill="#fff"/>
						<path d="m235.99 317.41-1.525-1.885c3.818-3.09 3.51-7.662 1.232-10.582-2.975-3.812-29.555-20.835-32.667-18.878-1.009 0.633-2.08 2.705-2.178 5.441-0.054 1.509 0.167 5.272 3.361 7.611l-1.433 1.957c-2.907-2.129-4.494-5.648-4.351-9.654 0.117-3.312 1.417-6.22 3.31-7.409 5.456-3.424 33.876 16.883 35.87 19.439 2.94 3.76 3.37 9.93-1.61 13.96z"/>
					
					
						<path d="m198.44 314.65c-3.334-4.851-2.084-8.833 0.462-12.696 2.885-4.375 5.156-1.222 9.139 0.974 5.332 2.939 10.221 5.369 15.562 8.287 2.724 1.486 9.788 3.65 11.217 6.568 1.82 3.716-2.76 10.031-5.564 11.698" fill="#fff"/>
						<path d="m229.88 330.52-1.239-2.084c2.498-1.485 6.512-7.229 5.095-10.123-0.843-1.721-4.924-3.468-7.625-4.625-1.23-0.526-2.292-0.981-3.083-1.412-2.533-1.384-4.962-2.657-7.386-3.927-2.641-1.384-5.372-2.815-8.181-4.363-0.873-0.481-1.669-1.006-2.371-1.47-1.192-0.788-2.222-1.468-3.013-1.541-0.298-0.029-1.011-0.095-2.158 1.643-2.103 3.191-3.617 6.773-0.475 11.342l-1.999 1.374c-3.987-5.8-1.854-10.556 0.449-14.051 1.309-1.985 2.748-2.877 4.405-2.723 1.397 0.129 2.662 0.965 4.127 1.932 0.696 0.46 1.418 0.936 2.204 1.37 2.788 1.537 5.507 2.961 8.136 4.339 2.436 1.277 4.879 2.557 7.423 3.947 0.688 0.375 1.75 0.83 2.875 1.312 3.391 1.451 7.61 3.257 8.85 5.787 2.1 4.32-2.73 11.29-6.05 13.26z"/>
					
					
						<path d="m197.83 314.65c-3.479 6.059-6.455 9.165-0.101 14.756 6.382 5.616 14.063 9.039 22.029 11.418 6.325 1.888 8.043-0.602 10.059-6.464 2.441-7.098-4.262-6.571-9.908-8.695-7.363-2.77-15.799-6.417-22.08-11.418" fill="#fff"/>
						<path d="m223.37 342.65c-1.119 0-2.42-0.211-3.95-0.667-9.392-2.805-16.748-6.622-22.483-11.669-6.45-5.676-4.133-9.563-1.2-14.486 0.337-0.567 0.69-1.16 1.049-1.784l0.832 0.478 0.976-1.225c6.509 5.182 15.532 8.892 21.752 11.232 1.217 0.458 2.507 0.792 3.755 1.115 2.929 0.759 5.696 1.475 6.892 3.702 0.754 1.403 0.748 3.172-0.021 5.408-1.56 4.54-3.13 7.9-7.6 7.9zm-25.02-26.48c-0.182 0.307-0.36 0.607-0.536 0.9-2.896 4.861-4.218 7.08 0.718 11.425 5.469 4.811 12.526 8.464 21.576 11.167 5.208 1.554 6.572 0.102 8.565-5.696 0.537-1.561 0.595-2.696 0.178-3.471-0.694-1.292-2.859-1.853-5.365-2.502-1.309-0.338-2.662-0.689-4-1.192-6-2.26-14.52-5.76-21.15-10.64z"/>
					
				
				
					<path d="m215.1 413.93c-8.958 0-16.246-7.287-16.246-16.246 0-8.958 7.288-16.246 16.246-16.246s16.246 7.288 16.246 16.246c-0.01 8.97-7.3 16.25-16.25 16.25z" fill="#FB821F"/>
					
						<path d="m215.1 382.66c8.29 0 15.033 6.744 15.033 15.033 0 8.29-6.743 15.034-15.033 15.034s-15.033-6.744-15.033-15.034c-0.01-8.29 6.74-15.03 15.03-15.03m0-2.43c-9.641 0-17.458 7.816-17.458 17.458s7.817 17.459 17.458 17.459 17.458-7.817 17.458-17.459c-0.01-9.65-7.82-17.46-17.46-17.46z"/>
					
				
				
					<path d="m581.32 413.93c-8.958 0-16.246-7.287-16.246-16.246 0-8.958 7.288-16.246 16.246-16.246 8.957 0 16.245 7.288 16.245 16.246 0.01 8.97-7.28 16.25-16.24 16.25z" fill="#FB821F"/>
					
						<path d="m581.32 382.66c8.289 0 15.032 6.744 15.032 15.033 0 8.29-6.743 15.034-15.032 15.034-8.29 0-15.033-6.744-15.033-15.034s6.75-15.03 15.03-15.03m0-2.43c-9.642 0-17.459 7.816-17.459 17.458s7.817 17.459 17.459 17.459c9.641 0 17.458-7.817 17.458-17.459 0-9.65-7.81-17.46-17.46-17.46z"/>
					
				
				<path d="m351.06 180.15c0-2.718 1.701-4.548 3.235-4.548 1.535 0 2.778 2.202 2.778 4.92 0 2.717-1.243 4.918-2.778 4.918-1.54 0-3.24-2.57-3.24-5.29z"/>
				<path d="m362.5 184.46c1.056-0.139 7.685-0.997 8.766-1.32-3.185-0.505-6.591-2.574-7.37-3.068-2.669-2.499-7.125-6.048-16.046-4.339 0 0 0.956 2.538 2.185 2.523 0.053 0 0.107-0.022 0.16-0.033 4.275-0.868 8.23 0.157 12.495 2.809 1.07 1.2 1.3 2.64-0.2 3.43z"/>
				
					
						<path d="m544.65 401.82" fill="#fff" stroke="#000" stroke-miterlimit="10" stroke-width="2"/>
					
				
			</g>
		
		
			<path d="m602.99 703h-408.44c-3.413 0-6.548-2.735-6.548-6.136v-591.78c0-3.4 3.135-6.078 6.548-6.078h408.44c3.459 0 6.012 2.734 6.012 6.078v591.79c0 3.34-2.55 6.13-6.01 6.13zm-408.44-602c-2.052 0-3.548 2.038-3.548 4.078v591.79c0 2.04 1.496 4.136 3.548 4.136h408.44c2.086 0 4.012-2.164 4.012-4.136v-591.79c0-1.972-1.926-4.078-4.012-4.078h-408.44z"/>
		
		
			<path d="m148.6 92.191c-4.884 0-9.25-0.758-13.102-2.273-3.852-1.516-7.12-3.758-9.803-6.727-2.685-2.968-4.739-6.64-6.165-11.014s-2.138-9.435-2.138-15.182c0-4.927 0.773-9.411 2.32-13.453s3.708-7.5 6.483-10.374 6.088-5.1 9.94-6.679 8.097-2.369 12.737-2.369c4.55 0 8.72 0.782 12.511 2.345s7.052 3.782 9.78 6.656c2.73 2.874 4.852 6.316 6.369 10.327s2.275 8.464 2.275 13.358c0 7.927-1.456 14.511-4.368 19.753-2.911 5.274-6.763 9.237-11.555 11.89 2.184 4.737 4.306 8.227 6.369 10.469 2.062 2.242 4.094 3.363 6.097 3.363 2.303 0 3.972-0.395 5.003-1.185 1-0.727 1.85-2.037 2.547-3.932 0.091-0.253 0.243-0.435 0.455-0.545s0.439-0.166 0.683-0.166c0.242 0 0.484 0.047 0.728 0.142 0.243 0.095 0.455 0.229 0.637 0.402 0.183 0.174 0.326 0.371 0.433 0.592 0.105 0.221 0.129 0.474 0.068 0.758-0.334 1.358-0.835 2.826-1.501 4.406-0.668 1.579-1.578 3.047-2.729 4.405-1.152 1.358-2.585 2.487-4.299 3.387-1.713 0.9-3.783 1.35-6.21 1.35-1.364 0-2.661-0.332-3.889-0.995s-2.381-1.548-3.457-2.653c-1.078-1.105-2.078-2.368-3.003-3.79-0.925-1.421-1.774-2.89-2.547-4.405-0.773-1.516-1.471-3.024-2.093-4.524s-1.145-2.866-1.569-4.098c-2.33 0.5-4.66 0.753-7.03 0.753zm-2.59-20.274c2.335 0 4.777 0.758 7.325 2.274 2.577 1.484 4.974 4.232 7.187 8.243 2.366-2.842 4.187-6.379 5.459-10.611 1.274-4.263 1.911-8.779 1.911-13.548 0-2.495-0.137-4.981-0.41-7.46s-0.721-4.832-1.342-7.059c-0.623-2.226-1.433-4.287-2.435-6.182-1.001-1.895-2.213-3.544-3.639-4.95-1.426-1.405-3.086-2.495-4.981-3.269-1.896-0.773-4.056-1.161-6.483-1.161-3.367 0-6.271 0.869-8.711 2.605-2.442 1.737-4.443 4.019-6.005 6.845s-2.714 6.032-3.457 9.616c-0.744 3.585-1.116 7.224-1.116 10.919 0 2.084 0.076 4.145 0.229 6.182 0.15 2.037 0.416 3.995 0.796 5.874 0.379 1.879 0.872 3.671 1.478 5.376 0.606 1.706 1.365 3.269 2.275 4.69 0.363-1.042 0.864-2.068 1.501-3.079 0.636-1.01 1.44-1.902 2.411-2.676 0.97-0.773 2.115-1.405 3.435-1.895 1.32-0.489 2.84-0.734 4.57-0.734zm2.96 16.2c1.758 0 3.442-0.284 5.049-0.853-1.85-3.821-3.487-6.679-4.912-8.574-1.457-1.989-3.201-2.984-5.232-2.984-1.063 0-2.032 0.308-2.912 0.923s-1.637 1.319-2.274 2.108c-0.607 0.758-1.062 1.532-1.365 2.321-0.303 0.79-0.455 1.311-0.455 1.563 0 0.347 0.357 0.821 1.07 1.421 0.711 0.601 1.638 1.208 2.774 1.824 1.138 0.616 2.434 1.145 3.89 1.587 1.45 0.443 2.9 0.664 4.36 0.664z"/>
		
		
			<path d="m650.81 714.48c4.884 0 9.25 0.758 13.102 2.273 3.853 1.517 7.119 3.759 9.803 6.727 2.685 2.97 4.739 6.641 6.165 11.014 1.426 4.375 2.138 9.436 2.138 15.183 0 4.927-0.773 9.411-2.319 13.453-1.547 4.043-3.708 7.501-6.482 10.374-2.775 2.874-6.089 5.101-9.941 6.679-3.851 1.58-8.097 2.369-12.736 2.369-4.55 0-8.72-0.782-12.511-2.345s-7.052-3.781-9.78-6.656c-2.73-2.872-4.853-6.315-6.369-10.326-1.518-4.01-2.275-8.463-2.275-13.358 0-7.927 1.456-14.511 4.368-19.754 2.911-5.273 6.763-9.236 11.555-11.89-2.184-4.737-4.306-8.226-6.369-10.469-2.062-2.24-4.094-3.363-6.097-3.363-2.303 0-3.972 0.396-5.003 1.185-1.001 0.727-1.851 2.037-2.548 3.932-0.091 0.253-0.242 0.436-0.455 0.545-0.212 0.111-0.438 0.165-0.683 0.165-0.242 0-0.484-0.047-0.728-0.142-0.242-0.095-0.455-0.228-0.637-0.402-0.183-0.173-0.326-0.37-0.433-0.593-0.105-0.22-0.129-0.474-0.068-0.758 0.334-1.357 0.835-2.825 1.501-4.405 0.668-1.577 1.578-3.046 2.73-4.405 1.152-1.357 2.585-2.487 4.299-3.387 1.713-0.9 3.783-1.351 6.21-1.351 1.364 0 2.661 0.332 3.889 0.995 1.229 0.663 2.382 1.549 3.457 2.652 1.078 1.106 2.079 2.368 3.004 3.79 0.925 1.421 1.773 2.89 2.547 4.405s1.471 3.024 2.093 4.523c0.621 1.502 1.145 2.866 1.569 4.098 2.32-0.48 4.65-0.74 7.02-0.74zm2.59 20.28c-2.336 0-4.777-0.758-7.325-2.273-2.577-1.484-4.974-4.231-7.188-8.242-2.365 2.842-4.186 6.379-5.459 10.61-1.274 4.264-1.911 8.78-1.911 13.548 0 2.495 0.137 4.982 0.409 7.461 0.273 2.479 0.722 4.832 1.342 7.059 0.623 2.226 1.434 4.287 2.436 6.182 1 1.895 2.213 3.546 3.639 4.95 1.426 1.405 3.086 2.495 4.981 3.269 1.896 0.774 4.056 1.16 6.482 1.16 3.366 0 6.271-0.868 8.711-2.605 2.442-1.736 4.443-4.018 6.006-6.845 1.562-2.825 2.714-6.031 3.457-9.616 0.743-3.584 1.115-7.224 1.115-10.919 0-2.084-0.076-4.145-0.229-6.182-0.15-2.037-0.416-3.994-0.796-5.874-0.379-1.878-0.872-3.671-1.478-5.376-0.606-1.706-1.366-3.269-2.275-4.69-0.363 1.043-0.864 2.069-1.502 3.079-0.636 1.012-1.439 1.903-2.411 2.677-0.97 0.774-2.115 1.405-3.434 1.895-1.33 0.47-2.85 0.72-4.58 0.72zm-2.96-16.2c-1.759 0-3.443 0.284-5.05 0.853 1.85 3.821 3.487 6.679 4.912 8.574 1.457 1.989 3.201 2.984 5.232 2.984 1.062 0 2.031-0.309 2.912-0.924 0.879-0.616 1.636-1.318 2.273-2.108 0.607-0.758 1.063-1.531 1.365-2.321 0.303-0.788 0.455-1.31 0.455-1.563 0-0.348-0.356-0.821-1.069-1.422-0.712-0.599-1.638-1.208-2.775-1.823-1.138-0.616-2.434-1.145-3.89-1.587s-2.91-0.66-4.37-0.66z"/>
		
	
	<path d="m161.66 138.2c-1.516 0-2.976 0.24-4.346 0.681 2.291-2.521 3.684-5.869 3.684-9.542 0-7.841-6.356-14.197-14.197-14.197s-14.198 6.355-14.198 14.197c0 4.083 1.727 7.761 4.486 10.35-1.154-0.302-2.363-0.465-3.61-0.465-7.842 0-14.197 6.356-14.197 14.197s6.355 14.197 14.197 14.197c4.555 0 8.605-0.973 11.203-4.308-0.649 8.7-1.338 16.689-1.338 16.689h8.507s-1.006-8.753-1.849-18.328c2.564 3.684 6.827 5.509 11.657 5.509 7.842 0 14.197-6.65 14.197-14.491 0-7.84-6.35-14.49-14.19-14.49zm-18.2 4.94c-0.022 0.045-0.044 0.089-0.066 0.134-0.07-0.067-0.141-0.134-0.212-0.202 0.1 0.03 0.19 0.05 0.28 0.07z" clip-rule="evenodd" fill-rule="evenodd"/>
	<path d="m681.52 662.71c0-7.841-6.355-14.221-14.197-14.221-4.829 0-9.092 3.218-11.657 6.902 0.843-9.575 1.85-16.394 1.85-16.394h-8.509s0.689 6.055 1.34 14.754c-2.599-3.335-6.648-5.815-11.205-5.815-7.841 0-14.196 6.144-14.196 13.985 0 7.84 6.355 14.089 14.196 14.089 1.247 0 2.458-0.216 3.611-0.518-2.76 2.59-4.486 6.241-4.486 10.323 0 7.842 6.357 14.185 14.197 14.185 7.841 0 14.196-6.362 14.196-14.204 0-3.673-1.394-7.022-3.683-9.544 1.369 0.44 2.83 0.678 4.346 0.678 7.83-0.01 14.19-6.39 14.19-14.23zm-32.67 9.35c0.07-0.068 0.142-0.135 0.21-0.201 0.022 0.044 0.045 0.088 0.066 0.133-0.09 0.03-0.19 0.05-0.28 0.07z" clip-rule="evenodd" fill-rule="evenodd"/>
	<path d="m302.17 158.48c-2.249 0-4.415 0.356-6.447 1.01 3.398-3.741 5.465-8.706 5.465-14.156 0-11.633-9.429-21.061-21.062-21.061-11.631 0-21.063 9.428-21.063 21.061 0 6.056 2.562 11.514 6.655 15.354-1.711-0.449-3.505-0.689-5.355-0.689-11.634 0-21.061 9.429-21.061 21.061s9.426 21.062 21.061 21.062c6.757 0 12.766-1.688 16.62-6.636-0.962 12.907-1.984 24.514-1.984 24.514h12.622s-1.493-12.741-2.743-26.945c3.803 5.465 10.128 8.294 17.292 8.294 11.634 0 21.062-9.803 21.062-21.436 0-11.61-9.43-21.41-21.06-21.41zm-26.99 7.33c-0.033 0.066-0.066 0.133-0.098 0.198-0.104-0.099-0.21-0.198-0.315-0.298 0.14 0.03 0.28 0.06 0.42 0.1z" clip-rule="evenodd" fill-rule="evenodd"/>
	<path d="m549.72 633.89c0-11.632-9.428-21.471-21.062-21.471-7.165 0-13.49 2.98-17.293 8.445 1.25-14.204 2.743-26.863 2.743-26.863h-12.622s1.022 11.525 1.985 24.433c-3.854-4.948-9.863-6.606-16.62-6.606-11.634 0-21.061 9.374-21.061 21.007 0 11.632 9.427 21.033 21.061 21.033 1.85 0 3.644-0.255 5.355-0.703-4.095 3.84-6.656 9.291-6.656 15.346 0 11.634 9.432 21.061 21.063 21.061 11.633 0 21.063-9.432 21.063-21.064 0-5.448-2.068-10.415-5.466-14.156 2.032 0.653 4.198 1.01 6.447 1.01 11.64 0 21.06-9.84 21.06-21.47zm-48.46 14.24c0.105-0.102 0.211-0.199 0.315-0.299 0.031 0.065 0.064 0.132 0.098 0.197-0.15 0.03-0.28 0.07-0.42 0.1z" clip-rule="evenodd" fill-rule="evenodd"/>

<metadata><rdfRDF><ccWork><dcFormat>image/svg+xml</dcFormat><dcType rdfResource="http://purl.org/dc/dcmitype/StillImage"/><ccLicense rdfResource="http://creativecommons.org/licenses/publicdomain/"/><dcPublisher><ccAgent rdfAbout="http://openclipart.org/"><dcTitle>Openclipart</dcTitle></ccAgent></dcPublisher></ccWork><ccLicense rdfAbout="http://creativecommons.org/licenses/publicdomain/"><ccPermits rdfResource="http://creativecommons.org/ns#Reproduction"/><ccPermits rdfResource="http://creativecommons.org/ns#Distribution"/><ccPermits rdfResource="http://creativecommons.org/ns#DerivativeWorks"/></ccLicense></rdfRDF></metadata></svg>
