<?xml version="1.0" encoding="UTF-8"?>
<svg enable-background="new 0 0 800 800" version="1.1" viewBox="108 0 592 800" xmlSpace="preserve" xmlns="http://www.w3.org/2000/svg" xmlnsCc="http://web.resource.org/cc/" xmlnsDc="http://purl.org/dc/elements/1.1/" xmlnsRdf="http://www.w3.org/1999/02/22-rdf-syntax-ns#">

	
		
			<path d="m118.87 799c-5.552 0-9.868-4.04-9.868-9.058v-776.42c0-5.013 4.32-9.52 9.87-9.52h564.6c5.55 0 10.53 4.507 10.53 9.525v776.42c0 5.018-4.977 9.058-10.528 9.058h-564.6z" fill="#fff"/>
			<path d="m683.51 8.033c3.879 0 6.488 2.147 6.488 5.492v776.42c0 3.345-2.649 7.058-6.528 7.058h-564.6c-3.879 0-7.868-3.713-7.868-7.058v-776.42c0-3.34 3.99-5.52 7.87-5.52h565.13m-0.53-6h-564.6c-7.24 0-13.87 4.824-13.87 11.525v776.42c0 6.7 6.631 13.058 13.868 13.058h564.6c7.235 0 12.528-6.357 12.528-13.058v-776.42c0-6.696-5.32-11.52-12.56-11.52h0.03z"/>
		
		
			
				
					<path d="m162.21 50.012c-0.917 0-1.771 0.094-2.558 0.282-0.789 0.189-1.23 0.282-1.324 0.282-0.399 0-0.693-0.128-0.882-0.388-0.188-0.259-0.306-0.558-0.352-0.899-0.048-0.341 0-0.67 0.141-0.988 0.141-0.317 0.388-0.5 0.741-0.548 2.022-0.282 3.68-0.77 4.974-1.464 1.294-0.693 2.341-1.546 3.141-2.557 0.799-1.012 1.353-2.147 1.658-3.405 0.306-1.257 0.459-2.604 0.459-4.04 0-1.105-0.142-2.14-0.423-3.104-0.283-0.964-0.753-1.812-1.412-2.542-0.659-0.729-1.505-1.299-2.54-1.71s-2.317-0.617-3.846-0.617c-1.599 0-2.987 0.242-4.162 0.723-1.177 0.483-2.152 1.076-2.929 1.782s-1.353 1.417-1.729 2.135-0.564 1.322-0.564 1.817c0 0.187 0.023 0.452 0.071 0.794 0.046 0.341 0.164 0.663 0.353 0.968 0.188 0.306 0.5 0.571 0.935 0.794 0.435 0.226 1.041 0.336 1.817 0.336 1.059 0 1.817 0.276 2.276 0.828 0.458 0.553 0.688 1.241 0.688 2.064 0 0.847-0.317 1.647-0.953 2.399-0.635 0.754-1.6 1.129-2.893 1.129-1.247 0-2.257-0.24-3.034-0.724-0.776-0.481-1.382-1.081-1.817-1.798-0.436-0.718-0.735-1.476-0.899-2.276-0.166-0.8-0.248-1.494-0.248-2.082 0-1.623 0.388-3.169 1.165-4.639 0.776-1.469 1.834-2.746 3.175-3.828 1.34-1.082 2.904-1.94 4.692-2.575 1.787-0.635 3.669-0.952 5.646-0.952 1.881 0 3.697 0.24 5.447 0.722 1.749 0.482 3.286 1.194 4.609 2.135 1.324 0.941 2.395 2.098 3.214 3.474s1.229 2.936 1.229 4.674c0 2.776-0.905 5.046-2.716 6.81-1.812 1.763-4.233 3.223-7.268 4.374-0.141 0.047-0.212 0.142-0.212 0.282 0 0.143 0.094 0.212 0.282 0.212 4.375 0.447 7.568 1.83 9.579 4.146 2.011 2.318 3.016 5.203 3.016 8.662 0 2.61-0.564 4.816-1.693 6.614-1.129 1.801-2.611 3.264-4.446 4.393-1.834 1.129-3.928 1.958-6.279 2.488-2.353 0.528-4.763 0.794-7.233 0.794-1.294 0-2.71-0.083-4.25-0.248-1.541-0.165-2.964-0.499-4.27-1.006-1.305-0.505-2.387-1.217-3.246-2.134-0.859-0.918-1.288-2.141-1.288-3.669 0-1.199 0.335-2.163 1.005-2.893 0.671-0.73 1.629-1.095 2.876-1.095 0.776 0 1.535 0.253 2.275 0.759 0.741 0.506 1.111 1.264 1.111 2.276 0 0.541-0.106 0.952-0.318 1.234-0.211 0.282-0.317 0.647-0.317 1.093 0 0.613 0.229 1.125 0.688 1.534 0.459 0.413 1.035 0.742 1.729 0.988 0.693 0.248 1.429 0.418 2.205 0.512 0.776 0.095 1.505 0.143 2.188 0.143 2.022 0 3.727-0.354 5.115-1.06 1.387-0.706 2.504-1.599 3.352-2.682 0.847-1.08 1.464-2.279 1.852-3.598 0.389-1.316 0.583-2.61 0.583-3.88 0-1.482-0.183-2.899-0.547-4.251-0.365-1.352-0.882-2.546-1.553-3.582-0.67-1.034-1.511-1.862-2.522-2.487-1.04-0.618-2.23-0.931-3.59-0.931z"/>
				
			
			
				
					<path d="m633.32 753.3c0.918 0 1.771-0.095 2.558-0.282 0.79-0.188 1.229-0.281 1.324-0.281 0.398 0 0.692 0.128 0.883 0.388 0.188 0.26 0.305 0.558 0.352 0.898 0.047 0.342 0 0.671-0.141 0.989-0.142 0.317-0.39 0.499-0.742 0.547-2.021 0.281-3.68 0.77-4.974 1.465-1.293 0.692-2.341 1.545-3.14 2.556-0.8 1.012-1.353 2.147-1.658 3.405s-0.459 2.604-0.459 4.039c0 1.105 0.142 2.141 0.423 3.105 0.282 0.964 0.754 1.811 1.413 2.541 0.658 0.728 1.504 1.299 2.539 1.711 1.035 0.41 2.316 0.616 3.847 0.616 1.6 0 2.985-0.241 4.162-0.723 1.176-0.482 2.151-1.076 2.928-1.781 0.776-0.707 1.352-1.417 1.729-2.136 0.377-0.717 0.563-1.321 0.563-1.816 0-0.188-0.022-0.453-0.069-0.794-0.046-0.341-0.165-0.663-0.353-0.969-0.189-0.307-0.499-0.571-0.936-0.794-0.435-0.226-1.04-0.338-1.817-0.338-1.058 0-1.815-0.275-2.274-0.827-0.46-0.553-0.688-1.24-0.688-2.063 0-0.848 0.318-1.647 0.953-2.399 0.635-0.753 1.601-1.129 2.893-1.129 1.248 0 2.257 0.24 3.034 0.724 0.776 0.481 1.382 1.08 1.817 1.799 0.435 0.718 0.734 1.476 0.899 2.275 0.164 0.801 0.248 1.494 0.248 2.082 0 1.623-0.39 3.168-1.167 4.64-0.773 1.469-1.833 2.745-3.175 3.827-1.34 1.082-2.903 1.939-4.691 2.575-1.786 0.635-3.669 0.952-5.646 0.952-1.881 0-3.697-0.241-5.446-0.724-1.75-0.481-3.287-1.193-4.61-2.134-1.321-0.941-2.393-2.099-3.213-3.475-0.819-1.377-1.23-2.936-1.23-4.674 0-2.776 0.906-5.046 2.717-6.811 1.813-1.763 4.233-3.222 7.269-4.373 0.141-0.048 0.211-0.144 0.211-0.282 0-0.143-0.094-0.213-0.281-0.213-4.375-0.446-7.568-1.829-9.579-4.146s-3.016-5.202-3.016-8.661c0-2.609 0.564-4.815 1.692-6.613 1.129-1.802 2.611-3.265 4.445-4.394 1.835-1.129 3.929-1.959 6.28-2.488 2.352-0.528 4.762-0.794 7.232-0.794 1.294 0 2.711 0.084 4.251 0.248 1.54 0.165 2.964 0.499 4.27 1.006 1.305 0.505 2.386 1.217 3.245 2.133 0.858 0.919 1.288 2.142 1.288 3.669 0 1.2-0.336 2.164-1.005 2.895-0.67 0.729-1.629 1.095-2.876 1.095-0.776 0-1.535-0.254-2.275-0.76-0.741-0.506-1.111-1.265-1.111-2.276 0-0.54 0.105-0.953 0.317-1.234s0.317-0.646 0.317-1.093c0-0.613-0.229-1.124-0.688-1.535-0.458-0.411-1.033-0.741-1.729-0.987-0.693-0.248-1.429-0.419-2.206-0.512-0.773-0.096-1.504-0.143-2.187-0.143-2.022 0-3.728 0.354-5.116 1.059-1.387 0.707-2.504 1.601-3.352 2.684-0.847 1.08-1.463 2.279-1.851 3.597-0.39 1.316-0.583 2.61-0.583 3.88 0 1.483 0.182 2.899 0.547 4.252 0.365 1.352 0.882 2.547 1.552 3.582 0.671 1.034 1.513 1.862 2.523 2.486 1.04 0.59 2.22 0.9 3.59 0.9z"/>
				
			
		
	
	<g clip-rule="evenodd" fill-rule="evenodd">
		<path d="m164.63 81.029c-3.67 13.971-20.918 18.653-21.619 36.45-0.55 13.957 12.883 16.703 19.427 6.731-0.171 8.638-2.661 21.79-2.661 21.79h9.207s-3.039-12.247-3.214-21.354c5.584 9.691 18.434 6.499 18.334-5.931-0.11-13.83-18.86-26.177-19.48-37.691z"/>
		<path d="m633.18 722.61c3.671-13.973 20.919-18.654 21.62-36.45 0.549-13.958-12.883-16.523-19.428-6.553 0.172-8.637 2.661-21.605 2.661-21.605h-9.206s3.039 12.064 3.213 21.174c-5.584-9.691-18.433-6.59-18.334 5.838 0.11 13.83 18.86 26.08 19.48 37.6z"/>
	</g>
	<path d="m400.09 574c-8.682 33.045-49.472 44.114-51.13 86.206-1.301 33.008 30.471 38.675 45.947 15.091-0.407 20.428-6.294 50.705-6.294 50.705h21.774s-7.188-28.135-7.603-49.674c13.209 22.92 43.597 15.782 43.361-13.611-0.26-32.71-44.6-61.49-46.06-88.72z" clip-rule="evenodd" fill-rule="evenodd"/>
	<path d="m400.09 343.5c-8.682 33.044-49.472 44.114-51.13 86.206-1.301 33.008 30.471 38.425 45.947 14.841-0.407 20.427-6.294 50.454-6.294 50.454h21.774s-7.188-27.885-7.603-49.423c13.209 22.918 43.597 15.905 43.361-13.487-0.26-32.7-44.6-61.36-46.06-88.59z" clip-rule="evenodd" fill-rule="evenodd"/>
	<path d="m400.09 100.87c-8.682 33.044-49.472 44.114-51.13 86.207-1.301 33.007 30.471 38.24 45.947 14.657-0.407 20.426-6.294 50.269-6.294 50.269h21.774s-7.188-27.7-7.603-49.238c13.209 22.918 43.597 15.998 43.361-13.395-0.26-32.71-44.6-61.28-46.06-88.51z" clip-rule="evenodd" fill-rule="evenodd"/>

<metadata><rdfRDF><ccWork><dcFormat>image/svg+xml</dcFormat><dcType rdfResource="http://purl.org/dc/dcmitype/StillImage"/><ccLicense rdfResource="http://creativecommons.org/licenses/publicdomain/"/><dcPublisher><ccAgent rdfAbout="http://openclipart.org/"><dcTitle>Openclipart</dcTitle></ccAgent></dcPublisher></ccWork><ccLicense rdfAbout="http://creativecommons.org/licenses/publicdomain/"><ccPermits rdfResource="http://creativecommons.org/ns#Reproduction"/><ccPermits rdfResource="http://creativecommons.org/ns#Distribution"/><ccPermits rdfResource="http://creativecommons.org/ns#DerivativeWorks"/></ccLicense></rdfRDF></metadata></svg>
