<?xml version="1.0" encoding="UTF-8"?>
<svg enable-background="new 0 0 800 800" version="1.1" viewBox="0 0 800 800" xmlSpace="preserve" xmlns="http://www.w3.org/2000/svg" xmlnsCc="http://web.resource.org/cc/" xmlnsDc="http://purl.org/dc/elements/1.1/" xmlnsRdf="http://www.w3.org/1999/02/22-rdf-syntax-ns#">

	
		
			<path d="m118.87 799c-5.552 0-9.868-4.04-9.868-9.058v-776.42c0-5.013 4.32-9.52 9.87-9.52h564.6c5.55 0 10.53 4.507 10.53 9.525v776.42c0 5.018-4.977 9.058-10.528 9.058h-564.6z" fill="#fff"/>
			<path d="m683.51 8.033c3.879 0 6.488 2.147 6.488 5.492v776.42c0 3.345-2.649 7.058-6.528 7.058h-564.6c-3.879 0-7.868-3.713-7.868-7.058v-776.42c0-3.34 3.99-5.52 7.87-5.52h565.13m-0.53-6h-564.6c-7.24 0-13.87 4.824-13.87 11.525v776.42c0 6.7 6.631 13.058 13.868 13.058h564.6c7.235 0 12.528-6.357 12.528-13.058v-776.42c0-6.696-5.32-11.52-12.56-11.52h0.03z"/>
		
		
			
				
					<path d="m146.31 66.675c2.352-2.752 4.645-5.585 6.879-8.502 2.234-2.916 4.375-5.821 6.421-8.713 2.046-2.894 3.975-5.709 5.786-8.45 1.811-2.74 3.469-5.31 4.974-7.709 0.188-0.306 0.429-0.523 0.724-0.651 0.294-0.13 0.605-0.195 0.935-0.195 0.423 0 0.805 0.083 1.146 0.247 0.342 0.165 0.512 0.341 0.512 0.529v31.576c0 0.375 0.1 0.588 0.299 0.635 0.2 0.047 0.559 0.069 1.077 0.069 0.423 0 0.893-0.035 1.411-0.105 0.517-0.07 1.029-0.181 1.535-0.335 0.505-0.152 0.981-0.334 1.429-0.547 0.447-0.211 0.799-0.458 1.059-0.739 0.141-0.189 0.317-0.294 0.529-0.317 0.212-0.024 0.411 0.017 0.601 0.123 0.188 0.106 0.322 0.247 0.406 0.423 0.081 0.177 0.075 0.371-0.019 0.582-0.871 1.812-2.034 3.234-3.492 4.27-1.412 0.988-2.752 1.54-4.022 1.657-0.4 0.047-0.635 0.141-0.706 0.283-0.071 0.14-0.106 0.693-0.106 1.658v9.243c-0.612 0.141-1.199 0.248-1.764 0.317s-1.176 0.105-1.834 0.105c-0.729 0-1.382-0.036-1.958-0.105-0.577-0.07-1.229-0.176-1.958-0.317v-10.69c0-0.47-0.058-0.764-0.176-0.881-0.118-0.142-0.541-0.282-1.27-0.424-2.022-0.423-4.434-0.635-7.232-0.635-1.553 0-3.146 0.071-4.781 0.212-1.634 0.141-3.263 0.399-4.886 0.776-0.307 0.118-0.601 0.041-0.882-0.23-0.283-0.271-0.506-0.6-0.67-0.988-0.165-0.388-0.253-0.794-0.264-1.216-0.01-0.426 0.09-0.744 0.3-0.956zm6-2.01c2.046-0.587 4.186-0.881 6.42-0.881 1.152 0 2.27 0.058 3.352 0.175 1.082 0.119 2.188 0.306 3.317 0.564 0.376 0.095 0.599 0.106 0.67 0.035 0.071-0.069 0.105-0.234 0.105-0.493v-18.982c-1.905 3.247-4.051 6.509-6.438 9.791-2.4 3.282-4.87 6.544-7.43 9.791z"/>
				
			
			
				
					<path d="m651.64 751.2c-2.352 2.752-4.644 5.586-6.879 8.502-2.233 2.916-4.376 5.821-6.42 8.714-2.048 2.894-3.977 5.71-5.787 8.45-1.811 2.739-3.469 5.309-4.976 7.708-0.187 0.306-0.429 0.524-0.723 0.651-0.294 0.131-0.604 0.195-0.936 0.195-0.422 0-0.803-0.083-1.146-0.247-0.341-0.164-0.511-0.341-0.511-0.528v-31.576c0-0.376-0.102-0.588-0.301-0.636-0.199-0.047-0.558-0.069-1.076-0.069-0.424 0-0.893 0.035-1.411 0.105s-1.029 0.182-1.534 0.336c-0.506 0.151-0.981 0.334-1.429 0.547-0.448 0.211-0.8 0.457-1.06 0.739-0.141 0.189-0.317 0.294-0.528 0.317-0.213 0.023-0.412-0.017-0.601-0.123-0.188-0.105-0.323-0.246-0.406-0.424-0.08-0.176-0.075-0.37 0.02-0.581 0.869-1.812 2.033-3.234 3.492-4.27 1.41-0.987 2.751-1.54 4.021-1.657 0.399-0.048 0.635-0.141 0.705-0.283 0.072-0.14 0.107-0.693 0.107-1.658v-9.243c0.611-0.141 1.198-0.247 1.763-0.317 0.565-0.069 1.178-0.104 1.835-0.104 0.729 0 1.382 0.035 1.958 0.104 0.575 0.07 1.23 0.177 1.957 0.317v10.689c0 0.471 0.06 0.765 0.178 0.883 0.117 0.142 0.541 0.282 1.271 0.424 2.022 0.423 4.433 0.635 7.231 0.635 1.552 0 3.147-0.071 4.78-0.212 1.635-0.142 3.264-0.399 4.888-0.776 0.305-0.118 0.599-0.041 0.881 0.23s0.506 0.6 0.67 0.987c0.165 0.389 0.254 0.794 0.265 1.217 0.03 0.42-0.07 0.74-0.28 0.95zm-6 2.01c-2.047 0.588-4.187 0.882-6.421 0.882-1.151 0-2.27-0.058-3.352-0.175-1.082-0.119-2.188-0.306-3.316-0.564-0.376-0.095-0.6-0.106-0.67-0.035-0.071 0.069-0.107 0.233-0.107 0.492v18.982c1.905-3.247 4.053-6.509 6.439-9.791 2.39-3.28 4.87-6.54 7.43-9.79z"/>
				
			
		
	
	<g clip-rule="evenodd" fill-rule="evenodd">
		<path d="m169.49 90.734c-3.67 13.971-20.918 18.653-21.619 36.45-0.55 13.958 12.882 16.351 19.427 6.378-0.172 8.639-2.661 21.437-2.661 21.437h9.207s-3.039-11.894-3.214-21.001c5.584 9.691 18.434 6.675 18.334-5.754-0.12-13.83-18.87-26-19.48-37.516z"/>
		<path d="m638.03 732.31c3.67-13.973 20.918-18.653 21.619-36.45 0.55-13.957-12.883-16.375-19.427-6.404 0.171-8.637 2.66-21.459 2.66-21.459h-9.207s3.039 11.916 3.215 21.025c-5.585-9.691-18.435-6.663-18.335 5.766 0.12 13.83 18.87 26.01 19.49 37.52z"/>
	</g>
	<path d="m252.09 576.42c-8.682 33.045-49.471 44.115-51.13 86.207-1.301 33.008 30.471 38.461 45.947 14.878-0.406 20.428-6.294 50.491-6.294 50.491h21.774s-7.187-27.922-7.601-49.46c13.208 22.919 43.596 15.887 43.36-13.506-0.27-32.7-44.61-61.37-46.06-88.61z" clip-rule="evenodd" fill-rule="evenodd"/>
	<path d="m252.09 103.3c-8.682 33.044-49.471 44.114-51.13 86.206-1.301 33.007 30.471 38.026 45.947 14.443-0.406 20.427-6.294 50.056-6.294 50.056h21.774s-7.187-27.486-7.601-49.024c13.208 22.917 43.596 16.104 43.36-13.289-0.27-32.71-44.61-61.17-46.06-88.4z" clip-rule="evenodd" fill-rule="evenodd"/>
	<path d="m555.38 576.42c-8.682 33.045-49.472 44.115-51.131 86.207-1.3 33.008 30.472 38.461 45.947 14.878-0.405 20.428-6.294 50.491-6.294 50.491h21.774s-7.187-27.922-7.602-49.46c13.209 22.919 43.597 15.887 43.36-13.506-0.27-32.7-44.61-61.37-46.06-88.61z" clip-rule="evenodd" fill-rule="evenodd"/>
	<path d="m555.38 103.3c-8.682 33.044-49.472 44.114-51.131 86.206-1.3 33.007 30.472 38.026 45.947 14.443-0.405 20.427-6.294 50.056-6.294 50.056h21.774s-7.187-27.486-7.602-49.024c13.209 22.917 43.597 16.104 43.36-13.289-0.27-32.71-44.61-61.17-46.06-88.4z" clip-rule="evenodd" fill-rule="evenodd"/>

<metadata><rdfRDF><ccWork><dcFormat>image/svg+xml</dcFormat><dcType rdfResource="http://purl.org/dc/dcmitype/StillImage"/><ccLicense rdfResource="http://creativecommons.org/licenses/publicdomain/"/><dcPublisher><ccAgent rdfAbout="http://openclipart.org/"><dcTitle>Openclipart</dcTitle></ccAgent></dcPublisher></ccWork><ccLicense rdfAbout="http://creativecommons.org/licenses/publicdomain/"><ccPermits rdfResource="http://creativecommons.org/ns#Reproduction"/><ccPermits rdfResource="http://creativecommons.org/ns#Distribution"/><ccPermits rdfResource="http://creativecommons.org/ns#DerivativeWorks"/></ccLicense></rdfRDF></metadata></svg>
