<?xml version="1.0" encoding="UTF-8"?>
<svg enable-background="new 0 0 800 800" version="1.1" viewBox="0 0 800 800" xmlSpace="preserve" xmlns="http://www.w3.org/2000/svg" xmlnsCc="http://web.resource.org/cc/" xmlnsDc="http://purl.org/dc/elements/1.1/" xmlnsRdf="http://www.w3.org/1999/02/22-rdf-syntax-ns#">

	
		
			<path d="m118.87 799c-5.552 0-9.868-4.04-9.868-9.058v-776.42c0-5.013 4.32-9.52 9.87-9.52h564.6c5.55 0 10.53 4.507 10.53 9.525v776.42c0 5.018-4.977 9.058-10.528 9.058h-564.6z" fill="#fff"/>
			<path d="m683.51 8.033c3.879 0 6.488 2.147 6.488 5.492v776.42c0 3.345-2.649 7.058-6.528 7.058h-564.6c-3.879 0-7.868-3.713-7.868-7.058v-776.42c0-3.34 3.99-5.52 7.87-5.52h565.13m-0.53-6h-564.6c-7.24 0-13.87 4.824-13.87 11.525v776.42c0 6.7 6.631 13.058 13.868 13.058h564.6c7.235 0 12.528-6.357 12.528-13.058v-776.42c0-6.696-5.32-11.52-12.56-11.52h0.03z"/>
		
		
			
				
					<path d="m157.46 37.011c0.964 0 2.146 0.059 3.545 0.175 1.399 0.119 2.893 0.254 4.481 0.407 1.587 0.152 3.21 0.288 4.868 0.406 1.659 0.117 3.239 0.175 4.745 0.175 0.776 0 1.453-0.135 2.029-0.405s1.064-0.6 1.464-0.988 0.723-0.798 0.971-1.234c0.247-0.435 0.44-0.817 0.582-1.147 0.117-0.21 0.329-0.317 0.635-0.317 0.258 0 0.499 0.03 0.723 0.088 0.223 0.059 0.429 0.172 0.617 0.336s0.247 0.352 0.177 0.564c-0.141 0.542-0.3 1.146-0.477 1.817-0.176 0.67-0.388 1.34-0.635 2.01-0.247 0.669-0.542 1.33-0.882 1.975-0.341 0.648-0.753 1.224-1.235 1.73-0.482 0.505-1.047 0.912-1.694 1.216-0.646 0.307-1.406 0.471-2.275 0.494-1.199 0-2.417-0.036-3.651-0.107-1.235-0.069-2.511-0.187-3.828-0.352-1.294-0.165-2.653-0.293-4.075-0.387-1.423-0.095-2.922-0.154-4.498-0.178-0.189 1.718-0.324 3.365-0.406 4.94-0.083 1.576-0.124 3.187-0.124 4.833v1.288c0 0.436 0.011 0.888 0.035 1.357 0.329-0.164 0.746-0.322 1.252-0.476 0.506-0.152 1.077-0.287 1.711-0.405 0.635-0.117 1.311-0.211 2.029-0.282 0.717-0.071 1.452-0.107 2.205-0.107 2.281 0 4.457 0.354 6.526 1.06s3.893 1.706 5.469 2.998c1.575 1.295 2.828 2.852 3.757 4.675s1.393 3.84 1.393 6.051c0 2.729-0.471 5.133-1.411 7.215-0.941 2.082-2.276 3.822-4.005 5.221-1.728 1.399-3.816 2.458-6.262 3.176-2.446 0.716-5.174 1.076-8.185 1.076-1.176 0-2.435-0.089-3.775-0.266-1.34-0.175-2.575-0.488-3.704-0.935s-2.07-1.052-2.823-1.816c-0.753-0.765-1.129-1.723-1.129-2.876 0-0.846 0.27-1.716 0.811-2.61 0.565-0.871 1.399-1.306 2.505-1.306 0.423 0 0.847 0.065 1.27 0.194s0.799 0.329 1.129 0.599c0.329 0.271 0.594 0.601 0.794 0.988 0.199 0.387 0.3 0.828 0.3 1.324 0 0.234-0.036 0.44-0.106 0.616-0.07 0.178-0.146 0.341-0.229 0.496-0.083 0.152-0.159 0.305-0.229 0.457-0.07 0.154-0.106 0.324-0.106 0.512 0 0.424 0.206 0.771 0.618 1.042 0.411 0.271 0.929 0.489 1.552 0.653 0.623 0.165 1.311 0.277 2.064 0.335 0.752 0.059 1.481 0.089 2.187 0.089 3.716 0 6.397-1.212 8.044-3.634 1.669-2.446 2.505-5.692 2.505-9.738 0-3.598-0.977-6.502-2.928-8.713-1.953-2.188-4.975-3.282-9.067-3.282-1.553 0-2.834 0.177-3.846 0.53-1.059 0.329-1.623 0.494-1.694 0.494-0.87 0-1.44-0.159-1.71-0.476-0.271-0.318-0.406-0.841-0.406-1.571 0-3.221 0.071-6.397 0.211-9.525 0.141-3.128 0.364-6.255 0.671-9.384 0-0.188 0.117-0.418 0.352-0.688 0.26-0.272 0.65-0.407 1.19-0.407z"/>
				
			
			
				
					<path d="m647.77 788.14c-0.962 0-2.145-0.061-3.545-0.176-1.397-0.118-2.893-0.254-4.48-0.406-1.588-0.153-3.211-0.288-4.868-0.407-1.659-0.116-3.24-0.174-4.745-0.174-0.776 0-1.452 0.134-2.028 0.404-0.577 0.271-1.065 0.6-1.464 0.988-0.4 0.389-0.725 0.798-0.971 1.234-0.247 0.435-0.441 0.817-0.582 1.146-0.118 0.211-0.329 0.317-0.636 0.317-0.259 0-0.499-0.029-0.724-0.087-0.223-0.06-0.429-0.173-0.616-0.337-0.188-0.163-0.247-0.353-0.178-0.563 0.142-0.542 0.301-1.146 0.476-1.818 0.179-0.67 0.39-1.34 0.636-2.01 0.248-0.669 0.543-1.33 0.883-1.975 0.341-0.648 0.753-1.224 1.235-1.729 0.481-0.507 1.046-0.912 1.692-1.218 0.648-0.307 1.406-0.47 2.276-0.493 1.199 0 2.417 0.035 3.652 0.106 1.233 0.069 2.51 0.188 3.826 0.352 1.295 0.165 2.654 0.294 4.075 0.388 1.424 0.095 2.923 0.153 4.499 0.177 0.188-1.718 0.323-3.364 0.405-4.939 0.083-1.576 0.124-3.188 0.124-4.833v-1.287c0-0.437-0.012-0.889-0.035-1.358-0.33 0.164-0.747 0.322-1.253 0.477-0.506 0.151-1.077 0.287-1.712 0.405s-1.311 0.211-2.028 0.282c-0.717 0.07-1.452 0.106-2.205 0.106-2.28 0-4.457-0.354-6.526-1.059-2.07-0.707-3.893-1.706-5.469-2.999-1.576-1.294-2.828-2.852-3.758-4.676-0.929-1.822-1.393-3.839-1.393-6.05 0-2.729 0.471-5.133 1.412-7.215 0.94-2.081 2.274-3.822 4.004-5.222 1.728-1.398 3.815-2.457 6.262-3.176 2.445-0.715 5.175-1.075 8.185-1.075 1.177 0 2.435 0.089 3.774 0.265 1.342 0.176 2.575 0.488 3.704 0.936 1.13 0.446 2.07 1.052 2.823 1.815 0.753 0.766 1.128 1.723 1.128 2.877 0 0.846-0.27 1.715-0.811 2.61-0.564 0.871-1.4 1.305-2.505 1.305-0.423 0-0.848-0.064-1.271-0.193-0.423-0.13-0.8-0.33-1.129-0.601s-0.593-0.601-0.794-0.987c-0.199-0.387-0.299-0.828-0.299-1.323 0-0.235 0.035-0.44 0.104-0.616 0.072-0.178 0.147-0.341 0.23-0.495 0.083-0.152 0.159-0.306 0.229-0.457 0.069-0.154 0.105-0.325 0.105-0.512 0-0.425-0.204-0.771-0.617-1.042-0.412-0.271-0.929-0.489-1.552-0.652-0.624-0.165-1.312-0.277-2.064-0.335-0.753-0.059-1.482-0.09-2.188-0.09-3.716 0-6.396 1.213-8.042 3.635-1.671 2.445-2.506 5.691-2.506 9.737 0 3.599 0.976 6.503 2.929 8.714 1.952 2.188 4.975 3.282 9.066 3.282 1.552 0 2.834-0.177 3.846-0.53 1.059-0.329 1.623-0.494 1.693-0.494 0.871 0 1.442 0.159 1.712 0.477 0.271 0.317 0.405 0.842 0.405 1.57 0 3.222-0.071 6.397-0.212 9.525-0.142 3.129-0.364 6.256-0.67 9.385 0 0.188-0.119 0.418-0.353 0.688-0.19 0.3-0.58 0.43-1.12 0.43z"/>
				
			
		
	
	<g clip-rule="evenodd" fill-rule="evenodd">
		<path d="m169.49 94.374c-3.67 13.972-20.918 18.653-21.619 36.45-0.55 13.958 12.882 16.532 19.427 6.559-0.172 8.639-2.661 21.617-2.661 21.617h9.207s-3.039-12.074-3.214-21.181c5.584 9.69 18.434 6.583 18.334-5.844-0.12-13.83-18.87-26.09-19.48-37.606z"/>
		<path d="m638.03 735.95c3.67-13.973 20.918-18.653 21.619-36.451 0.55-13.956-12.883-16.693-19.427-6.724 0.171-8.638 2.66-21.778 2.66-21.778h-9.207s3.039 12.237 3.215 21.346c-5.585-9.692-18.435-6.505-18.335 5.924 0.12 13.83 18.87 26.17 19.49 37.68z"/>
	</g>
	<path d="m254.51 576.42c-8.682 33.045-49.472 44.115-51.13 86.207-1.301 33.008 30.471 38.461 45.947 14.878-0.407 20.428-6.294 50.491-6.294 50.491h21.774s-7.187-27.922-7.601-49.46c13.208 22.919 43.596 15.887 43.361-13.506-0.26-32.7-44.6-61.37-46.06-88.61z" clip-rule="evenodd" fill-rule="evenodd"/>
	<path d="m254.51 103.3c-8.682 33.044-49.472 44.114-51.13 86.206-1.301 33.007 30.471 38.026 45.947 14.443-0.407 20.427-6.294 50.056-6.294 50.056h21.774s-7.187-27.486-7.601-49.024c13.208 22.917 43.596 16.104 43.361-13.289-0.26-32.71-44.6-61.17-46.06-88.4z" clip-rule="evenodd" fill-rule="evenodd"/>
	<path d="m557.8 576.42c-8.682 33.045-49.471 44.115-51.13 86.207-1.301 33.008 30.472 38.461 45.947 14.878-0.407 20.428-6.294 50.491-6.294 50.491h21.773s-7.187-27.922-7.602-49.46c13.209 22.919 43.598 15.887 43.361-13.506-0.26-32.7-44.6-61.37-46.06-88.61z" clip-rule="evenodd" fill-rule="evenodd"/>
	<path d="m400.09 341.07c-8.682 33.044-49.472 44.115-51.13 86.206-1.301 33.008 30.471 38.138 45.947 14.556-0.41 20.42-6.3 50.16-6.3 50.16h21.774s-7.188-27.598-7.603-49.137c13.209 22.918 43.597 16.05 43.361-13.343-0.25-32.7-44.59-61.21-46.05-88.45z" clip-rule="evenodd" fill-rule="evenodd"/>
	<path d="m557.8 103.3c-8.682 33.044-49.471 44.114-51.13 86.206-1.301 33.007 30.472 38.026 45.947 14.443-0.407 20.427-6.294 50.056-6.294 50.056h21.773s-7.187-27.486-7.602-49.024c13.209 22.917 43.598 16.104 43.361-13.289-0.26-32.71-44.6-61.17-46.06-88.4z" clip-rule="evenodd" fill-rule="evenodd"/>

<metadata><rdfRDF><ccWork><dcFormat>image/svg+xml</dcFormat><dcType rdfResource="http://purl.org/dc/dcmitype/StillImage"/><ccLicense rdfResource="http://creativecommons.org/licenses/publicdomain/"/><dcPublisher><ccAgent rdfAbout="http://openclipart.org/"><dcTitle>Openclipart</dcTitle></ccAgent></dcPublisher></ccWork><ccLicense rdfAbout="http://creativecommons.org/licenses/publicdomain/"><ccPermits rdfResource="http://creativecommons.org/ns#Reproduction"/><ccPermits rdfResource="http://creativecommons.org/ns#Distribution"/><ccPermits rdfResource="http://creativecommons.org/ns#DerivativeWorks"/></ccLicense></rdfRDF></metadata></svg>
