<?xml version="1.0" encoding="UTF-8"?>
<svg enable-background="new 0 0 800 800" version="1.1" viewBox="0 0 800 800" xmlSpace="preserve" xmlns="http://www.w3.org/2000/svg" xmlnsCc="http://web.resource.org/cc/" xmlnsDc="http://purl.org/dc/elements/1.1/" xmlnsRdf="http://www.w3.org/1999/02/22-rdf-syntax-ns#">

	
		
			<path d="m118.87 799c-5.552 0-9.868-4.04-9.868-9.058v-776.42c0-5.013 4.32-9.52 9.87-9.52h564.6c5.55 0 10.53 4.507 10.53 9.525v776.42c0 5.018-4.977 9.058-10.528 9.058h-564.6z" fill="#fff"/>
			<path d="m683.51 8.033c3.879 0 6.488 2.147 6.488 5.492v776.42c0 3.345-2.649 7.058-6.528 7.058h-564.6c-3.879 0-7.868-3.713-7.868-7.058v-776.42c0-3.34 3.99-5.52 7.87-5.52h565.13m-0.53-6h-564.6c-7.24 0-13.87 4.824-13.87 11.525v776.42c0 6.7 6.631 13.058 13.868 13.058h564.6c7.235 0 12.528-6.357 12.528-13.058v-776.42c0-6.696-5.32-11.52-12.56-11.52h0.03z"/>
		
		
			<path d="m602.44 703h-408.6c-3.414 0-6.836-2.462-6.836-5.863v-592.02c0-3.401 3.423-6.118 6.836-6.118h408.6c3.46 0 6.563 2.773 6.563 6.118v592.02c0 3.34-3.1 5.86-6.56 5.86zm-408.6-602c-2.053 0-3.836 2.077-3.836 4.118v592.02c0 2.041 1.783 2.863 3.836 2.863h408.6c2.086 0 4.563-0.891 4.563-2.863v-592.02c0-1.973-2.477-4.118-4.563-4.118h-408.6z"/>
		
		
			<path d="m159 81.17c0 3.097-0.508 5.95-1.524 8.559s-2.42 4.853-4.209 6.731c-1.791 1.876-3.898 3.346-6.326 4.407-2.428 1.062-5.052 1.592-7.874 1.592-3.943 0-7-0.725-9.17-2.17-2.168-1.448-3.254-3.418-3.254-5.912 0-0.544 0.106-1.095 0.319-1.654 0.212-0.559 0.532-1.068 0.956-1.526 0.425-0.459 0.941-0.839 1.548-1.14s1.32-0.45 2.139-0.45c0.728 0 1.388 0.114 1.979 0.344 0.591 0.228 1.1 0.529 1.524 0.902 0.425 0.372 0.751 0.801 0.979 1.289 0.227 0.487 0.341 0.988 0.341 1.504s-0.212 1.06-0.637 1.633-0.638 1.118-0.638 1.635c0 0.772 0.41 1.36 1.229 1.762 0.819 0.4 1.866 0.601 3.141 0.601 1.82 0 3.329-0.329 4.528-0.988 1.198-0.66 2.153-1.585 2.867-2.774 0.712-1.189 1.213-2.623 1.501-4.3 0.289-1.678 0.433-3.534 0.433-5.569v-47.914c0-1.807-0.107-3.348-0.318-4.623-0.213-1.277-0.638-2.331-1.275-3.162-0.637-0.83-1.532-1.463-2.685-1.892-1.154-0.43-2.685-0.704-4.596-0.817-0.395 0-0.683-0.148-0.865-0.445-0.182-0.296-0.273-0.628-0.273-0.995 0-0.368 0.091-0.706 0.273-1.017s0.471-0.467 0.865-0.467c2.002 0 4.278 0.086 6.826 0.258 2.548 0.173 4.93 0.258 7.145 0.258 1.305 0 2.533-0.028 3.687-0.085 1.152-0.058 2.276-0.115 3.368-0.173 1.092-0.057 2.199-0.114 3.322-0.172 1.122-0.057 2.321-0.086 3.595-0.086 0.365 0 0.622 0.128 0.773 0.381 0.152 0.255 0.229 0.552 0.229 0.89 0 0.396-0.099 0.771-0.296 1.123-0.197 0.354-0.462 0.53-0.796 0.53-1.942 0.114-3.497 0.358-4.665 0.731s-2.056 0.954-2.663 1.742-1.009 1.828-1.206 3.118-0.31 2.925-0.31 4.903v43.437z"/>
		
		
			<path d="m636.84 728.73c0-3.097 0.51-5.949 1.526-8.559 1.018-2.608 2.42-4.853 4.209-6.731 1.79-1.876 3.899-3.346 6.325-4.407 2.43-1.062 5.053-1.592 7.875-1.592 3.942 0 7 0.725 9.169 2.17 2.169 1.448 3.255 3.418 3.255 5.912 0 0.544-0.106 1.095-0.318 1.654-0.214 0.559-0.531 1.067-0.956 1.525-0.426 0.46-0.941 0.839-1.548 1.14s-1.32 0.45-2.139 0.45c-0.728 0-1.389-0.114-1.98-0.344-0.59-0.229-1.1-0.529-1.523-0.903-0.426-0.371-0.751-0.801-0.979-1.288s-0.341-0.988-0.341-1.505 0.214-1.06 0.638-1.633c0.425-0.573 0.638-1.118 0.638-1.635 0-0.772-0.41-1.359-1.23-1.762-0.818-0.4-1.865-0.601-3.139-0.601-1.822 0-3.329 0.329-4.528 0.988-1.198 0.66-2.154 1.585-2.867 2.774s-1.214 2.623-1.502 4.301c-0.289 1.678-0.433 3.534-0.433 5.569v47.911c0 1.807 0.106 3.349 0.319 4.622 0.212 1.278 0.637 2.331 1.273 3.162 0.638 0.83 1.532 1.464 2.686 1.893 1.153 0.43 2.685 0.704 4.596 0.817 0.395 0 0.684 0.148 0.865 0.445s0.272 0.628 0.272 0.995c0 0.368-0.091 0.706-0.272 1.017s-0.471 0.467-0.865 0.467c-2.002 0-4.278-0.087-6.826-0.258-2.549-0.174-4.931-0.259-7.146-0.259-1.304 0-2.533 0.028-3.687 0.085-1.152 0.059-2.275 0.116-3.368 0.174-1.092 0.057-2.197 0.113-3.322 0.171-1.121 0.057-2.32 0.087-3.593 0.087-0.366 0-0.624-0.128-0.775-0.382-0.152-0.255-0.228-0.552-0.228-0.89 0-0.396 0.099-0.771 0.296-1.123 0.198-0.353 0.463-0.529 0.796-0.529 1.943-0.113 3.497-0.357 4.666-0.73 1.168-0.374 2.056-0.954 2.662-1.742 0.607-0.787 1.008-1.828 1.205-3.118 0.198-1.29 0.295-2.925 0.295-4.903v-43.47z"/>
		
		
			<polygon points="355.66 539.38 384.55 487.82 426.98 518.02 430 516.96 430 507.62 433.08 504.14 452.32 505.58 449.44 473.53 443.75 401.04 442.91 377.63 446.2 366.07 448.24 362 462.96 354.75 472.4 350.5 469.7 336.09 470.74 323.82 447.38 265.3 434.14 263.85 406.64 311 347.91 260.96 340.26 265.3 340.06 283.5 348.74 374.27 349.36 404.05 346.47 425.56 342.54 434.66 335.5 442.1 321.03 448.72 326.2 468.16 336.95 511.79" fill="#FF841F"/>
			
				
					<path d="m411.47 316.06c0.224-0.042 0.236-0.389 0.355-0.583 17.354-28.438 30.131-52.284 30.31-52.618l-8.68-4.639c-0.176 0.33-12.602 23.517-29.534 51.317-0.17 0.281-0.58 0.521-0.513 0.844 0.81 3.96 3.55 6.55 8.06 5.68z" fill="#FDCB45"/>
					<path d="m409.8 317.44c-3.876 0-6.71-2.548-7.58-6.817-0.17-0.829 0.366-1.399 0.595-1.643 0.032-0.033 0.064-0.066 0.091-0.101 17.058-28.009 29.36-51.004 29.479-51.229l0.57-1.073 10.823 5.785-0.573 1.07c-0.526 0.984-13.1 24.421-30.344 52.677-0.066 0.233-0.32 0.982-1.163 1.143-0.66 0.13-1.3 0.19-1.91 0.19zm-5.12-6.91c0.456 1.835 1.703 4.484 5.115 4.484 0.3 0 0.612-0.021 0.932-0.062 0.018-0.036 0.038-0.07 0.06-0.105 15.361-25.173 27.003-46.502 29.7-51.49l-6.541-3.496c-2.625 4.857-13.969 25.642-28.991 50.309-0.09 0.16-0.18 0.28-0.28 0.37z"/>
				
			
			
				
					<path d="m360.17 552.66-16.209-22.711c42.21-30.129 95.747-29.202 98.001-29.151l-0.642 27.895c-0.46 0.01-46.66-0.65-81.15 23.96z"/>
				
				
					<path d="m357.35 548.71-10.573-14.811c40.907-29.199 92.871-28.293 95.067-28.249l-0.437 18.192 0.218-9.097-0.207 9.097c-0.48 0-48.2-0.73-84.07 24.87z" fill="#FDCB45"/>
				
				
					<path d="m355.59 546.24-7.049-9.874c40.096-28.619 91.077-27.728 93.233-27.687l-0.288 12.129c-0.47 0-49.16-0.78-85.89 25.43z" fill="#C60101"/>
				
			
			
				
					<path d="m378.22 484.81c-0.224 0.042-0.237 0.388-0.355 0.582-17.354 28.438-30.131 52.284-30.31 52.618l8.681 4.64c0.175-0.329 12.601-23.517 29.532-51.317 0.171-0.281 0.581-0.521 0.514-0.844-0.8-3.95-3.54-6.54-8.05-5.68z" fill="#FDCB45"/>
					<path d="m356.73 544.3-10.822-5.786 0.573-1.069c0.526-0.984 13.1-24.421 30.343-52.678 0.066-0.232 0.32-0.981 1.164-1.144 4.786-0.916 8.473 1.691 9.478 6.631 0.171 0.829-0.365 1.398-0.594 1.643-0.032 0.033-0.065 0.066-0.091 0.101-17.058 28.009-29.36 51.005-29.48 51.229l-0.57 1.08zm-7.53-6.78 6.542 3.496c2.625-4.857 13.968-25.642 28.99-50.309 0.088-0.144 0.185-0.263 0.275-0.361-0.456-1.835-1.704-4.484-5.116-4.484-0.298 0-0.611 0.021-0.931 0.062-0.018 0.036-0.038 0.07-0.06 0.106-15.35 25.16-26.99 46.49-29.69 51.48z"/>
				
			
			
				
					<path d="m349.12 300.09c-0.749 0-1.222-0.01-1.395-0.013l0.642-27.896c0.468 1e-3 46.666 0.647 81.15-23.967l16.209 22.711c-38.97 27.82-87.6 29.17-96.6 29.17z"/>
				
				
					<path d="m349.2 295.24c-0.727 0-1.188-0.01-1.356-0.013l0.436-18.193-0.218 9.097 0.208-9.097c0.479 2e-3 48.204 0.731 84.069-24.868l10.572 14.812c-37.77 26.95-84.96 28.26-93.71 28.26z" fill="#FDCB45"/>
				
				
					<path d="m349.25 292.21c-0.716 0-1.168-8e-3 -1.334-0.012l0.287-12.129c0.491 0.024 49.168 0.787 85.897-25.431l7.049 9.873c-37.03 26.42-83.32 27.7-91.91 27.7z" fill="#C60101"/>
				
			
			
				
					<path d="m367.15 464.66c39.427 29.952 81.015 68.226 81.407 68.593l-1.777 11.674c-0.385-0.363-46.586-42.806-85.584-72.43l5.95-7.83z" fill="#FDCB45"/>
					<path d="m447.63 547.4-1.684-1.592c-0.493-0.461-46.32-42.593-85.484-72.346l-0.967-0.734 7.422-9.768 0.965 0.733c39.245 29.814 81.126 68.322 81.504 68.676l0.464 0.437-2.21 14.59zm-84.73-75.13c34.772 26.521 74.442 62.395 83.027 70.229l1.337-8.785c-4.652-4.267-43.15-39.346-79.879-67.349l-4.49 5.9z"/>
				
			
			
				
					<path d="m392.71 434.37c38.457 31.191 78.808 70.767 79.187 71.146l-2.147 11.61c-0.374-0.377-45.204-44.264-83.239-75.113l6.2-7.65z" fill="#FDCB45"/>
					<path d="m470.52 519.62-1.63-1.642c-0.405-0.404-44.937-44.037-83.145-75.028l-0.941-0.765 7.728-9.527 0.941 0.765c38.622 31.325 78.922 70.871 79.281 71.232l0.451 0.451-2.68 14.52zm-82.3-77.79c33.865 27.576 72.417 64.726 80.754 72.834l1.615-8.74c-4.501-4.401-41.701-40.554-77.7-69.854l-4.66 5.76z"/>
				
			
			
				
					<path d="m388.77 442.01c39.427 29.952 74.01 67.307 74.4 67.674l-11.77 26.9c-0.385-0.363-50.114-44.775-89.113-74.4l26.48-20.17z" fill="#C60101"/>
					
						<path d="m451.82 538.65-1.249-1.181c-0.545-0.498-50.164-44.805-89.018-74.322l-1.27-0.964 28.483-21.702 0.734 0.559c34.521 26.224 65.473 58.197 74.137 67.374 0.214 0.228 0.344 0.364 0.384 0.404l0.577 0.585-0.319 0.764-12.45 28.49zm-87.53-76.47c35.211 26.876 78.724 65.31 86.67 72.381l10.774-24.632c-8.757-9.264-39.072-40.534-72.965-66.4l-24.47 18.65z"/>
					
				
			
			
				
					<path d="m422.54 336.22c-39.428-29.954-81.016-68.227-81.407-68.594l1.777-11.673c0.385 0.364 46.586 42.805 85.584 72.43l-5.95 7.83z" fill="#FDCB45"/>
					<path d="m422.77 337.92-0.967-0.734c-39.244-29.814-81.126-68.322-81.503-68.676l-0.464-0.436 2.222-14.594 1.684 1.591c0.414 0.389 46.287 42.568 85.484 72.346l0.967 0.733-7.42 9.77zm-80.35-70.75c4.651 4.267 43.15 39.346 79.878 67.349l4.485-5.905c-34.772-26.521-74.442-62.396-83.027-70.23l-1.33 8.78z"/>
				
			
			
				
					<path d="m396.98 366.51c-38.456-31.191-78.808-70.767-79.187-71.147l2.147-11.61c0.374 0.377 45.204 44.264 83.24 75.114l-6.2 7.65z" fill="#FDCB45"/>
					<path d="m397.16 368.22-0.942-0.764c-38.622-31.325-78.92-70.871-79.282-71.233l-0.449-0.451 2.683-14.513 1.633 1.642c0.403 0.403 44.935 44.036 83.144 75.027l0.941 0.764-7.72 9.52zm-78.06-73.27c4.501 4.402 41.702 40.554 77.7 69.854l4.67-5.76c-33.865-27.576-72.417-64.726-80.754-72.834l-1.62 8.74z"/>
				
			
			
				<path d="m608.1 265.48c-78.732-45.927-158.59-23.519-162.64-21.747 43.754 106.83 80.66 158.5 80.66 158.5s-54.221 62.901-90.483 151.45c4.04 1.772 123.89-30.672 123.89-30.672l48.02-68.627c0.01 0 1.78-164.71 0.55-188.9z" fill="#C60101"/>
				
					<path d="m436.21 555h-2e-3c-0.455 0-0.78-0.07-1.05-0.189l-1.084-0.483 0.449-1.1c33.862-82.689 83.987-143.8 90.077-151.06-4.735-6.874-39.795-59.183-80.254-157.97l-0.45-1.097 1.085-0.475c2.128-0.933 23.351-7.116 54.424-7.116 27.243 0 68.324 5.018 109.31 28.927l0.566 0.331 0.032 0.655c1.222 23.955-0.527 187.33-0.545 188.98l-5e-3 0.375-48.486 69.294-0.425 0.131c-4.65 1.25-113.83 30.8-123.65 30.8zm10.86-310.55c42.98 104.66 79.675 156.56 80.042 157.08l0.554 0.775-0.622 0.723c-0.537 0.623-53.815 62.959-89.581 149.42 14.979-1.803 113.96-28.501 121.33-30.49l47.554-67.957c0.093-8.732 1.701-162.35 0.576-187.8-40.328-23.35-80.7-28.266-107.52-28.266-27.24 0.01-47.23 4.94-52.33 6.53z"/>
				
			
			
				
					<path d="m400.92 358.87c-39.428-29.952-74.011-67.308-74.4-67.674l11.768-26.903c0.384 0.364 50.114 44.775 89.113 74.402l-26.48 20.17z" fill="#C60101"/>
					
						<path d="m400.92 360.4-0.735-0.56c-34.521-26.222-65.472-58.197-74.136-67.372-0.214-0.228-0.344-0.365-0.384-0.405l-0.578-0.585 0.32-0.763 12.458-28.483 1.253 1.184c0.406 0.375 50.107 44.762 89.014 74.318l1.27 0.964-28.47 21.7zm-72.96-69.46c8.756 9.265 39.073 40.535 72.966 66.401l24.479-18.651c-35.211-26.877-78.724-65.311-86.67-72.382l-10.78 24.63z"/>
					
				
			
			<path d="m341.12 291.34c0.151-1.292 0.031-2.645-0.313-3.844-0.911 2.454-4.294 3.351-6.876 4.177 5.2 8.317 3.151 20.043-7.945 22.145 4.138 10.162 3.556 20.848-7.357 25.997-2.587 1.221-4.777 2.261-7.738 1.915 6.634 8.983 0.247 19.383-8.457 24.248-2.192 1.226-4.114 1.669-6.632 1.989 2.737 3.571 6.668 6.778 7.355 11.386 0.925 6.199-2.44 11.911 5.883 14.109 9.39 2.481 19.205-3.511 28.548-3.682 4.462-0.081 8.908 2.605 11.288-2.305 2.458-5.072-1.515-12.878-2.086-18.063-0.585-5.303 0.128-10.658-0.384-15.991-1.014-10.556-2.817-21.245-3.352-31.812-0.564-11.137 1.291-23.369-1.63-34.213" fill="#fff"/>
			
				<path d="m423.11 358.76 48.074-49.313-18.894-17.618-100.97 102.3 15.454 23.551c-6.158 6.022-8.374 16.166-0.197 24.434l-48.075 49.313 18.894 17.618 100.96-102.3-15.454-23.551c6.17-6.02 8.38-16.16 0.21-24.43zm-28.56 54.67-10.96-14.134 11.557-11.854 10.96 14.134-11.56 11.85z" fill="#FDCB45"/>
				<path d="m337.44 510.74-20.664-19.269 48.129-49.37c-3.211-3.597-4.883-7.76-4.846-12.106 0.037-4.453 1.914-8.942 5.176-12.459l-15.458-23.557 102.48-103.84 20.663 19.268-48.13 49.37c3.211 3.597 4.883 7.76 4.847 12.106-0.037 4.454-1.914 8.942-5.176 12.46l15.458 23.557-102.48 103.84zm-17.2-19.35 17.125 15.968 99.447-100.77-15.466-23.566 0.714-0.698c3.236-3.165 5.112-7.343 5.147-11.466 0.034-4.04-1.683-7.931-4.963-11.248l-0.838-0.847 48.04-49.277-17.125-15.968-99.445 100.76 15.465 23.567-0.714 0.697c-3.236 3.164-5.112 7.343-5.147 11.466-0.034 4.039 1.683 7.931 4.963 11.248l0.837 0.847-48.04 49.29zm74.2-76.11-12.461-16.069 13.267-13.608 12.461 16.07-13.27 13.61zm-9.25-15.89 9.459 12.197 9.848-10.101-9.459-12.197-9.85 10.1z"/>
			
			
				
					<path d="m370.81 578.81c7.453-5.688 2.279-15.563-5.75-16.386-2.351-3.196 4.11-18.017-6.948-19.211 7.776-7.951 7.346-20.575-3.808-21.698 9.589-10.608-1.824-24.731-13.904-20.285 8.675-11.66 1.541-25.127-14.211-22.518 5.684-9.978 2.058-17.457-9.125-16.636 4.445-5.041 3.177-25.708-17.735-26.105 10.261-13.727-11.668-20.322-14.437-18.521 26.604-16.354-1.69-23.405-1.69-23.405 23.065 2.251 24.12-15.757 12.806-25.872 11.212-0.387 24.242-17.163 14.863-26.796 21.417-2.348 21.203-18.885 15.174-27.713 10.477-0.829 15.643-16.184 8.108-21.515 11.378-3.782 14.193-16.46 7.738-23.673 5.388-2.065 6.838-4.083 4.921-9.2 0 0-4.731-3.031-4.967-6.391-0.13-1.649-0.294-0.378-0.294-0.378l-2.487-3.198s-53.407 118.77-86.771 152.51c21.527 27.68 94.109 139.4 94.109 139.4l20.031 50.944 5.463 1.439c4.7-3.34 6.47-14.1-1.07-14.78z" fill="#fff"/>
					<path d="m372.14 594.92-6.611-1.742-20.211-51.401c-2.569-3.95-73.016-112.25-93.983-139.21l-0.653-0.841 0.749-0.757c32.83-33.201 85.994-150.97 86.527-152.15l0.827-1.838 2.999 3.856c1.121 0.066 1.218 1.293 1.271 1.961 0.159 2.269 3.239 4.712 4.413 5.465l0.339 0.218 0.143 0.378c2.122 5.664 0.197 8.189-4.109 10.132 2.512 3.571 3.313 8.166 2.131 12.606-1.302 4.896-4.735 8.811-9.549 10.977 2.409 2.721 3.166 6.831 1.959 11.217-1.274 4.633-4.911 9.491-10.354 10.792 2.499 4.508 4.075 11.178 1.266 17.283-1.801 3.917-6.062 8.77-16.111 10.428 2.493 3.631 2.814 8.168 0.869 13.006-2.708 6.737-9.15 12.338-15.436 13.754 4.955 5.405 6.886 12.284 4.805 17.731-1.123 2.942-4.344 7.694-13.477 8.543 3.362 1.711 6.893 4.369 7.476 8.131 0.622 4.009-2.227 8.295-8.476 12.773 4.466 0.864 10.866 3.749 13.317 8.643 1.109 2.214 1.771 5.652-0.75 10.005 10.864 0.963 15.354 7.469 17.094 11.425 2.331 5.297 2.14 11.002 0.63 14.512 4.531 0.12 7.938 1.772 9.63 4.683 1.772 3.047 1.566 7.162-0.549 11.745 7.205-0.538 12.967 2.29 15.611 7.551 2.182 4.344 1.835 9.606-0.855 14.524 6.131-0.859 12.388 2.654 14.892 8.289 1.938 4.364 1.401 9.031-1.434 13.07 3.597 0.902 6.18 3.136 7.376 6.433 1.69 4.653 0.28 10.599-3.499 15.341 6.354 1.99 5.821 9.205 5.458 14.134-0.131 1.781-0.277 3.766-7e-3 4.729 4.417 0.723 8.229 4.006 9.406 8.183 0.893 3.163 0.165 6.23-1.996 8.687 1.774 0.766 3.011 2.23 3.57 4.275 1.123 4.124-0.815 9.68-4.236 12.134l-0.47 0.35zm-4.8-3.77 4.283 1.129c2.325-2.025 3.682-6.23 2.877-9.183-0.507-1.857-1.785-2.892-3.797-3.073l-3.107-0.281 2.48-1.892c3.6-2.747 3.334-6.001 2.858-7.696-0.975-3.454-4.263-6.135-7.997-6.517l-0.535-0.056-0.318-0.433c-1.03-1.4-0.855-3.758-0.635-6.743 0.487-6.617 0.381-11.351-5.465-11.981l-2.484-0.268 1.748-1.786c4.131-4.225 5.932-10.159 4.381-14.434-1.101-3.028-3.674-4.831-7.444-5.209l-2.387-0.241 1.61-1.78c3.291-3.641 4.145-8.058 2.341-12.117-1.855-4.176-6.164-6.982-10.722-6.982-1.409 0-2.823 0.259-4.206 0.767l-3.825 1.409 2.434-3.271c3.618-4.866 4.49-10.335 2.332-14.63-2.434-4.843-8.278-7.141-15.371-5.969l-2.513 0.418 1.26-2.215c2.598-4.562 3.193-8.716 1.632-11.401-1.489-2.563-4.833-3.775-9.614-3.424l-2.965 0.218 1.967-2.229c2.017-2.288 2.607-8.6 0.23-14-1.977-4.493-6.545-9.891-17.08-10.09l-2.364-0.046 1.417-1.894c2.539-3.396 3.122-6.522 1.735-9.292-2.458-4.905-10.336-7.581-13.695-7.581-0.645 0-0.855 0.102-0.857 0.104l-1.31-2.041c9e-3 -6e-3 0.018-0.011 0.026-0.017 5e-3 -4e-3 0.01-6e-3 0.014-9e-3 7.609-4.692 11.304-9.03 10.753-12.585-0.739-4.763-8.996-7.825-12.116-8.602l0.411-2.385c9.344 0.916 15.81-1.618 17.837-6.927 1.928-5.051-0.521-11.973-5.958-16.834l-2.251-2.013 3.019-0.103c6.029-0.208 13.133-5.849 15.836-12.574 1.096-2.727 2.319-7.931-1.801-12.164l-1.734-1.781 2.471-0.271c8.31-0.911 13.965-4.136 16.353-9.327 2.563-5.57 0.818-12.298-2.048-16.495l-1.181-1.729 2.086-0.166c5.319-0.421 8.902-4.982 10.094-9.315 0.909-3.305 0.706-7.667-2.591-10l-1.958-1.384 2.276-0.757c5.011-1.665 8.604-5.322 9.857-10.033 1.121-4.214 0.134-8.58-2.64-11.679l-1.174-1.312 1.643-0.63c4.891-1.875 5.775-3.277 4.353-7.28-1.189-0.823-4.656-3.476-5.132-6.704l-1.339-1.722c-6.871 15.052-54.551 118.16-85.44 150.27 22.085 28.749 92.804 137.54 93.522 138.65l0.111 0.217 19.79 50.34z"/>
				
				
					<path d="m322.63 449.95-0.9-2.253c31.28-12.5 29.639-31.078 20.536-134.17-0.702-7.931-1.445-16.357-2.222-25.319l2.417-0.208c0.776 8.959 1.52 17.384 2.221 25.313 9.23 104.62 10.9 123.47-22.06 136.64z"/>
				
				
					<path d="m319.97 439.98-1.1-2.164c0.749-0.38 1.48-0.745 2.195-1.101 17.553-8.748 24.122-12.021 10.909-124.89l2.41-0.282c13.412 114.56 6.428 118.04-12.237 127.34-0.7 0.35-1.43 0.71-2.17 1.09z"/>
				
				
					<path d="m317.48 429.45-0.795-2.293c14.55-5.042 16.47-26.448 8.214-91.613l2.407-0.306c8.45 66.66 6.16 88.67-9.82 94.21z"/>
				
				
					<path d="m314.9 418.78-0.889-2.259c8.934-3.517 5.646-47.045 1.254-75.445l2.398-0.369c1.16 7.43 10.84 72.72-2.76 78.07z"/>
				
				
						<rect transform="matrix(.2373 .9714 -.9714 .2373 642.43 12.568)" x="263.88" y="414.21" width="98.671" height="2.426"/>
				
				
						<rect transform="matrix(.2426 .9701 -.9701 .2426 632.73 19.962)" x="279.89" y="413.97" width="47.374" height="2.426"/>
				
				
					<rect transform="matrix(.2307 .973 -.973 .2307 630 33.543)" x="290.11" y="413.97" width="7.364" height="2.426"/>
				
				
					<path d="m311.07 401.66-2.318-0.713c2.576-8.373-0.316-29.546-1.679-38.26l2.396-0.375c1.72 11.02 4.22 30.8 1.6 39.34z"/>
				
			
			<path d="m424 229.42c-0.827-14.724-9.304-29.936-16.295-42.497-6.861-12.326-14.845-26.453-25.808-35.693-7.959-6.708-12.264-0.386-21.114-1.395-5.836-0.666-12.027-2.572-13.774 3.824l0.014-2.177c-0.039 0.796-0.068 1.64-0.091 2.509-0.059 0.251-0.128 0.487-0.175 0.763-0.417 2.429-0.217 5.118-0.074 7.75-0.262 5.099-0.895 10.27-2.781 14.137-3.343 6.858-23.786 20.876-17.511 26.572 5.05 4.584 7.065 2.559 10.913 1.609l0.071 0.081c0.335 1.243 1.102 2.087 2.033 3.178 1.75 4.752-2.712 8.353-3.654 10.817-0.68 1.78 0.925 3.041 3.711 3.989l-1.974-0.362c-5.111 7.461 1.368 6.516 4.205 12.024 2.539 4.93-7.322 17.19-2.314 19.16 31.343 12.321 63.729-3.638 76.565-12.326 0.446-0.061 0.919-0.153 1.43-0.359 5.57-2.25 6.97-5.22 6.61-11.6zm-86.7-24.6c0.016-5e-3 0.033-7e-3 0.05-0.012 6e-3 0.028 9e-3 0.061 0.018 0.088-0.03-0.03-0.05-0.06-0.07-0.08z" fill="#fff"/>
			
				<path d="m415.34 593.6 5.465-1.439 20.03-50.944s72.581-111.72 94.109-139.4c-33.363-33.741-86.772-152.51-86.772-152.51l-3.019 8.375-4.728 1.592c-1.917 5.118-0.467 7.135 4.92 9.2-6.455 7.213-3.639 19.892 7.738 23.673-7.533 5.331-2.368 20.686 8.108 21.515-6.029 8.828-6.242 25.365 15.175 27.713-9.379 9.634 3.651 26.41 14.864 26.796-11.314 10.115-10.262 28.123 12.805 25.872 0 0-28.294 7.052-1.691 23.405-2.769-1.802-24.697 4.794-14.436 18.521-20.914 0.397-22.182 21.064-17.735 26.105-11.184-0.821-13.626 10.35-7.942 20.327-15.752-2.608-19.998 12.603-11.324 24.264-12.079-4.446-21.72 6.374-12.131 16.983-11.153 1.122-14.648 7.819-6.874 15.771-11.058 1.194-18.507 17.427-9.724 23.002-8.03 0.823-13.205 10.698-5.751 16.386-7.54 0.7-5.77 11.46-1.09 14.81z" fill="#fff"/>
				<path d="m415.1 594.92-0.464-0.333c-3.419-2.455-5.358-8.011-4.233-12.134 0.558-2.045 1.795-3.51 3.567-4.275-2.159-2.456-2.888-5.523-1.996-8.686 1.011-3.584 3.96-6.511 7.566-7.726-2.204-2.472-2.971-6.034-2.052-9.976 1.254-5.377 5.806-11.403 12.092-13.152-2.754-3.404-3.696-6.773-2.658-9.636 1.149-3.164 4.51-5.348 9.561-6.256-2.879-3.973-3.604-8.222-1.972-11.901 1.758-3.958 5.94-6.415 10.914-6.415 0.905 0 1.821 0.08 2.743 0.24-3.242-5.761-3.831-12.171-1.409-16.995 2.365-4.707 7.134-7.142 13.359-6.736-2.559-5.567-2.768-11.24-0.465-15.203 1.692-2.91 4.642-4.621 8.37-4.881-1.527-3.504-1.731-9.237 0.609-14.557 1.742-3.955 6.232-10.463 17.096-11.426-2.521-4.353-1.859-7.792-0.751-10.007 2.452-4.892 8.853-7.776 13.319-8.641-6.253-4.482-9.1-8.767-8.478-12.773 0.584-3.762 4.115-6.42 7.478-8.131-9.134-0.849-12.354-5.601-13.477-8.543-2.081-5.447-0.15-12.327 4.804-17.731-6.286-1.417-12.729-7.017-15.436-13.754-1.944-4.837-1.624-9.375 0.869-13.006-10.05-1.658-14.31-6.511-16.113-10.428-2.808-6.105-1.231-12.775 1.268-17.283-5.442-1.302-9.08-6.158-10.354-10.792-1.206-4.386-0.449-8.497 1.96-11.218-4.813-2.166-8.246-6.08-9.549-10.978-1.181-4.439-0.381-9.035 2.131-12.605-4.305-1.943-6.228-4.468-4.106-10.132l0.201-0.54 4.719-1.59 3.839-10.645 1.229 2.735c0.533 1.187 53.7 118.95 86.529 152.15l0.749 0.757-0.654 0.841c-20.969 26.96-91.415 135.26-93.983 139.21l-20.211 51.401-6.63 1.76zm30.32-88.06c-4.002 0-7.334 1.907-8.696 4.976-1.465 3.3-0.39 7.312 2.95 11.007l1.61 1.781-2.388 0.239c-5.207 0.524-8.741 2.337-9.698 4.973-0.869 2.396 0.398 5.5 3.569 8.743l1.748 1.787-2.484 0.268c-6.3 0.68-10.979 6.542-12.186 11.713-0.924 3.967 0.161 7.27 2.981 9.061l2.951 1.873-3.478 0.357c-3.734 0.382-7.023 3.063-7.996 6.519-0.478 1.693-0.742 4.948 2.857 7.694l2.48 1.892-3.108 0.281c-2.013 0.182-3.289 1.216-3.796 3.073-0.807 2.951 0.552 7.157 2.876 9.183l4.283-1.129 19.919-50.589c0.719-1.107 71.436-109.9 93.521-138.65-30.339-31.545-76.879-131.58-85.036-149.39l-2.208 6.123-4.728 1.593c-1.334 3.869-0.404 5.256 4.412 7.104l1.645 0.63-1.175 1.312c-2.772 3.099-3.759 7.465-2.638 11.679 1.253 4.71 4.845 8.367 9.855 10.033l2.275 0.757-1.957 1.384c-3.296 2.333-3.499 6.695-2.591 10 1.192 4.333 4.775 8.894 10.094 9.314l2.087 0.166-1.181 1.729c-2.867 4.196-4.61 10.923-2.048 16.495 2.389 5.191 8.043 8.417 16.352 9.327l2.472 0.271-1.734 1.781c-4.118 4.233-2.895 9.437-1.799 12.164 2.703 6.725 9.809 12.366 15.836 12.574l3.019 0.103-2.251 2.013c-5.436 4.86-7.885 11.782-5.956 16.834 2.026 5.31 8.484 7.843 17.834 6.927l0.411 2.384c-3.12 0.781-11.382 3.851-12.116 8.604-0.55 3.561 3.159 7.905 10.727 12.564l-1.23 2.093c-0.014-8e-3 -0.224-0.111-0.87-0.111-3.358 0-11.237 2.675-13.694 7.581-1.388 2.769-0.803 5.896 1.736 9.292l1.416 1.894-2.365 0.046c-10.534 0.199-15.104 5.598-17.08 10.092-2.377 5.399-1.785 11.71 0.231 13.998l1.969 2.229-2.967-0.218c-3.918-0.285-6.784 0.997-8.336 3.669-2.124 3.652-1.521 9.481 1.536 14.849l1.262 2.214-2.513-0.418c-6.173-1.018-10.955 0.877-13.109 5.165-2.407 4.787-1.245 11.529 2.956 17.179l2.433 3.27-3.823-1.407c-1.7-0.56-3.41-0.88-5.06-0.88z"/>
			
			<path d="m425.35 244.57c4.721 6.627 7.441 18.01 14.552 22.683 5.296 3.48 16.995 4.744 22.704 1.772 3.604-1.876 5.584-5.391 7.42-8.888 5.588 10.655 27.273 5.55 33.425-2.262 2.479-3.153 2.93-7.007 2.89-10.904 14.686-0.494 29.812-5.496 28.938-22.994-0.611-12.233-11.65-28.669-25.627-26.893-6.173 0.783-10.553 5.732-14.108 10.406-1.533-2.58-2.616-5.428-3.695-8.26l-21.807-47.751-98.107 0.307 53.43 92.77z" fill="#FDCB45"/>
			
				<path d="m451.54 272.04c-11.101 1e-3 -18.14-9.84-22.659-17.78-0.563-0.992-57.248-100.58-57.999-101.86-0.341-0.576-0.15-1.319 0.427-1.661 0.576-0.342 1.32-0.151 1.661 0.427 0.785 1.325 57.457 100.9 58.019 101.89 5.263 9.244 12.934 19.402 25.646 15.811 10.339-2.917 13.284-9.972 13.932-15.376 1.18-9.833-4.518-21.591-12.699-26.208-3.639-2.057-9.264-3.503-15.381 1.268-5.097 3.977-5.768 10.584-4.175 15.369 1.823 5.472 6.218 8.804 11.756 8.911 4.083 0.094 6.532-1.33 6.913-3.966 0.385-2.666-1.484-6-3.704-6.609-2.303-0.637-3.853 2.203-4.571 3.948-0.257 0.619-0.967 0.91-1.585 0.659-0.619-0.256-0.915-0.966-0.659-1.585 2.478-6.004 6.037-5.752 7.457-5.361 3.426 0.938 6.029 5.368 5.463 9.295-0.265 1.835-1.673 6.049-8.983 6.049-0.124 0-0.25-1e-3 -0.375-3e-3 -6.514-0.126-11.883-4.176-14.013-10.57-2.239-6.722-0.237-13.975 4.984-18.048 5.595-4.367 12.012-4.886 18.067-1.469 8.958 5.056 15.199 17.892 13.914 28.611-1.041 8.675-6.611 14.863-15.683 17.423-2.04 0.57-3.96 0.83-5.77 0.83z"/>
			
			
				<path d="m484.54 267.93c-4.454 1e-3 -8.947-1.271-12.889-3.929-0.859-0.579-1.667-1.19-2.555-1.872-0.532-0.408-0.633-1.169-0.226-1.701 0.408-0.532 1.169-0.631 1.701-0.225 0.857 0.658 1.633 1.245 2.435 1.787 9.394 6.33 22.283 3.879 28.729-5.464 3.479-5.047 4.607-12.75 2.945-20.102-1.499-6.636-5.049-11.992-9.741-14.694-4.477-2.579-9.627-2.701-14.128-0.338-4.566 2.398-7.546 6.924-7.97 12.105-0.386 4.75 2.312 11.726 6.368 13.603 2.297 1.063 4.75 0.314 7.289-2.223 2.259-2.259 1.483-4.625 1.047-5.538-0.755-1.575-2.2-2.592-3.457-2.48-1.271 0.14-2.273 1.517-2.821 3.875-0.152 0.653-0.805 1.066-1.457 0.907-0.652-0.152-1.06-0.804-0.907-1.456 1.081-4.64 3.548-5.586 4.922-5.736 2.279-0.258 4.703 1.329 5.909 3.841 1.377 2.872 0.808 5.976-1.521 8.303-4.15 4.152-7.739 3.765-10.024 2.71-5.15-2.384-8.226-10.347-7.764-16.002 0.488-6.016 3.95-11.27 9.258-14.057 5.255-2.757 11.257-2.618 16.468 0.384 5.275 3.04 9.248 8.966 10.896 16.26 1.808 7.993 0.536 16.428-3.313 22.014-4.51 6.53-11.81 10.04-19.21 10.04z"/>
			
			
				<path d="m511.3 229.05c-0.363 0-0.726-0.028-1.089-0.083-2.507-0.382-4.954-2.087-6.89-4.803-3.067-4.303-32.232-66.638-34.412-72.243-0.244-0.625 0.066-1.327 0.691-1.569 0.624-0.248 1.327 0.066 1.568 0.69 2.058 5.287 31.271 67.707 34.129 71.715 1.551 2.175 3.425 3.529 5.279 3.811 1.413 0.212 2.815-0.194 4.164-1.217 3.894-2.955 2.578-9.042 0.746-12.616-0.999-1.95-3.47-3.731-5.738-3.731h-0.054c-1.354 0-2.429 0.541-3.193 2.146-0.881 1.851 0.463 5.935 2.283 7.041 0.319 0.196 1.07 0.579 2.218-0.937 0.404-0.531 1.165-0.675 1.698-0.27 0.534 0.405 0.64 1.146 0.234 1.681-1.547 2.039-3.57 2.581-5.412 1.458-2.883-1.754-4.624-7.333-3.212-10.298 1.162-2.438 3.062-3.82 5.35-3.82h0.088c3.348 0 6.561 2.729 7.896 5.338 2.645 5.153 3.32 12.337-1.438 15.95-1.55 1.16-3.23 1.75-4.92 1.76z"/>
			
			
				<path d="m514.64 248.61c-1.864 0-3.736-0.122-5.587-0.243-0.731-0.047-1.46-0.095-2.177-0.133-0.67-0.037-1.183-0.607-1.146-1.277 0.036-0.668 0.61-1.194 1.276-1.147 0.728 0.041 1.462 0.087 2.203 0.136 4.941 0.321 10.052 0.654 14.374-1.521 5.297-2.665 8.885-8.483 9.842-15.964 1.147-8.953-1.744-18.183-7.19-22.968-5.448-4.784-11.973-6.992-17.453-5.906-4.299 0.852-7.749 3.686-9.979 8.197-0.297 0.6-1.026 0.846-1.625 0.549-0.6-0.296-0.847-1.024-0.55-1.625 2.575-5.212 6.615-8.498 11.682-9.501 6.216-1.23 13.516 1.185 19.526 6.464 6.027 5.293 9.241 15.38 7.996 25.098-1.062 8.294-5.129 14.792-11.158 17.824-3.17 1.6-6.58 2.01-10.02 2.01z"/>
			
			
				<path d="m428.52 228.66c-0.439 0-0.864-0.24-1.08-0.658l-39.366-76.581c-0.305-0.596-0.071-1.327 0.525-1.634 0.596-0.306 1.326-0.071 1.634 0.524l39.366 76.581c0.305 0.596 0.07 1.327-0.525 1.634-0.18 0.09-0.37 0.14-0.56 0.14z"/>
			
			
				<path d="m441.95 227.94c-0.434 0-0.854-0.232-1.072-0.642l-40.491-75.863c-0.315-0.591-0.093-1.325 0.499-1.64 0.591-0.318 1.326-0.094 1.64 0.499l40.494 75.862c0.315 0.592 0.091 1.326-0.5 1.641-0.18 0.09-0.38 0.14-0.57 0.14z"/>
			
			
				<path d="m470.86 240.86c-0.424 0-0.836-0.224-1.06-0.621l-49.72-88.781c-0.328-0.584-0.119-1.323 0.465-1.65 0.585-0.327 1.323-0.119 1.651 0.465l49.72 88.78c0.328 0.584 0.12 1.324-0.465 1.65-0.18 0.1-0.38 0.15-0.58 0.15z"/>
			
			
				<path d="m476.8 223.43c-0.438 0-0.859-0.237-1.075-0.651l-37.214-71.351c-0.311-0.595-0.079-1.327 0.515-1.637 0.592-0.311 1.326-0.08 1.637 0.514l37.213 71.351c0.309 0.595 0.08 1.327-0.515 1.637-0.17 0.09-0.36 0.14-0.56 0.14z"/>
			
			
				<path d="m492.18 220.15c-0.438 0-0.862-0.238-1.077-0.654l-35.369-68.072c-0.308-0.595-0.077-1.327 0.518-1.636 0.594-0.308 1.327-0.077 1.637 0.518l35.368 68.072c0.308 0.595 0.077 1.327-0.518 1.636-0.18 0.08-0.37 0.13-0.56 0.13z"/>
			
			
				<polygon points="346.4 140 465.73 140 492.8 98 315.65 98" fill="#C60101"/>
				
					<path d="m466.4 141h-120.62l-32.512-45h181.74l-28.61 45zm-119.38-2h118.04l25.518-40h-172.55l28.99 40z"/>
				
			
			
				<path d="m332.12 207.31c-1.792 0-3.833-0.732-6.549-3.198-1.018-0.924-1.551-2.073-1.584-3.413-0.111-4.465 5.593-10.185 11.108-15.716 3.408-3.418 6.628-6.646 7.712-8.873 2.54-5.208 2.713-13.271 2.853-19.75 0.037-1.75 0.074-3.418 0.149-4.938 0.033-0.668 0.62-1.185 1.271-1.151 0.669 0.033 1.185 0.603 1.151 1.272-0.074 1.499-0.109 3.143-0.146 4.869-0.152 7.066-0.324 15.075-3.096 20.762-1.263 2.588-4.621 5.957-8.177 9.523-4.671 4.684-10.485 10.514-10.4 13.941 0.017 0.67 0.268 1.203 0.791 1.677 3.617 3.285 5.188 2.775 7.785 1.927 1.715-0.558 3.852-1.253 6.891-0.954 1.218 0.12 2.373 0.508 3.393 0.852 2.575 0.864 3.77 1.158 5.109-0.97 0.836-1.331 0.904-2.687 0.18-3.63-0.718-0.933-2.021-1.221-3.488-0.767-0.639 0.196-1.32-0.159-1.518-0.8-0.198-0.64 0.161-1.318 0.8-1.518 2.442-0.754 4.788-0.14 6.13 1.608 1.349 1.753 1.329 4.206-0.049 6.399-2.413 3.837-5.476 2.807-7.937 1.979-0.942-0.316-1.915-0.645-2.858-0.737-2.537-0.25-4.247 0.307-5.9 0.846-1.16 0.38-2.32 0.76-3.6 0.76z"/>
			
			
				<path d="m355.84 226.91c-0.051 0-0.102-2e-3 -0.152-9e-3l-1.604-0.198c-10.425-1.278-17.398-2.345-19.246-5.414-0.521-0.865-0.597-1.843-0.221-2.829 0.319-0.834 0.921-1.698 1.56-2.613 2.077-2.979 4.227-6.061 0.127-10.325-0.463-0.483-0.449-1.251 0.035-1.715 0.482-0.466 1.25-0.45 1.715 0.033 5.477 5.701 2.119 10.517 0.112 13.395-0.55 0.79-1.07 1.535-1.282 2.091-0.127 0.334-0.08 0.526 0.032 0.712 1.375 2.285 11.057 3.473 17.464 4.258l1.606 0.198c0.666 0.083 1.138 0.688 1.054 1.353-0.08 0.63-0.6 1.08-1.2 1.08z"/>
			
			
				<path d="m369.38 182.96c-3.862-3.755-10.437-4.921-15.235-4.033-0.047 0.01-0.095 0.028-0.142 0.029-1.097 0.012-1.95-2.056-1.95-2.056 14.65-2.56 17.33 6.06 17.33 6.06z"/>
			
			
				<path d="m373.59 178.11c-5.343-5.194-14.438-6.805-21.072-5.576-0.066 0.012-0.13 0.036-0.195 0.037-1.519 0.017-2.698-2.842-2.698-2.842 20.27-3.54 23.97 8.38 23.97 8.38z"/>
			
			<ellipse cx="357.8" cy="180.81" rx="2.48" ry="4.008"/>
			
				<path d="m474 146.16c0 3.227-2.616 5.843-5.844 5.843h-120.32c-3.228 0-5.844-2.616-5.844-5.843v-0.313c0-3.227 2.616-5.843 5.844-5.843h120.31c3.228 0 5.844 2.616 5.844 5.843v0.31z" fill="#fff"/>
				<path d="m475 146.94c0 3.897-3.159 7.056-7.057 7.056h-119.88c-3.897 0-7.057-3.159-7.057-7.056v-0.888c0-3.897 3.159-7.056 7.057-7.056h119.89c3.897 0 7.057 3.159 7.057 7.056v0.89zm-3-1.31c0-2.557-2.072-4.63-4.629-4.63h-119.74c-2.557 0-4.629 2.073-4.629 4.63v0.74c0 2.557 2.072 4.63 4.629 4.63h119.74c2.557 0 4.629-2.073 4.629-4.63v-0.74z"/>
			
			
				<path d="m257.82 397.74s45.954-63.979 82.219-152.53c-4.041-1.771-119.13 20.374-155.07 72.116-0.401 16.956-1.349 190.07-0.119 214.26 78.731 45.928 159.43 26.422 163.48 24.647-43.77-106.84-90.51-158.5-90.51-158.5z" fill="#C60101"/>
				
					<path d="m299.7 563h-5e-3c-28.874 0-72.342-5.246-115.46-30.396l-0.567-0.313-0.033-0.647c-1.254-24.67-0.228-199.76 0.118-214.35l8e-3 -0.364 0.208-0.297c18.463-26.579 57.14-44.711 86.334-55.243 33.577-12.113 63.238-17.491 68.845-17.491 0.644 0 1.057 0.061 1.377 0.2l1.084 0.476-0.45 1.096c-33.759 82.433-76.44 144.35-81.798 151.98 5.792 6.696 49.511 59.058 90.082 158.12l0.449 1.095-1.084 0.441c-1.64 0.71-20.22 5.68-49.12 5.68zm-113.68-32.13c42.458 24.593 85.217 29.769 113.66 29.77 24.922 0 42.375-3.835 47.012-5.15-43.034-104.61-89.32-156.43-89.785-156.94l-0.657-0.727 0.572-0.794c0.456-0.635 45.731-64.108 81.42-150.67-15.587 0.953-118.74 23.881-152.08 71.361-0.33 16.76-1.32 186.44-0.13 213.15z"/>
				
			
			
				<circle cx="395.75" cy="461.83" r="4.073"/>
				<circle cx="401.82" cy="480.02" r="4.073"/>
				<circle cx="418.8" cy="481.24" r="4.073"/>
				<circle cx="422.44" cy="499.44" r="4.073"/>
				<circle cx="439.42" cy="500.65" r="4.073"/>
			
			
				<rect x="215" y="263" width="18" height="159" fill="#FDCB45"/>
				<path d="m235 424h-21v-162h21v162zm-19-3h16v-157h-16v157z"/>
			
			<path d="m365.69 571.46c0.827 14.724 9.304 29.936 16.294 42.495 6.861 12.327 14.845 26.454 25.808 35.694 7.96 6.708 12.265 0.386 21.115 1.395 5.835 0.665 12.027 2.571 13.774-3.825l-0.015 2.178c0.039-0.796 0.067-1.64 0.092-2.509 0.059-0.251 0.128-0.487 0.175-0.764 0.417-2.429 0.217-5.117 0.075-7.75 0.262-5.1 0.894-10.269 2.78-14.138 3.344-6.858 23.786-20.876 17.511-26.572-5.051-4.584-7.065-2.559-10.912-1.608l-0.071-0.081c-0.335-1.242-1.102-2.087-2.032-3.178-1.75-4.752 2.712-8.353 3.653-10.817 0.68-1.78-0.925-3.041-3.71-3.988l1.974 0.362c5.11-7.461-1.369-6.516-4.205-12.025-2.539-4.929 7.321-17.189 2.313-19.158-31.343-12.321-63.729 3.638-76.566 12.325-0.446 0.061-0.918 0.153-1.43 0.359-5.57 2.27-6.96 5.24-6.6 11.62zm86.7 24.6c-0.015 5e-3 -0.033 7e-3 -0.05 0.012-6e-3 -0.028-9e-3 -0.061-0.018-0.088 0.02 0.03 0.04 0.05 0.07 0.08z" fill="#fff"/>
			<path d="m364.34 556.31c-4.721-6.628-7.443-18.011-14.552-22.683-5.295-3.481-16.996-4.744-22.704-1.773-3.604 1.877-5.585 5.392-7.421 8.889-5.587-10.656-27.272-5.551-33.423 2.261-2.48 3.152-2.931 7.008-2.891 10.904-14.686 0.494-29.811 5.496-28.938 22.994 0.611 12.234 11.65 28.669 25.626 26.894 6.174-0.783 10.552-5.731 14.108-10.406 1.534 2.58 2.617 5.428 3.696 8.259l21.806 47.752 98.107-0.307-53.44-92.77z" fill="#FDCB45"/>
			
				<path d="m417.76 650.31c-0.416 0-0.819-0.212-1.046-0.596-0.784-1.324-57.456-100.9-58.019-101.89-5.262-9.246-12.936-19.406-25.645-15.812-10.34 2.917-13.284 9.973-13.932 15.377-1.18 9.833 4.517 21.59 12.698 26.208 3.64 2.056 9.266 3.504 15.382-1.268 5.097-3.977 5.769-10.584 4.175-15.369-1.823-5.473-6.219-8.804-11.756-8.91-4.081-0.12-6.533 1.329-6.913 3.966-0.384 2.666 1.484 6.001 3.704 6.608 2.301 0.633 3.852-2.202 4.571-3.947 0.256-0.619 0.964-0.913 1.585-0.659 0.619 0.256 0.915 0.966 0.659 1.586-2.477 6.004-6.042 5.748-7.456 5.36-3.427-0.938-6.031-5.368-5.465-9.295 0.269-1.867 1.744-6.179 9.359-6.046 6.514 0.126 11.883 4.176 14.013 10.57 2.239 6.722 0.237 13.975-4.984 18.049-5.596 4.364-12.012 4.885-18.068 1.469-8.958-5.057-15.201-17.893-13.914-28.611 1.041-8.676 6.61-14.863 15.683-17.424 14.49-4.088 23.155 7.715 28.412 16.947 0.563 0.992 57.247 100.58 57.998 101.86 0.342 0.576 0.15 1.32-0.427 1.661-0.17 0.09-0.38 0.15-0.59 0.15z"/>
			
			
				<path d="m302.14 583.6c-2.937 1e-3 -5.876-0.786-8.601-2.355-5.276-3.04-9.249-8.966-10.896-16.261-1.807-7.993-0.536-16.429 3.314-22.015 7.196-10.434 21.59-13.171 32.081-6.1 0.86 0.58 1.667 1.191 2.555 1.872 0.532 0.407 0.632 1.17 0.225 1.701-0.408 0.532-1.168 0.632-1.701 0.226-0.857-0.658-1.632-1.245-2.435-1.787-9.396-6.329-22.284-3.879-28.728 5.465-3.479 5.047-4.607 12.749-2.946 20.103 1.5 6.635 5.05 11.99 9.741 14.693 4.477 2.578 9.627 2.701 14.129 0.338 4.566-2.397 7.546-6.923 7.968-12.105 0.386-4.75-2.31-11.726-6.368-13.603-2.298-1.065-4.75-0.316-7.288 2.223-2.259 2.259-1.485 4.624-1.047 5.538 0.756 1.574 2.208 2.614 3.457 2.479 1.271-0.14 2.273-1.517 2.821-3.876 0.152-0.653 0.803-1.067 1.457-0.905 0.653 0.151 1.059 0.803 0.907 1.455-1.079 4.641-3.545 5.587-4.92 5.737-2.282 0.253-4.704-1.329-5.909-3.841-1.377-2.872-0.81-5.976 1.52-8.305 4.151-4.149 7.741-3.762 10.023-2.708 5.151 2.383 8.228 10.347 7.766 16.001-0.49 6.016-3.951 11.271-9.259 14.057-2.48 1.32-5.16 1.97-7.84 1.97z"/>
			
			
				<path d="m319.65 650.61c-0.486 0-0.944-0.293-1.131-0.773-2.056-5.286-31.271-67.706-34.128-71.715-1.551-2.175-3.425-3.528-5.279-3.811-1.417-0.216-2.816 0.194-4.164 1.218-3.893 2.955-2.579 9.602-0.747 13.174 1 1.951 3.47 4.295 5.739 4.295h0.054c1.354 0 2.429-1.102 3.193-2.707 0.882-1.85-0.462-6.215-2.283-7.321-0.32-0.197-1.069-0.719-2.217 0.796-0.405 0.533-1.165 0.605-1.699 0.201-0.534-0.405-0.638-1.183-0.234-1.716 1.545-2.04 3.569-2.601 5.412-1.477 2.884 1.755 4.626 7.384 3.212 10.351-1.162 2.438-3.062 3.873-5.349 3.873h-0.088c-3.348 0-6.561-2.791-7.897-5.4-2.643-5.15-3.32-12.367 1.438-15.979 1.864-1.416 3.936-2.003 5.997-1.694 2.508 0.383 4.955 2.081 6.89 4.796 3.068 4.304 32.233 66.636 34.414 72.242 0.242 0.623-0.067 1.324-0.691 1.567-0.14 0.06-0.28 0.08-0.43 0.08z"/>
			
			
				<path d="m278.08 603.99c-5.397 0-11.258-2.409-16.235-6.78-6.027-5.293-9.241-15.38-7.997-25.099 1.062-8.295 5.129-14.791 11.159-17.824 4.911-2.47 10.358-2.118 15.622-1.773 0.731 0.047 1.458 0.095 2.176 0.133 0.669 0.037 1.182 0.608 1.146 1.277s-0.613 1.181-1.277 1.146c-0.727-0.04-1.462-0.088-2.204-0.136-4.939-0.321-10.052-0.654-14.374 1.521-5.297 2.665-8.884 8.482-9.842 15.964-1.146 8.953 1.744 18.184 7.191 22.969 5.448 4.783 11.975 6.993 17.454 5.905 4.299-0.852 7.749-3.686 9.978-8.196 0.297-0.601 1.022-0.849 1.625-0.55 0.601 0.296 0.847 1.025 0.55 1.625-2.576 5.211-6.615 8.498-11.681 9.502-1.06 0.2-2.16 0.31-3.29 0.31z"/>
			
			
				<path d="m400.54 651.23c-0.44 0-0.865-0.24-1.081-0.658l-39.366-76.58c-0.306-0.596-0.071-1.327 0.525-1.634s1.326-0.071 1.634 0.524l39.366 76.58c0.305 0.596 0.071 1.327-0.525 1.634-0.19 0.1-0.38 0.14-0.56 0.14z"/>
			
			
				<path d="m388.23 651.23c-0.434 0-0.853-0.232-1.071-0.642l-40.494-75.863c-0.315-0.591-0.091-1.324 0.5-1.64 0.59-0.318 1.324-0.095 1.642 0.498l40.491 75.862c0.315 0.592 0.092 1.326-0.499 1.642-0.18 0.09-0.38 0.14-0.57 0.14z"/>
			
			
				<path d="m368.55 651.23c-0.424 0-0.836-0.223-1.059-0.621l-49.721-88.78c-0.328-0.584-0.119-1.322 0.466-1.65 0.585-0.327 1.324-0.118 1.651 0.466l49.72 88.781c0.328 0.584 0.12 1.323-0.464 1.65-0.19 0.1-0.4 0.15-0.6 0.15z"/>
			
			
				<path d="m350.1 651.23c-0.437 0-0.861-0.237-1.077-0.651l-37.213-71.352c-0.31-0.595-0.08-1.326 0.515-1.636 0.593-0.312 1.327-0.08 1.637 0.513l37.213 71.352c0.311 0.595 0.079 1.327-0.514 1.638-0.18 0.09-0.37 0.14-0.56 0.14z"/>
			
			
				<path d="m332.88 651.23c-0.438 0-0.862-0.238-1.078-0.653l-35.369-68.072c-0.309-0.595-0.078-1.327 0.518-1.636 0.591-0.31 1.327-0.078 1.635 0.518l35.369 68.071c0.309 0.595 0.077 1.327-0.517 1.637-0.17 0.08-0.37 0.13-0.55 0.13z"/>
			
			
				<polygon points="443.28 660 323.96 660 296.89 703 474.04 703" fill="#C60101"/>
				
					<path d="m476.42 704h-181.74l28.611-45h120.61l32.52 45zm-177.32-2h172.56l-28.997-40h-118.04l-25.52 40z"/>
				
			
			
				<path d="m442.67 651h-0.062c-0.67 0-1.186-0.797-1.151-1.467 0.074-1.498 0.109-3.24 0.146-4.965 0.15-7.067 0.323-15.125 3.096-20.813 1.262-2.588 4.619-5.981 8.177-9.548 4.671-4.684 10.485-10.525 10.4-13.953-0.018-0.67-0.27-1.207-0.791-1.683-3.617-3.283-5.186-2.777-7.785-1.93-1.715 0.559-3.851 1.25-6.891 0.952-1.218-0.121-2.372-0.509-3.393-0.853-2.574-0.865-3.77-1.159-5.108 0.969-0.837 1.331-0.903 2.688-0.181 3.63 0.719 0.936 2.023 1.224 3.488 0.769 0.638-0.195 1.319 0.159 1.518 0.8 0.198 0.64-0.16 1.318-0.8 1.517-2.438 0.757-4.786 0.142-6.13-1.606-1.349-1.754-1.33-4.206 0.05-6.399 2.412-3.837 5.477-2.808 7.937-1.979 0.941 0.316 1.915 0.645 2.857 0.736 2.536 0.251 4.246-0.307 5.901-0.846 2.834-0.922 5.509-1.792 10.167 2.438 1.019 0.924 1.552 2.073 1.585 3.413 0.111 4.465-5.592 10.185-11.108 15.717-3.408 3.417-6.627 6.646-7.712 8.872-2.54 5.208-2.713 13.271-2.853 19.75-0.037 1.751-0.074 3.612-0.149 5.132-0.07 0.65-0.61 1.35-1.25 1.35z"/>
			
			
				<path d="m452.51 597.41c-0.318 0-0.636-0.123-0.875-0.371-5.478-5.7-2.119-10.518-0.112-13.395 0.55-0.791 1.071-1.535 1.282-2.091 0.128-0.335 0.08-0.526-0.032-0.713-1.375-2.285-11.058-3.472-17.464-4.257l-1.606-0.198c-0.666-0.083-1.137-0.688-1.055-1.354s0.694-1.153 1.354-1.054l1.604 0.197c10.426 1.278 17.399 2.347 19.247 5.415 0.521 0.864 0.597 1.843 0.221 2.829-0.318 0.834-0.922 1.697-1.56 2.611-2.078 2.98-4.228 6.062-0.128 10.325 0.464 0.483 0.448 1.251-0.035 1.716-0.24 0.22-0.55 0.33-0.85 0.33z"/>
			
			
				<path d="m420.31 617.92c3.862 3.757 10.438 4.922 15.235 4.034 0.047-0.01 0.095-0.027 0.143-0.028 1.097-0.012 1.95 2.055 1.95 2.055-14.64 2.56-17.32-6.06-17.32-6.06z"/>
			
			
				<path d="m416.1 622.77c5.344 5.193 14.437 6.805 21.071 5.575 0.066-0.012 0.131-0.036 0.196-0.036 1.519-0.018 2.697 2.842 2.697 2.842-20.27 3.55-23.97-8.37-23.97-8.37z"/>
			
			<ellipse cx="431.88" cy="620.07" rx="2.48" ry="4.008"/>
			
				<path d="m449 654.16c0 3.228-2.616 5.844-5.843 5.844h-120.32c-3.227 0-5.843-2.616-5.843-5.844v-0.313c0-3.228 2.616-5.844 5.843-5.844h120.31c3.227 0 5.843 2.616 5.843 5.844v0.31z" fill="#fff"/>
				<path d="m449 654.94c0 3.897-3.159 7.057-7.056 7.057h-119.88c-3.896 0-7.056-3.159-7.056-7.057v-0.887c0-3.897 3.159-7.057 7.056-7.057h119.89c3.896 0 7.056 3.159 7.056 7.057v0.89zm-2-0.31c0-2.557-2.073-4.63-4.63-4.63h-119.74c-2.557 0-4.63 2.073-4.63 4.63v0.74c0 2.557 2.073 4.63 4.63 4.63h119.74c2.557 0 4.63-2.073 4.63-4.63v-0.74z"/>
			
			
				<rect x="557" y="378" width="18" height="162" fill="#FDCB45"/>
				<path d="m576 541h-20v-164h20v164zm-18-3h16v-159h-16v159z"/>
			
			
				<rect x="557" y="540" width="18" height="8" fill="#fff"/>
				<path d="m576 549h-20v-11h20v11zm-18-2h16v-6h-16v6z"/>
			
			
				<rect x="557" y="548" width="18" height="8" fill="#fff"/>
				<path d="m576 558h-20v-11h20v11zm-18-3h16v-6h-16v6z"/>
			
			
				<rect x="557" y="556" width="18" height="9" fill="#fff"/>
				<path d="m576 566h-20v-11h20v11zm-18-2h16v-6h-16v6z"/>
			
			
				
					<path d="m581.16 514.95c3.86 5.323 3.334 11.041-0.777 15.481-4.112 4.446-36.9-13.091-39.858-21.238-1.388-3.817 0.552-10.742 3.947-13.011" fill="#fff"/>
					<path d="m578.06 532.36c-0.783 0-1.683-0.104-2.704-0.31-10.18-2.054-33.239-14.899-35.976-22.438-1.632-4.489 0.637-11.908 4.414-14.432l1.348 2.017c-2.834 1.894-4.723 8.176-3.48 11.587 2.205 6.074 24.294 18.896 34.175 20.889 2.947 0.595 3.59 0.01 3.652-0.059 3.85-4.156 4.099-9.24 0.686-13.946l1.964-1.424c4.095 5.646 3.77 12.008-0.869 17.018-0.67 0.72-1.74 1.09-3.21 1.09z"/>
				
				
					<path d="m581.13 498.1c6.355 4.037 5.501 13.701 2.26 16.05-4.46 3.232-35.393-15.091-38.067-18.086-3.175-3.555-3.648-9.261 0.654-13.245" fill="#fff"/>
					<path d="m581.93 515.68c-9.02 0-35.417-16.451-37.517-18.804-3.38-3.784-4.272-10.307 0.734-14.942l1.647 1.78c-3.912 3.622-3.248 8.55-0.573 11.546 3.467 3.88 33.236 20.244 36.451 17.913 1.055-0.765 2.073-3.09 1.98-6.059-0.05-1.634-0.557-5.685-4.18-7.986l1.302-2.048c3.24 2.059 5.174 5.688 5.305 9.961 0.107 3.526-1.064 6.704-2.983 8.097-0.51 0.37-1.25 0.54-2.17 0.54z"/>
				
				
					<path d="m585.51 482.16c3.918 4.959 2.861 9.313 0.408 13.634-2.778 4.89-5.436 1.675-9.858-0.394-5.921-2.771-11.331-5.027-17.259-7.771-3.021-1.397-10.743-3.216-12.482-6.239-2.213-3.85 1.412-9.669 4.039-12.337" fill="#fff"/>
					<path d="m582.63 500h-0.107c-1.482 0-2.889-1.051-4.515-1.979-0.782-0.443-1.591-1.01-2.467-1.42-3.104-1.453-6.125-2.842-9.049-4.135-2.692-1.189-5.392-2.412-8.208-3.715-0.769-0.355-1.938-0.781-3.18-1.219-3.721-1.309-8.353-2.944-9.843-5.537-2.53-4.401 1.14-10.664 4.225-13.796l1.729 1.7c-2.649 2.69-5.597 7.846-3.852 10.882 1.042 1.813 5.558 3.398 8.546 4.449 1.353 0.477 2.521 0.888 3.394 1.292 2.804 1.297 5.49 2.484 8.17 3.671 2.935 1.297 5.967 2.64 9.094 4.103 0.966 0.452 1.854 0.958 2.639 1.402 1.344 0.765 2.505 1.426 3.379 1.449 0.329 3e-3 1.142 0.029 2.272-1.959 2.041-3.595 3.416-7.57-0.306-12.282l1.905-1.505c4.65 5.89 2.715 11.315 0.51 15.199-1.2 2.16-2.62 3.42-4.32 3.42z"/>
				
				
					<path d="m586.16 482.11c3.295-6.736 6.262-10.275-0.941-15.812-7.236-5.561-15.707-8.684-24.41-10.666-6.909-1.571-8.572 1.217-10.314 7.64-2.109 7.774 5.033 6.735 11.229 8.607 8.085 2.444 17.379 5.752 24.464 10.664" fill="#fff"/>
					<path d="m585.49 483.54c-7.353-5.097-17.288-8.435-24.123-10.5-1.342-0.406-2.749-0.673-4.11-0.93-3.174-0.601-6.169-1.168-7.59-3.436-0.894-1.428-1.007-3.3-0.352-5.722 1.673-6.166 3.493-10.387 11.755-8.505 10.246 2.334 18.385 5.895 24.881 10.887 7.253 5.574 5.063 9.875 2.29 15.319-0.322 0.632-0.658 1.293-0.999 1.987l-0.844-0.414-0.92 1.31zm-28.01-27.14c-3.286 0-4.436 2.103-5.814 7.189-0.473 1.734-0.451 2.977 0.064 3.8 0.856 1.367 3.231 1.818 5.982 2.338 1.424 0.271 2.896 0.549 4.361 0.991 6.588 1.992 16.006 5.146 23.455 9.93 0.189-0.375 0.375-0.738 0.554-1.093 2.781-5.458 4.05-7.949-1.604-12.294-6.213-4.774-14.043-8.191-23.94-10.446-1.19-0.27-2.19-0.42-3.05-0.42z"/>
				
			
			
				<path d="m591 569.54c0 3.015-2.444 5.459-5.46 5.459h-42.08c-3.016 0-5.46-2.444-5.46-5.459v-0.082c0-3.015 2.444-5.459 5.46-5.459h42.08c3.016 0 5.46 2.444 5.46 5.459v0.08z" fill="#fff"/>
				<path d="m585.06 576h-42.461c-3.679 0-6.672-2.82-6.672-6.5 0-3.678 2.993-6.5 6.672-6.5h42.461c3.68 0 6.673 2.822 6.673 6.5 0 3.68-2.99 6.5-6.67 6.5zm-42.46-11c-2.34 0-4.245 1.658-4.245 4s1.905 4 4.245 4h42.461c2.341 0 4.246-1.658 4.246-4s-1.905-4-4.246-4h-42.46z"/>
			
			
				<circle cx="565.38" cy="596.28" r="20.196" fill="#C60101"/>
				
					<path d="m565.38 617.69c-11.806 0-21.41-9.605-21.41-21.41 0-11.804 9.604-21.408 21.41-21.408s21.408 9.604 21.408 21.408c0 11.8-9.6 21.41-21.41 21.41zm0-40.39c-10.467 0-18.983 8.517-18.983 18.982 0 10.468 8.517 18.983 18.983 18.983 10.468 0 18.981-8.516 18.981-18.983 0-10.47-8.51-18.98-18.98-18.98z"/>
				
			
			
				<circle cx="565.38" cy="381.52" r="15.637" fill="#FB821F"/>
				
					<path d="m565.38 398.38c-9.292 0-16.852-7.56-16.852-16.852s7.56-16.85 16.852-16.85 16.851 7.559 16.851 16.85-7.56 16.85-16.85 16.85zm0-31.28c-7.954 0-14.425 6.471-14.425 14.424 0 7.954 6.471 14.425 14.425 14.425 7.953 0 14.424-6.471 14.424-14.425 0-7.95-6.47-14.42-14.42-14.42z"/>
				
			
			
				<path d="m453.2 579.04-2.002-1.372c2.704-3.946 1.877-4.606-0.334-6.372-1.268-1.012-2.846-2.271-3.947-4.412-1.438-2.792 0.174-6.925 1.734-10.923 1.289-3.307 2.753-7.058 1.213-7.662-36.419-14.318-74.103 10.242-80.013 15.67l-1.642-1.786c6.094-5.598 44.96-30.917 82.545-16.143 3.79 1.49 1.942 6.225 0.156 10.803-1.3 3.333-2.773 7.11-1.837 8.93 0.865 1.679 2.105 2.67 3.305 3.628 2.81 2.24 4.52 4.24 0.82 9.63z"/>
			
			
				<polygon points="470.1 700.61 436.14 679.08 414 701.22 384.88 678.78 356.67 700.01 336.05 678.47 299.66 700.01" fill="#FDCB45"/>
				<path d="m414.1 702.83-1.569-1.209-55.72-0.198-0.267 0.2-0.193-0.203-61.101-0.216 41.011-24.266 20.545 21.45 28.082-21.138 28.472 21.946 0.938 3e-3 21.667-21.666 38.344 24.307-59-0.2-1.2 1.2zm3.62-3.62 48.184 0.171-29.594-18.76-18.59 18.59zm-57.7-0.2 49.349 0.176-24.496-18.883-24.85 18.7zm-55.96-0.2 49.956 0.178-18.178-18.979-31.78 18.8z"/>
			
			
				<rect x="215" y="254" width="18" height="9" fill="#fff"/>
				<path d="m235 264h-21v-11h21v11zm-19-2h16v-6h-16v6z"/>
			
			
				<rect x="215" y="246" width="18" height="8" fill="#fff"/>
				<path d="m235 256h-21v-11h21v11zm-19-3h16v-6h-16v6z"/>
			
			
				<rect x="215" y="238" width="18" height="8" fill="#fff"/>
				<path d="m235 247h-21v-11h21v11zm-19-2h16v-6h-16v6z"/>
			
			
				
					<path d="m208.53 285.92c-3.86-5.324-3.333-11.042 0.777-15.482 4.112-4.446 36.9 13.092 39.859 21.239 1.387 3.817-0.552 10.742-3.948 13.011" fill="#fff"/>
					<path d="m245.89 305.7-1.348-2.017c2.834-1.895 4.721-8.176 3.481-11.588-2.206-6.074-24.294-18.895-34.175-20.888-2.946-0.595-3.589-8e-3 -3.652 0.058-3.849 4.157-4.099 9.24-0.686 13.947l-1.964 1.424c-4.094-5.646-3.769-12.008 0.869-17.018 1.04-1.125 2.973-1.379 5.914-0.79 10.181 2.055 33.239 14.9 35.976 22.438 1.64 4.5-0.63 11.92-4.41 14.44z"/>
				
				
					<path d="m208.56 302.78c-6.356-4.038-5.501-13.701-2.26-16.05 4.46-3.232 35.392 15.091 38.067 18.087 3.175 3.554 3.649 9.261-0.653 13.244" fill="#fff"/>
					<path d="m244.54 318.95-1.648-1.78c3.913-3.622 3.25-8.55 0.573-11.546-3.465-3.88-33.226-20.235-36.451-17.913-1.054 0.764-2.073 3.089-1.981 6.059 0.05 1.634 0.558 5.684 4.181 7.986l-1.301 2.047c-3.24-2.057-5.174-5.688-5.305-9.96-0.108-3.526 1.063-6.704 2.983-8.096 5.562-4.033 37.37 15.668 39.685 18.261 3.39 3.78 4.28 10.3-0.72 14.94z"/>
				
				
					<path d="m204.18 318.72c-3.918-4.959-2.861-9.314-0.407-13.634 2.778-4.891 5.434-1.675 9.858 0.393 5.92 2.77 11.331 5.027 17.259 7.772 3.021 1.398 10.743 3.215 12.482 6.238 2.213 3.851-1.412 9.67-4.038 12.336" fill="#fff"/>
					<path d="m240.2 332.68-1.729-1.704c2.65-2.689 5.596-7.844 3.851-10.88-1.042-1.812-5.558-3.4-8.545-4.451-1.353-0.476-2.521-0.888-3.394-1.292-2.803-1.297-5.49-2.486-8.17-3.671-2.934-1.297-5.967-2.64-9.094-4.103-0.965-0.451-1.854-0.958-2.638-1.403-1.344-0.764-2.504-1.425-3.378-1.447-0.341-7e-3 -1.144-0.031-2.272 1.958-2.042 3.595-3.418 7.571 0.305 12.282l-1.904 1.504c-4.652-5.889-2.717-11.102-0.511-14.985 1.244-2.188 2.727-3.225 4.445-3.185 1.483 0.038 2.889 0.838 4.516 1.764 0.781 0.444 1.589 0.904 2.467 1.314 3.103 1.452 6.125 2.789 9.047 4.081 2.692 1.19 5.392 2.385 8.208 3.689 0.767 0.355 1.939 0.768 3.18 1.204 3.722 1.309 8.353 2.938 9.844 5.53 2.51 4.4-1.17 10.66-4.25 13.79z"/>
				
				
					<path d="m203.53 318.77c-3.296 6.736-6.263 10.275 0.941 15.811 7.236 5.562 15.707 8.684 24.41 10.666 6.909 1.572 8.573-1.216 10.314-7.639 2.11-7.775-5.033-6.735-11.23-8.608-8.084-2.444-17.378-5.752-24.463-10.664" fill="#fff"/>
					<path d="m232.17 346.88c-1.033 0-2.208-0.144-3.557-0.451-10.245-2.333-18.384-5.894-24.88-10.886-7.252-5.574-5.063-9.875-2.29-15.318 0.322-0.633 0.659-1.294 0.998-1.988l0.844 0.414 0.909-1.312c7.351 5.097 17.288 8.434 24.123 10.5 1.341 0.405 2.749 0.672 4.11 0.929 3.172 0.601 6.168 1.168 7.588 3.436 0.894 1.427 1.009 3.299 0.352 5.722-1.39 5.16-2.9 8.96-8.19 8.96zm-28.01-26.65c-0.189 0.374-0.374 0.738-0.555 1.094-2.78 5.457-4.048 7.948 1.605 12.293 6.213 4.774 14.044 8.191 23.94 10.446 5.759 1.31 7.134-0.358 8.874-6.774 0.471-1.734 0.449-2.977-0.065-3.8-0.856-1.367-3.232-1.817-5.983-2.337-1.424-0.27-2.897-0.548-4.362-0.992-6.57-2-15.99-5.15-23.44-9.93z"/>
				
			
			
				<path d="m253 233.54c0 3.015-2.444 5.459-5.459 5.459h-42.082c-3.015 0-5.459-2.444-5.459-5.459v-0.081c0-3.015 2.444-5.459 5.459-5.459h42.082c3.015 0 5.459 2.444 5.459 5.459v0.08z" fill="#fff"/>
				<path d="m247.8 240h-42.46c-3.679 0-6.672-2.821-6.672-6.5s2.994-6.5 6.672-6.5h42.46c3.679 0 6.672 2.821 6.672 6.5s-2.99 6.5-6.67 6.5zm-42.46-11c-2.341 0-4.246 2.159-4.246 4.5s1.904 4.5 4.246 4.5h42.46c2.341 0 4.246-2.159 4.246-4.5s-1.905-4.5-4.246-4.5h-42.46z"/>
			
			
				<circle cx="224.31" cy="205.81" r="20.196" fill="#C60101"/>
				
					<path d="m224.31 227.22c-11.804 0-21.407-9.604-21.407-21.409 0-11.804 9.603-21.409 21.407-21.409 11.806 0 21.411 9.604 21.411 21.409 0 11.81-9.61 21.41-21.41 21.41zm0-40.39c-10.466 0-18.981 8.516-18.981 18.982 0 10.467 8.515 18.983 18.981 18.983 10.468 0 18.984-8.516 18.984-18.983 0-10.46-8.51-18.98-18.98-18.98z"/>
				
			
			
				<circle cx="224.31" cy="419.35" r="15.638" fill="#FB821F"/>
				
					<path d="m224.31 436.2c-9.291 0-16.85-7.559-16.85-16.85 0-9.292 7.559-16.852 16.85-16.852 9.292 0 16.852 7.56 16.852 16.852 0 9.29-7.56 16.85-16.85 16.85zm0-31.27c-7.953 0-14.424 6.471-14.424 14.425 0 7.952 6.471 14.423 14.424 14.423 7.955 0 14.425-6.471 14.425-14.423-0.01-7.96-6.48-14.43-14.43-14.43z"/>
				
			
			
				<path d="m363.62 259.4c-8.05 1e-3 -16.399-1.308-24.689-4.567-3.791-1.491-1.944-6.224-0.158-10.802 1.3-3.334 2.773-7.111 1.837-8.931-0.865-1.679-2.105-2.669-3.305-3.627-2.811-2.244-4.514-4.248-0.822-9.639l2.002 1.372c-2.704 3.947-1.876 4.606 0.334 6.372 1.268 1.013 2.846 2.272 3.948 4.412 1.438 2.792-0.175 6.926-1.735 10.923-1.289 3.308-2.753 7.058-1.213 7.663 36.418 14.318 74.104-10.243 80.014-15.67l1.642 1.787c-4.73 4.38-29.4 20.72-57.84 20.72z"/>
			
			
				<path d="m448.89 484.74c-0.77-8.869-1.494-17.084-2.167-24.696-4.248-48.147-6.384-72.313-3.957-85.851 2.518-14.046 10.112-17.017 23.902-22.409 1.421-0.556 2.915-1.14 4.485-1.768l0.901 2.253c-1.576 0.63-3.075 1.217-4.503 1.775-26.823 10.488-26.823 10.488-18.411 105.78 0.672 7.615 1.397 15.83 2.166 24.702l-2.41 0.22z"/>
			
			
				<path d="m458.2 471.23c-5.862-50.079-7.632-76.119-6.106-89.881 1.59-14.347 7.061-16.111 13.986-18.345 2.32-0.749 4.949-1.598 7.739-3.016l1.1 2.164c-2.962 1.506-5.689 2.385-8.094 3.161-13.03 4.203-17.906 5.776-6.215 105.64l-2.42 0.29z"/>
			
			
				<path d="m466.31 462.15c-8.398-66.305-6.251-86.001 9.991-91.631l0.794 2.293c-14.605 5.061-16.484 25.031-8.377 89.032l-2.4 0.31z"/>
			
			
				<path d="m473.47 439.59c-0.879-5.414-8.185-53.053 5.414-58.404l0.889 2.258c-9.983 3.928-6.206 41.581-3.907 55.757l-2.39 0.38z"/>
			
			
					<rect transform="matrix(.2376 .9714 -.9714 .2376 735.5 -175.7)" x="437.92" y="379.49" width="83.524" height="2.425"/>
			
			
				<path d="m483.94 436.65c-1.029-6.578-4.158-28.784-1.218-38.34l2.319 0.713c-2.787 9.06 0.287 30.804 1.295 37.252l-2.4 0.38z"/>
			
			
				<polygon points="319.58 100.26 353.55 121.8 375.69 99.659 404.81 122.1 433.02 100.87 453.64 122.4 490.03 100.87" fill="#FDCB45"/>
				<path d="m453.43 123.94-20.545-21.45-28.083 21.138-28.47-21.95-0.938-2e-3 -21.666 21.667-38.344-24.307 59.007 0.211 1.202-1.2 1.568 1.21 55.721 0.198 0.267-0.2 0.192 0.202 61.1 0.217-41.01 24.259zm-17.76-22.05 18.178 18.979 31.778-18.801-49.96-0.18zm-55.35-0.2 24.495 18.883 24.853-18.706-49.35-0.17zm-56.53-0.2 29.593 18.76 18.591-18.589-48.18-0.17z"/>
			
			
				<circle cx="393.94" cy="339.05" r="4.073"/>
				<circle cx="387.87" cy="320.85" r="4.073"/>
				<circle cx="370.89" cy="319.64" r="4.073"/>
				<circle cx="367.25" cy="301.44" r="4.073"/>
				<circle cx="350.26" cy="300.23" r="4.073"/>
			
			
				<circle cx="380.72" cy="428.98" r="7.228" fill="#FB821F"/>
				
					<path d="m380.72 437.42c-4.653 0-8.441-3.786-8.441-8.441 0-4.653 3.788-8.44 8.441-8.44 4.654 0 8.441 3.787 8.441 8.44 0 4.65-3.78 8.44-8.44 8.44zm0-14.46c-3.317 0-6.014 2.699-6.014 6.014 0 3.316 2.697 6.016 6.014 6.016s6.015-2.699 6.015-6.016c0-3.31-2.7-6.01-6.02-6.01z"/>
				
			
			
				<circle cx="409.84" cy="373.17" r="7.228" fill="#FB821F"/>
				
					<path d="m409.84 381.61c-4.654 0-8.442-3.787-8.442-8.442 0-4.654 3.788-8.441 8.442-8.441 4.652 0 8.44 3.787 8.44 8.441 0 4.65-3.79 8.44-8.44 8.44zm0-14.45c-3.317 0-6.016 2.699-6.016 6.014 0 3.316 2.698 6.015 6.016 6.015 3.316 0 6.014-2.699 6.014-6.015 0-3.31-2.69-6-6.01-6z"/>
				
			
		
	
	<path d="m148.86 111.36c-3.67 13.971-20.918 18.653-21.619 36.45-0.55 13.958 12.882 16.539 19.427 6.567-0.172 8.638-2.661 21.625-2.661 21.625h9.207s-3.039-12.082-3.214-21.188c5.584 9.69 18.434 6.579 18.334-5.849-0.12-13.82-18.86-26.09-19.48-37.6z" clip-rule="evenodd" fill-rule="evenodd"/>
	<path d="m286.03 111.79c-6.541 24.895-37.271 33.235-38.52 64.945-0.981 24.867 22.956 29.486 34.615 11.721-0.3 15.38-4.74 38.54-4.74 38.54h16.404s-5.415-21.547-5.727-37.773c9.952 17.266 32.845 11.715 32.667-10.428-0.19-24.64-33.59-46.5-34.69-67.01z" clip-rule="evenodd" fill-rule="evenodd"/>
	<path d="m647.27 694.31c3.67-13.972 20.918-18.654 21.618-36.45 0.55-13.958-12.883-16.37-19.427-6.399 0.172-8.639 2.66-21.457 2.66-21.457h-9.206s3.039 11.914 3.215 21.021c-5.585-9.691-18.435-6.662-18.336 5.765 0.13 13.84 18.87 26.01 19.49 37.53z" clip-rule="evenodd" fill-rule="evenodd"/>
	<path d="m510.1 693.88c6.541-24.894 37.271-33.234 38.521-64.944 0.98-24.867-22.955-29.319-34.615-11.552 0.307-15.389 4.741-38.381 4.741-38.381h-16.403s5.414 21.377 5.727 37.605c-9.951-17.268-32.846-11.801-32.667 10.344 0.2 24.63 33.6 46.4 34.7 66.92z" clip-rule="evenodd" fill-rule="evenodd"/>

<metadata><rdfRDF><ccWork><dcFormat>image/svg+xml</dcFormat><dcType rdfResource="http://purl.org/dc/dcmitype/StillImage"/><ccLicense rdfResource="http://creativecommons.org/licenses/publicdomain/"/><dcPublisher><ccAgent rdfAbout="http://openclipart.org/"><dcTitle>Openclipart</dcTitle></ccAgent></dcPublisher></ccWork><ccLicense rdfAbout="http://creativecommons.org/licenses/publicdomain/"><ccPermits rdfResource="http://creativecommons.org/ns#Reproduction"/><ccPermits rdfResource="http://creativecommons.org/ns#Distribution"/><ccPermits rdfResource="http://creativecommons.org/ns#DerivativeWorks"/></ccLicense></rdfRDF></metadata></svg>
