<?xml version="1.0" encoding="UTF-8"?>
<svg enable-background="new 0 0 800 800" version="1.1" viewBox="0 0 800 800" xmlSpace="preserve" xmlns="http://www.w3.org/2000/svg" xmlnsCc="http://web.resource.org/cc/" xmlnsDc="http://purl.org/dc/elements/1.1/" xmlnsRdf="http://www.w3.org/1999/02/22-rdf-syntax-ns#">

	
		
			<path d="m119.61 799c-5.549 0-9.608-4.351-9.608-9.365v-776.12c0-5.015 4.06-9.52 9.61-9.52h564.38c5.55 0 10.01 4.505 10.01 9.521v776.11c0 5.015-4.459 9.365-10.009 9.365h-564.38z" fill="#fff"/>
			<path d="m684.01 8.032c3.879 0 6.988 2.146 6.988 5.489v776.11c0 3.343-3.131 6.365-7.009 6.365h-564.38c-3.877 0-7.608-3.022-7.608-6.365v-776.12c0-3.343 3.73-5.52 7.61-5.52h564.39m-0.01-6h-564.38c-7.23 0-13.61 4.823-13.61 11.521v776.11c0 6.696 6.375 12.365 13.608 12.365h564.38c7.232 0 13.009-5.669 13.009-12.365v-776.12c0-6.697-5.56-11.52-12.8-11.52h-0.21z"/>
		
		
			
				
					<path d="m147.04 66.65c2.351-2.75 4.642-5.583 6.877-8.499 2.232-2.915 4.372-5.819 6.417-8.711 2.046-2.892 3.973-5.707 5.784-8.446s3.468-5.308 4.973-7.706c0.188-0.305 0.429-0.523 0.724-0.652 0.294-0.129 0.604-0.194 0.935-0.194 0.423 0 0.804 0.083 1.145 0.247 0.341 0.165 0.512 0.341 0.512 0.529v31.563c0 0.376 0.101 0.588 0.3 0.635 0.2 0.047 0.559 0.071 1.076 0.071 0.423 0 0.893-0.036 1.411-0.106 0.516-0.071 1.028-0.182 1.534-0.335 0.505-0.152 0.981-0.335 1.428-0.547 0.446-0.211 0.799-0.458 1.059-0.74 0.141-0.188 0.317-0.293 0.528-0.317 0.212-0.023 0.411 0.017 0.6 0.123 0.188 0.106 0.322 0.247 0.405 0.423 0.082 0.177 0.076 0.37-0.018 0.582-0.87 1.811-2.033 3.233-3.491 4.268-1.41 0.988-2.751 1.54-4.021 1.657-0.4 0.047-0.635 0.142-0.705 0.283-0.071 0.141-0.106 0.693-0.106 1.657v9.24c-0.611 0.141-1.198 0.247-1.763 0.317-0.564 0.07-1.176 0.106-1.833 0.106-0.729 0-1.382-0.036-1.958-0.106-0.577-0.071-1.229-0.177-1.958-0.317v-10.687c0-0.47-0.058-0.764-0.176-0.882-0.117-0.141-0.54-0.282-1.27-0.423-2.021-0.423-4.432-0.635-7.229-0.635-1.552 0-3.145 0.071-4.778 0.212-1.634 0.141-3.263 0.4-4.885 0.776-0.305 0.118-0.599 0.042-0.881-0.229-0.283-0.27-0.506-0.6-0.67-0.987-0.165-0.388-0.253-0.793-0.264-1.216 0-0.425 0.1-0.742 0.31-0.954zm5.99-2.01c2.045-0.587 4.185-0.882 6.418-0.882 1.151 0 2.269 0.059 3.351 0.176 1.081 0.119 2.186 0.306 3.314 0.564 0.377 0.095 0.6 0.106 0.67 0.036 0.071-0.071 0.105-0.234 0.105-0.494v-18.973c-1.904 3.244-4.05 6.506-6.435 9.786-2.37 3.28-4.84 6.542-7.41 9.787z"/>
				
			
			
				
					<path d="m652.17 750.9c-2.351 2.751-4.642 5.584-6.877 8.5-2.232 2.914-4.373 5.818-6.417 8.71-2.047 2.892-3.975 5.707-5.784 8.446-1.811 2.739-3.468 5.308-4.974 7.706-0.188 0.306-0.429 0.523-0.723 0.651-0.294 0.13-0.604 0.194-0.935 0.194-0.423 0-0.804-0.083-1.145-0.247-0.342-0.164-0.512-0.341-0.512-0.527v-31.564c0-0.375-0.101-0.589-0.301-0.635-0.199-0.048-0.559-0.069-1.075-0.069-0.425 0-0.894 0.035-1.411 0.104-0.518 0.07-1.029 0.182-1.533 0.336-0.506 0.151-0.981 0.334-1.429 0.547-0.447 0.211-0.799 0.457-1.059 0.739-0.141 0.189-0.317 0.293-0.528 0.317-0.213 0.023-0.412-0.017-0.6-0.124-0.188-0.105-0.324-0.246-0.406-0.422-0.081-0.177-0.076-0.371 0.019-0.582 0.869-1.811 2.033-3.232 3.491-4.268 1.41-0.988 2.75-1.54 4.02-1.657 0.4-0.047 0.635-0.141 0.706-0.283 0.07-0.14 0.106-0.692 0.106-1.656v-9.24c0.61-0.141 1.198-0.247 1.762-0.317 0.565-0.069 1.178-0.105 1.835-0.105 0.728 0 1.382 0.036 1.957 0.105 0.576 0.07 1.229 0.177 1.956 0.317v10.686c0 0.471 0.06 0.765 0.178 0.882 0.117 0.142 0.54 0.281 1.27 0.424 2.021 0.423 4.432 0.635 7.229 0.635 1.551 0 3.146-0.071 4.778-0.212 1.634-0.142 3.263-0.399 4.885-0.776 0.306-0.118 0.6-0.041 0.881 0.23 0.282 0.27 0.506 0.599 0.671 0.987 0.164 0.388 0.253 0.794 0.264 1.215 0 0.44-0.11 0.75-0.32 0.96zm-5.99 2.02c-2.047 0.588-4.186 0.882-6.419 0.882-1.151 0-2.269-0.059-3.351-0.176-1.081-0.118-2.188-0.306-3.314-0.563-0.377-0.095-0.6-0.106-0.67-0.036-0.071 0.07-0.107 0.235-0.107 0.493v18.974c1.904-3.244 4.051-6.506 6.437-9.786 2.38-3.27 4.86-6.53 7.42-9.77z"/>
				
			
		
	
	<g clip-rule="evenodd" fill-rule="evenodd">
		<path d="m183.06 114.28c-1.516 0-2.976 0.24-4.346 0.681 2.291-2.521 3.684-5.869 3.684-9.542 0-7.842-6.355-14.197-14.197-14.197-7.841 0-14.198 6.355-14.198 14.197 0 4.082 1.727 7.76 4.486 10.35-1.153-0.302-2.363-0.465-3.61-0.465-7.842 0-14.197 6.356-14.197 14.197s6.355 14.197 14.197 14.197c4.555 0 8.605-1.514 11.203-4.848-0.649 8.699-1.338 16.147-1.338 16.147h8.507s-1.006-8.212-1.849-17.787c2.564 3.685 6.828 5.78 11.657 5.78 7.842 0 14.197-6.515 14.197-14.356 0.01-7.83-6.35-14.35-14.19-14.35zm-18.19 4.94c-0.022 0.045-0.043 0.089-0.066 0.134-0.07-0.067-0.141-0.134-0.212-0.201 0.1 0.03 0.19 0.05 0.28 0.07z"/>
		<path d="m668.98 689.28c0-7.84-6.356-14.221-14.197-14.221-4.829 0-9.093 2.435-11.657 6.12 0.843-9.574 1.85-17.178 1.85-17.178h-8.509s0.689 6.838 1.339 15.539c-2.598-3.336-6.648-5.424-11.204-5.424-7.841 0-14.196 6.338-14.196 14.179 0 7.84 6.355 14.188 14.196 14.188 1.247 0 2.458-0.167 3.611-0.469-2.76 2.59-4.486 6.266-4.486 10.348 0 7.841 6.357 14.196 14.197 14.196 7.841 0 14.196-6.356 14.196-14.198 0-3.672-1.394-7.021-3.683-9.54 1.369 0.44 2.83 0.68 4.346 0.68 7.83-0.01 14.19-6.39 14.19-14.23zm-32.67 9.35c0.071-0.067 0.143-0.134 0.211-0.201 0.022 0.044 0.045 0.089 0.066 0.134-0.09 0.02-0.19 0.04-0.28 0.07z"/>
	</g>
	<g clip-rule="evenodd" fill-rule="evenodd">
		<path d="m287.7 629.87c-3.735 0-7.331 0.592-10.706 1.677 5.637-6.208 9.074-14.451 9.074-23.497 0-19.309-15.654-34.962-34.962-34.962-19.311 0-34.963 15.653-34.963 34.962 0 10.055 4.25 19.111 11.044 25.489-2.838-0.744-5.818-1.144-8.89-1.144-19.309 0-34.963 15.652-34.963 34.961 0 19.31 15.654 34.963 34.963 34.963 11.216 0 21.193-5.302 27.591-13.515-1.601 21.429-3.297 38.194-3.297 38.194h20.953s-2.478-18.649-4.554-42.229c6.316 9.071 16.815 15.021 28.709 15.021 19.309 0 34.961-15.65 34.961-34.959 0.02-19.3-15.64-34.95-34.95-34.95zm-44.8 12.17c-0.052 0.109-0.108 0.219-0.163 0.329-0.171-0.167-0.344-0.332-0.52-0.497 0.22 0.06 0.45 0.11 0.68 0.17z"/>
		<path d="m286.49 156.93c-3.735 0-7.331 0.592-10.706 1.677 5.637-6.209 9.074-14.452 9.074-23.497 0-19.31-15.653-34.963-34.961-34.963-19.311 0-34.963 15.653-34.963 34.963 0 10.054 4.25 19.11 11.044 25.488-2.839-0.744-5.818-1.144-8.89-1.144-19.31 0-34.963 15.653-34.963 34.961 0 19.31 15.653 34.963 34.963 34.963 11.216 0 21.193-5.329 27.59-13.543-1.601 21.429-3.297 38.167-3.297 38.167h20.953s-2.478-18.622-4.553-42.202c6.315 9.071 16.815 15.035 28.708 15.035 19.31 0 34.962-15.644 34.962-34.953 0.01-19.32-15.64-34.96-34.95-34.96zm-44.8 12.16c-0.052 0.111-0.108 0.219-0.162 0.329-0.172-0.167-0.345-0.332-0.52-0.496 0.22 0.06 0.45 0.12 0.68 0.17z"/>
	</g>
	<g clip-rule="evenodd" fill-rule="evenodd">
		<path d="m565.39 629.87c-3.735 0-7.33 0.592-10.705 1.677 5.637-6.208 9.073-14.451 9.073-23.497 0-19.309-15.653-34.962-34.961-34.962-19.311 0-34.963 15.653-34.963 34.962 0 10.055 4.25 19.111 11.044 25.489-2.839-0.744-5.818-1.144-8.891-1.144-19.309 0-34.962 15.652-34.962 34.961 0 19.31 15.653 34.963 34.962 34.963 11.217 0 21.194-5.302 27.591-13.515-1.601 21.429-3.297 38.194-3.297 38.194h20.953s-2.478-18.649-4.553-42.229c6.315 9.071 16.814 15.021 28.708 15.021 19.31 0 34.962-15.65 34.962-34.959 0.01-19.3-15.64-34.95-34.95-34.95zm-44.8 12.17c-0.052 0.109-0.107 0.219-0.162 0.329-0.172-0.167-0.345-0.332-0.52-0.497 0.22 0.06 0.45 0.11 0.68 0.17z"/>
		<path d="m564.18 156.93c-3.734 0-7.33 0.592-10.705 1.677 5.637-6.209 9.073-14.452 9.073-23.497 0-19.31-15.653-34.963-34.961-34.963-19.311 0-34.963 15.653-34.963 34.963 0 10.054 4.25 19.11 11.044 25.488-2.839-0.744-5.818-1.144-8.89-1.144-19.31 0-34.963 15.653-34.963 34.961 0 19.31 15.653 34.963 34.963 34.963 11.216 0 21.193-5.329 27.591-13.543-1.602 21.429-3.297 38.167-3.297 38.167h20.952s-2.477-18.622-4.553-42.202c6.315 9.071 16.814 15.035 28.708 15.035 19.31 0 34.962-15.644 34.962-34.953 0-19.32-15.65-34.96-34.96-34.96zm-44.8 12.16c-0.052 0.111-0.107 0.219-0.162 0.329-0.172-0.167-0.345-0.332-0.52-0.496 0.22 0.06 0.45 0.12 0.68 0.17z"/>
	</g>

<metadata><rdfRDF><ccWork><dcFormat>image/svg+xml</dcFormat><dcType rdfResource="http://purl.org/dc/dcmitype/StillImage"/><ccLicense rdfResource="http://creativecommons.org/licenses/publicdomain/"/><dcPublisher><ccAgent rdfAbout="http://openclipart.org/"><dcTitle>Openclipart</dcTitle></ccAgent></dcPublisher></ccWork><ccLicense rdfAbout="http://creativecommons.org/licenses/publicdomain/"><ccPermits rdfResource="http://creativecommons.org/ns#Reproduction"/><ccPermits rdfResource="http://creativecommons.org/ns#Distribution"/><ccPermits rdfResource="http://creativecommons.org/ns#DerivativeWorks"/></ccLicense></rdfRDF></metadata></svg>
