<?xml version="1.0" encoding="UTF-8"?>
<svg enable-background="new 0 0 800 800" version="1.1" viewBox="0 0 800 800" xmlSpace="preserve" xmlns="http://www.w3.org/2000/svg" xmlnsCc="http://web.resource.org/cc/" xmlnsDc="http://purl.org/dc/elements/1.1/" xmlnsRdf="http://www.w3.org/1999/02/22-rdf-syntax-ns#">

	
		<path d="m118.79 800c-5.552 0-9.792-4.578-9.792-9.595v-776.4c0-5.016 4.24-9 9.79-9h564.59c5.56 0 10.62 3.984 10.62 9.001v776.4c0 5.017-5.063 9.595-10.614 9.595h-564.6z" fill="#fff"/>
		<path d="m683.01 8.271c3.879 0 6.988 2.386 6.988 5.73v776.4c0 3.344-2.736 6.595-6.614 6.595h-564.6c-3.879 0-7.792-3.251-7.792-6.595v-776.4c0-3.343 3.91-6 7.79-6h564.21m0.39-6h-564.6c-7.23 0-13.79 5.302-13.79 12.001v776.4c0 6.699 6.556 12.595 13.792 12.595h564.59c7.234 0 12.614-5.896 12.614-12.595v-776.4c0.01-6.698-5.36-12-12.59-12h-0.01z"/>
	
	<path d="m543.71 401.96s-93.489 82.103-142.62 155.55c-49.129-79.268-142.62-155.55-142.62-155.55s97.366-93.087 142.62-156.84c46.54 64.4 142.62 156.84 142.62 156.84z" fill="#C60101"/>
	
		
			
				<path d="m152.19 55.294c-0.659 0-1.135 0.106-1.429 0.318-0.294 0.213-0.559 0.589-0.794 1.131l-3.246 8.522c-0.259 0.778-0.388 1.332-0.388 1.662 0 0.612 0.159 1.131 0.477 1.556 0.317 0.424 0.741 0.767 1.27 1.026 0.53 0.259 1.134 0.453 1.816 0.583 0.683 0.13 1.376 0.218 2.082 0.265 0.353 0 0.6 0.128 0.741 0.383 0.141 0.254 0.212 0.521 0.212 0.799 0 0.301-0.071 0.58-0.212 0.835-0.141 0.254-0.388 0.382-0.741 0.382-0.565 0-1.188-0.03-1.87-0.088-0.682-0.059-1.382-0.124-2.099-0.194-0.718-0.071-1.441-0.136-2.17-0.194-0.729-0.059-1.423-0.088-2.082-0.088-1.247 0-2.452 0.094-3.616 0.282-1.165 0.188-2.417 0.282-3.757 0.282-0.283 0-0.507-0.14-0.671-0.417-0.165-0.278-0.247-0.579-0.247-0.904 0-0.255 0.065-0.487 0.194-0.695 0.128-0.208 0.347-0.336 0.653-0.383l1.093-0.141c0.729-0.165 1.381-0.365 1.958-0.6 0.576-0.235 1.123-0.583 1.641-1.042 0.517-0.458 1.011-1.083 1.482-1.871 0.47-0.789 0.964-1.818 1.482-3.09l16.334-41.13c0.141-0.4 0.529-0.6 1.165-0.6 0.658 0 1.187 0.2 1.587 0.6 1.199 3.083 2.487 6.384 3.863 9.903 1.375 3.519 2.781 7.097 4.215 10.733s2.875 7.249 4.322 10.838c1.446 3.59 2.828 6.985 4.146 10.186 0.564 1.389 1.117 2.466 1.658 3.231s1.094 1.348 1.658 1.748 1.14 0.671 1.729 0.812c0.588 0.142 1.211 0.283 1.87 0.424 0.282 0.046 0.488 0.197 0.617 0.452s0.194 0.522 0.194 0.8c0 0.301-0.059 0.568-0.177 0.799s-0.306 0.348-0.564 0.348c-0.753 0-1.499-0.024-2.24-0.071s-1.476-0.118-2.205-0.211c-0.706-0.094-1.458-0.164-2.257-0.211-0.8-0.047-1.647-0.071-2.541-0.071-2.046 0-3.951 0.094-5.715 0.282s-3.47 0.282-5.116 0.282c-0.329 0-0.582-0.128-0.758-0.382-0.177-0.255-0.265-0.557-0.265-0.904 0-0.278 0.07-0.522 0.212-0.73 0.141-0.208 0.388-0.336 0.74-0.383 1.646-0.212 2.846-0.506 3.599-0.884 0.776-0.376 1.165-1.179 1.165-2.405 0-0.33-0.036-0.712-0.106-1.149s-0.223-1.032-0.458-1.786c-0.236-0.754-0.571-1.721-1.006-2.899-0.436-1.179-1.018-2.676-1.746-4.492-0.235-0.636-0.559-1.037-0.97-1.203-0.412-0.165-1.076-0.247-1.994-0.247h-12.7zm12.45-2.822c0.659 0 1.112-0.111 1.359-0.335 0.247-0.223 0.252-0.617 0.018-1.182l-6.315-16.899c-0.094-0.258-0.283-0.388-0.565-0.388s-0.471 0.13-0.564 0.388l-6.597 16.899c-0.235 0.612-0.259 1.018-0.071 1.217 0.188 0.2 0.553 0.3 1.094 0.3h11.64z" fill="#BD0000"/>
			
			<path d="m187.16 109.29s-16.217 14.241-24.74 26.982c-8.522-13.751-24.74-26.982-24.74-26.982s16.891-16.148 24.74-27.207c8.08 11.173 24.74 27.207 24.74 27.207z" fill="#C60101"/>
		
		
			
				<path d="m641.96 744.11c0.658 0 1.135-0.106 1.429-0.32 0.293-0.212 0.559-0.589 0.793-1.131l3.247-8.522c0.258-0.778 0.388-1.331 0.388-1.661 0-0.612-0.158-1.132-0.477-1.556-0.317-0.425-0.74-0.769-1.269-1.026-0.532-0.259-1.136-0.454-1.818-0.583-0.683-0.13-1.377-0.219-2.082-0.266-0.353 0-0.601-0.128-0.739-0.384-0.143-0.253-0.213-0.521-0.213-0.798 0-0.302 0.07-0.581 0.213-0.834 0.139-0.256 0.387-0.384 0.739-0.384 0.566 0 1.189 0.03 1.87 0.088 0.683 0.061 1.383 0.125 2.099 0.195 0.719 0.069 1.441 0.137 2.17 0.193 0.729 0.059 1.424 0.088 2.083 0.088 1.246 0 2.45-0.093 3.615-0.281 1.164-0.188 2.417-0.283 3.757-0.283 0.283 0 0.506 0.139 0.671 0.418 0.164 0.278 0.248 0.58 0.248 0.904 0 0.255-0.066 0.486-0.195 0.693-0.129 0.209-0.347 0.337-0.653 0.384l-1.093 0.141c-0.73 0.166-1.382 0.365-1.959 0.601s-1.122 0.583-1.641 1.041c-0.516 0.46-1.01 1.082-1.48 1.872-0.472 0.787-0.964 1.817-1.483 3.09l-16.333 41.13c-0.142 0.399-0.529 0.6-1.164 0.6-0.66 0-1.188-0.2-1.589-0.6-1.198-3.085-2.487-6.386-3.861-9.904-1.377-3.518-2.781-7.097-4.216-10.731-1.435-3.636-2.876-7.25-4.322-10.84-1.447-3.589-2.828-6.984-4.146-10.185-0.564-1.39-1.117-2.466-1.658-3.23s-1.094-1.348-1.658-1.748-1.141-0.671-1.728-0.813c-0.588-0.14-1.212-0.282-1.87-0.423-0.283-0.047-0.488-0.197-0.618-0.452-0.129-0.256-0.194-0.521-0.194-0.799 0-0.303 0.06-0.569 0.177-0.8s0.307-0.349 0.565-0.349c0.752 0 1.498 0.023 2.239 0.071 0.74 0.047 1.476 0.117 2.206 0.212 0.706 0.094 1.458 0.165 2.258 0.212 0.798 0.046 1.646 0.069 2.54 0.069 2.045 0 3.95-0.093 5.714-0.281 1.765-0.188 3.469-0.283 5.116-0.283 0.329 0 0.582 0.128 0.758 0.384 0.177 0.253 0.266 0.556 0.266 0.902 0 0.278-0.07 0.522-0.213 0.729-0.141 0.209-0.388 0.337-0.739 0.384-1.647 0.212-2.847 0.507-3.6 0.885-0.776 0.377-1.164 1.179-1.164 2.404 0 0.329 0.035 0.713 0.104 1.149 0.071 0.436 0.226 1.03 0.461 1.785 0.234 0.755 0.569 1.722 1.004 2.899 0.437 1.178 1.019 2.676 1.746 4.491 0.235 0.636 0.56 1.038 0.972 1.202 0.411 0.166 1.075 0.249 1.992 0.249h12.73zm-12.46 2.82c-0.658 0-1.111 0.112-1.357 0.335-0.248 0.224-0.254 0.617-0.02 1.182l6.316 16.898c0.094 0.259 0.283 0.389 0.564 0.389 0.283 0 0.471-0.13 0.564-0.389l6.597-16.898c0.236-0.611 0.261-1.018 0.07-1.217-0.187-0.2-0.552-0.3-1.093-0.3h-11.64z" fill="#BD0000"/>
			
			<path d="m606.99 690.11s16.216-14.242 24.738-26.983c8.522 13.751 24.739 26.983 24.739 26.983s-16.889 16.146-24.739 27.206c-8.08-11.17-24.74-27.21-24.74-27.21z" fill="#C60101"/>
		
	

<metadata><rdfRDF><ccWork><dcFormat>image/svg+xml</dcFormat><dcType rdfResource="http://purl.org/dc/dcmitype/StillImage"/><ccLicense rdfResource="http://creativecommons.org/licenses/publicdomain/"/><dcPublisher><ccAgent rdfAbout="http://openclipart.org/"><dcTitle>Openclipart</dcTitle></ccAgent></dcPublisher></ccWork><ccLicense rdfAbout="http://creativecommons.org/licenses/publicdomain/"><ccPermits rdfResource="http://creativecommons.org/ns#Reproduction"/><ccPermits rdfResource="http://creativecommons.org/ns#Distribution"/><ccPermits rdfResource="http://creativecommons.org/ns#DerivativeWorks"/></ccLicense></rdfRDF></metadata></svg>
