<?xml version="1.0" encoding="UTF-8"?>
<svg enable-background="new 0 0 800 800" version="1.1" viewBox="0 0 800 800" xmlSpace="preserve" xmlns="http://www.w3.org/2000/svg" xmlnsCc="http://web.resource.org/cc/" xmlnsDc="http://purl.org/dc/elements/1.1/" xmlnsRdf="http://www.w3.org/1999/02/22-rdf-syntax-ns#">

	
		<path d="m118.79 800c-5.552 0-9.792-4.578-9.792-9.595v-776.4c0-5.016 4.24-9 9.79-9h564.59c5.56 0 10.62 3.984 10.62 9.001v776.4c0 5.017-5.063 9.595-10.614 9.595h-564.6z" fill="#fff"/>
		<path d="m683.01 8.271c3.879 0 6.988 2.386 6.988 5.73v776.4c0 3.344-2.736 6.595-6.614 6.595h-564.6c-3.879 0-7.792-3.251-7.792-6.595v-776.4c0-3.343 3.91-6 7.79-6h564.21m0.39-6h-564.6c-7.23 0-13.79 5.302-13.79 12.001v776.4c0 6.699 6.556 12.595 13.792 12.595h564.59c7.234 0 12.614-5.896 12.614-12.595v-776.4c0.01-6.698-5.36-12-12.59-12h-0.01z"/>
	
	
		
			
				<path d="m164.44 66.407c2.14 0 3.798-0.564 4.975-1.694 1.199-1.152 2.093-3.21 2.681-6.174 0.047-0.258 0.182-0.452 0.406-0.582 0.223-0.129 0.465-0.194 0.723-0.194 0.353 0 0.688 0.095 1.005 0.283 0.318 0.188 0.476 0.447 0.476 0.776 0 1.647-0.158 3.299-0.476 4.957-0.317 1.658-0.799 3.158-1.447 4.499-0.646 1.34-1.481 2.434-2.504 3.281-1.023 0.846-2.241 1.27-3.651 1.27-1.552 0-3.129-0.077-4.728-0.229-1.6-0.153-3.164-0.33-4.692-0.53-1.529-0.2-2.993-0.375-4.392-0.529-1.4-0.153-2.677-0.229-3.829-0.229-1.576-0.047-2.928 0.141-4.057 0.564-0.588 0.188-1.129 0.359-1.622 0.511-0.495 0.153-0.941 0.277-1.341 0.371-0.612 0-1.005-0.218-1.182-0.653s-0.265-0.887-0.265-1.358c0-0.283 0.07-0.624 0.212-1.023 0.917-2.258 1.969-4.24 3.157-5.945 1.187-1.704 2.439-3.228 3.757-4.568 1.317-1.34 2.664-2.545 4.04-3.616 1.375-1.071 2.722-2.087 4.039-3.052 1.317-0.988 2.563-1.964 3.74-2.928 1.176-0.965 2.199-2.023 3.069-3.176 0.87-1.152 1.564-2.434 2.082-3.846 0.517-1.411 0.776-3.057 0.776-4.939 0-3.48-0.753-6.221-2.258-8.22-1.481-2.046-3.893-3.069-7.232-3.069-1.53 0-2.864 0.264-4.004 0.794-1.141 0.529-2.087 1.164-2.84 1.905s-1.317 1.505-1.693 2.293c-0.376 0.789-0.564 1.441-0.564 1.958 0 0.211 0.023 0.493 0.07 0.846 0.047 0.354 0.176 0.7 0.388 1.041 0.211 0.341 0.529 0.63 0.953 0.865 0.423 0.236 1.011 0.353 1.764 0.353 1.082 0 1.846 0.276 2.293 0.829 0.446 0.553 0.67 1.241 0.67 2.064 0 0.894-0.317 1.705-0.953 2.434-0.588 0.729-1.54 1.093-2.857 1.093-1.247 0-2.258-0.247-3.034-0.74-0.777-0.494-1.383-1.094-1.818-1.799-0.436-0.706-0.735-1.452-0.899-2.24-0.165-0.788-0.247-1.476-0.247-2.064 0-1.716 0.364-3.351 1.094-4.904 0.729-1.552 1.752-2.904 3.069-4.057 1.317-1.152 2.898-2.069 4.745-2.751 1.846-0.682 3.886-1.023 6.121-1.023 2.681 0 4.986 0.323 6.915 0.97 1.928 0.647 3.515 1.552 4.762 2.716 1.246 1.165 2.164 2.552 2.752 4.163s0.882 3.382 0.882 5.31c0 2.775-0.612 5.174-1.834 7.197-1.223 2.046-2.752 3.887-4.586 5.521-1.834 1.635-3.81 3.134-5.927 4.498-1.058 0.683-2.081 1.353-3.069 2.011s-1.94 1.317-2.857 1.975c-1.834 1.294-3.364 2.611-4.586 3.952-1.223 1.317-1.834 2.811-1.834 4.48 0 0.118 0.587 0.047 1.764-0.211 1.223-0.259 2.658-0.388 4.304-0.388 0.917 0 1.805 0.047 2.664 0.141 0.858 0.095 1.681 0.206 2.47 0.335 0.788 0.13 1.552 0.242 2.293 0.335 0.74 0.093 1.46 0.14 2.17 0.14z" fill="#BD0000"/>
			
			<path d="m182.31 109.29s-16.217 14.241-24.74 26.982c-8.521-13.751-24.74-26.982-24.74-26.982s16.89-16.148 24.74-27.207c8.07 11.173 24.74 27.207 24.74 27.207z" fill="#C60101"/>
		
		
			
				<path d="m620 733c-2.14 0-3.798 0.564-4.975 1.692-1.2 1.152-2.093 3.211-2.681 6.175-0.048 0.258-0.183 0.452-0.405 0.581-0.224 0.129-0.464 0.195-0.724 0.195-0.354 0-0.688-0.096-1.006-0.284-0.317-0.187-0.477-0.446-0.477-0.774 0-1.646 0.159-3.3 0.477-4.957 0.317-1.658 0.801-3.158 1.447-4.499 0.647-1.34 1.481-2.434 2.505-3.28 1.022-0.848 2.239-1.271 3.651-1.271 1.552 0 3.127 0.077 4.727 0.229 1.6 0.154 3.163 0.329 4.691 0.53 1.531 0.199 2.995 0.375 4.394 0.529 1.4 0.152 2.676 0.23 3.828 0.23 1.576 0.045 2.928-0.143 4.057-0.565 0.588-0.189 1.13-0.359 1.623-0.511 0.493-0.154 0.941-0.277 1.342-0.372 0.61 0 1.004 0.218 1.181 0.653 0.177 0.434 0.264 0.887 0.264 1.358 0 0.281-0.071 0.623-0.21 1.023-0.918 2.258-1.971 4.238-3.159 5.944-1.187 1.704-2.439 3.228-3.756 4.568-1.317 1.342-2.664 2.544-4.04 3.615-1.376 1.072-2.722 2.088-4.039 3.053-1.316 0.987-2.563 1.964-3.74 2.928-1.177 0.965-2.198 2.023-3.069 3.176-0.87 1.15-1.563 2.433-2.081 3.846-0.519 1.411-0.776 3.056-0.776 4.938 0 3.48 0.753 6.221 2.258 8.22 1.481 2.046 3.894 3.069 7.231 3.069 1.531 0 2.864-0.265 4.004-0.794 1.143-0.528 2.088-1.163 2.841-1.905 0.754-0.741 1.318-1.505 1.693-2.293 0.377-0.787 0.564-1.441 0.564-1.957 0-0.213-0.023-0.495-0.07-0.848s-0.177-0.7-0.389-1.041c-0.21-0.342-0.528-0.629-0.952-0.864s-1.011-0.353-1.763-0.353c-1.083 0-1.848-0.276-2.294-0.828-0.446-0.555-0.671-1.241-0.671-2.065 0-0.894 0.318-1.704 0.953-2.435 0.587-0.729 1.54-1.092 2.857-1.092 1.246 0 2.258 0.247 3.033 0.739 0.776 0.495 1.383 1.095 1.818 1.801 0.435 0.705 0.735 1.451 0.898 2.239 0.166 0.788 0.246 1.477 0.246 2.063 0 1.719-0.363 3.354-1.092 4.904-0.729 1.553-1.753 2.905-3.07 4.057-1.316 1.153-2.898 2.069-4.743 2.752-1.848 0.682-3.888 1.022-6.123 1.022-2.681 0-4.985-0.322-6.914-0.969s-3.516-1.552-4.763-2.717c-1.246-1.164-2.163-2.553-2.752-4.162-0.588-1.611-0.882-3.383-0.882-5.311 0-2.775 0.612-5.174 1.835-7.197 1.223-2.046 2.751-3.886 4.585-5.521 1.836-1.635 3.811-3.135 5.929-4.498 1.057-0.683 2.08-1.354 3.068-2.011 0.988-0.658 1.941-1.316 2.857-1.977 1.834-1.293 3.365-2.61 4.588-3.951 1.222-1.317 1.834-2.811 1.834-4.48 0-0.118-0.589-0.048-1.765 0.213-1.223 0.258-2.657 0.388-4.304 0.388-0.917 0-1.806-0.048-2.664-0.142-0.858-0.095-1.682-0.206-2.47-0.335-0.788-0.13-1.552-0.242-2.293-0.336s-1.47-0.14-2.18-0.14z" fill="#BD0000"/>
			
			<path d="m602.13 690.11s16.219-14.242 24.741-26.983c8.521 13.751 24.738 26.983 24.738 26.983s-16.889 16.146-24.738 27.206c-8.07-11.17-24.74-27.21-24.74-27.21z" fill="#C60101"/>
		
	
	<path d="m456.8 658.79s-42.878 37.655-65.411 71.343c-22.534-36.355-65.413-71.343-65.413-71.343s44.657-42.694 65.413-71.933c21.34 29.54 65.41 71.93 65.41 71.93z" fill="#C60101"/>
	<path d="m460.44 178.4s-42.879 37.655-65.411 71.342c-22.534-36.356-65.413-71.342-65.413-71.342s44.657-42.695 65.413-71.934c21.34 29.53 65.41 71.93 65.41 71.93z" fill="#C60101"/>

<metadata><rdfRDF><ccWork><dcFormat>image/svg+xml</dcFormat><dcType rdfResource="http://purl.org/dc/dcmitype/StillImage"/><ccLicense rdfResource="http://creativecommons.org/licenses/publicdomain/"/><dcPublisher><ccAgent rdfAbout="http://openclipart.org/"><dcTitle>Openclipart</dcTitle></ccAgent></dcPublisher></ccWork><ccLicense rdfAbout="http://creativecommons.org/licenses/publicdomain/"><ccPermits rdfResource="http://creativecommons.org/ns#Reproduction"/><ccPermits rdfResource="http://creativecommons.org/ns#Distribution"/><ccPermits rdfResource="http://creativecommons.org/ns#DerivativeWorks"/></ccLicense></rdfRDF></metadata></svg>
