<?xml version="1.0" encoding="UTF-8"?>
<svg enable-background="new 0 0 800 800" version="1.1" viewBox="0 0 800 800" xmlSpace="preserve" xmlns="http://www.w3.org/2000/svg" xmlnsCc="http://web.resource.org/cc/" xmlnsDc="http://purl.org/dc/elements/1.1/" xmlnsRdf="http://www.w3.org/1999/02/22-rdf-syntax-ns#">

	
		<path d="m118.79 800c-5.552 0-9.792-4.578-9.792-9.595v-776.4c0-5.016 4.24-9 9.79-9h564.59c5.56 0 10.62 3.984 10.62 9.001v776.4c0 5.017-5.063 9.595-10.614 9.595h-564.6z" fill="#fff"/>
		<path d="m683.01 8.271c3.879 0 6.988 2.386 6.988 5.73v776.4c0 3.344-2.736 6.595-6.614 6.595h-564.6c-3.879 0-7.792-3.251-7.792-6.595v-776.4c0-3.343 3.91-6 7.79-6h564.21m0.39-6h-564.6c-7.23 0-13.79 5.302-13.79 12.001v776.4c0 6.699 6.556 12.595 13.792 12.595h564.59c7.234 0 12.614-5.896 12.614-12.595v-776.4c0.01-6.698-5.36-12-12.59-12h-0.01z"/>
	
	
		
			
				<path d="m162.13 50.488c-0.917 0-1.771 0.095-2.558 0.282-0.788 0.189-1.229 0.283-1.323 0.283-0.4 0-0.693-0.129-0.882-0.388s-0.305-0.559-0.353-0.899c-0.047-0.341 0-0.671 0.141-0.988s0.388-0.5 0.741-0.547c2.022-0.282 3.68-0.77 4.974-1.463 1.294-0.694 2.34-1.547 3.14-2.558 0.799-1.011 1.353-2.146 1.658-3.405 0.305-1.257 0.459-2.604 0.459-4.039 0-1.105-0.142-2.141-0.424-3.105-0.283-0.964-0.752-1.811-1.411-2.541-0.659-0.729-1.505-1.299-2.541-1.71-1.035-0.411-2.316-0.617-3.845-0.617-1.599 0-2.987 0.241-4.162 0.723-1.177 0.482-2.152 1.076-2.929 1.781-0.776 0.706-1.353 1.417-1.729 2.135-0.377 0.717-0.564 1.323-0.564 1.817 0 0.188 0.023 0.453 0.07 0.793 0.046 0.341 0.164 0.665 0.353 0.97 0.188 0.306 0.5 0.571 0.935 0.794s1.041 0.335 1.817 0.335c1.059 0 1.816 0.276 2.276 0.829 0.458 0.553 0.688 1.241 0.688 2.063 0 0.847-0.317 1.647-0.952 2.399-0.635 0.753-1.6 1.129-2.893 1.129-1.247 0-2.258-0.241-3.034-0.723s-1.382-1.082-1.817-1.799c-0.435-0.718-0.735-1.476-0.899-2.276-0.165-0.799-0.247-1.493-0.247-2.081 0-1.623 0.388-3.169 1.165-4.64 0.776-1.47 1.834-2.745 3.175-3.827 1.34-1.081 2.904-1.94 4.692-2.575 1.787-0.635 3.669-0.953 5.646-0.953 1.881 0 3.697 0.241 5.447 0.723 1.749 0.483 3.287 1.194 4.609 2.135 1.323 0.94 2.394 2.099 3.214 3.475 0.819 1.375 1.229 2.934 1.229 4.674 0 2.775-0.905 5.045-2.716 6.809-1.812 1.764-4.233 3.223-7.268 4.375-0.141 0.047-0.211 0.141-0.211 0.282s0.094 0.211 0.282 0.211c4.374 0.447 7.567 1.829 9.578 4.146 2.011 2.316 3.016 5.203 3.016 8.66 0 2.611-0.565 4.816-1.693 6.615-1.129 1.799-2.611 3.263-4.445 4.392s-3.928 1.958-6.28 2.487c-2.353 0.53-4.762 0.794-7.232 0.794-1.294 0-2.711-0.083-4.25-0.247-1.541-0.165-2.964-0.5-4.269-1.005s-2.387-1.217-3.246-2.134c-0.858-0.917-1.288-2.14-1.288-3.669 0-1.199 0.335-2.164 1.005-2.893s1.628-1.094 2.875-1.094c0.776 0 1.535 0.253 2.275 0.758 0.741 0.506 1.111 1.265 1.111 2.275 0 0.542-0.106 0.953-0.317 1.235-0.212 0.282-0.317 0.647-0.317 1.093 0 0.612 0.229 1.124 0.688 1.535 0.459 0.412 1.035 0.741 1.729 0.988 0.693 0.247 1.429 0.418 2.205 0.511 0.775 0.095 1.505 0.142 2.188 0.142 2.022 0 3.727-0.353 5.115-1.058 1.388-0.706 2.505-1.6 3.352-2.682 0.846-1.082 1.463-2.281 1.852-3.599 0.389-1.317 0.583-2.61 0.583-3.88 0-1.481-0.183-2.898-0.547-4.251-0.365-1.352-0.882-2.545-1.552-3.581s-1.512-1.864-2.522-2.487c-1.06-0.622-2.25-0.934-3.61-0.934z" fill="#BD0000"/>
			
			<path d="m189.59 111.72s-16.218 14.241-24.74 26.982c-8.522-13.751-24.74-26.982-24.74-26.982s16.889-16.148 24.74-27.207c8.07 11.169 24.74 27.207 24.74 27.207z" fill="#C60101"/>
		
		
			
				<path d="m633.23 753.77c0.918 0 1.771-0.096 2.558-0.283 0.789-0.188 1.229-0.281 1.323-0.281 0.399 0 0.693 0.128 0.883 0.387 0.188 0.26 0.305 0.559 0.352 0.899 0.048 0.342 0 0.671-0.141 0.988-0.142 0.317-0.389 0.499-0.742 0.547-2.021 0.282-3.679 0.771-4.973 1.465-1.294 0.692-2.341 1.546-3.14 2.556-0.8 1.013-1.354 2.147-1.659 3.405-0.305 1.259-0.459 2.605-0.459 4.04 0 1.105 0.143 2.14 0.424 3.104 0.282 0.965 0.754 1.812 1.412 2.541 0.659 0.729 1.505 1.3 2.54 1.712 1.034 0.41 2.316 0.616 3.846 0.616 1.6 0 2.985-0.241 4.162-0.723 1.177-0.483 2.151-1.075 2.928-1.782 0.776-0.706 1.352-1.416 1.729-2.134s0.564-1.322 0.564-1.817c0-0.188-0.022-0.453-0.069-0.794s-0.166-0.663-0.354-0.969-0.499-0.571-0.935-0.794c-0.436-0.226-1.041-0.337-1.817-0.337-1.059 0-1.816-0.275-2.274-0.828-0.461-0.553-0.689-1.239-0.689-2.063 0-0.847 0.318-1.646 0.953-2.399 0.636-0.753 1.601-1.129 2.893-1.129 1.248 0 2.257 0.241 3.034 0.724 0.776 0.481 1.382 1.081 1.818 1.799 0.435 0.718 0.734 1.477 0.898 2.275 0.165 0.8 0.248 1.494 0.248 2.082 0 1.623-0.389 3.169-1.166 4.64-0.774 1.469-1.834 2.745-3.176 3.827-1.339 1.081-2.902 1.94-4.69 2.575-1.786 0.635-3.669 0.952-5.646 0.952-1.881 0-3.697-0.241-5.447-0.723s-3.286-1.194-4.609-2.135c-1.322-0.94-2.394-2.099-3.213-3.474-0.82-1.377-1.229-2.936-1.229-4.675 0-2.776 0.905-5.046 2.717-6.81 1.811-1.764 4.232-3.223 7.268-4.375 0.14-0.046 0.211-0.142 0.211-0.281 0-0.142-0.094-0.212-0.282-0.212-4.374-0.446-7.567-1.829-9.578-4.146s-3.017-5.202-3.017-8.661c0-2.61 0.565-4.816 1.693-6.614 1.129-1.801 2.61-3.264 4.444-4.393 1.835-1.129 3.93-1.958 6.28-2.488 2.353-0.528 4.763-0.794 7.232-0.794 1.295 0 2.711 0.084 4.251 0.248 1.541 0.165 2.964 0.499 4.27 1.006 1.305 0.505 2.386 1.217 3.246 2.134 0.858 0.918 1.287 2.141 1.287 3.669 0 1.199-0.336 2.163-1.005 2.893-0.671 0.729-1.629 1.095-2.877 1.095-0.775 0-1.534-0.253-2.273-0.759-0.742-0.507-1.112-1.265-1.112-2.276 0-0.539 0.106-0.952 0.317-1.234 0.212-0.281 0.318-0.646 0.318-1.094 0-0.612-0.229-1.123-0.689-1.534-0.458-0.412-1.033-0.741-1.728-0.987-0.694-0.248-1.429-0.419-2.206-0.512-0.774-0.095-1.505-0.143-2.187-0.143-2.022 0-3.728 0.354-5.116 1.059-1.387 0.706-2.505 1.601-3.351 2.683-0.848 1.081-1.463 2.28-1.853 3.598-0.388 1.317-0.582 2.61-0.582 3.88 0 1.482 0.182 2.899 0.547 4.253 0.364 1.352 0.882 2.545 1.552 3.58 0.671 1.034 1.512 1.862 2.523 2.487 1.04 0.58 2.23 0.9 3.59 0.9z" fill="#BD0000"/>
			
			<path d="m609.41 692.54s16.219-14.242 24.74-26.983c8.521 13.752 24.74 26.983 24.74 26.983s-16.889 16.147-24.74 27.206c-8.07-11.18-24.74-27.21-24.74-27.21z" fill="#C60101"/>
		
	
	<path d="m467.71 177.18s-42.88 37.655-65.412 71.342c-22.533-36.355-65.412-71.342-65.412-71.342s44.657-42.695 65.412-71.933c21.35 29.53 65.41 71.93 65.41 71.93z" fill="#C60101"/>
	<path d="m466.5 428.3s-42.879 37.654-65.412 71.343c-22.533-36.356-65.412-71.343-65.412-71.343s44.657-42.695 65.412-71.934c21.35 29.53 65.41 71.93 65.41 71.93z" fill="#C60101"/>
	<path d="m468.93 657.58s-42.88 37.655-65.412 71.343c-22.533-36.356-65.412-71.343-65.412-71.343s44.657-42.695 65.412-71.934c21.34 29.53 65.41 71.93 65.41 71.93z" fill="#C60101"/>

<metadata><rdfRDF><ccWork><dcFormat>image/svg+xml</dcFormat><dcType rdfResource="http://purl.org/dc/dcmitype/StillImage"/><ccLicense rdfResource="http://creativecommons.org/licenses/publicdomain/"/><dcPublisher><ccAgent rdfAbout="http://openclipart.org/"><dcTitle>Openclipart</dcTitle></ccAgent></dcPublisher></ccWork><ccLicense rdfAbout="http://creativecommons.org/licenses/publicdomain/"><ccPermits rdfResource="http://creativecommons.org/ns#Reproduction"/><ccPermits rdfResource="http://creativecommons.org/ns#Distribution"/><ccPermits rdfResource="http://creativecommons.org/ns#DerivativeWorks"/></ccLicense></rdfRDF></metadata></svg>
