<?xml version="1.0" encoding="UTF-8"?>
<svg enable-background="new 0 0 800 800" version="1.1" viewBox="108 0 592 800" xmlSpace="preserve" xmlns="http://www.w3.org/2000/svg" xmlnsCc="http://web.resource.org/cc/" xmlnsDc="http://purl.org/dc/elements/1.1/" xmlnsRdf="http://www.w3.org/1999/02/22-rdf-syntax-ns#">

	
		<path d="m118.79 800c-5.552 0-9.792-4.578-9.792-9.595v-776.4c0-5.016 4.24-9 9.79-9h564.59c5.56 0 10.62 3.984 10.62 9.001v776.4c0 5.017-5.063 9.595-10.614 9.595h-564.6z" fill="#fff"/>
		<path d="m683.01 8.271c3.879 0 6.988 2.386 6.988 5.73v776.4c0 3.344-2.736 6.595-6.614 6.595h-564.6c-3.879 0-7.792-3.251-7.792-6.595v-776.4c0-3.343 3.91-6 7.79-6h564.21m0.39-6h-564.6c-7.23 0-13.79 5.302-13.79 12.001v776.4c0 6.699 6.556 12.595 13.792 12.595h564.59c7.234 0 12.614-5.896 12.614-12.595v-776.4c0.01-6.698-5.36-12-12.59-12h-0.01z"/>
	
	
		
			
				<path d="m146.23 67.151c2.352-2.751 4.645-5.585 6.88-8.502 2.234-2.916 4.375-5.821 6.42-8.714 2.046-2.893 3.975-5.708 5.786-8.449 1.811-2.74 3.469-5.31 4.975-7.708 0.188-0.306 0.429-0.523 0.724-0.652 0.293-0.129 0.604-0.194 0.935-0.194 0.423 0 0.805 0.083 1.146 0.247 0.341 0.165 0.512 0.341 0.512 0.529v31.575c0 0.376 0.1 0.588 0.3 0.635 0.2 0.048 0.559 0.071 1.077 0.071 0.423 0 0.893-0.036 1.411-0.106 0.517-0.07 1.029-0.182 1.535-0.334 0.505-0.153 0.981-0.335 1.429-0.548 0.446-0.211 0.799-0.458 1.059-0.74 0.141-0.188 0.317-0.294 0.529-0.317s0.411 0.018 0.6 0.123c0.188 0.106 0.323 0.247 0.406 0.424 0.082 0.176 0.076 0.37-0.018 0.582-0.871 1.811-2.035 3.234-3.493 4.269-1.412 0.988-2.752 1.541-4.022 1.658-0.4 0.047-0.635 0.141-0.706 0.282-0.07 0.141-0.106 0.694-0.106 1.658v9.243c-0.612 0.141-1.199 0.247-1.764 0.317-0.564 0.071-1.177 0.106-1.834 0.106-0.729 0-1.382-0.036-1.958-0.106-0.577-0.07-1.229-0.176-1.958-0.317v-10.693c0-0.47-0.059-0.764-0.177-0.882-0.118-0.141-0.541-0.282-1.27-0.424-2.023-0.422-4.434-0.635-7.232-0.635-1.553 0-3.146 0.071-4.78 0.212-1.635 0.141-3.263 0.399-4.887 0.775-0.306 0.118-0.6 0.042-0.882-0.229-0.282-0.27-0.505-0.6-0.67-0.988s-0.252-0.793-0.264-1.216c-0.03-0.422 0.07-0.74 0.28-0.952zm6-2.01c2.046-0.588 4.186-0.882 6.42-0.882 1.152 0 2.27 0.059 3.352 0.176 1.082 0.119 2.188 0.307 3.316 0.564 0.376 0.095 0.6 0.106 0.67 0.036 0.071-0.07 0.106-0.234 0.106-0.494v-18.98c-1.905 3.245-4.052 6.508-6.438 9.79-2.39 3.28-4.87 6.543-7.43 9.79z" fill="#BD0000"/>
			
			<path d="m190.8 119s-16.219 14.241-24.74 26.982c-8.521-13.75-24.74-26.982-24.74-26.982s16.889-16.148 24.74-27.207c8.08 11.167 24.74 27.207 24.74 27.207z" fill="#C60101"/>
		
		
			
				<path d="m651.56 751.66c-2.352 2.751-4.644 5.585-6.879 8.502-2.233 2.915-4.375 5.82-6.42 8.714-2.048 2.893-3.977 5.708-5.786 8.448-1.812 2.74-3.469 5.311-4.977 7.709-0.187 0.306-0.429 0.524-0.723 0.652-0.293 0.13-0.604 0.194-0.935 0.194-0.423 0-0.804-0.083-1.145-0.247-0.342-0.164-0.513-0.34-0.513-0.528v-31.575c0-0.376-0.101-0.589-0.301-0.635-0.199-0.048-0.558-0.07-1.076-0.07-0.423 0-0.893 0.035-1.41 0.105-0.518 0.069-1.03 0.182-1.534 0.336-0.506 0.151-0.982 0.333-1.43 0.546-0.446 0.212-0.8 0.458-1.059 0.74-0.141 0.188-0.316 0.294-0.528 0.316-0.213 0.024-0.412-0.016-0.601-0.122-0.188-0.106-0.323-0.246-0.406-0.423-0.08-0.177-0.076-0.371 0.02-0.582 0.868-1.812 2.034-3.234 3.492-4.27 1.411-0.988 2.75-1.541 4.021-1.657 0.4-0.048 0.635-0.142 0.706-0.284 0.071-0.139 0.106-0.692 0.106-1.657v-9.242c0.612-0.142 1.199-0.247 1.763-0.317 0.565-0.07 1.178-0.105 1.835-0.105 0.729 0 1.383 0.035 1.958 0.105 0.576 0.07 1.23 0.176 1.958 0.317v10.689c0 0.471 0.06 0.764 0.178 0.881 0.117 0.143 0.54 0.282 1.271 0.425 2.022 0.423 4.433 0.635 7.231 0.635 1.552 0 3.146-0.071 4.779-0.212 1.635-0.142 3.265-0.399 4.888-0.776 0.306-0.118 0.599-0.042 0.881 0.229s0.506 0.6 0.67 0.988c0.165 0.388 0.255 0.794 0.265 1.216 0.01 0.4-0.09 0.72-0.3 0.93zm-6 2.01c-2.047 0.588-4.186 0.882-6.42 0.882-1.152 0-2.271-0.058-3.353-0.176-1.081-0.118-2.188-0.306-3.315-0.564-0.377-0.094-0.6-0.106-0.67-0.035-0.071 0.07-0.107 0.234-0.107 0.493v18.981c1.905-3.246 4.052-6.509 6.439-9.791 2.38-3.28 4.86-6.54 7.42-9.79z" fill="#BD0000"/>
			
			<path d="m610.63 699.82s16.218-14.241 24.739-26.982c8.522 13.751 24.74 26.982 24.74 26.982s-16.889 16.147-24.74 27.207c-8.08-11.18-24.74-27.21-24.74-27.21z" fill="#C60101"/>
		
	
	<path d="m621.78 660.01s-42.879 37.654-65.412 71.343c-22.533-36.355-65.412-71.343-65.412-71.343s44.657-42.694 65.412-71.933c21.35 29.53 65.41 71.93 65.41 71.93z" fill="#C60101"/>
	<path d="m319.71 663.65s-42.878 37.654-65.412 71.343c-22.533-36.355-65.412-71.343-65.412-71.343s44.658-42.694 65.412-71.934c21.35 29.53 65.41 71.93 65.41 71.93z" fill="#C60101"/>
	<path d="m322.14 178.4s-42.879 37.655-65.412 71.342c-22.533-36.356-65.412-71.342-65.412-71.342s44.657-42.695 65.412-71.934c21.35 29.53 65.41 71.93 65.41 71.93z" fill="#C60101"/>
	<path d="m627.85 173.54s-42.879 37.655-65.411 71.342c-22.533-36.355-65.412-71.342-65.412-71.342s44.656-42.695 65.412-71.934c21.34 29.53 65.41 71.93 65.41 71.93z" fill="#C60101"/>

<metadata><rdfRDF><ccWork><dcFormat>image/svg+xml</dcFormat><dcType rdfResource="http://purl.org/dc/dcmitype/StillImage"/><ccLicense rdfResource="http://creativecommons.org/licenses/publicdomain/"/><dcPublisher><ccAgent rdfAbout="http://openclipart.org/"><dcTitle>Openclipart</dcTitle></ccAgent></dcPublisher></ccWork><ccLicense rdfAbout="http://creativecommons.org/licenses/publicdomain/"><ccPermits rdfResource="http://creativecommons.org/ns#Reproduction"/><ccPermits rdfResource="http://creativecommons.org/ns#Distribution"/><ccPermits rdfResource="http://creativecommons.org/ns#DerivativeWorks"/></ccLicense></rdfRDF></metadata></svg>
