<?xml version="1.0" encoding="UTF-8"?>
<svg enable-background="new 0 0 800 800" version="1.1" viewBox="0 0 800 800" xmlSpace="preserve" xmlns="http://www.w3.org/2000/svg" xmlnsCc="http://web.resource.org/cc/" xmlnsDc="http://purl.org/dc/elements/1.1/" xmlnsRdf="http://www.w3.org/1999/02/22-rdf-syntax-ns#">

	
		<path d="m118.79 800c-5.552 0-9.792-4.578-9.792-9.595v-776.4c0-5.016 4.24-9 9.79-9h564.59c5.56 0 10.62 3.984 10.62 9.001v776.4c0 5.017-5.063 9.595-10.614 9.595h-564.6z" fill="#fff"/>
		<path d="m683.01 8.271c3.879 0 6.988 2.386 6.988 5.73v776.4c0 3.344-2.736 6.595-6.614 6.595h-564.6c-3.879 0-7.792-3.251-7.792-6.595v-776.4c0-3.343 3.91-6 7.79-6h564.21m0.39-6h-564.6c-7.23 0-13.79 5.302-13.79 12.001v776.4c0 6.699 6.556 12.595 13.792 12.595h564.59c7.234 0 12.614-5.896 12.614-12.595v-776.4c0.01-6.698-5.36-12-12.59-12h-0.01z"/>
	
	
		
			
				<path d="m157.39 37.486c0.964 0 2.146 0.06 3.545 0.177 1.399 0.118 2.893 0.253 4.48 0.406 1.588 0.153 3.211 0.288 4.869 0.405 1.659 0.118 3.24 0.177 4.746 0.177 0.776 0 1.452-0.135 2.028-0.406 0.577-0.271 1.065-0.6 1.465-0.988s0.723-0.799 0.97-1.234 0.44-0.817 0.582-1.147c0.118-0.211 0.329-0.317 0.635-0.317 0.258 0 0.499 0.029 0.723 0.088 0.223 0.059 0.429 0.171 0.617 0.335 0.188 0.165 0.247 0.352 0.177 0.564-0.141 0.542-0.3 1.146-0.477 1.816-0.176 0.671-0.388 1.341-0.635 2.011s-0.541 1.33-0.882 1.976c-0.341 0.647-0.753 1.223-1.235 1.728-0.482 0.507-1.047 0.913-1.693 1.217-0.647 0.307-1.406 0.471-2.275 0.495-1.2 0-2.417-0.036-3.651-0.106-1.235-0.071-2.511-0.188-3.828-0.353-1.294-0.165-2.653-0.293-4.075-0.388-1.423-0.094-2.923-0.153-4.499-0.177-0.188 1.717-0.323 3.363-0.405 4.939-0.083 1.577-0.124 3.188-0.124 4.833v1.288c0 0.436 0.011 0.888 0.035 1.358 0.329-0.164 0.746-0.323 1.252-0.477 0.506-0.152 1.076-0.287 1.711-0.406 0.635-0.117 1.312-0.211 2.029-0.282 0.717-0.07 1.452-0.105 2.205-0.105 2.281 0 4.456 0.353 6.526 1.058 2.07 0.706 3.893 1.706 5.469 2.999 1.575 1.294 2.828 2.853 3.757 4.675 0.929 1.823 1.394 3.839 1.394 6.05 0 2.729-0.471 5.133-1.412 7.215s-2.275 3.822-4.004 5.221c-1.728 1.4-3.815 2.458-6.262 3.176-2.446 0.717-5.174 1.076-8.185 1.076-1.176 0-2.435-0.088-3.774-0.265-1.341-0.176-2.575-0.488-3.704-0.935-1.129-0.446-2.07-1.052-2.823-1.816s-1.129-1.723-1.129-2.875c0-0.847 0.27-1.717 0.812-2.61 0.564-0.87 1.399-1.306 2.505-1.306 0.423 0 0.847 0.065 1.27 0.195 0.423 0.129 0.799 0.329 1.129 0.599 0.329 0.271 0.593 0.6 0.793 0.988 0.199 0.388 0.3 0.829 0.3 1.323 0 0.235-0.035 0.441-0.105 0.617-0.071 0.176-0.147 0.341-0.229 0.494-0.083 0.153-0.159 0.306-0.23 0.458-0.07 0.153-0.105 0.324-0.105 0.512 0 0.424 0.205 0.771 0.618 1.041 0.411 0.271 0.929 0.489 1.552 0.653 0.623 0.165 1.311 0.276 2.063 0.335s1.482 0.088 2.188 0.088c3.716 0 6.396-1.211 8.043-3.634 1.67-2.445 2.505-5.691 2.505-9.737 0-3.598-0.976-6.503-2.928-8.714-1.953-2.188-4.974-3.281-9.067-3.281-1.553 0-2.834 0.176-3.845 0.529-1.059 0.33-1.623 0.494-1.694 0.494-0.87 0-1.44-0.159-1.71-0.477-0.271-0.318-0.406-0.84-0.406-1.57 0-3.222 0.071-6.397 0.212-9.526 0.141-3.127 0.364-6.256 0.671-9.384 0-0.188 0.117-0.417 0.352-0.688 0.2-0.269 0.58-0.405 1.13-0.405z" fill="#BD0000"/>
			
			<path d="m194.44 122.64s-16.219 14.241-24.74 26.982c-8.521-13.751-24.74-26.982-24.74-26.982s16.889-16.148 24.74-27.207c8.08 11.167 24.74 27.207 24.74 27.207z" fill="#C60101"/>
		
		
			
				<path d="m647.68 788.6c-0.964 0-2.146-0.059-3.546-0.175-1.398-0.118-2.895-0.254-4.481-0.406-1.587-0.153-3.211-0.288-4.868-0.406-1.658-0.118-3.239-0.176-4.744-0.176-0.777 0-1.452 0.135-2.028 0.405-0.577 0.271-1.064 0.6-1.464 0.987-0.4 0.39-0.724 0.799-0.972 1.235-0.247 0.435-0.441 0.817-0.582 1.146-0.117 0.212-0.328 0.318-0.636 0.318-0.258 0-0.497-0.03-0.723-0.089-0.223-0.059-0.429-0.171-0.616-0.336-0.188-0.164-0.248-0.352-0.178-0.563 0.143-0.542 0.301-1.147 0.477-1.818 0.177-0.671 0.389-1.339 0.635-2.01 0.247-0.67 0.543-1.329 0.882-1.975 0.342-0.648 0.753-1.224 1.236-1.729 0.481-0.507 1.046-0.913 1.693-1.218 0.646-0.307 1.406-0.471 2.275-0.493 1.198 0 2.417 0.035 3.651 0.106 1.234 0.07 2.511 0.187 3.826 0.352 1.295 0.164 2.654 0.295 4.076 0.388 1.423 0.095 2.922 0.153 4.498 0.178 0.188-1.718 0.322-3.365 0.406-4.94 0.083-1.575 0.123-3.187 0.123-4.833v-1.287c0-0.436-0.012-0.888-0.036-1.357-0.329 0.163-0.745 0.322-1.252 0.477-0.506 0.151-1.077 0.286-1.712 0.404s-1.311 0.212-2.027 0.282c-0.718 0.071-1.453 0.107-2.205 0.107-2.28 0-4.457-0.354-6.526-1.061-2.069-0.706-3.894-1.705-5.469-2.998-1.575-1.295-2.828-2.851-3.758-4.675-0.929-1.823-1.394-3.84-1.394-6.05 0-2.73 0.472-5.133 1.412-7.215s2.274-3.821 4.005-5.221c1.728-1.399 3.814-2.459 6.262-3.176 2.445-0.717 5.174-1.076 8.185-1.076 1.176 0 2.435 0.088 3.773 0.265 1.342 0.176 2.576 0.488 3.705 0.936 1.129 0.446 2.069 1.052 2.823 1.815 0.752 0.766 1.128 1.723 1.128 2.876 0 0.847-0.271 1.717-0.811 2.61-0.565 0.871-1.4 1.306-2.506 1.306-0.423 0-0.847-0.064-1.271-0.193-0.423-0.13-0.8-0.33-1.129-0.6-0.329-0.271-0.593-0.601-0.793-0.989-0.199-0.387-0.3-0.828-0.3-1.322 0-0.235 0.035-0.441 0.105-0.616 0.071-0.178 0.146-0.341 0.229-0.496 0.083-0.152 0.159-0.306 0.229-0.457 0.07-0.153 0.105-0.324 0.105-0.512 0-0.424-0.205-0.771-0.617-1.041-0.411-0.271-0.929-0.489-1.552-0.653s-1.312-0.277-2.063-0.335c-0.754-0.058-1.483-0.088-2.188-0.088-3.716 0-6.396 1.211-8.042 3.634-1.671 2.446-2.506 5.691-2.506 9.737 0 3.598 0.976 6.503 2.929 8.714 1.951 2.188 4.975 3.281 9.065 3.281 1.553 0 2.834-0.177 3.847-0.53 1.059-0.329 1.622-0.493 1.693-0.493 0.87 0 1.44 0.158 1.711 0.477 0.271 0.316 0.405 0.841 0.405 1.57 0 3.221-0.071 6.397-0.211 9.524-0.143 3.129-0.365 6.256-0.671 9.385 0 0.188-0.119 0.418-0.353 0.688-0.22 0.3-0.61 0.43-1.15 0.43z" fill="#BD0000"/>
			
			<path d="m614.27 703.46s16.218-14.241 24.739-26.982c8.522 13.75 24.74 26.982 24.74 26.982s-16.889 16.147-24.74 27.207c-8.08-11.18-24.74-27.21-24.74-27.21z" fill="#C60101"/>
		
	
	<path d="m466.5 423.45s-42.879 37.654-65.412 71.343c-22.533-36.356-65.412-71.343-65.412-71.343s44.657-42.695 65.412-71.934c21.35 29.53 65.41 71.93 65.41 71.93z" fill="#C60101"/>
	<path d="m620.57 178.4s-42.879 37.655-65.412 71.342c-22.533-36.356-65.412-71.342-65.412-71.342s44.657-42.695 65.412-71.934c21.34 29.53 65.41 71.93 65.41 71.93z" fill="#C60101"/>
	<path d="m318.5 178.4s-42.879 37.655-65.412 71.342c-22.533-36.356-65.412-71.342-65.412-71.342s44.657-42.695 65.412-71.934c21.35 29.53 65.41 71.93 65.41 71.93z" fill="#C60101"/>
	<path d="m317.28 658.79s-42.878 37.655-65.412 71.343c-22.533-36.355-65.412-71.343-65.412-71.343s44.657-42.694 65.412-71.933c21.35 29.54 65.41 71.93 65.41 71.93z" fill="#C60101"/>
	<path d="m622.99 661.22s-42.879 37.654-65.412 71.342c-22.533-36.355-65.411-71.342-65.411-71.342s44.656-42.695 65.411-71.934c21.35 29.53 65.41 71.93 65.41 71.93z" fill="#C60101"/>

<metadata><rdfRDF><ccWork><dcFormat>image/svg+xml</dcFormat><dcType rdfResource="http://purl.org/dc/dcmitype/StillImage"/><ccLicense rdfResource="http://creativecommons.org/licenses/publicdomain/"/><dcPublisher><ccAgent rdfAbout="http://openclipart.org/"><dcTitle>Openclipart</dcTitle></ccAgent></dcPublisher></ccWork><ccLicense rdfAbout="http://creativecommons.org/licenses/publicdomain/"><ccPermits rdfResource="http://creativecommons.org/ns#Reproduction"/><ccPermits rdfResource="http://creativecommons.org/ns#Distribution"/><ccPermits rdfResource="http://creativecommons.org/ns#DerivativeWorks"/></ccLicense></rdfRDF></metadata></svg>
