<?xml version="1.0" encoding="UTF-8"?>
<svg enable-background="new 0 0 800 800" version="1.1" viewBox="0 0 800 800" xmlSpace="preserve" xmlns="http://www.w3.org/2000/svg" xmlnsCc="http://web.resource.org/cc/" xmlnsDc="http://purl.org/dc/elements/1.1/" xmlnsRdf="http://www.w3.org/1999/02/22-rdf-syntax-ns#">

	
		<path d="m118.79 800c-5.552 0-9.792-4.578-9.792-9.595v-776.4c0-5.016 4.24-9 9.79-9h564.59c5.56 0 10.62 3.984 10.62 9.001v776.4c0 5.017-5.063 9.595-10.614 9.595h-564.6z" fill="#fff"/>
		<path d="m683.01 8.271c3.879 0 6.988 2.386 6.988 5.73v776.4c0 3.344-2.736 6.595-6.614 6.595h-564.6c-3.879 0-7.792-3.251-7.792-6.595v-776.4c0-3.343 3.91-6 7.79-6h564.21m0.39-6h-564.6c-7.23 0-13.79 5.302-13.79 12.001v776.4c0 6.699 6.556 12.595 13.792 12.595h564.59c7.234 0 12.614-5.896 12.614-12.595v-776.4c0.01-6.698-5.36-12-12.59-12h-0.01z"/>
	
	<g fill="#C60101">
		<path d="m307.58 167.48s-42.879 37.655-65.411 71.341c-22.534-36.355-65.413-71.341-65.413-71.341s44.657-42.695 65.413-71.934c21.35 29.534 65.41 71.934 65.41 71.934z"/>
		<path d="m307.58 422.23s-42.879 37.654-65.411 71.342c-22.534-36.355-65.413-71.342-65.413-71.342s44.657-42.696 65.413-71.934c21.35 29.54 65.41 71.93 65.41 71.93z"/>
		<path d="m307.58 652.73s-42.879 37.653-65.411 71.341c-22.534-36.355-65.413-71.341-65.413-71.341s44.657-42.696 65.413-71.935c21.35 29.53 65.41 71.93 65.41 71.93z"/>
		<path d="m622.99 167.48s-42.879 37.655-65.412 71.341c-22.533-36.355-65.411-71.341-65.411-71.341s44.656-42.695 65.411-71.934c21.35 29.534 65.41 71.934 65.41 71.934z"/>
		<path d="m462.86 287.58s-42.879 37.655-65.411 71.343c-22.534-36.356-65.413-71.343-65.413-71.343s44.657-42.695 65.413-71.934c21.35 29.53 65.41 71.93 65.41 71.93z"/>
		<path d="m622.99 422.23s-42.879 37.654-65.412 71.342c-22.533-36.355-65.411-71.342-65.411-71.342s44.656-42.696 65.411-71.934c21.35 29.54 65.41 71.93 65.41 71.93z"/>
		<path d="m622.99 652.73s-42.879 37.653-65.412 71.341c-22.533-36.355-65.411-71.341-65.411-71.341s44.656-42.696 65.411-71.935c21.35 29.53 65.41 71.93 65.41 71.93z"/>
	</g>
	
		
			
				<path d="m152.33 32.425c-1.106 0-1.958 0.083-2.558 0.247-0.6 0.165-1.1 0.489-1.499 0.97-0.4 0.482-0.771 1.147-1.111 1.994-0.341 0.846-0.782 1.94-1.323 3.281-0.07 0.188-0.2 0.324-0.388 0.406-0.188 0.083-0.4 0.123-0.635 0.123-0.353 0-0.694-0.082-1.023-0.247-0.33-0.164-0.494-0.353-0.494-0.564 0.212-2.116 0.5-3.945 0.864-5.485s0.865-2.816 1.5-3.828c0.636-1.011 1.44-1.758 2.417-2.24 0.975-0.482 2.181-0.724 3.616-0.724 2.375 0 4.439 0.071 6.191 0.211 1.752 0.142 3.352 0.3 4.798 0.477 1.446 0.176 2.81 0.335 4.093 0.476 1.282 0.141 2.64 0.212 4.074 0.212 1.271 0 2.417-0.124 3.44-0.371s1.923-0.488 2.699-0.723c0.283-0.047 0.535 0.012 0.759 0.176 0.223 0.166 0.406 0.359 0.546 0.583 0.141 0.224 0.235 0.453 0.282 0.688 0.046 0.235 0.046 0.4 0 0.494-0.894 1.741-1.917 3.534-3.069 5.38-1.153 1.847-2.364 3.705-3.634 5.574-1.27 1.87-2.576 3.752-3.916 5.645-1.341 1.894-2.64 3.77-3.898 5.627-1.258 1.858-2.447 3.687-3.563 5.486-1.118 1.8-2.099 3.546-2.945 5.239-0.542 1.059-0.906 2.059-1.094 2.999-0.188 0.941-0.282 1.823-0.282 2.646 0 0.87 0.177 1.799 0.529 2.787 0.376 0.964 0.564 1.847 0.564 2.646 0 0.518-0.136 0.958-0.406 1.323-0.271 0.365-0.6 0.659-0.988 0.882s-0.811 0.388-1.271 0.494c-0.458 0.106-0.876 0.159-1.252 0.159-0.823 0-1.535-0.271-2.133-0.812-0.601-0.541-0.9-1.305-0.9-2.293 0-0.4 0.047-0.964 0.141-1.693s0.253-1.552 0.476-2.47c0.224-0.917 0.512-1.899 0.865-2.946 0.352-1.046 0.776-2.087 1.27-3.123 0.822-1.74 1.916-3.674 3.281-5.803 1.364-2.128 2.852-4.369 4.462-6.721 1.611-2.352 3.251-4.757 4.921-7.214 1.67-2.458 3.222-4.886 4.657-7.285 0.258-0.447 0.288-0.753 0.088-0.918-0.2-0.164-0.489-0.247-0.865-0.247-1.152 0-2.281-0.076-3.386-0.229-1.106-0.153-2.317-0.33-3.635-0.529-1.317-0.2-2.804-0.376-4.462-0.53-1.68-0.154-3.62-0.23-5.83-0.23z" fill="#BD0000"/>
			
			<path d="m184.74 111.72s-16.217 14.241-24.74 26.982c-8.521-13.751-24.74-26.982-24.74-26.982s16.89-16.148 24.74-27.207c8.07 11.169 24.74 27.207 24.74 27.207z" fill="#C60101"/>
		
		
			
				<path d="m633.33 770.62c1.104 0 1.958-0.082 2.558-0.247 0.6-0.163 1.1-0.488 1.5-0.969 0.4-0.483 0.771-1.147 1.111-1.995 0.342-0.846 0.781-1.939 1.322-3.279 0.071-0.19 0.201-0.325 0.388-0.406 0.189-0.082 0.4-0.123 0.636-0.123 0.354 0 0.694 0.081 1.023 0.247 0.329 0.163 0.493 0.353 0.493 0.563-0.212 2.116-0.499 3.945-0.864 5.485-0.363 1.541-0.863 2.817-1.498 3.829-0.637 1.011-1.441 1.759-2.417 2.239-0.977 0.481-2.182 0.724-3.616 0.724-2.376 0-4.439-0.069-6.192-0.212-1.751-0.141-3.351-0.3-4.798-0.477-1.446-0.176-2.811-0.334-4.093-0.477-1.282-0.141-2.64-0.21-4.074-0.21-1.27 0-2.417 0.123-3.439 0.369-1.022 0.247-1.924 0.488-2.698 0.724-0.283 0.046-0.535-0.013-0.76-0.176-0.224-0.166-0.406-0.359-0.546-0.584-0.143-0.223-0.235-0.452-0.282-0.687s-0.047-0.4 0-0.494c0.894-1.74 1.917-3.533 3.068-5.38 1.153-1.846 2.365-3.705 3.635-5.575 1.27-1.869 2.575-3.75 3.915-5.643 1.341-1.895 2.641-3.771 3.898-5.628 1.26-1.857 2.446-3.687 3.563-5.485 1.118-1.801 2.1-3.547 2.947-5.239 0.54-1.059 0.905-2.059 1.093-2.999 0.189-0.94 0.282-1.823 0.282-2.646 0-0.87-0.177-1.799-0.529-2.787-0.376-0.964-0.563-1.846-0.563-2.646 0-0.518 0.135-0.957 0.404-1.323 0.271-0.364 0.6-0.658 0.988-0.881 0.389-0.224 0.813-0.39 1.271-0.495 0.459-0.105 0.877-0.159 1.253-0.159 0.822 0 1.534 0.271 2.134 0.813 0.601 0.541 0.898 1.305 0.898 2.293 0 0.398-0.045 0.964-0.139 1.693-0.096 0.729-0.254 1.552-0.477 2.47-0.224 0.917-0.513 1.899-0.865 2.946-0.354 1.045-0.776 2.087-1.27 3.122-0.823 1.74-1.917 3.673-3.282 5.804-1.363 2.128-2.851 4.368-4.462 6.719-1.61 2.354-3.252 4.759-4.922 7.216-1.669 2.456-3.222 4.885-4.657 7.286-0.258 0.444-0.287 0.751-0.087 0.916 0.199 0.164 0.487 0.247 0.864 0.247 1.151 0 2.28 0.075 3.386 0.229 1.106 0.152 2.317 0.329 3.635 0.528 1.317 0.2 2.803 0.377 4.461 0.53 1.68 0.18 3.62 0.26 5.83 0.26z" fill="#BD0000"/>
			
			<path d="m604.56 692.54s16.22-14.242 24.74-26.983c8.521 13.752 24.74 26.983 24.74 26.983s-16.889 16.147-24.74 27.206c-8.07-11.18-24.74-27.21-24.74-27.21z" fill="#C60101"/>
		
	

<metadata><rdfRDF><ccWork><dcFormat>image/svg+xml</dcFormat><dcType rdfResource="http://purl.org/dc/dcmitype/StillImage"/><ccLicense rdfResource="http://creativecommons.org/licenses/publicdomain/"/><dcPublisher><ccAgent rdfAbout="http://openclipart.org/"><dcTitle>Openclipart</dcTitle></ccAgent></dcPublisher></ccWork><ccLicense rdfAbout="http://creativecommons.org/licenses/publicdomain/"><ccPermits rdfResource="http://creativecommons.org/ns#Reproduction"/><ccPermits rdfResource="http://creativecommons.org/ns#Distribution"/><ccPermits rdfResource="http://creativecommons.org/ns#DerivativeWorks"/></ccLicense></rdfRDF></metadata></svg>
