<?xml version="1.0" encoding="UTF-8"?>
<svg enable-background="new 0 0 800 800" version="1.1" viewBox="0 0 800 800" xmlSpace="preserve" xmlns="http://www.w3.org/2000/svg" xmlnsCc="http://web.resource.org/cc/" xmlnsDc="http://purl.org/dc/elements/1.1/" xmlnsRdf="http://www.w3.org/1999/02/22-rdf-syntax-ns#">

	
		<path d="m118.79 800c-5.552 0-9.792-4.578-9.792-9.595v-776.4c0-5.016 4.24-9 9.79-9h564.59c5.56 0 10.62 3.984 10.62 9.001v776.4c0 5.017-5.063 9.595-10.614 9.595h-564.6z" fill="#fff"/>
		<path d="m683.01 8.271c3.879 0 6.988 2.386 6.988 5.73v776.4c0 3.344-2.736 6.595-6.614 6.595h-564.6c-3.879 0-7.792-3.251-7.792-6.595v-776.4c0-3.343 3.91-6 7.79-6h564.21m0.39-6h-564.6c-7.23 0-13.79 5.302-13.79 12.001v776.4c0 6.699 6.556 12.595 13.792 12.595h564.59c7.234 0 12.614-5.896 12.614-12.595v-776.4c0.01-6.698-5.36-12-12.59-12h-0.01z"/>
	
	<g fill="#C60101">
		<path d="m301.52 177.18s-42.879 37.655-65.412 71.342c-22.533-36.355-65.412-71.342-65.412-71.342s44.657-42.695 65.412-71.933c21.34 29.53 65.41 71.93 65.41 71.93z"/>
		<path d="m301.52 431.94s-42.879 37.654-65.412 71.342c-22.533-36.355-65.412-71.342-65.412-71.342s44.657-42.696 65.412-71.934c21.34 29.53 65.41 71.93 65.41 71.93z"/>
		<path d="m301.52 662.43s-42.879 37.654-65.412 71.343c-22.533-36.355-65.412-71.343-65.412-71.343s44.657-42.695 65.412-71.934c21.34 29.54 65.41 71.93 65.41 71.93z"/>
		<path d="m616.93 177.18s-42.879 37.655-65.412 71.342c-22.533-36.355-65.412-71.342-65.412-71.342s44.658-42.695 65.412-71.933c21.34 29.53 65.41 71.93 65.41 71.93z"/>
		<path d="m456.8 297.28s-42.878 37.655-65.412 71.342c-22.533-36.356-65.412-71.342-65.412-71.342s44.657-42.695 65.412-71.934c21.34 29.53 65.41 71.93 65.41 71.93z"/>
		<path d="m455.58 527.78s-42.879 37.654-65.412 71.343c-22.533-36.355-65.412-71.343-65.412-71.343s44.657-42.695 65.412-71.933c21.35 29.53 65.41 71.93 65.41 71.93z"/>
		<path d="m616.93 431.94s-42.879 37.654-65.412 71.342c-22.533-36.355-65.412-71.342-65.412-71.342s44.658-42.696 65.412-71.934c21.34 29.53 65.41 71.93 65.41 71.93z"/>
		<path d="m616.93 662.43s-42.879 37.654-65.412 71.343c-22.533-36.355-65.412-71.343-65.412-71.343s44.658-42.695 65.412-71.934c21.34 29.54 65.41 71.93 65.41 71.93z"/>
	</g>
	
		
			
				<path d="m178.46 61.989c0 2.258-0.494 4.228-1.481 5.909-0.988 1.682-2.276 3.086-3.863 4.216-1.587 1.129-3.381 1.97-5.38 2.523-1.999 0.552-4.01 0.829-6.033 0.829s-3.963-0.235-5.821-0.706-3.51-1.2-4.957-2.188c-1.446-0.987-2.599-2.269-3.458-3.845s-1.287-3.445-1.287-5.609c0-3.034 0.935-5.68 2.804-7.938 1.87-2.258 4.475-3.916 7.814-4.975-2.423-1.552-4.475-3.304-6.156-5.257-1.682-1.952-2.522-4.174-2.522-6.667 0-1.975 0.4-3.745 1.2-5.31 0.799-1.564 1.87-2.886 3.21-3.969 1.341-1.082 2.904-1.905 4.692-2.47 1.787-0.564 3.669-0.846 5.644-0.846 1.834 0 3.593 0.264 5.274 0.794 1.682 0.529 3.163 1.299 4.446 2.311 1.281 1.011 2.304 2.252 3.069 3.722 0.764 1.47 1.147 3.146 1.147 5.027 0 1.153-0.229 2.276-0.688 3.37-0.458 1.093-1.093 2.104-1.905 3.034-0.812 0.929-1.775 1.782-2.892 2.558-1.118 0.776-2.323 1.435-3.617 1.976 1.434 0.659 2.805 1.388 4.11 2.188 1.306 0.8 2.452 1.741 3.44 2.822 0.988 1.082 1.77 2.323 2.346 3.722 0.59 1.399 0.87 2.992 0.87 4.779zm-6.91 1.517c0-1.553-0.329-2.894-0.986-4.022s-1.526-2.14-2.606-3.034c-1.08-0.893-2.33-1.699-3.75-2.417-1.42-0.717-2.87-1.464-4.349-2.24-0.352-0.188-0.622-0.188-0.81 0-1.785 1.152-3.24 2.593-4.367 4.321-1.127 1.729-1.69 3.581-1.69 5.557 0 3.481 0.833 6.209 2.5 8.184 1.667 1.976 3.932 2.963 6.796 2.963 2.793 0 5.035-0.869 6.725-2.61 1.7-1.739 2.55-3.974 2.55-6.702zm-1.69-26.389c0-2.798-0.564-4.957-1.693-6.474-1.128-1.517-3.011-2.275-5.645-2.275-2.282 0-4.116 0.712-5.503 2.134-1.389 1.423-2.082 3.44-2.082 6.051 0 1.153 0.252 2.188 0.759 3.105 0.505 0.917 1.199 1.758 2.081 2.522 0.882 0.765 1.928 1.482 3.14 2.152 1.211 0.67 2.487 1.371 3.828 2.1 0.093 0.094 0.224 0.118 0.388 0.07 0.164-0.047 0.305-0.117 0.424-0.211 1.246-0.87 2.275-2.075 3.086-3.616 0.8-1.542 1.21-3.394 1.21-5.558z" fill="#BD0000"/>
			
			<path d="m187.16 111.72s-16.218 14.241-24.74 26.982c-8.522-13.751-24.74-26.982-24.74-26.982s16.889-16.148 24.74-27.207c8.08 11.169 24.74 27.207 24.74 27.207z" fill="#C60101"/>
		
		
			
				<path d="m612.05 741.05c0-2.257 0.493-4.228 1.481-5.908 0.988-1.683 2.276-3.088 3.863-4.216 1.587-1.13 3.382-1.971 5.38-2.522 2-0.553 4.012-0.83 6.032-0.83 2.023 0 3.964 0.235 5.821 0.706 1.858 0.471 3.511 1.199 4.957 2.188 1.446 0.987 2.6 2.27 3.457 3.845 0.859 1.576 1.289 3.445 1.289 5.61 0 3.033-0.936 5.681-2.805 7.938-1.87 2.259-4.476 3.916-7.815 4.974 2.423 1.553 4.476 3.306 6.156 5.259 1.682 1.95 2.523 4.173 2.523 6.667 0 1.975-0.4 3.744-1.2 5.31-0.8 1.564-1.87 2.886-3.211 3.969-1.34 1.08-2.903 1.905-4.692 2.47-1.787 0.563-3.667 0.845-5.644 0.845-1.834 0-3.592-0.263-5.274-0.793-1.683-0.528-3.163-1.299-4.445-2.311-1.281-1.011-2.306-2.252-3.069-3.722-0.765-1.47-1.147-3.146-1.147-5.026 0-1.153 0.229-2.276 0.689-3.369 0.458-1.095 1.093-2.105 1.904-3.034 0.812-0.93 1.776-1.782 2.894-2.559 1.116-0.776 2.321-1.435 3.616-1.976-1.434-0.658-2.806-1.388-4.11-2.188-1.306-0.8-2.453-1.74-3.439-2.821-0.987-1.082-1.77-2.324-2.347-3.723-0.56-1.41-0.85-3-0.85-4.79zm6.91-1.51c0 1.552 0.329 2.893 0.985 4.021 0.657 1.131 1.526 2.14 2.606 3.036 1.079 0.894 2.33 1.699 3.751 2.415 1.418 0.717 2.869 1.464 4.348 2.24 0.353 0.188 0.623 0.188 0.81 0 1.784-1.152 3.239-2.592 4.367-4.322 1.126-1.729 1.689-3.579 1.689-5.556 0-3.481-0.833-6.209-2.5-8.185s-3.932-2.964-6.797-2.964c-2.792 0-5.034 0.87-6.726 2.611-1.68 1.72-2.53 3.96-2.53 6.69zm1.69 26.38c0 2.799 0.563 4.957 1.692 6.475 1.13 1.519 3.011 2.276 5.646 2.276 2.282 0 4.116-0.713 5.503-2.135 1.389-1.425 2.082-3.44 2.082-6.051 0-1.152-0.253-2.188-0.759-3.105-0.505-0.916-1.198-1.758-2.081-2.521s-1.928-1.482-3.141-2.153c-1.211-0.67-2.486-1.369-3.826-2.099-0.095-0.094-0.225-0.117-0.39-0.07-0.162 0.047-0.305 0.118-0.424 0.212-1.246 0.87-2.274 2.076-3.086 3.615-0.8 1.55-1.21 3.4-1.21 5.56z" fill="#BD0000"/>
			
			<path d="m606.99 692.54s16.218-14.242 24.74-26.983c8.521 13.752 24.739 26.983 24.739 26.983s-16.889 16.147-24.739 27.206c-8.08-11.18-24.74-27.21-24.74-27.21z" fill="#C60101"/>
		
	

<metadata><rdfRDF><ccWork><dcFormat>image/svg+xml</dcFormat><dcType rdfResource="http://purl.org/dc/dcmitype/StillImage"/><ccLicense rdfResource="http://creativecommons.org/licenses/publicdomain/"/><dcPublisher><ccAgent rdfAbout="http://openclipart.org/"><dcTitle>Openclipart</dcTitle></ccAgent></dcPublisher></ccWork><ccLicense rdfAbout="http://creativecommons.org/licenses/publicdomain/"><ccPermits rdfResource="http://creativecommons.org/ns#Reproduction"/><ccPermits rdfResource="http://creativecommons.org/ns#Distribution"/><ccPermits rdfResource="http://creativecommons.org/ns#DerivativeWorks"/></ccLicense></rdfRDF></metadata></svg>
