<?xml version="1.0" encoding="UTF-8"?>
<svg enable-background="new 0 0 800 800" version="1.1" viewBox="108 0 592 800" xmlSpace="preserve" xmlns="http://www.w3.org/2000/svg" xmlnsCc="http://web.resource.org/cc/" xmlnsDc="http://purl.org/dc/elements/1.1/" xmlnsRdf="http://www.w3.org/1999/02/22-rdf-syntax-ns#">

	
		<path d="m118.79 800c-5.552 0-9.792-4.578-9.792-9.595v-776.4c0-5.016 4.24-9 9.79-9h564.59c5.56 0 10.62 3.984 10.62 9.001v776.4c0 5.017-5.063 9.595-10.614 9.595h-564.6z" fill="#fff"/>
		<path d="m683.01 8.271c3.879 0 6.988 2.386 6.988 5.73v776.4c0 3.344-2.736 6.595-6.614 6.595h-564.6c-3.879 0-7.792-3.251-7.792-6.595v-776.4c0-3.343 3.91-6 7.79-6h564.21m0.39-6h-564.6c-7.23 0-13.79 5.302-13.79 12.001v776.4c0 6.699 6.556 12.595 13.792 12.595h564.59c7.234 0 12.614-5.896 12.614-12.595v-776.4c0.01-6.698-5.36-12-12.59-12h-0.01z"/>
	
	<path d="m613.29 175.97s-42.879 37.655-65.412 71.342c-22.532-36.355-65.412-71.342-65.412-71.342s44.658-42.695 65.412-71.934c21.35 29.53 65.41 71.93 65.41 71.93z" fill="#C60101"/>
	<path d="m613.29 339.74s-42.879 37.655-65.412 71.343c-22.532-36.356-65.412-71.343-65.412-71.343s44.658-42.695 65.412-71.934c21.35 29.53 65.41 71.93 65.41 71.93z" fill="#C60101"/>
	<path d="m459.22 422.23s-42.879 37.654-65.412 71.342c-22.533-36.355-65.412-71.342-65.412-71.342s44.657-42.696 65.412-71.934c21.35 29.54 65.41 71.93 65.41 71.93z" fill="#C60101"/>
	<path d="m613.29 504.73s-42.879 37.654-65.412 71.343c-22.532-36.356-65.412-71.343-65.412-71.343s44.658-42.694 65.412-71.934c21.35 29.53 65.41 71.93 65.41 71.93z" fill="#C60101"/>
	<path d="m613.29 662.43s-42.879 37.654-65.412 71.343c-22.532-36.355-65.412-71.343-65.412-71.343s44.658-42.695 65.412-71.934c21.35 29.54 65.41 71.93 65.41 71.93z" fill="#C60101"/>
	<path d="m297.88 175.97s-42.879 37.655-65.412 71.342c-22.533-36.355-65.412-71.342-65.412-71.342s44.657-42.695 65.412-71.934c21.34 29.53 65.41 71.93 65.41 71.93z" fill="#C60101"/>
	<path d="m297.88 339.74s-42.879 37.655-65.412 71.343c-22.533-36.356-65.412-71.343-65.412-71.343s44.657-42.695 65.412-71.934c21.34 29.53 65.41 71.93 65.41 71.93z" fill="#C60101"/>
	<path d="m297.88 504.73s-42.879 37.654-65.412 71.343c-22.533-36.356-65.412-71.343-65.412-71.343s44.657-42.694 65.412-71.934c21.34 29.53 65.41 71.93 65.41 71.93z" fill="#C60101"/>
	<path d="m297.88 662.43s-42.879 37.654-65.412 71.343c-22.533-36.355-65.412-71.343-65.412-71.343s44.657-42.695 65.412-71.934c21.34 29.54 65.41 71.93 65.41 71.93z" fill="#C60101"/>
	
		
			
				<path d="m150.58 47.875c0-2.352 0.4-4.516 1.2-6.492 0.799-1.975 1.934-3.674 3.404-5.097 1.469-1.423 3.251-2.534 5.344-3.334 2.094-0.8 4.446-1.199 7.056-1.199 3.222 0 5.868 0.665 7.938 1.993 2.069 1.329 3.721 3.04 4.957 5.133 1.234 2.094 2.087 4.405 2.558 6.933 0.47 2.528 0.706 5.028 0.706 7.498 0 1.764-0.118 3.698-0.354 5.803-0.235 2.104-0.641 4.204-1.217 6.297-0.577 2.094-1.335 4.116-2.276 6.068-0.941 1.953-2.134 3.675-3.581 5.168-1.446 1.494-3.158 2.682-5.133 3.563-1.976 0.882-4.257 1.323-6.844 1.323-1.506 0-3.016-0.118-4.533-0.352-1.517-0.236-2.875-0.618-4.075-1.147-1.199-0.529-2.188-1.251-2.963-2.17-0.777-0.917-1.165-2.022-1.165-3.316 0-1.104 0.353-2.069 1.059-2.893s1.681-1.235 2.928-1.235c0.777 0 1.523 0.265 2.241 0.793 0.717 0.529 1.076 1.347 1.076 2.452 0 0.494-0.106 0.882-0.317 1.164-0.212 0.282-0.317 0.624-0.317 1.023 0 1.153 0.611 1.97 1.834 2.453 1.222 0.482 2.774 0.723 4.656 0.723 2.165 0 3.993-0.582 5.487-1.747 1.493-1.164 2.686-2.739 3.581-4.727 0.893-1.987 1.546-4.333 1.958-7.039 0.412-2.705 0.641-5.598 0.688-8.679-1.6 2.164-3.34 3.658-5.222 4.48-1.882 0.824-3.974 1.235-6.279 1.235-2.752 0-5.04-0.411-6.862-1.235-1.823-0.822-3.293-1.922-4.41-3.298s-1.918-2.94-2.399-4.693c-0.51-1.75-0.75-3.567-0.75-5.449zm7.3-0.141c0 1.341 0.1 2.711 0.3 4.11 0.2 1.4 0.611 2.652 1.234 3.757 0.623 1.106 1.487 2.023 2.593 2.751 1.105 0.729 2.599 1.094 4.48 1.094 1.481 0 2.84-0.301 4.075-0.9 1.234-0.6 2.287-1.405 3.157-2.417 0.87-1.01 1.547-2.181 2.029-3.51s0.723-2.722 0.723-4.181c0-1.764-0.147-3.493-0.441-5.187-0.295-1.693-0.788-3.186-1.481-4.479-0.694-1.294-1.658-2.341-2.893-3.14s-2.793-1.2-4.675-1.2c-1.929 0-3.493 0.436-4.692 1.306-1.2 0.87-2.123 1.958-2.77 3.263s-1.083 2.74-1.306 4.304c-0.22 1.566-0.33 3.041-0.33 4.429z" fill="#BD0000"/>
			
			<path d="m192.02 117.78s-16.219 14.241-24.74 26.982c-8.522-13.75-24.74-26.982-24.74-26.982s16.889-16.148 24.74-27.207c8.07 11.177 24.74 27.207 24.74 27.207z" fill="#C60101"/>
		
		
			
				<path d="m649.64 767.3c0 2.352-0.398 4.517-1.198 6.492-0.799 1.974-1.934 3.673-3.405 5.097-1.469 1.423-3.251 2.534-5.344 3.334-2.094 0.8-4.446 1.199-7.057 1.199-3.221 0-5.868-0.664-7.938-1.992-2.069-1.329-3.721-3.04-4.957-5.133-1.234-2.095-2.087-4.404-2.556-6.933-0.471-2.528-0.706-5.028-0.706-7.497 0-1.765 0.117-3.698 0.353-5.804 0.234-2.105 0.641-4.204 1.218-6.297 0.575-2.094 1.334-4.117 2.274-6.067 0.94-1.953 2.135-3.676 3.58-5.169 1.448-1.495 3.158-2.682 5.135-3.563 1.975-0.883 4.257-1.324 6.843-1.324 1.507 0 3.016 0.119 4.533 0.354 1.519 0.236 2.876 0.618 4.075 1.146s2.188 1.253 2.964 2.17c0.776 0.918 1.164 2.021 1.164 3.315 0 1.106-0.353 2.071-1.058 2.894-0.706 0.823-1.683 1.235-2.929 1.235-0.777 0-1.523-0.265-2.24-0.794-0.718-0.529-1.077-1.347-1.077-2.452 0-0.494 0.106-0.883 0.317-1.165 0.213-0.281 0.317-0.623 0.317-1.021 0-1.153-0.611-1.971-1.834-2.453-1.222-0.481-2.774-0.724-4.655-0.724-2.164 0-3.993 0.583-5.487 1.748-1.493 1.164-2.686 2.74-3.581 4.727-0.893 1.986-1.545 4.333-1.957 7.038-0.411 2.705-0.642 5.598-0.688 8.679 1.601-2.164 3.341-3.658 5.222-4.48 1.882-0.824 3.975-1.234 6.279-1.234 2.753 0 5.039 0.41 6.861 1.234 1.824 0.822 3.294 1.924 4.41 3.298 1.118 1.377 1.919 2.94 2.399 4.693 0.53 1.72 0.77 3.54 0.77 5.42zm-7.31 0.14c0-1.342-0.099-2.712-0.3-4.11-0.2-1.4-0.61-2.651-1.233-3.757-0.624-1.106-1.487-2.024-2.594-2.752-1.105-0.729-2.6-1.094-4.48-1.094-1.481 0-2.84 0.301-4.075 0.899-1.234 0.6-2.287 1.405-3.157 2.418-0.87 1.009-1.546 2.179-2.028 3.509-0.482 1.329-0.724 2.723-0.724 4.181 0 1.764 0.147 3.494 0.441 5.187 0.295 1.693 0.788 3.186 1.481 4.479 0.695 1.295 1.657 2.342 2.895 3.141 1.233 0.8 2.792 1.201 4.673 1.201 1.93 0 3.494-0.437 4.692-1.306 1.199-0.87 2.123-1.959 2.771-3.265 0.646-1.304 1.081-2.74 1.306-4.304 0.22-1.58 0.33-3.05 0.33-4.44z" fill="#BD0000"/>
			
			<path d="m611.84 698.6s16.219-14.241 24.74-26.982c8.521 13.751 24.74 26.982 24.74 26.982s-16.89 16.146-24.74 27.207c-8.08-11.17-24.74-27.21-24.74-27.21z" fill="#C60101"/>
		
	

<metadata><rdfRDF><ccWork><dcFormat>image/svg+xml</dcFormat><dcType rdfResource="http://purl.org/dc/dcmitype/StillImage"/><ccLicense rdfResource="http://creativecommons.org/licenses/publicdomain/"/><dcPublisher><ccAgent rdfAbout="http://openclipart.org/"><dcTitle>Openclipart</dcTitle></ccAgent></dcPublisher></ccWork><ccLicense rdfAbout="http://creativecommons.org/licenses/publicdomain/"><ccPermits rdfResource="http://creativecommons.org/ns#Reproduction"/><ccPermits rdfResource="http://creativecommons.org/ns#Distribution"/><ccPermits rdfResource="http://creativecommons.org/ns#DerivativeWorks"/></ccLicense></rdfRDF></metadata></svg>
