<?xml version="1.0" encoding="UTF-8"?>
<svg version="1.1" viewBox="108 0 592 800" xmlSpace="preserve" xmlns="http://www.w3.org/2000/svg" xmlnsCc="http://web.resource.org/cc/" xmlnsDc="http://purl.org/dc/elements/1.1/" xmlnsRdf="http://www.w3.org/1999/02/22-rdf-syntax-ns#" xmlns:xlink="http://www.w3.org/1999/xlink">

	
		<path d="m118.79 800c-5.552 0-9.792-4.578-9.792-9.595v-776.4c0-5.016 4.24-9 9.79-9h564.59c5.56 0 10.62 3.984 10.62 9.001v776.4c0 5.017-5.063 9.595-10.614 9.595h-564.6z" fill="#fff"/>
		<path d="m683.01 8.271c3.879 0 6.988 2.386 6.988 5.73v776.4c0 3.344-2.736 6.595-6.614 6.595h-564.6c-3.879 0-7.792-3.251-7.792-6.595v-776.4c0-3.343 3.91-6 7.79-6h564.21m0.39-6h-564.6c-7.23 0-13.79 5.302-13.79 12.001v776.4c0 6.699 6.556 12.595 13.792 12.595h564.59c7.234 0 12.614-5.896 12.614-12.595v-776.4c0.01-6.698-5.36-12-12.59-12h-0.01z"/>
	
	<path d="m608 697.6c0 2.679-2.904 4.399-5.648 4.399h-408.59c-2.745 0-4.759-1.721-4.759-4.399v-592.01c0-2.679 2.015-4.593 4.759-4.593h408.59c2.744 0 5.648 1.914 5.648 4.593v592.01z" fill="none"/>
	
		<defs>
			<path id="f" d="m608 697.6c0 2.679-2.904 4.399-5.648 4.399h-408.59c-2.745 0-4.759-1.721-4.759-4.399v-592.01c0-2.679 2.015-4.593 4.759-4.593h408.59c2.744 0 5.648 1.914 5.648 4.593v592.01z"/>
		</defs>
		<clipPath id="e">
			<use overflow="visible" xlink:href="#f"/>
		</clipPath>
		<g clip-path="url(#e)">
			<path d="m328.04 247.76c-3.985-1.748-95.778 31.917-95.778 31.917l-43.581 61.809 0.11 65.368 51.356 0.808c0-0.01 58.73-84.62 87.89-159.91z" fill="#C60101"/>
			<polygon points="455.04 537.47 333.96 534.64 366.53 466.22 332.74 501.84 323.93 472.46 323.78 464.46 320.81 450.96 332.85 444.66 340.89 436.93 346.04 423.28 348.32 404.02 346.95 371.57 343.92 331.54 340.13 288.78 343.62 282.26 343.92 273.61 344.07 270.73 375.92 300.45 406.55 313.95 419.28 295.75 432.48 273 439.76 277.25 437.79 281.95 438.54 288.78 442.34 295.3 447.49 298.18 462.5 320.77 468.83 320.78 473.26 349.46 463.42 355.95 455.95 360.71 451.41 368.82 447.94 378.67 445.89 401.72 447.3 430.83 452.16 488.5 453.81 513.91" fill="#FF841F"/>
			
				
					<path d="m409.07 313.64c25.503-41.638 48.187-89.38 48.413-89.857l-8.772-4.155c-0.223 0.474-22.691 47.759-47.917 88.943l8.28 5.08z" fill="#FDCB45"/>
					<path d="m409.47 315.3-10.345-6.336 0.634-1.035c25.331-41.356 47.633-88.357 47.854-88.828l0.519-1.097 10.966 5.193-0.521 1.096c-0.226 0.479-22.984 48.355-48.474 89.971l-0.63 1.05zm-7.01-7.13 6.208 3.802c23.027-37.757 43.681-80.296 47.194-87.613l-6.579-3.116c-3.48 7.26-23.84 49.24-46.82 86.93z"/>
				
			
			
				
					<path d="m385.53 487.73c-25.503 41.639-48.187 89.38-48.413 89.857l8.771 4.154c0.224-0.475 22.692-47.759 47.917-88.942l-8.28-5.07z" fill="#FDCB45"/>
					<path d="m346.47 583.36-10.966-5.192 0.52-1.098c0.227-0.479 22.982-48.352 48.475-89.971l0.634-1.035 10.345 6.338-0.634 1.034c-25.044 40.888-47.633 88.358-47.854 88.826l-0.53 1.1zm-7.73-6.34 6.579 3.116c3.508-7.3 24.083-49.642 46.823-86.927l-6.208-3.803c-23.03 37.75-43.68 80.29-47.19 87.61z"/>
				
			
			
				
					<path d="m376.73 468.09c38.88 29.538 77.348 65.787 77.733 66.148l-6.663 7.057c-0.382-0.36-38.485-36.261-76.941-65.476l5.87-7.73z" fill="#FDCB45"/>
					<path d="m447.85 543.01-0.883-0.832c-0.38-0.36-38.488-36.256-76.842-65.394l-0.966-0.733 7.339-9.661 0.966 0.735c38.925 29.571 77.447 65.868 77.833 66.232l0.882 0.833-8.33 8.81zm-75.29-67.42c34.877 26.6 69.286 58.479 75.189 63.995l4.997-5.292c-5.925-5.537-40.563-37.639-75.783-64.5l-4.41 5.8z"/>
				
			
			<path d="m466.56 553.61c3.986 1.748 95.777-31.916 95.777-31.916l44.104-62.199 0.093-65.101-52.081-0.686c0 0.01-58.74 84.62-87.89 159.91z" fill="#C60101"/>
			
				<defs>
					<path id="d" d="m466.56 553.61c3.986 1.748 95.777-31.916 95.777-31.916l42.202-62.765 1.271-64.413-51.356-0.808c0 0.01-58.74 84.62-87.89 159.91z"/>
				</defs>
				<clipPath id="c">
					<use overflow="visible" xlink:href="#d"/>
				</clipPath>
				<g clip-path="url(#c)">
					
						<path d="m497.38 572.68-29.423-7.354c8.436-33.738 81.048-145.98 105.23-176.02l23.625 19.016c-26.56 32.99-93.08 138.93-99.44 164.35z"/>
					
					
						<path d="m492.09 571.36-18.829-4.709c7.863-31.451 77.231-140.43 104.19-173.92l15.121 12.169c-27.51 34.17-93.85 139.91-100.48 166.46z" fill="#F7C844"/>
					
					
						<path d="m488.56 570.48-11.77-2.942c7.601-30.398 77.396-140.1 103.49-172.52l9.451 7.606c-27.67 34.36-94.45 140.95-101.17 167.85z" fill="#C60101"/>
					
				</g>
			
			
					<rect transform="matrix(.2318 .9728 -.9728 .2318 658.12 21.584)" x="255.22" y="426.28" width="120.35" height="2.426"/>
			
			
					<rect transform="matrix(.2233 .9748 -.9748 .2233 647.37 30.13)" x="269.46" y="420.07" width="70.629" height="2.426"/>
			
			
					<rect transform="matrix(.234 .9722 -.9722 .234 632.86 35.326)" x="268.74" y="418.1" width="50.535" height="2.426"/>
			
			
				<path d="m310.9 403.48-2.325-0.696c2.542-8.471-0.311-29.881-1.655-38.693l2.399-0.365c1.69 11.15 4.16 31.14 1.58 39.76z"/>
			
			
				<path d="m446.28 677.28c5.136-5.378 12.311-14.844 9.823-22.445-1.512-4.625-4.095-7.461-4.087-12.506 6e-3 -4.16 0.981-8.515 1.902-12.563 2.263-9.944 9.972-18.686 15.342-26.859 3.307-5.033-1.188-6.167-5.442-7.934-5.722-2.375-6.012-3.969-2.574-9.208 4.303-6.556-0.343-4.367-2.129-10.246-0.055-0.179-0.24-0.42-0.105-0.546 1.826-1.719 4.062-6.775-1.914-7.887 0.829-5.989 2.305-16.088-2.125-21.055-4.763-5.34-13.522-4.861-19.945-4.134-13.927 1.579-33.646 4.821-45.853 12.112-17.021 10.166-11.025 35.831-5.995 51.088 4.802 14.563 12.401 27.068 21.856 39.006 10.018 12.647 20.985 24.544 36.057 31.031 1.51 0.649 3.048 1.249 4.583 1.842" fill="#fff"/>
				
					<path d="m447.16 678.11-1.406-1.342-0.517 1.333c-1.487-0.574-3.071-1.191-4.623-1.858-15.557-6.697-26.75-19.046-36.529-31.394-10.604-13.39-17.614-25.902-22.057-39.378-8.885-26.95-6.69-44.617 6.524-52.511 9.629-5.751 25.22-9.882 46.338-12.275 7.609-0.864 16.056-0.998 20.987 4.531 4.533 5.084 3.424 14.732 2.571 20.946 2.348 0.731 3.238 2.117 3.563 3.223 0.647 2.201-0.547 4.599-1.681 5.945 0.596 1.836 1.488 2.698 2.281 3.463 2.011 1.939 2.405 3.427-0.352 7.629-1.64 2.5-2.23 3.919-1.977 4.748 0.247 0.803 1.481 1.628 4.001 2.675 0.395 0.164 0.792 0.322 1.186 0.479 2.704 1.079 5.259 2.098 5.973 4.365 0.443 1.411 0.062 3.005-1.167 4.875-1.273 1.938-2.644 3.861-4.094 5.896-4.622 6.486-9.4 13.193-11.08 20.566-0.874 3.844-1.864 8.202-1.871 12.295-4e-3 3.032 1.005 5.186 2.175 7.677 0.644 1.368 1.308 2.784 1.852 4.45 2.78 8.48-5.13 18.47-10.09 23.66zm-5.42-135.44c-2.18 0-4.416 0.186-6.586 0.432-20.772 2.356-36.036 6.376-45.367 11.948-12.107 7.231-13.946 23.941-5.464 49.667 4.352 13.198 11.232 25.474 21.655 38.632 9.581 12.099 20.524 24.188 35.585 30.671 1.477 0.635 2.997 1.229 4.433 1.783 3.916-4.226 11.292-13.427 8.947-20.592-0.499-1.525-1.131-2.873-1.741-4.175-1.24-2.641-2.41-5.134-2.405-8.711 6e-3 -4.364 1.03-8.861 1.932-12.829 1.786-7.848 6.709-14.756 11.469-21.437 1.437-2.016 2.794-3.921 4.042-5.819 0.793-1.206 1.09-2.153 0.88-2.815-0.367-1.169-2.498-2.019-4.557-2.841-0.403-0.161-0.812-0.323-1.218-0.491-2.817-1.17-4.813-2.334-5.389-4.202-0.581-1.894 0.436-4.003 2.268-6.794 2.099-3.197 1.801-3.483 0.695-4.551-0.926-0.894-2.195-2.117-2.973-4.675-0.443-0.952-0.049-1.526 0.227-1.784 0.881-0.828 1.893-2.684 1.502-4.012-0.263-0.896-1.207-1.499-2.807-1.797l-1.14-0.213 0.195-1.409c0.796-5.737 2.128-15.342-1.865-19.817-2.89-3.26-7.46-4.18-12.32-4.18z"/>
				
			
			
				<path d="m449.31 679.2c4.666-5.77 10.474-11.692 6.467-19.36-6.558-12.556-22.514-20.015-36.253-19.011-4.906 0.357-9.688 1.671-13.683 4.604l17.791 28.104 25.67 5.67z" fill="#FDCB45"/>
				<path d="m449.78 680.54-26.905-5.933-18.667-29.487 0.913-0.67c3.805-2.794 8.621-4.422 14.313-4.836 0.847-0.063 1.716-0.095 2.583-0.095 14.435 0 28.759 8.122 34.834 19.753 4.047 7.744-0.988 13.859-5.43 19.256-0.394 0.478-0.786 0.954-1.169 1.43l-0.46 0.58zm-25.39-8.08 24.455 5.393c0.234-0.287 0.472-0.574 0.708-0.863 4.348-5.281 8.454-10.27 5.151-16.59-5.674-10.862-19.114-18.449-32.683-18.449-0.809 0-1.618 0.03-2.406 0.087-4.768 0.348-8.842 1.602-12.124 3.729l16.9 26.69z"/>
			
			
				<path d="m453.27 672.92c-1.152-7.147-6.832-14.038-15.195-18.431-9.104-4.783-19.244-5.626-26.455-2.199l-1.042-2.191c7.889-3.751 18.856-2.89 28.626 2.242 9.035 4.746 15.188 12.296 16.462 20.193l-2.4 0.39z"/>
			
			
				<path d="m449.52 677.49c-3.559-11.17-19.357-20.518-31.896-18.879l-0.314-2.405c13.82-1.812 30.583 8.18 34.523 20.548l-2.31 0.74z"/>
			
			
				<path d="m466.15 555.14-0.48-2.378c28.084-5.676 95.451-31.244 96.129-31.501l0.863 2.268c-0.67 0.26-68.23 25.9-96.51 31.61z"/>
			
			<path d="m287.36 655.34c-7.619 6.421-14.005 13.47-16.58 23.454-1.344 5.22-5.928 18.94 0.565 22.057 4.08 1.957 11.663 1.464 15.952 1.22 5-0.286 8.578-1.189 13.465-0.339 10.188 1.775 15.429-17.578 15.718-25.101 0.383-9.978-5.548-18.131-14.859-21.464-4.356-1.563-10.263-2.671-14.261 0.377" fill="#C60101"/>
			<path d="m350.44 701.73c-14.356-8.393-32.59-32.417-36.604-48.834-0.989-4.043-1.119-8.227-2.054-12.26-3.504 2.752-10.782 3.393-15.131 4.587-5.5 1.511-11.096 2.111-16.587 3.848-2.447 0.775-4.837 1.666-7.015 2.99 9.806-0.461 25.071-1.108 32.902 6.004 7.408 6.729 5.499 16.1 0.103 23.354-4.041 5.434-12.674 10.643-18.601 13.749 7.434-2.319 15.067-0.229 18.501 6.471" fill="#FDCB45"/>
			
				<path d="m374.3 604.99c-0.521 0-1.002-0.337-1.161-0.861-0.188-0.614-18.229-61.823 19.936-85.292 0.568-0.352 1.317-0.173 1.668 0.398 0.352 0.57 0.172 1.316-0.398 1.668-36.567 22.487-19.065 81.924-18.884 82.522 0.194 0.641-0.168 1.318-0.809 1.513-0.13 0.04-0.25 0.05-0.36 0.05z"/>
			
			<path d="m447.02 700.32c12.584-16.827-22.668-32.668-34.236-43.298-24.149-22.19-41.253-51.175-55.251-80.758-25.438-53.761-50.835-101.82-89.146-147.76-10.216-12.25-9.068-24.944-17.787-29.578-11.444-6.082-41.724-1.771-62.115-4.305 0.655 37.138 0 110.4 0 110.4s-1.186 25.435 0.762 29.494c1.947 4.056 50.742 20.346 75.356 27.106 21.51 5.908 31.85 10.626 42.842 21.182 0.373 0.358 0.792 0.855 0.735 1.374-2.226 20.218 0.207 33.994 2.426 48.93 4.06 27.335 19.006 57.018 36.698 66.154 0.485 0.25 3.948 2.003 4.488 2.143 28.292 7.364 69.151 1.915 98.729 2.873" fill="#C60101"/>
			
				<path d="m450.73 687.23c-47.925-40.464-58.702-38.375-77.545-74.247-11.808-22.478-20.406-47.528-29.087-71.356-11.235-30.839-31.646-57.758-52.936-82.555-16.281-18.961-29.007-39.136-43.529-59.466-16.221-0.254-40.537-1.034-57.87-0.929 6.922 24.957 99.112 106 116.78 132.99 15.025 22.949 26.599 53.053 37.826 77.984 10.639 23.62 44.885 72.181 102.95 89.887" fill="#F7C844"/>
				<path d="m446.97 700.69c-57.576-17.558-92.275-65.179-103.7-90.55-2.523-5.601-5.014-11.351-7.651-17.438-9.089-20.975-18.486-42.664-30.083-60.378-7.269-11.102-27.509-31.684-48.938-53.477-31.399-31.932-63.868-64.95-68.001-79.852l-0.423-1.528 1.586-0.01c11.785-0.066 26.91 0.269 40.258 0.569 6.381 0.144 12.427 0.278 17.638 0.36l0.613 9e-3 0.355 0.499c4.036 5.651 7.985 11.364 11.804 16.888 10.253 14.834 19.938 28.846 31.658 42.494 19.707 22.952 41.432 50.755 53.155 82.929 0.979 2.686 1.955 5.386 2.936 8.097 7.692 21.258 15.646 43.239 26.085 63.112 12.739 24.251 21.71 30.945 41.367 45.611 9.203 6.867 20.659 15.414 35.887 28.272l-1.565 1.853c-15.171-12.809-26.595-21.332-35.773-28.182-19.958-14.892-29.067-21.688-42.064-46.427-10.516-20.02-18.498-42.081-26.218-63.414-0.979-2.709-1.957-5.408-2.934-8.091-11.589-31.811-33.152-59.395-52.716-82.181-11.804-13.746-21.523-27.808-31.814-42.694-3.701-5.354-7.524-10.886-11.426-16.359-5.074-0.083-10.903-0.213-17.042-0.352-12.708-0.284-27.034-0.598-38.52-0.574 5.748 15.097 38.167 48.064 66.884 77.268 21.516 21.881 41.837 42.548 49.237 53.85 11.712 17.887 21.152 39.674 30.281 60.743 2.634 6.079 5.122 11.82 7.637 17.407 11.259 24.997 45.454 71.921 102.2 89.225l-0.75 2.31z"/>
			
			
					<rect transform="matrix(.8089 .588 -.588 .8089 388.73 -265.56)" x="601.66" y="457.73" width="2.427" height="14.935"/>
			
			
				<path d="m447.8 541.29-54.613-47.059-40.116 71.735 22.646 50.143 42.055 48.525 36.951 16.519s-71.729-39.973-68.493-92.542c3.22-52.55 61.56-47.31 61.56-47.31z" fill="#FB821F"/>
				
					<path d="m454.23 682.27-37.196-16.63-0.178-0.203-42.17-48.659-0.072-0.161-22.898-50.699 41.14-73.565 58.598 50.489-3.758-0.335c-0.018-1e-3 -1.604-0.142-4.216-0.142-12.477 0-53.392 3.341-56.037 46.33-3.152 51.214 67.163 91.011 67.872 91.408l-1.07 2.15zm-35.72-18.63 22.166 9.909c-6.42-4.515-14.399-10.652-22.247-18.068-23.204-21.928-34.757-45.076-33.411-66.94 2.776-45.101 45.446-48.606 58.459-48.606 0.313 0 0.612 3e-3 0.895 6e-3l-50.851-43.816-39.093 69.905 22.321 49.423 41.75 48.2z"/>
				
			
			
				
					<polygon points="323.34 489.71 392.02 416.06 412.42 435.09 343.74 508.74" fill="#FDCB45"/>
					<path d="m392.08 417.77 18.633 17.373-67.025 71.878-18.633-17.373 67.03-71.88m-0.12-3.42-1.655 1.773-67.025 71.877-1.655 1.775 20.408 19.028 1.774 1.652 1.655-1.772 67.026-71.878 1.654-1.775-1.774-1.655-18.64-17.38-1.77-1.65z"/>
				
			
			
				<path d="m448.95 684.83c-45.243-22.727-67.647-57.742-77.214-72.694l-0.783-1.222c-10.207-15.902-18.148-37.061-24.79-55.646-0.956-2.673-1.695-5.331-2.41-7.901-0.768-2.761-1.492-5.368-2.434-7.848-7.291-19.214-20.373-39.215-33.424-57.967-1.646-2.365-2.948-5.288-4.207-8.113-1.146-2.573-2.228-5.002-3.487-6.862-15.606-23.07-53.526-66.505-53.908-66.941l-0.59-0.674 0.471-0.762c0.042-0.067 4.168-6.737 6.082-9.675 19.18-29.436 59.086-90.684 76.775-139.92l0.109-0.305c0.472-1.321 2.395-2.107 3.981-2.107 1.638 0 2.966 0.789 3.644 2.166 0.01 0.02 1.095 3.148 0.833 3.934-16.324 46.413-51.823 100.57-73.033 132.93-1.852 2.826-3.591 5.478-5.192 7.937-1.445 2.218-2.769 4.249-3.944 6.064 14.395 18.681 30.526 41.157 46.69 65.054 2.761 4.079 5.731 8.347 8.605 12.477 12.936 18.588 27.592 39.647 35.396 60.215 1.871 4.929 3.712 10.079 5.661 15.531 6.478 18.123 13.782 38.556 23.461 53.638 16.215 25.265 36.736 53.835 75.19 73.15l0.758 0.382-0.691 5.936-1.57-0.79z" fill="#fff"/>
				<path d="m333.12 247.4c1.004 0 2.016 0.391 2.556 1.488 0.017 0.033 0.782 2.977 0.77 3.013-17.704 50.337-58.329 110.26-78.092 140.59-1.64 2.516-3.123 4.793-4.413 6.788 14.515 18.798 30.77 41.425 47.171 65.672 2.722 4.023 5.583 8.136 8.614 12.489 12.892 18.525 27.505 39.523 35.257 59.952 1.877 4.948 3.728 10.126 5.688 15.605 6.466 18.091 13.796 38.594 23.548 53.789 14.899 23.214 35.533 53.421 75.666 73.579l-0.393 3.372c-46.26-23.238-68.715-59.768-77.521-73.488-10.127-15.777-18.094-37.003-24.669-55.398-1.949-5.453-2.994-10.878-4.851-15.771-7.486-19.729-20.87-39.992-33.563-58.229-3.042-4.369-4.94-10.904-7.684-14.963-15.83-23.4-54-67.059-54-67.059s4.139-6.69 6.067-9.65c19.43-29.821 59.163-90.801 76.9-140.17 0.037-0.104 0.075-0.208 0.111-0.313 0.2-0.63 1.5-1.3 2.81-1.3m0-2.42c-1.979 0-4.447 1.019-5.122 2.907l-0.053 0.15-0.062 0.174c-17.636 49.085-57.489 110.25-76.642 139.65-1.924 2.954-5.929 9.427-6.1 9.702l-0.942 1.523 1.179 1.35c0.381 0.436 38.253 43.814 53.817 66.822 1.198 1.771 2.26 4.153 3.383 6.675 1.283 2.878 2.608 5.854 4.32 8.313 13.006 18.688 26.042 38.614 33.285 57.704 0.922 2.429 1.64 5.01 2.399 7.742 0.721 2.592 1.466 5.271 2.436 7.984 6.665 18.649 14.637 39.885 24.912 55.894l0.782 1.221c9.621 15.035 32.15 50.247 77.692 73.124l3.098 1.556 0.401-3.442 0.393-3.371 0.197-1.688-1.518-0.762c-38.18-19.178-58.584-47.593-74.713-72.722-9.606-14.966-16.885-35.328-23.306-53.294l-0.035-0.098c-1.952-5.458-3.794-10.612-5.669-15.555-7.857-20.704-22.559-41.83-35.529-60.468-2.876-4.133-5.846-8.398-8.601-12.471-15.982-23.629-31.934-45.869-46.211-64.433 1.056-1.628 2.22-3.416 3.477-5.343 1.601-2.457 3.339-5.108 5.19-7.934 21.24-32.405 56.79-86.642 73.157-133.18 0.248-0.74 0.206-0.905-0.314-2.918-0.443-1.722-0.443-1.722-0.573-1.983-0.91-1.78-2.64-2.82-4.76-2.82z"/>
			
			
				<path d="m351.46 703.26c-22.594-11.625-37.447-35.964-42.955-70.386-3.79-23.683-1.945-44.748-1.587-48.317-1.808-2.052-11.835-12.438-34.66-19.037l-6.214-1.794c-33.708-9.719-71.913-20.734-78.407-29.127l1.919-1.485c6.009 7.767 45.46 19.141 77.16 28.281l6.216 1.793c26.128 7.557 35.807 19.723 36.206 20.237l0.304 0.393-0.058 0.492c-0.104 0.893-9.819 89.524 43.186 116.79l-1.11 2.18z"/>
			
			
				<path d="m305.39 702.16c-0.341 0-0.68-0.144-0.92-0.422-5.072-5.899-12.518-5.917-19.132-5.16-0.624 0.078-1.199-0.344-1.327-0.957-0.128-0.615 0.233-1.225 0.833-1.407 5.691-1.737 10.827-4.467 15.263-8.11 5.289-4.346 10.771-12.092 10.306-18.836-0.242-3.506-2.117-6.359-5.574-8.479-10.315-6.326-25.539-5.305-36.655-4.563-0.625 0.034-1.159-0.383-1.273-0.986-0.113-0.604 0.242-1.197 0.828-1.382 5.646-1.778 11.439-3.39 17.042-4.946 8.873-2.467 17.253-4.797 24.793-7.667 0.627-0.239 1.328 0.077 1.565 0.703 0.238 0.625-0.076 1.326-0.702 1.564-7.646 2.911-16.079 5.255-25.007 7.737-2.388 0.663-4.811 1.337-7.24 2.028 9.51-0.226 19.947 0.556 27.917 5.441 4.165 2.554 6.427 6.046 6.727 10.382 0.523 7.6-5.432 16.148-11.186 20.876-2.826 2.322-5.919 4.291-9.246 5.889 4.965 0.278 10.036 1.787 13.907 6.29 0.437 0.509 0.379 1.274-0.129 1.712-0.23 0.21-0.51 0.31-0.79 0.31z"/>
			
			
				<path d="m270.5 702.77c-3.51-6.346-3.731-15.217-0.623-24.977 3.665-11.506 11.314-21.735 19.036-25.457 0.159-0.078 0.33-0.156 0.5-0.23 0.12-0.057 0.253-0.113 0.387-0.17l0.946 2.234-0.338 0.148c-0.153 0.066-0.293 0.131-0.432 0.2-7.168 3.453-14.312 13.1-17.787 24.011-2.862 8.985-2.703 17.394 0.434 23.065l-2.13 1.19z"/>
			
			
				<path d="m341.52 640.33c-3.61 0-6.547-2.937-6.547-6.547 0-3.609 2.937-6.546 6.547-6.546 3.609 0 6.546 2.937 6.546 6.546 0 3.61-2.94 6.55-6.55 6.55z" fill="#F7C844"/>
				<path d="m341.52 628.45c2.941 0 5.333 2.393 5.333 5.333s-2.392 5.334-5.333 5.334-5.334-2.394-5.334-5.334 2.39-5.33 5.33-5.33m0-2.43c-4.285 0-7.76 3.473-7.76 7.759 0 4.285 3.475 7.76 7.76 7.76s7.76-3.475 7.76-7.76c0-4.29-3.47-7.76-7.76-7.76z"/>
			
			
				<path d="m307.56 563.9c-3.61 0-6.547-2.938-6.547-6.547s2.937-6.546 6.547-6.546 6.546 2.937 6.546 6.546-2.94 6.55-6.55 6.55z" fill="#F7C844"/>
				<path d="m307.56 552.02c2.941 0 5.333 2.393 5.333 5.333s-2.393 5.334-5.333 5.334-5.333-2.394-5.333-5.334 2.39-5.33 5.33-5.33m0-2.43c-4.285 0-7.76 3.474-7.76 7.76 0 4.285 3.475 7.76 7.76 7.76s7.759-3.475 7.759-7.76c0-4.28-3.48-7.76-7.76-7.76z"/>
			
			
				<path d="m266.31 514.16c-3.609 0-6.546-2.938-6.546-6.547s2.937-6.547 6.546-6.547c3.61 0 6.547 2.938 6.547 6.547s-2.94 6.55-6.55 6.55z" fill="#F7C844"/>
				<path d="m266.31 502.28c2.941 0 5.334 2.394 5.334 5.334s-2.393 5.334-5.334 5.334-5.333-2.394-5.333-5.334 2.39-5.33 5.33-5.33m0-2.43c-4.285 0-7.76 3.475-7.76 7.761 0 4.285 3.475 7.76 7.76 7.76s7.76-3.475 7.76-7.76c0-4.28-3.48-7.76-7.76-7.76z"/>
			
			
				<path d="m225.06 470.49c-3.609 0-6.546-2.936-6.546-6.546 0-3.609 2.937-6.547 6.546-6.547 3.61 0 6.547 2.938 6.547 6.547 0 3.61-2.94 6.55-6.55 6.55z" fill="#F7C844"/>
				<path d="m225.06 458.61c2.941 0 5.334 2.393 5.334 5.333s-2.393 5.333-5.334 5.333-5.333-2.393-5.333-5.333 2.39-5.33 5.33-5.33m0-2.43c-4.285 0-7.759 3.474-7.759 7.76 0 4.285 3.475 7.76 7.759 7.76 4.285 0 7.76-3.475 7.76-7.76 0-4.28-3.47-7.76-7.76-7.76z"/>
			
			
				<path d="m388.84 691.28c-3.609 0-6.546-2.937-6.546-6.546 0-3.61 2.937-6.547 6.546-6.547 3.61 0 6.547 2.937 6.547 6.547-0.01 3.61-2.95 6.55-6.55 6.55z" fill="#F7C844"/>
				<path d="m388.84 679.4c2.941 0 5.334 2.393 5.334 5.334 0 2.94-2.393 5.333-5.334 5.333-2.94 0-5.333-2.393-5.333-5.333-0.01-2.94 2.39-5.33 5.33-5.33m0-2.43c-4.285 0-7.759 3.474-7.759 7.76 0 4.284 3.475 7.759 7.759 7.759 4.286 0 7.76-3.475 7.76-7.759 0-4.28-3.48-7.76-7.76-7.76z"/>
			
			
					<rect transform="matrix(.9633 .2686 -.2686 .9633 202.89 -95.132)" x="447.9" y="687.26" width="2.425" height="13.3"/>
			
			
				<path d="m424.12 628.67c2.75 3.115 10.054 7.554 16.067 7.426 2.528-0.048 4.496-0.927 5.848-2.595 0 0-0.476 4.921-5.795 5.021-10.87 0.2-16.12-9.85-16.12-9.85z"/>
			
			
				<path d="m448.26 573.7c4.34 0 8.761 0.482 11.292 1.747l-1.285 1.647c-4.289-2.142-15.248-1.701-18.737-0.459 0.01-0.01 4.15-2.94 8.74-2.94z"/>
			
			
				<rect x="571" y="446" width="5" height="30" fill="#FDCB45"/>
				<path d="m577 479h-7v-34h7v34zm-5-4h2v-28h-2v28z"/>
			
			
				<path d="m577.29 558.08c4.458-1.885 3.917-8.959 3.669-12.689-1.234 2.188-2.561 5.869-5.535 6.215 0.771-4.493-0.168-9.755-0.166-14.395 2e-3 -5.208-0.292-10.35-0.291-15.564 0-2.562-0.031-5.107-0.022-7.651-2.184-1.132-3.949-3.078-6.137-4.3-2.827-1.58-2.589-0.646-3.674 2.012-1.617 3.955-5.707 8.992-8.77 12.021-1.635 1.616-3.655 2.078-5.892 2.159 2.265 7.134 13.157 2.94 16.898 0.126 1.47-1.109 2.726-2.165 3.721-3.741 1.251 8.304-1.521 16.851-0.817 25.234 0.183 2.149 0.611 4.311 0.622 6.472-2.361-1.398-5.993-5.172-6.671-7.897-0.755 3.315-2.523 11.063 1.858 12.637 1.819 0.657 3.693-0.361 5.495-0.629 2.475-0.368 4.984 0.117 7.452-0.297" fill="#F7C844"/>
				
					<rect x="570" y="512" width="2" height="45"/>
				
				
					<rect x="574" y="515" width="3" height="43"/>
				
				<path d="m569.38 599.61c-0.695 2.145-0.208 4.327 0.146 6.442 1.978-1.306 4.234-4.206 5.572-6.149 0.57 1.884 3.246 4.185 5.104 4.654-1.215-2.477-1.955-5.294-2-7.971 1.725 1.758 6.232 4.346 8.82 3.538-1.642-3.307-3.357-6.786-3.24-10.572s2.54-6.452 3.986-9.853c3.111-7.314 2.898-16.712-5.311-20.858-5.979-3.021-17.343-2.233-21.824 3.188-4.386 5.301 2.35 13.982 3.301 19.709 1.27 7.619-0.914 13.827-8.879 15.616-0.766 0.172-1.542 0.306-2.313 0.438 4.152 5.634 11.753 3.146 17.065-0.52-0.281 0.951-0.367 2.152-0.428 3.133" fill="#C60101"/>
				
					<path d="m564.32 559.42c-3.841-2.55-4.251-7.683-1.099-13.729l1.065-2.042 1.081 2.034c1.726 3.244 3.928 5.559 5.853 7.395l-1.672 1.756c-1.646-1.566-3.479-3.463-5.109-5.959-1.045 2.713-1.774 6.533 1.225 8.524l-1.34 2.02z"/>
				
				
					<path d="m577.69 558.51-1.246-2.08c2.744-1.646 3.631-4.411 3.514-7.114-1.218 1.736-2.505 2.765-4.021 3.684l-1.256-2.076c1.888-1.143 3.273-2.43 4.77-5.62l1.314-2.811 0.94 2.956c1.77 5.52 0.23 10.53-4 13.06z"/>
				
				
					<path d="m560.35 602.65c-4.827 0-8.898-3.68-9.069-3.837l-2.026-1.859 2.739-0.243c3.955-0.353 7.275-2.134 9.351-5.014 1.927-2.673 2.579-6.105 1.792-9.415-0.426-1.788-1.408-3.725-2.448-5.775-2.485-4.899-5.302-10.452-0.727-15.387 2.578-2.782 6.378-4.441 10.165-4.441 4.55 0 8.155 2.455 9.648 6.567 3.436 9.474-0.229 22.574-5.627 30.62-2.512 3.745-6.352 6.685-10.812 8.275-0.94 0.34-1.94 0.51-2.98 0.51zm-5.19-4.04c1.372 0.803 3.239 1.611 5.193 1.611 0.758 0 1.487-0.123 2.172-0.367 3.974-1.42 7.387-4.026 9.611-7.342 4.934-7.354 8.488-19.821 5.359-28.444-1.145-3.156-3.83-4.966-7.366-4.966-3.078 0-6.291 1.403-8.385 3.664-3.427 3.696-1.224 8.04 1.11 12.64 1.058 2.087 2.153 4.244 2.645 6.312 0.95 3.996 0.153 8.149-2.184 11.395-1.96 2.72-4.79 4.61-8.16 5.51z"/>
				
				
					<path d="m568.95 608.98-0.773-1.914c-0.997-2.473-0.612-7.466 0.103-9.957l2.332 0.671c-0.404 1.406-0.69 3.892-0.601 5.932 1.681-2.197 3.541-4.539 5.233-5.365l1.063 2.181c-1.303 0.636-3.29 3.242-4.741 5.146-0.471 0.615-0.916 1.199-1.319 1.7l-1.29 1.61z"/>
				
				
					<path d="m582.68 607.17-2.704-1.149c-5.517-2.346-7.928-10.375-6.32-15.719l2.325 0.699c-0.883 2.93-0.199 7.027 1.676 9.884-0.681-2.269-1.019-4.661-0.356-7.107 0.708-2.622 2.434-4.283 4.103-5.889 0.964-0.928 1.875-1.805 2.582-2.85 3.618-5.338 6.525-18.227 0.422-23.269-2.638-2.181-7.59-3.385-12.905-3.154l-0.106-2.424c5.979-0.259 11.43 1.123 14.558 3.709 7.045 5.818 4.729 19.58 0.042 26.5-0.853 1.253-1.897 2.261-2.91 3.235-1.496 1.44-2.909 2.8-3.441 4.774-0.862 3.177 0.475 6.459 1.768 9.633l1.27 3.13z"/>
				
				
					<path d="m586.71 601.61c-3.148 0-8.814-2.245-9.519-5.628l2.373-0.495c0.297 1.419 2.99 2.844 5.248 3.427-2.012-3.457-3.576-8.372-2.346-11.658l2.271 0.851c-1.149 3.069 1.244 8.761 3.464 11.491l1.358 1.667-2.131 0.299c-0.21 0.03-0.46 0.05-0.71 0.05z"/>
				
				
					<path d="m557.38 530.72c-3.505 0-6.975-1.279-9.601-3.602l-2.128-1.884 2.833-0.234c1.157-0.095 2.311-0.342 3.626-0.775 7.621-2.507 11.228-10.063 12.912-15.961l2.334 0.666c-1.847 6.463-5.858 14.76-14.486 17.599-0.408 0.134-0.801 0.252-1.188 0.357 2.282 1.203 4.947 1.672 7.527 1.266 2.904-0.456 7.085-2.212 10.506-7.983l2.088 1.236c-3.902 6.584-8.799 8.607-12.219 9.144-0.73 0.09-1.47 0.14-2.2 0.14z"/>
				
			
			
				<path d="m460.46 584.3c-3.189 0-6.203-1.466-7.644-2.67-2.125-1.776-5.405-4.404-7.55-6.082l1.496-1.91c2.158 1.689 5.466 4.337 7.61 6.129 1.185 0.992 4.871 2.827 8.128 1.812l0.721 2.317c-0.93 0.28-1.86 0.4-2.77 0.4z"/>
			
			
				<path d="m447.55 575.18-2.236-0.94c1.947-4.635 10.354-7.282 14.856-6.748l-0.29 2.409c-4.02-0.49-10.99 2.09-12.33 5.28z"/>
			
			<path d="m434.6 622.76c-2.131 0.197-4.083 1.849-4.625 3.924-0.75-2.321 0.025-4.197 1.378-6.022 1.017 0.746 2.145 1.753 3.398 2.022"/>
			<path d="m431.42 620.79c-2.296-0.756-5.692 2.802-5.473 5.062-0.535-1.552-0.748-3.899 0.013-5.424 0.5-1 1.96-2.608 3.172-2.507 0.309 1.32 1.285 2.191 2.439 2.718"/>
			
				<path d="m453.26 512.39c-0.811-9.571-1.583-18.534-2.309-26.935-8.957-103.71-10.571-122.4 21.79-135.66l0.92 2.245c-30.711 12.581-29.321 28.649-20.293 133.2 0.726 8.4 1.5 17.366 2.309 26.938l-2.42 0.21z"/>
			
			
				<path d="m461.15 489.68c-13.225-115.78-6.339-119.3 12.064-128.69 0.699-0.357 1.414-0.723 2.146-1.104l1.121 2.151c-0.738 0.385-1.46 0.753-2.165 1.113-17.312 8.843-23.789 12.152-10.758 126.26l-2.41 0.27z"/>
			
			
				<path d="m468.12 465.73c-8.426-68.188-6.253-89.543 9.693-95.209l0.813 2.287c-14.35 5.097-16.241 26.738-8.1 92.624l-2.4 0.3z"/>
			
			
				<path d="m477.63 460.2c-1.132-7.507-10.675-73.487 2.728-78.893l0.907 2.251c-8.812 3.554-5.567 47.564-1.235 76.279l-2.41 0.36z"/>
			
			
					<rect transform="matrix(.2319 .9727 -.9727 .2319 744.49 -173.41)" x="432.24" y="383.48" width="99.598" height="2.426"/>
			
			
					<rect transform="matrix(.237 .9715 -.9715 .237 749.04 -183.82)" x="467.63" y="383.72" width="47.819" height="2.427"/>
			
			
					<rect transform="matrix(.2254 .9743 -.9743 .2254 763.28 -190.12)" x="497.48" y="383.72" width="7.432" height="2.428"/>
			
			
				<path d="m485.72 438.37c-1.701-11.147-4.168-31.136-1.581-39.755l2.323 0.696c-2.541 8.471 0.313 29.881 1.655 38.693l-2.4 0.36z"/>
			
			
				
					<path d="m590.88 516.35c3.26 5.189 2.419 10.472-1.677 14.348-4.099 3.881-33.504-14.449-35.754-22.207-1.053-3.634 1.178-9.954 4.474-11.854" fill="#fff"/>
					<path d="m587.42 532.44c-0.849 0-1.849-0.159-3.011-0.474-9.354-2.542-30.039-15.941-32.127-23.14-1.248-4.307 1.34-11.114 5.033-13.242l1.211 2.101c-2.726 1.573-4.847 7.245-3.913 10.466 1.672 5.765 21.383 19.015 30.432 21.474 2.705 0.737 3.3 0.215 3.323 0.189 3.801-3.598 4.341-8.27 1.482-12.82l2.054-1.292c3.48 5.539 2.781 11.474-1.869 15.875-0.59 0.58-1.46 0.86-2.6 0.86z"/>
				
				
					<path d="m591.89 500.68c5.661 4.145 4.271 13.079 1.112 15.063-4.347 2.729-31.979-16.215-34.282-19.166-2.731-3.502-2.819-8.838 1.427-12.275" fill="#fff"/>
					<path d="m591.99 517.16c-8.033 2e-3 -32.388-17.474-34.229-19.834-2.933-3.76-3.361-9.932 1.62-13.964l1.526 1.886c-3.819 3.091-3.512 7.665-1.233 10.585 2.976 3.813 29.566 20.835 32.679 18.886 1.011-0.634 2.081-2.707 2.179-5.444 0.054-1.509-0.167-5.274-3.362-7.613l1.434-1.958c2.909 2.131 4.496 5.65 4.354 9.658-0.117 3.313-1.419 6.223-3.312 7.412-0.43 0.25-0.99 0.37-1.66 0.37z"/>
				
				
					<path d="m596.94 486.13c3.336 4.853 2.085 8.837-0.462 12.7-2.886 4.378-5.158 1.224-9.142-0.973-5.335-2.94-10.226-5.371-15.568-8.29-2.725-1.487-9.792-3.652-11.223-6.571-1.82-3.718 2.762-10.034 5.567-11.702" fill="#fff"/>
					<path d="m593.44 502.24c-0.118 0-0.238-6e-3 -0.358-0.016-1.398-0.13-2.664-0.967-4.13-1.934-0.696-0.461-1.417-0.937-2.204-1.37-2.789-1.538-5.509-2.963-8.14-4.341-2.437-1.277-4.88-2.559-7.425-3.947-0.688-0.377-1.751-0.831-2.877-1.313-3.392-1.451-7.612-3.259-8.853-5.79-2.124-4.335 2.712-11.303 6.036-13.277l1.24 2.085c-2.499 1.485-6.516 7.231-5.097 10.126 0.843 1.723 4.926 3.469 7.628 4.625 1.23 0.527 2.294 0.982 3.084 1.413 2.534 1.384 4.964 2.658 7.389 3.93 2.642 1.384 5.374 2.814 8.185 4.363 0.873 0.482 1.668 1.007 2.371 1.472 1.193 0.788 2.223 1.468 3.014 1.541 0.303 0.027 1.014 0.094 2.158-1.644 2.104-3.191 3.618-6.775 0.476-11.347l2-1.373c3.989 5.803 1.855 10.559-0.449 14.056-1.21 1.83-2.54 2.73-4.05 2.73z"/>
				
				
					<path d="m597.55 486.13c3.481-6.061 6.457-9.168 0.101-14.762-6.384-5.617-14.068-9.043-22.037-11.422-6.328-1.889-8.047 0.602-10.063 6.466-2.441 7.102 4.264 6.574 9.912 8.697 7.366 2.772 15.805 6.421 22.088 11.424" fill="#fff"/>
					<path d="m596.79 487.48c-6.511-5.186-15.537-8.896-21.76-11.238-1.219-0.457-2.509-0.79-3.758-1.114-2.929-0.758-5.698-1.475-6.895-3.701-0.754-1.404-0.747-3.175 0.021-5.411 1.95-5.671 3.919-9.519 11.557-7.234 9.396 2.806 16.755 6.625 22.491 11.675 6.452 5.677 4.136 9.567 1.201 14.492-0.339 0.566-0.691 1.159-1.051 1.784l-0.831-0.478-0.98 1.23zm-24.73-26.96c-2.714 0-3.861 1.901-5.367 6.279-0.537 1.562-0.596 2.697-0.178 3.473 0.694 1.294 2.859 1.854 5.367 2.502 1.309 0.34 2.663 0.689 4.001 1.193 5.986 2.252 14.515 5.75 21.146 10.634 0.181-0.308 0.359-0.607 0.534-0.9 2.897-4.864 4.221-7.082-0.718-11.428-5.47-4.814-12.531-8.468-21.584-11.172-1.27-0.37-2.32-0.57-3.2-0.57z"/>
				
			
			<path d="m444.26 620.68c0 2.719-1.701 4.549-3.236 4.549s-2.779-2.202-2.779-4.922c0-2.718 1.244-4.92 2.779-4.92s3.24 2.57 3.24 5.29z"/>
			<path d="m432.82 616.37c-1.057 0.139-7.688 0.996-8.77 1.319 3.187 0.506 6.594 2.575 7.372 3.071 2.671 2.499 7.128 6.049 16.053 4.341 0 0-0.956-2.54-2.186-2.525-0.053 1e-3 -0.106 0.022-0.159 0.034-4.277 0.867-8.234-0.158-12.501-2.81-1.07-1.21-1.31-2.64 0.2-3.43z"/>
			
				
					
						<path d="m250.6 398.92" fill="#fff" stroke="#000" stroke-miterlimit="10" stroke-width="2"/>
					
				
			
			
				
					<path d="m417.87 333.28c-38.881-29.538-77.349-65.786-77.733-66.149l6.663-7.056c0.381 0.359 38.485 36.261 76.942 65.476l-5.87 7.73z" fill="#FDCB45"/>
					<path d="m418.1 334.98-0.965-0.734c-38.925-29.57-77.448-65.869-77.833-66.232l-0.882-0.833 8.328-8.819 0.882 0.832c1.567 1.477 38.807 36.497 76.843 65.393l0.966 0.734-7.35 9.66zm-76.25-67.9c5.925 5.538 40.563 37.639 75.784 64.5l4.403-5.796c-35.053-26.734-69.173-58.367-75.191-63.996l-4.99 5.3z"/>
				
			
			
				<path d="m369.35 581.83c7.35-5.748 2.247-15.729-5.671-16.562 8.66-5.636 6.859-19.502-4.045-20.709 7.666-8.037 4.437-19.507-6.561-20.643 9.457-10.723-1.799-24.998-13.71-20.503 8.553-11.787 1.518-25.398-14.014-22.762 5.604-10.085 2.028-17.645-9-16.814 4.385-5.096 3.133-25.984-17.489-26.389 10.119-13.873-11.506-20.541-14.236-18.722 26.234-16.528-1.667-23.655-1.667-23.655 22.746 2.274 23.784-15.927 12.627-26.151 11.057-0.391 23.906-17.348 14.658-27.085 21.118-2.375 20.908-19.09 14.962-28.013 10.332-0.838 15.426-16.357 7.997-21.746 11.219-3.824 13.996-16.639 7.632-23.929 5.312-2.089 6.741-4.128 4.853-9.301l-4.663-1.609-2.979-8.465-86.478 155.85 7.806 4.496 14.94 25.227 37.607 53.984 33.361 55.5 19.753 51.494 5.387 1.455c4.61-3.39 6.36-14.26-1.08-14.95z" fill="#fff"/>
				<path d="m370.67 598.11-6.546-1.767-19.93-51.97-33.306-55.409-37.563-53.916-14.826-25.027-8.565-4.933 88.367-159.26 3.679 10.459 4.655 1.606 0.197 0.542c2.085 5.71 0.183 8.254-4.068 10.218 2.517 3.645 3.298 8.341 2.082 12.875-1.312 4.887-4.691 8.797-9.4 10.965 2.428 2.784 3.165 7.01 1.901 11.518-1.289 4.599-4.874 9.42-10.174 10.724 2.506 4.61 4.069 11.443 1.176 17.661-1.807 3.882-6.016 8.694-15.818 10.35 2.522 3.738 2.809 8.419 0.77 13.412-2.727 6.672-9.04 12.219-15.143 13.637 4.966 5.523 6.856 12.546 4.704 18.083-1.136 2.921-4.344 7.637-13.281 8.478 3.319 1.721 6.817 4.398 7.416 8.191 0.64 4.06-2.18 8.408-8.389 12.957 4.359 0.865 10.628 3.734 13.1 8.599 1.149 2.262 1.856 5.782-0.686 10.256 10.564 0.961 15.011 7.375 16.754 11.275 2.434 5.444 2.27 11.336 0.735 14.939 5.621 0.148 8.233 2.577 9.438 4.624 1.818 3.089 1.633 7.286-0.489 11.979 7.012-0.526 12.665 2.256 15.315 7.455 2.256 4.425 1.941 9.813-0.764 14.86 0.637-0.091 1.278-0.138 1.917-0.138 5.428 0 10.411 3.268 12.694 8.325 1.98 4.387 1.461 9.26-1.339 13.38 4.353 1.012 7.585 3.708 9.021 7.604 1.55 4.204 0.623 9.068-2.399 13.102 4.137 1.145 7.107 4.197 8.125 8.477 1.072 4.509-0.375 9.221-3.642 12.415 3.479 1.235 6.335 4.128 7.349 7.661 0.93 3.235 0.216 6.376-1.957 8.888 1.734 0.763 2.953 2.213 3.515 4.236 1.14 4.1-0.799 9.859-4.149 12.322l-0.46 0.36zm-4.72-3.79 4.191 1.132c2.28-2.059 3.632-6.418 2.814-9.362-0.512-1.843-1.76-2.867-3.713-3.047l-3.043-0.283 2.407-1.882c2.627-2.054 3.646-4.932 2.797-7.893-0.991-3.449-4.218-6.124-7.848-6.507l-3.402-0.356 2.867-1.865c4.409-2.869 5.51-7.821 4.646-11.456-0.936-3.94-3.987-6.568-8.162-7.031l-2.437-0.271 1.692-1.772c3.458-3.625 4.709-8.309 3.266-12.226-1.323-3.592-4.63-5.914-9.073-6.373l-2.344-0.242 1.559-1.767c3.303-3.746 4.12-8.28 2.242-12.443-1.892-4.188-6.006-6.896-10.483-6.896-1.383 0-2.773 0.261-4.131 0.772l-3.788 1.43 2.377-3.276c3.626-4.997 4.459-10.595 2.226-14.974-2.441-4.79-8.158-7.052-15.054-5.88l-2.49 0.423 1.227-2.208c2.596-4.672 3.165-8.915 1.563-11.64-1.491-2.533-4.767-3.726-9.411-3.376l-2.922 0.22 1.912-2.222c1.768-2.054 2.829-8.374 0.124-14.428-1.981-4.431-6.489-9.756-16.718-9.955l-2.33-0.046 1.373-1.882c2.544-3.489 3.103-6.698 1.659-9.539-2.483-4.885-10.175-7.549-13.431-7.549-0.62 0-0.824 0.099-0.826 0.1l-1.33-2.028c9e-3 -6e-3 0.017-0.01 0.026-0.017 4e-3 -4e-3 9e-3 -6e-3 0.014-8e-3 7.527-4.759 11.171-9.162 10.601-12.774-0.758-4.806-8.873-7.89-11.936-8.672l0.421-2.383c9.117 0.913 15.463-1.594 17.515-6.871 1.999-5.138-0.398-12.202-5.828-17.178l-2.185-2.002 2.961-0.104c5.824-0.207 12.779-5.802 15.505-12.474 1.152-2.819 2.464-8.197-1.684-12.564l-1.68-1.768 2.423-0.273c8.095-0.91 13.64-4.113 16.036-9.262 2.641-5.675 0.924-12.563-1.946-16.872l-1.144-1.715 2.055-0.167c5.16-0.419 8.689-4.953 9.897-9.262 0.954-3.402 0.794-7.893-2.515-10.293l-1.896-1.375 2.216-0.755c4.892-1.667 8.421-5.324 9.686-10.033 1.157-4.31 0.193-8.776-2.577-11.949l-1.132-1.296 1.602-0.63c4.758-1.871 5.672-3.279 4.347-7.216l-4.663-1.609-2.277-6.472-84.6 152.45 7.047 4.059 15.103 25.499 37.559 53.909 33.498 55.76 19.53 50.91z"/>
			
			
				<defs>
					<path id="b" d="m328.04 247.76c-3.985-1.748-95.778 31.917-95.778 31.917l-42.201 62.764-1.27 64.413 51.356 0.808s58.73-84.61 87.89-159.9z"/>
				</defs>
				<clipPath id="a">
					<use overflow="visible" xlink:href="#b"/>
				</clipPath>
				<g clip-path="url(#a)">
					
						<path d="m221.4 412.07-23.626-19.016c26.564-33.003 93.081-138.94 99.437-164.36l29.423 7.355c-8.43 33.74-81.04 145.98-105.23 176.03z"/>
					
					
						<path d="m217.15 408.64-15.12-12.169c27.505-34.175 93.842-139.91 100.48-166.46l18.831 4.708c-7.86 31.45-77.23 140.43-104.19 173.92z" fill="#F7C844"/>
					
					
						<path d="m214.31 406.36-9.451-7.605c27.668-34.375 94.454-140.97 101.18-167.86l11.769 2.943c-7.6 30.4-77.4 140.1-103.5 172.52z" fill="#C60101"/>
					
				</g>
			
			
					<rect transform="matrix(.2319 .9728 -.9728 .2319 731.78 -178.96)" x="419.03" y="372.66" width="120.34" height="2.427"/>
			
			
					<rect transform="matrix(.2233 .9748 -.9748 .2233 750.94 -182.23)" x="454.5" y="378.88" width="70.629" height="2.425"/>
			
			
					<rect transform="matrix(.2341 .9722 -.9722 .2341 754.87 -194.04)" x="475.32" y="380.85" width="50.536" height="2.427"/>
			
			
				<path d="m450.55 689.27c-0.188 0-0.375-0.044-0.546-0.129-46.558-23.387-73.489-65.352-82.34-79.142-10.206-15.901-17.682-36.817-24.277-55.27-1.938-5.425-3.769-10.549-5.639-15.474-7.436-19.598-21.774-40.201-34.426-58.378-3.043-4.371-5.917-8.499-8.667-12.568-15.632-23.11-49.561-68.76-49.902-69.218-0.307-0.413-0.32-0.973-0.034-1.399 0.673-1.005 67.513-100.92 83.874-149.79l0.098-0.279c0.688-1.92 4.913-3.047 8.341-3.665 0.072-0.012 0.144-0.019 0.215-0.019 0.349 0 0.685 0.15 0.917 0.418 0.281 0.324 0.37 0.772 0.234 1.178-17.022 51.067-59.184 115.78-79.445 146.88-1.456 2.232-2.78 4.265-3.957 6.081 14.402 18.689 30.533 41.164 46.691 65.054 2.758 4.075 5.731 8.346 8.605 12.477 12.935 18.588 27.592 39.648 35.396 60.215 1.874 4.938 3.717 10.095 5.67 15.555 6.469 18.1 13.772 38.532 23.453 53.614 14.824 23.096 39.143 56.116 79.006 76.14 0.599 0.301 0.84 1.029 0.539 1.629l-2.723 5.422c-0.145 0.286-0.396 0.506-0.702 0.606-0.13 0.04-0.26 0.06-0.38 0.06z" fill="#fff"/>
				<path d="m336.89 245.1m0.35 0.05c-16.975 50.928-59.085 115.56-79.321 146.62-1.641 2.516-3.124 4.793-4.413 6.788 14.515 18.799 30.77 41.424 47.171 65.672 2.722 4.023 5.583 8.136 8.614 12.489 12.892 18.525 27.505 39.523 35.257 59.952 1.877 4.948 3.728 10.126 5.688 15.605 6.466 18.091 13.796 38.594 23.548 53.789 14.9 23.214 39.348 56.41 79.482 76.568l-2.722 5.421c-46.261-23.237-73.059-64.992-81.864-78.713-10.127-15.778-17.582-36.627-24.156-55.024-1.949-5.453-3.79-10.602-5.647-15.493-7.486-19.73-21.872-40.404-34.564-58.642-3.041-4.369-5.914-8.496-8.658-12.555-15.829-23.4-49.934-69.262-49.934-69.262s67.414-100.49 84.017-150.08c0.034-0.104 0.073-0.208 0.111-0.313 0.56-1.61 7.38-2.84 7.38-2.84m0-3.15c-0.03 0-0.061 0.363-0.09 0.364-0.132 5e-3 -0.263 0.202-0.388 0.228-8.16 1.478-8.941 3.755-9.198 4.474l-0.018 0.094c-0.04 0.108-0.079 0.238-0.114 0.347-16.304 48.695-83.053 148.49-83.726 149.49-0.572 0.853-0.545 1.981 0.068 2.806 0.341 0.458 34.254 46.091 49.871 69.178 2.755 4.074 5.631 8.206 8.676 12.581 12.611 18.12 26.905 38.658 34.288 58.117 1.866 4.913 3.695 10.031 5.631 15.45 6.617 18.515 14.118 39.5 24.398 55.518 8.895 13.858 35.962 56.034 82.817 79.57 0.342 0.172 0.715 0.258 1.09 0.258 0.257 0 0.514-0.039 0.762-0.123 0.611-0.202 1.116-0.639 1.405-1.214l2.723-5.421c0.602-1.197 0.118-2.654-1.079-3.257-39.598-19.89-63.783-52.736-78.529-75.71-9.606-14.967-16.884-35.329-23.306-53.295l-0.027-0.073c-1.954-5.467-3.799-10.628-5.678-15.578-7.856-20.706-22.558-41.832-35.529-60.469-2.876-4.134-5.846-8.4-8.601-12.471-15.977-23.62-31.929-45.861-46.212-64.434 1.056-1.627 2.22-3.414 3.477-5.341 20.286-31.137 62.456-95.86 79.551-147.06 0.107-0.274 0.167-0.936 0.167-1.247 0-1.336-1.076-2.79-2.41-2.79h-0.02z"/>
			
			
				<path d="m348.32 124.09c-5.137 5.379-12.311 14.845-9.823 22.446 1.511 4.624 4.094 7.461 4.086 12.506-6e-3 4.161-0.981 8.514-1.901 12.562-2.263 9.945-9.972 18.686-15.342 26.859-3.307 5.034 1.188 6.167 5.443 7.934 5.721 2.375 6.011 3.969 2.573 9.209-4.301 6.555 0.344 4.365 2.13 10.245 0.054 0.179 0.239 0.419 0.104 0.546-1.825 1.719-4.061 6.775 1.915 7.886-0.83 5.99-2.305 16.089 2.125 21.055 4.763 5.34 13.522 4.862 19.946 4.134 13.926-1.579 33.645-4.822 45.853-12.113 17.021-10.166 11.024-35.831 5.994-51.089-4.801-14.563-12.401-27.068-21.856-39.005-10.017-12.647-20.985-24.544-36.056-31.031-1.51-0.65-3.047-1.249-4.583-1.842" fill="#fff"/>
				
					<path d="m352.85 261.13c-5.438 0-10.652-1.084-14.125-4.979-4.535-5.083-3.424-14.731-2.572-20.946-2.348-0.732-3.238-2.117-3.563-3.222-0.646-2.202 0.548-4.599 1.681-5.944-0.595-1.838-1.49-2.7-2.281-3.464-2.011-1.939-2.407-3.428 0.351-7.628 1.64-2.5 2.231-3.92 1.976-4.749-0.247-0.804-1.481-1.628-4-2.674-0.396-0.164-0.793-0.323-1.185-0.479-2.705-1.08-5.259-2.099-5.973-4.367-0.444-1.41-0.062-3.004 1.166-4.875 1.274-1.938 2.644-3.86 4.094-5.896 4.622-6.485 9.401-13.192 11.08-20.565 0.874-3.845 1.865-8.203 1.871-12.295 5e-3 -3.033-1.005-5.185-2.175-7.678-0.642-1.368-1.306-2.784-1.851-4.449-2.775-8.479 5.136-18.464 10.1-23.661l1.406 1.342 0.515-1.333c1.572 0.607 3.109 1.206 4.625 1.859 15.553 6.695 26.747 19.044 36.528 31.391 10.605 13.39 17.614 25.903 22.057 39.379 8.885 26.951 6.689 44.618-6.524 52.51-9.631 5.751-25.221 9.882-46.338 12.277-2.27 0.26-4.6 0.45-6.88 0.45zm-4.26-135.56c-3.916 4.227-11.292 13.428-8.948 20.592 0.499 1.524 1.131 2.871 1.742 4.173 1.24 2.641 2.411 5.136 2.405 8.712-6e-3 4.363-1.029 8.86-1.932 12.829-1.785 7.848-6.708 14.756-11.468 21.437-1.438 2.016-2.794 3.921-4.042 5.821-0.792 1.205-1.089 2.152-0.88 2.814 0.368 1.169 2.498 2.02 4.558 2.841 0.403 0.161 0.811 0.324 1.216 0.492 2.818 1.171 4.814 2.333 5.389 4.202 0.582 1.893-0.437 4.003-2.268 6.793-2.099 3.198-1.801 3.484-0.695 4.551 0.926 0.893 2.194 2.116 2.972 4.675 0.444 0.949 0.049 1.523-0.224 1.781-0.881 0.83-1.894 2.687-1.504 4.014 0.263 0.895 1.208 1.499 2.808 1.796l1.139 0.211-0.196 1.41c-0.795 5.739-2.127 15.343 1.866 19.82 4.195 4.705 11.91 4.529 18.904 3.736 20.772-2.355 36.035-6.376 45.367-11.949 12.107-7.231 13.945-23.942 5.464-49.668-4.351-13.197-11.232-25.472-21.655-38.631-9.582-12.099-20.525-24.188-35.584-30.67-1.44-0.6-2.91-1.18-4.43-1.76z"/>
				
			
			
				<path d="m345.28 122.17c-4.666 5.769-10.473 11.692-6.466 19.36 6.559 12.555 22.514 20.014 36.253 19.011 4.905-0.358 9.688-1.671 13.683-4.605l-17.792-28.104-25.67-5.67z" fill="#FDCB45"/>
				<path d="m372.58 161.85c-14.436 0-28.76-8.123-34.835-19.752-4.048-7.747 0.987-13.861 5.429-19.257 0.393-0.478 0.785-0.953 1.169-1.428l0.472-0.583 26.904 5.932 18.667 29.487-0.912 0.67c-3.805 2.794-8.621 4.422-14.313 4.837-0.85 0.05-1.72 0.09-2.58 0.09zm-26.83-38.33c-0.235 0.287-0.471 0.574-0.708 0.862-4.348 5.281-8.455 10.27-5.152 16.591 5.674 10.862 19.115 18.448 32.684 18.448h1e-3c0.809 0 1.617-0.029 2.404-0.087 4.768-0.348 8.841-1.602 12.124-3.73l-16.898-26.692-24.44-5.39z"/>
			
			
				<path d="m372.97 153.58c-5.696 0-11.844-1.54-17.579-4.553-9.034-4.746-15.188-12.294-16.462-20.193l2.396-0.386c1.152 7.149 6.833 14.039 15.195 18.431 9.108 4.784 19.245 5.627 26.456 2.199l1.042 2.192c-3.26 1.55-7.04 2.31-11.05 2.31z"/>
			
			
				<path d="m373.96 145.37c-13.056 0-27.569-9.369-31.197-20.76l2.312-0.737c3.558 11.17 19.362 20.525 31.896 18.879l0.315 2.406c-1.09 0.14-2.2 0.21-3.32 0.21z"/>
			
			
				<path d="m232.79 280.1-0.862-2.267c0.679-0.259 68.232-25.897 96.511-31.613l0.481 2.377c-28.08 5.68-95.45 31.25-96.13 31.5z"/>
			
			<path d="m507.24 146.03c7.619-6.42 14.006-13.469 16.58-23.454 1.345-5.219 5.928-18.941-0.565-22.057-4.08-1.958-10.73-0.257-15.02-0.012-4.999 0.286-9.51-0.02-14.397-0.87-10.188-1.774-15.429 17.579-15.719 25.103-0.383 9.977 5.548 18.13 14.86 21.464 4.355 1.561 10.263 2.67 14.261-0.377" fill="#C60101"/>
			<path d="m447.57 101.33c14.357 8.391 29.165 30.726 33.18 47.142 0.988 4.043 1.119 8.228 2.054 12.26 3.504-2.751 10.782-3.392 15.131-4.587 5.5-1.511 11.097-2.11 16.587-3.849 2.448-0.774 4.838-1.665 7.016-2.989-9.807 0.462-25.071 1.107-32.903-6.005-7.408-6.728-5.498-16.098-0.102-23.353 4.041-5.434 12.673-10.642 18.601-13.75-7.435 2.32-15.066 0.231-18.501-6.469" fill="#FDCB45"/>
			
				<path d="m400.89 282.71c-0.407 0-0.805-0.205-1.034-0.577-0.352-0.571-0.173-1.318 0.397-1.669 36.588-22.501 19.066-81.925 18.884-82.522-0.193-0.641 0.169-1.319 0.811-1.513 0.645-0.193 1.318 0.168 1.512 0.809 0.188 0.616 18.229 61.823-19.936 85.293-0.2 0.12-0.42 0.18-0.63 0.18z"/>
			
			<path d="m346.76 100.51c-12.584 16.826 23.479 33.208 35.047 43.838 24.15 22.189 41.254 51.173 55.252 80.757 25.438 53.761 50.835 101.82 89.146 147.76 10.216 12.25 9.068 24.944 17.787 29.577 11.444 6.082 42.254-1.716 62.645 0.817-0.654-37.136-0.529-106.91-0.529-106.91s2.128-25.05 0.18-29.108c-1.946-4.057-51.683-20.731-76.298-27.493-21.509-5.909-31.85-10.626-42.842-21.182-0.373-0.358-0.792-0.855-0.735-1.374 2.226-20.218-0.207-33.993-2.426-48.93-4.06-27.335-19.006-57.017-36.698-66.154-0.484-0.25-1.056-0.3-1.596-0.44-28.293-7.363-72.044-3.617-101.62-4.575" fill="#C60101"/>
			
				<path d="m343.76 112.14c47.924 40.464 58.802 40.379 77.647 76.251 11.808 22.479 20.404 47.528 29.086 71.356 11.235 30.839 31.646 57.758 52.937 82.554 16.281 18.961 26.891 32.294 41.412 52.625 16.222 0.253 42.414 2.121 59.748 2.017-6.923-24.957-98.873-100.24-116.55-127.23-15.025-22.949-26.598-53.053-37.825-77.983-10.639-23.621-44.887-72.181-102.95-89.888" fill="#F7C844"/>
				<path d="m603.15 398.16c-9.771 0-21.942-0.559-33.731-1.101-9.113-0.418-17.721-0.813-24.594-0.92l-0.613-0.01-0.355-0.499c-13.935-19.506-24.367-32.764-41.347-52.54-19.706-22.952-41.433-50.753-53.155-82.929-0.979-2.687-1.957-5.39-2.938-8.102-7.69-21.256-15.645-43.235-26.083-63.106-13.346-25.405-22.407-32.415-44.301-49.35-8.627-6.674-19.363-14.979-33.053-26.538l1.564-1.854c13.651 11.526 24.365 19.813 32.973 26.472 21.542 16.664 31.374 24.269 44.966 50.142 10.515 20.018 18.496 42.077 26.216 63.409 0.98 2.711 1.957 5.412 2.936 8.097 11.59 31.811 33.153 59.393 52.717 82.179 16.888 19.667 27.32 32.91 41.124 52.212 6.804 0.121 15.191 0.506 24.055 0.913 11.664 0.536 23.706 1.089 33.38 1.097-5.671-14.721-37.264-45.215-65.251-72.232-22.141-21.372-43.054-41.558-50.628-53.126-11.711-17.886-21.15-39.672-30.278-60.74-2.635-6.08-5.123-11.823-7.639-17.409-11.258-24.999-45.454-71.921-102.2-89.226l0.708-2.321c57.576 17.558 92.277 65.18 103.7 90.55 2.521 5.602 5.013 11.352 7.651 17.44 9.088 20.975 18.486 42.664 30.084 60.376 7.424 11.341 28.241 31.435 50.281 52.71 30.649 29.585 62.344 60.179 66.417 74.863l0.423 1.528-1.585 9e-3c-0.48 0.01-0.96 0.01-1.45 0.01z"/>
			
			
					<rect transform="matrix(.8173 .5762 -.5762 .8173 228.54 -49.406)" x="190.97" y="328.89" width="2.426" height="13.632"/>
			
			
				<path d="m346.8 260.08 54.613 47.058 40.117-71.735-22.646-50.143-42.054-48.525-38.012-16.984s72.79 40.437 69.554 93.006c-3.24 52.55-61.57 47.31-61.57 47.31z" fill="#FB821F"/>
				
					<path d="m401.74 309.02-58.598-50.49 3.758 0.335c0.016 1e-3 1.604 0.14 4.216 0.14 12.476 0 53.391-3.341 56.037-46.329 3.15-51.195-68.211-91.47-68.933-91.872l1.084-2.167 38.258 17.093 42.419 49.023 22.898 50.7-41.15 73.58zm-51.51-47.59 50.85 43.816 39.094-69.904-22.321-49.424-41.762-48.187-23.034-10.292c6.514 4.557 14.614 10.746 22.581 18.214 23.553 22.081 35.291 45.31 33.945 67.177-2.776 45.101-45.447 48.606-58.458 48.606-0.31-0.02-0.61-0.02-0.89-0.02z"/>
				
			
			
				
						<rect transform="matrix(-.682 .7314 -.7314 -.682 965.64 258.05)" x="376.36" y="325.02" width="100.71" height="27.903" fill="#FDCB45"/>
					<path d="m450.91 294.34 18.633 17.374-67.025 71.877-18.633-17.372 67.02-71.88m-0.12-3.43-1.654 1.774-67.026 71.878-1.655 1.775 20.408 19.028 1.775 1.654 1.655-1.773 67.025-71.878 1.654-1.774-1.774-1.654-18.633-17.374-1.78-1.67z"/>
				
			
			
				<path d="m531.4 391.04-38.522-61.022-40.439-70.361-8.896-21.836-15.367-36.798-4.447 2.831c-4.614 3.394-6.366 14.264 1.071 14.952-7.35 5.747-2.247 15.729 5.672 16.561-8.66 5.637-6.859 19.504 4.044 20.712-7.666 8.036-4.438 19.509 6.56 20.644-9.456 10.724 1.798 25.003 13.71 20.509-8.554 11.787-1.521 25.406 14.012 22.771-5.604 10.086-2.033 17.664 8.995 16.834-4.384 5.096-3.143 26.023 17.48 26.426-10.118 13.874-0.738 28.697 13.78 24.079 0 0-13.041 11.221 1.213 23.049-17.287-3.64-26.664 14.331-15.165 24.869-11.057 0.392-20.439 13.805-11.192 23.54-21.12 2.376-20.908 19.09-14.964 28.014-10.33 0.838-15.425 16.357-7.995 21.746-11.22 3.824-13.996 16.639-7.633 23.928-5.312 2.091-6.733 3.775-4.844 8.948 0 0 4.536 1.456 8.567 5.133 0.214-0.473 85.07-148.61 85.07-148.61l-10.71-6.91z" fill="#fff"/>
				<path d="m457.38 548.5-1.154-1.033c-3.773-3.442-8.08-4.863-8.122-4.875l-0.563-0.184-0.205-0.557c-2.028-5.552-0.305-7.892 4.056-9.869-2.513-3.644-3.294-8.339-2.077-12.868 1.312-4.888 4.689-8.798 9.399-10.966-2.429-2.784-3.164-7.01-1.9-11.518 1.288-4.6 4.873-9.42 10.173-10.725-2.506-4.61-4.068-11.443-1.176-17.661 1.805-3.877 6.006-8.681 15.781-10.344-2.856-3.968-3.445-8.693-1.58-13.255 2.134-5.225 7.085-9.199 12.548-10.301-3.69-4.447-4.741-10.146-2.71-15.372 2.568-6.601 9.114-10.579 16.9-10.253-2.865-3.154-4.328-6.525-4.36-10.057-0.035-3.907 1.698-7.18 3.292-9.356-6.161 0.7-11.626-2.114-14.242-7.26-2.653-5.218-2.019-11.706 1.645-17.691-10.525-0.974-14.965-7.377-16.706-11.272-2.44-5.46-2.276-11.368-0.736-14.979-5.616-0.149-8.228-2.579-9.433-4.627-1.82-3.094-1.636-7.296 0.487-11.995-6.999 0.528-12.663-2.257-15.313-7.456-2.258-4.428-1.942-9.819 0.763-14.868-0.637 0.09-1.276 0.136-1.917 0.136-5.427 0-10.409-3.268-12.692-8.326-1.98-4.388-1.463-9.262 1.339-13.383-4.353-1.012-7.585-3.708-9.021-7.603-1.55-4.206-0.622-9.071 2.399-13.104-4.136-1.145-7.107-4.198-8.125-8.477-1.071-4.511 0.373-9.222 3.642-12.416-3.478-1.236-6.336-4.129-7.35-7.663-0.928-3.236-0.215-6.375 1.959-8.886-1.736-0.763-2.954-2.214-3.516-4.238-1.14-4.101 0.799-9.859 4.149-12.322l5.729-3.65 15.923 38.128 8.869 21.77 40.397 70.29 38.353 60.753 11.452 7.391-0.57 0.999c-0.843 1.469-84.17 146.94-85.049 148.57l-0.72 1.38zm-7.95-8.01c1.243 0.472 4.271 1.771 7.289 4.203 7.021-12.338 59.652-104.23 83.773-146.34l-9.969-6.434-0.144-0.226-38.522-61.023-40.536-70.551-8.896-21.836-14.808-35.459-3.231 2.057c-2.472 1.82-4.051 6.543-3.182 9.672 0.511 1.842 1.76 2.868 3.712 3.048l3.044 0.282-2.407 1.881c-2.628 2.055-3.646 4.931-2.798 7.892 0.991 3.45 4.217 6.125 7.849 6.507l3.4 0.357-2.865 1.866c-4.409 2.87-5.51 7.821-4.646 11.457 0.936 3.941 3.987 6.571 8.162 7.033l2.436 0.27-1.691 1.773c-3.458 3.624-4.709 8.31-3.266 12.227 1.323 3.591 4.631 5.915 9.072 6.373l2.343 0.242-1.558 1.768c-3.303 3.746-4.12 8.282-2.24 12.445 1.891 4.19 6.005 6.897 10.48 6.897 1.384 0 2.774-0.26 4.131-0.771l3.788-1.43-2.377 3.277c-3.629 4.999-4.461 10.599-2.227 14.98 2.442 4.791 8.161 7.053 15.054 5.881l2.49-0.423-1.227 2.208c-2.599 4.676-3.168 8.925-1.562 11.656 1.491 2.534 4.765 3.726 9.405 3.379l2.921-0.22-1.911 2.221c-1.772 2.06-2.835 8.396-0.122 14.465 1.981 4.432 6.488 9.757 16.707 9.957l2.329 0.046-1.373 1.881c-4.161 5.708-5.155 12.052-2.653 16.971 1.95 3.839 5.665 6.041 10.188 6.041 1.573 0 3.22-0.27 4.896-0.803l5.617-1.787-4.457 3.861c-0.051 0.043-5.094 4.483-5.031 10.399 0.041 3.77 2.135 7.402 6.227 10.798l3.773 3.132-4.798-1.011c-1.427-0.301-2.839-0.452-4.197-0.452-6.363 0-11.616 3.344-13.71 8.728-1.978 5.085-0.553 10.511 3.813 14.513l2.185 2.001-2.962 0.104c-5.481 0.194-10.781 3.933-12.89 9.09-1.038 2.543-2.09 7.534 2.533 12.403l1.681 1.769-2.425 0.272c-8.094 0.909-13.64 4.113-16.034 9.262-2.641 5.675-0.926 12.563 1.944 16.873l1.144 1.716-2.054 0.166c-5.16 0.419-8.689 4.954-9.896 9.263-0.953 3.402-0.794 7.893 2.514 10.293l1.896 1.375-2.218 0.755c-4.89 1.666-8.42 5.325-9.684 10.034-1.158 4.309-0.195 8.775 2.574 11.949l1.134 1.295-1.602 0.631c-4.79 1.87-5.6 3.03-4.3 6.84z"/>
			
			
				<path d="m461.47 555.18c-1.639 0-2.966-0.79-3.644-2.167-0.011-0.019-1.096-3.147-0.833-3.932 16.324-46.414 51.823-100.57 73.034-132.93 1.852-2.825 3.59-5.478 5.191-7.936 1.446-2.218 2.768-4.249 3.945-6.064-14.395-18.68-30.526-41.155-46.69-65.054-2.761-4.08-5.731-8.348-8.605-12.476-12.938-18.591-27.592-39.65-35.396-60.214-1.874-4.939-3.72-10.1-5.672-15.563-6.468-18.094-13.772-38.527-23.451-53.607-14.823-23.094-39.14-56.114-79.005-76.14l-1.084-0.544 3.811-7.588 1.084 0.545c46.559 23.387 73.491 65.351 82.339 79.141 10.207 15.901 17.683 36.816 24.278 55.271 1.943 5.438 3.779 10.574 5.639 15.473 7.435 19.594 21.774 40.199 34.427 58.377 3.069 4.409 5.93 8.521 8.667 12.568 15.632 23.107 49.332 67.89 49.672 68.34l0.504 0.671-0.448 0.709s-4.968 7.829-6.899 10.793c-19.18 29.438-59.086 90.685-76.774 139.92l-0.108 0.307c-0.47 1.3-2.39 2.09-3.98 2.09z" fill="#fff"/>
				<path d="m343.61 112.59c46.26 23.237 73.058 64.991 81.864 78.712 10.127 15.778 17.581 36.628 24.156 55.024 1.949 5.453 3.79 10.603 5.647 15.496 7.486 19.729 21.872 40.401 34.564 58.639 3.041 4.37 5.914 8.497 8.658 12.555 15.83 23.401 49.707 68.392 49.707 68.392s-4.961 7.819-6.89 10.78c-19.43 29.821-59.163 90.801-76.9 140.17-0.037 0.104-0.074 0.209-0.111 0.313-0.225 0.631-1.525 1.297-2.837 1.297-1.003 0-2.016-0.391-2.556-1.487-0.017-0.033-0.781-2.979-0.771-3.014 17.705-50.337 58.329-110.26 78.093-140.59 1.639-2.517 3.122-4.793 4.412-6.788-14.515-18.799-30.77-41.426-47.171-65.672-2.723-4.024-5.584-8.136-8.613-12.489-12.892-18.526-27.506-39.523-35.258-59.952-1.877-4.948-3.728-10.125-5.688-15.606-6.465-18.089-13.795-38.593-23.548-53.789-14.9-23.215-39.348-56.409-79.482-76.568l2.73-5.42m-1.08-3.26-1.088 2.167-2.723 5.421-1.089 2.167 2.168 1.089c39.6 19.892 63.784 52.737 78.529 75.711 9.605 14.964 16.885 35.328 23.307 53.295l0.023 0.066c1.956 5.468 3.802 10.634 5.68 15.583 7.857 20.706 22.558 41.829 35.527 60.467 2.879 4.137 5.849 8.402 8.604 12.473 15.983 23.63 31.935 45.872 46.21 64.433-1.056 1.628-2.22 3.416-3.476 5.344-1.601 2.457-3.339 5.108-5.19 7.934-21.24 32.405-56.79 86.642-73.157 133.18-0.248 0.74-0.205 0.904 0.314 2.917 0.443 1.724 0.443 1.724 0.573 1.984 0.885 1.796 2.609 2.831 4.727 2.831 1.979 0 4.447-1.02 5.122-2.907l0.054-0.151 0.062-0.173c17.636-49.084 57.488-110.25 76.642-139.65 1.917-2.943 6.858-10.731 6.908-10.81l0.9-1.418-1.012-1.341c-0.338-0.449-34.021-45.209-49.635-68.291-2.739-4.051-5.602-8.164-8.633-12.52l-0.044-0.062c-12.612-18.121-26.906-38.66-34.287-58.114-1.855-4.889-3.689-10.02-5.631-15.452-6.617-18.514-14.118-39.5-24.398-55.517-8.896-13.859-35.962-56.034-82.817-79.57l-2.16-1.08z"/>
			
			
				<path d="m606.4 269.25c-6.541-8.455-55.491-22.609-84.737-31.066-26.129-7.555-35.808-19.722-36.207-20.236l-0.302-0.389 0.054-0.49c0.097-0.861 9.032-86.478-40.111-114.33l1.195-2.111c20.953 11.877 34.74 35.859 39.871 69.354 3.526 23.015 1.844 43.349 1.51 46.836 1.802 2.044 11.828 12.436 34.663 19.04 41.609 12.031 79.495 23.525 85.984 31.912l-1.9 1.49z"/>
			
			
				<path d="m484.59 162.21c-0.489 0-0.948-0.297-1.133-0.782-0.239-0.627 0.075-1.328 0.702-1.566 7.646-2.91 16.079-5.254 25.006-7.736 2.388-0.664 4.811-1.337 7.24-2.029-9.5 0.23-19.948-0.556-27.916-5.442-4.165-2.554-6.429-6.046-6.728-10.38-0.522-7.601 5.432-16.149 11.187-20.877 2.816-2.313 5.895-4.275 9.206-5.87-4.142-0.233-8.211-1.368-11.874-4.438-0.513-0.431-0.581-1.196-0.15-1.709 0.432-0.513 1.195-0.58 1.709-0.15 5.134 4.302 11.405 4.257 17.42 3.566 0.626-0.074 1.199 0.345 1.326 0.958 0.128 0.614-0.233 1.225-0.832 1.408-5.691 1.737-10.826 4.465-15.265 8.111-5.29 4.344-10.771 12.092-10.306 18.834 0.241 3.506 2.117 6.359 5.574 8.479 10.314 6.324 25.539 5.305 36.656 4.563 0.603-0.055 1.159 0.382 1.271 0.986 0.114 0.604-0.241 1.197-0.827 1.381-5.646 1.779-11.439 3.39-17.043 4.948-8.872 2.466-17.252 4.795-24.793 7.667-0.15 0.05-0.29 0.08-0.44 0.08z"/>
			
			
				<path d="m504.79 149.44-0.936-2.238 0.337-0.146c0.148-0.066 0.292-0.132 0.434-0.202 13.34-6.428 23.893-32.114 18.513-45.057l2.241-0.931c5.883 14.155-5.162 41.168-19.697 48.172-0.163 0.079-0.331 0.156-0.496 0.23-0.11 0.06-0.25 0.12-0.38 0.18z"/>
			
			
				<path d="m453.07 174.14c-3.608 0-6.546-2.937-6.546-6.547s2.938-6.546 6.546-6.546c3.61 0 6.548 2.937 6.548 6.546s-2.94 6.55-6.55 6.55z" fill="#F7C844"/>
				<path d="m453.07 162.26c2.94 0 5.335 2.393 5.335 5.333s-2.395 5.333-5.335 5.333-5.333-2.393-5.333-5.333 2.4-5.33 5.34-5.33m0-2.43c-4.284 0-7.76 3.474-7.76 7.76s3.476 7.759 7.76 7.759c4.286 0 7.761-3.474 7.761-7.759s-3.47-7.76-7.76-7.76z"/>
			
			
				<path d="m487.04 250.56c-3.609 0-6.546-2.937-6.546-6.546s2.937-6.547 6.546-6.547c3.61 0 6.547 2.937 6.547 6.547s-2.94 6.55-6.55 6.55z" fill="#F7C844"/>
				<path d="m487.04 238.68c2.94 0 5.334 2.392 5.334 5.333s-2.394 5.333-5.334 5.333-5.333-2.393-5.333-5.333c0-2.93 2.39-5.33 5.33-5.33m0-2.42c-4.284 0-7.76 3.475-7.76 7.76s3.476 7.76 7.76 7.76c4.285 0 7.76-3.475 7.76-7.76 0-4.29-3.48-7.76-7.76-7.76z"/>
			
			
				<path d="m528.29 300.3c-3.61 0-6.547-2.937-6.547-6.546 0-3.61 2.937-6.546 6.547-6.546 3.609 0 6.547 2.937 6.547 6.546-0.01 3.61-2.94 6.55-6.55 6.55z" fill="#F7C844"/>
				<path d="m528.29 288.42c2.94 0 5.333 2.393 5.333 5.333s-2.393 5.333-5.333 5.333-5.334-2.393-5.334-5.333 2.39-5.33 5.33-5.33m0-2.42c-4.285 0-7.76 3.474-7.76 7.76s3.475 7.76 7.76 7.76 7.76-3.474 7.76-7.76-3.48-7.76-7.76-7.76z"/>
			
			
				<path d="m569.53 343.97c-3.61 0-6.547-2.937-6.547-6.546 0-3.61 2.937-6.547 6.547-6.547s6.547 2.937 6.547 6.547c0 3.62-2.94 6.55-6.55 6.55z" fill="#F7C844"/>
				<path d="m569.53 332.09c2.94 0 5.333 2.393 5.333 5.334s-2.393 5.333-5.333 5.333-5.333-2.392-5.333-5.333 2.39-5.33 5.33-5.33m0-2.42c-4.285 0-7.76 3.475-7.76 7.76s3.475 7.759 7.76 7.759 7.76-3.474 7.76-7.759c0-4.29-3.47-7.76-7.76-7.76z"/>
			
			
				<path d="m405.76 123.18c-3.609 0-6.546-2.937-6.546-6.547 0-3.609 2.937-6.546 6.546-6.546 3.61 0 6.547 2.937 6.547 6.546 0 3.62-2.94 6.55-6.55 6.55z" fill="#F7C844"/>
				<path d="m405.76 111.3c2.94 0 5.334 2.392 5.334 5.333s-2.394 5.333-5.334 5.333-5.333-2.392-5.333-5.333c0-2.93 2.39-5.33 5.33-5.33m0-2.42c-4.285 0-7.76 3.474-7.76 7.759 0 4.286 3.475 7.76 7.76 7.76s7.76-3.474 7.76-7.76c0-4.29-3.48-7.76-7.76-7.76z"/>
			
			
				<circle cx="393.96" cy="404.48" r="38.972" fill="#F7C844"/>
				<path d="m393.96 444.66c-22.159 0-40.185-18.025-40.185-40.185 0-22.158 18.026-40.185 40.185-40.185s40.185 18.026 40.185 40.185c0.01 22.16-18.02 40.18-40.18 40.18zm0-77.94c-20.82 0-37.758 16.938-37.758 37.758s16.938 37.759 37.758 37.759 37.758-16.938 37.758-37.759c0-20.82-16.94-37.76-37.76-37.76z"/>
			
			
					<rect transform="matrix(.9095 .4156 -.4156 .9095 75.384 -133.72)" x="343.65" y="100.53" width="2.426" height="11.573"/>
			
			
				<path d="m370.47 172.7c-2.751-3.116-10.055-7.554-16.068-7.427-2.528 0.049-4.496 0.927-5.848 2.596 0 0 0.476-4.922 5.795-5.021 10.89-0.2 16.13 9.85 16.13 9.85z"/>
			
			
				<path d="m346.33 227.67c-4.34 0-8.761-0.485-11.292-1.749l1.285-1.646c4.288 2.142 15.248 1.7 18.737 0.459 0 0.01-4.13 2.94-8.73 2.94z"/>
			
			
				<path d="m347.84 227.73c-2.156-1.688-5.462-4.336-7.611-6.132-1.184-0.989-4.875-2.821-8.128-1.809l-0.721-2.317c4.085-1.271 8.55 0.714 10.405 2.264 2.128 1.78 5.409 4.407 7.549 6.083l-1.49 1.92z"/>
			
			
				<path d="m335.66 233.94c-0.438 0-0.854-0.022-1.24-0.069l0.289-2.408c4.024 0.48 10.987-2.087 12.33-5.279l2.237 0.941c-1.78 4.24-8.96 6.82-13.62 6.82z"/>
			
			<path d="m359.99 178.61c2.13-0.197 4.083-1.849 4.625-3.924 0.75 2.323-0.026 4.197-1.378 6.022-1.018-0.745-2.146-1.752-3.399-2.022"/>
			<path d="m363.18 180.58c2.296 0.756 5.692-2.802 5.472-5.061 0.536 1.552 0.749 3.9-0.012 5.423-0.5 1-1.961 2.608-3.173 2.507-0.309-1.32-1.285-2.192-2.439-2.718"/>
			
				<rect x="219" y="323" width="5" height="32" fill="#FDCB45"/>
				<path d="m226 356h-8v-34h8v34zm-6-3h3v-27h-3v27z"/>
			
			
				<path d="m217.6 242.53c-4.459 1.885-3.918 8.958-3.669 12.691 1.235-2.19 2.56-5.869 5.534-6.216-0.771 4.493 0.169 9.756 0.167 14.396-2e-3 5.208 0.292 10.348 0.29 15.563 0 2.561 0.032 5.107 0.023 7.651 2.183 1.132 3.949 3.079 6.137 4.301 2.828 1.579 2.59 0.644 3.675-2.012 1.616-3.955 5.707-8.993 8.769-12.021 1.635-1.617 3.655-2.079 5.892-2.159-2.265-7.134-13.157-2.941-16.898-0.125-1.47 1.107-2.726 2.164-3.721 3.741-1.25-8.306 1.521-16.851 0.817-25.236-0.183-2.149-0.611-4.31-0.622-6.471 2.361 1.398 5.993 5.171 6.671 7.896 0.756-3.314 2.523-11.061-1.857-12.636-1.819-0.655-3.694 0.362-5.496 0.629-2.475 0.369-4.984-0.117-7.452 0.298" fill="#F7C844"/>
				
					<rect x="223" y="243" width="3" height="46"/>
				
				
					<rect x="218" y="242" width="2" height="44"/>
				
				<path d="m225.51 201c0.695-2.145 0.208-4.328-0.146-6.443-1.977 1.305-4.235 4.205-5.573 6.149-0.571-1.884-3.246-4.186-5.104-4.654 1.215 2.477 1.955 5.292 2 7.97-1.724-1.758-6.233-4.346-8.82-3.537 1.643 3.306 3.357 6.786 3.24 10.573-0.117 3.784-2.54 6.45-3.986 9.852-3.111 7.313-2.899 16.71 5.311 20.857 5.979 3.021 17.343 2.233 21.824-3.187 4.385-5.302-2.35-13.981-3.302-19.709-1.269-7.62 0.915-13.829 8.879-15.617 0.766-0.172 1.542-0.305 2.314-0.438-4.152-5.635-11.752-3.146-17.065 0.518 0.282-0.951 0.367-2.151 0.428-3.133" fill="#C60101"/>
				
					<path d="m230.6 256.96-1.081-2.034c-1.725-3.246-3.927-5.559-5.853-7.394l1.674-1.757c1.644 1.565 3.478 3.462 5.109 5.96 1.046-2.713 1.774-6.534-1.224-8.525l1.342-2.021c3.841 2.55 4.252 7.682 1.099 13.728l-1.07 2.03z"/>
				
				
					<path d="m214.12 258.12-0.939-2.958c-1.753-5.523-0.215-10.528 4.015-13.062l1.246 2.082c-2.745 1.645-3.631 4.411-3.514 7.115 1.217-1.738 2.505-2.766 4.021-3.684l1.257 2.076c-1.889 1.144-3.275 2.43-4.77 5.621l-1.33 2.8z"/>
				
				
					<path d="m224.76 243.94c-4.55 0-8.156-2.455-9.647-6.567-3.437-9.473 0.229-22.575 5.626-30.622 2.512-3.744 6.352-6.683 10.812-8.274 0.946-0.338 1.951-0.509 2.988-0.509 4.826 0 8.896 3.68 9.067 3.836l2.027 1.858-2.739 0.245c-3.957 0.353-7.277 2.134-9.351 5.014-1.926 2.674-2.579 6.105-1.792 9.416 0.425 1.788 1.408 3.725 2.449 5.775 2.485 4.898 5.302 10.45 0.726 15.386-2.59 2.77-6.39 4.43-10.18 4.43zm9.78-43.55c-0.757 0-1.488 0.124-2.172 0.368-3.973 1.418-7.387 4.025-9.611 7.341-4.934 7.353-8.489 19.821-5.361 28.442 1.146 3.158 3.831 4.968 7.367 4.968 3.078 1e-3 6.291-1.404 8.386-3.664 3.427-3.697 1.222-8.041-1.11-12.64-1.059-2.086-2.154-4.244-2.645-6.312-0.951-3.996-0.155-8.149 2.183-11.395 1.948-2.705 4.783-4.6 8.157-5.499-1.38-0.8-3.25-1.61-5.2-1.61z"/>
				
				
					<path d="m226.6 203.5-2.331-0.67c0.404-1.407 0.691-3.894 0.6-5.932-1.68 2.197-3.54 4.538-5.231 5.364l-1.065-2.18c1.303-0.636 3.291-3.243 4.743-5.146 0.47-0.617 0.915-1.2 1.319-1.701l1.296-1.606 0.772 1.914c1 2.48 0.61 7.48-0.11 9.97z"/>
				
				
					<path d="m222.06 244.45c-5.414 1e-3 -10.246-1.364-13.123-3.74-7.044-5.819-4.729-19.582-0.041-26.5 0.851-1.256 1.897-2.263 2.91-3.237 1.496-1.439 2.909-2.798 3.443-4.773 0.86-3.177-0.477-6.459-1.77-9.634l-1.27-3.126 2.704 1.15c5.518 2.346 7.928 10.376 6.32 15.719l-2.323-0.699c0.882-2.93 0.199-7.028-1.677-9.884 0.68 2.269 1.019 4.662 0.357 7.107-0.709 2.623-2.434 4.283-4.103 5.889-0.964 0.928-1.875 1.805-2.584 2.85-3.617 5.337-6.524 18.226-0.421 23.268 2.638 2.18 7.579 3.39 12.905 3.155l0.106 2.424c-0.5 0.02-0.98 0.03-1.45 0.03z"/>
				
				
					<path d="m212.42 213.36-2.272-0.85c1.149-3.07-1.244-8.761-3.464-11.49l-1.357-1.668 2.129-0.299c2.905-0.407 9.478 1.918 10.241 5.582l-2.375 0.495c-0.295-1.419-2.99-2.845-5.248-3.429 2.02 3.47 3.59 8.38 2.35 11.67z"/>
				
				
					<path d="m229.87 292.34-2.333-0.667c1.846-6.461 5.857-14.759 14.486-17.598 0.407-0.135 0.802-0.253 1.187-0.357-2.28-1.203-4.947-1.674-7.525-1.267-2.905 0.457-7.087 2.211-10.508 7.985l-2.087-1.237c3.902-6.585 8.799-8.608 12.219-9.145 4.219-0.659 8.63 0.621 11.805 3.43l2.128 1.882-2.832 0.235c-1.157 0.096-2.31 0.342-3.627 0.777-7.63 2.53-11.24 10.09-12.92 15.98z"/>
				
			
			
				<path d="m321.86 451.57-0.919-2.246c30.709-12.58 29.321-28.65 20.292-133.2-0.726-8.4-1.5-17.366-2.31-26.938l2.418-0.205c0.809 9.571 1.583 18.535 2.308 26.934 8.95 103.71 10.57 122.4-21.79 135.66z"/>
			
			
				<path d="m319.24 441.49-1.121-2.151c0.738-0.385 1.46-0.754 2.164-1.113 17.313-8.843 23.791-12.152 10.758-126.26l2.411-0.275c13.223 115.78 6.338 119.3-12.065 128.7-0.7 0.34-1.41 0.7-2.14 1.09z"/>
			
			
				<path d="m316.78 430.84-0.813-2.286c14.349-5.098 16.241-26.738 8.098-92.625l2.409-0.297c8.42 68.2 6.24 89.56-9.7 95.22z"/>
			
			
				<path d="m314.24 420.06-0.908-2.251c8.813-3.555 5.568-47.565 1.236-76.28l2.399-0.361c1.13 7.5 10.67 73.48-2.73 78.89z"/>
			
			
					<rect transform="matrix(.2319 .9728 -.9728 .2319 645.41 16.035)" x="262.75" y="415.46" width="99.599" height="2.426"/>
			
			
					<rect transform="matrix(.237 .9715 -.9715 .237 635.81 23.328)" x="279.14" y="415.22" width="47.819" height="2.427"/>
			
			
				<circle cx="393.96" cy="404.48" r="20.775" fill="#C60101"/>
				
					<path d="m393.96 427.68c-12.793 0-23.201-10.407-23.201-23.201 0-12.793 10.407-23.201 23.201-23.201s23.202 10.407 23.202 23.201c0 12.79-10.4 23.2-23.2 23.2zm0-41.55c-10.117 0-18.349 8.231-18.349 18.348 0 10.118 8.231 18.349 18.349 18.349 10.117 0 18.349-8.23 18.349-18.349 0-10.12-8.23-18.35-18.35-18.35z"/>
				
			
			
					<rect transform="matrix(.2253 .9743 -.9743 .2253 633.01 36.747)" x="289.68" y="415.23" width="7.432" height="2.426"/>
			
			
				<path d="m310.46 402.75-2.324-0.696c2.541-8.471-0.311-29.881-1.656-38.693l2.399-0.365c1.7 11.15 4.16 31.13 1.58 39.75z"/>
			
			
				
					<path d="m203.72 285.02c-3.26-5.189-2.419-10.471 1.677-14.348 4.099-3.88 33.504 14.45 35.754 22.207 1.053 3.635-1.178 9.954-4.474 11.854" fill="#fff"/>
					<path d="m237.28 305.78-1.211-2.102c2.726-1.571 4.848-7.244 3.914-10.465-1.672-5.765-21.384-19.015-30.433-21.474-2.706-0.733-3.297-0.212-3.322-0.19-3.802 3.599-4.342 8.272-1.483 12.821l-2.055 1.292c-3.48-5.539-2.781-11.473 1.87-15.875 1.058-1.003 2.897-1.13 5.626-0.389 9.354 2.542 30.04 15.94 32.127 23.139 1.23 4.29-1.35 11.1-5.05 13.23z"/>
				
				
					<path d="m202.71 300.69c-5.662-4.146-4.272-13.08-1.113-15.063 4.347-2.729 31.979 16.215 34.282 19.166 2.732 3.502 2.82 8.838-1.426 12.275" fill="#fff"/>
					<path d="m235.22 318.01-1.527-1.886c3.819-3.092 3.512-7.665 1.233-10.585-2.976-3.813-29.554-20.845-32.68-18.886-1.008 0.633-2.08 2.707-2.177 5.444-0.054 1.51 0.166 5.274 3.362 7.614l-1.434 1.957c-2.909-2.13-4.496-5.65-4.354-9.658 0.118-3.313 1.418-6.222 3.313-7.412 5.45-3.425 33.887 16.889 35.884 19.447 2.94 3.76 3.37 9.93-1.61 13.97z"/>
				
				
					<path d="m197.65 315.24c-3.335-4.853-2.085-8.837 0.462-12.701 2.886-4.376 5.158-1.223 9.142 0.974 5.334 2.94 10.225 5.372 15.568 8.291 2.725 1.487 9.792 3.651 11.222 6.57 1.821 3.718-2.762 10.034-5.567 11.703" fill="#fff"/>
					<path d="m229.1 331.12-1.241-2.085c2.499-1.486 6.516-7.232 5.098-10.126-0.844-1.722-4.927-3.47-7.629-4.626-1.231-0.526-2.294-0.981-3.084-1.413-2.533-1.384-4.964-2.658-7.388-3.928-2.643-1.384-5.374-2.816-8.185-4.365-0.872-0.481-1.668-1.007-2.37-1.471-1.193-0.788-2.223-1.469-3.015-1.542-0.298-0.027-1.012-0.095-2.158 1.643-2.104 3.192-3.618 6.776-0.475 11.346l-2 1.374c-3.989-5.802-1.855-10.559 0.449-14.056 1.31-1.987 2.75-2.88 4.408-2.724 1.398 0.129 2.663 0.964 4.128 1.932 0.697 0.46 1.417 0.937 2.206 1.37 2.787 1.538 5.508 2.962 8.138 4.341 2.437 1.277 4.88 2.558 7.426 3.948 0.688 0.375 1.75 0.83 2.875 1.312 3.393 1.451 7.614 3.258 8.853 5.789 2.11 4.34-2.73 11.3-6.05 13.28z"/>
				
				
					<path d="m197.05 315.24c-3.48 6.061-6.457 9.167-0.101 14.761 6.384 5.618 14.068 9.042 22.038 11.422 6.328 1.888 8.047-0.602 10.063-6.466 2.441-7.101-4.264-6.574-9.912-8.698-7.366-2.771-15.805-6.42-22.089-11.423" fill="#fff"/>
					<path d="m222.59 343.26c-1.121 0-2.422-0.211-3.951-0.667-9.396-2.806-16.753-6.625-22.492-11.674-6.451-5.678-4.134-9.567-1.199-14.492 0.337-0.567 0.691-1.16 1.049-1.785l0.832 0.478 0.976-1.225c6.51 5.184 15.537 8.895 21.76 11.236 1.218 0.459 2.509 0.793 3.757 1.116 2.931 0.759 5.699 1.475 6.896 3.703 0.754 1.404 0.747 3.174-0.021 5.41-1.58 4.52-3.15 7.89-7.62 7.89zm-25.03-26.5c-0.181 0.307-0.36 0.607-0.535 0.9-2.898 4.864-4.221 7.083 0.718 11.429 5.469 4.813 12.53 8.467 21.583 11.171 5.206 1.555 6.574 0.103 8.568-5.698 0.538-1.562 0.596-2.697 0.179-3.473-0.694-1.292-2.859-1.853-5.367-2.502-1.309-0.339-2.664-0.689-4.003-1.193-5.98-2.25-14.5-5.75-21.14-10.64z"/>
				
			
			
				<path d="m214.32 414.56c-8.961 0-16.252-7.291-16.252-16.252 0-8.96 7.291-16.251 16.252-16.251s16.251 7.291 16.251 16.251-7.29 16.25-16.25 16.25z" fill="#FB821F"/>
				
					<path d="m214.32 383.27c8.292 0 15.039 6.746 15.039 15.038 0 8.293-6.747 15.039-15.039 15.039s-15.039-6.746-15.039-15.039c0-8.29 6.74-15.04 15.04-15.04m0-2.42c-9.645 0-17.465 7.819-17.465 17.464 0 9.644 7.82 17.465 17.465 17.465s17.464-7.821 17.464-17.465c0-9.65-7.82-17.47-17.46-17.47z"/>
				
			
			
				<path d="m580.68 414.56c-8.962 0-16.252-7.291-16.252-16.252 0-8.96 7.29-16.251 16.252-16.251 8.96 0 16.252 7.291 16.252 16.251s-7.29 16.25-16.25 16.25z" fill="#FB821F"/>
				
					<path d="m580.68 383.27c8.293 0 15.038 6.746 15.038 15.038 0 8.293-6.745 15.039-15.038 15.039s-15.039-6.746-15.039-15.039c0-8.29 6.75-15.04 15.04-15.04m0-2.42c-9.645 0-17.465 7.819-17.465 17.464 0 9.644 7.82 17.465 17.465 17.465s17.465-7.821 17.465-17.465c0.01-9.65-7.82-17.47-17.46-17.47z"/>
				
			
			<path d="m350.33 180.69c0-2.719 1.701-4.549 3.237-4.549 1.535 0 2.779 2.203 2.779 4.922 0 2.717-1.244 4.919-2.779 4.919-1.54 0.01-3.24-2.57-3.24-5.29z"/>
			<path d="m361.78 185c1.057-0.139 7.688-0.997 8.769-1.321-3.186-0.505-6.594-2.575-7.372-3.07-2.67-2.499-7.127-6.05-16.053-4.34 0 0 0.956 2.539 2.186 2.524 0.053 0 0.106-0.022 0.159-0.033 4.277-0.869 8.234 0.157 12.5 2.81 1.07 1.21 1.3 2.64-0.2 3.43z"/>
			
				
					
						<path d="m543.99 402.45" fill="#fff" stroke="#000" stroke-miterlimit="10" stroke-width="2"/>
					
				
			
		</g>
	
	
		<path d="m602.35 703h-408.59c-3.414 0-6.759-1.999-6.759-5.399v-592.01c0-3.401 3.346-5.593 6.759-5.593h408.59c3.461 0 6.648 2.249 6.648 5.593v592.01c0 3.34-3.19 5.4-6.65 5.4zm-408.59-601c-2.053 0-3.759 1.553-3.759 3.593v592.01c0 2.041 1.707 3.399 3.759 3.399h408.59c2.086 0 3.648-1.428 3.648-3.399v-592.01c0-1.972-1.563-3.593-3.648-3.593h-408.59z"/>
	
	
		<path d="m147.8 92.702c-4.886 0-9.254-0.758-13.106-2.274-3.854-1.517-7.123-3.759-9.807-6.729-2.686-2.969-4.741-6.642-6.167-11.018-1.427-4.375-2.138-9.438-2.138-15.188 0-4.929 0.773-9.415 2.321-13.458 1.547-4.043 3.709-7.502 6.485-10.378 2.776-2.875 6.091-5.102 9.944-6.682 3.853-1.579 8.1-2.369 12.742-2.369 4.551 0 8.723 0.782 12.515 2.345 3.792 1.564 7.055 3.784 9.785 6.658 2.731 2.875 4.854 6.318 6.371 10.331 1.518 4.012 2.276 8.467 2.276 13.363 0 7.93-1.456 14.516-4.37 19.761-2.912 5.276-6.766 9.241-11.559 11.894 2.184 4.739 4.307 8.229 6.371 10.473 2.063 2.242 4.095 3.364 6.099 3.364 2.304 0 3.974-0.395 5.005-1.185 1.001-0.727 1.851-2.038 2.548-3.933 0.091-0.253 0.243-0.435 0.455-0.545 0.212-0.111 0.439-0.167 0.683-0.167 0.242 0 0.485 0.048 0.728 0.143s0.455 0.229 0.638 0.403c0.182 0.174 0.326 0.371 0.432 0.592 0.105 0.221 0.129 0.474 0.069 0.758-0.334 1.358-0.835 2.828-1.502 4.407-0.668 1.58-1.578 3.048-2.73 4.407-1.153 1.358-2.586 2.488-4.301 3.388-1.714 0.9-3.785 1.351-6.212 1.351-1.365 0-2.662-0.332-3.891-0.995s-2.382-1.548-3.458-2.653c-1.078-1.106-2.079-2.37-3.004-3.792-0.925-1.421-1.775-2.891-2.548-4.407s-1.471-3.025-2.093-4.525c-0.622-1.501-1.146-2.867-1.57-4.099-2.31 0.483-4.65 0.736-7.01 0.736zm-2.6-20.283c2.336 0 4.779 0.759 7.327 2.275 2.578 1.485 4.976 4.233 7.19 8.246 2.367-2.844 4.188-6.381 5.461-10.615 1.275-4.265 1.912-8.783 1.912-13.553 0-2.496-0.138-4.983-0.41-7.463-0.274-2.48-0.722-4.833-1.342-7.061-0.624-2.227-1.434-4.289-2.436-6.184-1.001-1.896-2.214-3.545-3.641-4.952-1.426-1.406-3.087-2.496-4.983-3.27-1.896-0.773-4.058-1.161-6.485-1.161-3.368 0-6.272 0.869-8.715 2.606-2.442 1.738-4.444 4.021-6.007 6.848-1.563 2.828-2.715 6.034-3.458 9.62-0.744 3.586-1.116 7.227-1.116 10.923 0 2.085 0.076 4.146 0.229 6.184 0.15 2.038 0.416 3.997 0.796 5.876 0.379 1.88 0.872 3.673 1.478 5.378 0.607 1.706 1.366 3.27 2.276 4.692 0.363-1.042 0.865-2.069 1.502-3.08s1.441-1.904 2.412-2.678c0.97-0.773 2.116-1.405 3.436-1.896 1.32-0.489 2.85-0.735 4.57-0.735zm2.96 16.207c1.759 0 3.444-0.284 5.051-0.853-1.85-3.823-3.488-6.682-4.914-8.577-1.458-1.99-3.203-2.985-5.234-2.985-1.063 0-2.033 0.308-2.913 0.924-0.881 0.616-1.638 1.319-2.275 2.108-0.608 0.759-1.063 1.533-1.366 2.322-0.303 0.79-0.456 1.312-0.456 1.564 0 0.348 0.357 0.821 1.07 1.422 0.712 0.601 1.638 1.208 2.776 1.824s2.434 1.146 3.891 1.588c1.46 0.443 2.92 0.663 4.37 0.663z" fill="#C60101"/>
	
	<path d="m174.48 141.56s-17.658 15.507-26.938 29.38c-9.281-14.972-26.939-29.38-26.939-29.38s18.392-17.583 26.939-29.625c8.8 12.16 26.94 29.62 26.94 29.62z" fill="#C60101"/>
	<path d="m324.33 173.46s-30.798 27.047-46.983 51.244c-16.186-26.113-46.984-51.244-46.984-51.244s32.076-30.666 46.984-51.668c15.33 21.22 46.98 51.67 46.98 51.67z" fill="#C60101"/>
	
		<path d="m650.19 715.23c4.885 0 9.253 0.759 13.105 2.275 3.854 1.516 7.123 3.757 9.808 6.729 2.686 2.969 4.74 6.641 6.167 11.017 1.427 4.374 2.139 9.438 2.139 15.188 0 4.928-0.774 9.414-2.321 13.458-1.547 4.043-3.709 7.501-6.484 10.378-2.776 2.874-6.091 5.102-9.944 6.682-3.853 1.578-8.1 2.369-12.741 2.369-4.552 0-8.724-0.781-12.516-2.345s-7.055-3.784-9.784-6.658c-2.731-2.877-4.854-6.319-6.372-10.331-1.518-4.014-2.275-8.469-2.275-13.364 0-7.93 1.456-14.516 4.369-19.76 2.912-5.276 6.766-9.24 11.56-11.895-2.185-4.738-4.309-8.229-6.372-10.474-2.063-2.243-4.096-3.363-6.098-3.363-2.305 0-3.975 0.394-5.007 1.185-1.001 0.727-1.85 2.038-2.548 3.933-0.091 0.252-0.243 0.435-0.454 0.545-0.213 0.11-0.44 0.167-0.684 0.167-0.242 0-0.485-0.048-0.728-0.143s-0.456-0.229-0.638-0.403c-0.183-0.174-0.326-0.372-0.433-0.593-0.105-0.222-0.129-0.474-0.069-0.758 0.335-1.358 0.836-2.827 1.503-4.406 0.669-1.581 1.578-3.05 2.73-4.408 1.153-1.358 2.587-2.487 4.301-3.388s3.785-1.351 6.212-1.351c1.365 0 2.662 0.332 3.891 0.995 1.229 0.664 2.383 1.548 3.459 2.654 1.078 1.104 2.078 2.369 3.004 3.791 0.925 1.421 1.774 2.891 2.549 4.406 0.773 1.518 1.471 3.025 2.093 4.525s1.146 2.868 1.57 4.1c2.29-0.54 4.62-0.79 6.99-0.79zm2.59 20.28c-2.336 0-4.778-0.759-7.327-2.275-2.577-1.485-4.976-4.233-7.189-8.245-2.367 2.843-4.188 6.381-5.462 10.615-1.274 4.264-1.913 8.78-1.913 13.553 0 2.494 0.139 4.982 0.411 7.463 0.273 2.479 0.721 4.833 1.342 7.062 0.623 2.228 1.434 4.288 2.436 6.184 1.001 1.896 2.214 3.544 3.641 4.952 1.427 1.404 3.088 2.495 4.982 3.271 1.897 0.771 4.059 1.16 6.486 1.16 3.368 0 6.272-0.87 8.714-2.606 2.443-1.738 4.444-4.021 6.008-6.848 1.563-2.828 2.716-6.035 3.458-9.619 0.744-3.587 1.116-7.227 1.116-10.923 0-2.085-0.075-4.146-0.229-6.184-0.15-2.038-0.416-3.997-0.796-5.877-0.379-1.881-0.873-3.673-1.479-5.378-0.607-1.706-1.366-3.271-2.276-4.691-0.363 1.042-0.865 2.067-1.502 3.079-0.637 1.01-1.441 1.903-2.412 2.678-0.971 0.772-2.116 1.405-3.436 1.896-1.31 0.48-2.84 0.73-4.57 0.73zm-2.96-16.21c-1.76 0-3.444 0.284-5.052 0.854 1.851 3.821 3.489 6.682 4.915 8.576 1.457 1.99 3.201 2.986 5.233 2.986 1.063 0 2.033-0.309 2.913-0.925 0.88-0.615 1.637-1.32 2.274-2.108 0.608-0.759 1.063-1.533 1.366-2.322 0.304-0.792 0.455-1.313 0.455-1.564 0-0.347-0.356-0.821-1.07-1.421-0.712-0.602-1.639-1.208-2.775-1.824-1.138-0.616-2.435-1.146-3.892-1.588-1.45-0.46-2.91-0.68-4.37-0.68z" fill="#C60101"/>
	
	<path d="m622.29 666.37s17.658-15.508 26.938-29.381c9.281 14.973 26.939 29.381 26.939 29.381s-18.392 17.583-26.939 29.624c-8.79-12.16-26.94-29.62-26.94-29.62z" fill="#C60101"/>
	<path d="m473.41 634.47s30.162-26.488 46.013-50.187c15.852 25.575 46.015 50.187 46.015 50.187s-31.413 30.033-46.015 50.603c-15.01-20.77-46.01-50.6-46.01-50.6z" fill="#C60101"/>

<metadata><rdfRDF><ccWork><dcFormat>image/svg+xml</dcFormat><dcType rdfResource="http://purl.org/dc/dcmitype/StillImage"/><ccLicense rdfResource="http://creativecommons.org/licenses/publicdomain/"/><dcPublisher><ccAgent rdfAbout="http://openclipart.org/"><dcTitle>Openclipart</dcTitle></ccAgent></dcPublisher></ccWork><ccLicense rdfAbout="http://creativecommons.org/licenses/publicdomain/"><ccPermits rdfResource="http://creativecommons.org/ns#Reproduction"/><ccPermits rdfResource="http://creativecommons.org/ns#Distribution"/><ccPermits rdfResource="http://creativecommons.org/ns#DerivativeWorks"/></ccLicense></rdfRDF></metadata></svg>
