<?xml version="1.0" encoding="UTF-8"?>
<svg enable-background="new 0 0 800 800" version="1.1" viewBox="0 0 800 800" xmlSpace="preserve" xmlns="http://www.w3.org/2000/svg" xmlnsCc="http://web.resource.org/cc/" xmlnsDc="http://purl.org/dc/elements/1.1/" xmlnsRdf="http://www.w3.org/1999/02/22-rdf-syntax-ns#">

	
		
			<path d="m119.61 799c-5.549 0-9.608-4.351-9.608-9.365v-776.12c0-5.015 4.06-9.52 9.61-9.52h564.38c5.55 0 10.01 4.505 10.01 9.521v776.11c0 5.015-4.459 9.365-10.009 9.365h-564.38z" fill="#fff"/>
			<path d="m684.01 8.032c3.879 0 6.988 2.146 6.988 5.489v776.11c0 3.343-3.131 6.365-7.009 6.365h-564.38c-3.877 0-7.608-3.022-7.608-6.365v-776.12c0-3.343 3.73-5.52 7.61-5.52h564.39m-0.01-6h-564.38c-7.23 0-13.61 4.823-13.61 11.521v776.11c0 6.696 6.375 12.365 13.608 12.365h564.38c7.232 0 13.009-5.669 13.009-12.365v-776.12c0-6.697-5.56-11.52-12.8-11.52h-0.21z"/>
		
		
			
				
					<path d="m183.64 66.015c0 2.351-0.412 4.514-1.235 6.489s-1.969 3.686-3.438 5.131c-1.47 1.446-3.251 2.575-5.344 3.385-2.092 0.812-4.419 1.217-6.982 1.217-3.126 0-5.749-0.541-7.865-1.622-2.115-1.081-3.814-2.557-5.096-4.426-1.281-1.869-2.186-4.085-2.715-6.648-0.528-2.562-0.793-5.325-0.793-8.287 0-1.975 0.111-4.05 0.335-6.225 0.224-2.174 0.611-4.332 1.165-6.471 0.552-2.14 1.323-4.173 2.309-6.101 0.988-1.928 2.239-3.638 3.756-5.131 1.516-1.493 3.333-2.674 5.449-3.544 2.116-0.869 4.596-1.304 7.441-1.304 3.527 0 6.26 0.535 8.2 1.604 1.94 1.07 2.91 2.581 2.91 4.532 0 0.87-0.335 1.646-1.005 2.327-0.67 0.683-1.511 1.023-2.521 1.023-0.823 0-1.535-0.229-2.134-0.688-0.599-0.458-0.899-1.099-0.899-1.922 0-0.282 0.082-0.605 0.247-0.97s0.247-0.688 0.247-0.97c0-0.682-0.465-1.252-1.394-1.71s-2.357-0.688-4.285-0.688c-2.375 0-4.332 0.576-5.872 1.728-1.541 1.152-2.769 2.728-3.686 4.726s-1.564 4.35-1.939 7.053c-0.377 2.704-0.587 5.596-0.635 8.675 1.246-1.88 2.821-3.292 4.726-4.232 1.904-0.94 3.89-1.411 5.959-1.411 2.68 0 4.973 0.4 6.877 1.199 1.904 0.8 3.473 1.869 4.708 3.209 1.234 1.34 2.127 2.88 2.68 4.62 0.54 1.741 0.82 3.551 0.82 5.432zm-7.59 0.141c0-1.363-0.101-2.727-0.3-4.091-0.2-1.363-0.611-2.586-1.234-3.667-0.624-1.082-1.488-1.975-2.592-2.681-1.105-0.705-2.599-1.058-4.479-1.058-1.505 0-2.845 0.312-4.021 0.935s-2.186 1.405-3.033 2.345c-0.845 0.94-1.481 1.993-1.904 3.156-0.423 1.164-0.635 2.275-0.635 3.333 0 2.022 0.117 3.956 0.353 5.801 0.234 1.846 0.699 3.456 1.393 4.832 0.694 1.375 1.634 2.474 2.822 3.297 1.187 0.823 2.72 1.234 4.602 1.234 1.927 0 3.479-0.435 4.655-1.304 1.175-0.87 2.085-1.969 2.732-3.298 0.647-1.328 1.082-2.786 1.305-4.373 0.22-1.586 0.33-3.073 0.33-4.461z"/>
				
			
			
				
					<path d="m628.92 750.33c0-2.352 0.412-4.515 1.234-6.489 0.824-1.975 1.971-3.685 3.438-5.132 1.47-1.445 3.25-2.575 5.344-3.385 2.092-0.812 4.42-1.218 6.982-1.218 3.127 0 5.748 0.543 7.863 1.622 2.116 1.082 3.816 2.558 5.098 4.428 1.281 1.868 2.186 4.084 2.714 6.646 0.529 2.562 0.794 5.326 0.794 8.288 0 1.974-0.111 4.049-0.334 6.224-0.225 2.175-0.611 4.331-1.164 6.473-0.554 2.139-1.323 4.172-2.311 6.1s-2.238 3.639-3.756 5.132c-1.517 1.492-3.334 2.674-5.448 3.544-2.116 0.869-4.597 1.304-7.442 1.304-3.526 0-6.259-0.533-8.198-1.603-1.94-1.071-2.91-2.581-2.91-4.532 0-0.871 0.335-1.646 1.006-2.327 0.669-0.683 1.51-1.023 2.521-1.023 0.822 0 1.534 0.229 2.134 0.688s0.898 1.099 0.898 1.923c0 0.281-0.081 0.604-0.247 0.969-0.163 0.364-0.246 0.688-0.246 0.971 0 0.681 0.464 1.252 1.393 1.71 0.93 0.458 2.357 0.688 4.284 0.688 2.376 0 4.333-0.576 5.873-1.728 1.541-1.153 2.768-2.729 3.686-4.726 0.916-1.998 1.564-4.351 1.938-7.054 0.376-2.704 0.589-5.596 0.635-8.675-1.246 1.881-2.821 3.291-4.726 4.231s-3.89 1.41-5.959 1.41c-2.681 0-4.974-0.4-6.878-1.198-1.904-0.801-3.473-1.869-4.708-3.209-1.233-1.341-2.128-2.881-2.68-4.62s-0.8-3.54-0.8-5.42zm7.58-0.14c0 1.363 0.102 2.727 0.301 4.091 0.199 1.363 0.611 2.586 1.233 3.668 0.623 1.081 1.488 1.974 2.593 2.68s2.597 1.059 4.478 1.059c1.507 0 2.846-0.313 4.021-0.936s2.187-1.404 3.032-2.345c0.847-0.94 1.482-1.992 1.904-3.156 0.424-1.164 0.635-2.274 0.635-3.332 0-2.023-0.116-3.957-0.352-5.802-0.236-1.846-0.7-3.456-1.395-4.832-0.692-1.375-1.633-2.474-2.82-3.297s-2.722-1.234-4.603-1.234c-1.928 0-3.479 0.435-4.655 1.306-1.176 0.869-2.085 1.968-2.731 3.297-0.646 1.328-1.083 2.785-1.306 4.372-0.21 1.58-0.32 3.07-0.32 4.46z"/>
				
			
		
	
	<g clip-rule="evenodd" fill-rule="evenodd">
		<path d="m185.02 113.73c-1.516 0-2.976 0.241-4.346 0.681 2.29-2.521 3.684-5.869 3.684-9.542 0-7.842-6.356-14.197-14.197-14.197s-14.198 6.355-14.198 14.197c0 4.082 1.727 7.76 4.486 10.35-1.153-0.302-2.362-0.465-3.609-0.465-7.842 0-14.197 6.356-14.197 14.197s6.354 14.197 14.197 14.197c4.555 0 8.604-1.239 11.203-4.573-0.649 8.699-1.338 16.423-1.338 16.423h8.508s-1.007-8.487-1.849-18.063c2.564 3.685 6.827 5.642 11.657 5.642 7.842 0 14.197-6.583 14.197-14.424 0.01-7.85-6.34-14.44-14.19-14.44zm-18.19 4.94c-0.022 0.045-0.044 0.089-0.066 0.134-0.07-0.067-0.141-0.134-0.212-0.201 0.1 0.03 0.19 0.05 0.28 0.07z"/>
		<path d="m670.94 688.73c0-7.842-6.355-14.221-14.196-14.221-4.83 0-9.093 2.711-11.658 6.393 0.843-9.572 1.85-16.9 1.85-16.9h-8.509s0.689 6.563 1.34 15.262c-2.599-3.334-6.648-5.56-11.204-5.56-7.842 0-14.197 6.269-14.197 14.111 0 7.839 6.355 14.152 14.197 14.152 1.246 0 2.457-0.185 3.61-0.486-2.76 2.59-4.486 6.258-4.486 10.34 0 7.842 6.357 14.192 14.197 14.192 7.841 0 14.196-6.357 14.196-14.199 0-3.674-1.394-7.021-3.683-9.543 1.369 0.44 2.83 0.679 4.347 0.679 7.83 0.01 14.19-6.37 14.19-14.21zm-32.67 9.35c0.07-0.067 0.142-0.135 0.21-0.201 0.023 0.045 0.046 0.089 0.066 0.134-0.09 0.02-0.19 0.04-0.28 0.07z"/>
	</g>
	<g clip-rule="evenodd" fill-rule="evenodd">
		<path d="m552.05 624.52c-3.734 0-7.33 0.591-10.705 1.677 5.637-6.209 9.073-14.451 9.073-23.497 0-19.311-15.653-34.964-34.961-34.964-19.311 0-34.963 15.653-34.963 34.964 0 10.055 4.25 19.109 11.044 25.488-2.839-0.744-5.818-1.145-8.89-1.145-19.31 0-34.963 15.653-34.963 34.962 0 19.311 15.653 34.964 34.963 34.964 11.216 0 21.193-5.125 27.591-13.34-1.602 21.428-3.297 38.371-3.297 38.371h20.952s-2.478-18.826-4.553-42.406c6.315 9.07 16.815 14.932 28.708 14.932 19.31 0 34.962-15.693 34.962-35.002 0.01-19.3-15.64-34.99-34.95-34.99zm-44.8 12.16c-0.052 0.11-0.107 0.219-0.162 0.33-0.172-0.167-0.345-0.332-0.52-0.497 0.22 0.07 0.45 0.12 0.68 0.17z"/>
		<path d="m552.05 394.11c-3.734 0-7.33 0.591-10.705 1.677 5.637-6.209 9.073-14.452 9.073-23.498 0-19.31-15.653-34.963-34.961-34.963-19.311 0-34.963 15.653-34.963 34.963 0 10.055 4.25 19.11 11.044 25.488-2.839-0.744-5.818-1.144-8.89-1.144-19.31 0-34.963 15.653-34.963 34.961 0 19.311 15.653 34.964 34.963 34.964 11.216 0 21.193-4.921 27.591-13.135-1.602 21.428-3.297 38.575-3.297 38.575h20.952s-2.478-19.03-4.553-42.611c6.315 9.071 16.815 14.83 28.708 14.83 19.31 0 34.962-15.744 34.962-35.054s-15.64-35.06-34.95-35.06zm-44.8 12.16c-0.052 0.111-0.107 0.219-0.162 0.329-0.172-0.166-0.345-0.331-0.52-0.495 0.22 0.07 0.45 0.12 0.68 0.17z"/>
		<path d="m550.84 151.58c-3.735 0-7.331 0.591-10.706 1.677 5.637-6.209 9.074-14.452 9.074-23.498 0-19.31-15.654-34.962-34.962-34.962-19.311 0-34.963 15.653-34.963 34.962 0 10.055 4.25 19.11 11.044 25.488-2.838-0.744-5.817-1.144-8.89-1.144-19.31 0-34.963 15.653-34.963 34.962 0 19.31 15.653 34.963 34.963 34.963 11.216 0 21.193-5.153 27.591-13.367-1.59 21.42-3.29 38.34-3.29 38.34h20.953s-2.478-18.798-4.554-42.379c6.315 9.071 16.815 14.946 28.709 14.946 19.309 0 34.961-15.687 34.961-34.996 0-19.31-15.65-34.99-34.96-34.99zm-44.8 12.16c-0.053 0.111-0.108 0.219-0.163 0.33-0.171-0.167-0.344-0.332-0.52-0.496 0.22 0.06 0.45 0.11 0.68 0.17z"/>
	</g>
	<g clip-rule="evenodd" fill-rule="evenodd">
		<path d="m325.65 629.91c-3.735 0-7.331 0.592-10.706 1.677 5.637-6.208 9.074-14.451 9.074-23.497 0-19.309-15.653-34.963-34.961-34.963-19.311 0-34.963 15.654-34.963 34.963 0 10.055 4.25 19.11 11.044 25.489-2.839-0.744-5.818-1.145-8.89-1.145-19.31 0-34.963 15.652-34.963 34.962s15.653 34.963 34.963 34.963c11.216 0 21.193-5.32 27.591-13.534-1.601 21.428-3.297 38.176-3.297 38.176h20.953s-2.477-18.631-4.553-42.212c6.315 9.071 16.815 15.03 28.708 15.03 19.31 0 34.962-15.646 34.962-34.953 0.01-19.32-15.64-34.97-34.95-34.97zm-44.8 12.16c-0.052 0.11-0.107 0.22-0.162 0.329-0.172-0.167-0.345-0.331-0.52-0.496 0.22 0.07 0.45 0.12 0.68 0.17z"/>
		<path d="m325.65 399.5c-3.735 0-7.331 0.591-10.706 1.677 5.637-6.209 9.074-14.452 9.074-23.498 0-19.31-15.653-34.962-34.961-34.962-19.311 0-34.963 15.653-34.963 34.962 0 10.055 4.25 19.11 11.044 25.489-2.839-0.744-5.818-1.145-8.89-1.145-19.31 0-34.963 15.653-34.963 34.962 0 19.31 15.653 34.963 34.963 34.963 11.216 0 21.193-5.115 27.591-13.33-1.601 21.428-3.297 38.381-3.297 38.381h20.953s-2.477-18.836-4.553-42.416c6.315 9.07 16.815 14.928 28.708 14.928 19.31 0 34.962-15.696 34.962-35.006 0.01-19.29-15.64-34.99-34.95-34.99zm-44.8 12.16c-0.052 0.11-0.107 0.219-0.162 0.329-0.172-0.167-0.345-0.332-0.52-0.496 0.22 0.07 0.45 0.12 0.68 0.17z"/>
		<path d="m324.44 156.96c-3.735 0-7.331 0.591-10.706 1.677 5.637-6.209 9.074-14.452 9.074-23.498 0-19.31-15.654-34.962-34.962-34.962-19.311 0-34.963 15.653-34.963 34.962 0 10.055 4.25 19.11 11.044 25.488-2.838-0.744-5.818-1.144-8.89-1.144-19.309 0-34.963 15.653-34.963 34.962 0 19.31 15.654 34.963 34.963 34.963 11.216 0 21.193-5.349 27.591-13.563-1.59 21.43-3.29 38.15-3.29 38.15h20.953s-2.478-18.604-4.554-42.185c6.316 9.072 16.815 15.045 28.709 15.045 19.309 0 34.961-15.639 34.961-34.948 0-19.31-15.65-34.95-34.96-34.95zm-44.8 12.17c-0.052 0.111-0.108 0.219-0.163 0.33-0.171-0.167-0.344-0.332-0.52-0.496 0.22 0.06 0.45 0.11 0.68 0.17z"/>
	</g>

<metadata><rdfRDF><ccWork><dcFormat>image/svg+xml</dcFormat><dcType rdfResource="http://purl.org/dc/dcmitype/StillImage"/><ccLicense rdfResource="http://creativecommons.org/licenses/publicdomain/"/><dcPublisher><ccAgent rdfAbout="http://openclipart.org/"><dcTitle>Openclipart</dcTitle></ccAgent></dcPublisher></ccWork><ccLicense rdfAbout="http://creativecommons.org/licenses/publicdomain/"><ccPermits rdfResource="http://creativecommons.org/ns#Reproduction"/><ccPermits rdfResource="http://creativecommons.org/ns#Distribution"/><ccPermits rdfResource="http://creativecommons.org/ns#DerivativeWorks"/></ccLicense></rdfRDF></metadata></svg>
