<?xml version="1.0" encoding="UTF-8"?>
<svg enable-background="new 0 0 800 800" version="1.1" viewBox="108 0 592 800" xmlSpace="preserve" xmlns="http://www.w3.org/2000/svg" xmlnsCc="http://web.resource.org/cc/" xmlnsDc="http://purl.org/dc/elements/1.1/" xmlnsRdf="http://www.w3.org/1999/02/22-rdf-syntax-ns#">

	
		
			<path d="m119.61 799c-5.549 0-9.608-4.351-9.608-9.365v-776.12c0-5.015 4.06-9.52 9.61-9.52h564.38c5.55 0 10.01 4.505 10.01 9.521v776.11c0 5.015-4.459 9.365-10.009 9.365h-564.38z" fill="#fff"/>
			<path d="m684.01 8.032c3.879 0 6.988 2.146 6.988 5.489v776.11c0 3.343-3.131 6.365-7.009 6.365h-564.38c-3.877 0-7.608-3.022-7.608-6.365v-776.12c0-3.343 3.73-5.52 7.61-5.52h564.39m-0.01-6h-564.38c-7.23 0-13.61 4.823-13.61 11.521v776.11c0 6.696 6.375 12.365 13.608 12.365h564.38c7.232 0 13.009-5.669 13.009-12.365v-776.12c0-6.697-5.56-11.52-12.8-11.52h-0.21z"/>
		
		
			
				
					<path d="m179.26 61.49c0 2.257-0.494 4.227-1.48 5.907-0.987 1.681-2.275 3.085-3.862 4.214-1.587 1.128-3.38 1.969-5.379 2.521-1.998 0.552-4.008 0.829-6.03 0.829-2.021 0-3.961-0.235-5.818-0.705-1.858-0.47-3.509-1.199-4.955-2.187-1.446-0.987-2.598-2.269-3.457-3.843-0.858-1.575-1.287-3.444-1.287-5.607 0-3.033 0.936-5.678 2.804-7.935 1.869-2.257 4.473-3.915 7.812-4.973-2.422-1.552-4.473-3.303-6.155-5.255-1.68-1.951-2.521-4.173-2.521-6.665 0-1.975 0.4-3.744 1.2-5.308 0.798-1.563 1.869-2.886 3.209-3.967 1.339-1.081 2.903-1.904 4.69-2.469 1.787-0.564 3.667-0.846 5.643-0.846 1.833 0 3.59 0.264 5.272 0.793 1.681 0.529 3.162 1.299 4.443 2.31s2.304 2.251 3.068 3.72c0.764 1.47 1.146 3.145 1.146 5.025 0 1.152-0.229 2.275-0.688 3.368s-1.093 2.104-1.904 3.033-1.775 1.781-2.892 2.557c-1.117 0.775-2.322 1.434-3.614 1.975 1.433 0.658 2.803 1.387 4.108 2.187 1.305 0.799 2.451 1.74 3.438 2.821 0.988 1.082 1.77 2.322 2.346 3.721 0.57 1.4 0.86 2.993 0.86 4.779zm-6.91 1.516c0-1.552-0.329-2.892-0.987-4.021-0.656-1.128-1.525-2.139-2.604-3.033-1.08-0.893-2.33-1.698-3.75-2.416-1.418-0.717-2.868-1.464-4.346-2.239-0.353-0.188-0.623-0.188-0.81 0-1.783 1.151-3.239 2.592-4.365 4.319-1.126 1.729-1.689 3.58-1.689 5.555 0 3.48 0.833 6.207 2.499 8.182 1.667 1.975 3.931 2.962 6.794 2.962 2.791 0 5.033-0.869 6.722-2.609 1.7-1.739 2.55-3.972 2.55-6.7zm-1.7-26.379c0-2.797-0.563-4.955-1.692-6.471-1.129-1.517-3.011-2.274-5.643-2.274-2.281 0-4.114 0.711-5.501 2.133-1.388 1.423-2.081 3.438-2.081 6.048 0 1.152 0.252 2.187 0.758 3.104s1.198 1.758 2.081 2.521c0.881 0.765 1.927 1.481 3.138 2.151 1.21 0.67 2.487 1.37 3.827 2.098 0.093 0.094 0.224 0.118 0.388 0.071s0.306-0.117 0.423-0.211c1.246-0.87 2.275-2.075 3.086-3.615 0.8-1.54 1.2-3.391 1.2-5.555z"/>
				
			
			
				
					<path d="m612.68 740.3c0-2.258 0.492-4.227 1.479-5.907 0.988-1.682 2.275-3.086 3.862-4.214 1.587-1.13 3.38-1.971 5.378-2.522 1.999-0.552 4.01-0.829 6.03-0.829 2.022 0 3.962 0.236 5.819 0.706 1.856 0.471 3.509 1.198 4.955 2.187 1.445 0.987 2.598 2.269 3.455 3.844 0.86 1.575 1.288 3.444 1.288 5.607 0 3.033-0.936 5.679-2.804 7.936-1.869 2.258-4.473 3.914-7.812 4.972 2.422 1.552 4.473 3.305 6.153 5.256 1.682 1.95 2.522 4.172 2.522 6.665 0 1.975-0.4 3.743-1.199 5.308-0.8 1.563-1.87 2.885-3.21 3.968-1.339 1.08-2.902 1.904-4.69 2.468-1.786 0.563-3.666 0.846-5.642 0.846-1.833 0-3.591-0.263-5.272-0.794-1.682-0.528-3.162-1.298-4.443-2.309-1.281-1.012-2.305-2.252-3.068-3.722-0.764-1.468-1.146-3.144-1.146-5.024 0-1.152 0.229-2.275 0.688-3.368 0.458-1.093 1.093-2.104 1.904-3.033 0.811-0.928 1.774-1.78 2.892-2.557 1.117-0.775 2.321-1.434 3.614-1.974-1.433-0.659-2.805-1.389-4.108-2.188-1.305-0.8-2.451-1.74-3.438-2.821-0.988-1.081-1.77-2.322-2.346-3.721s-0.85-3.03-0.85-4.82zm6.91-1.52c0 1.551 0.329 2.892 0.985 4.02 0.657 1.129 1.525 2.139 2.605 3.033 1.079 0.894 2.329 1.698 3.749 2.415 1.419 0.717 2.868 1.464 4.346 2.239 0.354 0.188 0.623 0.188 0.811 0 1.783-1.15 3.237-2.591 4.365-4.32 1.125-1.728 1.688-3.578 1.688-5.554 0-3.479-0.832-6.207-2.499-8.181-1.666-1.976-3.931-2.963-6.794-2.963-2.791 0-5.033 0.869-6.723 2.609-1.7 1.74-2.55 3.98-2.55 6.7zm1.69 26.38c0 2.797 0.563 4.955 1.692 6.472 1.128 1.518 3.009 2.275 5.643 2.275 2.281 0 4.114-0.712 5.501-2.135 1.388-1.423 2.081-3.438 2.081-6.048 0-1.152-0.253-2.187-0.758-3.104-0.506-0.917-1.199-1.758-2.081-2.521-0.883-0.764-1.927-1.481-3.14-2.151-1.21-0.671-2.485-1.369-3.825-2.099-0.095-0.094-0.224-0.117-0.389-0.07-0.163 0.046-0.306 0.117-0.424 0.212-1.245 0.869-2.273 2.075-3.085 3.614-0.79 1.56-1.2 3.41-1.2 5.57z"/>
				
			
		
	
	<g clip-rule="evenodd" fill-rule="evenodd">
		<path d="m179.42 107.92c-1.516 0-2.976 0.24-4.347 0.681 2.291-2.521 3.685-5.869 3.685-9.542 0-7.842-6.356-14.197-14.197-14.197s-14.198 6.355-14.198 14.197c0 4.082 1.727 7.76 4.486 10.35-1.153-0.302-2.362-0.465-3.609-0.465-7.842 0-14.197 6.356-14.197 14.197s6.354 14.197 14.197 14.197c4.555 0 8.604-1.333 11.203-4.668-0.649 8.699-1.338 16.327-1.338 16.327h8.508s-1.007-8.392-1.849-17.966c2.564 3.684 6.827 5.689 11.657 5.689 7.842 0 14.197-6.56 14.197-14.401 0-7.84-6.35-14.4-14.2-14.4zm-18.19 4.94c-0.022 0.045-0.044 0.089-0.066 0.134-0.07-0.067-0.141-0.134-0.212-0.201 0.1 0.03 0.19 0.05 0.28 0.07z"/>
		<path d="m665.34 682.92c0-7.841-6.356-14.221-14.197-14.221-4.829 0-9.093 2.615-11.658 6.299 0.844-9.574 1.851-16.998 1.851-16.998h-8.509s0.688 6.659 1.339 15.358c-2.599-3.335-6.648-5.512-11.204-5.512-7.841 0-14.197 6.292-14.197 14.134 0 7.84 6.356 14.165 14.197 14.165 1.247 0 2.457-0.179 3.61-0.48-2.759 2.59-4.485 6.262-4.485 10.344 0 7.841 6.356 14.194 14.196 14.194 7.841 0 14.197-6.358 14.197-14.201 0-3.671-1.394-7.02-3.683-9.541 1.368 0.44 2.83 0.679 4.346 0.679 7.83 0.01 14.19-6.37 14.19-14.21zm-32.67 9.35c0.071-0.068 0.143-0.135 0.211-0.201 0.022 0.044 0.045 0.088 0.066 0.133-0.09 0.02-0.18 0.05-0.28 0.07z"/>
	</g>
	<g clip-rule="evenodd" fill-rule="evenodd">
		<path d="m564.18 639.07c-3.735 0-7.33 0.591-10.705 1.678 5.637-6.21 9.073-14.452 9.073-23.497 0-19.311-15.653-34.964-34.962-34.964-19.31 0-34.964 15.653-34.964 34.964 0 10.054 4.252 19.109 11.045 25.487-2.838-0.743-5.817-1.144-8.89-1.144-19.31 0-34.964 15.653-34.964 34.961 0 19.311 15.654 34.964 34.964 34.964 11.215 0 21.194-4.9 27.591-13.114-1.601 21.428-3.297 38.594-3.297 38.594h20.952s-2.478-19.049-4.553-42.63c6.314 9.071 16.814 14.819 28.709 14.819 19.309 0 34.962-15.749 34.962-35.059s-15.66-35.06-34.97-35.06zm-44.8 12.17c-0.052 0.11-0.108 0.218-0.163 0.329-0.171-0.167-0.344-0.332-0.519-0.496 0.22 0.06 0.45 0.11 0.68 0.17z"/>
		<path d="m564.18 408.66c-3.735 0-7.33 0.591-10.705 1.677 5.637-6.209 9.073-14.452 9.073-23.498 0-19.31-15.653-34.963-34.962-34.963-19.31 0-34.964 15.653-34.964 34.963 0 10.054 4.252 19.11 11.045 25.488-2.838-0.743-5.817-1.144-8.89-1.144-19.31 0-34.964 15.653-34.964 34.962 0 19.31 15.654 34.964 34.964 34.964 11.215 0 21.194-5.198 27.591-13.411-1.601 21.428-3.297 38.299-3.297 38.299h20.952s-2.478-18.754-4.553-42.334c6.314 9.07 16.814 14.968 28.709 14.968 19.309 0 34.962-15.677 34.962-34.986-0.01-19.31-15.66-34.99-34.97-34.99zm-44.8 12.17c-0.052 0.11-0.108 0.219-0.163 0.329-0.171-0.167-0.344-0.332-0.519-0.496 0.22 0.06 0.45 0.11 0.68 0.17z"/>
		<path d="m433.21 287.4c-3.735 0-7.331 0.591-10.706 1.677 5.637-6.209 9.074-14.452 9.074-23.497 0-19.31-15.653-34.963-34.962-34.963-19.311 0-34.964 15.653-34.964 34.963 0 10.054 4.251 19.109 11.044 25.488-2.837-0.744-5.817-1.144-8.889-1.144-19.311 0-34.964 15.653-34.964 34.962 0 19.31 15.653 34.963 34.964 34.963 11.215 0 21.193-5.063 27.591-13.277-1.601 21.428-3.297 38.433-3.297 38.433h20.952s-2.478-18.888-4.553-42.469c6.314 9.072 16.814 14.902 28.709 14.902 19.308 0 34.961-15.709 34.961-35.019 0.01-19.31-15.64-35.01-34.95-35.01zm-44.8 12.16c-0.052 0.11-0.109 0.219-0.163 0.329-0.171-0.167-0.344-0.332-0.519-0.496 0.22 0.06 0.45 0.11 0.68 0.17z"/>
		<path d="m433.21 542.06c-3.735 0-7.331 0.591-10.706 1.677 5.637-6.209 9.074-14.451 9.074-23.497 0-19.311-15.653-34.964-34.962-34.964-19.311 0-34.964 15.653-34.964 34.964 0 10.055 4.251 19.109 11.044 25.487-2.837-0.743-5.817-1.144-8.889-1.144-19.311 0-34.964 15.653-34.964 34.962 0 19.311 15.653 34.964 34.964 34.964 11.215 0 21.193-4.895 27.591-13.108-1.601 21.428-3.297 38.602-3.297 38.602h20.952s-2.478-19.057-4.553-42.638c6.314 9.071 16.814 14.817 28.709 14.817 19.308 0 34.961-15.752 34.961-35.062 0.01-19.31-15.64-35.06-34.95-35.06zm-44.8 12.16c-0.052 0.11-0.109 0.218-0.163 0.329-0.171-0.167-0.344-0.331-0.519-0.496 0.22 0.06 0.45 0.11 0.68 0.17z"/>
		<path d="m562.96 166.13c-3.734 0-7.33 0.591-10.705 1.677 5.637-6.209 9.073-14.452 9.073-23.498 0-19.31-15.653-34.963-34.961-34.963-19.311 0-34.964 15.653-34.964 34.963 0 10.054 4.251 19.11 11.044 25.488-2.838-0.744-5.817-1.144-8.889-1.144-19.311 0-34.964 15.653-34.964 34.961 0 19.31 15.653 34.963 34.964 34.963 11.215 0 21.193-4.929 27.591-13.143-1.602 21.428-3.297 38.567-3.297 38.567h20.951s-2.478-19.022-4.552-42.603c6.314 9.071 16.813 14.834 28.708 14.834 19.309 0 34.962-15.743 34.962-35.052 0.01-19.32-15.65-35.06-34.96-35.06zm-44.8 12.16c-0.052 0.111-0.108 0.219-0.163 0.329-0.171-0.166-0.344-0.332-0.519-0.496 0.22 0.06 0.46 0.12 0.68 0.17z"/>
		<path d="m309.52 639.07c-3.735 0-7.331 0.591-10.706 1.678 5.637-6.21 9.074-14.452 9.074-23.497 0-19.311-15.654-34.964-34.962-34.964-19.31 0-34.964 15.653-34.964 34.964 0 10.054 4.251 19.109 11.044 25.487-2.837-0.743-5.817-1.144-8.889-1.144-19.311 0-34.964 15.653-34.964 34.961 0 19.311 15.653 34.964 34.964 34.964 11.215 0 21.193-4.9 27.591-13.114-1.601 21.428-3.297 38.594-3.297 38.594h20.952s-2.478-19.049-4.553-42.63c6.314 9.071 16.814 14.819 28.709 14.819 19.308 0 34.961-15.749 34.961-35.059s-15.65-35.06-34.95-35.06zm-44.81 12.17c-0.052 0.11-0.109 0.218-0.164 0.329-0.17-0.167-0.343-0.332-0.519-0.496 0.23 0.06 0.45 0.11 0.68 0.17z"/>
		<path d="m309.52 408.66c-3.735 0-7.331 0.591-10.706 1.677 5.637-6.209 9.074-14.452 9.074-23.498 0-19.31-15.654-34.963-34.962-34.963-19.31 0-34.964 15.653-34.964 34.963 0 10.054 4.251 19.11 11.044 25.488-2.837-0.743-5.817-1.144-8.889-1.144-19.311 0-34.964 15.653-34.964 34.962 0 19.31 15.653 34.964 34.964 34.964 11.215 0 21.193-5.198 27.591-13.411-1.601 21.428-3.297 38.299-3.297 38.299h20.952s-2.478-18.754-4.553-42.334c6.314 9.07 16.814 14.968 28.709 14.968 19.308 0 34.961-15.677 34.961-34.986 0.01-19.31-15.65-34.99-34.95-34.99zm-44.81 12.17c-0.052 0.11-0.109 0.219-0.164 0.329-0.17-0.167-0.343-0.332-0.519-0.496 0.23 0.06 0.45 0.11 0.68 0.17z"/>
		<path d="m308.3 166.13c-3.735 0-7.331 0.591-10.706 1.677 5.637-6.209 9.074-14.452 9.074-23.498 0-19.31-15.653-34.963-34.961-34.963-19.311 0-34.964 15.653-34.964 34.963 0 10.054 4.251 19.11 11.044 25.488-2.837-0.744-5.817-1.144-8.889-1.144-19.311 0-34.964 15.653-34.964 34.961 0 19.31 15.653 34.963 34.964 34.963 11.215 0 21.193-4.929 27.591-13.143-1.601 21.428-3.297 38.567-3.297 38.567h20.952s-2.478-19.022-4.552-42.603c6.314 9.071 16.814 14.834 28.708 14.834 19.308 0 34.962-15.743 34.962-35.052 0.01-19.32-15.64-35.06-34.95-35.06zm-44.8 12.16c-0.052 0.111-0.109 0.219-0.163 0.329-0.171-0.166-0.344-0.332-0.519-0.496 0.22 0.06 0.45 0.12 0.68 0.17z"/>
	</g>

<metadata><rdfRDF><ccWork><dcFormat>image/svg+xml</dcFormat><dcType rdfResource="http://purl.org/dc/dcmitype/StillImage"/><ccLicense rdfResource="http://creativecommons.org/licenses/publicdomain/"/><dcPublisher><ccAgent rdfAbout="http://openclipart.org/"><dcTitle>Openclipart</dcTitle></ccAgent></dcPublisher></ccWork><ccLicense rdfAbout="http://creativecommons.org/licenses/publicdomain/"><ccPermits rdfResource="http://creativecommons.org/ns#Reproduction"/><ccPermits rdfResource="http://creativecommons.org/ns#Distribution"/><ccPermits rdfResource="http://creativecommons.org/ns#DerivativeWorks"/></ccLicense></rdfRDF></metadata></svg>
