<?xml version="1.0" encoding="UTF-8"?>
<svg enable-background="new 0 0 800 800" version="1.1" viewBox="108 0 592 800" xmlSpace="preserve" xmlns="http://www.w3.org/2000/svg" xmlnsCc="http://web.resource.org/cc/" xmlnsDc="http://purl.org/dc/elements/1.1/" xmlnsRdf="http://www.w3.org/1999/02/22-rdf-syntax-ns#">

	
		
			<path d="m118.87 799c-5.552 0-9.868-4.04-9.868-9.058v-776.42c0-5.013 4.32-9.52 9.87-9.52h564.6c5.55 0 10.53 4.507 10.53 9.525v776.42c0 5.018-4.977 9.058-10.528 9.058h-564.6z" fill="#fff"/>
			<path d="m683.51 8.033c3.879 0 6.488 2.147 6.488 5.492v776.42c0 3.345-2.649 7.058-6.528 7.058h-564.6c-3.879 0-7.868-3.713-7.868-7.058v-776.42c0-3.34 3.99-5.52 7.87-5.52h565.13m-0.53-6h-564.6c-7.24 0-13.87 4.824-13.87 11.525v776.42c0 6.7 6.631 13.058 13.868 13.058h564.6c7.235 0 12.528-6.357 12.528-13.058v-776.42c0-6.696-5.32-11.52-12.56-11.52h0.03z"/>
		
		
			
				
					<path d="m178.54 61.513c0 2.258-0.494 4.229-1.481 5.91-0.988 1.682-2.276 3.087-3.863 4.215-1.588 1.13-3.382 1.972-5.381 2.523-1.999 0.552-4.01 0.83-6.032 0.83-2.023 0-3.963-0.236-5.821-0.706-1.858-0.471-3.51-1.199-4.957-2.188-1.446-0.988-2.599-2.27-3.457-3.845-0.859-1.576-1.289-3.445-1.289-5.609 0-3.035 0.936-5.681 2.805-7.939 1.87-2.258 4.475-3.916 7.814-4.974-2.423-1.552-4.475-3.305-6.156-5.258-1.682-1.951-2.522-4.174-2.522-6.668 0-1.975 0.4-3.744 1.2-5.309 0.799-1.564 1.87-2.886 3.21-3.969 1.34-1.08 2.904-1.905 4.692-2.469s3.669-0.846 5.645-0.846c1.835 0 3.593 0.262 5.274 0.793 1.682 0.528 3.164 1.298 4.446 2.31 1.281 1.012 2.304 2.252 3.069 3.722 0.764 1.469 1.146 3.146 1.146 5.027 0 1.153-0.229 2.276-0.688 3.37-0.458 1.093-1.094 2.105-1.905 3.034-0.812 0.929-1.776 1.782-2.893 2.558-1.118 0.776-2.323 1.435-3.616 1.975 1.434 0.659 2.805 1.389 4.109 2.188 1.306 0.8 2.453 1.74 3.44 2.822 0.988 1.082 1.769 2.324 2.346 3.723 0.58 1.399 0.87 2.994 0.87 4.78zm-6.92 1.516c0-1.552-0.329-2.893-0.986-4.021-0.656-1.13-1.526-2.14-2.605-3.035-1.08-0.894-2.331-1.699-3.75-2.416-1.42-0.717-2.87-1.465-4.349-2.241-0.353-0.188-0.623-0.188-0.81 0-1.785 1.152-3.24 2.592-4.367 4.322-1.126 1.728-1.69 3.58-1.69 5.556 0 3.481 0.833 6.209 2.5 8.185s3.932 2.964 6.796 2.964c2.793 0 5.035-0.869 6.725-2.611 1.7-1.738 2.54-3.973 2.54-6.703zm-1.69-26.388c0-2.798-0.564-4.957-1.693-6.475s-3.011-2.275-5.645-2.275c-2.282 0-4.116 0.712-5.503 2.135-1.389 1.424-2.082 3.44-2.082 6.05 0 1.152 0.253 2.188 0.758 3.105 0.506 0.917 1.2 1.758 2.082 2.522 0.882 0.765 1.928 1.482 3.14 2.153 1.211 0.67 2.487 1.369 3.828 2.099 0.093 0.093 0.223 0.117 0.388 0.07 0.164-0.046 0.305-0.118 0.423-0.212 1.246-0.87 2.275-2.076 3.087-3.616 0.8-1.539 1.2-3.392 1.2-5.556z"/>
				
			
			
				
					<path d="m612.13 740.59c0-2.258 0.493-4.229 1.481-5.909 0.988-1.683 2.276-3.088 3.863-4.216 1.588-1.13 3.381-1.971 5.38-2.523 2-0.552 4.012-0.829 6.032-0.829 2.023 0 3.964 0.236 5.822 0.706 1.858 0.471 3.51 1.199 4.957 2.187 1.446 0.989 2.599 2.271 3.457 3.846 0.859 1.576 1.288 3.445 1.288 5.61 0 3.034-0.936 5.681-2.806 7.938-1.868 2.258-4.474 3.915-7.813 4.974 2.423 1.553 4.475 3.306 6.156 5.258 1.683 1.951 2.523 4.174 2.523 6.668 0 1.975-0.401 3.744-1.201 5.31-0.8 1.563-1.87 2.886-3.21 3.969-1.34 1.081-2.904 1.905-4.693 2.47-1.786 0.563-3.667 0.846-5.644 0.846-1.834 0-3.592-0.264-5.274-0.794-1.683-0.528-3.163-1.299-4.445-2.312-1.281-1.011-2.306-2.252-3.069-3.722-0.764-1.469-1.147-3.146-1.147-5.026 0-1.153 0.229-2.276 0.689-3.37 0.458-1.094 1.094-2.104 1.905-3.034 0.811-0.929 1.775-1.781 2.893-2.558 1.117-0.775 2.322-1.435 3.616-1.975-1.434-0.658-2.806-1.389-4.11-2.188-1.306-0.799-2.453-1.74-3.439-2.822-0.988-1.08-1.771-2.322-2.348-3.722-0.59-1.42-0.88-3.01-0.88-4.8zm6.91-1.52c0 1.552 0.33 2.894 0.986 4.021 0.657 1.13 1.525 2.14 2.606 3.035 1.08 0.893 2.33 1.698 3.75 2.415s2.869 1.465 4.349 2.24c0.353 0.188 0.623 0.188 0.811 0 1.784-1.151 3.238-2.592 4.366-4.321 1.126-1.729 1.689-3.581 1.689-5.557 0-3.48-0.833-6.209-2.5-8.184-1.667-1.977-3.932-2.965-6.796-2.965-2.793 0-5.035 0.87-6.726 2.611-1.69 1.74-2.54 3.97-2.54 6.7zm1.7 26.39c0 2.799 0.564 4.956 1.693 6.475 1.129 1.517 3.011 2.275 5.645 2.275 2.282 0 4.116-0.712 5.504-2.135 1.389-1.424 2.081-3.44 2.081-6.05 0-1.153-0.253-2.188-0.758-3.105-0.506-0.918-1.199-1.758-2.082-2.522s-1.928-1.481-3.141-2.152c-1.21-0.671-2.486-1.37-3.827-2.1-0.094-0.094-0.224-0.117-0.388-0.07-0.164 0.046-0.306 0.118-0.425 0.213-1.246 0.869-2.274 2.075-3.086 3.615s-1.21 3.4-1.21 5.56z"/>
				
			
		
	
	<g clip-rule="evenodd" fill-rule="evenodd">
		<path d="m162.21 79.816c-3.67 13.972-20.918 18.653-21.619 36.45-0.549 13.958 12.883 15.81 19.427 5.838-0.172 8.637-2.661 20.896-2.661 20.896h9.206s-3.039-11.353-3.214-20.46c5.585 9.691 18.435 6.945 18.335-5.483-0.13-13.84-18.88-25.74-19.49-37.254z"/>
		<path d="m630.75 721.4c3.67-13.973 20.918-18.654 21.618-36.45 0.55-13.958-12.883-16.417-19.427-6.446 0.171-8.637 2.66-21.499 2.66-21.499h-9.206s3.039 11.958 3.214 21.065c-5.584-9.69-18.434-6.642-18.335 5.786 0.13 13.83 18.87 26.03 19.49 37.55z"/>
	</g>
	<path d="m387.96 217.33c-8.682 33.044-49.472 44.114-51.13 86.207-1.301 33.007 30.471 38.008 45.947 14.425-0.41 20.43-6.3 50.04-6.3 50.04h21.773s-7.186-27.469-7.601-49.007c13.208 22.918 43.597 16.113 43.361-13.279-0.26-32.7-44.59-61.15-46.05-88.38z" clip-rule="evenodd" fill-rule="evenodd"/>
	<path d="m395.24 450.26c-8.682 33.045-49.472 44.115-51.13 86.207-1.3 33.008 30.472 38.045 45.947 14.463-0.406 20.426-6.294 50.074-6.294 50.074h21.774s-7.187-27.506-7.601-49.045c13.208 22.92 43.597 16.097 43.361-13.297-0.27-32.7-44.61-61.17-46.06-88.4z" clip-rule="evenodd" fill-rule="evenodd"/>
	<path d="m242.38 586.13c-8.682 33.044-49.472 44.113-51.13 86.206-1.3 33.007 30.472 38.609 45.947 15.025-0.406 20.427-6.294 50.639-6.294 50.639h21.774s-7.187-28.069-7.601-49.607c13.208 22.918 43.596 15.813 43.36-13.58-0.26-32.7-44.6-61.45-46.06-88.68z" clip-rule="evenodd" fill-rule="evenodd"/>
	<path d="m242.38 355.63c-8.682 33.044-49.472 44.114-51.13 86.207-1.3 33.007 30.472 38.358 45.947 14.776-0.406 20.426-6.294 50.387-6.294 50.387h21.774s-7.187-27.818-7.601-49.357c13.208 22.918 43.596 15.938 43.36-13.454-0.26-32.71-44.6-61.34-46.06-88.57z" clip-rule="evenodd" fill-rule="evenodd"/>
	<path d="m242.38 113c-8.682 33.044-49.472 44.114-51.13 86.206-1.3 33.008 30.472 38.174 45.947 14.591-0.406 20.427-6.294 50.203-6.294 50.203h21.774s-7.187-27.635-7.601-49.173c13.208 22.919 43.596 16.031 43.36-13.361-0.26-32.71-44.6-61.24-46.06-88.47z" clip-rule="evenodd" fill-rule="evenodd"/>
	<path d="m552.95 586.13c-8.682 33.044-49.471 44.113-51.13 86.206-1.301 33.007 30.471 38.609 45.947 15.025-0.406 20.427-6.295 50.639-6.295 50.639h21.774s-7.187-28.069-7.601-49.607c13.208 22.918 43.596 15.813 43.359-13.58-0.27-32.7-44.61-61.45-46.06-88.68z" clip-rule="evenodd" fill-rule="evenodd"/>
	<path d="m552.95 355.63c-8.682 33.044-49.471 44.114-51.13 86.207-1.301 33.007 30.471 38.358 45.947 14.776-0.406 20.426-6.295 50.387-6.295 50.387h21.774s-7.187-27.818-7.601-49.357c13.208 22.918 43.596 15.938 43.359-13.454-0.27-32.71-44.61-61.34-46.06-88.57z" clip-rule="evenodd" fill-rule="evenodd"/>
	<path d="m552.95 113c-8.682 33.044-49.471 44.114-51.13 86.206-1.301 33.008 30.471 38.174 45.947 14.591-0.406 20.427-6.295 50.203-6.295 50.203h21.774s-7.187-27.635-7.601-49.173c13.208 22.919 43.596 16.031 43.359-13.361-0.27-32.71-44.61-61.24-46.06-88.47z" clip-rule="evenodd" fill-rule="evenodd"/>

<metadata><rdfRDF><ccWork><dcFormat>image/svg+xml</dcFormat><dcType rdfResource="http://purl.org/dc/dcmitype/StillImage"/><ccLicense rdfResource="http://creativecommons.org/licenses/publicdomain/"/><dcPublisher><ccAgent rdfAbout="http://openclipart.org/"><dcTitle>Openclipart</dcTitle></ccAgent></dcPublisher></ccWork><ccLAense rdfAbout="http://creativecommons.org/licenses/publicdomain/"><ccPermits rdfReource="htA://creativecommons.org/ns#Reproduction"/><ccPermits rdfReource="htA://creativecommons.org/ns#Distribution"/><ccPermits rdfReource="htA://creativecommons.org/ns#DerivativeWorks"/></ccLAense></rdfRDF></metadata></svg>
