<?xml version="1.0" encoding="UTF-8"?>
<svg enable-background="new 0 0 800 800" version="1.1" viewBox="108 0 592 800" xmlSpace="preserve" xmlns="http://www.w3.org/2000/svg" xmlnsCc="http://web.resource.org/cc/" xmlnsDc="http://purl.org/dc/elements/1.1/" xmlnsRdf="http://www.w3.org/1999/02/22-rdf-syntax-ns#">

	
		
			<path d="m119.61 799c-5.549 0-9.608-4.351-9.608-9.365v-776.12c0-5.015 4.06-9.52 9.61-9.52h564.38c5.55 0 10.01 4.505 10.01 9.521v776.11c0 5.015-4.459 9.365-10.009 9.365h-564.38z" fill="#fff"/>
			<path d="m684.01 8.032c3.879 0 6.988 2.146 6.988 5.489v776.11c0 3.343-3.131 6.365-7.009 6.365h-564.38c-3.877 0-7.608-3.022-7.608-6.365v-776.12c0-3.343 3.73-5.52 7.61-5.52h564.39m-0.01-6h-564.38c-7.23 0-13.61 4.823-13.61 11.521v776.11c0 6.696 6.375 12.365 13.608 12.365h564.38c7.232 0 13.009-5.669 13.009-12.365v-776.12c0-6.697-5.56-11.52-12.8-11.52h-0.21z"/>
		
		
			
				
					<path d="m158.19 36.997c0.964 0 2.146 0.059 3.543 0.176 1.4 0.118 2.892 0.253 4.479 0.406s3.209 0.289 4.867 0.406c1.658 0.118 3.238 0.176 4.744 0.176 0.774 0 1.451-0.135 2.027-0.406 0.576-0.27 1.063-0.6 1.464-0.987 0.399-0.388 0.723-0.799 0.969-1.234 0.248-0.435 0.44-0.816 0.583-1.146 0.117-0.211 0.33-0.317 0.635-0.317 0.258 0 0.5 0.029 0.723 0.088 0.224 0.06 0.429 0.171 0.618 0.335 0.187 0.165 0.246 0.352 0.175 0.564-0.14 0.542-0.298 1.146-0.476 1.816-0.175 0.67-0.387 1.34-0.635 2.01-0.247 0.669-0.54 1.329-0.881 1.975-0.341 0.647-0.753 1.223-1.234 1.728-0.483 0.506-1.047 0.912-1.693 1.217-0.646 0.306-1.405 0.471-2.274 0.494-1.2 0-2.416-0.036-3.65-0.106-1.235-0.07-2.511-0.188-3.828-0.353-1.293-0.165-2.65-0.293-4.072-0.388s-2.922-0.153-4.497-0.176c-0.188 1.716-0.324 3.362-0.405 4.937-0.083 1.576-0.123 3.186-0.123 4.831v1.288c0 0.436 0.011 0.888 0.034 1.357 0.329-0.164 0.746-0.323 1.252-0.476 0.505-0.152 1.075-0.287 1.71-0.405 0.635-0.117 1.311-0.211 2.029-0.282 0.716-0.07 1.451-0.106 2.204-0.106 2.281 0 4.455 0.353 6.524 1.058 2.069 0.706 3.89 1.705 5.466 2.998 1.574 1.294 2.827 2.851 3.755 4.673s1.393 3.838 1.393 6.048c0 2.728-0.469 5.131-1.409 7.212-0.941 2.081-2.276 3.821-4.003 5.219-1.729 1.399-3.815 2.457-6.26 3.174-2.446 0.716-5.173 1.075-8.182 1.075-1.176 0-2.434-0.088-3.774-0.265-1.339-0.176-2.573-0.487-3.702-0.935-1.129-0.446-2.07-1.051-2.821-1.816-0.753-0.764-1.129-1.722-1.129-2.874 0-0.846 0.27-1.716 0.812-2.609 0.564-0.87 1.397-1.305 2.504-1.305 0.422 0 0.845 0.065 1.27 0.194 0.422 0.129 0.798 0.329 1.128 0.599 0.328 0.271 0.593 0.6 0.793 0.987 0.199 0.388 0.3 0.829 0.3 1.322 0 0.235-0.036 0.441-0.107 0.617-0.07 0.176-0.146 0.341-0.229 0.494s-0.159 0.306-0.229 0.458c-0.071 0.153-0.106 0.324-0.106 0.512 0 0.423 0.206 0.77 0.618 1.04 0.41 0.271 0.928 0.489 1.551 0.653 0.623 0.165 1.31 0.276 2.063 0.335 0.752 0.059 1.48 0.088 2.186 0.088 3.714 0 6.395-1.211 8.041-3.633 1.669-2.445 2.504-5.689 2.504-9.733 0-3.597-0.976-6.5-2.928-8.711-1.952-2.187-4.971-3.28-9.063-3.28-1.553 0-2.834 0.177-3.844 0.529-1.058 0.33-1.623 0.494-1.692 0.494-0.87 0-1.44-0.159-1.71-0.476-0.271-0.317-0.406-0.84-0.406-1.569 0-3.221 0.07-6.395 0.212-9.522 0.14-3.126 0.364-6.253 0.67-9.38 0-0.188 0.116-0.417 0.352-0.688 0.25-0.27 0.64-0.405 1.18-0.405z"/>
				
			
			
				
					<path d="m648.3 787.83c-0.963 0-2.146-0.059-3.545-0.175-1.397-0.118-2.892-0.254-4.479-0.406-1.587-0.153-3.21-0.288-4.866-0.406-1.658-0.117-3.239-0.175-4.743-0.175-0.776 0-1.452 0.135-2.027 0.404-0.577 0.271-1.064 0.6-1.464 0.988s-0.724 0.798-0.971 1.233-0.44 0.817-0.582 1.146c-0.117 0.211-0.328 0.317-0.635 0.317-0.258 0-0.498-0.029-0.724-0.088-0.223-0.059-0.429-0.172-0.615-0.336-0.188-0.163-0.248-0.352-0.178-0.563 0.142-0.541 0.301-1.146 0.476-1.817 0.178-0.67 0.389-1.339 0.635-2.009 0.248-0.67 0.543-1.329 0.883-1.975 0.341-0.647 0.752-1.224 1.235-1.729 0.48-0.505 1.045-0.911 1.691-1.216 0.647-0.307 1.406-0.47 2.275-0.494 1.198 0 2.416 0.036 3.65 0.107 1.233 0.069 2.509 0.187 3.824 0.352 1.295 0.164 2.653 0.293 4.074 0.387 1.424 0.095 2.922 0.154 4.497 0.178 0.188-1.717 0.323-3.363 0.406-4.938 0.082-1.575 0.123-3.186 0.123-4.83v-1.287c0-0.437-0.012-0.889-0.036-1.357-0.329 0.163-0.746 0.322-1.252 0.476-0.505 0.152-1.076 0.287-1.711 0.405-0.635 0.117-1.31 0.211-2.027 0.282s-1.452 0.106-2.204 0.106c-2.279 0-4.455-0.354-6.523-1.059-2.069-0.706-3.892-1.705-5.467-2.998-1.575-1.294-2.827-2.85-3.757-4.673-0.928-1.822-1.393-3.838-1.393-6.048 0-2.729 0.472-5.131 1.412-7.212s2.273-3.82 4.003-5.219c1.727-1.399 3.813-2.458 6.26-3.176 2.444-0.715 5.172-1.075 8.181-1.075 1.176 0 2.434 0.089 3.773 0.266 1.34 0.175 2.574 0.488 3.703 0.935 1.128 0.446 2.068 1.052 2.821 1.815 0.752 0.765 1.128 1.722 1.128 2.875 0 0.846-0.271 1.715-0.811 2.609-0.564 0.87-1.399 1.305-2.504 1.305-0.423 0-0.847-0.065-1.27-0.194s-0.8-0.329-1.129-0.599c-0.329-0.271-0.594-0.601-0.794-0.988-0.198-0.387-0.299-0.828-0.299-1.322 0-0.234 0.035-0.441 0.105-0.616 0.07-0.178 0.146-0.341 0.229-0.495 0.083-0.152 0.158-0.306 0.229-0.457 0.07-0.154 0.105-0.324 0.105-0.512 0-0.424-0.205-0.771-0.617-1.041-0.412-0.271-0.929-0.489-1.551-0.652-0.623-0.165-1.312-0.277-2.063-0.335-0.753-0.059-1.482-0.089-2.188-0.089-3.715 0-6.394 1.211-8.04 3.633-1.669 2.444-2.504 5.689-2.504 9.733 0 3.597 0.976 6.501 2.927 8.711 1.952 2.187 4.973 3.28 9.063 3.28 1.552 0 2.833-0.177 3.844-0.529 1.059-0.329 1.623-0.494 1.693-0.494 0.87 0 1.44 0.158 1.711 0.477 0.27 0.316 0.404 0.84 0.404 1.57 0 3.22-0.071 6.395-0.211 9.521-0.142 3.127-0.364 6.253-0.67 9.381 0 0.188-0.118 0.418-0.353 0.688-0.23 0.28-0.62 0.41-1.16 0.41z"/>
				
			
		
	
	<g clip-rule="evenodd" fill-rule="evenodd">
		<path d="m183.06 116.57c-1.516 0-2.976 0.241-4.346 0.681 2.291-2.521 3.684-5.869 3.684-9.542 0-7.842-6.355-14.197-14.197-14.197-7.841 0-14.198 6.355-14.198 14.197 0 4.082 1.727 7.76 4.486 10.35-1.153-0.302-2.363-0.465-3.61-0.465-7.842 0-14.197 6.356-14.197 14.197s6.355 14.197 14.197 14.197c4.555 0 8.605-1.657 11.203-4.992-0.649 8.7-1.338 16.004-1.338 16.004h8.507s-1.006-8.069-1.849-17.644c2.564 3.684 6.828 5.851 11.657 5.851 7.842 0 14.197-6.479 14.197-14.32 0.01-7.85-6.35-14.33-14.19-14.33zm-18.19 4.94c-0.022 0.045-0.043 0.089-0.066 0.134-0.07-0.067-0.141-0.134-0.212-0.201 0.1 0.02 0.19 0.04 0.28 0.07z"/>
		<path d="m668.98 691.57c0-7.843-6.356-14.221-14.197-14.221-4.829 0-9.093 2.791-11.657 6.475 0.843-9.574 1.85-16.82 1.85-16.82h-8.509s0.689 6.48 1.339 15.182c-2.598-3.336-6.648-5.602-11.204-5.602-7.841 0-14.196 6.248-14.196 14.091 0 7.84 6.355 14.143 14.196 14.143 1.247 0 2.458-0.19 3.611-0.491-2.76 2.59-4.486 6.255-4.486 10.337 0 7.841 6.357 14.191 14.197 14.191 7.841 0 14.196-6.359 14.196-14.201 0-3.673-1.394-7.021-3.683-9.543 1.369 0.44 2.83 0.679 4.346 0.679 7.83-0.01 14.19-6.38 14.19-14.22zm-32.67 9.35c0.071-0.067 0.143-0.136 0.211-0.202 0.022 0.046 0.045 0.089 0.066 0.135-0.09 0.01-0.19 0.03-0.28 0.06z"/>
	</g>
	<g clip-rule="evenodd" fill-rule="evenodd">
		<path d="m292.52 631.69c-3.735 0-7.331 0.592-10.706 1.677 5.637-6.208 9.074-14.451 9.074-23.497 0-19.31-15.654-34.963-34.962-34.963-19.311 0-34.963 15.653-34.963 34.963 0 10.055 4.25 19.11 11.044 25.489-2.838-0.744-5.818-1.145-8.89-1.145-19.309 0-34.963 15.652-34.963 34.962s15.654 34.963 34.963 34.963c11.216 0 21.193-4.712 27.591-12.923-1.6 21.42-3.29 38.78-3.29 38.78h20.953s-2.478-19.238-4.554-42.82c6.316 9.072 16.815 14.726 28.709 14.726 19.309 0 34.961-15.798 34.961-35.107s-15.65-35.11-34.96-35.11zm-44.8 12.16c-0.052 0.11-0.108 0.219-0.163 0.329-0.171-0.167-0.344-0.331-0.52-0.496 0.22 0.07 0.45 0.12 0.68 0.17z"/>
		<path d="m291.3 158.75c-3.735 0-7.331 0.592-10.706 1.677 5.637-6.209 9.074-14.452 9.074-23.498 0-19.31-15.653-34.963-34.961-34.963-19.311 0-34.963 15.653-34.963 34.963 0 10.054 4.25 19.11 11.044 25.488-2.839-0.744-5.818-1.144-8.89-1.144-19.31 0-34.963 15.653-34.963 34.961 0 19.31 15.653 34.963 34.963 34.963 11.216 0 21.193-4.739 27.591-12.952-1.602 21.428-3.297 38.757-3.297 38.757h20.953s-2.478-19.212-4.553-42.793c6.315 9.071 16.815 14.739 28.708 14.739 19.31 0 34.962-15.791 34.962-35.101 0.02-19.32-15.63-35.11-34.95-35.11zm-44.8 12.16c-0.052 0.111-0.108 0.219-0.162 0.329-0.172-0.166-0.345-0.332-0.52-0.496 0.22 0.06 0.46 0.11 0.68 0.17z"/>
	</g>
	<g clip-rule="evenodd" fill-rule="evenodd">
		<path d="m566.57 629.87c-3.734 0-7.33 0.592-10.705 1.677 5.637-6.208 9.073-14.451 9.073-23.497 0-19.309-15.653-34.962-34.961-34.962-19.311 0-34.963 15.653-34.963 34.962 0 10.055 4.25 19.111 11.044 25.489-2.839-0.744-5.818-1.144-8.89-1.144-19.31 0-34.963 15.652-34.963 34.961 0 19.31 15.653 34.963 34.963 34.963 11.216 0 21.193-4.802 27.591-13.015-1.602 21.429-3.298 38.694-3.298 38.694h20.953s-2.477-19.149-4.553-42.73c6.315 9.072 16.814 14.771 28.708 14.771 19.31 0 34.962-15.774 34.962-35.083 0.01-19.3-15.64-35.08-34.95-35.08zm-44.81 12.17c-0.052 0.109-0.107 0.219-0.162 0.329-0.172-0.167-0.345-0.332-0.52-0.497 0.23 0.06 0.46 0.11 0.68 0.17z"/>
		<path d="m433.17 392.19c-3.734 0-7.33 0.591-10.705 1.677 5.637-6.209 9.073-14.452 9.073-23.498 0-19.31-15.653-34.963-34.961-34.963-19.311 0-34.963 15.653-34.963 34.963 0 10.055 4.25 19.11 11.044 25.488-2.838-0.744-5.818-1.144-8.89-1.144-19.309 0-34.963 15.653-34.963 34.961 0 19.311 15.654 34.964 34.963 34.964 11.216 0 21.193-4.459 27.591-12.673-1.601 21.429-3.297 39.037-3.297 39.037h20.953s-2.478-19.492-4.553-43.072c6.315 9.071 16.814 14.6 28.708 14.6 19.31 0 34.962-15.861 34.962-35.171 0.02-19.32-15.64-35.18-34.95-35.18zm-44.8 12.16c-0.052 0.111-0.108 0.219-0.163 0.329-0.171-0.166-0.344-0.331-0.52-0.495 0.22 0.06 0.45 0.12 0.68 0.17z"/>
		<path d="m565.36 156.93c-3.735 0-7.331 0.592-10.706 1.677 5.637-6.209 9.074-14.452 9.074-23.497 0-19.31-15.654-34.963-34.962-34.963-19.311 0-34.963 15.653-34.963 34.963 0 10.054 4.25 19.11 11.044 25.488-2.838-0.744-5.817-1.144-8.89-1.144-19.31 0-34.963 15.653-34.963 34.961 0 19.31 15.653 34.963 34.963 34.963 11.216 0 21.193-4.829 27.591-13.043-1.602 21.429-3.297 38.667-3.297 38.667h20.96s-2.478-19.122-4.554-42.702c6.315 9.071 16.815 14.784 28.709 14.784 19.309 0 34.961-15.768 34.961-35.078s-15.66-35.08-34.96-35.08zm-44.81 12.16c-0.053 0.111-0.108 0.219-0.163 0.329-0.171-0.167-0.344-0.332-0.52-0.496 0.23 0.06 0.45 0.12 0.68 0.17z"/>
	</g>

<metadata><rdfRDF><ccWork><dcFormat>image/svg+xml</dcFormat><dcType rdfResource="http://purl.org/dc/dcmitype/StillImage"/><ccLicense rdfResource="http://creativecommons.org/licenses/publicdomain/"/><dcPublisher><ccAgent rdfAbout="http://openclipart.org/"><dcTitle>Openclipart</dcTitle></ccAgent></dcPublisher></ccWork><ccLicense rdfAbout="http://creativecommons.org/licenses/publicdomain/"><ccPermits rdfResource="http://creativecommons.org/ns#Reproduction"/><ccPermits rdfResource="http://creativecommons.org/ns#Distribution"/><ccPermits rdfResource="http://creativecommons.org/ns#DerivativeWorks"/></ccLicense></rdfRDF></metadata></svg>
