<?xml version="1.0" encoding="UTF-8"?>
<svg enable-background="new 0 0 800 800" version="1.1" viewBox="108 0 592 800" xmlSpace="preserve" xmlns="http://www.w3.org/2000/svg" xmlnsCc="http://web.resource.org/cc/" xmlnsDc="http://purl.org/dc/elements/1.1/" xmlnsRdf="http://www.w3.org/1999/02/22-rdf-syntax-ns#">

	
		
			<path d="m120.6 798c-5.544 0-9.596-4.066-9.596-9.077v-775.41c0-5.011 4.052-9.51 9.596-9.51h563.87c5.54 0 10.53 4.499 10.53 9.51v775.41c0 5.011-4.986 9.077-10.53 9.077h-563.87z" fill="#fff"/>
			<path d="m684.52 8.029c3.874 0 6.484 2.141 6.484 5.481v775.41c0 3.341-2.656 7.077-6.53 7.077h-563.87c-3.874 0-7.596-3.736-7.596-7.077v-775.41c0-3.34 3.722-5.51 7.596-5.51h564.4m-0.53-6h-563.87c-7.23 0-13.6 4.818-13.6 11.51v775.41c0 6.691 6.369 13.077 13.596 13.077h563.87c7.226 0 12.53-6.386 12.53-13.077v-775.41c0-6.692-5.32-11.51-12.55-11.51h0.02z"/>
		
		
			<path d="m603.54 702h-408.07c-3.41 0-6.468-2.366-6.468-5.763v-591.26c0-3.397 3.058-5.984 6.468-5.984h408.07c3.456 0 6.46 2.645 6.46 5.984v591.25c0 3.35-3 5.77-6.46 5.77zm-408.07-601c-2.051 0-3.468 1.946-3.468 3.984v591.25c0 2.038 1.417 3.763 3.468 3.763h408.07c2.083 0 3.46-1.793 3.46-3.763v-591.25c0-1.97-1.377-3.984-3.46-3.984h-408.07z"/>
		
		
			<path d="m160.68 81.068c0 3.092-0.506 5.941-1.521 8.547-1.015 2.605-2.417 4.847-4.205 6.723-1.788 1.875-3.893 3.342-6.317 4.402-2.424 1.059-5.045 1.589-7.863 1.589-3.939 0-6.992-0.723-9.159-2.168-2.166-1.446-3.249-3.413-3.249-5.903 0-0.543 0.106-1.094 0.318-1.652 0.211-0.558 0.531-1.066 0.955-1.524s0.939-0.837 1.545-1.138c0.605-0.3 1.318-0.451 2.137-0.451 0.727 0 1.386 0.114 1.976 0.344 0.591 0.229 1.099 0.529 1.522 0.901 0.425 0.372 0.75 0.801 0.978 1.288 0.227 0.486 0.341 0.987 0.341 1.502 0 0.516-0.212 1.059-0.635 1.631-0.425 0.572-0.637 1.116-0.637 1.631 0 0.773 0.409 1.359 1.226 1.76 0.819 0.4 1.865 0.6 3.138 0.6 1.817 0 3.325-0.329 4.522-0.988 1.196-0.658 2.151-1.582 2.863-2.77 0.711-1.189 1.211-2.621 1.499-4.295 0.288-1.675 0.432-3.529 0.432-5.562v-47.85c0-1.804-0.107-3.342-0.317-4.617-0.213-1.274-0.637-2.327-1.273-3.157-0.637-0.83-1.531-1.46-2.681-1.89-1.152-0.429-2.682-0.702-4.591-0.816-0.395 0-0.683-0.147-0.864-0.444-0.182-0.296-0.273-0.627-0.273-0.994s0.091-0.705 0.273-1.016c0.181-0.31 0.469-0.465 0.864-0.465 2 0 4.271 0.086 6.817 0.257 2.544 0.172 4.923 0.258 7.135 0.258 1.304 0 2.53-0.028 3.682-0.085 1.151-0.058 2.273-0.114 3.363-0.172 1.091-0.057 2.197-0.114 3.319-0.171 1.12-0.057 2.317-0.086 3.591-0.086 0.363 0 0.62 0.128 0.771 0.381 0.151 0.254 0.228 0.55 0.228 0.888 0 0.395-0.098 0.769-0.295 1.122-0.198 0.353-0.463 0.528-0.795 0.528-1.939 0.115-3.493 0.358-4.658 0.73-1.167 0.372-2.054 0.952-2.66 1.739-0.606 0.788-1.008 1.826-1.205 3.114s-0.296 2.921-0.296 4.896v43.384z" fill="#C60101"/>
		
		
			<path d="m637.9 727.79c0-3.093 0.509-5.942 1.523-8.548 1.016-2.605 2.416-4.846 4.203-6.723 1.789-1.874 3.895-3.341 6.318-4.401 2.425-1.06 5.045-1.59 7.863-1.59 3.938 0 6.991 0.724 9.157 2.167 2.167 1.446 3.251 3.414 3.251 5.904 0 0.543-0.106 1.094-0.318 1.652-0.213 0.558-0.53 1.066-0.954 1.523-0.426 0.459-0.94 0.838-1.546 1.139-0.607 0.3-1.318 0.449-2.136 0.449-0.728 0-1.387-0.113-1.979-0.343-0.589-0.229-1.098-0.529-1.521-0.902-0.425-0.371-0.75-0.8-0.978-1.287-0.228-0.486-0.341-0.986-0.341-1.503 0-0.516 0.213-1.058 0.637-1.63s0.637-1.117 0.637-1.633c0-0.771-0.409-1.358-1.229-1.76-0.817-0.399-1.862-0.6-3.135-0.6-1.819 0-3.325 0.329-4.522 0.987s-2.151 1.583-2.863 2.771c-0.713 1.188-1.212 2.62-1.501 4.295-0.288 1.676-0.432 3.529-0.432 5.563v47.849c0 1.805 0.106 3.344 0.318 4.617 0.212 1.275 0.637 2.327 1.273 3.158 0.635 0.829 1.529 1.461 2.681 1.89s2.682 0.702 4.591 0.816c0.393 0 0.682 0.147 0.864 0.444 0.181 0.296 0.271 0.627 0.271 0.994 0 0.366-0.091 0.705-0.271 1.015-0.183 0.311-0.472 0.467-0.864 0.467-1.999 0-4.273-0.087-6.817-0.258-2.546-0.173-4.925-0.259-7.137-0.259-1.302 0-2.53 0.029-3.681 0.086-1.151 0.058-2.273 0.114-3.364 0.173-1.091 0.057-2.196 0.113-3.317 0.171-1.121 0.057-2.318 0.087-3.59 0.087-0.364 0-0.622-0.128-0.774-0.381-0.151-0.255-0.227-0.552-0.227-0.889 0-0.396 0.1-0.77 0.296-1.122 0.197-0.353 0.461-0.528 0.795-0.528 1.94-0.114 3.492-0.357 4.659-0.73s2.053-0.952 2.659-1.739 1.007-1.825 1.204-3.114c0.197-1.288 0.295-2.921 0.295-4.897v-43.38z" fill="#C60101"/>
		
		
			<polygon points="357.08 538.69 385.94 487.2 428.65 517.35 432 516.29 432 506.96 434.74 503.49 453.79 504.93 450.82 472.92 445.1 400.53 444.24 377.15 447.52 365.6 449.55 361.53 464.25 354.29 473.67 350.04 470.97 335.66 472.02 323.4 448.68 264.96 435.46 263.51 408 310.6 349.34 260.62 341.7 264.96 341.5 283.13 350.17 373.79 350.79 403.53 347.9 425.01 343.98 434.1 336.95 441.53 322.5 448.14 327.66 467.55 338.4 511.13" fill="#FF841F"/>
			
				
					<path d="m412.82 315.66c0.224-0.043 0.237-0.388 0.355-0.582 17.331-28.401 30.092-52.216 30.271-52.551l-8.669-4.632c-0.176 0.329-12.585 23.486-29.495 51.25-0.17 0.281-0.579 0.521-0.513 0.844 0.8 3.95 3.55 6.53 8.05 5.67z" fill="#FDCB45"/>
					<path d="m411.15 317.04c-3.874 0-6.704-2.545-7.571-6.807-0.17-0.829 0.364-1.398 0.592-1.642 0.032-0.034 0.065-0.066 0.091-0.101 16.875-27.706 29.322-50.937 29.442-51.164l0.572-1.069 10.806 5.774-0.57 1.068c-0.124 0.235-13.011 24.271-30.305 52.611-0.066 0.233-0.321 0.981-1.162 1.142-0.64 0.12-1.28 0.19-1.89 0.19zm-5.11-6.91c0.454 1.833 1.7 4.479 5.107 4.479h1e-3c0.299 0 0.609-0.021 0.929-0.062 0.018-0.036 0.038-0.07 0.06-0.105 15.198-24.906 26.979-46.471 29.661-51.425l-6.532-3.49c-2.639 4.876-14.08 25.822-28.953 50.242-0.09 0.15-0.19 0.27-0.28 0.36z"/>
				
			
			
				
					<path d="m361.59 551.95-16.19-22.68c42.154-30.09 95.621-29.156 97.874-29.113l-0.641 27.859c-0.44 0-46.6-0.65-81.04 23.93z"/>
				
				
					<path d="m358.77 548.01-10.559-14.792c40.854-29.16 92.748-28.26 94.944-28.213l-0.436 18.169 0.218-9.084-0.207 9.084c-0.45-0.01-48.13-0.74-83.95 24.83z" fill="#FDCB45"/>
				
				
					<path d="m357.02 545.54-7.04-9.861c40.046-28.583 90.965-27.693 93.112-27.65l-0.285 12.113c-0.5-0.02-49.11-0.78-85.78 25.4z" fill="#C60101"/>
				
			
			
				
					<path d="m379.61 484.19c-0.224 0.043-0.236 0.389-0.355 0.582-17.331 28.401-30.092 52.217-30.271 52.551l8.669 4.633c0.175-0.329 12.584-23.486 29.495-51.251 0.17-0.28 0.58-0.52 0.514-0.842-0.81-3.95-3.56-6.53-8.06-5.67z" fill="#FDCB45"/>
					<path d="m358.15 543.6-10.808-5.777 0.571-1.068c0.526-0.983 13.083-24.39 30.305-52.609 0.066-0.233 0.321-0.981 1.162-1.143 4.784-0.915 8.462 1.688 9.465 6.621 0.17 0.829-0.364 1.397-0.593 1.642-0.032 0.033-0.064 0.066-0.091 0.101-17.042 27.983-29.322 50.938-29.441 51.162l-0.57 1.08zm-7.52-6.78 6.531 3.491c2.622-4.851 13.945-25.601 28.954-50.243 0.086-0.143 0.186-0.262 0.273-0.36-0.455-1.833-1.702-4.479-5.108-4.479-0.299 0-0.61 0.021-0.93 0.062-0.018 0.036-0.038 0.07-0.059 0.105-15.33 25.14-26.96 46.44-29.65 51.42z"/>
				
			
			
				
					<path d="m350.55 299.7c-0.747 0-1.22-0.01-1.393-0.014l0.642-27.859c0.456 0.019 46.604 0.647 81.044-23.935l16.188 22.682c-38.92 27.78-87.49 29.12-96.48 29.12z"/>
				
				
					<path d="m350.63 294.86c-0.727 0-1.188-0.01-1.356-0.013l0.425-18.169c0.453 0.011 48.145 0.729 83.96-24.835l10.559 14.792c-37.72 26.93-84.85 28.23-93.59 28.23z" fill="#FDCB45"/>
				
				
					<path d="m350.68 291.83c-0.714 0-1.167-9e-3 -1.332-0.013l0.286-12.112c0.475 7e-3 49.106 0.783 85.786-25.399l7.04 9.862c-36.98 26.38-83.21 27.66-91.79 27.66z" fill="#C60101"/>
				
			
			
				
					<path d="m368.56 464.06c39.376 29.915 80.912 68.139 81.301 68.506l-1.774 11.657c-0.385-0.363-46.526-42.749-85.474-72.336l5.94-7.83z" fill="#FDCB45"/>
					<path d="m448.94 546.69-1.682-1.589c-0.493-0.461-46.26-42.538-85.374-72.253l-0.965-0.732 7.413-9.757 0.964 0.734c39.195 29.774 81.024 68.232 81.399 68.587l0.464 0.436-2.21 14.57zm-84.63-75.03c34.729 26.487 74.347 62.315 82.921 70.14l1.336-8.774c-4.646-4.261-43.097-39.295-79.776-67.262l-4.48 5.89z"/>
				
			
			
				
					<path d="m394.08 433.81c38.406 31.15 78.705 70.675 79.084 71.055l-2.144 11.596c-0.374-0.377-45.146-44.207-83.132-75.017l6.19-7.63z" fill="#FDCB45"/>
					<path d="m471.8 518.95-1.63-1.639c-0.403-0.404-44.878-43.98-83.037-74.932l-0.94-0.763 7.718-9.516 0.941 0.763c38.572 31.285 78.819 70.78 79.179 71.141l0.449 0.451-2.68 14.5zm-82.2-77.69c33.821 27.54 72.322 64.643 80.649 72.74l1.614-8.729c-4.495-4.396-41.648-40.501-77.598-69.763l-4.66 5.75z"/>
				
			
			
				
					<path d="m390.15 441.44c39.376 29.914 73.915 67.221 74.304 67.588l-11.752 26.867c-0.385-0.363-50.051-44.717-88.999-74.305l26.45-20.16z" fill="#C60101"/>
					
						<path d="m453.12 537.96-1.249-1.178c-0.543-0.499-50.098-44.747-88.902-74.227l-1.269-0.963 28.446-21.674 0.733 0.559c34.476 26.188 65.388 58.122 74.041 67.285 0.214 0.228 0.343 0.364 0.384 0.405l0.576 0.584-0.318 0.762-12.44 28.46zm-87.42-76.37c35.166 26.842 78.622 65.226 86.559 72.288l10.761-24.6c-8.746-9.253-39.022-40.483-72.872-66.315l-24.45 18.63z"/>
					
				
			
			
				
					<path d="m423.87 335.78c-39.376-29.915-80.911-68.138-81.301-68.505l1.775-11.658c0.384 0.364 46.526 42.749 85.474 72.336l-5.94 7.82z" fill="#FDCB45"/>
					<path d="m424.1 337.48-0.965-0.733c-39.189-29.772-81.023-68.233-81.398-68.586l-0.463-0.436 2.218-14.577 1.683 1.591c0.413 0.388 46.767 42.923 85.373 72.252l0.965 0.732-7.42 9.77zm-80.24-70.65c4.646 4.259 43.098 39.295 79.776 67.26l4.48-5.897c-34.37-26.216-74.304-62.289-82.92-70.142l-1.34 8.78z"/>
				
			
			
				
					<path d="m398.35 366.04c-38.406-31.151-78.706-70.675-79.084-71.055l2.144-11.596c0.374 0.375 45.146 44.206 83.132 75.017l-6.19 7.64z" fill="#FDCB45"/>
					<path d="m398.52 367.74-0.941-0.763c-38.311-31.073-78.815-70.775-79.179-71.139l-0.45-0.45 2.68-14.494 1.631 1.637c0.403 0.404 45.026 44.101 83.036 74.931l0.94 0.763-7.72 9.51zm-77.95-73.17c4.508 4.405 41.784 40.612 77.598 69.763l4.666-5.752c-33.6-27.36-72.299-64.628-80.65-72.741l-1.62 8.73z"/>
				
			
			
				<path d="m609.2 265.14c-78.63-45.868-158.39-23.489-162.42-21.72 43.697 106.7 80.557 158.3 80.557 158.3s-54.151 62.82-90.367 151.25c4.035 1.77 123.73-30.633 123.73-30.633l47.958-68.537c-0.01 0 1.77-164.5 0.54-188.66z" fill="#C60101"/>
				
					<path d="m437.53 554.25c-0.455 0-0.778-0.053-1.049-0.172l-1.083-0.475 0.447-1.094c33.82-82.582 83.881-143.61 89.963-150.86-4.729-6.863-39.743-59.104-80.151-157.77l-0.447-1.094 1.082-0.475c2.126-0.932 23.323-7.107 54.353-7.107 27.209 0 68.236 5.012 109.17 28.89l0.566 0.33 0.033 0.655c1.217 23.923-0.527 187.09-0.545 188.74l-4e-3 0.375-0.216 0.307-48.21 68.897-0.423 0.114c-4.64 1.24-113.68 30.73-123.48 30.73zm10.85-310.11c42.924 104.53 79.571 156.36 79.938 156.88l0.554 0.774-0.621 0.722c-0.537 0.622-53.746 62.878-89.466 149.22 14.959-1.8 113.82-28.464 121.17-30.451l47.491-67.87c0.094-8.72 1.7-162.14 0.576-187.56-40.275-23.32-80.597-28.229-107.38-28.229-27.21 0-47.18 4.92-52.26 6.52z"/>
				
			
			
				
					<path d="m402.28 358.41c-39.376-29.914-73.915-67.221-74.304-67.587l11.752-26.868c0.384 0.364 50.05 44.717 88.998 74.305l-26.45 20.15z" fill="#C60101"/>
					
						<path d="m402.28 359.93-0.733-0.559c-34.476-26.188-65.387-58.122-74.04-67.285-0.214-0.227-0.343-0.364-0.383-0.404l-0.576-0.584 0.318-0.763 12.443-28.447 1.252 1.185c0.404 0.373 49.924 44.614 88.897 74.221l1.269 0.963-28.45 21.67zm-72.87-69.36c8.746 9.252 39.022 40.483 72.872 66.315l24.447-18.627c-35.349-26.98-78.641-65.238-86.559-72.288l-10.76 24.61z"/>
					
				
			
			<path d="m342.56 290.96c0.151-1.289 0.031-2.64-0.313-3.839-0.91 2.451-4.289 3.346-6.867 4.172 5.193 8.307 3.147 20.018-7.935 22.116 4.133 10.149 3.552 20.821-7.348 25.964-2.584 1.219-4.771 2.258-7.729 1.912 6.626 8.971 0.246 19.358-8.445 24.216-2.189 1.225-4.108 1.667-6.624 1.987 2.733 3.566 6.659 6.769 7.345 11.37 0.924 6.192-2.438 11.896 5.875 14.092 9.378 2.478 19.18-3.507 28.511-3.677 4.457-0.081 8.896 2.602 11.273-2.302 2.455-5.065-1.513-12.861-2.083-18.039-0.584-5.296 0.128-10.644-0.383-15.971-1.013-10.542-2.813-21.217-3.349-31.771-0.563-11.123 1.29-23.338-1.628-34.168" fill="#fff"/>
			
				<path d="m424.44 358.3 48.013-49.249-18.869-17.595-100.83 102.16 15.435 23.52c-6.15 6.015-8.363 16.145-0.198 24.402l-48.013 49.249 18.87 17.595 100.83-102.17-15.435-23.521c6.16-6 8.37-16.13 0.2-24.39zm-28.52 54.6-10.945-14.115 11.542-11.839 10.946 14.115-11.55 11.84z" fill="#FDCB45"/>
				<path d="m338.88 510.08-20.637-19.244 48.068-49.306c-3.208-3.592-4.878-7.75-4.841-12.091 0.038-4.447 1.91-8.931 5.169-12.443l-15.438-23.526 102.35-103.71 20.637 19.244-48.068 49.306c3.209 3.592 4.879 7.75 4.842 12.091-0.038 4.448-1.909 8.931-5.169 12.443l15.438 23.526-102.35 103.71zm-17.17-19.32 17.102 15.946 99.318-100.64-15.445-23.536 0.714-0.697c3.231-3.16 5.105-7.333 5.14-11.451 0.034-4.035-1.681-7.92-4.957-11.233l-0.836-0.846 47.979-49.213-17.103-15.948-99.317 100.64 15.445 23.536-0.713 0.696c-3.231 3.16-5.105 7.334-5.14 11.451-0.034 4.034 1.68 7.92 4.957 11.233l0.836 0.846-47.98 49.21zm74.1-76.02-12.445-16.049 13.25-13.59 12.444 16.048-13.24 13.59zm-9.23-15.86 9.447 12.182 9.834-10.088-9.447-12.182-9.83 10.09z"/>
			
			
				
					<path d="m372.22 578.07c7.443-5.681 2.276-15.541-5.743-16.363-2.348-3.192 4.105-17.994-6.938-19.187 7.766-7.941 7.336-20.55-3.803-21.67 9.577-10.596-1.822-24.699-13.886-20.259 8.664-11.646 1.538-25.094-14.192-22.489 5.676-9.964 2.055-17.435-9.114-16.614 4.439-5.034 3.173-25.675-17.712-26.071 10.248-13.708-11.653-20.296-14.418-18.496 26.57-16.333-1.688-23.375-1.688-23.375 23.036 2.248 24.088-15.736 12.789-25.838 11.198-0.386 24.21-17.14 14.844-26.761 21.389-2.345 21.176-18.861 15.154-27.677 10.463-0.828 15.623-16.162 8.098-21.486 11.363-3.778 14.175-16.44 7.729-23.643 5.381-2.064 6.83-4.079 4.915-9.189 0 0-4.726-3.027-4.961-6.382-0.13-1.646-0.293-0.378-0.293-0.378l-2.483-3.194s-53.338 118.61-86.659 152.31c21.5 27.644 93.988 139.22 93.988 139.22l20.005 50.879 5.456 1.438c4.66-3.36 6.43-14.09-1.1-14.77z" fill="#fff"/>
					<path d="m373.54 594.16-6.601-1.739-20.185-51.336c-2.565-3.944-72.921-112.11-93.861-139.03l-0.653-0.841 0.748-0.756c32.788-33.157 85.883-150.77 86.416-151.96l0.826-1.836 2.995 3.852c1.119 0.066 1.216 1.292 1.27 1.958 0.159 2.253 3.235 4.703 4.407 5.458l0.338 0.217 0.142 0.377c2.119 5.657 0.198 8.178-4.103 10.12 2.508 3.565 3.308 8.154 2.128 12.588-1.3 4.891-4.728 8.801-9.537 10.964 2.406 2.717 3.162 6.822 1.957 11.202-1.272 4.627-4.904 9.479-10.341 10.779 2.497 4.502 4.07 11.164 1.266 17.261-1.799 3.912-6.054 8.759-16.091 10.414 2.49 3.626 2.812 8.158 0.869 12.989-2.705 6.729-9.138 12.322-15.416 13.737 4.949 5.397 6.876 12.267 4.799 17.708-1.122 2.938-4.337 7.684-13.46 8.532 3.358 1.708 6.884 4.364 7.467 8.122 0.62 4.002-2.225 8.283-8.467 12.756 4.462 0.863 10.854 3.744 13.302 8.631 1.107 2.211 1.768 5.646-0.75 9.993 10.85 0.961 15.334 7.459 17.072 11.409 2.329 5.29 2.138 10.988 0.629 14.493 4.526 0.121 7.929 1.771 9.617 4.676 1.77 3.045 1.564 7.153-0.548 11.73 7.213-0.541 12.951 2.287 15.591 7.542 2.179 4.337 1.833 9.593-0.853 14.506 0.647-0.092 1.298-0.137 1.949-0.137 5.495 0 10.688 3.382 12.921 8.414 1.936 4.358 1.401 9.02-1.43 13.053 3.591 0.901 6.17 3.132 7.366 6.426 1.686 4.646 0.28 10.585-3.494 15.32 6.345 1.987 5.814 9.193 5.451 14.115-0.131 1.779-0.277 3.761-7e-3 4.723 4.411 0.723 8.218 4.001 9.395 8.173 0.891 3.159 0.164 6.223-1.994 8.675 1.771 0.766 3.008 2.229 3.564 4.271 1.124 4.118-0.813 9.668-4.229 12.118l-0.5 0.35zm-4.79-3.77 4.277 1.128c2.323-2.023 3.678-6.223 2.874-9.171-0.506-1.855-1.782-2.889-3.792-3.069l-3.102-0.28 2.476-1.89c3.595-2.744 3.331-5.993 2.853-7.687-0.973-3.449-4.256-6.126-7.984-6.508l-0.535-0.056-0.318-0.433c-1.028-1.398-0.854-3.753-0.635-6.734 0.487-6.608 0.381-11.335-5.457-11.966l-2.48-0.267 1.744-1.785c4.125-4.219 5.924-10.146 4.375-14.413-1.098-3.025-3.669-4.825-7.433-5.204l-2.385-0.24 1.607-1.778c3.287-3.636 4.139-8.047 2.339-12.1-1.853-4.171-6.156-6.974-10.708-6.974-1.407 0-2.82 0.258-4.199 0.765l-3.82 1.407 2.429-3.267c3.615-4.859 4.486-10.321 2.33-14.61-2.429-4.836-8.259-7.132-15.352-5.961l-2.51 0.417 1.259-2.212c2.595-4.555 3.188-8.704 1.63-11.387-1.49-2.562-4.839-3.771-9.603-3.42l-2.961 0.218 1.964-2.227c2.014-2.284 2.604-8.589 0.23-13.981-1.975-4.488-6.537-9.877-17.057-10.077l-2.362-0.045 1.414-1.892c2.536-3.393 3.119-6.514 1.733-9.28-2.455-4.898-10.323-7.571-13.678-7.571-0.645 0-0.854 0.102-0.856 0.104l-1.309-2.039c9e-3 -6e-3 0.018-0.011 0.027-0.017 5e-3 -4e-3 8e-3 -6e-3 0.013-8e-3 7.6-4.687 11.29-9.019 10.74-12.569-0.737-4.756-8.985-7.814-12.101-8.59l0.411-2.382c9.339 0.912 15.789-1.614 17.814-6.918 1.926-5.044-0.521-11.958-5.95-16.812l-2.248-2.01 3.015-0.103c6.021-0.208 13.116-5.841 15.816-12.558 1.094-2.723 2.317-7.92-1.798-12.148l-1.731-1.778 2.467-0.271c8.299-0.91 13.946-4.13 16.332-9.315 2.559-5.563 0.817-12.282-2.046-16.473l-1.178-1.727 2.083-0.166c5.313-0.42 8.892-4.975 10.081-9.303 0.909-3.301 0.706-7.657-2.586-9.986l-1.956-1.383 2.273-0.756c5.005-1.664 8.592-5.317 9.844-10.022 1.12-4.208 0.134-8.568-2.636-11.663l-1.173-1.31 1.641-0.629c4.884-1.874 5.768-3.273 4.347-7.271-1.188-0.823-4.649-3.472-5.125-6.695l-1.337-1.72c-6.863 15.032-54.481 118-85.331 150.08 22.057 28.713 92.684 137.36 93.402 138.47l0.111 0.217 19.83 50.3z"/>
				
				
					<path d="m324.1 449.38-0.899-2.251c31.24-12.483 29.601-31.037 20.509-134-0.701-7.921-1.443-16.337-2.219-25.286l2.414-0.209c0.776 8.947 1.519 17.363 2.218 25.281 9.23 104.49 10.89 123.31-22.02 136.47z"/>
				
				
					<path d="m321.44 439.42-1.098-2.161c0.748-0.379 1.478-0.744 2.191-1.099 17.531-8.736 24.091-12.006 10.895-124.73l2.406-0.282c13.395 114.41 6.42 117.89-12.22 127.18-0.7 0.35-1.43 0.71-2.17 1.09z"/>
				
				
					<path d="m318.95 428.9-0.792-2.291c14.531-5.035 16.447-26.413 8.203-91.494l2.404-0.305c8.44 66.56 6.15 88.55-9.81 94.08z"/>
				
				
					<path d="m316.38 418.24-0.887-2.255c8.922-3.512 5.638-46.984 1.253-75.348l2.395-0.369c1.15 7.43 10.81 72.64-2.76 77.98z"/>
				
				
						<rect transform="matrix(.2373 .9714 -.9714 .2373 643.04 10.726)" x="265.42" y="413.67" width="98.542" height="2.424"/>
				
				
						<rect transform="matrix(.2426 .9701 -.9701 .2426 633.34 18.11)" x="281.41" y="413.44" width="47.312" height="2.422"/>
				
				
					<rect transform="matrix(.2307 .973 -.973 .2307 630.62 31.654)" x="291.61" y="413.44" width="7.354" height="2.422"/>
				
				
					<path d="m312.55 401.14-2.316-0.712c2.573-8.361-0.315-29.507-1.677-38.211l2.395-0.374c1.73 11.01 4.23 30.77 1.61 39.29z"/>
				
			
			<path d="m425.33 229.12c-0.825-14.705-9.291-29.897-16.273-42.441-6.852-12.311-14.825-26.419-25.774-35.647-7.948-6.699-12.248-0.386-21.086-1.394-5.829-0.664-12.012-2.568-13.757 3.821l0.015-2.176c-0.039 0.795-0.068 1.639-0.091 2.506-0.059 0.25-0.128 0.486-0.175 0.761-0.417 2.426-0.216 5.112-0.074 7.741-0.262 5.093-0.894 10.256-2.777 14.119-3.339 6.849-23.754 20.849-17.488 26.538 5.044 4.578 7.056 2.556 10.898 1.606l0.071 0.08c0.335 1.242 1.1 2.085 2.03 3.175 1.748 4.746-2.708 8.342-3.649 10.803-0.679 1.778 0.924 3.037 3.706 3.984l-1.971-0.362c-5.104 7.452 1.367 6.508 4.199 12.009 2.536 4.924-7.312 17.169-2.311 19.135 31.302 12.306 63.646-3.633 76.467-12.31 0.445-0.06 0.917-0.152 1.428-0.358 5.56-2.25 6.95-5.21 6.59-11.59zm-86.58-24.56c0.016-4e-3 0.033-6e-3 0.05-0.011 6e-3 0.029 0.01 0.06 0.018 0.088-0.03-0.03-0.05-0.06-0.07-0.08z" fill="#fff"/>
			
				<path d="m416.69 592.84 5.456-1.438 20.006-50.879s72.486-111.58 93.987-139.22c-33.32-33.698-86.66-152.31-86.66-152.31l-3.016 8.364-4.721 1.59c-1.915 5.111-0.467 7.125 4.913 9.189-6.445 7.203-3.633 19.864 7.729 23.643-7.523 5.324-2.365 20.658 8.098 21.486-6.021 8.816-6.233 25.332 15.156 27.677-9.366 9.622 3.646 26.375 14.844 26.761-11.299 10.102-10.247 28.086 12.788 25.838 0 0-28.257 7.042-1.688 23.375-2.765-1.8-24.666 4.788-14.417 18.496-20.887 0.396-22.153 21.037-17.713 26.071-11.169-0.82-13.607 10.337-7.932 20.302-15.731-2.605-19.972 12.585-11.309 24.231-12.064-4.44-21.692 6.367-12.116 16.962-11.139 1.121-14.63 7.81-6.865 15.751-11.043 1.192-18.482 17.403-9.711 22.973-8.02 0.822-13.188 10.683-5.743 16.363-7.55 0.69-5.78 11.42-1.1 14.78z" fill="#fff"/>
				<path d="m416.44 594.16-0.464-0.332c-3.416-2.452-5.352-8.001-4.229-12.118 0.558-2.042 1.793-3.505 3.565-4.271-2.158-2.452-2.887-5.516-1.995-8.674 1.009-3.579 3.955-6.502 7.558-7.716-2.203-2.468-2.968-6.026-2.05-9.963 1.252-5.37 5.798-11.389 12.075-13.135-2.75-3.399-3.691-6.765-2.653-9.623 1.146-3.16 4.503-5.341 9.547-6.248-2.874-3.968-3.6-8.212-1.968-11.886 1.755-3.953 5.932-6.408 10.897-6.408 0.905 0 1.82 0.081 2.741 0.242-3.238-5.754-3.828-12.156-1.407-16.975 2.362-4.7 7.129-7.125 13.342-6.728-2.556-5.561-2.764-11.226-0.464-15.183 1.689-2.907 4.635-4.615 8.36-4.875-1.526-3.5-1.729-9.225 0.607-14.537 1.739-3.951 6.224-10.45 17.074-11.411-2.519-4.348-1.858-7.783-0.75-9.994 2.447-4.886 8.841-7.767 13.302-8.63-6.245-4.477-9.087-8.756-8.467-12.756 0.582-3.758 4.108-6.414 7.466-8.122-9.12-0.848-12.336-5.594-13.458-8.532-2.077-5.44-0.15-12.311 4.798-17.708-6.278-1.415-12.711-7.008-15.416-13.737-1.942-4.831-1.621-9.363 0.869-12.989-10.038-1.655-14.293-6.502-16.093-10.414-2.805-6.097-1.23-12.758 1.266-17.261-5.437-1.3-9.067-6.15-10.341-10.777-1.204-4.381-0.448-8.486 1.957-11.203-4.808-2.164-8.236-6.073-9.536-10.965-1.179-4.433-0.38-9.021 2.128-12.588-4.3-1.941-6.221-4.461-4.102-10.119l0.202-0.54 4.711-1.587 3.835-10.632 1.229 2.732c0.532 1.184 53.63 118.8 86.416 151.96l0.748 0.756-0.653 0.841c-20.941 26.924-91.296 135.09-93.861 139.03l-20.185 51.336-6.62 1.73zm30.29-87.95c-3.995 0-7.322 1.903-8.684 4.968-1.464 3.295-0.39 7.303 2.947 10.993l1.606 1.778-2.385 0.24c-5.199 0.522-8.729 2.333-9.685 4.966-0.868 2.393 0.397 5.492 3.564 8.731l1.744 1.784-2.479 0.268c-6.291 0.68-10.965 6.534-12.168 11.697-0.924 3.963 0.159 7.262 2.976 9.049l2.947 1.872-3.474 0.356c-3.729 0.382-7.013 3.059-7.985 6.51-0.477 1.691-0.741 4.941 2.854 7.685l2.478 1.89-3.104 0.28c-2.01 0.181-3.285 1.214-3.792 3.069-0.805 2.947 0.552 7.147 2.873 9.171l4.278-1.128 19.892-50.523c0.719-1.104 71.344-109.75 93.402-138.47-30.302-31.503-76.782-131.41-84.929-149.19l-2.204 6.115-4.721 1.59c-1.333 3.864-0.406 5.251 4.406 7.097l1.641 0.629-1.172 1.31c-2.771 3.094-3.755 7.454-2.637 11.662 1.252 4.706 4.84 8.358 9.845 10.022l2.272 0.756-1.956 1.383c-3.291 2.329-3.493 6.686-2.586 9.987 1.19 4.328 4.77 8.882 10.081 9.302l2.083 0.166-1.179 1.727c-2.863 4.191-4.604 10.909-2.045 16.473 2.385 5.185 8.032 8.406 16.332 9.315l2.468 0.271-1.731 1.778c-4.115 4.228-2.893 9.425-1.799 12.148 2.7 6.717 9.795 12.35 15.816 12.558l3.015 0.103-2.25 2.01c-5.428 4.854-7.874 11.767-5.947 16.812 2.025 5.303 8.475 7.829 17.812 6.918l0.41 2.38c-3.116 0.781-11.366 3.847-12.1 8.593-0.55 3.557 3.154 7.896 10.712 12.549l-1.228 2.09c-0.015-8e-3 -0.227-0.111-0.87-0.111-3.354 0-11.223 2.672-13.677 7.571-1.385 2.766-0.802 5.888 1.733 9.28l1.415 1.892-2.362 0.045c-10.521 0.2-15.083 5.591-17.059 10.078-2.373 5.394-1.782 11.696 0.232 13.98l1.964 2.227-2.961-0.218c-3.896-0.285-6.774 0.995-8.326 3.665-2.12 3.647-1.519 9.469 1.535 14.829l1.259 2.211-2.509-0.416c-6.159-1.017-10.94 0.875-13.092 5.157-2.402 4.781-1.244 11.515 2.953 17.156l2.429 3.266-3.82-1.406c-1.7-0.65-3.4-0.97-5.05-0.97z"/>
			
			<path d="m426.68 244.26c4.716 6.62 7.434 17.986 14.533 22.653 5.289 3.478 16.975 4.738 22.675 1.771 3.6-1.874 5.577-5.384 7.411-8.876 5.58 10.642 27.237 5.543 33.381-2.259 2.478-3.148 2.927-6.999 2.887-10.89 14.667-0.493 29.772-5.489 28.9-22.964-0.61-12.218-11.636-28.632-25.594-26.859-6.165 0.783-10.538 5.725-14.089 10.394-1.532-2.577-2.614-5.421-3.691-8.25l-21.778-47.689-97.98 0.307 53.35 92.67z" fill="#FDCB45"/>
			
				<path d="m452.84 271.69c-11.086 1e-3 -18.115-9.827-22.63-17.757-0.563-0.99-57.158-100.43-57.922-101.72-0.341-0.576-0.15-1.319 0.425-1.659 0.577-0.343 1.319-0.15 1.66 0.425 0.771 1.3 57.381 100.77 57.944 101.76 5.256 9.234 12.918 19.372 25.611 15.792 10.327-2.915 13.267-9.959 13.914-15.357 1.179-9.821-4.51-21.563-12.682-26.175-3.637-2.052-9.253-3.499-15.362 1.267-5.09 3.971-5.762 10.57-4.169 15.349 1.821 5.466 6.21 8.793 11.741 8.899 4.046 0.08 6.523-1.329 6.903-3.961 0.384-2.662-1.482-5.993-3.699-6.6-2.3-0.625-3.848 2.199-4.565 3.941-0.256 0.62-0.967 0.915-1.583 0.658-0.618-0.255-0.912-0.964-0.658-1.582 2.475-5.995 6.034-5.745 7.446-5.354 3.423 0.937 6.023 5.361 5.458 9.283-0.265 1.833-1.671 6.042-8.974 6.042-0.123 0-0.247-1e-3 -0.375-3e-3 -6.503-0.125-11.865-4.171-13.994-10.557-2.235-6.713-0.236-13.958 4.979-18.026 5.589-4.358 11.998-4.879 18.043-1.466 8.947 5.05 15.182 17.869 13.896 28.575-1.038 8.664-6.601 14.843-15.661 17.4-2.03 0.57-3.94 0.83-5.75 0.83z"/>
			
			
				<path d="m485.8 267.59c-4.449 0-8.936-1.271-12.872-3.923-0.853-0.575-1.66-1.187-2.552-1.87-0.531-0.407-0.632-1.167-0.225-1.698 0.408-0.531 1.166-0.631 1.698-0.226 0.859 0.659 1.636 1.247 2.432 1.784 9.383 6.321 22.254 3.874 28.691-5.458 3.474-5.039 4.602-12.731 2.941-20.076-1.497-6.627-5.043-11.976-9.729-14.674-4.469-2.574-9.612-2.697-14.109-0.338-4.563 2.395-7.537 6.915-7.958 12.09-0.387 4.743 2.306 11.71 6.358 13.584 2.294 1.062 4.743 0.315 7.279-2.219 2.256-2.256 1.482-4.62 1.046-5.532-0.755-1.571-2.204-2.615-3.453-2.476-1.27 0.14-2.27 1.514-2.818 3.87-0.151 0.652-0.803 1.054-1.454 0.906-0.651-0.152-1.058-0.803-0.905-1.455 1.078-4.634 3.542-5.579 4.913-5.729 2.282-0.244 4.699 1.329 5.901 3.837 1.376 2.868 0.81 5.968-1.517 8.293-4.147 4.145-7.734 3.759-10.01 2.706-5.145-2.381-8.217-10.333-7.757-15.98 0.49-6.008 3.946-11.256 9.248-14.04 5.246-2.753 11.241-2.614 16.444 0.384 5.271 3.036 9.237 8.956 10.884 16.24 1.804 7.982 0.535 16.407-3.311 21.985-4.48 6.52-11.77 10.03-19.16 10.03z"/>
			
			
				<path d="m512.52 228.75c-0.362 0-0.725-0.028-1.088-0.083-2.503-0.381-4.947-2.084-6.88-4.795-3.065-4.3-32.192-66.554-34.368-72.15-0.242-0.624 0.066-1.326 0.69-1.568 0.621-0.242 1.326 0.065 1.567 0.69 2.053 5.279 31.229 67.618 34.084 71.622 1.549 2.173 3.421 3.525 5.272 3.807 1.413 0.211 2.813-0.195 4.159-1.216 3.888-2.952 2.575-9.332 0.745-12.9-1.006-1.963-3.527-4.106-5.785-4.028-1.352 0.02-2.425 0.842-3.189 2.444-0.88 1.848 0.463 6.078 2.28 7.183 0.32 0.195 1.068 0.653 2.215-0.859 0.401-0.532 1.162-0.64 1.697-0.234 0.533 0.404 0.639 1.165 0.233 1.697-1.543 2.038-3.562 2.587-5.404 1.467-2.882-1.753-4.619-7.334-3.208-10.296 1.159-2.434 3.058-3.792 5.342-3.825 3.372-0.063 6.629 2.718 7.975 5.346 2.64 5.146 3.316 12.328-1.436 15.936-1.53 1.16-3.21 1.76-4.9 1.76z"/>
			
			
				<path d="m515.86 248.29c-1.859 0-3.729-0.122-5.577-0.242-0.731-0.048-1.459-0.095-2.177-0.134-0.669-0.036-1.182-0.607-1.146-1.274 0.035-0.669 0.606-1.188 1.275-1.145 0.728 0.039 1.464 0.087 2.204 0.135 4.932 0.32 10.034 0.652 14.352-1.519 5.291-2.66 8.873-8.471 9.829-15.943 1.146-8.941-1.74-18.16-7.182-22.938-5.439-4.778-11.957-6.984-17.431-5.898-4.294 0.85-7.739 3.681-9.965 8.186-0.295 0.6-1.021 0.847-1.623 0.55-0.601-0.296-0.847-1.023-0.55-1.623 2.572-5.206 6.606-8.488 11.667-9.49 6.2-1.23 13.497 1.183 19.501 6.454 6.019 5.287 9.229 15.361 7.986 25.067-1.062 8.284-5.123 14.771-11.145 17.8-3.16 1.59-6.56 2-10 2z"/>
			
			
				<path d="m429.85 228.36c-0.439 0-0.863-0.239-1.079-0.658l-39.314-76.48c-0.305-0.595-0.071-1.325 0.524-1.631 0.598-0.308 1.325-0.072 1.632 0.523l39.315 76.48c0.306 0.595 0.071 1.325-0.524 1.631-0.18 0.1-0.36 0.14-0.55 0.14z"/>
			
			
				<path d="m443.26 227.65c-0.434 0-0.853-0.232-1.07-0.641l-40.439-75.764c-0.316-0.59-0.093-1.324 0.498-1.639 0.587-0.316 1.324-0.092 1.639 0.499l40.44 75.764c0.315 0.59 0.092 1.324-0.498 1.639-0.18 0.09-0.38 0.14-0.57 0.14z"/>
			
			
				<path d="m472.13 240.55c-0.425 0-0.837-0.223-1.058-0.62l-49.656-88.664c-0.328-0.584-0.119-1.322 0.465-1.649 0.585-0.328 1.322-0.118 1.648 0.465l49.656 88.665c0.327 0.584 0.119 1.322-0.465 1.649-0.18 0.11-0.39 0.16-0.59 0.16z"/>
			
			
				<path d="m478.07 223.14c-0.438 0-0.859-0.237-1.076-0.651l-37.16-71.26c-0.309-0.593-0.079-1.325 0.514-1.634 0.598-0.312 1.325-0.08 1.636 0.514l37.165 71.258c0.309 0.593 0.079 1.325-0.514 1.635-0.18 0.1-0.37 0.14-0.56 0.14z"/>
			
			
				<path d="m493.43 219.86c-0.438 0-0.86-0.238-1.076-0.653l-35.323-67.983c-0.308-0.594-0.077-1.325 0.517-1.634 0.595-0.309 1.324-0.077 1.635 0.517l35.322 67.983c0.308 0.593 0.077 1.325-0.517 1.633-0.17 0.09-0.36 0.13-0.55 0.13z"/>
			
			
				<polygon points="347.84 140 467.01 140 494.04 98 317.12 98" fill="#C60101"/>
				
					<path d="m467.68 141h-120.46l-0.362-0.087-32.11-43.91h181.5l-28.57 44zm-119.22-2h117.89l25.485-40h-172.34l28.96 40z"/>
				
			
			
				<path d="m333.57 207.04c-1.789 0-3.827-0.732-6.538-3.193-1.018-0.923-1.55-2.07-1.583-3.408-0.111-4.46 5.585-10.172 11.094-15.697 3.404-3.414 6.62-6.639 7.704-8.861 2.536-5.201 2.708-13.255 2.847-19.726 0.038-1.748 0.074-3.414 0.149-4.932 0.034-0.668 0.619-1.194 1.271-1.149 0.668 0.033 1.183 0.602 1.15 1.27-0.074 1.497-0.11 3.14-0.146 4.864-0.151 7.057-0.323 15.056-3.093 20.735-1.26 2.585-4.614 5.949-8.165 9.51-4.666 4.679-10.473 10.502-10.387 13.925 0.016 0.668 0.267 1.201 0.789 1.675 3.613 3.28 5.182 2.768 7.776 1.923 1.713-0.558 3.847-1.25 6.88-0.953 1.216 0.12 2.371 0.508 3.39 0.851 2.57 0.866 3.765 1.159 5.102-0.968 0.835-1.329 0.902-2.684 0.18-3.625-0.718-0.934-2.018-1.224-3.483-0.768-0.64 0.202-1.318-0.159-1.516-0.798-0.199-0.64 0.16-1.318 0.799-1.516 2.435-0.755 4.781-0.14 6.122 1.605 1.347 1.751 1.328 4.2-0.05 6.39-2.409 3.833-5.468 2.804-7.927 1.976-0.939-0.316-1.911-0.643-2.853-0.736-2.542-0.249-4.242 0.306-5.894 0.845-1.18 0.38-2.34 0.76-3.62 0.76z"/>
			
			
				<path d="m357.26 226.62c-0.05 0-0.099-3e-3 -0.15-9e-3l-1.602-0.197c-10.413-1.276-17.376-2.343-19.222-5.408-0.52-0.864-0.597-1.841-0.22-2.826 0.318-0.832 0.92-1.694 1.557-2.607 2.075-2.977 4.222-6.053 0.129-10.313-0.464-0.482-0.448-1.25 0.034-1.713 0.481-0.463 1.25-0.448 1.712 0.035 5.471 5.693 2.117 10.504 0.112 13.378-0.55 0.788-1.068 1.533-1.282 2.087-0.126 0.333-0.078 0.526 0.033 0.711 1.374 2.282 11.043 3.468 17.441 4.252l1.604 0.198c0.665 0.082 1.136 0.688 1.053 1.352-0.07 0.61-0.59 1.06-1.19 1.06z"/>
			
			
				<path d="m370.79 182.73c-3.857-3.751-10.424-4.915-15.216-4.026-0.047 9e-3 -0.095 0.026-0.142 0.027-1.096 0.012-1.947-2.052-1.947-2.052 14.63-2.56 17.31 6.05 17.31 6.05z"/>
			
			
				<path d="m374.99 177.88c-5.336-5.187-14.418-6.796-21.044-5.568-0.066 0.012-0.13 0.037-0.195 0.037-1.517 0.017-2.694-2.838-2.694-2.838 20.22-3.54 23.92 8.37 23.92 8.37z"/>
			
			<ellipse cx="359.22" cy="180.58" rx="2.477" ry="4.002"/>
			
				<path d="m475 146.16c0 3.223-2.613 5.836-5.836 5.836h-120.32c-3.223 0-5.836-2.613-5.836-5.836v-0.328c0-3.223 2.613-5.836 5.836-5.836h120.33c3.223 0 5.836 2.613 5.836 5.836v0.33z" fill="#fff"/>
				<path d="m476 146.95c0 3.892-3.155 7.047-7.048 7.047h-119.9c-3.893 0-7.048-3.155-7.048-7.047v-0.905c0-3.892 3.155-7.047 7.048-7.047h119.9c3.893 0 7.048 3.155 7.048 7.047v0.91zm-2-1.33c0-2.554-2.07-4.625-4.624-4.625h-120.76c-2.554 0-4.624 2.07-4.624 4.625v0.751c0 2.554 2.07 4.625 4.624 4.625h120.75c2.554 0 4.624-2.07 4.624-4.625v-0.76z"/>
			
			
				<path d="m259.37 397.22s45.895-63.896 82.112-152.33c-4.036-1.769-118.98 20.348-154.87 72.022-0.4 16.934-1.346 189.83-0.118 213.99 78.63 45.869 159.23 26.388 163.26 24.616-43.7-106.7-90.38-158.3-90.38-158.3z" fill="#C60101"/>
				
					<path d="m301.19 562h-5e-3c-28.836 0-72.249-5.102-115.31-30.219l-0.566-0.246-0.033-0.612c-1.252-24.639-0.227-199.48 0.117-214.06l9e-3 -0.354 0.207-0.293c18.439-26.544 57.065-44.651 86.223-55.169 33.533-12.097 63.156-17.467 68.755-17.467 0.645 0 1.057 0.061 1.376 0.201l1.083 0.475-0.447 1.095c-33.716 82.326-76.343 144.17-81.693 151.79 5.785 6.687 49.445 58.982 89.966 157.92l0.447 1.094-1.083 0.304c-1.62 0.71-20.18 5.54-49.05 5.54zm-113.52-31.81c42.404 24.561 85.108 29.73 113.52 29.731 24.891 0 42.32-3.83 46.95-5.145-42.978-104.47-89.203-156.23-89.667-156.74l-0.656-0.725 0.57-0.794c0.455-0.634 45.672-64.025 81.315-150.48-15.567 0.954-118.59 23.851-151.89 71.27-0.35 16.73-1.34 186.19-0.14 212.87z"/>
				
			
			
				<circle cx="397.12" cy="461.23" r="4.068"/>
				<circle cx="403.18" cy="479.41" r="4.068"/>
				<circle cx="420.14" cy="480.62" r="4.068"/>
				<circle cx="423.78" cy="498.79" r="4.068"/>
				<circle cx="440.74" cy="500" r="4.068"/>
			
			
				<rect x="217" y="262" width="18" height="160" fill="#FDCB45"/>
				<path d="m237 424h-21v-163h21v163zm-19-3h16v-157h-16v157z"/>
			
			<path d="m367.1 570.73c0.826 14.705 9.292 29.897 16.273 42.441 6.852 12.311 14.826 26.419 25.775 35.646 7.948 6.699 12.248 0.386 21.087 1.393 5.828 0.665 12.012 2.569 13.757-3.819l-0.015 2.175c0.039-0.795 0.067-1.638 0.091-2.506 0.06-0.251 0.128-0.486 0.176-0.762 0.416-2.426 0.216-5.111 0.074-7.74 0.262-5.093 0.894-10.256 2.777-14.119 3.339-6.85 23.755-20.849 17.488-26.538-5.044-4.578-7.057-2.556-10.898-1.606l-0.071-0.08c-0.334-1.241-1.1-2.085-2.03-3.175-1.747-4.746 2.709-8.342 3.649-10.803 0.679-1.778-0.924-3.037-3.706-3.983l1.972 0.362c5.104-7.452-1.367-6.508-4.199-12.01-2.536-4.923 7.312-17.168 2.311-19.135-31.303-12.305-63.646 3.634-76.467 12.311-0.445 0.06-0.917 0.152-1.428 0.358-5.58 2.25-6.97 5.22-6.61 11.6zm86.58 24.56c-0.016 5e-3 -0.033 7e-3 -0.05 0.012-6e-3 -0.028-0.01-0.061-0.018-0.088 0.03 0.03 0.05 0.05 0.07 0.08z" fill="#fff"/>
			<path d="m365.75 555.59c-4.715-6.619-7.433-17.987-14.533-22.653-5.289-3.477-16.974-4.737-22.674-1.771-3.6 1.875-5.578 5.384-7.412 8.877-5.58-10.642-27.237-5.543-33.38 2.259-2.478 3.148-2.927 6.998-2.887 10.89-14.667 0.493-29.772 5.489-28.9 22.965 0.61 12.217 11.635 28.632 25.593 26.858 6.166-0.782 10.539-5.725 14.089-10.394 1.532 2.577 2.614 5.422 3.692 8.249l21.778 47.689 97.98-0.306-53.35-92.67z" fill="#FDCB45"/>
			
				<path d="m419.1 649.47c-0.414 0-0.817-0.212-1.043-0.595-0.783-1.323-57.381-100.77-57.944-101.76-5.257-9.233-12.92-19.376-25.611-15.791-10.327 2.913-13.267 9.959-13.914 15.356-1.179 9.82 4.51 21.563 12.681 26.175 3.637 2.054 9.252 3.497 15.362-1.267 5.09-3.972 5.762-10.57 4.17-15.35-1.822-5.465-6.21-8.792-11.742-8.898-4.066-0.083-6.524 1.328-6.903 3.962-0.384 2.662 1.483 5.992 3.699 6.6 2.293 0.629 3.848-2.2 4.566-3.942 0.256-0.62 0.967-0.908 1.583-0.658 0.618 0.256 0.913 0.965 0.658 1.583-2.476 5.994-6.033 5.742-7.447 5.354-3.422-0.938-6.022-5.361-5.457-9.283 0.269-1.865 1.697-6.189 9.348-6.038 6.504 0.125 11.865 4.171 13.994 10.557 2.236 6.713 0.237 13.956-4.978 18.024-5.589 4.361-11.999 4.878-18.044 1.467-8.947-5.05-15.181-17.868-13.896-28.574 1.039-8.664 6.601-14.844 15.662-17.4 14.479-4.082 23.126 7.705 28.375 16.925 0.563 0.99 57.171 100.45 57.923 101.72 0.341 0.575 0.149 1.318-0.427 1.659-0.19 0.11-0.4 0.17-0.61 0.17z"/>
			
			
				<path d="m303.63 582.85c-2.932 1e-3 -5.869-0.786-8.589-2.354-5.27-3.036-9.236-8.955-10.883-16.239-1.805-7.983-0.536-16.407 3.311-21.986 7.188-10.419 21.56-13.154 32.04-6.091 0.859 0.578 1.664 1.189 2.552 1.869 0.531 0.407 0.632 1.168 0.225 1.699-0.407 0.53-1.167 0.632-1.699 0.225-0.856-0.656-1.63-1.243-2.431-1.784-9.386-6.324-22.255-3.874-28.691 5.457-3.474 5.04-4.602 12.733-2.941 20.076 1.497 6.627 5.043 11.977 9.728 14.675 4.47 2.576 9.615 2.698 14.11 0.338 4.562-2.395 7.537-6.915 7.958-12.09 0.387-4.744-2.306-11.71-6.358-13.586-2.295-1.063-4.745-0.314-7.279 2.22-2.256 2.257-1.482 4.619-1.046 5.531 0.755 1.571 2.211 2.594 3.453 2.477 1.27-0.14 2.27-1.515 2.818-3.87 0.151-0.651 0.805-1.064 1.454-0.905 0.652 0.151 1.058 0.803 0.905 1.454-1.078 4.634-3.542 5.579-4.914 5.729-2.266 0.256-4.699-1.328-5.901-3.836-1.376-2.868-0.809-5.968 1.517-8.293 4.146-4.147 7.732-3.761 10.01-2.706 5.145 2.381 8.217 10.334 7.757 15.981-0.49 6.008-3.946 11.256-9.248 14.038-2.51 1.3-5.18 1.95-7.86 1.95z"/>
			
			
				<path d="m321.12 649.77c-0.485 0-0.943-0.293-1.129-0.772-2.054-5.279-31.23-67.619-34.084-71.622-1.549-2.172-3.422-3.524-5.272-3.807-1.416-0.213-2.813 0.193-4.159 1.217-3.887 2.951-2.576 9.472-0.746 13.041 0.999 1.947 3.466 4.17 5.731 4.17h0.053c1.353 0 2.425-0.982 3.19-2.586 0.88-1.847-0.463-6.148-2.28-7.254-0.322-0.195-1.069-0.686-2.215 0.826-0.403 0.531-1.164 0.618-1.698 0.215-0.533-0.405-0.638-1.172-0.233-1.706 1.544-2.037 3.563-2.592 5.405-1.472 2.881 1.753 4.619 7.262 3.208 10.224-1.16 2.434-3.058 3.753-5.342 3.753h-0.087c-3.344 0-6.553-2.672-7.887-5.277-2.64-5.145-3.315-12.293 1.437-15.9 1.861-1.414 3.933-1.975 5.988-1.663 2.505 0.382 4.948 2.093 6.882 4.805 3.064 4.298 32.192 66.557 34.368 72.155 0.243 0.622-0.066 1.327-0.689 1.569-0.15 0.05-0.29 0.08-0.44 0.08z"/>
			
			
				<path d="m279.61 603.21c-5.391 0-11.243-2.405-16.213-6.771-6.019-5.286-9.229-15.36-7.986-25.065 1.061-8.284 5.123-14.772 11.145-17.802 4.905-2.467 10.341-2.114 15.601-1.771 0.731 0.047 1.457 0.095 2.174 0.132 0.668 0.037 1.181 0.607 1.145 1.275-0.037 0.669-0.624 1.174-1.275 1.146-0.727-0.04-1.461-0.087-2.201-0.136-4.933-0.322-10.038-0.653-14.355 1.52-5.29 2.66-8.873 8.472-9.829 15.943-1.146 8.941 1.742 18.159 7.182 22.938 5.44 4.778 11.963 6.982 17.431 5.897 4.293-0.851 7.739-3.681 9.965-8.187 0.296-0.599 1.022-0.845 1.624-0.549 0.6 0.296 0.846 1.023 0.549 1.623-2.572 5.205-6.605 8.487-11.666 9.489-1.05 0.2-2.15 0.31-3.27 0.31z"/>
			
			
				<path d="m401.9 650.39c-0.439 0-0.863-0.24-1.079-0.658l-39.315-76.48c-0.305-0.596-0.071-1.325 0.524-1.632 0.597-0.309 1.325-0.07 1.632 0.524l39.315 76.48c0.306 0.596 0.071 1.325-0.524 1.632-0.17 0.1-0.35 0.14-0.54 0.14z"/>
			
			
				<path d="m389.61 650.39c-0.433 0-0.852-0.232-1.07-0.642l-40.44-75.764c-0.316-0.591-0.092-1.324 0.498-1.639 0.587-0.315 1.324-0.094 1.639 0.498l40.44 75.764c0.316 0.591 0.092 1.324-0.498 1.639-0.18 0.09-0.37 0.14-0.57 0.14z"/>
			
			
				<path d="m369.96 650.39c-0.425 0-0.836-0.224-1.058-0.62l-49.656-88.665c-0.328-0.584-0.119-1.322 0.465-1.648 0.583-0.329 1.323-0.117 1.648 0.465l49.656 88.666c0.328 0.583 0.119 1.321-0.465 1.647-0.18 0.1-0.38 0.15-0.58 0.15z"/>
			
			
				<path d="m351.53 650.39c-0.438 0-0.859-0.236-1.075-0.65l-37.165-71.259c-0.309-0.594-0.08-1.325 0.513-1.636 0.598-0.312 1.325-0.079 1.635 0.514l37.165 71.259c0.309 0.594 0.08 1.325-0.513 1.635-0.18 0.1-0.37 0.15-0.56 0.15z"/>
			
			
				<path d="m334.33 650.39c-0.438 0-0.86-0.238-1.077-0.653l-35.323-67.983c-0.308-0.594-0.077-1.325 0.517-1.634 0.593-0.308 1.324-0.077 1.634 0.517l35.323 67.983c0.308 0.595 0.077 1.325-0.517 1.635-0.17 0.08-0.36 0.13-0.55 0.13z"/>
			
			
				<polygon points="444.59 660 325.42 660 298.39 702 475.31 702" fill="#C60101"/>
				
					<path d="m477.68 704h-181.5l28.573-45h120.46l32.47 45zm-177.08-3h172.34l-28.961-40h-117.89l-25.49 40z"/>
				
			
			
				<path d="m443.98 650h-0.062c-0.668 0-1.183-0.716-1.149-1.386 0.074-1.495 0.109-3.194 0.146-4.919 0.151-7.057 0.323-15.084 3.093-20.764 1.26-2.585 4.614-5.964 8.165-9.525 4.665-4.679 10.473-10.507 10.388-13.93-0.017-0.67-0.268-1.204-0.789-1.679-3.614-3.281-5.184-2.771-7.776-1.927-1.713 0.559-3.842 1.251-6.882 0.951-1.215-0.119-2.369-0.507-3.389-0.85-2.568-0.862-3.765-1.159-5.102 0.968-0.835 1.329-0.902 2.684-0.18 3.625 0.717 0.933 2.018 1.222 3.483 0.768 0.642-0.198 1.318 0.159 1.516 0.798 0.198 0.64-0.158 1.317-0.799 1.516-2.433 0.757-4.781 0.143-6.122-1.605-1.346-1.751-1.327-4.2 0.05-6.391 2.41-3.832 5.47-2.804 7.927-1.976 0.94 0.316 1.912 0.644 2.854 0.736 2.532 0.248 4.24-0.307 5.894-0.845 2.826-0.921 5.501-1.793 10.154 2.434 1.018 0.923 1.55 2.07 1.583 3.408 0.111 4.46-5.585 10.172-11.094 15.696-3.404 3.414-6.62 6.638-7.704 8.861-2.535 5.201-2.708 13.254-2.847 19.725-0.037 1.748-0.073 3.527-0.148 5.045-0.03 0.66-0.57 1.28-1.21 1.28z"/>
			
			
				<path d="m453.81 596.64c-0.318 0-0.636-0.124-0.873-0.372-5.472-5.693-2.117-10.503-0.112-13.377 0.55-0.789 1.068-1.533 1.279-2.088 0.128-0.334 0.08-0.525-0.031-0.711-1.374-2.283-11.043-3.469-17.441-4.253l-1.604-0.197c-0.665-0.083-1.136-0.688-1.053-1.352 0.082-0.665 0.679-1.146 1.351-1.053l1.603 0.197c10.413 1.277 17.376 2.343 19.222 5.407 0.52 0.864 0.597 1.841 0.22 2.825-0.317 0.833-0.92 1.696-1.557 2.609-2.075 2.976-4.222 6.053-0.129 10.312 0.464 0.482 0.448 1.249-0.033 1.713-0.25 0.21-0.55 0.33-0.85 0.33z"/>
			
			
				<path d="m421.65 617.12c3.856 3.75 10.424 4.915 15.215 4.027 0.048-0.01 0.095-0.027 0.143-0.028 1.096-0.012 1.947 2.053 1.947 2.053-14.63 2.56-17.3-6.05-17.3-6.05z"/>
			
			
				<path d="m417.44 621.97c5.336 5.188 14.418 6.797 21.044 5.568 0.066-0.012 0.13-0.035 0.195-0.036 1.517-0.018 2.693 2.838 2.693 2.838-20.23 3.53-23.93-8.37-23.93-8.37z"/>
			
			<ellipse cx="433.21" cy="619.27" rx="2.477" ry="4.003"/>
			
				<path d="m450 654.16c0 3.223-2.612 5.836-5.835 5.836h-120.33c-3.223 0-5.835-2.613-5.835-5.836v-0.328c0-3.223 2.612-5.836 5.835-5.836h120.33c3.223 0 5.835 2.613 5.835 5.836v0.33z" fill="#fff"/>
				<path d="m451 654.95c0 3.893-3.155 7.048-7.047 7.048h-119.9c-3.892 0-7.047-3.155-7.047-7.048v-0.904c0-3.893 3.155-7.048 7.047-7.048h119.91c3.892 0 7.047 3.155 7.047 7.048v0.9zm-2-1.33c0-2.554-2.07-4.624-4.624-4.624h-120.76c-2.554 0-4.624 2.07-4.624 4.624v0.752c0 2.554 2.07 4.624 4.624 4.624h120.75c2.554 0 4.624-2.07 4.624-4.624v-0.75z"/>
			
			
				<rect x="558" y="378" width="18" height="161" fill="#FDCB45"/>
				<path d="m577 540h-21v-164h21v164zm-18-2h16v-159h-16v159z"/>
			
			
				<rect x="558" y="539" width="18" height="8" fill="#fff"/>
				<path d="m577 548h-21v-10h21v10zm-18-2h16v-6h-16v6z"/>
			
			
				<rect x="558" y="547" width="18" height="9" fill="#fff"/>
				<path d="m577 557h-21v-11h21v11zm-18-3h16v-6h-16v6z"/>
			
			
				<rect x="558" y="556" width="18" height="8" fill="#fff"/>
				<path d="m577 565h-21v-11h21v11zm-18-2h16v-6h-16v6z"/>
			
			
				
					<path d="m582.29 514.29c3.854 5.317 3.329 11.027-0.776 15.462-4.107 4.44-36.853-13.074-39.808-21.211-1.386-3.813 0.552-10.728 3.942-12.994" fill="#fff"/>
					<path d="m579.2 531.67c-0.782 0-1.681-0.104-2.7-0.309-10.167-2.052-33.196-14.881-35.93-22.409-1.63-4.484 0.636-11.894 4.408-14.414l1.347 2.014c-2.832 1.893-4.715 8.166-3.478 11.573 2.203 6.066 24.264 18.87 34.131 20.86 2.944 0.594 3.584 0.01 3.648-0.058 3.843-4.151 4.093-9.228 0.685-13.929l1.962-1.422c4.088 5.639 3.764 11.992-0.868 16.996-0.68 0.74-1.74 1.1-3.21 1.1z"/>
				
				
					<path d="m582.26 497.46c6.348 4.033 5.495 13.684 2.258 16.03-4.455 3.228-35.347-15.071-38.019-18.063-3.171-3.55-3.645-9.249 0.653-13.228" fill="#fff"/>
					<path d="m583.06 515.01c-9.007 0-35.37-16.43-37.468-18.779-3.376-3.779-4.267-10.294 0.733-14.922l1.646 1.776c-3.908 3.617-3.246 8.539-0.572 11.531 3.459 3.875 33.197 20.227 36.403 17.891 1.052-0.764 2.069-3.086 1.979-6.051-0.051-1.632-0.558-5.678-4.176-7.977l1.299-2.044c3.236 2.055 5.167 5.68 5.299 9.946 0.107 3.522-1.062 6.696-2.979 8.086-0.51 0.36-1.24 0.53-2.16 0.53z"/>
				
				
					<path d="m586.63 481.53c3.913 4.952 2.857 9.302 0.407 13.615-2.774 4.885-5.428 1.674-9.846-0.393-5.912-2.767-11.315-5.021-17.236-7.762-3.018-1.396-10.729-3.211-12.466-6.23-2.211-3.846 1.41-9.657 4.033-12.32" fill="#fff"/>
					<path d="m583.76 499h-0.108c-1.481 0-2.885-0.871-4.51-1.797-0.78-0.443-1.587-0.921-2.464-1.33-3.099-1.451-6.117-2.795-9.034-4.085-2.689-1.189-5.385-2.387-8.197-3.688-0.767-0.355-1.938-0.77-3.177-1.205-3.717-1.308-8.342-2.935-9.831-5.523-2.526-4.397 1.139-10.648 4.22-13.777l1.728 1.701c-2.646 2.686-5.589 7.834-3.847 10.867 1.042 1.809 5.551 3.395 8.535 4.444 1.351 0.476 2.518 0.886 3.39 1.29 2.799 1.295 5.482 2.482 8.159 3.666 2.931 1.296 5.96 2.637 9.082 4.098 0.964 0.451 1.852 0.956 2.635 1.401 1.342 0.763 2.501 1.423 3.373 1.445 0.343-6e-3 1.142 0.031 2.271-1.956 2.039-3.59 3.414-7.561-0.305-12.266l1.902-1.503c4.646 5.882 2.712 11.124 0.509 15.001-1.21 2.15-2.63 3.23-4.33 3.23z"/>
				
				
					<path d="m587.28 481.49c3.292-6.728 6.255-10.262-0.939-15.791-7.227-5.554-15.687-8.673-24.378-10.652-6.9-1.57-8.562 1.216-10.301 7.63-2.107 7.765 5.025 6.726 11.215 8.597 8.074 2.44 17.356 5.744 24.432 10.649" fill="#fff"/>
					<path d="m586.62 482.92c-7.342-5.09-17.267-8.423-24.092-10.486-1.34-0.404-2.747-0.671-4.106-0.928-3.168-0.6-6.16-1.166-7.578-3.431-0.892-1.426-1.007-3.296-0.351-5.715 1.671-6.158 3.491-10.371 11.739-8.493 10.231 2.33 18.359 5.887 24.848 10.872 7.243 5.567 5.056 9.862 2.287 15.299-0.321 0.632-0.658 1.292-0.997 1.985l-0.844-0.413-0.91 1.31zm-27.98-27.11c-3.281 0-4.431 2.1-5.809 7.18-0.47 1.732-0.449 2.974 0.065 3.796 0.855 1.365 3.229 1.815 5.976 2.334 1.422 0.271 2.893 0.548 4.355 0.991 6.579 1.988 15.984 5.138 23.426 9.916 0.187-0.374 0.373-0.737 0.554-1.092 2.775-5.45 4.043-7.938-1.604-12.278-6.204-4.769-14.025-8.181-23.908-10.433-1.21-0.27-2.21-0.42-3.07-0.42z"/>
				
			
			
				<path d="m591 568.55c0 3.011-2.44 5.452-5.451 5.452h-42.098c-3.011 0-5.451-2.441-5.451-5.452v-0.096c0-3.011 2.44-5.452 5.451-5.452h42.098c3.011 0 5.451 2.441 5.451 5.452v0.1z" fill="#fff"/>
				<path d="m586.18 575h-42.406c-3.674 0-6.663-2.826-6.663-6.5s2.989-6.5 6.663-6.5h42.406c3.673 0 6.663 2.826 6.663 6.5s-2.99 6.5-6.66 6.5zm-42.4-11c-2.338 0-4.24 2.162-4.24 4.5s1.902 4.5 4.24 4.5h42.406c2.338 0 4.24-2.162 4.24-4.5s-1.902-4.5-4.24-4.5h-42.41z"/>
			
			
				<circle cx="566.53" cy="595.51" r="20.169" fill="#C60101"/>
				
					<path d="m566.53 616.89c-11.791 0-21.383-9.593-21.383-21.382s9.592-21.381 21.383-21.381c11.789 0 21.38 9.592 21.38 21.381s-9.59 21.38-21.38 21.38zm0-40.34c-10.455 0-18.96 8.505-18.96 18.958s8.505 18.958 18.96 18.958c10.453 0 18.957-8.505 18.957-18.958s-8.51-18.96-18.96-18.96z"/>
				
			
			
				<circle cx="566.53" cy="381.03" r="15.617" fill="#FB821F"/>
				
					<path d="m566.53 397.86c-9.28 0-16.83-7.55-16.83-16.83s7.55-16.828 16.83-16.828c9.279 0 16.828 7.548 16.828 16.828s-7.55 16.83-16.83 16.83zm0-31.23c-7.944 0-14.407 6.463-14.407 14.405 0 7.944 6.463 14.407 14.407 14.407 7.942 0 14.405-6.463 14.405-14.407 0-7.95-6.46-14.41-14.41-14.41z"/>
				
			
			
				<path d="m454.5 578.3-2-1.37c2.7-3.941 1.874-4.601-0.334-6.363-1.266-1.012-2.843-2.27-3.942-4.406-1.437-2.789 0.174-6.917 1.731-10.909 1.289-3.303 2.75-7.048 1.213-7.652-36.37-14.302-74.009 10.229-79.91 15.649l-1.64-1.784c6.087-5.59 44.9-30.874 82.437-16.12 3.787 1.488 1.942 6.216 0.158 10.788-1.299 3.329-2.771 7.102-1.836 8.919 0.864 1.676 2.103 2.665 3.302 3.623 2.8 2.23 4.51 4.23 0.82 9.62z"/>
			
			
				<polygon points="471.38 699.71 437.45 678.2 415.34 700.31 386.26 677.9 358.1 699.1 337.5 677.6 301.15 699.1" fill="#FDCB45"/>
				<path d="m415.45 701.92-1.568-1.208-55.648-0.198-0.266 0.2-0.193-0.202-61.021-0.217 40.958-24.233 20.518 21.423 28.046-21.111 28.436 21.919 0.936 2e-3 21.64-21.638 38.292 24.275-58.931-0.211-1.21 1.21zm3.61-3.61 48.12 0.17-29.556-18.735-18.56 18.57zm-57.63-0.21 49.286 0.176-24.464-18.858-24.83 18.68zm-55.88-0.19 49.891 0.178-18.155-18.954-31.73 18.77z"/>
			
			
				<rect x="217" y="254" width="18" height="8" fill="#fff"/>
				<path d="m237 264h-21v-11h21v11zm-19-3h16v-6h-16v6z"/>
			
			
				<rect x="217" y="246" width="18" height="8" fill="#fff"/>
				<path d="m237 255h-21v-11h21v11zm-19-2h16v-6h-16v6z"/>
			
			
				<rect x="217" y="237" width="18" height="9" fill="#fff"/>
				<path d="m237 247h-21v-11h21v11zm-19-3h16v-6h-16v6z"/>
			
			
				
					<path d="m210.14 285.56c-3.855-5.319-3.33-11.027 0.776-15.462 4.107-4.441 36.853 13.073 39.807 21.21 1.386 3.813-0.551 10.728-3.942 12.994" fill="#fff"/>
					<path d="m247.46 305.31-1.346-2.015c2.83-1.892 4.715-8.165 3.477-11.572-2.203-6.066-24.264-18.871-34.131-20.861-2.942-0.592-3.584-8e-3 -3.648 0.059-3.843 4.15-4.092 9.227-0.685 13.928l-1.962 1.422c-4.088-5.64-3.764-11.994 0.868-16.996 1.038-1.123 2.969-1.379 5.905-0.789 10.167 2.051 33.196 14.88 35.93 22.409 1.62 4.48-0.64 11.89-4.41 14.41z"/>
				
				
					<path d="m210.17 302.39c-6.348-4.031-5.495-13.683-2.258-16.029 4.455-3.228 35.347 15.071 38.018 18.064 3.171 3.549 3.645 9.249-0.653 13.227" fill="#fff"/>
					<path d="m246.1 318.54-1.647-1.777c3.908-3.617 3.247-8.539 0.573-11.531-3.459-3.876-33.192-20.212-36.403-17.89-1.052 0.763-2.071 3.086-1.979 6.051 0.051 1.632 0.557 5.677 4.175 7.974l-1.299 2.046c-3.236-2.055-5.167-5.68-5.298-9.945-0.107-3.523 1.062-6.698 2.979-8.087 5.559-4.033 37.322 15.648 39.633 18.237 3.38 3.78 4.27 10.3-0.73 14.93z"/>
				
				
					<path d="m205.8 318.31c-3.913-4.953-2.857-9.301-0.407-13.615 2.774-4.884 5.427-1.674 9.845 0.393 5.912 2.767 11.316 5.02 17.236 7.761 3.017 1.396 10.729 3.211 12.466 6.23 2.21 3.846-1.411 9.657-4.034 12.321" fill="#fff"/>
					<path d="m241.77 332.25-1.728-1.702c2.647-2.686 5.589-7.833 3.847-10.866-1.041-1.809-5.55-3.396-8.534-4.445-1.351-0.476-2.518-0.886-3.39-1.29-2.799-1.295-5.484-2.482-8.16-3.667-2.93-1.296-5.958-2.636-9.081-4.096-0.964-0.451-1.851-0.956-2.634-1.402-1.342-0.764-2.501-1.423-3.375-1.446-0.344-9e-3 -1.142-0.03-2.271 1.956-2.039 3.589-3.414 7.56 0.305 12.266l-1.902 1.502c-4.646-5.88-2.712-11.087-0.509-14.965 1.242-2.186 2.721-3.231 4.439-3.181 1.481 0.038 2.884 0.837 4.51 1.762 0.78 0.443 1.585 0.902 2.462 1.313 3.099 1.45 6.116 2.784 9.034 4.075 2.689 1.189 5.386 2.382 8.198 3.685 0.767 0.355 1.937 0.767 3.177 1.202 3.716 1.307 8.341 2.934 9.831 5.523 2.52 4.42-1.15 10.66-4.23 13.79z"/>
				
				
					<path d="m205.15 318.36c-3.292 6.728-6.254 10.262 0.939 15.791 7.227 5.554 15.687 8.673 24.378 10.652 6.9 1.57 8.562-1.215 10.301-7.629 2.107-7.765-5.026-6.726-11.215-8.597-8.074-2.441-17.356-5.745-24.432-10.65" fill="#fff"/>
					<path d="m233.75 346.43c-1.032 0-2.206-0.144-3.552-0.451-10.232-2.33-18.36-5.886-24.848-10.872-7.244-5.567-5.056-9.862-2.287-15.299 0.322-0.632 0.658-1.292 0.997-1.985l0.844 0.413 0.906-1.31c7.342 5.09 17.267 8.423 24.092 10.487 1.339 0.405 2.746 0.671 4.105 0.928 3.168 0.6 6.161 1.167 7.579 3.431 0.892 1.426 1.007 3.295 0.35 5.715-1.39 5.16-2.89 8.95-8.18 8.95zm-27.97-26.61c-0.187 0.374-0.373 0.737-0.554 1.092-2.776 5.45-4.043 7.938 1.604 12.278 6.205 4.769 14.025 8.181 23.909 10.433 5.757 1.307 7.125-0.357 8.863-6.766 0.47-1.732 0.448-2.974-0.066-3.796-0.855-1.365-3.228-1.815-5.975-2.334-1.422-0.27-2.893-0.547-4.355-0.99-6.58-1.99-15.98-5.14-23.42-9.91z"/>
				
			
			
				<path d="m255 232.55c0 3.011-2.441 5.452-5.452 5.452h-42.096c-3.011 0-5.452-2.441-5.452-5.452v-0.096c0-3.011 2.441-5.452 5.452-5.452h42.096c3.011 0 5.452 2.441 5.452 5.452v0.1z" fill="#fff"/>
				<path d="m249.36 239h-42.405c-3.674 0-6.664-2.826-6.664-6.5s2.99-6.5 6.664-6.5h42.405c3.674 0 6.664 2.826 6.664 6.5s-2.98 6.5-6.66 6.5zm-42.4-10c-2.338 0-4.241 1.662-4.241 4s1.903 4 4.241 4h42.405c2.338 0 4.241-1.662 4.241-4s-1.902-4-4.241-4h-42.4z"/>
			
			
				<circle cx="225.9" cy="205.55" r="20.17" fill="#C60101"/>
				
					<path d="m225.9 226.93c-11.789 0-21.38-9.592-21.38-21.382 0-11.789 9.591-21.38 21.38-21.38 11.791 0 21.383 9.591 21.383 21.38 0 11.79-9.59 21.38-21.38 21.38zm0-40.34c-10.453 0-18.957 8.504-18.957 18.958s8.504 18.959 18.957 18.959c10.455 0 18.959-8.505 18.959-18.959 0-10.45-8.51-18.96-18.96-18.96z"/>
				
			
			
				<circle cx="225.9" cy="418.81" r="15.617" fill="#FB821F"/>
				
					<path d="m225.9 435.64c-9.279 0-16.828-7.549-16.828-16.829 0-9.279 7.549-16.829 16.828-16.829 9.28 0 16.83 7.55 16.83 16.829 0 9.28-7.55 16.83-16.83 16.83zm0-31.23c-7.942 0-14.405 6.463-14.405 14.406s6.463 14.406 14.405 14.406c7.944 0 14.407-6.463 14.407-14.406s-6.47-14.41-14.41-14.41z"/>
				
			
			
				<path d="m365.03 259.07c-8.04 1e-3 -16.378-1.306-24.658-4.562-3.786-1.488-1.941-6.216-0.157-10.788 1.298-3.329 2.771-7.102 1.835-8.919-0.864-1.676-2.103-2.665-3.301-3.623-2.806-2.241-4.508-4.243-0.821-9.625l2 1.369c-2.7 3.941-1.874 4.601 0.333 6.363 1.267 1.012 2.843 2.27 3.942 4.406 1.437 2.789-0.174 6.917-1.731 10.91-1.29 3.304-2.75 7.048-1.213 7.652 8.014 3.151 16.093 4.417 23.877 4.417 27.543 2e-3 51.432-15.84 56.033-20.067l1.64 1.784c-4.73 4.35-29.36 20.68-57.77 20.68z"/>
			
			
				<path d="m450.19 484.11c-0.769-8.858-1.492-17.062-2.163-24.665-4.245-48.085-6.375-72.219-3.953-85.739 2.515-14.028 10.1-16.994 23.871-22.38 1.42-0.555 2.913-1.138 4.48-1.765l0.899 2.25c-1.574 0.629-3.073 1.215-4.498 1.772-26.788 10.475-26.788 10.475-18.387 105.65 0.671 7.604 1.396 15.809 2.163 24.67l-2.41 0.21z"/>
			
			
				<path d="m459.48 470.62c-5.855-50.014-7.622-76.02-6.1-89.765 1.59-14.328 7.052-16.09 13.969-18.321 2.318-0.748 4.943-1.595 7.73-3.011l1.098 2.16c-2.958 1.504-5.681 2.382-8.083 3.157-13.015 4.198-17.883 5.768-6.207 105.5l-2.41 0.27z"/>
			
			
				<path d="m467.59 461.55c-8.389-66.219-6.243-85.89 9.978-91.512l0.793 2.291c-14.586 5.055-16.463 24.999-8.366 88.917l-2.4 0.3z"/>
			
			
				<path d="m474.74 439.03c-0.877-5.407-8.174-52.984 5.407-58.329l0.887 2.255c-9.969 3.923-6.197 41.527-3.901 55.686l-2.4 0.38z"/>
			
			
					<rect transform="matrix(.2376 .9714 -.9714 .2376 735.98 -177.3)" x="439.23" y="379" width="83.415" height="2.424"/>
			
			
				<path d="m485.19 436.09c-1.026-6.569-4.151-28.747-1.215-38.291l2.316 0.712c-2.784 9.048 0.285 30.764 1.293 37.204l-2.4 0.38z"/>
			
			
				<polygon points="321.05 100.14 354.98 121.64 377.09 99.532 406.17 121.95 434.34 100.74 454.93 122.25 491.28 100.74" fill="#FDCB45"/>
				<path d="m454.72 123.78-20.519-21.423-28.046 21.111-28.436-21.918-0.936-4e-3 -21.64 21.639-38.292-24.275 58.931 0.209 1.198-1.198 1.568 1.208 55.649 0.198 0.266-0.201 0.193 0.202 61.021 0.217-40.95 24.23zm-17.73-22.02 18.155 18.955 31.736-18.777-49.89-0.18zm-55.28-0.19 24.463 18.858 24.822-18.683-49.28-0.18zm-56.46-0.21 29.556 18.736 18.564-18.565-48.12-0.18z"/>
			
			
				<circle cx="395.31" cy="338.61" r="4.068"/>
				<circle cx="389.25" cy="320.44" r="4.068"/>
				<circle cx="372.29" cy="319.23" r="4.068"/>
				<circle cx="368.66" cy="301.05" r="4.068"/>
				<circle cx="351.69" cy="299.84" r="4.068"/>
			
			
				<circle cx="382.11" cy="428.42" r="7.219" fill="#FB821F"/>
				
					<path d="m382.11 436.85c-4.649 0-8.43-3.782-8.43-8.431s3.781-8.431 8.43-8.431c4.648 0 8.43 3.782 8.43 8.431s-3.78 8.43-8.43 8.43zm0-14.43c-3.312 0-6.007 2.695-6.007 6.007s2.695 6.007 6.007 6.007 6.007-2.695 6.007-6.007-2.7-6.01-6.01-6.01z"/>
				
			
			
				<circle cx="411.19" cy="372.69" r="7.219" fill="#FB821F"/>
				
					<path d="m411.19 381.12c-4.649 0-8.431-3.781-8.431-8.43s3.781-8.43 8.431-8.43c4.648 0 8.43 3.781 8.43 8.43s-3.78 8.43-8.43 8.43zm0-14.44c-3.312 0-6.007 2.695-6.007 6.007s2.695 6.007 6.007 6.007 6.007-2.695 6.007-6.007c0-3.31-2.7-6.01-6.01-6.01z"/>
				
			
		
	
	<path d="m143.84 141.19c-0.022 0.045-0.044 0.089-0.066 0.134-0.07-0.067-0.141-0.134-0.211-0.201 0.09 0.03 0.18 0.05 0.28 0.07z" clip-rule="evenodd" fill-rule="evenodd"/>
	<g clip-rule="evenodd" fill="#BD0000" fill-rule="evenodd">
		<path d="m147.46 163.5c0.895-0.289-1.192 0.653-0.576 1.924 3.13 1.065 5.051-2.85 4.618-6.158-0.173-1.313-0.936-2.452-1.732-3.464-4.739-6.02-19.259-7.686-25.21-13.471-12.449-12.105 13.466-31.235 24.249-19.244 1.081-4.514 5.393-6.209 11.354-5.966 9.707 0.397 18.025 7.95 18.86 17.512 0.351 4.039-1.042 7.942-2.887 10.2-6.261 7.658-17.916 9.605-24.44 17.32-0.587 2.203-2.612 5.064-5.003 3.657-0.5-0.99 0-2.03 0.77-2.31z"/>
		<path d="m656.2 645.14c-0.894 0.289 1.192-0.652 0.578-1.926-3.133-1.065-5.054 2.852-4.619 6.159 0.172 1.312 0.935 2.452 1.731 3.465 4.74 6.02 19.258 7.684 25.21 13.471 12.45 12.105-13.465 31.234-24.248 19.244-1.082 4.513-5.394 6.21-11.354 5.966-9.708-0.397-18.025-7.951-18.859-17.511-0.353-4.04 1.04-7.943 2.887-10.2 6.262-7.659 17.915-9.605 24.438-17.321 0.587-2.203 2.613-5.063 5.005-3.656 0.49 0.98-0.01 2.03-0.78 2.31z"/>
	</g>
	<path d="m279.56 209.56c1.562-0.505-2.08 1.141-1.006 3.36 5.465 1.86 8.818-4.976 8.063-10.751-0.302-2.291-1.634-4.28-3.024-6.047-8.272-10.51-33.621-13.417-44.011-23.518-21.734-21.133 23.509-54.529 42.332-33.595 1.887-7.88 9.415-10.84 19.821-10.416 16.947 0.694 31.467 13.879 32.926 30.572 0.613 7.051-1.819 13.865-5.041 17.806-10.932 13.369-31.277 16.769-42.667 30.237-1.024 3.846-4.56 8.842-8.734 6.384-0.88-1.7-0.01-3.53 1.34-4.02z" clip-rule="evenodd" fill="#BD0000" fill-rule="evenodd"/>
	<path d="m519.19 602.12c-1.562 0.504 2.08-1.141 1.006-3.36-5.465-1.859-8.818 4.977-8.063 10.751 0.302 2.29 1.635 4.28 3.024 6.048 8.273 10.51 33.622 13.417 44.011 23.518 21.734 21.133-23.509 54.528-42.332 33.595-1.887 7.881-9.414 10.841-19.82 10.416-16.946-0.694-31.467-13.879-32.926-30.572-0.613-7.05 1.818-13.864 5.04-17.805 10.932-13.37 31.278-16.77 42.667-30.237 1.025-3.846 4.561-8.842 8.734-6.385 0.88 1.7 0.01 3.52-1.34 4.02z" clip-rule="evenodd" fill="#BD0000" fill-rule="evenodd"/>

<metadata><rdfRDF><ccWork><dcFormat>image/svg+xml</dcFormat><dcType rdfResource="http://purl.org/dc/dcmitype/StillImage"/><ccLicense rdfResource="http://creativecommons.org/licenses/publicdomain/"/><dcPublisher><ccAgent rdfAbout="http://openclipart.org/"><dcTitle>Openclipart</dcTitle></ccAgent></dcPublisher></ccWork><ccLicense rdfAbout="http://creativecommons.org/licenses/publicdomain/"><ccPermits rdfResource="http://creativecommons.org/ns#Reproduction"/><ccPermits rdfResource="http://creativecommons.org/ns#Distribution"/><ccPermits rdfResource="http://creativecommons.org/ns#DerivativeWorks"/></ccLicense></rdfRDF></metadata></svg>
