<?xml version="1.0" encoding="UTF-8"?>
<svg enable-background="new 0 0 800 800" version="1.1" viewBox="108 0 592 800" xmlSpace="preserve" xmlns="http://www.w3.org/2000/svg" xmlnsCc="http://web.resource.org/cc/" xmlnsDc="http://purl.org/dc/elements/1.1/" xmlnsRdf="http://www.w3.org/1999/02/22-rdf-syntax-ns#">

	
		<path d="m118.79 800c-5.552 0-9.792-4.578-9.792-9.595v-776.4c0-5.016 4.24-9 9.79-9h564.59c5.56 0 10.62 3.984 10.62 9.001v776.4c0 5.017-5.063 9.595-10.614 9.595h-564.6z" fill="#fff"/>
		<path d="m683.01 8.271c3.879 0 6.988 2.386 6.988 5.73v776.4c0 3.344-2.736 6.595-6.614 6.595h-564.6c-3.879 0-7.792-3.251-7.792-6.595v-776.4c0-3.343 3.91-6 7.79-6h564.21m0.39-6h-564.6c-7.23 0-13.79 5.302-13.79 12.001v776.4c0 6.699 6.556 12.595 13.792 12.595h564.59c7.234 0 12.614-5.896 12.614-12.595v-776.4c0.01-6.698-5.36-12-12.59-12h-0.01z"/>
	
	
		<path d="m602.35 705h-408.59c-3.428 0-6.759-4.034-6.759-7.399v-592.01c0-3.083 2.89-4.593 6.759-4.593h408.59c3.931 0 6.648 1.554 6.648 4.593v592.01c0 3.3-3.17 7.4-6.65 7.4zm-408.59-602c-3.662 0-3.759 1.93-3.759 2.593v592.01c0 2.14 1.822 4.399 3.759 4.399h408.59c1.982 0 3.648-2.281 3.648-4.399v-592.01c0-1.61-1.094-2.593-3.648-2.593h-408.59z"/>
	
	
		<path d="m158.92 81.646c0 3.096-0.508 5.949-1.525 8.558-1.016 2.609-2.42 4.853-4.209 6.731-1.791 1.877-3.898 3.347-6.325 4.409-2.428 1.06-5.052 1.59-7.874 1.59-3.943 0-7-0.723-9.17-2.17-2.169-1.448-3.254-3.417-3.254-5.911 0-0.544 0.106-1.096 0.319-1.654 0.212-0.559 0.532-1.068 0.955-1.526 0.426-0.459 0.941-0.838 1.548-1.139s1.32-0.452 2.139-0.452c0.728 0 1.388 0.114 1.98 0.345 0.591 0.229 1.1 0.529 1.524 0.902 0.425 0.372 0.751 0.801 0.979 1.289 0.228 0.487 0.341 0.989 0.341 1.505s-0.213 1.059-0.637 1.633c-0.425 0.573-0.638 1.118-0.638 1.634 0 0.774 0.41 1.36 1.229 1.762 0.82 0.4 1.866 0.601 3.141 0.601 1.82 0 3.329-0.329 4.528-0.989 1.198-0.659 2.153-1.584 2.867-2.773 0.713-1.191 1.213-2.624 1.502-4.301s0.432-3.534 0.432-5.569v-47.908c0-1.806-0.106-3.347-0.318-4.623-0.213-1.276-0.638-2.33-1.275-3.162-0.637-0.831-1.533-1.462-2.685-1.893-1.154-0.43-2.685-0.703-4.596-0.817-0.395 0-0.684-0.148-0.865-0.444-0.182-0.297-0.273-0.628-0.273-0.995 0-0.368 0.091-0.707 0.273-1.017 0.182-0.311 0.47-0.466 0.865-0.466 2.002 0 4.277 0.085 6.826 0.257 2.548 0.172 4.931 0.258 7.145 0.258 1.305 0 2.533-0.029 3.686-0.086 1.153-0.058 2.276-0.114 3.368-0.172 1.092-0.057 2.199-0.114 3.323-0.172 1.122-0.057 2.321-0.085 3.595-0.085 0.364 0 0.622 0.128 0.774 0.381 0.151 0.254 0.228 0.551 0.228 0.889 0 0.396-0.099 0.77-0.296 1.123-0.198 0.353-0.463 0.529-0.796 0.529-1.942 0.115-3.497 0.359-4.665 0.731-1.168 0.373-2.056 0.953-2.662 1.741-0.607 0.789-1.009 1.829-1.207 3.118-0.197 1.291-0.295 2.925-0.295 4.903v43.439z" fill="#C60101"/>
	
	<path d="m174.48 141.56s-17.658 15.507-26.938 29.38c-9.281-14.972-26.939-29.38-26.939-29.38s18.392-17.583 26.939-29.625c8.8 12.16 26.94 29.62 26.94 29.62z" fill="#C60101"/>
	<path d="m319.63 173.44s-27.717 24.34-42.282 46.116c-14.565-23.5-42.282-46.116-42.282-46.116s28.866-27.597 42.282-46.497c13.8 19.09 42.28 46.5 42.28 46.5z" fill="#C60101"/>
	
		<path d="m636.76 729.19c0-3.097 0.51-5.95 1.526-8.558 1.017-2.609 2.419-4.854 4.208-6.731 1.792-1.877 3.899-3.346 6.326-4.408 2.429-1.061 5.052-1.592 7.873-1.592 3.942 0 7.001 0.726 9.171 2.17 2.169 1.448 3.254 3.418 3.254 5.912 0 0.544-0.106 1.095-0.319 1.653-0.213 0.561-0.53 1.069-0.955 1.526-0.427 0.459-0.941 0.838-1.548 1.141-0.607 0.301-1.32 0.449-2.138 0.449-0.729 0-1.39-0.113-1.981-0.343-0.591-0.229-1.1-0.53-1.523-0.903-0.426-0.372-0.752-0.801-0.979-1.289-0.228-0.487-0.341-0.988-0.341-1.504 0-0.518 0.213-1.061 0.637-1.633 0.425-0.573 0.637-1.119 0.637-1.635 0-0.772-0.409-1.361-1.229-1.763-0.818-0.399-1.864-0.601-3.14-0.601-1.82 0-3.328 0.33-4.527 0.988-1.199 0.66-2.154 1.586-2.867 2.774-0.713 1.19-1.213 2.624-1.502 4.302-0.289 1.677-0.433 3.533-0.433 5.568v47.91c0 1.807 0.106 3.349 0.319 4.622 0.212 1.277 0.637 2.331 1.274 3.162s1.531 1.463 2.685 1.894c1.153 0.43 2.685 0.702 4.597 0.816 0.394 0 0.682 0.148 0.865 0.446 0.181 0.296 0.271 0.627 0.271 0.994s-0.091 0.706-0.271 1.017c-0.184 0.311-0.472 0.467-0.865 0.467-2.002 0-4.279-0.086-6.826-0.259-2.55-0.173-4.932-0.258-7.146-0.258-1.303 0-2.533 0.028-3.686 0.085-1.153 0.059-2.275 0.115-3.368 0.173-1.092 0.057-2.198 0.114-3.322 0.173-1.122 0.057-2.32 0.086-3.594 0.086-0.365 0-0.623-0.128-0.775-0.382-0.151-0.254-0.227-0.552-0.227-0.889 0-0.396 0.099-0.771 0.296-1.124 0.198-0.353 0.462-0.529 0.797-0.529 1.942-0.114 3.497-0.357 4.664-0.73 1.169-0.374 2.056-0.954 2.662-1.741 0.607-0.789 1.008-1.828 1.206-3.119 0.198-1.29 0.295-2.925 0.295-4.903v-43.45z" fill="#C60101"/>
	
	<path d="m621.2 669.28s17.658-15.508 26.938-29.38c9.28 14.972 26.938 29.38 26.938 29.38s-18.392 17.583-26.938 29.625c-8.79-12.16-26.94-29.62-26.94-29.62z" fill="#C60101"/>
	<path d="m476.05 637.4s27.716-24.339 42.282-46.115c14.565 23.5 42.281 46.115 42.281 46.115s-28.865 27.598-42.281 46.498c-13.79-19.1-42.28-46.5-42.28-46.5z" fill="#C60101"/>
	
		<polygon points="355.58 539.85 384.47 488.29 427.44 518.49 431 517.42 431 508.09 433.54 504.6 452.52 506.05 449.49 474 443.74 401.51 442.86 378.1 446.14 366.54 448.17 362.46 462.88 355.22 472.32 350.96 469.61 336.56 470.66 324.29 447.29 265.77 434.06 264.32 406.56 311.47 347.83 261.43 340.18 265.77 339.98 283.97 348.66 374.74 349.28 404.52 346.39 426.03 342.46 435.12 335.42 442.57 320.95 449.19 326.12 468.62 336.87 512.26" fill="#FF841F"/>
		
			
				<path d="m411.39 316.54c0.224-0.043 0.236-0.389 0.355-0.583 17.354-28.437 30.131-52.282 30.31-52.617l-8.681-4.638c-0.176 0.329-12.6 23.516-29.532 51.315-0.171 0.282-0.581 0.521-0.514 0.845 0.8 3.95 3.55 6.54 8.06 5.68z" fill="#FDCB45"/>
				<path d="m409.72 317.91c-3.876 0-6.71-2.548-7.578-6.815-0.171-0.83 0.364-1.401 0.592-1.644 0.032-0.034 0.065-0.065 0.091-0.101 16.897-27.742 29.36-51.001 29.48-51.229l0.572-1.071 10.82 5.781-0.571 1.07c-0.125 0.234-13.03 24.308-30.344 52.678-0.066 0.233-0.32 0.982-1.163 1.143-0.65 0.12-1.29 0.18-1.9 0.18zm-5.12-6.91c0.454 1.835 1.703 4.484 5.113 4.484 0.3 0 0.611-0.021 0.933-0.063 0.018-0.035 0.038-0.07 0.059-0.104 15.216-24.932 27.014-46.528 29.699-51.49l-6.54-3.495c-2.642 4.882-14.098 25.856-28.99 50.307-0.08 0.13-0.18 0.25-0.27 0.35z"/>
			
		
		
			
				<path d="m360.09 553.13-16.21-22.711c42.21-30.127 95.741-29.191 98-29.149l-0.643 27.895c-0.44 0.01-46.66-0.64-81.15 23.97z"/>
			
			
				<path d="m357.27 549.18-10.572-14.812c40.906-29.198 92.871-28.296 95.065-28.249l-0.437 18.192 0.219-9.097-0.208 9.097c-0.45 0.01-48.19-0.73-84.06 24.87z" fill="#FDCB45"/>
			
			
				<path d="m355.51 546.71-7.048-9.873c40.097-28.621 91.074-27.733 93.23-27.688l-0.285 12.129c-0.5-0.02-49.16-0.78-85.89 25.43z" fill="#C60101"/>
			
		
		
			
				<path d="m378.14 485.28c-0.224 0.043-0.237 0.389-0.355 0.582-17.354 28.438-30.13 52.284-30.309 52.618l8.68 4.64c0.175-0.33 12.6-23.517 29.532-51.316 0.17-0.281 0.58-0.521 0.514-0.845-0.8-3.96-3.54-6.54-8.05-5.68z" fill="#FDCB45"/>
				<path d="m356.65 544.76-10.823-5.784 0.573-1.07c0.527-0.984 13.1-24.42 30.343-52.677 0.066-0.233 0.321-0.982 1.164-1.143 4.791-0.919 8.472 1.69 9.478 6.63 0.17 0.829-0.365 1.398-0.594 1.643-0.032 0.032-0.064 0.066-0.091 0.101-17.063 28.02-29.36 51.003-29.479 51.228l-0.57 1.07zm-7.53-6.78 6.54 3.496c2.625-4.856 13.962-25.633 28.99-50.308 0.086-0.143 0.186-0.263 0.274-0.36-0.455-1.835-1.704-4.484-5.114-4.484-0.3 0-0.611 0.021-0.931 0.062-0.018 0.036-0.038 0.07-0.06 0.106-15.36 25.17-27.01 46.5-29.7 51.48z"/>
			
		
		
			
				<path d="m349.04 300.56c-0.748 0-1.222-0.01-1.395-0.014l0.642-27.895c0.461 0.012 46.665 0.648 81.148-23.966l16.21 22.711c-38.97 27.82-87.6 29.16-96.6 29.16z"/>
			
			
				<path d="m349.12 295.71c-0.728 0-1.19-0.01-1.358-0.013l0.425-18.192c0.48 7e-3 48.204 0.732 84.069-24.868l10.571 14.812c-37.76 26.95-84.95 28.26-93.7 28.26z" fill="#FDCB45"/>
			
			
				<path d="m349.17 292.68c-0.717 0-1.169-8e-3 -1.334-0.013l0.286-12.127c0.498 0.014 49.169 0.784 85.896-25.431l7.048 9.874c-37.03 26.42-83.32 27.7-91.91 27.7z" fill="#C60101"/>
			
		
		
			
				<path d="m367.07 465.13c39.426 29.953 81.014 68.227 81.405 68.593l-1.776 11.673c-0.386-0.363-46.586-42.804-85.583-72.429l5.95-7.83z" fill="#FDCB45"/>
				<path d="m447.55 547.87-1.685-1.592c-0.493-0.461-46.319-42.592-85.482-72.344l-0.966-0.734 7.422-9.77 0.965 0.735c39.244 29.813 81.127 68.32 81.502 68.674l0.465 0.437-2.21 14.58zm-84.73-75.14c34.773 26.52 74.441 62.395 83.027 70.229l1.337-8.785c-4.651-4.267-43.151-39.346-79.878-67.348l-4.49 5.9z"/>
			
		
		
			
				<path d="m392.63 434.83c38.455 31.191 78.806 70.766 79.185 71.146l-2.146 11.609c-0.375-0.377-45.204-44.263-83.239-75.111l6.2-7.65z" fill="#FDCB45"/>
				<path d="m470.44 520.09-1.632-1.641c-0.403-0.404-44.936-44.036-83.144-75.027l-0.942-0.764 7.728-9.528 0.942 0.765c38.621 31.325 78.919 70.87 79.28 71.231l0.45 0.451-2.69 14.51zm-82.3-77.79c33.864 27.576 72.415 64.726 80.752 72.834l1.616-8.74c-4.501-4.402-41.701-40.554-77.697-69.854l-4.67 5.76z"/>
			
		
		
			
				<path d="m388.69 442.48c39.427 29.952 74.009 67.307 74.398 67.674l-11.768 26.902c-0.385-0.363-50.113-44.774-89.111-74.401l26.48-20.17z" fill="#C60101"/>
				
					<path d="m451.74 539.12-1.25-1.18c-0.544-0.499-50.163-44.804-89.017-74.32l-1.269-0.964 28.482-21.702 0.734 0.56c34.52 26.222 65.471 58.196 74.134 67.371 0.215 0.228 0.344 0.364 0.385 0.405l0.577 0.585-0.319 0.764-12.44 28.48zm-87.53-76.47c35.21 26.877 78.723 65.31 86.669 72.382l10.775-24.632c-8.758-9.265-39.073-40.534-72.966-66.4l-24.48 18.65z"/>
				
			
		
		
			
				<path d="m422.45 336.69c-39.426-29.953-81.014-68.225-81.405-68.592l1.777-11.673c0.385 0.364 46.586 42.804 85.582 72.429l-5.95 7.83z" fill="#FDCB45"/>
				<path d="m422.69 338.39-0.966-0.734c-39.239-29.81-81.126-68.321-81.502-68.674l-0.465-0.437 2.222-14.596 1.685 1.594c0.413 0.388 46.827 42.978 85.482 72.344l0.966 0.734-7.42 9.78zm-80.35-70.75c4.652 4.265 43.152 39.345 79.877 67.347l4.487-5.905c-34.415-26.249-74.399-62.369-83.026-70.231l-1.34 8.79z"/>
			
		
		
			
				<path d="m396.9 366.98c-38.455-31.191-78.806-70.766-79.185-71.146l2.146-11.611c0.375 0.376 45.204 44.263 83.238 75.112l-6.21 7.65z" fill="#FDCB45"/>
				<path d="m397.08 368.69-0.942-0.764c-38.359-31.113-78.916-70.866-79.279-71.23l-0.45-0.451 2.683-14.512 1.632 1.639c0.405 0.404 45.083 44.157 83.142 75.026l0.942 0.764-7.72 9.52zm-78.06-73.27c4.513 4.411 41.838 40.663 77.697 69.852l4.671-5.76c-33.642-27.395-72.391-64.71-80.752-72.833l-1.62 8.74z"/>
			
		
		
			<path d="m608.02 265.95c-78.73-45.926-158.59-23.519-162.63-21.747 43.753 106.83 80.659 158.5 80.659 158.5s-54.22 62.9-90.482 151.45c4.041 1.771 123.89-30.672 123.89-30.672l48.019-68.625c-0.01-0.01 1.77-164.72 0.54-188.91z" fill="#C60101"/>
			
				<path d="m436.13 556h-2e-3c-0.454 0-0.778-0.338-1.05-0.455l-1.084-0.617 0.448-1.168c33.862-82.688 83.988-143.83 90.077-151.09-4.735-6.873-39.794-59.199-80.254-157.99l-0.447-1.104 1.084-0.48c2.129-0.933 23.352-7.118 54.421-7.118 27.245 0 68.324 5.017 109.31 28.925l0.567 0.33 0.033 0.655c1.218 23.954-0.528 187.33-0.547 188.98l-3e-3 0.375-0.215 0.307-48.272 68.985-0.425 0.398c-4.66 1.25-113.83 31.06-123.65 31.06zm10.86-311.08c42.979 104.66 79.674 156.56 80.039 157.08l0.555 0.775-0.621 0.723c-0.539 0.623-53.816 62.958-89.58 149.41 14.978-1.801 113.96-28.5 121.32-30.488l47.552-67.957c0.094-8.731 1.702-162.35 0.577-187.8-40.327-23.349-80.699-28.266-107.52-28.266-27.23 0.01-47.23 4.94-52.32 6.53z"/>
			
		
		
			
				<path d="m400.84 359.34c-39.427-29.952-74.009-67.306-74.399-67.673l11.768-26.902c0.385 0.364 50.114 44.775 89.112 74.4l-26.48 20.17z" fill="#C60101"/>
				
					<path d="m400.84 360.87-0.734-0.56c-34.519-26.223-65.47-58.196-74.135-67.371-0.214-0.227-0.344-0.364-0.383-0.405l-0.578-0.585 0.319-0.764 12.459-28.483 1.254 1.186c0.405 0.374 49.989 44.671 89.01 74.315l1.271 0.965-28.49 21.69zm-72.96-69.45c8.757 9.264 39.072 40.534 72.965 66.4l24.478-18.651c-35.392-27.013-78.74-65.321-86.669-72.379l-10.77 24.63z"/>
				
			
		
		<path d="m341.04 291.81c0.151-1.291 0.031-2.644-0.313-3.844-0.911 2.454-4.294 3.35-6.875 4.177 5.2 8.318 3.151 20.042-7.944 22.146 4.138 10.161 3.556 20.846-7.357 25.996-2.587 1.221-4.776 2.261-7.738 1.916 6.634 8.981 0.246 19.382-8.456 24.246-2.192 1.227-4.114 1.669-6.632 1.989 2.736 3.571 6.667 6.778 7.354 11.385 0.925 6.199-2.44 11.911 5.884 14.109 9.389 2.48 19.203-3.512 28.547-3.682 4.463-0.081 8.908 2.605 11.288-2.306 2.458-5.071-1.515-12.878-2.086-18.062-0.585-5.303 0.127-10.657-0.384-15.991-1.014-10.555-2.817-21.244-3.353-31.811-0.564-11.138 1.291-23.369-1.63-34.212" fill="#fff"/>
		
			<path d="m423.02 359.23 48.074-49.312-18.894-17.618-100.96 102.3 15.454 23.55c-6.158 6.022-8.373 16.166-0.198 24.434l-48.074 49.313 18.894 17.617 100.96-102.3-15.454-23.551c6.16-6.02 8.38-16.16 0.2-24.43zm-28.56 54.67-10.96-14.134 11.557-11.854 10.959 14.133-11.56 11.85z" fill="#FDCB45"/>
			<path d="m337.36 511.21-20.663-19.268 48.129-49.369c-3.212-3.597-4.883-7.76-4.847-12.106 0.037-4.453 1.913-8.942 5.176-12.459l-15.458-23.557 102.47-103.83 20.664 19.267-48.13 49.369c3.213 3.597 4.885 7.76 4.848 12.106-0.038 4.453-1.912 8.942-5.176 12.459l15.458 23.557-102.47 103.83zm-17.2-19.35 17.125 15.968 99.444-100.76-15.466-23.566 0.716-0.698c3.234-3.165 5.111-7.343 5.145-11.466 0.035-4.04-1.682-7.93-4.962-11.247l-0.837-0.847 48.039-49.276-17.124-15.968-99.445 100.76 15.466 23.566-0.714 0.698c-3.236 3.164-5.112 7.342-5.146 11.465-0.034 4.04 1.682 7.931 4.962 11.248l0.838 0.847-48.05 49.28zm74.2-76.11-12.46-16.068 13.266-13.608 12.461 16.07-13.27 13.61zm-9.25-15.89 9.458 12.198 9.847-10.101-9.458-12.198-9.85 10.1z"/>
		
		
			
				<path d="m370.73 579.28c7.453-5.688 2.279-15.561-5.751-16.385-2.35-3.196 4.111-18.017-6.947-19.211 7.775-7.951 7.345-20.576-3.808-21.698 9.589-10.608-1.824-24.73-13.904-20.284 8.675-11.66 1.541-25.126-14.21-22.517 5.683-9.979 2.058-17.458-9.125-16.637 4.444-5.04 3.177-25.708-17.735-26.104 10.26-13.726-11.668-20.322-14.438-18.521 26.604-16.354-1.69-23.404-1.69-23.404 23.064 2.25 24.119-15.756 12.805-25.872 11.212-0.386 24.241-17.162 14.863-26.795 21.416-2.349 21.203-18.886 15.174-27.713 10.476-0.829 15.643-16.183 8.108-21.514 11.378-3.783 14.192-16.46 7.738-23.672 5.388-2.067 6.838-4.084 4.921-9.201 0 0-4.732-3.031-4.968-6.391-0.13-1.648-0.293-0.378-0.293-0.378l-2.487-3.198s-53.406 118.76-86.77 152.5c21.527 27.68 94.107 139.4 94.107 139.4l20.031 50.942 5.462 1.44c4.7-3.37 6.47-14.12-1.07-14.8z" fill="#fff"/>
				<path d="m372.06 595.39-6.609-1.741-20.211-51.401c-2.568-3.949-73.015-112.25-93.981-139.21l-0.653-0.841 0.749-0.758c32.83-33.199 85.993-150.96 86.526-152.15l0.827-1.838 2.998 3.856c1.122 0.066 1.218 1.293 1.271 1.961 0.158 2.256 3.24 4.709 4.414 5.465l0.338 0.217 0.142 0.378c2.122 5.664 0.198 8.188-4.108 10.132 2.512 3.57 3.312 8.165 2.131 12.604-1.302 4.897-4.734 8.813-9.548 10.978 2.409 2.721 3.166 6.831 1.959 11.217-1.274 4.634-4.911 9.49-10.354 10.792 2.499 4.507 4.075 11.177 1.267 17.281-1.802 3.917-6.062 8.772-16.112 10.428 2.493 3.632 2.814 8.168 0.87 13.006-2.708 6.737-9.15 12.337-15.436 13.754 4.955 5.405 6.885 12.283 4.805 17.73-1.123 2.941-4.343 7.694-13.477 8.543 3.362 1.711 6.893 4.369 7.476 8.132 0.621 4.008-2.228 8.294-8.477 12.772 4.466 0.865 10.867 3.75 13.317 8.642 1.109 2.214 1.771 5.652-0.75 10.007 10.863 0.962 15.354 7.468 17.094 11.423 2.331 5.298 2.14 11.003 0.629 14.512 4.531 0.121 7.938 1.773 9.63 4.682 1.772 3.049 1.566 7.163-0.55 11.746 7.204-0.544 12.968 2.29 15.612 7.551 2.182 4.343 1.834 9.605-0.855 14.525 6.132-0.862 12.388 2.652 14.891 8.288 1.938 4.363 1.402 9.03-1.433 13.069 3.596 0.902 6.179 3.136 7.376 6.434 1.688 4.652 0.28 10.599-3.499 15.339 6.354 1.991 5.822 9.206 5.458 14.134-0.132 1.782-0.278 3.767-7e-3 4.729 4.417 0.723 8.229 4.006 9.406 8.183 0.892 3.163 0.165 6.23-1.996 8.687 1.773 0.766 3.012 2.23 3.568 4.275 1.125 4.124-0.814 9.68-4.234 12.134l-0.48 0.34zm-4.8-3.77 4.283 1.129c2.325-2.026 3.682-6.23 2.877-9.184-0.507-1.857-1.784-2.892-3.797-3.072l-3.106-0.28 2.48-1.893c3.599-2.747 3.334-6 2.856-7.696-0.974-3.454-4.261-6.134-7.995-6.517l-0.535-0.055-0.318-0.434c-1.03-1.399-0.856-3.757-0.636-6.743 0.487-6.616 0.381-11.35-5.465-11.98l-2.483-0.269 1.747-1.786c4.13-4.225 5.932-10.158 4.381-14.432-1.1-3.029-3.673-4.832-7.442-5.211l-2.388-0.24 1.609-1.78c3.291-3.641 4.144-8.058 2.341-12.115-1.855-4.177-6.164-6.983-10.722-6.983-1.408 0-2.822 0.259-4.204 0.767l-3.825 1.408 2.433-3.271c3.619-4.866 4.49-10.334 2.333-14.629-2.433-4.843-8.278-7.141-15.372-5.969l-2.513 0.418 1.26-2.214c2.598-4.563 3.193-8.717 1.632-11.402-1.49-2.563-4.832-3.774-9.614-3.424l-2.965 0.218 1.966-2.229c2.017-2.289 2.607-8.601 0.231-14.001-1.978-4.493-6.546-9.889-17.08-10.089l-2.364-0.045 1.416-1.896c2.539-3.396 3.123-6.521 1.735-9.291-2.457-4.905-10.334-7.581-13.694-7.581-0.645 0-0.855 0.103-0.857 0.104l-1.31-2.041c9e-3 -7e-3 0.018-0.011 0.027-0.018h-1e-3c5e-3 -3e-3 9e-3 -6e-3 0.014-8e-3 7.609-4.692 11.304-9.029 10.753-12.585-0.739-4.763-8.996-7.824-12.115-8.601l0.411-2.385c9.344 0.912 15.81-1.618 17.836-6.927 1.929-5.05-0.521-11.972-5.957-16.833l-2.251-2.013 3.018-0.103c6.029-0.208 13.133-5.849 15.836-12.574 1.096-2.726 2.319-7.931-1.8-12.163l-1.734-1.781 2.471-0.271c8.31-0.912 13.964-4.137 16.352-9.329 2.563-5.57 0.818-12.298-2.048-16.494l-1.18-1.729 2.086-0.165c5.318-0.421 8.902-4.981 10.093-9.315 0.909-3.305 0.706-7.667-2.591-9.999l-1.958-1.385 2.276-0.756c5.011-1.667 8.604-5.324 9.856-10.035 1.12-4.214 0.134-8.579-2.639-11.678l-1.173-1.312 1.643-0.63c4.891-1.876 5.775-3.278 4.352-7.28-1.188-0.824-4.655-3.476-5.131-6.703l-1.338-1.723c-6.872 15.051-54.551 118.15-85.439 150.27 22.084 28.75 92.802 137.54 93.52 138.64l0.112 0.217 19.77 50.31z"/>
			
			
				<path d="m322.55 450.42-0.9-2.253c31.279-12.501 29.638-31.078 20.535-134.17-0.7-7.931-1.444-16.358-2.221-25.318l2.417-0.209c0.777 8.958 1.521 17.385 2.221 25.314 9.24 104.62 10.91 123.47-22.05 136.64z"/>
			
			
				<path d="m319.89 440.45-1.1-2.163c0.749-0.38 1.48-0.745 2.195-1.101 17.553-8.748 24.121-12.021 10.908-124.89l2.41-0.282c13.412 114.56 6.428 118.04-12.236 127.34-0.7 0.35-1.42 0.71-2.17 1.09z"/>
			
			
				<path d="m317.4 429.92-0.795-2.294c14.55-5.042 16.469-26.447 8.214-91.612l2.408-0.304c8.45 66.65 6.16 88.66-9.82 94.2z"/>
			
			
				<path d="m314.82 419.25-0.888-2.258c8.934-3.517 5.645-47.044 1.255-75.443l2.397-0.371c1.16 7.42 10.84 72.72-2.76 78.07z"/>
			
			
					<rect transform="matrix(.2373 .9714 -.9714 .2373 642.82 13.004)" x="263.8" y="414.68" width="98.668" height="2.425"/>
			
			
					<rect transform="matrix(.2426 .9701 -.9701 .2426 633.12 20.396)" x="279.82" y="414.44" width="47.373" height="2.426"/>
			
			
				<rect transform="matrix(.2308 .973 -.973 .2308 630.37 33.96)" x="290.03" y="414.44" width="7.362" height="2.426"/>
			
			
				<path d="m310.99 402.13-2.319-0.713c2.577-8.373-0.316-29.545-1.678-38.26l2.396-0.375c1.72 11.03 4.23 30.81 1.6 39.35z"/>
			
		
		<path d="m423.92 229.89c-0.827-14.723-9.305-29.935-16.295-42.495-6.86-12.327-14.844-26.453-25.808-35.692-7.958-6.708-12.264-0.386-21.113-1.395-5.836-0.665-12.027-2.571-13.775 3.825l0.014-2.178c-0.039 0.796-0.067 1.641-0.091 2.51-0.06 0.25-0.128 0.486-0.175 0.762-0.417 2.429-0.217 5.119-0.075 7.75-0.262 5.1-0.895 10.27-2.78 14.138-3.344 6.858-23.786 20.876-17.512 26.572 5.051 4.584 7.066 2.559 10.913 1.608l0.071 0.081c0.335 1.243 1.102 2.088 2.033 3.179 1.75 4.751-2.712 8.352-3.653 10.816-0.68 1.781 0.925 3.041 3.71 3.989l-1.974-0.362c-5.111 7.461 1.369 6.516 4.205 12.024 2.539 4.93-7.321 17.19-2.313 19.159 31.342 12.322 63.727-3.638 76.564-12.326 0.446-0.06 0.919-0.152 1.431-0.358 5.6-2.26 7-5.23 6.64-11.61zm-86.7-24.6c0.016-4e-3 0.034-6e-3 0.05-0.011 6e-3 0.029 0.01 0.06 0.018 0.088-0.02-0.03-0.05-0.05-0.07-0.08z" fill="#fff"/>
		
			<path d="m415.26 594.07 5.465-1.44 20.03-50.942s72.579-111.72 94.107-139.4c-33.363-33.74-86.771-152.5-86.771-152.5l-3.02 8.375-4.728 1.592c-1.917 5.117-0.467 7.134 4.92 9.201-6.454 7.212-3.638 19.89 7.738 23.672-7.533 5.331-2.368 20.685 8.108 21.514-6.029 8.827-6.242 25.364 15.175 27.713-9.378 9.633 3.651 26.409 14.863 26.795-11.313 10.115-10.262 28.122 12.805 25.872 0 0-28.294 7.051-1.691 23.404-2.769-1.802-24.697 4.795-14.435 18.521-20.914 0.396-22.182 21.064-17.735 26.104-11.184-0.821-13.626 10.35-7.942 20.328-15.752-2.609-19.997 12.601-11.323 24.262-12.079-4.446-21.721 6.375-12.132 16.983-11.152 1.122-14.648 7.82-6.874 15.771-11.058 1.194-18.505 17.426-9.724 23.002-8.029 0.824-13.204 10.697-5.751 16.385-7.55 0.7-5.77 11.45-1.09 14.81z" fill="#fff"/>
			<path d="m415.02 595.39-0.464-0.332c-3.42-2.455-5.358-8.011-4.234-12.134 0.559-2.045 1.795-3.51 3.569-4.275-2.161-2.456-2.89-5.523-1.997-8.686 1.011-3.584 3.961-6.51 7.567-7.725-2.206-2.472-2.972-6.036-2.052-9.978 1.252-5.376 5.805-11.401 12.091-13.15-2.754-3.404-3.696-6.773-2.658-9.636 1.148-3.163 4.509-5.347 9.561-6.257-2.879-3.972-3.604-8.221-1.971-11.899 1.757-3.958 5.938-6.417 10.91-6.417 0.906 0 1.824 0.082 2.746 0.242-3.243-5.761-3.833-12.172-1.409-16.996 2.365-4.706 7.143-7.134 13.358-6.735-2.56-5.568-2.768-11.24-0.464-15.202 1.691-2.911 4.641-4.622 8.371-4.881-1.529-3.505-1.732-9.237 0.607-14.557 1.742-3.956 6.231-10.463 17.097-11.425-2.523-4.354-1.861-7.794-0.751-10.008 2.449-4.891 8.852-7.775 13.317-8.641-6.253-4.482-9.098-8.768-8.477-12.772 0.582-3.763 4.113-6.421 7.475-8.132-9.131-0.849-12.351-5.602-13.475-8.543-2.08-5.447-0.15-12.327 4.804-17.73-6.285-1.417-12.729-7.017-15.435-13.754-1.946-4.837-1.624-9.374 0.869-13.006-10.051-1.656-14.311-6.511-16.113-10.428-2.808-6.104-1.231-12.774 1.268-17.281-5.443-1.302-9.079-6.158-10.354-10.791-1.207-4.386-0.45-8.497 1.959-11.218-4.813-2.166-8.247-6.081-9.549-10.979-1.18-4.439-0.38-9.033 2.132-12.604-4.305-1.944-6.229-4.468-4.108-10.132l0.203-0.541 4.717-1.589 3.84-10.646 1.23 2.736c0.532 1.186 53.699 118.95 86.526 152.15l0.749 0.758-0.654 0.841c-20.968 26.959-91.413 135.26-93.98 139.21l-20.211 51.401-6.64 1.74zm30.32-88.06c-3.999 0-7.33 1.906-8.694 4.975-1.465 3.299-0.39 7.313 2.952 11.007l1.608 1.781-2.389 0.239c-5.205 0.524-8.739 2.337-9.696 4.973-0.87 2.396 0.398 5.499 3.569 8.743l1.746 1.787-2.482 0.268c-6.3 0.68-10.979 6.542-12.184 11.711-0.926 3.968 0.159 7.271 2.979 9.062l2.952 1.874-3.479 0.356c-3.732 0.383-7.021 3.063-7.995 6.519-0.478 1.694-0.742 4.948 2.858 7.694l2.479 1.893-3.106 0.28c-2.013 0.181-3.29 1.215-3.797 3.072-0.807 2.952 0.552 7.157 2.876 9.184l4.284-1.129 19.916-50.588c0.72-1.107 71.436-109.9 93.521-138.64-30.35-31.53-76.89-131.56-85.05-149.37l-2.207 6.123-4.728 1.593c-1.335 3.869-0.405 5.257 4.413 7.105l1.643 0.63-1.175 1.312c-2.772 3.098-3.758 7.463-2.639 11.676 1.253 4.712 4.845 8.37 9.856 10.036l2.275 0.756-1.958 1.385c-3.296 2.333-3.498 6.695-2.59 10 1.192 4.333 4.775 8.893 10.094 9.314l2.086 0.165-1.18 1.729c-2.867 4.196-4.61 10.923-2.048 16.494 2.389 5.192 8.043 8.417 16.354 9.329l2.47 0.271-1.733 1.781c-4.119 4.231-2.896 9.437-1.801 12.163 2.704 6.725 9.808 12.366 15.837 12.574l3.019 0.103-2.253 2.013c-5.435 4.859-7.884 11.782-5.955 16.833 2.028 5.31 8.486 7.838 17.834 6.927l0.411 2.384c-3.12 0.782-11.382 3.851-12.115 8.604-0.55 3.562 3.158 7.905 10.726 12.565l-1.229 2.092c-0.015-8e-3 -0.227-0.111-0.871-0.111-3.358 0-11.236 2.675-13.694 7.581-1.387 2.769-0.803 5.895 1.736 9.291l1.417 1.896-2.365 0.045c-10.535 0.2-15.104 5.597-17.08 10.091-2.377 5.399-1.785 11.71 0.231 13.999l1.967 2.229-2.966-0.218c-3.901-0.282-6.782 0.995-8.336 3.67-2.123 3.651-1.52 9.48 1.538 14.848l1.261 2.214-2.513-0.418c-6.167-1.016-10.954 0.877-13.109 5.165-2.405 4.787-1.245 11.529 2.957 17.178l2.432 3.271-3.825-1.408c-1.73-0.61-3.43-0.93-5.08-0.93z"/>
		
		<path d="m425.26 245.04c4.721 6.627 7.442 18.009 14.552 22.681 5.295 3.482 16.995 4.744 22.703 1.773 3.604-1.877 5.585-5.392 7.422-8.888 5.586 10.655 27.271 5.55 33.422-2.262 2.481-3.152 2.932-7.008 2.891-10.904 14.686-0.494 29.811-5.496 28.938-22.994-0.611-12.233-11.65-28.668-25.626-26.893-6.174 0.784-10.552 5.732-14.107 10.408-1.534-2.58-2.617-5.428-3.696-8.261l-21.806-47.75-98.106 0.307 53.44 92.77z" fill="#FDCB45"/>
		
			<path d="m451.46 272.51c-11.101 1e-3 -18.139-9.84-22.658-17.78-0.564-0.991-57.232-100.56-57.997-101.85-0.341-0.576-0.151-1.32 0.425-1.661 0.578-0.344 1.321-0.151 1.662 0.426 0.771 1.302 57.455 100.9 58.018 101.89 5.263 9.246 12.933 19.397 25.645 15.811 10.339-2.918 13.284-9.972 13.931-15.376 1.181-9.834-4.515-21.591-12.697-26.209-3.643-2.056-9.264-3.503-15.381 1.268-5.097 3.976-5.771 10.583-4.175 15.368 1.823 5.474 6.218 8.804 11.757 8.911 4.034 0.091 6.532-1.331 6.911-3.966 0.385-2.666-1.484-6.001-3.704-6.609-2.304-0.628-3.853 2.202-4.571 3.947-0.256 0.621-0.969 0.916-1.585 0.658-0.618-0.255-0.913-0.964-0.659-1.583 2.478-6.002 6.042-5.753 7.456-5.362 3.427 0.938 6.031 5.369 5.464 9.295-0.268 1.867-1.66 6.183-9.359 6.046-6.512-0.125-11.88-4.176-14.012-10.57-2.239-6.722-0.236-13.975 4.983-18.049 5.596-4.363 12.013-4.885 18.066-1.467 8.96 5.057 15.202 17.891 13.915 28.611-1.04 8.675-6.609 14.863-15.682 17.422-2.03 0.56-3.95 0.82-5.76 0.82z"/>
		
		
			<path d="m484.46 268.4c-4.455 0-8.947-1.272-12.889-3.928-0.854-0.576-1.662-1.188-2.555-1.872-0.532-0.407-0.633-1.168-0.226-1.7 0.408-0.532 1.168-0.632 1.702-0.226 0.859 0.659 1.637 1.249 2.434 1.787 9.395 6.328 22.281 3.879 28.728-5.465 3.479-5.046 4.607-12.748 2.945-20.102-1.498-6.636-5.049-11.991-9.741-14.693-4.476-2.577-9.625-2.701-14.127-0.338-4.568 2.398-7.546 6.923-7.968 12.105-0.389 4.749 2.309 11.725 6.366 13.603 2.296 1.063 4.749 0.314 7.288-2.222 2.259-2.259 1.485-4.626 1.047-5.539-0.755-1.574-2.214-2.618-3.456-2.479-1.271 0.14-2.272 1.516-2.822 3.875-0.151 0.653-0.805 1.057-1.456 0.907-0.653-0.152-1.06-0.804-0.906-1.457 1.079-4.64 3.546-5.586 4.919-5.737 2.287-0.248 4.704 1.331 5.909 3.842 1.378 2.872 0.81 5.976-1.519 8.304-4.153 4.15-7.745 3.763-10.022 2.709-5.151-2.384-8.229-10.347-7.767-16.001 0.49-6.016 3.95-11.271 9.259-14.057 5.253-2.757 11.256-2.618 16.467 0.383 5.276 3.04 9.249 8.967 10.896 16.262 1.808 7.992 0.538 16.428-3.314 22.014-4.5 6.52-11.8 10.03-19.2 10.03z"/>
		
		
			<path d="m511.22 229.52c-0.363 0-0.725-0.028-1.089-0.083-2.508-0.382-4.954-2.087-6.889-4.801-3.07-4.305-32.233-66.639-34.412-72.243-0.243-0.625 0.066-1.328 0.69-1.57s1.327 0.065 1.569 0.691c2.056 5.286 31.27 67.705 34.128 71.713 1.552 2.176 3.425 3.529 5.279 3.812 1.414 0.213 2.815-0.194 4.164-1.217 3.894-2.956 2.579-9.278 0.746-12.852-0.999-1.951-3.47-3.969-5.738-3.969h-0.054c-1.354 0-2.429 0.778-3.193 2.382-0.881 1.85 0.463 6.053 2.283 7.16 0.32 0.196 1.069 0.636 2.217-0.877 0.404-0.533 1.165-0.649 1.701-0.242 0.532 0.405 0.638 1.162 0.232 1.696-1.545 2.041-3.565 2.589-5.412 1.466-2.884-1.755-4.625-7.344-3.211-10.31 1.161-2.437 3.061-3.796 5.349-3.83 3.353-0.09 6.637 2.721 7.984 5.352 2.644 5.152 3.321 12.344-1.438 15.956-1.54 1.16-3.22 1.76-4.91 1.76z"/>
		
		
			<path d="m514.56 249.08c-1.862 0-3.734-0.122-5.586-0.242-0.731-0.048-1.46-0.095-2.179-0.133-0.67-0.036-1.183-0.608-1.147-1.277 0.037-0.669 0.605-1.193 1.277-1.146 0.729 0.039 1.466 0.087 2.207 0.135 4.937 0.321 10.049 0.653 14.371-1.521 5.297-2.664 8.883-8.482 9.84-15.963 1.147-8.953-1.742-18.184-7.19-22.968-5.446-4.784-11.972-6.993-17.452-5.905-4.301 0.851-7.75 3.685-9.979 8.196-0.296 0.6-1.021 0.849-1.625 0.55-0.601-0.296-0.847-1.024-0.55-1.625 2.575-5.212 6.614-8.499 11.682-9.502 6.211-1.232 13.515 1.184 19.525 6.462 6.027 5.294 9.241 15.381 7.997 25.1-1.063 8.294-5.13 14.791-11.159 17.823-3.19 1.61-6.6 2.02-10.04 2.02z"/>
		
		
			<path d="m428.44 229.13c-0.441 0-0.866-0.24-1.081-0.658l-39.365-76.579c-0.306-0.596-0.071-1.327 0.525-1.633 0.598-0.308 1.327-0.072 1.633 0.524l39.366 76.578c0.305 0.596 0.07 1.327-0.525 1.633-0.18 0.09-0.37 0.14-0.56 0.14z"/>
		
		
			<path d="m441.87 228.41c-0.434 0-0.854-0.233-1.07-0.642l-40.492-75.86c-0.317-0.591-0.093-1.326 0.499-1.641 0.589-0.315 1.326-0.093 1.641 0.499l40.492 75.86c0.315 0.591 0.091 1.326-0.499 1.641-0.18 0.09-0.38 0.14-0.57 0.14z"/>
		
		
			<path d="m470.78 241.33c-0.426 0-0.837-0.223-1.059-0.62l-49.72-88.78c-0.328-0.584-0.12-1.324 0.465-1.651 0.586-0.327 1.325-0.118 1.651 0.465l49.719 88.777c0.328 0.585 0.12 1.324-0.465 1.652-0.18 0.11-0.38 0.16-0.58 0.16z"/>
		
		
			<path d="m476.72 223.9c-0.439 0-0.861-0.237-1.077-0.652l-37.212-71.349c-0.311-0.595-0.08-1.327 0.514-1.637 0.597-0.312 1.327-0.079 1.637 0.515l37.212 71.35c0.311 0.595 0.081 1.327-0.514 1.637-0.18 0.09-0.37 0.13-0.56 0.13z"/>
		
		
			<path d="m492.1 220.62c-0.438 0-0.86-0.238-1.078-0.654l-35.368-68.07c-0.308-0.594-0.077-1.327 0.519-1.635 0.593-0.31 1.324-0.078 1.636 0.517l35.368 68.07c0.308 0.594 0.077 1.326-0.519 1.635-0.18 0.1-0.37 0.14-0.56 0.14z"/>
		
		
			<polygon points="346.32 140 465.65 140 492.71 99 315.57 99" fill="#C60101"/>
			
				<path d="m466.32 142h-120.61l-32.512-45h181.73l-28.61 45zm-119.38-3h118.04l25.518-39h-172.55l28.99 39z"/>
			
		
		
			<path d="m332.04 207.78c-1.792 0-3.833-0.732-6.547-3.197-1.02-0.924-1.552-2.072-1.585-3.413-0.111-4.465 5.593-10.186 11.108-15.716 3.409-3.418 6.628-6.647 7.713-8.872 2.54-5.208 2.712-13.272 2.852-19.751 0.038-1.75 0.074-3.418 0.149-4.938 0.033-0.669 0.624-1.186 1.271-1.151 0.669 0.034 1.185 0.603 1.151 1.272-0.075 1.499-0.11 3.144-0.146 4.869-0.152 7.066-0.324 15.075-3.097 20.762-1.262 2.588-4.62 5.957-8.176 9.522-4.671 4.685-10.485 10.516-10.4 13.943 0.017 0.67 0.268 1.203 0.791 1.677 3.616 3.283 5.185 2.771 7.785 1.925 1.715-0.558 3.852-1.25 6.89-0.954 1.218 0.12 2.374 0.509 3.393 0.852 2.575 0.867 3.77 1.16 5.109-0.97 0.836-1.33 0.904-2.688 0.18-3.629-0.718-0.935-2.021-1.222-3.487-0.769-0.64 0.199-1.32-0.159-1.518-0.799s0.159-1.319 0.799-1.518c2.438-0.756 4.788-0.14 6.13 1.607 1.348 1.754 1.329 4.206-0.05 6.399-2.413 3.836-5.475 2.807-7.937 1.978-0.941-0.316-1.914-0.644-2.857-0.737-2.534-0.25-4.245 0.307-5.9 0.847-1.14 0.39-2.3 0.77-3.58 0.77z"/>
		
		
			<path d="m355.76 227.39c-0.05 0-0.101-3e-3 -0.151-0.01l-1.603-0.197c-10.427-1.278-17.4-2.346-19.247-5.415-0.521-0.865-0.597-1.844-0.22-2.83 0.318-0.833 0.92-1.696 1.559-2.611 2.078-2.98 4.227-6.061 0.128-10.327-0.464-0.483-0.449-1.251 0.034-1.715 0.483-0.463 1.25-0.45 1.715 0.035 5.478 5.7 2.119 10.518 0.112 13.395-0.55 0.789-1.07 1.535-1.282 2.089-0.127 0.334-0.079 0.526 0.033 0.712 1.376 2.285 11.057 3.473 17.463 4.258l1.608 0.199c0.665 0.082 1.136 0.688 1.054 1.354-0.08 0.61-0.6 1.06-1.2 1.06z"/>
		
		
			<path d="m369.3 183.43c-3.862-3.755-10.438-4.921-15.235-4.032-0.047 9e-3 -0.095 0.027-0.142 0.027-1.097 0.012-1.95-2.055-1.95-2.055 14.65-2.57 17.33 6.05 17.33 6.05z"/>
		
		
			<path d="m373.51 178.58c-5.343-5.194-14.437-6.805-21.071-5.575-0.066 0.013-0.13 0.037-0.195 0.038-1.519 0.016-2.697-2.842-2.697-2.842 20.27-3.54 23.97 8.38 23.97 8.38z"/>
		
		<ellipse cx="357.72" cy="181.28" rx="2.48" ry="4.007"/>
		
			<path d="m474 148.16c0 3.227-2.615 5.843-5.842 5.843h-120.32c-3.227 0-5.842-2.616-5.842-5.843v-0.313c0-3.227 2.615-5.843 5.842-5.843h120.32c3.227 0 5.842 2.616 5.842 5.843v0.31z" fill="#fff"/>
			<path d="m474 147.94c0 3.897-3.158 7.057-7.055 7.057h-119.88c-3.896 0-7.055-3.159-7.055-7.057v-0.887c0-3.897 3.159-7.057 7.055-7.057h119.89c3.896 0 7.055 3.159 7.055 7.057v0.89zm-1 0.56c0-2.485-2.015-4.5-4.5-4.5h-121c-2.485 0-4.5 2.015-4.5 4.5s2.015 4.5 4.5 4.5h121c2.48 0 4.5-2.02 4.5-4.5z"/>
		
		
			<path d="m257.74 398.2s45.953-63.978 82.216-152.52c-4.041-1.771-119.13 20.374-155.07 72.114-0.4 16.956-1.348 190.07-0.119 214.26 78.73 45.927 159.43 26.421 163.47 24.647-43.75-106.83-90.5-158.5-90.5-158.5z" fill="#C60101"/>
			
				<path d="m299.62 563h-6e-3c-28.873 0-72.341-5.012-115.45-30.164l-0.567-0.197-0.034-0.588c-1.254-24.67-0.227-199.72 0.117-214.32l9e-3 -0.348 0.208-0.291c18.462-26.579 57.138-44.707 86.332-55.239 33.577-12.112 63.237-17.488 68.843-17.488 0.646 0 1.058 0.061 1.378 0.201l1.084 0.476-0.449 1.096c-33.759 82.431-76.439 144.35-81.797 151.98 5.792 6.696 49.509 59.057 90.081 158.12l0.449 1.096-1.084 0.207c-1.63 0.71-20.21 5.45-49.11 5.45zm-113.67-31.66c42.458 24.593 85.216 29.769 113.66 29.77 24.922 0 42.375-3.835 47.011-5.151-43.033-104.6-89.318-156.43-89.782-156.94l-0.657-0.726 0.571-0.795c0.456-0.635 45.73-64.107 81.419-150.67-15.587 0.955-118.74 23.881-152.08 71.361-0.35 16.76-1.34 186.44-0.14 213.15z"/>
			
		
		
			<circle cx="395.67" cy="462.3" r="4.073"/>
			<circle cx="401.74" cy="480.49" r="4.073"/>
			<circle cx="418.72" cy="481.71" r="4.073"/>
			<circle cx="422.36" cy="499.9" r="4.073"/>
			<circle cx="439.34" cy="501.12" r="4.073"/>
		
		
			<rect x="215" y="264" width="19" height="160" fill="#FDCB45"/>
			<path d="m235 425h-21v-162h21v162zm-19-2h17v-158h-17v158z"/>
		
		<path d="m365.61 571.93c0.827 14.723 9.303 29.936 16.294 42.495 6.86 12.327 14.844 26.453 25.808 35.693 7.958 6.707 12.264 0.386 21.113 1.394 5.835 0.666 12.027 2.572 13.774-3.824l-0.014 2.178c0.038-0.796 0.067-1.641 0.09-2.509 0.061-0.251 0.129-0.487 0.176-0.764 0.417-2.428 0.217-5.117 0.074-7.75 0.263-5.099 0.896-10.27 2.781-14.138 3.343-6.857 23.785-20.875 17.511-26.571-5.05-4.584-7.065-2.559-10.912-1.608l-0.071-0.081c-0.335-1.242-1.102-2.087-2.032-3.178-1.751-4.752 2.712-8.353 3.652-10.816 0.682-1.781-0.924-3.041-3.709-3.989l1.973 0.363c5.111-7.462-1.368-6.517-4.204-12.025-2.539-4.93 7.321-17.189 2.313-19.159-31.343-12.32-63.727 3.639-76.564 12.326-0.446 0.061-0.918 0.152-1.43 0.358-5.59 2.27-6.98 5.23-6.62 11.62zm86.7 24.59c-0.016 5e-3 -0.034 7e-3 -0.05 0.012-7e-3 -0.028-0.01-0.06-0.018-0.088 0.02 0.03 0.04 0.06 0.07 0.08z" fill="#fff"/>
		<path d="m364.26 556.78c-4.721-6.628-7.442-18.01-14.551-22.683-5.296-3.48-16.996-4.743-22.704-1.771-3.604 1.876-5.584 5.39-7.421 8.888-5.586-10.656-27.271-5.551-33.422 2.262-2.481 3.151-2.931 7.006-2.891 10.903-14.685 0.494-29.81 5.495-28.937 22.994 0.611 12.233 11.65 28.668 25.626 26.892 6.173-0.782 10.552-5.731 14.107-10.406 1.534 2.581 2.617 5.429 3.696 8.261l21.806 47.75 98.106-0.308-53.44-92.77z" fill="#FDCB45"/>
		
			<path d="m417.68 650.77c-0.414 0-0.818-0.212-1.045-0.596-0.783-1.325-57.455-100.9-58.018-101.89-5.263-9.245-12.938-19.401-25.645-15.811-10.34 2.917-13.283 9.972-13.932 15.377-1.18 9.832 4.516 21.589 12.698 26.207 3.64 2.056 9.265 3.504 15.381-1.267 5.097-3.979 5.77-10.585 4.175-15.37-1.824-5.472-6.218-8.803-11.756-8.91-4.083-0.101-6.532 1.329-6.912 3.967-0.384 2.665 1.484 6.001 3.704 6.608 2.299 0.631 3.853-2.202 4.572-3.947 0.256-0.62 0.966-0.912 1.584-0.659 0.62 0.256 0.915 0.966 0.659 1.585-2.478 6.003-6.041 5.749-7.456 5.36-3.426-0.938-6.031-5.367-5.464-9.295 0.269-1.866 1.722-6.166 9.359-6.045 6.513 0.126 11.881 4.176 14.012 10.569 2.24 6.723 0.237 13.976-4.984 18.048-5.595 4.366-12.011 4.887-18.067 1.469-8.958-5.056-15.2-17.891-13.914-28.61 1.042-8.675 6.61-14.862 15.683-17.423 14.49-4.088 23.155 7.715 28.411 16.946 0.563 0.992 57.245 100.58 57.997 101.86 0.341 0.575 0.15 1.319-0.427 1.66-0.19 0.11-0.4 0.16-0.61 0.16z"/>
		
		
			<path d="m302.06 584.07c-2.937 1e-3 -5.876-0.788-8.6-2.357-5.277-3.039-9.249-8.966-10.897-16.259-1.807-7.994-0.537-16.429 3.314-22.016 7.196-10.433 21.588-13.17 32.081-6.098 0.86 0.579 1.667 1.19 2.555 1.871 0.532 0.407 0.632 1.17 0.225 1.702-0.407 0.531-1.169 0.63-1.701 0.225-0.857-0.657-1.632-1.245-2.435-1.786-9.396-6.331-22.284-3.881-28.728 5.463-3.479 5.047-4.607 12.75-2.946 20.102 1.5 6.636 5.051 11.992 9.741 14.694 4.477 2.579 9.626 2.701 14.128 0.338 4.566-2.398 7.545-6.924 7.968-12.105 0.387-4.749-2.31-11.725-6.367-13.603-2.299-1.064-4.75-0.314-7.288 2.223-2.259 2.26-1.485 4.625-1.047 5.538 0.755 1.575 2.208 2.605 3.457 2.479 1.271-0.14 2.273-1.516 2.821-3.874 0.151-0.654 0.804-1.068 1.457-0.906 0.653 0.151 1.059 0.803 0.907 1.456-1.079 4.638-3.546 5.585-4.92 5.735-2.285 0.253-4.704-1.329-5.909-3.841-1.377-2.871-0.809-5.976 1.519-8.304 4.152-4.15 7.742-3.763 10.023-2.709 5.151 2.383 8.227 10.348 7.766 16.002-0.49 6.016-3.951 11.27-9.259 14.056-2.48 1.32-5.16 1.98-7.84 1.98z"/>
		
		
			<path d="m319.57 651.08c-0.485 0-0.944-0.294-1.131-0.773-2.056-5.286-31.27-67.705-34.127-71.714-1.551-2.175-3.425-3.528-5.279-3.811-1.416-0.215-2.816 0.194-4.164 1.218-3.893 2.955-2.579 9.369-0.747 12.942 1 1.95 3.47 4.061 5.739 4.061h0.053c1.354 0 2.429-0.869 3.193-2.475 0.882-1.85-0.462-6.099-2.282-7.204-0.321-0.195-1.07-0.661-2.218 0.854-0.405 0.531-1.165 0.636-1.699 0.23-0.534-0.405-0.639-1.167-0.234-1.701 1.545-2.039 3.568-2.594 5.412-1.471 2.884 1.755 4.625 7.656 3.212 10.623-1.162 2.436-3.062 4.143-5.349 4.143h-0.088c-3.348 0-6.56-3.059-7.898-5.667-2.643-5.151-3.319-12.501 1.439-16.114 1.864-1.414 3.937-2.066 5.996-1.76 2.508 0.382 4.955 2.047 6.89 4.763 3.068 4.302 32.233 66.617 34.413 72.223 0.243 0.623-0.067 1.315-0.691 1.56-0.13 0.05-0.28 0.07-0.43 0.07z"/>
		
		
			<path d="m278.01 604.45c-5.398 0-11.258-2.408-16.234-6.78-6.027-5.293-9.241-15.379-7.997-25.098 1.062-8.294 5.129-14.791 11.158-17.823 4.911-2.472 10.357-2.117 15.622-1.773 0.731 0.047 1.458 0.095 2.176 0.132 0.669 0.037 1.183 0.607 1.146 1.277s-0.617 1.188-1.277 1.147c-0.728-0.041-1.462-0.088-2.203-0.137-4.941-0.32-10.052-0.654-14.375 1.521-5.296 2.664-8.883 8.481-9.841 15.963-1.147 8.954 1.743 18.184 7.19 22.969 5.448 4.784 11.974 6.992 17.454 5.905 4.298-0.852 7.749-3.686 9.977-8.197 0.296-0.601 1.022-0.848 1.625-0.549 0.601 0.296 0.847 1.024 0.55 1.625-2.576 5.212-6.614 8.497-11.681 9.501-1.08 0.21-2.18 0.31-3.3 0.31z"/>
		
		
			<path d="m400.46 651.69c-0.441 0-0.865-0.239-1.081-0.658l-39.364-76.578c-0.307-0.597-0.072-1.327 0.524-1.634 0.595-0.307 1.327-0.071 1.633 0.524l39.366 76.579c0.306 0.596 0.07 1.327-0.525 1.634-0.19 0.1-0.38 0.14-0.56 0.14z"/>
		
		
			<path d="m388.15 651.69c-0.433 0-0.853-0.231-1.071-0.642l-40.493-75.86c-0.315-0.591-0.091-1.326 0.5-1.641 0.591-0.317 1.326-0.096 1.642 0.499l40.491 75.859c0.316 0.592 0.093 1.326-0.499 1.642-0.18 0.1-0.37 0.14-0.57 0.14z"/>
		
		
			<path d="m368.47 651.69c-0.425 0-0.837-0.224-1.059-0.619l-49.72-88.779c-0.328-0.584-0.119-1.323 0.466-1.65 0.586-0.328 1.324-0.119 1.651 0.466l49.719 88.779c0.328 0.583 0.12 1.322-0.465 1.649-0.19 0.1-0.39 0.15-0.59 0.15z"/>
		
		
			<path d="m350.02 651.69c-0.438 0-0.86-0.236-1.077-0.651l-37.212-71.35c-0.31-0.594-0.08-1.325 0.515-1.637 0.593-0.311 1.327-0.079 1.636 0.515l37.213 71.35c0.31 0.594 0.079 1.327-0.515 1.637-0.18 0.1-0.37 0.14-0.56 0.14z"/>
		
		
			<path d="m332.8 651.69c-0.438 0-0.862-0.237-1.078-0.653l-35.368-68.07c-0.31-0.595-0.078-1.326 0.517-1.636 0.592-0.309 1.327-0.077 1.635 0.518l35.368 68.07c0.309 0.596 0.078 1.327-0.517 1.636-0.17 0.09-0.37 0.13-0.55 0.13z"/>
		
		
			<polygon points="443.2 662 323.88 662 296.81 703 473.96 703" fill="#C60101"/>
			
				<path d="m476.33 705h-181.73l28.61-45h120.61l32.51 45zm-177.31-3h172.56l-28.997-39h-118.04l-25.52 39z"/>
			
		
		
			<path d="m442.59 651h-0.063c-0.669 0-1.185-0.564-1.15-1.236 0.074-1.496 0.109-3.122 0.146-4.848 0.153-7.067 0.324-15.065 3.098-20.753 1.262-2.587 4.62-5.952 8.176-9.519 4.671-4.684 10.486-10.511 10.4-13.938-0.018-0.671-0.268-1.201-0.79-1.676-3.618-3.286-5.189-2.771-7.786-1.926-1.715 0.56-3.848 1.25-6.89 0.953-1.218-0.119-2.374-0.507-3.394-0.851-2.572-0.863-3.771-1.16-5.108 0.97-0.836 1.33-0.904 2.687-0.18 3.631 0.718 0.933 2.02 1.222 3.487 0.767 0.642-0.195 1.319 0.159 1.518 0.8s-0.158 1.319-0.8 1.519c-2.436 0.756-4.787 0.141-6.13-1.607-1.348-1.754-1.329-4.207 0.05-6.399 2.412-3.837 5.477-2.807 7.937-1.979 0.942 0.316 1.914 0.645 2.857 0.736 2.534 0.25 4.246-0.307 5.901-0.845 2.83-0.924 5.506-1.796 10.167 2.437 1.019 0.925 1.552 2.073 1.585 3.413 0.111 4.465-5.592 10.185-11.107 15.716-3.408 3.418-6.628 6.646-7.713 8.872-2.54 5.209-2.712 13.271-2.852 19.75-0.037 1.75-0.073 3.379-0.149 4.898-0.05 0.66-0.59 1.13-1.23 1.13z"/>
		
		
			<path d="m452.43 597.87c-0.318 0-0.637-0.124-0.874-0.372-5.479-5.7-2.12-10.516-0.113-13.394 0.551-0.79 1.07-1.535 1.282-2.091 0.128-0.334 0.079-0.526-0.032-0.713-1.376-2.284-11.057-3.472-17.463-4.257l-1.606-0.198c-0.667-0.083-1.138-0.688-1.055-1.354 0.081-0.665 0.685-1.15 1.353-1.054l1.604 0.197c10.427 1.278 17.398 2.347 19.246 5.415 0.521 0.864 0.598 1.843 0.221 2.828-0.318 0.834-0.922 1.698-1.559 2.612-2.078 2.98-4.228 6.062-0.13 10.325 0.465 0.482 0.449 1.251-0.033 1.716-0.25 0.22-0.55 0.33-0.85 0.33z"/>
		
		
			<path d="m420.23 618.38c3.861 3.756 10.437 4.921 15.234 4.033 0.048-0.01 0.096-0.027 0.143-0.028 1.098-0.013 1.949 2.056 1.949 2.056-14.65 2.56-17.32-6.06-17.32-6.06z"/>
		
		
			<path d="m416.02 623.24c5.344 5.192 14.438 6.804 21.071 5.575 0.066-0.013 0.13-0.036 0.195-0.038 1.519-0.017 2.697 2.843 2.697 2.843-20.26 3.54-23.96-8.38-23.96-8.38z"/>
		
		<path d="m434.28 620.54c0 2.215-1.11 4.009-2.479 4.009-1.37 0-2.48-1.794-2.48-4.009 0-2.211 1.11-4.005 2.48-4.005 1.37-0.01 2.48 1.78 2.48 4z"/>
		
			<path d="m448 656.16c0 3.227-2.615 5.843-5.842 5.843h-120.32c-3.227 0-5.842-2.616-5.842-5.843v-0.314c0-3.227 2.615-5.843 5.842-5.843h120.32c3.227 0 5.842 2.616 5.842 5.843v0.31z" fill="#fff"/>
			<path d="m449 656.94c0 3.896-3.159 7.056-7.056 7.056h-119.88c-3.896 0-7.056-3.159-7.056-7.056v-0.889c0-3.896 3.159-7.056 7.056-7.056h119.89c3.896 0 7.056 3.159 7.056 7.056v0.89zm-2-1.44c0-2.485-2.015-4.5-4.5-4.5h-121c-2.485 0-4.5 2.015-4.5 4.5s2.015 4.5 4.5 4.5h121c2.48 0 4.5-2.02 4.5-4.5z"/>
		
		
			<rect x="557" y="380" width="17" height="161" fill="#FDCB45"/>
			<path d="m576 542h-20v-163h20v163zm-18-2h15v-159h-15v159z"/>
		
		
			<rect x="557" y="541" width="17" height="8" fill="#fff"/>
			<path d="m576 550h-20v-10h20v10zm-18-2h15v-6h-15v6z"/>
		
		
			<rect x="557" y="549" width="17" height="9" fill="#fff"/>
			<path d="m576 560h-20v-12h20v12zm-18-3h15v-7h-15v7z"/>
		
		
			<rect x="557" y="558" width="17" height="9" fill="#fff"/>
			<path d="m576 568h-20v-11h20v11zm-18-3h15v-5h-15v5z"/>
		
		
			
				<path d="m581.07 515.42c3.86 5.324 3.334 11.041-0.777 15.481-4.111 4.446-36.898-13.091-39.857-21.237-1.387-3.817 0.553-10.742 3.947-13.011" fill="#fff"/>
				<path d="m577.98 532.82c-0.782 0-1.682-0.104-2.702-0.309-10.182-2.055-33.238-14.9-35.977-22.438-1.631-4.489 0.638-11.909 4.414-14.432l1.349 2.016c-2.835 1.896-4.722 8.177-3.482 11.588 2.206 6.073 24.295 18.896 34.176 20.888 2.947 0.594 3.589 9e-3 3.651-0.059 3.849-4.157 4.099-9.239 0.687-13.946l1.965-1.424c4.092 5.646 3.769 12.009-0.87 17.019-0.68 0.73-1.74 1.09-3.21 1.09z"/>
			
			
				<path d="m581.04 498.57c6.355 4.038 5.502 13.702 2.261 16.051-4.46 3.232-35.393-15.091-38.066-18.087-3.175-3.554-3.649-9.26 0.653-13.243" fill="#fff"/>
				<path d="m581.85 516.14c-9.019 0-35.415-16.45-37.516-18.804-3.381-3.783-4.272-10.307 0.734-14.94l1.649 1.778c-3.913 3.623-3.252 8.551-0.574 11.547 3.465 3.88 33.243 20.246 36.45 17.912 1.053-0.764 2.071-3.09 1.981-6.058-0.051-1.634-0.559-5.685-4.181-7.986l1.301-2.048c3.24 2.058 5.174 5.688 5.305 9.96 0.108 3.526-1.063 6.704-2.983 8.096-0.52 0.37-1.25 0.54-2.17 0.54z"/>
			
			
				<path d="m585.42 482.62c3.918 4.96 2.861 9.314 0.408 13.634-2.778 4.891-5.435 1.676-9.858-0.393-5.919-2.771-11.33-5.027-17.259-7.772-3.021-1.396-10.742-3.215-12.481-6.238-2.213-3.85 1.412-9.669 4.038-12.336" fill="#fff"/>
				<path d="m582.55 500h-0.108c-1.482 0-2.888-0.817-4.516-1.744-0.781-0.445-1.589-0.895-2.467-1.303-3.103-1.453-6.125-2.785-9.046-4.078-2.692-1.19-5.393-2.381-8.208-3.685-0.769-0.355-1.939-0.768-3.182-1.204-3.721-1.309-8.352-2.937-9.843-5.528-2.529-4.402 1.141-10.661 4.226-13.793l1.73 1.702c-2.651 2.689-5.597 7.845-3.853 10.882 1.043 1.812 5.559 3.399 8.545 4.45 1.354 0.478 2.521 0.888 3.396 1.291 2.802 1.298 5.489 2.485 8.169 3.672 2.935 1.297 5.967 2.64 9.094 4.103 0.966 0.452 1.854 0.957 2.639 1.403 1.343 0.764 2.505 1.425 3.377 1.447 0.34-3e-3 1.144 0.03 2.274-1.959 2.04-3.594 3.417-7.569-0.306-12.281l1.904-1.504c4.651 5.889 2.715 11.081 0.51 14.965-1.2 2.14-2.62 3.16-4.32 3.16z"/>
			
			
				<path d="m586.07 482.58c3.297-6.735 6.264-10.274-0.94-15.812-7.235-5.561-15.706-8.683-24.409-10.665-6.909-1.572-8.572 1.216-10.313 7.639-2.11 7.774 5.032 6.735 11.229 8.608 8.085 2.444 17.378 5.752 24.462 10.663" fill="#fff"/>
				<path d="m585.41 484.01c-7.351-5.097-17.288-8.435-24.122-10.5-1.342-0.405-2.75-0.672-4.111-0.929-3.172-0.601-6.168-1.169-7.588-3.437-0.893-1.428-1.008-3.299-0.351-5.722 1.672-6.166 3.497-10.385 11.754-8.504 10.245 2.333 18.383 5.894 24.879 10.886 7.253 5.574 5.063 9.875 2.29 15.318-0.321 0.633-0.658 1.294-0.998 1.988l-0.845-0.413-0.91 1.3zm-28.01-27.14c-3.287 0-4.438 2.102-5.817 7.189-0.47 1.734-0.449 2.977 0.066 3.8 0.856 1.367 3.232 1.817 5.982 2.338 1.425 0.27 2.896 0.548 4.361 0.991 6.588 1.992 16.006 5.145 23.455 9.93 0.188-0.375 0.374-0.739 0.555-1.095 2.779-5.456 4.049-7.947-1.605-12.293-6.213-4.774-14.043-8.191-23.939-10.445-1.2-0.26-2.21-0.41-3.06-0.41z"/>
			
		
		
			<path d="m590 570c0 2.762-2.238 5-5 5h-43c-2.762 0-5-2.238-5-5s2.238-5 5-5h43c2.76 0 5 2.24 5 5z" fill="#fff"/>
			<path d="m584.97 577h-42.46c-3.679 0-6.672-2.822-6.672-6.5s2.993-6.5 6.672-6.5h42.46c3.678 0 6.672 2.822 6.672 6.5s-2.99 6.5-6.67 6.5zm-42.46-10c-2.341 0-4.246 1.658-4.246 4s1.905 4 4.246 4h42.46c2.341 0 4.246-1.658 4.246-4s-1.905-4-4.246-4h-42.46z"/>
		
		
			<circle cx="565.3" cy="596.74" r="20.196" fill="#C60101"/>
			
				<path d="m565.3 618.15c-11.805 0-21.41-9.604-21.41-21.409s9.605-21.408 21.41-21.408 21.408 9.604 21.408 21.408-9.61 21.41-21.41 21.41zm0-40.39c-10.468 0-18.983 8.516-18.983 18.981 0 10.468 8.516 18.983 18.983 18.983s18.981-8.516 18.981-18.983c0-10.46-8.52-18.98-18.98-18.98z"/>
			
		
		
			<circle cx="565.3" cy="382" r="15.637" fill="#FB821F"/>
			
				<path d="m565.3 398.85c-9.291 0-16.851-7.559-16.851-16.851s7.56-16.85 16.851-16.85 16.85 7.559 16.85 16.85c0 9.29-7.56 16.85-16.85 16.85zm0-31.28c-7.954 0-14.425 6.471-14.425 14.423 0 7.954 6.471 14.425 14.425 14.425 7.953 0 14.425-6.471 14.425-14.425 0-7.96-6.47-14.43-14.42-14.43z"/>
			
		
		
			<path d="m453.12 579.51-2.002-1.373c2.704-3.945 1.877-4.605-0.334-6.37-1.268-1.014-2.847-2.272-3.947-4.412-1.438-2.792 0.174-6.925 1.733-10.923 1.291-3.308 2.754-7.058 1.214-7.663-36.416-14.316-74.103 10.242-80.012 15.67l-1.642-1.786c6.095-5.598 44.957-30.915 82.542-16.141 3.792 1.489 1.944 6.224 0.158 10.802-1.301 3.333-2.774 7.11-1.838 8.93 0.864 1.679 2.105 2.669 3.305 3.627 2.81 2.23 4.51 4.24 0.82 9.63z"/>
		
		
			<polygon points="470.02 701.08 436.05 679.54 413.92 701.68 384.8 679.24 356.59 700.47 335.97 678.94 299.58 700.47" fill="#FDCB45"/>
			<path d="m414.02 703.29-1.57-1.21-55.72-0.198-0.266 0.2-0.194-0.202-61.099-0.216 41.011-24.266 20.543 21.45 28.083-21.138 28.472 21.947 0.938 2e-3 21.666-21.666 38.342 24.307-59.007-0.211-1.19 1.21zm3.62-3.61 48.182 0.171-29.594-18.76-18.59 18.59zm-57.7-0.21 49.348 0.177-24.494-18.883-24.86 18.7zm-55.96-0.2 49.955 0.178-18.177-18.979-31.78 18.8z"/>
		
		
			<rect x="215" y="256" width="19" height="8" fill="#fff"/>
			<path d="m235 265h-21v-10h21v10zm-19-2h17v-6h-17v6z"/>
		
		
			<rect x="215" y="248" width="19" height="8" fill="#fff"/>
			<path d="m235 257h-21v-10h21v10zm-19-2h17v-6h-17v6z"/>
		
		
			<rect x="215" y="239" width="19" height="9" fill="#fff"/>
			<path d="m235 249h-21v-11h21v11zm-19-2h17v-7h-17v7z"/>
		
		
			
				<path d="m208.45 286.4c-3.859-5.325-3.333-11.041 0.777-15.481 4.112-4.447 36.899 13.09 39.858 21.237 1.387 3.817-0.552 10.742-3.947 13.011" fill="#fff"/>
				<path d="m245.81 306.17-1.348-2.017c2.834-1.895 4.722-8.175 3.481-11.587-2.205-6.073-24.294-18.895-34.174-20.887-2.948-0.593-3.589-9e-3 -3.653 0.058-3.848 4.156-4.098 9.239-0.686 13.947l-1.964 1.424c-4.093-5.647-3.769-12.009 0.869-17.018 1.04-1.124 2.975-1.381 5.914-0.79 10.18 2.053 33.238 14.898 35.975 22.437 1.64 4.5-0.63 11.92-4.41 14.44z"/>
			
			
				<path d="m208.48 303.25c-6.356-4.037-5.502-13.701-2.261-16.05 4.461-3.232 35.392 15.09 38.067 18.087 3.175 3.554 3.649 9.261-0.654 13.243" fill="#fff"/>
				<path d="m244.46 319.42-1.648-1.781c3.913-3.621 3.25-8.548 0.574-11.545-3.465-3.88-33.223-20.244-36.45-17.913-1.054 0.764-2.073 3.09-1.981 6.06 0.05 1.634 0.558 5.684 4.18 7.984l-1.301 2.048c-3.24-2.058-5.173-5.688-5.305-9.958-0.108-3.527 1.063-6.707 2.983-8.098 5.572-4.042 37.37 15.668 39.684 18.261 3.4 3.78 4.29 10.3-0.72 14.94z"/>
			
			
				<path d="m204.1 319.19c-3.918-4.96-2.861-9.313-0.408-13.633 2.778-4.89 5.435-1.677 9.858 0.393 5.92 2.77 11.331 5.026 17.259 7.771 3.021 1.398 10.743 3.215 12.482 6.238 2.213 3.851-1.412 9.669-4.039 12.336" fill="#fff"/>
				<path d="m240.12 333.15-1.729-1.702c2.649-2.69 5.595-7.845 3.851-10.881-1.042-1.811-5.555-3.399-8.542-4.45-1.354-0.476-2.523-0.888-3.396-1.292-2.803-1.298-5.49-2.486-8.171-3.671-2.933-1.297-5.967-2.639-9.093-4.101-0.964-0.451-1.853-0.958-2.637-1.403-1.343-0.765-2.504-1.425-3.379-1.448-0.344-9e-3 -1.145-0.026-2.272 1.958-2.042 3.594-3.418 7.569 0.305 12.281l-1.904 1.503c-4.651-5.888-2.716-11.101-0.511-14.984 1.244-2.188 2.704-3.223 4.446-3.184 1.482 0.038 2.888 0.838 4.516 1.764 0.781 0.444 1.587 0.903 2.465 1.314 3.103 1.452 6.124 2.788 9.046 4.08 2.693 1.19 5.393 2.385 8.209 3.689 0.768 0.356 1.94 0.769 3.182 1.205 3.721 1.309 8.351 2.938 9.842 5.529 2.52 4.39-1.15 10.65-4.24 13.78z"/>
			
			
				<path d="m203.46 319.24c-3.296 6.736-6.262 10.275 0.94 15.811 7.236 5.562 15.707 8.685 24.41 10.666 6.909 1.573 8.573-1.215 10.314-7.639 2.11-7.776-5.032-6.735-11.23-8.608-8.084-2.445-17.378-5.751-24.462-10.663" fill="#fff"/>
				<path d="m232.09 347.35c-1.032 0-2.209-0.145-3.558-0.451-10.246-2.333-18.384-5.896-24.879-10.888-7.252-5.573-5.062-9.874-2.289-15.318 0.321-0.632 0.658-1.293 0.998-1.988l0.845 0.414 0.908-1.31c7.347 5.093 17.286 8.431 24.123 10.499 1.34 0.404 2.748 0.671 4.109 0.929 3.173 0.6 6.17 1.167 7.589 3.434 0.894 1.428 1.009 3.3 0.352 5.724-1.39 5.17-2.89 8.97-8.19 8.97zm-28.01-26.65c-0.188 0.374-0.374 0.737-0.554 1.093-2.78 5.457-4.048 7.948 1.606 12.293 6.211 4.775 14.042 8.191 23.939 10.445 5.758 1.313 7.134-0.357 8.874-6.773 0.471-1.735 0.45-2.978-0.066-3.801-0.856-1.368-3.232-1.817-5.983-2.338-1.424-0.269-2.896-0.548-4.361-0.991-6.59-1.98-16.01-5.14-23.46-9.92z"/>
			
		
		
			<path d="m253 234c0 2.761-2.239 5-5 5h-43c-2.761 0-5-2.239-5-5s2.239-5 5-5h43c2.76 0 5 2.24 5 5z" fill="#fff"/>
			<path d="m247.72 241h-42.459c-3.679 0-6.672-2.82-6.672-6.5 0-3.679 2.993-6.5 6.672-6.5h42.459c3.679 0 6.672 2.821 6.672 6.5 0 3.68-2.99 6.5-6.67 6.5zm-42.46-10c-2.341 0-4.246 1.659-4.246 4s1.905 4 4.246 4h42.459c2.341 0 4.246-1.659 4.246-4s-1.905-4-4.246-4h-42.46z"/>
		
		
			<circle cx="224.23" cy="206.29" r="20.196" fill="#C60101"/>
			
				<path d="m224.23 227.7c-11.805 0-21.407-9.604-21.407-21.41 0-11.804 9.603-21.408 21.407-21.408 11.806 0 21.41 9.604 21.41 21.408 0 11.8-9.6 21.41-21.41 21.41zm0-40.4c-10.466 0-18.981 8.515-18.981 18.982 0 10.468 8.515 18.983 18.981 18.983 10.467 0 18.983-8.516 18.983-18.983 0-10.46-8.51-18.98-18.98-18.98z"/>
			
		
		
			<circle cx="224.23" cy="419.82" r="15.637" fill="#FB821F"/>
			
				<path d="m224.23 436.67c-9.291 0-16.85-7.558-16.85-16.85s7.559-16.852 16.85-16.852c9.292 0 16.851 7.56 16.851 16.852s-7.56 16.85-16.85 16.85zm0-31.27c-7.954 0-14.424 6.472-14.424 14.426 0 7.952 6.47 14.424 14.424 14.424s14.425-6.472 14.425-14.424c0-7.96-6.48-14.43-14.43-14.43z"/>
			
		
		
			<path d="m363.54 259.87c-8.049 0-16.397-1.309-24.688-4.568-3.792-1.491-1.944-6.224-0.159-10.801 1.301-3.333 2.775-7.111 1.837-8.931-0.864-1.678-2.105-2.668-3.305-3.627-2.81-2.244-4.514-4.248-0.822-9.638l2.002 1.371c-2.704 3.946-1.876 4.607 0.333 6.372 1.269 1.013 2.847 2.272 3.948 4.412 1.438 2.792-0.174 6.926-1.734 10.923-1.291 3.309-2.753 7.058-1.215 7.662 8.025 3.155 16.114 4.422 23.908 4.422 27.579 2e-3 51.498-15.859 56.105-20.092l1.642 1.786c-4.76 4.38-29.42 20.72-57.86 20.72z"/>
		
		
			<path d="m448.81 485.2c-0.769-8.87-1.494-17.083-2.166-24.696-4.25-48.146-6.383-72.311-3.957-85.849 2.517-14.045 10.111-17.016 23.9-22.408 1.422-0.556 2.917-1.141 4.487-1.769l0.9 2.254c-1.576 0.63-3.077 1.216-4.504 1.774-26.82 10.51-26.82 10.51-18.41 105.81 0.671 7.614 1.396 15.829 2.165 24.701l-2.41 0.2z"/>
		
		
			<path d="m458.11 471.69c-5.864-50.076-7.632-76.116-6.107-89.878 1.591-14.347 7.061-16.111 13.987-18.345 2.32-0.749 4.949-1.597 7.739-3.015l1.099 2.163c-2.961 1.506-5.688 2.385-8.094 3.161-13.029 4.204-17.904 5.775-6.215 105.63l-2.41 0.3z"/>
		
		
			<path d="m466.23 462.62c-8.399-66.303-6.252-85.999 9.991-91.629l0.793 2.294c-14.604 5.061-16.483 25.03-8.377 89.03l-2.4 0.31z"/>
		
		
			<path d="m473.39 440.06c-0.877-5.414-8.184-53.052 5.414-58.403l0.889 2.258c-9.982 3.928-6.205 41.581-3.907 55.756l-2.39 0.38z"/>
		
		
				<rect transform="matrix(.2376 .9714 -.9714 .2376 735.89 -175.26)" x="437.84" y="379.96" width="83.521" height="2.427"/>
		
		
			<path d="m483.85 437.12c-1.027-6.577-4.157-28.783-1.217-38.339l2.319 0.713c-2.787 9.059 0.286 30.803 1.296 37.251l-2.4 0.38z"/>
		
		
			<polygon points="319.5 100.74 353.47 122.27 375.61 100.13 404.73 122.58 432.93 101.35 453.56 122.88 489.95 101.35" fill="#FDCB45"/>
			<path d="m453.35 124.42-20.544-21.45-28.082 21.137-28.472-21.946-0.937-3e-3 -21.667 21.667-38.342-24.306 59.006 0.209 1.2-1.2 1.569 1.21 55.72 0.198 0.268-0.201 0.192 0.202 61.099 0.218-41.02 24.26zm-17.76-22.05 18.179 18.979 31.777-18.801-49.96-0.18zm-55.35-0.2 24.495 18.882 24.854-18.707-49.35-0.17zm-56.53-0.2 29.593 18.76 18.588-18.588-48.18-0.17z"/>
		
		
			<circle cx="393.86" cy="339.52" r="4.073"/>
			<circle cx="387.79" cy="321.32" r="4.073"/>
			<circle cx="370.81" cy="320.11" r="4.073"/>
			<circle cx="367.17" cy="301.91" r="4.073"/>
			<circle cx="350.18" cy="300.7" r="4.073"/>
		
		
			<circle cx="380.64" cy="429.44" r="7.228" fill="#FB821F"/>
			
				<path d="m380.64 437.89c-4.654 0-8.441-3.787-8.441-8.441 0-4.655 3.787-8.44 8.441-8.44 4.655 0 8.441 3.785 8.441 8.44 0 4.65-3.78 8.44-8.44 8.44zm0-14.46c-3.316 0-6.015 2.7-6.015 6.016s2.699 6.015 6.015 6.015 6.015-2.698 6.015-6.015c0-3.31-2.7-6.01-6.02-6.01z"/>
			
		
		
			<circle cx="409.76" cy="373.64" r="7.228" fill="#FB821F"/>
			
				<path d="m409.76 382.08c-4.654 0-8.44-3.787-8.44-8.441s3.786-8.441 8.44-8.441 8.441 3.786 8.441 8.441-3.79 8.44-8.44 8.44zm0-14.46c-3.315 0-6.015 2.699-6.015 6.015s2.699 6.015 6.015 6.015 6.015-2.699 6.015-6.015c-0.01-3.32-2.71-6.02-6.02-6.02z"/>
			
		
	

<metadata><rdfRDF><ccWork><dcFormat>image/svg+xml</dcFormat><dcType rdfResource="http://purl.org/dc/dcmitype/StillImage"/><ccLicense rdfResource="http://creativecommons.org/licenses/publicdomain/"/><dcPublisher><ccAgent rdfAbout="http://openclipart.org/"><dcTitle>Openclipart</dcTitle></ccAgent></dcPublisher></ccWork><ccLicense rdfAbout="http://creativecommons.org/licenses/publicdomain/"><ccPermits rdfResource="http://creativecommons.org/ns#Reproduction"/><ccPermits rdfResource="http://creativecommons.org/ns#Distribution"/><ccPermits rdfResource="http://creativecommons.org/ns#DerivativeWorks"/></ccLicense></rdfRDF></metadata></svg>
