<?xml version="1.0" encoding="UTF-8"?>
<svg enable-background="new 0 0 800 800" version="1.1" viewBox="108 0 592 800" xmlSpace="preserve" xmlns="http://www.w3.org/2000/svg" xmlnsCc="http://web.resource.org/cc/" xmlnsDc="http://purl.org/dc/elements/1.1/" xmlnsRdf="http://www.w3.org/1999/02/22-rdf-syntax-ns#">

	
		
			<path d="m118.87 799c-5.552 0-9.868-4.04-9.868-9.058v-776.42c0-5.013 4.32-9.52 9.87-9.52h564.6c5.55 0 10.53 4.507 10.53 9.525v776.42c0 5.018-4.977 9.058-10.528 9.058h-564.6z" fill="#fff"/>
			<path d="m683.51 8.033c3.879 0 6.488 2.147 6.488 5.492v776.42c0 3.345-2.649 7.058-6.528 7.058h-564.6c-3.879 0-7.868-3.713-7.868-7.058v-776.42c0-3.34 3.99-5.52 7.87-5.52h565.13m-0.53-6h-564.6c-7.24 0-13.87 4.824-13.87 11.525v776.42c0 6.7 6.631 13.058 13.868 13.058h564.6c7.235 0 12.528-6.357 12.528-13.058v-776.42c0-6.696-5.32-11.52-12.56-11.52h0.03z"/>
		
		
			
				
					<path d="m150.65 47.398c0-2.351 0.4-4.516 1.199-6.491s1.934-3.674 3.405-5.098c1.469-1.423 3.251-2.534 5.345-3.334 2.094-0.799 4.445-1.199 7.056-1.199 3.222 0 5.868 0.664 7.938 1.993 2.069 1.33 3.721 3.04 4.957 5.132 1.234 2.095 2.087 4.405 2.558 6.933 0.47 2.528 0.706 5.028 0.706 7.497 0 1.765-0.118 3.699-0.353 5.804s-0.641 4.205-1.217 6.297c-0.576 2.095-1.334 4.117-2.275 6.068-0.941 1.952-2.134 3.675-3.581 5.169s-3.158 2.681-5.133 3.564c-1.976 0.882-4.257 1.323-6.844 1.323-1.506 0-3.017-0.118-4.533-0.353-1.517-0.236-2.875-0.619-4.075-1.147-1.199-0.528-2.187-1.252-2.963-2.17-0.776-0.917-1.165-2.021-1.165-3.315 0-1.107 0.354-2.071 1.059-2.893 0.706-0.825 1.681-1.236 2.928-1.236 0.777 0 1.523 0.265 2.24 0.793 0.718 0.53 1.077 1.347 1.077 2.453 0 0.494-0.106 0.883-0.317 1.165-0.212 0.282-0.317 0.624-0.317 1.023 0 1.152 0.611 1.97 1.834 2.452 1.222 0.482 2.775 0.724 4.656 0.724 2.164 0 3.993-0.583 5.486-1.747 1.494-1.165 2.687-2.741 3.581-4.728 0.893-1.986 1.546-4.333 1.958-7.038s0.641-5.598 0.688-8.679c-1.601 2.164-3.34 3.658-5.222 4.48-1.882 0.825-3.975 1.234-6.28 1.234-2.751 0-5.039-0.41-6.861-1.234-1.823-0.822-3.294-1.923-4.41-3.298-1.117-1.377-1.918-2.94-2.399-4.692-0.52-1.753-0.76-3.569-0.76-5.452zm7.31-0.141c0 1.341 0.1 2.712 0.3 4.11 0.199 1.4 0.611 2.652 1.234 3.758 0.623 1.107 1.487 2.024 2.593 2.751 1.105 0.729 2.599 1.095 4.48 1.095 1.482 0 2.84-0.301 4.075-0.901 1.235-0.599 2.288-1.405 3.158-2.417 0.87-1.009 1.547-2.18 2.029-3.509 0.481-1.33 0.724-2.723 0.724-4.181 0-1.764-0.148-3.494-0.442-5.187s-0.788-3.186-1.481-4.479c-0.694-1.293-1.658-2.341-2.894-3.141-1.234-0.8-2.793-1.2-4.674-1.2-1.929 0-3.493 0.436-4.693 1.306-1.199 0.871-2.122 1.958-2.769 3.264-0.647 1.304-1.083 2.74-1.306 4.304-0.23 1.564-0.34 3.04-0.34 4.427z"/>
				
			
			
				
					<path d="m649.72 766.84c0 2.351-0.398 4.517-1.198 6.491-0.799 1.975-1.934 3.674-3.404 5.098-1.469 1.423-3.252 2.534-5.345 3.334-2.094 0.8-4.446 1.198-7.056 1.198-3.222 0-5.868-0.662-7.939-1.992-2.068-1.329-3.722-3.04-4.956-5.132-1.235-2.095-2.087-4.405-2.557-6.934-0.471-2.527-0.707-5.027-0.707-7.497 0-1.765 0.118-3.698 0.353-5.803 0.235-2.106 0.642-4.205 1.219-6.298 0.576-2.094 1.333-4.116 2.274-6.067 0.94-1.952 2.135-3.676 3.581-5.169 1.447-1.494 3.158-2.681 5.134-3.564 1.975-0.882 4.257-1.322 6.843-1.322 1.508 0 3.017 0.118 4.535 0.353 1.517 0.236 2.875 0.618 4.073 1.146 1.2 0.529 2.188 1.252 2.965 2.171 0.776 0.917 1.164 2.021 1.164 3.315 0 1.105-0.353 2.07-1.058 2.893-0.707 0.824-1.683 1.235-2.929 1.235-0.777 0-1.524-0.265-2.24-0.794-0.717-0.529-1.077-1.347-1.077-2.452 0-0.494 0.106-0.882 0.317-1.164 0.214-0.282 0.317-0.624 0.317-1.022 0-1.153-0.611-1.971-1.834-2.453s-2.774-0.723-4.655-0.723c-2.165 0-3.992 0.582-5.488 1.747-1.492 1.164-2.686 2.74-3.581 4.727-0.893 1.987-1.545 4.333-1.957 7.038-0.411 2.704-0.642 5.599-0.688 8.68 1.601-2.165 3.341-3.658 5.223-4.48 1.88-0.824 3.975-1.235 6.278-1.235 2.754 0 5.04 0.411 6.862 1.235 1.824 0.822 3.293 1.923 4.41 3.299 1.117 1.375 1.918 2.939 2.399 4.691 0.51 1.71 0.75 3.52 0.75 5.41zm-7.3 0.14c0-1.341-0.1-2.711-0.3-4.108-0.2-1.4-0.611-2.653-1.234-3.759s-1.486-2.023-2.593-2.751c-1.105-0.729-2.601-1.095-4.48-1.095-1.482 0-2.84 0.301-4.076 0.9-1.234 0.6-2.286 1.405-3.156 2.417-0.87 1.01-1.548 2.18-2.029 3.509-0.482 1.33-0.724 2.723-0.724 4.182 0 1.764 0.148 3.493 0.442 5.186 0.295 1.693 0.787 3.187 1.481 4.479 0.693 1.294 1.657 2.342 2.893 3.141 1.235 0.8 2.793 1.201 4.674 1.201 1.931 0 3.494-0.437 4.693-1.306 1.198-0.871 2.122-1.959 2.771-3.265 0.646-1.304 1.08-2.739 1.305-4.304 0.23-1.56 0.34-3.04 0.34-4.42z"/>
				
			
		
	
	<g clip-rule="evenodd" fill-rule="evenodd">
		<path d="m164.63 87.095c-3.67 13.972-20.918 18.653-21.619 36.45-0.55 13.958 12.883 16.671 19.427 6.699-0.171 8.638-2.661 21.756-2.661 21.756h9.207s-3.039-12.213-3.214-21.32c5.584 9.691 18.434 6.515 18.334-5.914-0.11-13.83-18.86-26.161-19.48-37.675z"/>
		<path d="m633.18 728.68c3.671-13.974 20.919-18.654 21.62-36.452 0.549-13.956-12.883-16.555-19.428-6.584 0.172-8.637 2.661-21.639 2.661-21.639h-9.206s3.039 12.098 3.213 21.205c-5.584-9.691-18.433-6.574-18.334 5.855 0.11 13.81 18.86 26.08 19.48 37.6z"/>
	</g>
	<path d="m235.1 586.13c-8.682 33.044-49.472 44.113-51.13 86.206-1.301 33.007 30.471 38.609 45.947 15.025-0.407 20.427-6.294 50.639-6.294 50.639h21.774s-7.186-28.069-7.601-49.607c13.208 22.918 43.597 15.813 43.361-13.58-0.26-32.7-44.6-61.45-46.06-88.68z" clip-rule="evenodd" fill-rule="evenodd"/>
	<path d="m235.1 428.42c-8.682 33.045-49.472 44.115-51.13 86.207-1.301 33.008 30.471 37.962 45.947 14.38-0.407 20.428-6.294 49.994-6.294 49.994h21.774s-7.186-27.424-7.601-48.963c13.208 22.918 43.597 16.136 43.361-13.257-0.26-32.7-44.6-61.13-46.06-88.36z" clip-rule="evenodd" fill-rule="evenodd"/>
	<path d="m235.1 258.58c-8.682 33.044-49.472 44.114-51.13 86.206-1.301 33.007 30.471 37.884 45.947 14.301-0.407 20.427-6.294 49.915-6.294 49.915h21.774s-7.186-27.346-7.601-48.883c13.208 22.918 43.597 16.176 43.361-13.217-0.26-32.7-44.6-61.09-46.06-88.32z" clip-rule="evenodd" fill-rule="evenodd"/>
	<path d="m235.1 88.737c-8.682 33.044-49.472 44.114-51.13 86.206-1.301 33.008 30.471 38.305 45.947 14.722-0.407 20.427-6.294 50.335-6.294 50.335h21.774s-7.186-27.766-7.601-49.304c13.208 22.918 43.597 15.965 43.361-13.428-0.26-32.7-44.6-61.3-46.06-88.533z" clip-rule="evenodd" fill-rule="evenodd"/>
	<path d="m550.52 586.13c-8.682 33.044-49.471 44.113-51.129 86.206-1.302 33.007 30.471 38.609 45.946 15.025-0.405 20.427-6.294 50.639-6.294 50.639h21.773s-7.186-28.069-7.601-49.607c13.208 22.918 43.597 15.813 43.36-13.58-0.26-32.7-44.6-61.45-46.06-88.68z" clip-rule="evenodd" fill-rule="evenodd"/>
	<path d="m390.39 338.65c-8.682 33.044-49.472 44.114-51.13 86.206-1.301 33.007 30.471 38.351 45.947 14.768-0.406 20.427-6.294 50.38-6.294 50.38h21.774s-7.187-27.812-7.601-49.35c13.208 22.918 43.596 15.943 43.36-13.449-0.27-32.71-44.61-61.33-46.06-88.56z" clip-rule="evenodd" fill-rule="evenodd"/>
	<path d="m550.52 428.42c-8.682 33.045-49.471 44.115-51.129 86.207-1.302 33.008 30.471 37.962 45.946 14.38-0.405 20.428-6.294 49.994-6.294 49.994h21.773s-7.186-27.424-7.601-48.963c13.208 22.918 43.597 16.136 43.36-13.257-0.26-32.7-44.6-61.13-46.06-88.36z" clip-rule="evenodd" fill-rule="evenodd"/>
	<path d="m550.52 258.58c-8.682 33.044-49.471 44.114-51.129 86.206-1.302 33.007 30.471 37.884 45.946 14.301-0.405 20.427-6.294 49.915-6.294 49.915h21.773s-7.186-27.346-7.601-48.883c13.208 22.918 43.597 16.176 43.36-13.217-0.26-32.7-44.6-61.09-46.06-88.32z" clip-rule="evenodd" fill-rule="evenodd"/>
	<path d="m550.52 88.737c-8.682 33.044-49.471 44.114-51.129 86.206-1.302 33.008 30.471 38.305 45.946 14.722-0.405 20.427-6.294 50.335-6.294 50.335h21.773s-7.186-27.766-7.601-49.304c13.208 22.918 43.597 15.965 43.36-13.428-0.26-32.7-44.6-61.3-46.06-88.533z" clip-rule="evenodd" fill-rule="evenodd"/>

<metadata><rdfRDF><ccWork><dcFormat>image/svg+xml</dcFormat><dcType rdfResource="http://purl.org/dc/dcmitype/StillImage"/><ccLicense rdfResource="http://creativecommons.org/licenses/publicdomain/"/><dcPublisher><ccAgent rdfAbout="http://openclipart.org/"><dcTitle>Openclipart</dcTitle></ccAgent></dcPublisher></ccWork><ccLicense rdfAbout="http://creativecommons.org/licenses/publicdomain/"><ccPermits rdfResource="http://creativecommons.org/ns#Reproduction"/><ccPermits rdfResource="http://creativecommons.org/ns#Distribution"/><ccPermits rdfResource="http://creativecommons.org/ns#DerivativeWorks"/></ccLicense></rdfRDF></metadata></svg>
