<?xml version="1.0" encoding="UTF-8"?>
<svg enable-background="new 0 0 800 800" version="1.1" viewBox="108 0 592 800" xmlSpace="preserve" xmlns="http://www.w3.org/2000/svg" xmlnsCc="http://web.resource.org/cc/" xmlnsDc="http://purl.org/dc/elements/1.1/" xmlnsRdf="http://www.w3.org/1999/02/22-rdf-syntax-ns#">

	
		
			<path d="m119.61 799c-5.549 0-9.608-4.351-9.608-9.365v-776.12c0-5.015 4.06-9.52 9.61-9.52h564.38c5.55 0 10.01 4.505 10.01 9.521v776.11c0 5.015-4.459 9.365-10.009 9.365h-564.38z" fill="#fff"/>
			<path d="m684.01 8.032c3.879 0 6.988 2.146 6.988 5.489v776.11c0 3.343-3.131 6.365-7.009 6.365h-564.38c-3.877 0-7.608-3.022-7.608-6.365v-776.12c0-3.343 3.73-5.52 7.61-5.52h564.39m-0.01-6h-564.38c-7.23 0-13.61 4.823-13.61 11.521v776.11c0 6.696 6.375 12.365 13.608 12.365h564.38c7.232 0 13.009-5.669 13.009-12.365v-776.12c0-6.697-5.56-11.52-12.8-11.52h-0.21z"/>
		
		
			
				
					<path d="m153 54.797c-0.658 0-1.134 0.107-1.428 0.319s-0.559 0.589-0.793 1.131l-3.245 8.519c-0.259 0.778-0.389 1.332-0.389 1.662 0 0.612 0.159 1.131 0.476 1.555s0.742 0.767 1.27 1.026c0.53 0.259 1.135 0.453 1.817 0.583s1.375 0.218 2.081 0.265c0.353 0 0.599 0.128 0.74 0.383 0.141 0.254 0.212 0.521 0.212 0.799 0 0.301-0.071 0.58-0.212 0.834-0.141 0.255-0.387 0.383-0.74 0.383-0.565 0-1.188-0.03-1.869-0.088-0.682-0.059-1.382-0.124-2.099-0.194s-1.44-0.136-2.169-0.193c-0.728-0.059-1.422-0.088-2.081-0.088-1.246 0-2.45 0.094-3.614 0.282-1.165 0.188-2.416 0.283-3.755 0.283-0.283 0-0.507-0.14-0.67-0.417-0.165-0.278-0.248-0.579-0.248-0.904 0-0.254 0.065-0.487 0.194-0.694 0.129-0.208 0.347-0.336 0.652-0.383l1.093-0.141c0.728-0.165 1.381-0.365 1.958-0.6 0.576-0.235 1.123-0.583 1.64-1.042 0.517-0.458 1.01-1.083 1.48-1.87 0.47-0.788 0.964-1.817 1.481-3.088l16.32-41.119c0.141-0.4 0.528-0.6 1.164-0.6 0.657 0 1.187 0.2 1.587 0.6 1.198 3.083 2.486 6.382 3.86 9.899 1.376 3.518 2.781 7.094 4.215 10.729s2.875 7.246 4.32 10.834c1.446 3.589 2.827 6.982 4.144 10.182 0.564 1.389 1.117 2.465 1.658 3.229 0.54 0.765 1.093 1.347 1.657 1.747 0.565 0.4 1.141 0.671 1.728 0.812s1.212 0.283 1.87 0.423c0.282 0.046 0.487 0.197 0.617 0.452 0.129 0.255 0.194 0.521 0.194 0.799 0 0.301-0.06 0.568-0.177 0.799-0.118 0.231-0.307 0.348-0.565 0.348-0.752 0-1.498-0.024-2.239-0.071-0.74-0.047-1.476-0.118-2.204-0.212-0.706-0.094-1.458-0.164-2.257-0.211-0.8-0.047-1.646-0.07-2.539-0.07-2.045 0-3.95 0.094-5.713 0.282-1.764 0.188-3.469 0.283-5.114 0.283-0.329 0-0.582-0.128-0.758-0.383-0.177-0.254-0.266-0.556-0.266-0.903 0-0.278 0.071-0.522 0.212-0.729 0.141-0.208 0.388-0.336 0.74-0.383 1.646-0.212 2.845-0.506 3.598-0.884 0.775-0.377 1.164-1.178 1.164-2.404 0-0.33-0.036-0.712-0.106-1.148-0.07-0.437-0.224-1.032-0.458-1.785-0.236-0.754-0.57-1.72-1.005-2.898s-1.018-2.675-1.746-4.49c-0.234-0.636-0.558-1.037-0.97-1.202-0.411-0.165-1.075-0.248-1.992-0.248h-12.71zm12.44-2.821c0.657 0 1.111-0.111 1.357-0.335 0.248-0.223 0.252-0.617 0.018-1.181l-6.313-16.893c-0.095-0.258-0.283-0.388-0.564-0.388-0.282 0-0.47 0.129-0.564 0.388l-6.595 16.893c-0.235 0.611-0.259 1.017-0.071 1.216 0.188 0.2 0.553 0.3 1.094 0.3h11.62z"/>
				
			
			
				
					<path d="m642.58 743.36c0.658 0 1.135-0.107 1.429-0.32 0.293-0.212 0.559-0.589 0.793-1.13l3.245-8.52c0.258-0.777 0.389-1.331 0.389-1.661 0-0.612-0.159-1.131-0.477-1.555-0.317-0.425-0.741-0.768-1.27-1.026-0.53-0.259-1.135-0.453-1.816-0.582-0.683-0.131-1.376-0.219-2.081-0.266-0.353 0-0.601-0.128-0.74-0.384-0.142-0.253-0.212-0.521-0.212-0.798 0-0.301 0.07-0.58 0.212-0.834 0.14-0.256 0.388-0.384 0.74-0.384 0.565 0 1.188 0.031 1.869 0.089 0.682 0.06 1.382 0.125 2.099 0.194 0.718 0.07 1.439 0.137 2.168 0.193 0.729 0.059 1.424 0.089 2.082 0.089 1.246 0 2.45-0.094 3.614-0.282 1.163-0.188 2.416-0.283 3.756-0.283 0.282 0 0.505 0.14 0.67 0.418 0.164 0.278 0.247 0.579 0.247 0.904 0 0.254-0.064 0.486-0.194 0.693-0.129 0.209-0.347 0.337-0.653 0.384l-1.092 0.14c-0.729 0.166-1.381 0.365-1.958 0.601-0.576 0.235-1.122 0.583-1.64 1.041-0.517 0.46-1.011 1.082-1.48 1.871-0.472 0.787-0.964 1.816-1.482 3.089l-16.327 41.114c-0.142 0.399-0.53 0.6-1.164 0.6-0.659 0-1.188-0.2-1.588-0.6-1.198-3.083-2.486-6.383-3.86-9.9-1.376-3.517-2.78-7.093-4.215-10.728-1.434-3.635-2.874-7.247-4.32-10.835-1.445-3.588-2.826-6.982-4.144-10.182-0.563-1.389-1.116-2.465-1.658-3.229-0.539-0.766-1.093-1.348-1.657-1.748-0.563-0.4-1.14-0.671-1.727-0.812-0.588-0.141-1.212-0.283-1.87-0.423-0.282-0.047-0.487-0.197-0.617-0.452-0.129-0.256-0.194-0.521-0.194-0.8 0-0.302 0.06-0.568 0.177-0.799s0.307-0.349 0.564-0.349c0.752 0 1.498 0.024 2.238 0.071 0.741 0.048 1.476 0.118 2.205 0.212 0.706 0.094 1.458 0.165 2.258 0.212 0.798 0.047 1.646 0.07 2.539 0.07 2.045 0 3.949-0.094 5.713-0.282 1.763-0.188 3.467-0.283 5.113-0.283 0.329 0 0.581 0.128 0.758 0.384 0.177 0.254 0.266 0.556 0.266 0.902 0 0.278-0.071 0.522-0.214 0.729-0.14 0.209-0.387 0.337-0.738 0.384-1.646 0.211-2.845 0.506-3.598 0.884-0.776 0.376-1.165 1.178-1.165 2.404 0 0.329 0.036 0.711 0.105 1.148 0.071 0.436 0.226 1.03 0.46 1.784 0.234 0.755 0.569 1.721 1.004 2.898 0.437 1.178 1.019 2.675 1.746 4.49 0.235 0.635 0.559 1.036 0.971 1.201 0.411 0.166 1.075 0.249 1.992 0.249h12.73zm-12.45 2.82c-0.659 0-1.111 0.111-1.357 0.334-0.248 0.224-0.254 0.618-0.02 1.182l6.313 16.893c0.094 0.258 0.283 0.389 0.565 0.389 0.281 0 0.47-0.131 0.563-0.389l6.595-16.893c0.236-0.61 0.26-1.017 0.07-1.216-0.188-0.2-0.552-0.3-1.094-0.3h-11.63z"/>
				
			
		
	
	<path d="m474.14 359.14c-7.595 0-14.904 1.203-21.765 3.409 11.463-12.622 18.447-29.38 18.447-47.772 0-39.257-31.824-71.082-71.082-71.082-39.257 0-71.081 31.824-71.081 71.082 0 20.441 8.641 38.853 22.455 51.821-5.772-1.513-11.829-2.326-18.075-2.326-39.257 0-71.081 31.824-71.081 71.081 0 39.258 31.823 71.081 71.081 71.081 22.806 0 43.088-11.081 56.094-27.778-3.253 43.563-6.702 77.348-6.702 77.348h42.599s-5.037-37.611-9.257-85.557c12.84 18.445 34.188 30.693 58.366 30.693 39.257 0 71.08-31.742 71.08-71.001 0-39.25-31.82-70.99-71.08-70.99zm-91.08 24.72c-0.11 0.224-0.221 0.447-0.332 0.671-0.348-0.34-0.702-0.675-1.056-1.008 0.46 0.13 0.92 0.23 1.39 0.34z" clip-rule="evenodd" fill-rule="evenodd"/>
	<g clip-rule="evenodd" fill-rule="evenodd">
		<path d="m175.68 104.25c-1.516 0-2.976 0.24-4.346 0.681 2.29-2.521 3.684-5.869 3.684-9.542 0-7.841-6.356-14.197-14.197-14.197s-14.197 6.355-14.197 14.197c0 4.082 1.727 7.76 4.484 10.35-1.152-0.302-2.362-0.465-3.609-0.465-7.841 0-14.197 6.356-14.197 14.197s6.356 14.197 14.197 14.197c4.555 0 8.606-1.996 11.203-5.331-0.649 8.7-1.338 15.666-1.338 15.666h8.509s-1.006-7.729-1.85-17.305c2.565 3.685 6.829 6.021 11.657 6.021 7.842 0 14.198-6.395 14.198-14.235 0.02-7.86-6.34-14.25-14.18-14.25zm-18.19 4.93c-0.022 0.045-0.044 0.089-0.066 0.134-0.07-0.067-0.14-0.134-0.211-0.201 0.09 0.03 0.19 0.05 0.28 0.07z"/>
		<path d="m661.59 679.24c0-7.84-6.356-14.221-14.197-14.221-4.829 0-9.093 1.952-11.656 5.638 0.842-9.576 1.849-17.66 1.849-17.66h-8.509s0.688 7.32 1.339 16.021c-2.598-3.336-6.648-5.183-11.204-5.183-7.841 0-14.197 6.459-14.197 14.3 0 7.84 6.356 14.249 14.197 14.249 1.248 0 2.457-0.138 3.61-0.439-2.759 2.59-4.485 6.281-4.485 10.363 0 7.841 6.356 14.202 14.198 14.202 7.84 0 14.196-6.351 14.196-14.193 0-3.673-1.395-7.018-3.684-9.539 1.37 0.44 2.83 0.681 4.346 0.681 7.83 0 14.18-6.38 14.18-14.22zm-32.66 9.35c0.071-0.067 0.143-0.134 0.212-0.201 0.021 0.043 0.044 0.089 0.066 0.134-0.1 0.03-0.19 0.05-0.28 0.07z"/>
	</g>


	
		
			<path d="m119.61 799c-5.549 0-9.608-4.351-9.608-9.365v-776.12c0-5.015 4.06-9.52 9.61-9.52h564.38c5.55 0 10.01 4.505 10.01 9.521v776.11c0 5.015-4.459 9.365-10.009 9.365h-564.38z" fill="#fff"/>
			<path d="m684.01 8.032c3.879 0 6.988 2.146 6.988 5.489v776.11c0 3.343-3.131 6.365-7.009 6.365h-564.38c-3.877 0-7.608-3.022-7.608-6.365v-776.12c0-3.343 3.73-5.52 7.61-5.52h564.39m-0.01-6h-564.38c-7.23 0-13.61 4.823-13.61 11.521v776.11c0 6.696 6.375 12.365 13.608 12.365h564.38c7.232 0 13.009-5.669 13.009-12.365v-776.12c0-6.697-5.56-11.52-12.8-11.52h-0.21z"/>
		
		
			
				
					<path d="m151.38 47.381c0-2.351 0.4-4.515 1.2-6.489 0.798-1.975 1.933-3.673 3.402-5.096 1.469-1.422 3.25-2.533 5.343-3.333 2.092-0.799 4.443-1.199 7.053-1.199 3.22 0 5.866 0.665 7.935 1.993s3.721 3.039 4.955 5.131c1.234 2.093 2.086 4.403 2.557 6.93 0.47 2.528 0.706 5.026 0.706 7.495 0 1.763-0.119 3.697-0.353 5.801-0.236 2.104-0.641 4.203-1.217 6.295-0.576 2.093-1.333 4.115-2.274 6.066-0.941 1.952-2.134 3.673-3.58 5.166-1.446 1.494-3.156 2.681-5.131 3.563-1.974 0.882-4.255 1.322-6.841 1.322-1.505 0-3.015-0.118-4.531-0.353-1.517-0.235-2.874-0.618-4.074-1.146-1.198-0.529-2.186-1.252-2.962-2.169-0.777-0.917-1.164-2.021-1.164-3.314 0-1.105 0.353-2.069 1.058-2.892 0.706-0.823 1.681-1.234 2.927-1.234 0.776 0 1.522 0.265 2.24 0.793 0.716 0.529 1.075 1.346 1.075 2.451 0 0.493-0.105 0.882-0.317 1.164-0.212 0.283-0.317 0.624-0.317 1.022 0 1.152 0.611 1.97 1.834 2.452 1.222 0.482 2.773 0.723 4.654 0.723 2.164 0 3.991-0.582 5.484-1.747 1.494-1.164 2.686-2.738 3.58-4.725 0.893-1.986 1.545-4.332 1.957-7.036s0.641-5.596 0.688-8.676c-1.599 2.164-3.338 3.656-5.219 4.479-1.882 0.824-3.974 1.234-6.278 1.234-2.751 0-5.038-0.411-6.859-1.234-1.823-0.823-3.292-1.922-4.408-3.297-1.117-1.376-1.917-2.939-2.398-4.691-0.48-1.751-0.72-3.567-0.72-5.449zm7.3-0.141c0 1.341 0.1 2.71 0.3 4.109 0.199 1.399 0.611 2.651 1.234 3.756s1.486 2.022 2.592 2.75c1.105 0.729 2.597 1.094 4.479 1.094 1.48 0 2.838-0.3 4.072-0.9s2.287-1.404 3.156-2.416c0.871-1.01 1.546-2.18 2.029-3.509 0.48-1.328 0.722-2.721 0.722-4.178 0-1.764-0.147-3.492-0.44-5.185-0.295-1.692-0.788-3.185-1.481-4.478-0.694-1.293-1.657-2.339-2.892-3.139-1.234-0.798-2.792-1.199-4.672-1.199-1.929 0-3.492 0.435-4.691 1.305-1.2 0.87-2.122 1.957-2.769 3.262s-1.082 2.739-1.305 4.302c-0.23 1.564-0.34 3.039-0.34 4.426z"/>
				
			
			
				
					<path d="m650.26 766.54c0 2.35-0.399 4.514-1.199 6.488-0.798 1.974-1.933 3.672-3.403 5.096-1.468 1.422-3.249 2.533-5.342 3.332-2.093 0.8-4.444 1.199-7.054 1.199-3.22 0-5.865-0.663-7.936-1.992-2.067-1.329-3.72-3.039-4.955-5.13-1.233-2.094-2.085-4.403-2.556-6.931-0.47-2.527-0.706-5.026-0.706-7.494 0-1.765 0.119-3.697 0.354-5.802s0.641-4.202 1.217-6.294c0.576-2.094 1.334-4.115 2.274-6.065 0.94-1.952 2.134-3.674 3.579-5.167 1.446-1.494 3.156-2.681 5.132-3.563 1.975-0.883 4.255-1.323 6.841-1.323 1.506 0 3.015 0.119 4.532 0.354s2.874 0.618 4.072 1.146c1.199 0.528 2.188 1.251 2.963 2.169 0.777 0.917 1.164 2.021 1.164 3.313 0 1.106-0.353 2.07-1.058 2.893-0.705 0.824-1.682 1.235-2.927 1.235-0.777 0-1.523-0.265-2.24-0.794-0.716-0.529-1.076-1.347-1.076-2.451 0-0.494 0.106-0.883 0.317-1.164 0.213-0.282 0.317-0.623 0.317-1.022 0-1.152-0.611-1.969-1.833-2.451-1.223-0.482-2.773-0.724-4.654-0.724-2.164 0-3.991 0.583-5.485 1.747-1.492 1.164-2.685 2.739-3.579 4.725-0.893 1.986-1.545 4.332-1.956 7.036-0.412 2.703-0.642 5.596-0.689 8.676 1.6-2.164 3.34-3.657 5.22-4.479 1.881-0.824 3.974-1.233 6.277-1.233 2.752 0 5.037 0.409 6.859 1.233 1.823 0.822 3.292 1.923 4.408 3.298 1.117 1.376 1.918 2.938 2.398 4.69 0.5 1.71 0.74 3.53 0.74 5.41zm-7.3 0.14c0-1.341-0.1-2.711-0.3-4.108-0.2-1.399-0.611-2.651-1.234-3.757s-1.486-2.022-2.592-2.749c-1.105-0.729-2.599-1.095-4.479-1.095-1.48 0-2.839 0.301-4.074 0.9-1.234 0.599-2.286 1.404-3.155 2.416-0.87 1.009-1.546 2.179-2.028 3.508-0.482 1.328-0.724 2.721-0.724 4.179 0 1.764 0.148 3.492 0.441 5.185 0.295 1.692 0.788 3.185 1.481 4.478 0.694 1.294 1.657 2.341 2.893 3.14 1.233 0.8 2.791 1.2 4.672 1.2 1.929 0 3.492-0.437 4.69-1.306 1.198-0.87 2.122-1.957 2.769-3.263 0.647-1.304 1.082-2.739 1.306-4.302 0.2-1.57 0.32-3.05 0.32-4.43z"/>
				
			
		
	
	<g clip-rule="evenodd" fill-rule="evenodd">
		<path d="m178.21 113.97c-1.516 0-2.976 0.24-4.346 0.681 2.291-2.521 3.684-5.869 3.684-9.542 0-7.841-6.356-14.197-14.197-14.197s-14.198 6.355-14.198 14.197c0 4.082 1.727 7.76 4.486 10.35-1.154-0.302-2.363-0.465-3.61-0.465-7.842 0-14.197 6.357-14.197 14.197 0 7.841 6.354 14.197 14.197 14.197 4.555 0 8.605-1.357 11.203-4.692-0.649 8.7-1.338 16.305-1.338 16.305h8.508s-1.006-8.368-1.849-17.943c2.564 3.685 6.827 5.701 11.657 5.701 7.842 0 14.197-6.553 14.197-14.395 0.01-7.86-6.34-14.41-14.19-14.41zm-18.19 4.94c-0.022 0.045-0.044 0.089-0.066 0.134-0.07-0.067-0.141-0.134-0.212-0.201 0.1 0.02 0.19 0.04 0.28 0.07z"/>
		<path d="m664.13 688.97c0-7.841-6.356-14.221-14.197-14.221-4.829 0-9.093 2.591-11.657 6.276 0.843-9.576 1.85-17.021 1.85-17.021h-8.509s0.689 6.682 1.339 15.383c-2.598-3.336-6.648-5.502-11.204-5.502-7.841 0-14.196 6.299-14.196 14.14 0 7.84 6.355 14.168 14.196 14.168 1.247 0 2.457-0.177 3.611-0.479-2.76 2.591-4.486 6.262-4.486 10.344 0 7.841 6.357 14.194 14.197 14.194 7.841 0 14.196-6.356 14.196-14.198 0-3.674-1.394-7.021-3.683-9.543 1.369 0.441 2.83 0.681 4.346 0.681 7.83 0 14.19-6.38 14.19-14.22zm-32.67 9.34c0.071-0.066 0.143-0.134 0.211-0.202 0.022 0.046 0.045 0.091 0.066 0.136-0.1 0.02-0.19 0.04-0.28 0.06z"/>
	</g>
	<g clip-rule="evenodd" fill-rule="evenodd">
		<path d="m263.87 657.49c-2.726 0-5.351 0.433-7.813 1.224 4.113-4.529 6.621-10.545 6.621-17.146 0-14.09-11.423-25.513-25.511-25.513-14.094 0-25.516 11.423-25.516 25.513 0 7.338 3.103 13.944 8.059 18.602-2.071-0.543-4.246-0.836-6.486-0.836-14.091 0-25.515 11.423-25.515 25.513 0 14.091 11.423 25.514 25.515 25.514 8.185 0 15.465-3.054 20.134-9.048-1.169 15.637-2.405 28.686-2.405 28.686h15.289s-1.808-14.422-3.322-31.631c4.608 6.619 12.27 10.555 20.951 10.555 14.089 0 25.512-11.624 25.512-25.716 0.01-14.06-11.41-25.69-25.5-25.69zm-32.69 8.88c-0.039 0.08-0.078 0.158-0.12 0.239-0.125-0.121-0.25-0.24-0.378-0.361 0.16 0.04 0.33 0.08 0.5 0.12z"/>
		<path d="m263.87 489.36c-2.726 0-5.351 0.432-7.813 1.224 4.113-4.531 6.621-10.547 6.621-17.146 0-14.092-11.423-25.514-25.511-25.514-14.094 0-25.516 11.422-25.516 25.514 0 7.336 3.103 13.945 8.059 18.599-2.071-0.543-4.246-0.835-6.486-0.835-14.091 0-25.515 11.423-25.515 25.514 0 14.09 11.423 25.514 25.515 25.514 8.185 0 15.465-2.984 20.134-8.979-1.169 15.635-2.405 28.754-2.405 28.754h15.289s-1.808-14.492-3.322-31.701c4.608 6.621 12.27 10.521 20.951 10.521 14.089 0 25.512-11.642 25.512-25.732s-11.41-25.72-25.5-25.72zm-32.69 8.87c-0.039 0.08-0.078 0.16-0.12 0.239-0.125-0.122-0.25-0.24-0.378-0.36 0.16 0.04 0.33 0.08 0.5 0.12z"/>
		<path d="m262.98 312.37c-2.727 0-5.351 0.432-7.813 1.224 4.113-4.531 6.623-10.546 6.623-17.147 0-14.091-11.426-25.514-25.514-25.514-14.093 0-25.515 11.422-25.515 25.514 0 7.336 3.103 13.945 8.059 18.599-2.07-0.542-4.244-0.834-6.487-0.834-14.09 0-25.514 11.422-25.514 25.512 0 14.091 11.423 25.515 25.514 25.515 8.185 0 15.466-2.993 20.136-8.985-1.17 15.636-2.407 28.748-2.407 28.748h15.289s-1.806-14.486-3.321-31.693c4.608 6.621 12.27 10.523 20.951 10.523 14.089 0 25.513-11.64 25.513-25.731s-11.42-25.74-25.51-25.74zm-32.69 8.87c-0.037 0.081-0.08 0.159-0.118 0.24-0.124-0.122-0.25-0.242-0.38-0.361 0.17 0.05 0.33 0.08 0.5 0.12z"/>
		<path d="m262.98 156.7c-2.727 0-5.351 0.433-7.813 1.224 4.113-4.531 6.623-10.546 6.623-17.146 0-14.091-11.426-25.513-25.514-25.513-14.093 0-25.515 11.422-25.515 25.513 0 7.336 3.103 13.945 8.059 18.598-2.07-0.542-4.244-0.833-6.487-0.833-14.09 0-25.514 11.422-25.514 25.512 0 14.092 11.423 25.515 25.514 25.515 8.185 0 15.466-2.659 20.136-8.652-1.17 15.636-2.407 29.081-2.407 29.081h15.289s-1.806-14.819-3.321-32.026c4.608 6.62 12.27 10.356 20.951 10.356 14.089 0 25.513-11.723 25.513-25.814 0.01-14.09-11.42-25.81-25.51-25.81zm-32.69 8.88c-0.037 0.081-0.08 0.159-0.118 0.24-0.124-0.122-0.25-0.242-0.38-0.361 0.17 0.04 0.33 0.08 0.5 0.12z"/>
		<path d="m570.98 657.49c-2.727 0-5.351 0.433-7.813 1.224 4.113-4.529 6.622-10.545 6.622-17.146 0-14.09-11.424-25.513-25.512-25.513-14.094 0-25.516 11.423-25.516 25.513 0 7.338 3.103 13.944 8.059 18.602-2.071-0.543-4.246-0.836-6.486-0.836-14.092 0-25.515 11.423-25.515 25.513 0 14.091 11.423 25.514 25.515 25.514 8.185 0 15.465-3.054 20.134-9.048-1.168 15.637-2.404 28.686-2.404 28.686h15.289s-1.81-14.422-3.323-31.631c4.608 6.619 12.271 10.555 20.951 10.555 14.089 0 25.512-11.624 25.512-25.716 0-14.06-11.43-25.69-25.52-25.69zm-32.69 8.88c-0.04 0.08-0.079 0.158-0.121 0.239-0.124-0.121-0.249-0.24-0.377-0.361 0.17 0.04 0.33 0.08 0.5 0.12z"/>
		<path d="m415.07 414.77c-2.725 0-5.349 0.433-7.813 1.224 4.114-4.53 6.621-10.546 6.621-17.147 0-14.09-11.423-25.513-25.511-25.513-14.094 0-25.516 11.422-25.516 25.513 0 7.338 3.103 13.945 8.06 18.601-2.072-0.542-4.247-0.835-6.486-0.835-14.091 0-25.515 11.423-25.515 25.513 0 14.091 11.423 25.514 25.515 25.514 8.185 0 15.465-2.69 20.134-8.685-1.169 15.635-2.405 29.049-2.405 29.049h15.289s-1.808-14.787-3.322-31.994c4.607 6.619 12.271 10.372 20.949 10.372 14.09 0 25.514-11.714 25.514-25.805 0.01-14.08-11.41-25.79-25.5-25.79zm-32.69 8.87c-0.039 0.081-0.078 0.159-0.12 0.24-0.125-0.122-0.251-0.241-0.379-0.362 0.16 0.05 0.33 0.08 0.5 0.12z"/>
		<path d="m570.98 489.36c-2.727 0-5.351 0.432-7.813 1.224 4.113-4.531 6.622-10.547 6.622-17.146 0-14.092-11.424-25.514-25.512-25.514-14.094 0-25.516 11.422-25.516 25.514 0 7.336 3.103 13.945 8.059 18.599-2.071-0.543-4.246-0.835-6.486-0.835-14.092 0-25.515 11.423-25.515 25.514 0 14.09 11.423 25.514 25.515 25.514 8.185 0 15.465-2.984 20.134-8.979-1.168 15.635-2.404 28.754-2.404 28.754h15.289s-1.81-14.492-3.323-31.701c4.608 6.621 12.271 10.521 20.951 10.521 14.089 0 25.512-11.642 25.512-25.732s-11.43-25.72-25.52-25.72zm-32.69 8.87c-0.04 0.08-0.079 0.16-0.121 0.239-0.124-0.122-0.249-0.24-0.377-0.36 0.17 0.04 0.33 0.08 0.5 0.12z"/>
		<path d="m570.1 312.37c-2.728 0-5.351 0.432-7.813 1.224 4.112-4.531 6.622-10.546 6.622-17.147 0-14.091-11.425-25.514-25.514-25.514-14.092 0-25.515 11.422-25.515 25.514 0 7.336 3.103 13.945 8.059 18.599-2.07-0.542-4.244-0.834-6.487-0.834-14.09 0-25.514 11.422-25.514 25.512 0 14.091 11.424 25.515 25.514 25.515 8.185 0 15.467-2.993 20.136-8.985-1.17 15.636-2.407 28.748-2.407 28.748h15.29s-1.808-14.486-3.322-31.693c4.608 6.621 12.271 10.523 20.951 10.523 14.089 0 25.512-11.64 25.512-25.731s-11.42-25.74-25.51-25.74zm-32.7 8.87c-0.037 0.081-0.079 0.159-0.117 0.24-0.125-0.122-0.25-0.242-0.379-0.361 0.17 0.05 0.34 0.08 0.5 0.12z"/>
		<path d="m570.1 156.7c-2.728 0-5.351 0.433-7.813 1.224 4.112-4.531 6.622-10.546 6.622-17.146 0-14.091-11.425-25.513-25.514-25.513-14.092 0-25.515 11.422-25.515 25.513 0 7.336 3.103 13.945 8.059 18.598-2.07-0.542-4.244-0.833-6.487-0.833-14.09 0-25.514 11.422-25.514 25.512 0 14.092 11.424 25.515 25.514 25.515 8.185 0 15.467-2.659 20.136-8.652-1.17 15.636-2.407 29.081-2.407 29.081h15.29s-1.808-14.819-3.322-32.026c4.608 6.62 12.271 10.356 20.951 10.356 14.089 0 25.512-11.723 25.512-25.814 0-14.09-11.42-25.81-25.51-25.81zm-32.7 8.88c-0.037 0.081-0.079 0.159-0.117 0.24-0.125-0.122-0.25-0.242-0.379-0.361 0.17 0.04 0.34 0.08 0.5 0.12z"/>
	</g>

<metadata><rdfRDF><ccWork><dcFormat>image/svg+xml</dcFormat><dcType rdfResource="http://purl.org/dc/dcmitype/StillImage"/><ccLicense rdfResource="http://creativecommons.org/licenses/publicdomain/"/><dcPublisher><ccAgent rdfAbout="http://openclipart.org/"><dcTitle>Openclipart</dcTitle></ccAgent></dcPublisher></ccWork><ccLicense rdfAbout="http://creativecommons.org/licenses/publicdomain/"><ccPermits rdfResource="http://creativecommons.org/ns#Reproduction"/><ccPermits rdfResource="http://creativecommons.org/ns#Distribution"/><ccPermits rdfResource="http://creativecommons.org/ns#DerivativeWorks"/></ccLicense></rdfRDF></metadata></svg>
