<?xml version="1.0" encoding="UTF-8"?>
<svg enable-background="new 0 0 800 800" version="1.1" viewBox="108 0 592 800" xmlSpace="preserve" xmlns="http://www.w3.org/2000/svg" xmlnsCc="http://web.resource.org/cc/" xmlnsDc="http://purl.org/dc/elements/1.1/" xmlnsRdf="http://www.w3.org/1999/02/22-rdf-syntax-ns#">

	
		
			<path d="m118.87 799c-5.552 0-9.868-4.04-9.868-9.058v-776.42c0-5.013 4.32-9.52 9.87-9.52h564.6c5.55 0 10.53 4.507 10.53 9.525v776.42c0 5.018-4.977 9.058-10.528 9.058h-564.6z" fill="#fff"/>
			<path d="m683.51 8.033c3.879 0 6.488 2.147 6.488 5.492v776.42c0 3.345-2.649 7.058-6.528 7.058h-564.6c-3.879 0-7.868-3.713-7.868-7.058v-776.42c0-3.34 3.99-5.52 7.87-5.52h565.13m-0.53-6h-564.6c-7.24 0-13.87 4.824-13.87 11.525v776.42c0 6.7 6.631 13.058 13.868 13.058h564.6c7.235 0 12.528-6.357 12.528-13.058v-776.42c0-6.696-5.32-11.52-12.56-11.52h0.03z"/>
		
		
			
				
					<path d="m152.4 31.949c-1.106 0-1.958 0.083-2.558 0.247s-1.1 0.488-1.499 0.969c-0.401 0.484-0.771 1.147-1.111 1.994-0.341 0.847-0.782 1.94-1.323 3.28-0.071 0.189-0.2 0.325-0.388 0.407-0.188 0.081-0.4 0.123-0.635 0.123-0.353 0-0.694-0.082-1.023-0.248-0.33-0.164-0.494-0.352-0.494-0.564 0.211-2.116 0.499-3.945 0.864-5.485 0.364-1.54 0.864-2.817 1.5-3.829 0.635-1.011 1.44-1.758 2.417-2.239 0.976-0.482 2.182-0.724 3.617-0.724 2.375 0 4.438 0.07 6.191 0.212 1.752 0.141 3.352 0.3 4.798 0.476s2.81 0.334 4.092 0.477c1.282 0.141 2.64 0.211 4.075 0.211 1.27 0 2.417-0.124 3.44-0.37 1.023-0.247 1.923-0.488 2.699-0.723 0.283-0.047 0.535 0.012 0.759 0.175 0.223 0.166 0.406 0.359 0.547 0.583 0.141 0.222 0.234 0.453 0.282 0.687 0.047 0.235 0.047 0.401 0 0.494-0.894 1.74-1.917 3.534-3.069 5.38-1.153 1.847-2.364 3.706-3.634 5.575-1.27 1.87-2.576 3.751-3.916 5.645-1.341 1.893-2.64 3.77-3.898 5.627s-2.447 3.687-3.563 5.485c-1.118 1.801-2.099 3.547-2.946 5.24-0.542 1.058-0.906 2.058-1.094 2.999-0.188 0.94-0.282 1.823-0.282 2.647 0 0.869 0.176 1.798 0.528 2.787 0.376 0.964 0.565 1.847 0.565 2.646 0 0.517-0.135 0.958-0.406 1.322s-0.6 0.659-0.987 0.881c-0.389 0.224-0.812 0.389-1.271 0.496-0.458 0.105-0.876 0.159-1.252 0.159-0.823 0-1.535-0.271-2.134-0.813-0.6-0.54-0.9-1.304-0.9-2.292 0-0.399 0.047-0.964 0.141-1.693 0.094-0.73 0.253-1.552 0.476-2.471 0.224-0.917 0.512-1.899 0.865-2.946 0.352-1.045 0.776-2.086 1.27-3.122 0.822-1.741 1.916-3.674 3.281-5.804 1.364-2.127 2.852-4.368 4.463-6.72 1.61-2.353 3.251-4.758 4.921-7.215s3.222-4.886 4.657-7.286c0.259-0.445 0.288-0.752 0.089-0.917-0.201-0.164-0.489-0.246-0.865-0.246-1.153 0-2.282-0.076-3.387-0.23-1.105-0.153-2.316-0.329-3.634-0.528-1.317-0.2-2.805-0.377-4.463-0.531-1.67-0.152-3.6-0.228-5.82-0.228z"/>
				
			
			
				
					<path d="m633.41 770.16c1.105 0 1.959-0.084 2.558-0.248 0.601-0.164 1.1-0.488 1.501-0.97 0.399-0.482 0.77-1.146 1.111-1.994 0.341-0.847 0.781-1.94 1.321-3.28 0.071-0.189 0.201-0.324 0.389-0.406 0.188-0.081 0.4-0.122 0.635-0.122 0.354 0 0.694 0.081 1.024 0.246 0.329 0.164 0.492 0.353 0.492 0.564-0.21 2.116-0.498 3.945-0.863 5.485-0.364 1.54-0.864 2.817-1.499 3.829-0.636 1.01-1.44 1.758-2.417 2.239-0.976 0.481-2.182 0.724-3.617 0.724-2.375 0-4.438-0.07-6.191-0.213-1.752-0.14-3.352-0.299-4.798-0.476-1.446-0.176-2.81-0.334-4.093-0.477-1.282-0.14-2.64-0.211-4.074-0.211-1.27 0-2.416 0.124-3.439 0.37s-1.924 0.487-2.699 0.723c-0.283 0.047-0.535-0.012-0.759-0.175-0.224-0.166-0.406-0.359-0.546-0.583-0.143-0.223-0.234-0.453-0.282-0.688-0.048-0.236-0.048-0.4 0-0.494 0.894-1.74 1.916-3.533 3.068-5.38 1.153-1.847 2.365-3.705 3.636-5.575 1.27-1.869 2.575-3.751 3.914-5.644 1.34-1.894 2.642-3.77 3.899-5.628 1.258-1.857 2.445-3.687 3.563-5.485 1.117-1.801 2.1-3.547 2.946-5.239 0.541-1.059 0.905-2.059 1.094-2.999s0.281-1.823 0.281-2.646c0-0.87-0.176-1.799-0.528-2.786-0.377-0.965-0.564-1.848-0.564-2.647 0-0.517 0.135-0.957 0.405-1.321 0.271-0.365 0.599-0.659 0.988-0.883 0.388-0.223 0.811-0.388 1.27-0.494 0.46-0.106 0.876-0.159 1.254-0.159 0.822 0 1.533 0.271 2.133 0.813 0.601 0.541 0.899 1.305 0.899 2.293 0 0.399-0.046 0.964-0.14 1.692-0.095 0.73-0.254 1.553-0.477 2.471-0.224 0.917-0.512 1.899-0.864 2.946-0.354 1.045-0.778 2.086-1.27 3.122-0.824 1.74-1.917 3.674-3.282 5.804-1.364 2.128-2.852 4.368-4.463 6.72-1.61 2.354-3.251 4.758-4.922 7.215-1.669 2.457-3.221 4.885-4.656 7.286-0.259 0.445-0.288 0.753-0.088 0.917 0.198 0.163 0.487 0.246 0.865 0.246 1.151 0 2.28 0.075 3.386 0.23 1.106 0.152 2.317 0.329 3.635 0.528 1.316 0.2 2.803 0.376 4.462 0.53 1.69 0.17 3.62 0.25 5.83 0.25z"/>
				
			
		
	
	<g clip-rule="evenodd" fill-rule="evenodd">
		<path d="m160.99 79.816c-3.671 13.972-20.919 18.653-21.619 36.45-0.55 13.958 12.882 15.81 19.427 5.838-0.171 8.637-2.661 20.896-2.661 20.896h9.207s-3.039-11.353-3.214-20.46c5.585 9.691 18.434 6.945 18.334-5.483-0.11-13.84-18.86-25.74-19.48-37.254z"/>
		<path d="m629.54 721.4c3.671-13.973 20.919-18.654 21.618-36.45 0.551-13.958-12.882-16.417-19.427-6.446 0.172-8.637 2.661-21.499 2.661-21.499h-9.206s3.039 11.958 3.214 21.065c-5.585-9.69-18.434-6.642-18.335 5.786 0.11 13.83 18.86 26.03 19.48 37.55z"/>
	</g>
	<path d="m244.81 576.42c-8.682 33.045-49.472 44.115-51.13 86.207-1.301 33.008 30.471 38.461 45.947 14.878-0.407 20.428-6.294 50.491-6.294 50.491h21.773s-7.186-27.922-7.601-49.46c13.208 22.919 43.596 15.887 43.36-13.506-0.27-32.7-44.61-61.37-46.06-88.61z" clip-rule="evenodd" fill-rule="evenodd"/>
	<path d="m244.81 345.92c-8.682 33.044-49.472 44.114-51.13 86.207-1.301 33.007 30.471 38.21 45.947 14.628-0.407 20.426-6.294 50.24-6.294 50.24h21.773s-7.186-27.672-7.601-49.211c13.208 22.92 43.596 16.014 43.36-13.38-0.27-32.7-44.61-61.25-46.06-88.49z" clip-rule="evenodd" fill-rule="evenodd"/>
	<path d="m395.24 210.05c-8.682 33.044-49.472 44.114-51.13 86.206-1.3 33.007 30.472 38.148 45.947 14.564-0.406 20.427-6.294 50.178-6.294 50.178h21.774s-7.187-27.608-7.601-49.146c13.208 22.919 43.597 16.044 43.361-13.349-0.27-32.7-44.61-61.21-46.06-88.45z" clip-rule="evenodd" fill-rule="evenodd"/>
	<path d="m244.81 103.3c-8.682 33.044-49.472 44.114-51.13 86.206-1.301 33.007 30.471 38.026 45.947 14.443-0.407 20.427-6.294 50.056-6.294 50.056h21.773s-7.186-27.486-7.601-49.024c13.208 22.917 43.596 16.104 43.36-13.289-0.27-32.71-44.61-61.17-46.06-88.4z" clip-rule="evenodd" fill-rule="evenodd"/>
	<path d="m555.38 571.57c-8.682 33.045-49.472 44.114-51.131 86.207-1.3 33.007 30.472 38.388 45.947 14.804-0.405 20.426-6.294 50.418-6.294 50.418h21.774s-7.187-27.85-7.602-49.387c13.209 22.918 43.597 15.925 43.36-13.469-0.27-32.7-44.61-61.34-46.06-88.57z" clip-rule="evenodd" fill-rule="evenodd"/>
	<path d="m555.38 341.07c-8.682 33.044-49.472 44.115-51.131 86.206-1.3 33.008 30.472 38.138 45.947 14.556-0.41 20.42-6.3 50.16-6.3 50.16h21.774s-7.187-27.598-7.602-49.137c13.209 22.918 43.597 16.05 43.36-13.343-0.26-32.7-44.6-61.21-46.05-88.45z" clip-rule="evenodd" fill-rule="evenodd"/>
	<path d="m555.38 98.442c-8.682 33.044-49.472 44.114-51.131 86.206-1.3 33.008 30.472 38.453 45.947 14.87-0.405 20.427-6.294 50.482-6.294 50.482h21.774s-7.187-27.913-7.602-49.452c13.209 22.919 43.597 15.893 43.36-13.5-0.27-32.7-44.61-61.37-46.06-88.608z" clip-rule="evenodd" fill-rule="evenodd"/>

<metadata><rdfRDF><ccWork><dcFormat>image/svg+xml</dcFormat><dcType rdfResource="http://purl.org/dc/dcmitype/StillImage"/><ccLicense rdfResource="http://creativecommons.org/licenses/publicdomain/"/><dcPublisher><ccAgent rdfAbout="http://openclipart.org/"><dcTitle>Openclipart</dcTitle></ccAgent></dcPublisher></ccWork><ccLicense rdfAbout="http://creativecommons.org/licenses/publicdomain/"><ccPermits rdfResource="http://creativecommons.org/ns#Reproduction"/><ccPermits rdfResource="http://creativecommons.org/ns#Distribution"/><ccPermits rdfResource="http://creativecommons.org/ns#DerivativeWorks"/></ccLicense></rdfRDF></metadata></svg>
