<?xml version="1.0" encoding="UTF-8"?>
<svg enable-background="new 0 0 800 800" version="1.1" viewBox="108 0 592 800" xmlSpace="preserve" xmlns="http://www.w3.org/2000/svg" xmlnsCc="http://web.resource.org/cc/" xmlnsDc="http://purl.org/dc/elements/1.1/" xmlnsRdf="http://www.w3.org/1999/02/22-rdf-syntax-ns#">

	
		
			<path d="m119.61 799c-5.549 0-9.608-4.351-9.608-9.365v-776.12c0-5.015 4.06-9.52 9.61-9.52h564.38c5.55 0 10.01 4.505 10.01 9.521v776.11c0 5.015-4.459 9.365-10.009 9.365h-564.38z" fill="#fff"/>
			<path d="m684.01 8.032c3.879 0 6.988 2.146 6.988 5.489v776.11c0 3.343-3.131 6.365-7.009 6.365h-564.38c-3.877 0-7.608-3.022-7.608-6.365v-776.12c0-3.343 3.73-5.52 7.61-5.52h564.39m-0.01-6h-564.38c-7.23 0-13.61 4.823-13.61 11.521v776.11c0 6.696 6.375 12.365 13.608 12.365h564.38c7.232 0 13.009-5.669 13.009-12.365v-776.12c0-6.697-5.56-11.52-12.8-11.52h-0.21z"/>
		
		
			
				
					<path d="m153.13 31.937c-1.106 0-1.958 0.083-2.557 0.247-0.601 0.165-1.1 0.489-1.5 0.97-0.4 0.482-0.77 1.146-1.111 1.992s-0.781 1.94-1.323 3.28c-0.07 0.188-0.2 0.323-0.387 0.406-0.188 0.083-0.4 0.123-0.635 0.123-0.353 0-0.694-0.082-1.023-0.247-0.33-0.164-0.494-0.353-0.494-0.564 0.212-2.116 0.5-3.944 0.865-5.484 0.363-1.54 0.863-2.815 1.498-3.826 0.636-1.011 1.44-1.757 2.416-2.239 0.976-0.481 2.181-0.723 3.615-0.723 2.375 0 4.438 0.07 6.189 0.211 1.751 0.142 3.35 0.3 4.796 0.477 1.446 0.176 2.809 0.334 4.09 0.476 1.281 0.141 2.64 0.211 4.074 0.211 1.27 0 2.416-0.124 3.438-0.37 1.023-0.247 1.922-0.488 2.698-0.723 0.283-0.047 0.535 0.012 0.759 0.176 0.223 0.165 0.405 0.358 0.546 0.582s0.234 0.453 0.282 0.687c0.047 0.236 0.047 0.4 0 0.494-0.893 1.74-1.916 3.533-3.067 5.378-1.152 1.846-2.364 3.703-3.633 5.572-1.27 1.869-2.574 3.75-3.914 5.643s-2.64 3.768-3.897 5.625c-1.258 1.857-2.446 3.686-3.561 5.484-1.118 1.799-2.099 3.544-2.945 5.237-0.542 1.058-0.905 2.058-1.093 2.997-0.188 0.941-0.282 1.823-0.282 2.645 0 0.87 0.176 1.798 0.528 2.786 0.376 0.964 0.564 1.846 0.564 2.645 0 0.518-0.136 0.958-0.406 1.322-0.27 0.365-0.6 0.658-0.987 0.882-0.388 0.223-0.811 0.388-1.271 0.494-0.458 0.106-0.875 0.159-1.252 0.159-0.823 0-1.534-0.271-2.133-0.811-0.6-0.541-0.9-1.305-0.9-2.292 0-0.399 0.047-0.964 0.141-1.693 0.095-0.728 0.253-1.551 0.476-2.468 0.224-0.917 0.511-1.898 0.864-2.945 0.353-1.046 0.776-2.086 1.27-3.121 0.823-1.74 1.916-3.673 3.28-5.801 1.363-2.127 2.851-4.367 4.461-6.718 1.609-2.351 3.25-4.755 4.919-7.212 1.668-2.456 3.22-4.884 4.655-7.282 0.258-0.446 0.288-0.752 0.087-0.917-0.2-0.164-0.488-0.247-0.864-0.247-1.151 0-2.28-0.076-3.385-0.229-1.106-0.153-2.316-0.329-3.633-0.529s-2.803-0.376-4.461-0.529c-1.69-0.155-3.63-0.231-5.84-0.231z"/>
				
			
			
				
					<path d="m633.95 769.85c1.104 0 1.957-0.083 2.557-0.247 0.6-0.163 1.099-0.488 1.499-0.969 0.4-0.483 0.77-1.146 1.111-1.993s0.781-1.939 1.321-3.279c0.071-0.189 0.201-0.324 0.389-0.406s0.4-0.123 0.635-0.123c0.353 0 0.693 0.082 1.023 0.247 0.329 0.164 0.492 0.353 0.492 0.564-0.211 2.114-0.499 3.943-0.863 5.482-0.363 1.54-0.863 2.816-1.498 3.828-0.636 1.01-1.44 1.757-2.416 2.238s-2.182 0.724-3.615 0.724c-2.375 0-4.438-0.07-6.189-0.212s-3.35-0.3-4.796-0.477c-1.446-0.175-2.809-0.334-4.092-0.476-1.281-0.142-2.639-0.211-4.072-0.211-1.27 0-2.416 0.123-3.438 0.369s-1.923 0.488-2.697 0.723c-0.283 0.047-0.535-0.012-0.759-0.176-0.225-0.166-0.406-0.358-0.546-0.582-0.143-0.223-0.235-0.453-0.282-0.688-0.048-0.235-0.048-0.4 0-0.493 0.893-1.74 1.916-3.533 3.067-5.378 1.152-1.847 2.363-3.704 3.633-5.573s2.575-3.749 3.914-5.642c1.34-1.893 2.64-3.769 3.897-5.625 1.258-1.857 2.444-3.686 3.562-5.483 1.116-1.8 2.099-3.546 2.945-5.238 0.54-1.058 0.904-2.057 1.093-2.997s0.281-1.822 0.281-2.646c0-0.869-0.176-1.798-0.529-2.785-0.375-0.965-0.563-1.847-0.563-2.646 0-0.516 0.135-0.956 0.405-1.321 0.271-0.364 0.6-0.658 0.987-0.881 0.389-0.224 0.812-0.389 1.27-0.495 0.46-0.105 0.877-0.159 1.253-0.159 0.822 0 1.534 0.271 2.133 0.813 0.601 0.54 0.899 1.305 0.899 2.292 0 0.399-0.047 0.964-0.14 1.692-0.095 0.729-0.254 1.551-0.477 2.469-0.224 0.917-0.512 1.898-0.864 2.945-0.353 1.045-0.777 2.086-1.27 3.121-0.823 1.739-1.916 3.672-3.28 5.801-1.363 2.127-2.851 4.367-4.461 6.718-1.609 2.352-3.25 4.756-4.92 7.212-1.668 2.456-3.22 4.884-4.655 7.283-0.258 0.445-0.288 0.752-0.088 0.917 0.199 0.163 0.488 0.246 0.865 0.246 1.15 0 2.279 0.075 3.384 0.229 1.106 0.152 2.316 0.329 3.634 0.528 1.316 0.2 2.802 0.377 4.46 0.53 1.68 0.19 3.61 0.26 5.82 0.26z"/>
				
			
		
	
	<g clip-rule="evenodd" fill-rule="evenodd">
		<path d="m175.79 105.51c-1.516 0-2.976 0.241-4.346 0.681 2.29-2.521 3.684-5.869 3.684-9.542 0-7.842-6.356-14.197-14.197-14.197s-14.198 6.355-14.198 14.197c0 4.082 1.727 7.76 4.486 10.35-1.154-0.302-2.363-0.465-3.61-0.465-7.842 0-14.197 6.356-14.197 14.197s6.354 14.197 14.197 14.197c4.555 0 8.605-1.625 11.203-4.96-0.649 8.7-1.338 16.036-1.338 16.036h8.508s-1.007-8.1-1.849-17.675c2.564 3.685 6.827 5.836 11.657 5.836 7.842 0 14.197-6.487 14.197-14.328 0-7.86-6.35-14.34-14.19-14.34zm-18.19 4.93c-0.022 0.045-0.044 0.089-0.066 0.134-0.07-0.067-0.141-0.134-0.212-0.201 0.09 0.03 0.18 0.05 0.28 0.07z"/>
		<path d="m661.7 680.5c0-7.84-6.355-14.221-14.196-14.221-4.83 0-9.093 2.823-11.658 6.507 0.843-9.574 1.85-16.789 1.85-16.789h-8.509s0.689 6.451 1.34 15.15c-2.599-3.334-6.648-5.617-11.204-5.617-7.842 0-14.197 6.242-14.197 14.082s6.355 14.139 14.197 14.139c1.247 0 2.457-0.19 3.61-0.492-2.76 2.59-4.486 6.254-4.486 10.338 0 7.84 6.357 14.188 14.197 14.188 7.841 0 14.197-6.358 14.197-14.2 0-3.672-1.395-7.021-3.684-9.543 1.369 0.44 2.83 0.679 4.347 0.679 7.84-0.01 14.19-6.39 14.19-14.23zm-32.66 9.35c0.07-0.067 0.142-0.134 0.211-0.201 0.022 0.044 0.045 0.089 0.066 0.134-0.1 0.03-0.19 0.05-0.28 0.07z"/>
	</g>
	<g clip-rule="evenodd" fill-rule="evenodd">
		<path d="m302.24 626.94c-3.735 0-7.33 0.591-10.706 1.677 5.637-6.209 9.074-14.452 9.074-23.497 0-19.311-15.653-34.964-34.961-34.964-19.311 0-34.963 15.653-34.963 34.964 0 10.055 4.25 19.109 11.044 25.487-2.839-0.743-5.818-1.144-8.89-1.144-19.309 0-34.963 15.653-34.963 34.961 0 19.311 15.654 34.965 34.963 34.965 11.216 0 21.193-4.838 27.591-13.052-1.601 21.428-3.297 38.657-3.297 38.657h20.953s-2.477-19.112-4.553-42.693c6.315 9.071 16.815 14.789 28.708 14.789 19.31 0 34.962-15.767 34.962-35.076s-15.64-35.09-34.95-35.09zm-44.8 12.17c-0.052 0.11-0.107 0.218-0.162 0.329-0.172-0.167-0.345-0.331-0.52-0.496 0.22 0.06 0.45 0.11 0.68 0.17z"/>
		<path d="m302.24 396.54c-3.735 0-7.33 0.591-10.706 1.677 5.637-6.209 9.074-14.452 9.074-23.498 0-19.31-15.653-34.962-34.961-34.962-19.311 0-34.963 15.653-34.963 34.962 0 10.055 4.25 19.11 11.044 25.488-2.839-0.744-5.818-1.144-8.89-1.144-19.309 0-34.963 15.653-34.963 34.962 0 19.31 15.654 34.963 34.963 34.963 11.216 0 21.193-5.133 27.591-13.348-1.601 21.429-3.297 38.363-3.297 38.363h20.953s-2.477-18.817-4.553-42.398c6.315 9.071 16.815 14.937 28.708 14.937 19.31 0 34.962-15.692 34.962-35.001s-15.64-35-34.95-35zm-44.8 12.16c-0.052 0.11-0.107 0.219-0.162 0.329-0.172-0.167-0.345-0.332-0.52-0.496 0.22 0.06 0.45 0.11 0.68 0.17z"/>
		<path d="m301.03 154c-3.735 0-7.331 0.591-10.706 1.677 5.637-6.209 9.074-14.452 9.074-23.498 0-19.31-15.654-34.962-34.962-34.962-19.31 0-34.962 15.653-34.962 34.962 0 10.055 4.25 19.11 11.044 25.488-2.839-0.744-5.818-1.144-8.891-1.144-19.309 0-34.962 15.653-34.962 34.962 0 19.31 15.653 34.963 34.962 34.963 11.216 0 21.194-4.866 27.591-13.08-1.601 21.428-3.297 38.63-3.297 38.63h20.953s-2.478-19.085-4.554-42.667c6.316 9.072 16.815 14.803 28.709 14.803 19.309 0 34.961-15.759 34.961-35.068s-15.64-35.06-34.95-35.06zm-44.81 12.16c-0.052 0.111-0.108 0.219-0.162 0.33-0.172-0.167-0.345-0.332-0.52-0.496 0.23 0.07 0.46 0.12 0.68 0.17z"/>
	</g>
	<g clip-rule="evenodd" fill-rule="evenodd">
		<path d="m564.18 624.52c-3.735 0-7.33 0.591-10.705 1.677 5.637-6.209 9.073-14.451 9.073-23.497 0-19.311-15.653-34.964-34.962-34.964-19.31 0-34.962 15.653-34.962 34.964 0 10.055 4.25 19.109 11.044 25.488-2.839-0.744-5.818-1.145-8.891-1.145-19.309 0-34.962 15.653-34.962 34.962 0 19.311 15.653 34.964 34.962 34.964 11.217 0 21.194-5.125 27.591-13.34-1.601 21.428-3.297 38.371-3.297 38.371h20.952s-2.478-18.826-4.553-42.406c6.314 9.07 16.814 14.932 28.709 14.932 19.309 0 34.962-15.693 34.962-35.002 0-19.3-15.65-34.99-34.96-34.99zm-44.8 12.16c-0.052 0.11-0.108 0.219-0.163 0.33-0.171-0.167-0.344-0.332-0.519-0.497 0.22 0.07 0.45 0.12 0.68 0.17z"/>
		<path d="m564.18 394.11c-3.735 0-7.33 0.591-10.705 1.677 5.637-6.209 9.073-14.452 9.073-23.498 0-19.31-15.653-34.963-34.962-34.963-19.31 0-34.962 15.653-34.962 34.963 0 10.055 4.25 19.11 11.044 25.488-2.839-0.744-5.818-1.144-8.891-1.144-19.309 0-34.962 15.653-34.962 34.961 0 19.311 15.653 34.964 34.962 34.964 11.217 0 21.194-4.921 27.591-13.135-1.601 21.428-3.297 38.575-3.297 38.575h20.952s-2.478-19.03-4.553-42.611c6.314 9.071 16.814 14.83 28.709 14.83 19.309 0 34.962-15.744 34.962-35.054s-15.65-35.06-34.96-35.06zm-44.8 12.16c-0.052 0.111-0.108 0.219-0.163 0.329-0.171-0.166-0.344-0.331-0.519-0.495 0.22 0.07 0.45 0.12 0.68 0.17z"/>
		<path d="m433.21 272.84c-3.735 0-7.331 0.592-10.706 1.677 5.637-6.209 9.074-14.452 9.074-23.498 0-19.31-15.653-34.963-34.962-34.963-19.311 0-34.963 15.653-34.963 34.963 0 10.054 4.25 19.11 11.044 25.488-2.838-0.744-5.818-1.144-8.89-1.144-19.31 0-34.963 15.653-34.963 34.961 0 19.31 15.653 34.963 34.963 34.963 11.216 0 21.193-4.787 27.591-13.001-1.601 21.428-3.297 38.709-3.297 38.709h20.952s-2.478-19.165-4.553-42.745c6.314 9.071 16.814 14.763 28.709 14.763 19.308 0 34.961-15.778 34.961-35.087s-15.64-35.09-34.95-35.09zm-44.8 12.17c-0.052 0.111-0.109 0.219-0.163 0.329-0.171-0.167-0.344-0.332-0.519-0.496 0.22 0.06 0.45 0.11 0.68 0.17z"/>
		<path d="m562.96 151.58c-3.734 0-7.33 0.591-10.705 1.677 5.637-6.209 9.073-14.452 9.073-23.498 0-19.31-15.653-34.962-34.961-34.962-19.311 0-34.963 15.653-34.963 34.962 0 10.055 4.25 19.11 11.044 25.488-2.839-0.744-5.818-1.144-8.89-1.144-19.31 0-34.963 15.653-34.963 34.962 0 19.31 15.653 34.963 34.963 34.963 11.216 0 21.193-5.153 27.591-13.367-1.602 21.428-3.297 38.343-3.297 38.343h20.951s-2.478-18.798-4.552-42.379c6.314 9.071 16.813 14.946 28.708 14.946 19.309 0 34.962-15.687 34.962-34.996 0.01-19.31-15.65-34.99-34.96-34.99zm-44.8 12.16c-0.052 0.111-0.108 0.219-0.163 0.33-0.171-0.167-0.344-0.332-0.519-0.496 0.22 0.06 0.46 0.11 0.68 0.17z"/>
	</g>

<metadata><rdfRDF><ccWork><dcFormat>image/svg+xml</dcFormat><dcType rdfResource="http://purl.org/dc/dcmitype/StillImage"/><ccLicense rdfResource="http://creativecommons.org/licenses/publicdomain/"/><dcPublisher><ccAgent rdfAbout="http://openclipart.org/"><dcTitle>Openclipart</dcTitle></ccAgent></dcPublisher></ccWork><ccLicense rdfAbout="http://creativecommons.org/licenses/publicdomain/"><ccPermits rdfResource="http://creativecommons.org/ns#Reproduction"/><ccPermits rdfResource="http://creativecommons.org/ns#Distribution"/><ccPermits rdfResource="http://creativecommons.org/ns#DerivativeWorks"/></ccLicense></rdfRDF></metadata></svg>
