<?xml version="1.0" encoding="UTF-8"?>
<svg enable-background="new 0 0 800 800" version="1.1" viewBox="108 0 592 800" xmlSpace="preserve" xmlns="http://www.w3.org/2000/svg" xmlnsCc="http://web.resource.org/cc/" xmlnsDc="http://purl.org/dc/elements/1.1/" xmlnsRdf="http://www.w3.org/1999/02/22-rdf-syntax-ns#">

	
		
			<path d="m118.87 799c-5.552 0-9.868-4.04-9.868-9.058v-776.42c0-5.013 4.32-9.52 9.87-9.52h564.6c5.55 0 10.53 4.507 10.53 9.525v776.42c0 5.018-4.977 9.058-10.528 9.058h-564.6z" fill="#fff"/>
			<path d="m683.51 8.033c3.879 0 6.488 2.147 6.488 5.492v776.42c0 3.345-2.649 7.058-6.528 7.058h-564.6c-3.879 0-7.868-3.713-7.868-7.058v-776.42c0-3.34 3.99-5.52 7.87-5.52h565.13m-0.53-6h-564.6c-7.24 0-13.87 4.824-13.87 11.525v776.42c0 6.7 6.631 13.058 13.868 13.058h564.6c7.235 0 12.528-6.357 12.528-13.058v-776.42c0-6.696-5.32-11.52-12.56-11.52h0.03z"/>
		
		
			
				
					<path d="m182.92 66.04c0 2.352-0.412 4.516-1.235 6.491-0.823 1.976-1.97 3.688-3.439 5.135-1.47 1.445-3.252 2.576-5.345 3.386-2.093 0.812-4.421 1.218-6.985 1.218-3.128 0-5.75-0.542-7.867-1.623-2.117-1.082-3.816-2.558-5.098-4.428s-2.188-4.086-2.717-6.65c-0.529-2.562-0.794-5.328-0.794-8.291 0-1.975 0.112-4.05 0.336-6.227 0.223-2.175 0.611-4.333 1.164-6.475 0.553-2.139 1.323-4.173 2.311-6.102s2.24-3.64 3.757-5.133c1.518-1.493 3.334-2.675 5.451-3.546 2.117-0.87 4.598-1.304 7.444-1.304 3.528 0 6.262 0.534 8.203 1.604 1.94 1.071 2.91 2.581 2.91 4.534 0 0.871-0.335 1.646-1.006 2.328-0.67 0.683-1.511 1.023-2.522 1.023-0.824 0-1.535-0.229-2.134-0.688-0.6-0.458-0.899-1.098-0.899-1.922 0-0.282 0.082-0.604 0.247-0.969 0.164-0.365 0.247-0.689 0.247-0.972 0-0.681-0.465-1.252-1.394-1.71-0.929-0.459-2.358-0.687-4.286-0.687-2.376 0-4.334 0.576-5.875 1.727-1.541 1.154-2.77 2.729-3.688 4.729-0.917 1.999-1.564 4.351-1.94 7.056s-0.588 5.598-0.635 8.678c1.247-1.881 2.822-3.292 4.728-4.233 1.904-0.941 3.891-1.411 5.961-1.411 2.681 0 4.975 0.401 6.88 1.199 1.905 0.801 3.475 1.87 4.71 3.211 1.234 1.341 2.128 2.881 2.681 4.622 0.54 1.738 0.82 3.549 0.82 5.43zm-7.58 0.141c0-1.364-0.101-2.727-0.3-4.092-0.201-1.363-0.612-2.587-1.235-3.669-0.624-1.082-1.488-1.975-2.593-2.681s-2.599-1.059-4.48-1.059c-1.505 0-2.846 0.313-4.022 0.936-1.177 0.623-2.188 1.405-3.034 2.346s-1.482 1.993-1.905 3.157c-0.423 1.165-0.635 2.276-0.635 3.334 0 2.023 0.117 3.958 0.353 5.804 0.235 1.846 0.699 3.457 1.394 4.834 0.694 1.375 1.634 2.475 2.823 3.298 1.187 0.824 2.722 1.235 4.603 1.235 1.928 0 3.481-0.435 4.658-1.306 1.176-0.87 2.087-1.969 2.733-3.298 0.647-1.329 1.082-2.787 1.306-4.374 0.22-1.589 0.34-3.077 0.34-4.465z"/>
				
			
			
				
					<path d="m628.37 750.62c0-2.352 0.412-4.517 1.234-6.491 0.825-1.976 1.972-3.687 3.44-5.135 1.47-1.445 3.25-2.576 5.346-3.386 2.092-0.813 4.421-1.218 6.984-1.218 3.128 0 5.751 0.542 7.867 1.623 2.117 1.082 3.817 2.558 5.099 4.429 1.282 1.869 2.188 4.086 2.716 6.649 0.529 2.563 0.794 5.327 0.794 8.291 0 1.975-0.112 4.05-0.335 6.227-0.224 2.175-0.611 4.333-1.164 6.475-0.554 2.14-1.323 4.174-2.312 6.103-0.987 1.929-2.239 3.64-3.757 5.133s-3.335 2.676-5.451 3.546-4.598 1.305-7.444 1.305c-3.528 0-6.262-0.534-8.202-1.604-1.939-1.071-2.91-2.582-2.91-4.534 0-0.871 0.335-1.646 1.006-2.329 0.669-0.682 1.51-1.022 2.522-1.022 0.823 0 1.534 0.229 2.134 0.688s0.899 1.099 0.899 1.923c0 0.282-0.082 0.604-0.247 0.97-0.164 0.365-0.246 0.689-0.246 0.972 0 0.681 0.464 1.251 1.393 1.71 0.93 0.459 2.358 0.688 4.286 0.688 2.376 0 4.335-0.576 5.875-1.728 1.541-1.154 2.77-2.729 3.687-4.728s1.566-4.352 1.94-7.057c0.376-2.704 0.588-5.599 0.635-8.679-1.246 1.882-2.822 3.293-4.728 4.233-1.904 0.941-3.891 1.412-5.961 1.412-2.682 0-4.977-0.401-6.881-1.2-1.905-0.801-3.474-1.868-4.709-3.21s-2.13-2.882-2.682-4.622c-0.55-1.73-0.83-3.54-0.83-5.42zm7.59-0.14c0 1.363 0.103 2.728 0.301 4.093 0.199 1.363 0.612 2.587 1.235 3.669 0.623 1.081 1.487 1.975 2.593 2.681s2.598 1.059 4.479 1.059c1.507 0 2.847-0.313 4.023-0.936s2.187-1.405 3.033-2.346 1.482-1.992 1.905-3.157 0.635-2.276 0.635-3.333c0-2.024-0.116-3.959-0.353-5.805-0.235-1.846-0.699-3.457-1.394-4.833-0.693-1.376-1.635-2.476-2.822-3.299s-2.723-1.235-4.604-1.235c-1.929 0-3.481 0.436-4.657 1.307-1.177 0.869-2.086 1.969-2.733 3.298-0.646 1.33-1.083 2.787-1.306 4.374-0.23 1.58-0.34 3.07-0.34 4.46z"/>
				
			
		
	
	<g clip-rule="evenodd" fill-rule="evenodd">
		<path d="m175.55 89.521c-3.67 13.971-20.918 18.653-21.619 36.45-0.55 13.957 12.883 16.457 19.427 6.485-0.172 8.638-2.661 21.543-2.661 21.543h9.206s-3.039-12.001-3.214-21.107c5.584 9.69 18.434 6.622 18.334-5.807-0.11-13.82-18.86-26.04-19.48-37.559z"/>
		<path d="m644.09 731.1c3.67-13.973 20.919-18.652 21.618-36.45 0.55-13.957-12.882-16.768-19.427-6.797 0.173-8.636 2.662-21.853 2.662-21.853h-9.207s3.039 12.311 3.214 21.419c-5.585-9.692-18.435-6.468-18.335 5.962 0.13 13.83 18.88 26.21 19.49 37.72z"/>
	</g>
	<path d="m247.23 576.42c-8.682 33.045-49.472 44.115-51.13 86.207-1.301 33.008 30.471 38.461 45.947 14.878-0.407 20.428-6.295 50.491-6.295 50.491h21.774s-7.186-27.922-7.601-49.46c13.208 22.919 43.597 15.887 43.361-13.506-0.26-32.7-44.6-61.37-46.06-88.61z" clip-rule="evenodd" fill-rule="evenodd"/>
	<path d="m247.23 345.92c-8.682 33.044-49.472 44.114-51.13 86.207-1.301 33.007 30.471 38.21 45.947 14.628-0.407 20.426-6.295 50.24-6.295 50.24h21.774s-7.186-27.672-7.601-49.211c13.208 22.92 43.597 16.014 43.361-13.38-0.26-32.7-44.6-61.25-46.06-88.49z" clip-rule="evenodd" fill-rule="evenodd"/>
	<path d="m247.23 103.3c-8.682 33.044-49.472 44.114-51.13 86.206-1.301 33.007 30.471 38.026 45.947 14.443-0.407 20.427-6.295 50.056-6.295 50.056h21.774s-7.186-27.486-7.601-49.024c13.208 22.917 43.597 16.104 43.361-13.289-0.26-32.71-44.6-61.17-46.06-88.4z" clip-rule="evenodd" fill-rule="evenodd"/>
	<path d="m557.8 581.28c-8.682 33.044-49.471 44.113-51.13 86.205-1.301 33.008 30.472 38.536 45.947 14.953-0.407 20.427-6.294 50.564-6.294 50.564h21.773s-7.187-27.996-7.602-49.534c13.209 22.919 43.598 15.851 43.361-13.542-0.26-32.7-44.6-61.41-46.06-88.64z" clip-rule="evenodd" fill-rule="evenodd"/>
	<path d="m557.8 350.78c-8.682 33.044-49.471 44.114-51.13 86.207-1.301 33.008 30.472 38.283 45.947 14.701-0.407 20.428-6.294 50.314-6.294 50.314h21.773s-7.187-27.746-7.602-49.283c13.209 22.918 43.598 15.976 43.361-13.418-0.26-32.7-44.6-61.29-46.06-88.52z" clip-rule="evenodd" fill-rule="evenodd"/>
	<path d="m557.8 108.15c-8.682 33.044-49.471 44.114-51.13 86.207-1.301 33.007 30.472 38.1 45.947 14.518-0.407 20.427-6.294 50.129-6.294 50.129h21.773s-7.187-27.561-7.602-49.1c13.209 22.919 43.598 16.069 43.361-13.324-0.26-32.71-44.6-61.21-46.06-88.44z" clip-rule="evenodd" fill-rule="evenodd"/>

<metadata><rdfRDF><ccWork><dcFormat>image/svg+xml</dcFormat><dcType rdfResource="http://purl.org/dc/dcmitype/StillImage"/><ccLicense rdfResource="http://creativecommons.org/licenses/publicdomain/"/><dcPublisher><ccAgent rdfAbout="http://openclipart.org/"><dcTitle>Openclipart</dcTitle></ccAgent></dcPublisher></ccWork><ccLicense rdfAbout="http://creativecommons.org/licenses/publicdomain/"><ccPermits rdfResource="http://creativecommons.org/ns#Reproduction"/><ccPermits rdfResource="http://creativecommons.org/ns#Distribution"/><ccPermits rdfResource="http://creativecommons.org/ns#DerivativeWorks"/></ccLicense></rdfRDF></metadata></svg>
