<?xml version="1.0" encoding="UTF-8"?>
<svg enable-background="new 0 0 800 800" version="1.1" viewBox="108 0 592 800" xmlSpace="preserve" xmlns="http://www.w3.org/2000/svg" xmlnsCc="http://web.resource.org/cc/" xmlnsDc="http://purl.org/dc/elements/1.1/" xmlnsRdf="http://www.w3.org/1999/02/22-rdf-syntax-ns#">

	
		<path d="m118.79 800c-5.552 0-9.792-4.578-9.792-9.595v-776.4c0-5.016 4.24-9 9.79-9h564.59c5.56 0 10.62 3.984 10.62 9.001v776.4c0 5.017-5.063 9.595-10.614 9.595h-564.6z" fill="#fff"/>
		<path d="m683.01 8.271c3.879 0 6.988 2.386 6.988 5.73v776.4c0 3.344-2.736 6.595-6.614 6.595h-564.6c-3.879 0-7.792-3.251-7.792-6.595v-776.4c0-3.343 3.91-6 7.79-6h564.21m0.39-6h-564.6c-7.23 0-13.79 5.302-13.79 12.001v776.4c0 6.699 6.556 12.595 13.792 12.595h564.59c7.234 0 12.614-5.896 12.614-12.595v-776.4c0.01-6.698-5.36-12-12.59-12h-0.01z"/>
	
	<g fill="#C60101">
		<path d="m305.15 172.33s-42.879 37.655-65.411 71.342c-22.534-36.356-65.414-71.342-65.414-71.342s44.658-42.695 65.414-71.934c21.35 29.53 65.41 71.93 65.41 71.93z"/>
		<path d="m305.15 427.09s-42.879 37.654-65.411 71.343c-22.534-36.357-65.414-71.343-65.414-71.343s44.658-42.695 65.414-71.934c21.35 29.53 65.41 71.93 65.41 71.93z"/>
		<path d="m305.15 657.58s-42.879 37.655-65.411 71.343c-22.534-36.356-65.414-71.343-65.414-71.343s44.658-42.695 65.414-71.934c21.35 29.53 65.41 71.93 65.41 71.93z"/>
		<path d="m620.57 172.33s-42.879 37.655-65.411 71.342c-22.534-36.356-65.413-71.342-65.413-71.342s44.657-42.695 65.413-71.934c21.34 29.53 65.41 71.93 65.41 71.93z"/>
		<path d="m620.57 427.09s-42.879 37.654-65.411 71.343c-22.534-36.357-65.413-71.343-65.413-71.343s44.657-42.695 65.413-71.934c21.34 29.53 65.41 71.93 65.41 71.93z"/>
		<path d="m620.57 657.58s-42.879 37.655-65.411 71.343c-22.534-36.356-65.413-71.343-65.413-71.343s44.657-42.695 65.413-71.934c21.34 29.53 65.41 71.93 65.41 71.93z"/>
	</g>
	
		
			
				<path d="m182.84 66.516c0 2.352-0.412 4.517-1.235 6.492-0.824 1.976-1.97 3.687-3.44 5.133-1.47 1.447-3.251 2.576-5.345 3.386-2.093 0.812-4.422 1.217-6.985 1.217-3.128 0-5.75-0.541-7.867-1.623-2.116-1.081-3.816-2.558-5.098-4.428s-2.188-4.086-2.716-6.65c-0.529-2.563-0.793-5.327-0.793-8.291 0-1.976 0.111-4.051 0.335-6.227 0.223-2.175 0.611-4.333 1.164-6.474 0.553-2.14 1.324-4.174 2.311-6.103 0.988-1.928 2.241-3.64 3.757-5.133 1.517-1.494 3.334-2.675 5.451-3.546 2.118-0.869 4.598-1.305 7.444-1.305 3.528 0 6.262 0.535 8.202 1.604 1.94 1.071 2.911 2.582 2.911 4.534 0 0.87-0.335 1.646-1.006 2.328-0.67 0.683-1.511 1.024-2.522 1.024-0.823 0-1.535-0.229-2.134-0.688-0.6-0.459-0.9-1.099-0.9-1.923 0-0.282 0.082-0.604 0.248-0.97 0.164-0.365 0.247-0.688 0.247-0.97 0-0.682-0.465-1.252-1.394-1.711-0.929-0.458-2.358-0.688-4.287-0.688-2.375 0-4.334 0.577-5.874 1.729-1.541 1.153-2.77 2.729-3.687 4.727-0.917 2-1.564 4.352-1.939 7.056-0.377 2.705-0.588 5.598-0.635 8.679 1.246-1.881 2.822-3.293 4.727-4.233 1.905-0.941 3.892-1.411 5.962-1.411 2.681 0 4.975 0.4 6.88 1.198 1.904 0.801 3.474 1.87 4.709 3.211 1.234 1.341 2.128 2.881 2.681 4.622 0.55 1.742 0.82 3.552 0.82 5.434zm-7.58 0.141c0-1.364-0.101-2.729-0.299-4.092-0.2-1.364-0.612-2.587-1.235-3.669s-1.487-1.976-2.593-2.682c-1.105-0.706-2.599-1.058-4.48-1.058-1.506 0-2.846 0.312-4.022 0.935-1.177 0.624-2.188 1.406-3.034 2.347-0.847 0.94-1.482 1.993-1.905 3.157-0.424 1.164-0.635 2.276-0.635 3.334 0 2.023 0.117 3.958 0.353 5.804 0.235 1.846 0.7 3.457 1.394 4.833 0.693 1.375 1.634 2.475 2.823 3.298 1.187 0.824 2.722 1.235 4.604 1.235 1.928 0 3.48-0.435 4.657-1.305 1.176-0.87 2.087-1.97 2.734-3.299 0.646-1.329 1.082-2.787 1.306-4.375 0.23-1.587 0.34-3.075 0.34-4.463z" fill="#BD0000"/>
			
			<path d="m194.44 119s-16.218 14.241-24.74 26.982c-8.521-13.75-24.74-26.982-24.74-26.982s16.89-16.148 24.74-27.207c8.08 11.167 24.74 27.207 24.74 27.207z" fill="#C60101"/>
		
		
			
				<path d="m628.29 751.08c0-2.353 0.411-4.517 1.234-6.492 0.824-1.976 1.971-3.686 3.44-5.134 1.47-1.445 3.25-2.576 5.346-3.386 2.092-0.812 4.421-1.218 6.984-1.218 3.127 0 5.751 0.542 7.866 1.622 2.117 1.082 3.817 2.559 5.099 4.43 1.282 1.869 2.188 4.085 2.716 6.648 0.529 2.563 0.793 5.328 0.793 8.291 0 1.976-0.111 4.051-0.334 6.227-0.224 2.176-0.61 4.333-1.164 6.475-0.553 2.14-1.323 4.174-2.312 6.103-0.987 1.929-2.238 3.64-3.757 5.133-1.518 1.493-3.334 2.676-5.451 3.546-2.116 0.87-4.598 1.305-7.444 1.305-3.527 0-6.261-0.534-8.202-1.604-1.939-1.07-2.909-2.58-2.909-4.533 0-0.871 0.335-1.646 1.005-2.328 0.669-0.683 1.511-1.024 2.522-1.024 0.823 0 1.535 0.231 2.135 0.689s0.899 1.099 0.899 1.922c0 0.283-0.082 0.604-0.248 0.97-0.164 0.364-0.246 0.689-0.246 0.972 0 0.682 0.465 1.252 1.394 1.711 0.93 0.458 2.358 0.687 4.285 0.687 2.377 0 4.336-0.576 5.875-1.728 1.541-1.154 2.769-2.729 3.688-4.728 0.916-1.998 1.564-4.352 1.939-7.057 0.376-2.704 0.589-5.598 0.635-8.678-1.246 1.882-2.822 3.293-4.728 4.232-1.905 0.941-3.892 1.411-5.961 1.411-2.683 0-4.976-0.4-6.881-1.198-1.905-0.801-3.473-1.87-4.709-3.211-1.234-1.341-2.129-2.881-2.681-4.621-0.58-1.72-0.85-3.54-0.85-5.42zm7.58-0.14c0 1.363 0.102 2.728 0.301 4.092 0.199 1.363 0.611 2.588 1.234 3.669 0.624 1.082 1.488 1.976 2.594 2.682s2.598 1.059 4.479 1.059c1.507 0 2.848-0.313 4.023-0.936s2.188-1.405 3.033-2.347c0.847-0.939 1.482-1.992 1.905-3.156 0.424-1.165 0.635-2.276 0.635-3.334 0-2.023-0.116-3.958-0.353-5.804-0.235-1.847-0.7-3.457-1.394-4.834-0.693-1.375-1.634-2.475-2.821-3.298-1.188-0.824-2.724-1.234-4.604-1.234-1.93 0-3.48 0.435-4.657 1.306-1.177 0.87-2.086 1.969-2.733 3.298-0.646 1.329-1.082 2.786-1.306 4.374s-0.33 3.07-0.33 4.46z" fill="#BD0000"/>
			
			<path d="m614.27 699.82s16.217-14.241 24.738-26.982c8.523 13.751 24.74 26.982 24.74 26.982s-16.889 16.147-24.74 27.207c-8.08-11.18-24.74-27.21-24.74-27.21z" fill="#C60101"/>
		
	

<metadata><rdfRDF><ccWork><dcFormat>image/svg+xml</dcFormat><dcType rdfResource="http://purl.org/dc/dcmitype/StillImage"/><ccLicense rdfResource="http://creativecommons.org/licenses/publicdomain/"/><dcPublisher><ccAgent rdfAbout="http://openclipart.org/"><dcTitle>Openclipart</dcTitle></ccAgent></dcPublisher></ccWork><ccLicense rdfAbout="http://creativecommons.org/licenses/publicdomain/"><ccPermits rdfResource="http://creativecommons.org/ns#Reproduction"/><ccPermits rdfResource="http://creativecommons.org/ns#Distribution"/><ccPermits rdfResource="http://creativecommons.org/ns#DerivativeWorks"/></ccLicense></rdfRDF></metadata></svg>
