<?xml version="1.0" encoding="UTF-8"?>
<svg enable-background="new 0 0 800 800" version="1.1" viewBox="108 0 592 800" xmlSpace="preserve" xmlns="http://www.w3.org/2000/svg" xmlnsCc="http://web.resource.org/cc/" xmlnsDc="http://purl.org/dc/elements/1.1/" xmlnsRdf="http://www.w3.org/1999/02/22-rdf-syntax-ns#">

	
		
			<path d="m118.87 799c-5.552 0-9.868-4.04-9.868-9.058v-776.42c0-5.013 4.32-9.52 9.87-9.52h564.6c5.55 0 10.53 4.507 10.53 9.525v776.42c0 5.018-4.977 9.058-10.528 9.058h-564.6z" fill="#fff"/>
			<path d="m683.51 8.033c3.879 0 6.488 2.147 6.488 5.492v776.42c0 3.345-2.649 7.058-6.528 7.058h-564.6c-3.879 0-7.868-3.713-7.868-7.058v-776.42c0-3.34 3.99-5.52 7.87-5.52h565.13m-0.53-6h-564.6c-7.24 0-13.87 4.824-13.87 11.525v776.42c0 6.7 6.631 13.058 13.868 13.058h564.6c7.235 0 12.528-6.357 12.528-13.058v-776.42c0-6.696-5.32-11.52-12.56-11.52h0.03z"/>
		
		
			
				
					<path d="m142.35 71.006c0 1.411 0.211 2.557 0.635 3.438s1.041 1.586 1.852 2.115 1.8 0.929 2.963 1.199c1.165 0.27 2.487 0.5 3.969 0.687 0.259 0.048 0.464 0.197 0.618 0.448 0.152 0.251 0.229 0.519 0.229 0.805 0 0.287-0.083 0.55-0.247 0.788-0.165 0.238-0.424 0.358-0.776 0.358-0.964 0-2.023-0.036-3.175-0.105-1.152-0.071-2.328-0.142-3.527-0.212-1.2-0.07-2.394-0.141-3.582-0.212-1.187-0.071-2.287-0.105-3.298-0.105-0.917 0-1.964 0.034-3.14 0.105s-2.37 0.142-3.581 0.212c-1.212 0.07-2.394 0.141-3.546 0.212-1.152 0.07-2.175 0.105-3.069 0.105-0.33 0-0.583-0.128-0.759-0.382-0.176-0.255-0.264-0.533-0.264-0.834 0-0.278 0.082-0.533 0.247-0.766 0.165-0.231 0.423-0.37 0.776-0.417 1.458-0.187 2.805-0.412 4.039-0.67 1.235-0.26 2.299-0.647 3.193-1.166 0.894-0.518 1.593-1.212 2.1-2.083 0.505-0.872 0.758-2.025 0.758-3.462v-28.354c0-0.918-0.052-1.688-0.159-2.313-0.105-0.624-0.323-1.125-0.652-1.501-0.33-0.376-0.806-0.641-1.43-0.793-0.623-0.154-1.452-0.23-2.486-0.23-0.635 0-1.358 0.023-2.17 0.071s-1.735 0.117-2.77 0.211c-0.399 0.047-0.694-0.071-0.882-0.353s-0.282-0.6-0.282-0.952c0-0.259 0.059-0.512 0.177-0.759 0.117-0.247 0.305-0.405 0.564-0.476 2.774-0.659 5.48-1.364 8.114-2.116 2.634-0.754 5.269-1.471 7.903-2.153 0.4-0.093 0.775-0.077 1.129 0.053 0.353 0.129 0.529 0.405 0.529 0.829v38.778z"/>
					<path d="m176.12 31.277c3.175 0 5.821 0.723 7.938 2.168 2.116 1.448 3.804 3.329 5.062 5.646 1.258 2.316 2.14 4.898 2.646 7.743 0.506 2.846 0.759 5.656 0.759 8.432 0 3.292-0.253 6.479-0.759 9.561s-1.399 5.828-2.681 8.237c-1.283 2.412-2.97 4.346-5.063 5.805-2.093 1.458-4.728 2.187-7.903 2.187-3.481 0-6.327-0.729-8.537-2.187-2.211-1.459-3.958-3.393-5.239-5.805-1.283-2.409-2.165-5.179-2.646-8.307-0.483-3.128-0.724-6.338-0.724-9.632 0-2.587 0.252-5.292 0.759-8.115 0.505-2.822 1.412-5.402 2.716-7.743 1.305-2.34 3.064-4.256 5.274-5.75 2.2-1.494 5-2.24 8.39-2.24zm-9.11 23.989c0 3.034 0.129 5.939 0.388 8.713 0.259 2.777 0.742 5.234 1.447 7.374 0.706 2.141 1.658 3.853 2.857 5.134 1.2 1.283 2.764 1.922 4.692 1.922 1.74 0 3.152-0.64 4.234-1.922 1.081-1.281 1.91-2.981 2.486-5.098 0.577-2.116 0.947-4.575 1.112-7.374 0.164-2.798 0.247-5.691 0.247-8.679 0-3.504-0.129-6.579-0.388-9.225s-0.729-4.875-1.411-6.687c-0.682-1.811-1.576-3.175-2.681-4.092-1.106-0.917-2.494-1.377-4.164-1.377-3.152 0-5.41 1.794-6.774 5.381-1.38 3.589-2.06 8.898-2.06 15.93z"/>
				
			
			
				
					<path d="m648.32 743.23c0-1.412-0.211-2.558-0.635-3.438-0.423-0.882-1.042-1.586-1.852-2.114-0.813-0.528-1.801-0.93-2.964-1.199-1.165-0.271-2.488-0.5-3.969-0.688-0.259-0.047-0.465-0.196-0.618-0.448-0.152-0.251-0.229-0.519-0.229-0.806 0-0.286 0.083-0.549 0.248-0.787 0.163-0.238 0.423-0.358 0.774-0.358 0.966 0 2.023 0.036 3.177 0.106 1.152 0.07 2.327 0.142 3.526 0.212 1.2 0.07 2.395 0.141 3.582 0.212s2.287 0.105 3.299 0.105c0.917 0 1.965-0.034 3.14-0.105 1.176-0.071 2.37-0.142 3.58-0.212 1.213-0.07 2.394-0.142 3.548-0.212 1.151-0.07 2.174-0.106 3.068-0.106 0.329 0 0.583 0.129 0.758 0.384 0.178 0.255 0.265 0.533 0.265 0.834 0 0.278-0.082 0.533-0.246 0.766-0.165 0.231-0.424 0.37-0.776 0.416-1.458 0.188-2.807 0.412-4.041 0.671-1.233 0.259-2.298 0.647-3.19 1.165-0.896 0.518-1.596 1.213-2.101 2.083-0.506 0.872-0.758 2.025-0.758 3.462v28.354c0 0.919 0.053 1.689 0.159 2.313 0.104 0.624 0.321 1.124 0.651 1.501 0.33 0.376 0.806 0.641 1.429 0.794s1.453 0.229 2.487 0.229c0.636 0 1.358-0.023 2.17-0.071s1.735-0.117 2.77-0.211c0.399-0.047 0.693 0.071 0.883 0.354 0.188 0.281 0.282 0.599 0.282 0.952 0 0.258-0.06 0.512-0.179 0.758-0.115 0.247-0.304 0.406-0.563 0.477-2.774 0.659-5.481 1.364-8.115 2.116-2.634 0.753-5.268 1.471-7.903 2.152-0.398 0.094-0.774 0.077-1.128-0.053-0.353-0.13-0.529-0.406-0.529-0.828v-38.76z"/>
					<path d="m614.56 782.96c-3.175 0-5.821-0.722-7.938-2.168-2.116-1.447-3.805-3.328-5.063-5.646-1.259-2.315-2.141-4.896-2.646-7.742-0.508-2.846-0.76-5.656-0.76-8.432 0-3.293 0.252-6.479 0.76-9.561 0.505-3.082 1.398-5.828 2.68-8.238 1.282-2.411 2.97-4.345 5.063-5.805 2.093-1.458 4.728-2.187 7.902-2.187 3.481 0 6.327 0.729 8.537 2.187 2.212 1.46 3.959 3.394 5.239 5.805 1.284 2.41 2.165 5.181 2.646 8.308 0.482 3.128 0.724 6.338 0.724 9.632 0 2.587-0.253 5.292-0.759 8.115-0.505 2.822-1.411 5.402-2.716 7.744-1.307 2.339-3.064 4.256-5.274 5.75-2.21 1.5-5.01 2.25-8.39 2.25zm9.1-23.99c0-3.034-0.13-5.939-0.388-8.714-0.259-2.776-0.742-5.234-1.447-7.374-0.705-2.141-1.657-3.852-2.856-5.133-1.201-1.284-2.765-1.923-4.693-1.923-1.739 0-3.151 0.639-4.234 1.923-1.08 1.281-1.91 2.98-2.485 5.098-0.577 2.116-0.947 4.573-1.112 7.373-0.165 2.798-0.247 5.692-0.247 8.68 0 3.505 0.13 6.579 0.388 9.224 0.259 2.647 0.729 4.876 1.413 6.688 0.682 1.811 1.575 3.175 2.679 4.092 1.106 0.917 2.495 1.377 4.163 1.377 3.154 0 5.411-1.794 6.774-5.382 1.37-3.6 2.05-8.91 2.05-15.94z"/>
				
			
		
	
	<g clip-rule="evenodd" fill-rule="evenodd">
		<path d="m160.99 87.095c-3.671 13.972-20.919 18.653-21.619 36.45-0.55 13.958 12.882 16.671 19.427 6.699-0.171 8.638-2.661 21.756-2.661 21.756h9.207s-3.039-12.213-3.214-21.32c5.585 9.691 18.434 6.515 18.334-5.914-0.11-13.83-18.86-26.161-19.48-37.675z"/>
		<path d="m629.54 728.68c3.671-13.974 20.919-18.654 21.618-36.452 0.551-13.956-12.882-16.555-19.427-6.584 0.172-8.637 2.661-21.639 2.661-21.639h-9.206s3.039 12.098 3.214 21.205c-5.585-9.691-18.434-6.574-18.335 5.855 0.11 13.81 18.86 26.08 19.48 37.6z"/>
	</g>
	<path d="m392.81 486.65c-8.682 33.044-49.471 44.114-51.13 86.206-1.301 33.007 30.471 37.849 45.947 14.265-0.406 20.427-6.294 49.878-6.294 49.878h21.774s-7.187-27.31-7.602-48.847c13.209 22.917 43.597 16.194 43.36-13.2-0.26-32.7-44.6-61.07-46.06-88.3z" clip-rule="evenodd" fill-rule="evenodd"/>
	<path d="m395.24 171.23c-8.682 33.044-49.472 44.114-51.13 86.206-1.3 33.007 30.472 38.058 45.947 14.475-0.406 20.427-6.294 50.088-6.294 50.088h21.774s-7.187-27.519-7.601-49.057c13.208 22.917 43.597 16.089 43.361-13.304-0.27-32.71-44.61-61.19-46.06-88.42z" clip-rule="evenodd" fill-rule="evenodd"/>
	<path d="m235.1 583.7c-8.682 33.044-49.472 44.114-51.13 86.206-1.301 33.008 30.471 38.322 45.947 14.739-0.407 20.427-6.294 50.352-6.294 50.352h21.774s-7.186-27.783-7.601-49.321c13.208 22.918 43.597 15.958 43.361-13.435-0.26-32.7-44.6-61.3-46.06-88.54z" clip-rule="evenodd" fill-rule="evenodd"/>
	<path d="m235.1 425.99c-8.682 33.044-49.472 44.113-51.13 86.205-1.301 33.008 30.471 38.178 45.947 14.594-0.407 20.428-6.294 50.207-6.294 50.207h21.774s-7.186-27.637-7.601-49.176c13.208 22.918 43.597 16.029 43.361-13.364-0.26-32.7-44.6-61.23-46.06-88.47z" clip-rule="evenodd" fill-rule="evenodd"/>
	<path d="m235.1 256.15c-8.682 33.043-49.472 44.114-51.13 86.206-1.301 33.007 30.471 38.098 45.947 14.515-0.41 20.42-6.3 50.12-6.3 50.12h21.774s-7.186-27.558-7.601-49.096c13.208 22.918 43.597 16.069 43.361-13.324-0.25-32.7-44.59-61.2-46.05-88.43z" clip-rule="evenodd" fill-rule="evenodd"/>
	<path d="m235.1 86.311c-8.682 33.044-49.472 44.114-51.13 86.207-1.301 33.007 30.471 38.518 45.947 14.935-0.407 20.426-6.294 50.548-6.294 50.548h21.774s-7.186-27.979-7.601-49.518c13.208 22.919 43.597 15.859 43.361-13.534-0.26-32.71-44.6-61.42-46.06-88.649z" clip-rule="evenodd" fill-rule="evenodd"/>
	<path d="m550.52 583.7c-8.682 33.044-49.471 44.114-51.129 86.206-1.302 33.008 30.471 38.322 45.946 14.739-0.405 20.427-6.294 50.352-6.294 50.352h21.773s-7.186-27.783-7.601-49.321c13.208 22.918 43.597 15.958 43.36-13.435-0.26-32.7-44.6-61.3-46.06-88.54z" clip-rule="evenodd" fill-rule="evenodd"/>
	<path d="m550.52 425.99c-8.682 33.044-49.471 44.113-51.129 86.205-1.302 33.008 30.471 38.178 45.946 14.594-0.405 20.428-6.294 50.207-6.294 50.207h21.773s-7.186-27.637-7.601-49.176c13.208 22.918 43.597 16.029 43.36-13.364-0.26-32.7-44.6-61.23-46.06-88.47z" clip-rule="evenodd" fill-rule="evenodd"/>
	<path d="m550.52 256.15c-8.682 33.043-49.471 44.114-51.129 86.206-1.302 33.007 30.471 38.098 45.946 14.515-0.41 20.42-6.3 50.12-6.3 50.12h21.773s-7.186-27.558-7.601-49.096c13.208 22.918 43.597 16.069 43.36-13.324-0.25-32.7-44.59-61.2-46.05-88.43z" clip-rule="evenodd" fill-rule="evenodd"/>
	<path d="m550.52 86.311c-8.682 33.044-49.471 44.114-51.129 86.207-1.302 33.007 30.471 38.518 45.946 14.935-0.405 20.426-6.294 50.548-6.294 50.548h21.773s-7.186-27.979-7.601-49.518c13.208 22.919 43.597 15.859 43.36-13.534-0.26-32.71-44.6-61.42-46.06-88.649z" clip-rule="evenodd" fill-rule="evenodd"/>

<metadata><rdfRDF><ccWork><dcFormat>image/svg+xml</dcFormat><dcType rdfResource="http://purl.org/dc/dcmitype/StillImage"/><ccLicense rdfResource="http://creativecommons.org/licenses/publicdomain/"/><dcPublisher><ccAgent rdfAbout="http://openclipart.org/"><dcTitle>Openclipart</dcTitle></ccAgent></dcPublisher></ccWork><ccLicense rdfAbout="http://creativecommons.org/licenses/publicdomain/"><ccPermits rdfResource="http://creativecommons.org/ns#Reproduction"/><ccPermits rdfResource="http://creativecommons.org/ns#Distribution"/><ccPermits rdfResource="http://creativecommons.org/ns#DerivativeWorks"/></ccLicense></rdfRDF></metadata></svg>
