<?xml version="1.0" encoding="UTF-8"?>
<svg enable-background="new 0 0 800 800" version="1.1" viewBox="108 0 592 800" xmlSpace="preserve" xmlns="http://www.w3.org/2000/svg" xmlnsCc="http://web.resource.org/cc/" xmlnsDc="http://purl.org/dc/elements/1.1/" xmlnsRdf="http://www.w3.org/1999/02/22-rdf-syntax-ns#">

	
		
			<path d="m119.61 799c-5.549 0-9.608-4.351-9.608-9.365v-776.12c0-5.015 4.06-9.52 9.61-9.52h564.38c5.55 0 10.01 4.505 10.01 9.521v776.11c0 5.015-4.459 9.365-10.009 9.365h-564.38z" fill="#fff"/>
			<path d="m684.01 8.032c3.879 0 6.988 2.146 6.988 5.489v776.11c0 3.343-3.131 6.365-7.009 6.365h-564.38c-3.877 0-7.608-3.022-7.608-6.365v-776.12c0-3.343 3.73-5.52 7.61-5.52h564.39m-0.01-6h-564.38c-7.23 0-13.61 4.823-13.61 11.521v776.11c0 6.696 6.375 12.365 13.608 12.365h564.38c7.232 0 13.009-5.669 13.009-12.365v-776.12c0-6.697-5.56-11.52-12.8-11.52h-0.21z"/>
		
		
			
				
					<path d="m143.08 70.979c0 1.41 0.212 2.556 0.635 3.437 0.424 0.881 1.04 1.586 1.852 2.114 0.81 0.529 1.798 0.928 2.962 1.198s2.486 0.5 3.967 0.688c0.259 0.048 0.464 0.197 0.617 0.447s0.23 0.519 0.23 0.805c0 0.287-0.083 0.55-0.247 0.788-0.166 0.238-0.424 0.358-0.777 0.358-0.964 0-2.022-0.036-3.174-0.106-1.151-0.071-2.327-0.141-3.526-0.211s-2.393-0.141-3.579-0.212c-1.188-0.071-2.288-0.105-3.297-0.105-0.918 0-1.963 0.035-3.14 0.105-1.176 0.071-2.37 0.142-3.58 0.212s-2.392 0.141-3.543 0.211c-1.153 0.07-2.176 0.106-3.068 0.106-0.331 0-0.582-0.128-0.759-0.383-0.175-0.254-0.263-0.533-0.263-0.834 0-0.278 0.081-0.532 0.246-0.765 0.164-0.231 0.423-0.371 0.776-0.417 1.458-0.188 2.803-0.412 4.037-0.671 1.235-0.259 2.298-0.647 3.193-1.165 0.893-0.518 1.591-1.211 2.098-2.083 0.504-0.87 0.758-2.023 0.758-3.459v-28.342c0-0.918-0.053-1.688-0.158-2.312-0.107-0.624-0.325-1.123-0.653-1.5-0.331-0.376-0.807-0.641-1.429-0.794-0.623-0.153-1.452-0.229-2.485-0.229-0.635 0-1.358 0.023-2.169 0.07s-1.734 0.118-2.769 0.211c-0.4 0.047-0.694-0.07-0.881-0.353-0.189-0.282-0.282-0.6-0.282-0.952 0-0.258 0.058-0.511 0.175-0.758 0.118-0.247 0.306-0.406 0.565-0.476 2.773-0.658 5.477-1.363 8.111-2.116s5.267-1.469 7.899-2.151c0.4-0.094 0.777-0.076 1.13 0.053 0.353 0.13 0.528 0.406 0.528 0.829v38.762z"/>
					<path d="m176.83 31.265c3.174 0 5.82 0.723 7.936 2.168s3.803 3.327 5.06 5.643c1.258 2.316 2.139 4.896 2.646 7.741 0.504 2.845 0.758 5.654 0.758 8.428 0 3.292-0.253 6.478-0.758 9.557-0.507 3.08-1.4 5.825-2.682 8.235-1.281 2.411-2.967 4.344-5.06 5.802s-4.727 2.186-7.9 2.186c-3.479 0-6.324-0.729-8.534-2.186-2.209-1.458-3.955-3.391-5.237-5.802-1.281-2.41-2.164-5.178-2.646-8.305-0.482-3.126-0.722-6.336-0.722-9.627 0-2.586 0.252-5.29 0.758-8.112 0.506-2.821 1.412-5.4 2.715-7.741 1.305-2.339 3.063-4.255 5.272-5.749 2.2-1.492 5-2.238 8.38-2.238zm-9.09 23.98c0 3.033 0.128 5.937 0.387 8.711 0.259 2.775 0.74 5.231 1.446 7.371 0.706 2.139 1.658 3.85 2.856 5.13 1.199 1.282 2.762 1.922 4.691 1.922 1.74 0 3.15-0.64 4.231-1.922 1.081-1.281 1.91-2.979 2.487-5.096 0.576-2.116 0.945-4.572 1.111-7.37 0.164-2.798 0.247-5.69 0.247-8.676 0-3.503-0.129-6.577-0.389-9.222-0.258-2.645-0.729-4.873-1.409-6.683-0.682-1.81-1.576-3.174-2.681-4.09-1.105-0.917-2.492-1.375-4.162-1.375-3.15 0-5.407 1.793-6.771 5.378-1.38 3.585-2.06 8.893-2.06 15.922z"/>
				
			
			
				
					<path d="m648.85 742.94c0-1.41-0.212-2.555-0.635-3.437-0.423-0.881-1.041-1.585-1.852-2.113-0.813-0.528-1.8-0.929-2.963-1.198-1.164-0.271-2.486-0.5-3.967-0.688-0.259-0.047-0.465-0.196-0.618-0.447-0.152-0.251-0.229-0.519-0.229-0.806 0-0.286 0.083-0.55 0.247-0.787 0.163-0.238 0.423-0.358 0.774-0.358 0.965 0 2.022 0.036 3.175 0.105 1.152 0.071 2.327 0.143 3.526 0.212 1.199 0.07 2.393 0.142 3.581 0.212 1.187 0.071 2.285 0.105 3.297 0.105 0.916 0 1.963-0.034 3.138-0.105 1.177-0.07 2.369-0.142 3.579-0.212 1.213-0.069 2.394-0.141 3.546-0.212 1.151-0.069 2.174-0.105 3.067-0.105 0.329 0 0.582 0.128 0.758 0.383 0.178 0.255 0.265 0.533 0.265 0.834 0 0.278-0.082 0.533-0.246 0.765-0.166 0.232-0.424 0.371-0.776 0.417-1.457 0.188-2.805 0.412-4.039 0.67-1.233 0.26-2.297 0.647-3.19 1.166-0.894 0.518-1.594 1.211-2.098 2.082-0.506 0.871-0.758 2.023-0.758 3.46v28.343c0 0.918 0.052 1.688 0.158 2.312 0.104 0.624 0.322 1.124 0.651 1.501 0.329 0.376 0.806 0.641 1.428 0.793 0.623 0.154 1.452 0.23 2.487 0.23 0.635 0 1.357-0.024 2.168-0.071 0.812-0.048 1.735-0.117 2.77-0.211 0.398-0.048 0.692 0.071 0.882 0.353 0.188 0.282 0.282 0.6 0.282 0.952 0 0.259-0.06 0.512-0.178 0.758-0.116 0.247-0.305 0.405-0.563 0.477-2.773 0.658-5.479 1.363-8.111 2.115-2.633 0.753-5.267 1.47-7.9 2.151-0.398 0.094-0.774 0.077-1.127-0.053-0.354-0.13-0.529-0.405-0.529-0.828v-38.75z"/>
					<path d="m615.1 782.65c-3.174 0-5.818-0.723-7.935-2.168-2.115-1.446-3.803-3.327-5.061-5.644-1.258-2.315-2.14-4.896-2.645-7.74-0.507-2.845-0.759-5.653-0.759-8.429 0-3.291 0.252-6.477 0.759-9.557 0.505-3.08 1.398-5.825 2.679-8.234 1.282-2.411 2.969-4.344 5.062-5.803 2.093-1.457 4.726-2.187 7.899-2.187 3.48 0 6.325 0.729 8.534 2.187 2.211 1.459 3.957 3.392 5.237 5.803 1.282 2.409 2.163 5.178 2.645 8.304 0.483 3.127 0.724 6.336 0.724 9.628 0 2.587-0.253 5.291-0.758 8.112-0.506 2.821-1.411 5.4-2.716 7.74-1.305 2.339-3.063 4.256-5.272 5.749-2.2 1.5-5 2.24-8.39 2.24zm9.1-23.98c0-3.033-0.131-5.937-0.389-8.71-0.258-2.776-0.741-5.232-1.446-7.371-0.704-2.14-1.656-3.851-2.856-5.131-1.199-1.283-2.763-1.923-4.69-1.923-1.738 0-3.15 0.64-4.232 1.923-1.08 1.28-1.909 2.979-2.484 5.096-0.577 2.115-0.947 4.572-1.112 7.371-0.165 2.797-0.246 5.688-0.246 8.676 0 3.503 0.129 6.576 0.387 9.22 0.26 2.646 0.729 4.874 1.412 6.685 0.682 1.81 1.575 3.174 2.679 4.091 1.105 0.916 2.494 1.376 4.161 1.376 3.152 0 5.409-1.793 6.771-5.379 1.37-3.6 2.05-8.91 2.05-15.94z"/>
				
			
		
	
	<g clip-rule="evenodd" fill-rule="evenodd">
		<path d="m175.11 112.72c-1.516 0-2.976 0.24-4.346 0.681 2.291-2.521 3.685-5.869 3.685-9.542 0-7.842-6.356-14.197-14.197-14.197s-14.198 6.355-14.198 14.197c0 4.082 1.727 7.76 4.486 10.35-1.153-0.302-2.362-0.465-3.609-0.465-7.842 0-14.197 6.356-14.197 14.197s6.355 14.197 14.197 14.197c4.555 0 8.604-1.232 11.203-4.567-0.649 8.7-1.338 16.429-1.338 16.429h8.508s-1.007-8.493-1.849-18.068c2.564 3.684 6.827 5.638 11.656 5.638 7.842 0 14.197-6.584 14.197-14.426 0.01-7.84-6.35-14.42-14.19-14.42zm-18.19 4.94c-0.022 0.045-0.043 0.089-0.066 0.134-0.07-0.067-0.141-0.134-0.212-0.201 0.1 0.03 0.19 0.05 0.28 0.07z"/>
		<path d="m661.03 687.72c0-7.843-6.355-14.221-14.197-14.221-4.829 0-9.093 2.714-11.657 6.399 0.843-9.576 1.85-16.896 1.85-16.896h-8.509s0.689 6.559 1.339 15.258c-2.598-3.334-6.647-5.565-11.204-5.565-7.841 0-14.196 6.27-14.196 14.11s6.355 14.152 14.196 14.152c1.247 0 2.458-0.185 3.611-0.486-2.76 2.59-4.486 6.257-4.486 10.339 0 7.841 6.357 14.193 14.197 14.193 7.841 0 14.196-6.359 14.196-14.201 0-3.673-1.394-7.021-3.683-9.542 1.369 0.44 2.83 0.679 4.346 0.679 7.83 0 14.19-6.38 14.19-14.22zm-32.67 9.34c0.07-0.067 0.142-0.135 0.21-0.201 0.022 0.045 0.045 0.089 0.066 0.134-0.1 0.03-0.19 0.05-0.28 0.07z"/>
	</g>
	<g clip-rule="evenodd" fill-rule="evenodd">
		<path d="m259.75 643.88c-2.726 0-5.351 0.433-7.813 1.224 4.113-4.529 6.621-10.545 6.621-17.146 0-14.091-11.423-25.514-25.511-25.514-14.094 0-25.516 11.423-25.516 25.514 0 7.337 3.103 13.943 8.059 18.6-2.071-0.543-4.246-0.836-6.486-0.836-14.091 0-25.515 11.423-25.515 25.514 0 14.09 11.423 25.514 25.515 25.514 8.185 0 15.465-3.245 20.134-9.24-1.169 15.638-2.405 28.496-2.405 28.496h15.289s-1.808-14.232-3.322-31.441c4.608 6.62 12.27 10.65 20.951 10.65 14.089 0 25.513-11.575 25.513-25.666s-11.41-25.65-25.5-25.65zm-32.69 8.87c-0.039 0.081-0.078 0.159-0.12 0.239-0.125-0.122-0.25-0.24-0.378-0.361 0.16 0.04 0.33 0.08 0.5 0.12z"/>
		<path d="m259.75 475.74c-2.726 0-5.351 0.432-7.813 1.224 4.113-4.531 6.621-10.547 6.621-17.146 0-14.092-11.423-25.514-25.511-25.514-14.094 0-25.516 11.422-25.516 25.514 0 7.336 3.103 13.944 8.059 18.599-2.071-0.543-4.246-0.835-6.486-0.835-14.091 0-25.515 11.423-25.515 25.513 0 14.092 11.423 25.515 25.515 25.515 8.185 0 15.465-2.677 20.134-8.67-1.169 15.636-2.405 29.063-2.405 29.063h15.289s-1.808-14.802-3.322-32.01c4.608 6.619 12.27 10.366 20.951 10.366 14.089 0 25.513-11.72 25.513-25.81 0.01-14.08-11.41-25.8-25.5-25.8zm-32.69 8.88c-0.039 0.078-0.078 0.158-0.12 0.239-0.125-0.122-0.25-0.242-0.378-0.362 0.16 0.04 0.33 0.08 0.5 0.12z"/>
		<path d="m258.86 298.75c-2.727 0-5.35 0.432-7.813 1.224 4.113-4.531 6.623-10.545 6.623-17.146 0-14.092-11.426-25.514-25.514-25.514-14.093 0-25.515 11.422-25.515 25.514 0 7.336 3.103 13.944 8.059 18.599-2.07-0.542-4.244-0.835-6.487-0.835-14.09 0-25.514 11.423-25.514 25.513 0 14.091 11.423 25.515 25.514 25.515 8.185 0 15.466-2.683 20.136-8.677-1.17 15.636-2.408 29.058-2.408 29.058h15.289s-1.806-14.795-3.321-32.002c4.608 6.619 12.271 10.369 20.951 10.369 14.089 0 25.513-11.717 25.513-25.809s-11.42-25.79-25.51-25.79zm-32.69 8.88c-0.037 0.081-0.08 0.159-0.117 0.24-0.125-0.122-0.25-0.242-0.38-0.361 0.17 0.04 0.33 0.08 0.5 0.12z"/>
		<path d="m258.86 143.08c-2.727 0-5.35 0.432-7.813 1.224 4.113-4.531 6.623-10.546 6.623-17.146 0-14.091-11.426-25.514-25.514-25.514-14.093 0-25.515 11.422-25.515 25.514 0 7.336 3.103 13.945 8.059 18.598-2.07-0.542-4.244-0.833-6.487-0.833-14.09 0-25.514 11.422-25.514 25.512 0 14.091 11.423 25.514 25.514 25.514 8.185 0 15.466-2.349 20.136-8.342-1.17 15.636-2.408 29.39-2.408 29.39h15.289s-1.806-15.128-3.321-32.335c4.608 6.62 12.271 10.201 20.951 10.201 14.089 0 25.513-11.8 25.513-25.892 0.01-14.09-11.42-25.89-25.51-25.89zm-32.69 8.88c-0.037 0.081-0.08 0.159-0.117 0.24-0.125-0.121-0.25-0.242-0.38-0.361 0.17 0.04 0.33 0.08 0.5 0.12z"/>
		<path d="m566.86 643.88c-2.727 0-5.351 0.433-7.813 1.224 4.112-4.529 6.621-10.545 6.621-17.146 0-14.091-11.424-25.514-25.512-25.514-14.094 0-25.516 11.423-25.516 25.514 0 7.337 3.103 13.943 8.059 18.6-2.071-0.543-4.245-0.836-6.486-0.836-14.091 0-25.515 11.423-25.515 25.514 0 14.09 11.424 25.514 25.515 25.514 8.185 0 15.466-3.245 20.134-9.24-1.168 15.638-2.404 28.496-2.404 28.496h15.289s-1.81-14.232-3.323-31.441c4.608 6.62 12.271 10.65 20.951 10.65 14.089 0 25.512-11.575 25.512-25.666s-11.43-25.65-25.52-25.65zm-32.69 8.87c-0.04 0.081-0.079 0.159-0.121 0.239-0.124-0.122-0.249-0.24-0.377-0.361 0.17 0.04 0.33 0.08 0.5 0.12z"/>
		<path d="m410.95 558.8c-2.725 0-5.349 0.434-7.813 1.225 4.114-4.531 6.622-10.547 6.622-17.148 0-14.09-11.424-25.512-25.512-25.512-14.094 0-25.516 11.422-25.516 25.512 0 7.338 3.103 13.946 8.06 18.601-2.072-0.542-4.247-0.834-6.486-0.834-14.092 0-25.515 11.422-25.515 25.513s11.423 25.514 25.515 25.514c8.184 0 15.465-2.207 20.133-8.201-1.169 15.637-2.405 29.535-2.405 29.535h15.289s-1.809-15.271-3.322-32.48c4.607 6.619 12.271 10.131 20.949 10.131 14.09 0 25.514-11.835 25.514-25.927s-11.41-25.92-25.5-25.92zm-32.69 8.87c-0.039 0.081-0.078 0.159-0.12 0.239-0.125-0.12-0.251-0.241-0.379-0.362 0.16 0.05 0.33 0.08 0.5 0.12z"/>
		<path d="m410.95 243.5c-2.725 0-5.349 0.433-7.813 1.224 4.114-4.53 6.622-10.546 6.622-17.147 0-14.09-11.424-25.513-25.512-25.513-14.094 0-25.516 11.422-25.516 25.513 0 7.337 3.103 13.945 8.06 18.601-2.072-0.542-4.247-0.835-6.486-0.835-14.092 0-25.515 11.423-25.515 25.513 0 14.091 11.423 25.514 25.515 25.514 8.184 0 15.465-2.558 20.133-8.552-1.169 15.636-2.405 29.183-2.405 29.183h15.289s-1.809-14.92-3.322-32.128c4.607 6.619 12.271 10.306 20.949 10.306 14.09 0 25.514-11.748 25.514-25.839s-11.41-25.83-25.5-25.83zm-32.69 8.88c-0.039 0.082-0.078 0.159-0.12 0.24-0.125-0.122-0.251-0.241-0.379-0.362 0.16 0.04 0.33 0.08 0.5 0.12z"/>
		<path d="m566.86 475.74c-2.727 0-5.351 0.432-7.813 1.224 4.112-4.531 6.621-10.547 6.621-17.146 0-14.092-11.424-25.514-25.512-25.514-14.094 0-25.516 11.422-25.516 25.514 0 7.336 3.103 13.944 8.059 18.599-2.071-0.543-4.245-0.835-6.486-0.835-14.091 0-25.515 11.423-25.515 25.513 0 14.092 11.424 25.515 25.515 25.515 8.185 0 15.466-2.677 20.134-8.67-1.168 15.636-2.404 29.063-2.404 29.063h15.289s-1.81-14.802-3.323-32.01c4.608 6.619 12.271 10.366 20.951 10.366 14.089 0 25.512-11.72 25.512-25.81 0-14.08-11.43-25.8-25.52-25.8zm-32.69 8.88c-0.04 0.078-0.079 0.158-0.121 0.239-0.124-0.122-0.249-0.242-0.377-0.362 0.17 0.04 0.33 0.08 0.5 0.12z"/>
		<path d="m565.98 298.75c-2.728 0-5.351 0.432-7.813 1.224 4.112-4.531 6.622-10.545 6.622-17.146 0-14.092-11.425-25.514-25.514-25.514-14.092 0-25.515 11.422-25.515 25.514 0 7.336 3.103 13.944 8.059 18.599-2.07-0.542-4.244-0.835-6.487-0.835-14.09 0-25.514 11.423-25.514 25.513 0 14.091 11.424 25.515 25.514 25.515 8.185 0 15.467-2.683 20.136-8.677-1.17 15.636-2.407 29.058-2.407 29.058h15.29s-1.808-14.795-3.322-32.002c4.608 6.619 12.271 10.369 20.951 10.369 14.089 0 25.512-11.717 25.512-25.809s-11.42-25.79-25.51-25.79zm-32.7 8.88c-0.037 0.081-0.079 0.159-0.117 0.24-0.125-0.122-0.25-0.242-0.379-0.361 0.17 0.04 0.34 0.08 0.5 0.12z"/>
		<path d="m565.98 143.08c-2.728 0-5.351 0.432-7.813 1.224 4.112-4.531 6.622-10.546 6.622-17.146 0-14.091-11.425-25.514-25.514-25.514-14.092 0-25.515 11.422-25.515 25.514 0 7.336 3.103 13.945 8.059 18.598-2.07-0.542-4.244-0.833-6.487-0.833-14.09 0-25.514 11.422-25.514 25.512 0 14.091 11.424 25.514 25.514 25.514 8.185 0 15.467-2.349 20.136-8.342-1.17 15.636-2.407 29.39-2.407 29.39h15.29s-1.808-15.128-3.322-32.335c4.608 6.62 12.271 10.201 20.951 10.201 14.089 0 25.512-11.8 25.512-25.892 0-14.09-11.42-25.89-25.51-25.89zm-32.7 8.88c-0.037 0.081-0.079 0.159-0.117 0.24-0.125-0.121-0.25-0.242-0.379-0.361 0.17 0.04 0.34 0.08 0.5 0.12z"/>
	</g>

<metadata><rdfRDF><ccWork><dcFormat>image/svg+xml</dcFormat><dcType rdfResource="http://purl.org/dc/dcmitype/StillImage"/><ccLicense rdfResource="http://creativecommons.org/licenses/publicdomain/"/><dcPublisher><ccAgent rdfAbout="http://openclipart.org/"><dcTitle>Openclipart</dcTitle></ccAgent></dcPublisher></ccWork><ccLicense rdfAbout="http://creativecommons.org/licenses/publicdomain/"><ccPermits rdfResource="http://creativecommons.org/ns#Reproduction"/><ccPermits rdfResource="http://creativecommons.org/ns#Distribution"/><ccPermits rdfResource="http://creativecommons.org/ns#DerivativeWorks"/></ccLicense></rdfRDF></metadata></svg>
