<?xml version="1.0" encoding="UTF-8"?>
<svg enable-background="new 0 0 800 800" version="1.1" viewBox="108 0 592 800" xmlSpace="preserve" xmlns="http://www.w3.org/2000/svg" xmlnsCc="http://web.resource.org/cc/" xmlnsDc="http://purl.org/dc/elements/1.1/" xmlnsRdf="http://www.w3.org/1999/02/22-rdf-syntax-ns#">

	
		
			<path d="m118.87 799c-5.552 0-9.868-4.04-9.868-9.058v-776.42c0-5.013 4.32-9.52 9.87-9.52h564.6c5.55 0 10.53 4.507 10.53 9.525v776.42c0 5.018-4.977 9.058-10.528 9.058h-564.6z" fill="#fff"/>
			<path d="m683.51 8.033c3.879 0 6.488 2.147 6.488 5.492v776.42c0 3.345-2.649 7.058-6.528 7.058h-564.6c-3.879 0-7.868-3.713-7.868-7.058v-776.42c0-3.34 3.99-5.52 7.87-5.52h565.13m-0.53-6h-564.6c-7.24 0-13.87 4.824-13.87 11.525v776.42c0 6.7 6.631 13.058 13.868 13.058h564.6c7.235 0 12.528-6.357 12.528-13.058v-776.42c0-6.696-5.32-11.52-12.56-11.52h0.03z"/>
		
		
			
				
					<path d="m152.27 54.817c-0.659 0-1.135 0.106-1.429 0.32-0.294 0.212-0.56 0.588-0.794 1.13l-3.246 8.523c-0.259 0.779-0.388 1.332-0.388 1.662 0 0.612 0.159 1.131 0.477 1.556s0.741 0.768 1.27 1.026c0.53 0.259 1.134 0.454 1.817 0.583 0.682 0.13 1.376 0.219 2.082 0.265 0.353 0 0.6 0.128 0.741 0.384 0.141 0.254 0.212 0.521 0.212 0.799 0 0.301-0.071 0.581-0.212 0.834-0.141 0.256-0.388 0.384-0.741 0.384-0.564 0-1.188-0.031-1.87-0.089-0.682-0.06-1.381-0.125-2.099-0.194s-1.44-0.136-2.169-0.193c-0.729-0.059-1.423-0.089-2.082-0.089-1.247 0-2.452 0.094-3.616 0.282s-2.417 0.283-3.757 0.283c-0.283 0-0.507-0.14-0.67-0.418-0.165-0.278-0.248-0.58-0.248-0.904 0-0.254 0.064-0.486 0.194-0.694 0.128-0.208 0.347-0.336 0.653-0.384l1.094-0.14c0.729-0.166 1.381-0.365 1.958-0.601s1.123-0.583 1.641-1.041c0.517-0.46 1.011-1.083 1.482-1.873 0.47-0.787 0.964-1.817 1.482-3.089l16.334-41.131c0.141-0.399 0.529-0.6 1.165-0.6 0.658 0 1.188 0.201 1.588 0.6 1.199 3.085 2.487 6.385 3.863 9.904s2.781 7.097 4.215 10.732c1.436 3.636 2.876 7.25 4.322 10.839 1.447 3.59 2.828 6.985 4.146 10.187 0.564 1.389 1.117 2.465 1.659 3.229 0.541 0.766 1.094 1.348 1.658 1.749 0.564 0.4 1.14 0.67 1.728 0.811s1.211 0.283 1.87 0.423c0.282 0.048 0.488 0.198 0.618 0.453 0.129 0.255 0.194 0.521 0.194 0.799 0 0.302-0.059 0.568-0.176 0.8-0.118 0.231-0.306 0.348-0.564 0.348-0.753 0-1.5-0.024-2.24-0.071-0.742-0.047-1.477-0.119-2.205-0.212-0.706-0.093-1.459-0.165-2.258-0.212-0.8-0.046-1.647-0.07-2.54-0.07-2.047 0-3.952 0.094-5.716 0.282s-3.47 0.283-5.116 0.283c-0.329 0-0.582-0.127-0.758-0.384-0.176-0.253-0.265-0.556-0.265-0.903 0-0.278 0.07-0.522 0.212-0.73 0.141-0.208 0.388-0.336 0.741-0.384 1.646-0.21 2.845-0.505 3.599-0.884 0.776-0.376 1.165-1.178 1.165-2.405 0-0.329-0.036-0.712-0.106-1.149-0.07-0.436-0.224-1.031-0.458-1.786-0.236-0.754-0.57-1.721-1.005-2.899-0.436-1.179-1.018-2.676-1.747-4.493-0.235-0.635-0.559-1.036-0.97-1.201-0.412-0.166-1.076-0.249-1.993-0.249h-12.7zm12.45-2.822c0.658 0 1.111-0.111 1.358-0.334 0.247-0.224 0.252-0.619 0.018-1.182l-6.315-16.899c-0.094-0.258-0.283-0.388-0.564-0.388-0.283 0-0.471 0.13-0.564 0.388l-6.598 16.899c-0.235 0.611-0.259 1.017-0.071 1.217s0.553 0.299 1.094 0.299h11.64z"/>
				
			
			
				
					<path d="m642.04 743.65c0.658 0 1.135-0.106 1.429-0.319s0.56-0.589 0.794-1.131l3.247-8.523c0.257-0.777 0.388-1.331 0.388-1.661 0-0.613-0.159-1.133-0.477-1.556-0.317-0.425-0.741-0.769-1.27-1.026-0.53-0.26-1.135-0.453-1.817-0.583s-1.377-0.22-2.081-0.266c-0.354 0-0.601-0.127-0.741-0.383-0.142-0.254-0.212-0.521-0.212-0.799 0-0.301 0.07-0.581 0.212-0.834 0.141-0.257 0.388-0.384 0.741-0.384 0.564 0 1.188 0.03 1.868 0.089 0.684 0.059 1.383 0.124 2.1 0.194 0.718 0.069 1.441 0.136 2.17 0.192 0.729 0.06 1.424 0.09 2.082 0.09 1.247 0 2.452-0.095 3.616-0.282 1.163-0.188 2.417-0.283 3.756-0.283 0.283 0 0.507 0.14 0.672 0.418 0.164 0.278 0.247 0.579 0.247 0.903 0 0.255-0.065 0.487-0.194 0.695s-0.347 0.336-0.653 0.383l-1.093 0.141c-0.73 0.165-1.381 0.364-1.958 0.601-0.577 0.235-1.123 0.583-1.642 1.041-0.517 0.459-1.011 1.082-1.48 1.872-0.472 0.787-0.965 1.817-1.483 3.089l-16.334 41.132c-0.141 0.399-0.529 0.6-1.164 0.6-0.658 0-1.187-0.2-1.588-0.6-1.199-3.085-2.488-6.386-3.862-9.904-1.376-3.519-2.781-7.097-4.217-10.732-1.435-3.637-2.875-7.249-4.321-10.839s-2.828-6.985-4.146-10.187c-0.563-1.389-1.117-2.465-1.658-3.229-0.541-0.766-1.094-1.348-1.659-1.748-0.563-0.401-1.14-0.671-1.728-0.812-0.587-0.142-1.211-0.283-1.869-0.424-0.282-0.047-0.487-0.197-0.618-0.452-0.129-0.256-0.194-0.521-0.194-0.8 0-0.302 0.06-0.568 0.177-0.8 0.117-0.23 0.307-0.348 0.564-0.348 0.753 0 1.5 0.023 2.239 0.07 0.742 0.048 1.477 0.118 2.206 0.213 0.707 0.093 1.458 0.164 2.258 0.211 0.799 0.047 1.647 0.071 2.54 0.071 2.047 0 3.951-0.095 5.716-0.282 1.764-0.188 3.469-0.283 5.115-0.283 0.329 0 0.582 0.127 0.759 0.384 0.176 0.253 0.266 0.556 0.266 0.902 0 0.278-0.072 0.522-0.214 0.73-0.141 0.208-0.388 0.336-0.739 0.383-1.647 0.211-2.846 0.506-3.6 0.884-0.775 0.378-1.164 1.18-1.164 2.405 0 0.329 0.035 0.712 0.105 1.149 0.071 0.437 0.225 1.031 0.459 1.785 0.235 0.755 0.57 1.722 1.006 2.899 0.435 1.179 1.018 2.676 1.746 4.492 0.235 0.635 0.559 1.036 0.971 1.201 0.411 0.166 1.075 0.249 1.993 0.249h12.7zm-12.45 2.82c-0.659 0-1.111 0.11-1.358 0.333-0.247 0.225-0.253 0.619-0.019 1.183l6.315 16.899c0.095 0.259 0.283 0.389 0.565 0.389 0.281 0 0.471-0.13 0.563-0.389l6.599-16.899c0.235-0.611 0.259-1.018 0.069-1.217-0.188-0.2-0.552-0.299-1.094-0.299h-11.63z"/>
				
			
		
	
	<path d="m403.05 238.14c-18.189 69.222-103.64 92.413-107.11 180.59-2.722 69.145 63.832 80.238 96.25 30.838-0.86 42.78-13.19 105.43-13.19 105.43h45.614s-15.057-58.164-15.924-103.28c27.67 48.012 91.327 33.449 90.834-28.124-0.54-68.51-93.43-128.42-96.47-185.46z" clip-rule="evenodd" fill-rule="evenodd"/>
	<g clip-rule="evenodd" fill-rule="evenodd">
		<path d="m163.42 78.603c-3.67 13.971-20.918 18.653-21.619 36.45-0.55 13.957 12.884 15.917 19.427 5.945-0.171 8.637-2.661 21.002-2.661 21.002h9.207s-3.039-11.459-3.214-20.566c5.586 9.691 18.435 6.892 18.335-5.537-0.12-13.82-18.86-25.773-19.48-37.287z"/>
		<path d="m631.96 720.18c3.672-13.973 20.919-18.653 21.62-36.45 0.55-13.958-12.884-16.309-19.428-6.339 0.172-8.637 2.661-21.393 2.661-21.393h-9.206s3.038 11.852 3.213 20.96c-5.584-9.691-18.434-6.698-18.334 5.733 0.12 13.83 18.87 25.98 19.48 37.49z"/>
	</g>


	
		
			<path d="m118.87 799c-5.552 0-9.868-4.04-9.868-9.058v-776.42c0-5.013 4.32-9.52 9.87-9.52h564.6c5.55 0 10.53 4.507 10.53 9.525v776.42c0 5.018-4.977 9.058-10.528 9.058h-564.6z" fill="#fff"/>
			<path d="m683.51 8.033c3.879 0 6.488 2.147 6.488 5.492v776.42c0 3.345-2.649 7.058-6.528 7.058h-564.6c-3.879 0-7.868-3.713-7.868-7.058v-776.42c0-3.34 3.99-5.52 7.87-5.52h565.13m-0.53-6h-564.6c-7.24 0-13.87 4.824-13.87 11.525v776.42c0 6.7 6.631 13.058 13.868 13.058h564.6c7.235 0 12.528-6.357 12.528-13.058v-776.42c0-6.696-5.32-11.52-12.56-11.52h0.03z"/>
		
		
			
				
					<path d="m164.52 65.931c2.14 0 3.798-0.565 4.975-1.693 1.2-1.152 2.093-3.21 2.681-6.174 0.047-0.258 0.182-0.453 0.406-0.582 0.223-0.129 0.464-0.194 0.723-0.194 0.353 0 0.688 0.095 1.005 0.284 0.317 0.187 0.476 0.446 0.476 0.774 0 1.647-0.159 3.3-0.476 4.957-0.318 1.659-0.8 3.159-1.447 4.5-0.646 1.34-1.481 2.434-2.504 3.28-1.023 0.847-2.24 1.27-3.651 1.27-1.553 0-3.129-0.077-4.728-0.229-1.6-0.154-3.164-0.329-4.692-0.531-1.53-0.199-2.994-0.375-4.393-0.528s-2.676-0.23-3.829-0.23c-1.576-0.046-2.928 0.142-4.057 0.565-0.588 0.189-1.129 0.359-1.622 0.511-0.494 0.154-0.941 0.277-1.341 0.372-0.612 0-1.005-0.218-1.182-0.654-0.176-0.434-0.265-0.886-0.265-1.358 0-0.282 0.071-0.623 0.212-1.023 0.917-2.258 1.97-4.239 3.157-5.945 1.188-1.704 2.44-3.227 3.757-4.568s2.664-2.544 4.04-3.616c1.375-1.071 2.722-2.087 4.039-3.052 1.317-0.988 2.563-1.964 3.74-2.928 1.176-0.965 2.199-2.022 3.069-3.175 0.87-1.152 1.564-2.434 2.082-3.846 0.517-1.411 0.775-3.057 0.775-4.939 0-3.48-0.752-6.221-2.258-8.221-1.481-2.044-3.893-3.068-7.232-3.068-1.529 0-2.864 0.264-4.004 0.794-1.141 0.528-2.088 1.163-2.84 1.905-0.753 0.742-1.318 1.504-1.693 2.293-0.377 0.788-0.564 1.441-0.564 1.958 0 0.212 0.023 0.494 0.07 0.847 0.047 0.354 0.177 0.7 0.388 1.042 0.212 0.341 0.529 0.629 0.953 0.863 0.424 0.236 1.011 0.353 1.764 0.353 1.082 0 1.847 0.276 2.293 0.828 0.447 0.555 0.671 1.242 0.671 2.065 0 0.895-0.318 1.705-0.953 2.435-0.588 0.729-1.541 1.092-2.858 1.092-1.247 0-2.258-0.247-3.034-0.739-0.777-0.495-1.382-1.095-1.817-1.801-0.436-0.705-0.735-1.451-0.899-2.239-0.165-0.79-0.247-1.477-0.247-2.064 0-1.718 0.364-3.353 1.093-4.905s1.752-2.905 3.07-4.057c1.317-1.152 2.898-2.07 4.745-2.752 1.847-0.681 3.887-1.022 6.122-1.022 2.681 0 4.985 0.322 6.914 0.969 1.928 0.647 3.516 1.552 4.763 2.717 1.247 1.164 2.164 2.553 2.752 4.163 0.587 1.611 0.882 3.382 0.882 5.31 0 2.776-0.612 5.174-1.834 7.197-1.224 2.046-2.752 3.886-4.587 5.521-1.834 1.635-3.81 3.134-5.927 4.498-1.059 0.683-2.081 1.353-3.069 2.01-0.988 0.659-1.94 1.318-2.857 1.976-1.834 1.294-3.364 2.611-4.586 3.953-1.224 1.317-1.835 2.81-1.835 4.48 0 0.117 0.588 0.047 1.764-0.213 1.223-0.258 2.657-0.387 4.304-0.387 0.917 0 1.805 0.047 2.664 0.141 0.858 0.095 1.681 0.207 2.47 0.336 0.788 0.129 1.552 0.241 2.293 0.335 0.74 0.093 1.47 0.139 2.18 0.139z"/>
				
			
			
				
					<path d="m620.09 732.53c-2.141 0-3.799 0.565-4.976 1.692-1.199 1.154-2.094 3.212-2.681 6.175-0.048 0.259-0.182 0.453-0.405 0.583-0.224 0.129-0.465 0.193-0.724 0.193-0.354 0-0.688-0.094-1.006-0.283-0.317-0.188-0.477-0.445-0.477-0.774 0-1.647 0.159-3.299 0.477-4.956 0.317-1.659 0.801-3.159 1.448-4.5 0.646-1.34 1.48-2.434 2.504-3.28 1.021-0.848 2.239-1.271 3.651-1.271 1.552 0 3.128 0.077 4.728 0.229 1.6 0.154 3.163 0.329 4.691 0.531 1.53 0.199 2.994 0.375 4.393 0.528 1.4 0.153 2.677 0.229 3.829 0.229 1.575 0.046 2.927-0.143 4.056-0.564 0.588-0.189 1.13-0.359 1.624-0.511 0.492-0.155 0.94-0.277 1.341-0.372 0.611 0 1.004 0.217 1.181 0.653 0.178 0.435 0.265 0.887 0.265 1.358 0 0.281-0.071 0.623-0.211 1.023-0.917 2.258-1.971 4.239-3.158 5.945-1.187 1.703-2.439 3.227-3.757 4.567-1.316 1.342-2.665 2.545-4.04 3.616-1.376 1.071-2.721 2.087-4.038 3.052-1.318 0.987-2.563 1.964-3.741 2.929-1.176 0.965-2.198 2.021-3.068 3.175-0.871 1.151-1.564 2.434-2.082 3.846-0.519 1.41-0.776 3.057-0.776 4.939 0 3.479 0.754 6.221 2.258 8.22 1.481 2.046 3.894 3.068 7.231 3.068 1.531 0 2.865-0.264 4.004-0.793 1.143-0.529 2.089-1.164 2.843-1.904 0.752-0.742 1.316-1.506 1.692-2.295 0.377-0.787 0.565-1.44 0.565-1.957 0-0.211-0.023-0.493-0.072-0.847-0.047-0.354-0.176-0.7-0.388-1.041-0.212-0.342-0.529-0.63-0.952-0.863-0.424-0.236-1.012-0.354-1.764-0.354-1.083 0-1.847-0.275-2.294-0.828-0.445-0.555-0.67-1.241-0.67-2.064 0-0.895 0.317-1.705 0.952-2.435 0.588-0.729 1.541-1.093 2.857-1.093 1.247 0 2.258 0.247 3.034 0.739 0.776 0.496 1.383 1.096 1.818 1.802 0.434 0.704 0.734 1.451 0.898 2.238 0.165 0.789 0.247 1.477 0.247 2.064 0 1.718-0.365 3.353-1.093 4.904-0.73 1.553-1.753 2.905-3.071 4.057-1.316 1.153-2.897 2.069-4.743 2.753-1.848 0.681-3.888 1.021-6.123 1.021-2.679 0-4.985-0.322-6.914-0.969-1.928-0.647-3.516-1.553-4.763-2.717-1.246-1.164-2.163-2.553-2.751-4.163-0.588-1.611-0.883-3.383-0.883-5.311 0-2.775 0.612-5.173 1.835-7.196 1.223-2.047 2.752-3.886 4.585-5.521 1.836-1.636 3.811-3.135 5.93-4.499 1.056-0.683 2.08-1.353 3.068-2.01 0.987-0.66 1.939-1.318 2.857-1.977 1.833-1.294 3.364-2.611 4.587-3.952 1.222-1.317 1.834-2.81 1.834-4.48 0-0.118-0.587-0.048-1.765 0.213-1.222 0.258-2.656 0.388-4.304 0.388-0.917 0-1.806-0.047-2.664-0.142s-1.682-0.205-2.469-0.335c-0.788-0.129-1.553-0.242-2.293-0.335-0.76-0.1-1.48-0.15-2.19-0.15z"/>
				
			
		
	
	<g clip-rule="evenodd" fill-rule="evenodd">
		<path d="m158.57 78.603c-3.67 13.971-20.918 18.653-21.619 36.45-0.55 13.957 12.884 15.917 19.427 5.945-0.172 8.637-2.661 21.002-2.661 21.002h9.206s-3.038-11.459-3.214-20.566c5.586 9.691 18.435 6.892 18.334-5.537-0.12-13.82-18.87-25.773-19.48-37.287z"/>
		<path d="m627.11 720.18c3.67-13.973 20.918-18.653 21.618-36.45 0.55-13.958-12.883-16.309-19.427-6.339 0.172-8.637 2.66-21.393 2.66-21.393h-9.206s3.039 11.852 3.215 20.96c-5.585-9.691-18.435-6.698-18.336 5.733 0.13 13.83 18.87 25.98 19.49 37.49z"/>
	</g>
	<path d="m395.24 574c-8.682 33.045-49.472 44.114-51.13 86.206-1.299 33.008 30.472 38.675 45.947 15.091-0.406 20.428-6.294 50.705-6.294 50.705h21.774s-7.187-28.135-7.601-49.674c13.209 22.92 43.597 15.782 43.361-13.611-0.27-32.71-44.6-61.49-46.06-88.72z" clip-rule="evenodd" fill-rule="evenodd"/>
	<path d="m395.24 100.87c-8.682 33.044-49.472 44.114-51.13 86.207-1.299 33.007 30.472 38.24 45.947 14.657-0.406 20.426-6.294 50.269-6.294 50.269h21.774s-7.187-27.7-7.601-49.238c13.209 22.918 43.597 15.998 43.361-13.395-0.27-32.71-44.6-61.28-46.06-88.51z" clip-rule="evenodd" fill-rule="evenodd"/>

<metadata><rdfRDF><ccWork><dcFormat>image/svg+xml</dcFormat><dcType rdfResource="http://purl.org/dc/dcmitype/StillImage"/><ccLicense rdfResource="http://creativecommons.org/licenses/publicdomain/"/><dcPublisher><ccAgent rdfAbout="http://openclipart.org/"><dcTitle>Openclipart</dcTitle></ccAgent></dcPublisher></ccWork><ccLicense rdfAbout="http://creativecommons.org/licenses/publicdomain/"><ccPermits rdfResource="http://creativecommons.org/ns#Reproduction"/><ccPermits rdfResource="http://creativecommons.org/ns#Distribution"/><ccPermits rdfResource="http://creativecommons.org/ns#DerivativeWorks"/></ccLicense></rdfRDF></metadata></svg>
